<?xml version="1.0" encoding="iso-8859-1"?>
<!-- Generator: Adobe Illustrator 19.0.0, SVG Export Plug-In . SVG Version: 6.00 Build 0)  -->
<svg xmlns="http://www.w3.org/2000/svg" xmlns:xlink="http://www.w3.org/1999/xlink" version="1.1" id="Layer_1" x="0px" y="0px" viewBox="0 0 445 445" style="enable-background:new 0 0 445 445;" xml:space="preserve" width="512px" height="512px">
<g transform="translate(0 -540.36)">
	<g>
		<g>
			<path d="M117.8,610.36L117.8,610.36c-3,0-5.3,0-7.5,0v263.8c39-1.5,77.3,9.7,114.8,21c36.8,11.2,73.5,21.7,110.3,19.5v-263     C258.1,653.06,189.9,611.86,117.8,610.36z M279.9,790.06l-24.8,9.7v20.2l-27.8-12.7v33h-15v-33l-27,12.7v-20.2l-25.5-9.7     l12.8-17.2l-17.3-27.7h30v-32.2h17.3l17.3-27.7l18,27.7h17.3v32.2h30l-17.3,27.7L279.9,790.06z" fill="#FFFFFF"/>
			<path d="M0,908.56c6-3,13.5-6.7,30-14.2c20.3-8.2,45-17.2,65.3-20.2v-263.8c-35.3,6.7-64.5,21.7-95.3,35.9V908.56z" fill="#FFFFFF"/>
			<path d="M350.4,651.56v263.8c34.6-6.8,63.8-22.5,94.6-36v-262.3C415,632.06,385,644.06,350.4,651.56z" fill="#FFFFFF"/>
		</g>
	</g>
</g>
<g>
</g>
<g>
</g>
<g>
</g>
<g>
</g>
<g>
</g>
<g>
</g>
<g>
</g>
<g>
</g>
<g>
</g>
<g>
</g>
<g>
</g>
<g>
</g>
<g>
</g>
<g>
</g>
<g>
</g>
</svg>
