<?xml version="1.0" encoding="utf-8"?>
<!-- Generator: Adobe Illustrator 16.0.3, SVG Export Plug-In . SVG Version: 6.00 Build 0)  -->
<!DOCTYPE svg PUBLIC "-//W3C//DTD SVG 1.1//EN" "http://www.w3.org/Graphics/SVG/1.1/DTD/svg11.dtd">
<svg version="1.1" id="Layer_1" xmlns="http://www.w3.org/2000/svg" xmlns:xlink="http://www.w3.org/1999/xlink" x="0px" y="0px"
	 width="31px" height="31px" viewBox="0 0 31 31" enable-background="new 0 0 31 31" xml:space="preserve">
<title>Group</title>
<desc>Created with Sketch.</desc>
<g id="Page-1">
	<g id="Website-Review" transform="translate(-552.000000, -3652.000000)">
		<g id="Group-11" transform="translate(503.000000, 3375.000000)">
			<g id="Group-21" transform="translate(50.000000, 278.000000)">
				<g id="Group">
					<g id="Shape">
						<path fill="#35A1E2" d="M19.164,14.695h-8.948c-0.629,0-1.141-0.515-1.141-1.148v-1.224c0-0.478,0.286-0.897,0.728-1.071
							c1.875-0.729,2.593-1.135,2.862-1.323c-0.243-0.324-0.44-0.706-0.581-1.127c-0.223-0.238-0.37-0.543-0.416-0.872
							c-0.046-0.334,0.012-0.664,0.164-0.956V6.11c0-1.668,1.094-2.705,2.856-2.705s2.856,1.037,2.856,2.705v0.863
							c0.153,0.292,0.211,0.622,0.165,0.956c-0.046,0.329-0.193,0.634-0.416,0.872c-0.142,0.422-0.339,0.804-0.581,1.127
							c0.269,0.188,0.986,0.594,2.861,1.322c0.437,0.17,0.729,0.6,0.729,1.071v1.224C20.305,14.18,19.793,14.695,19.164,14.695z
							 M10.675,13.096h8.03v-0.467c-2.782-1.099-3.42-1.631-3.6-2.213l-0.036-0.237V9.364l0.227-0.233
							c0.229-0.234,0.416-0.586,0.528-0.99L15.9,7.867l0.232-0.165l-0.178-0.22L15.946,6.11c0-0.574-0.152-1.105-1.256-1.105
							c-1.114,0-1.257,0.591-1.257,1.105v1.379l-0.177,0.22l0.232,0.165l0.068,0.268c0.111,0.403,0.299,0.754,0.528,0.99
							l0.226,0.233l-0.036,1.052c-0.18,0.58-0.817,1.112-3.6,2.212V13.096z"/>
					</g>
					<g id="Shape_1_">
						<path fill="#35A1E2" d="M18.967,29.43h-8.913c-0.872,0-1.581-0.66-1.581-1.473l0.013-0.16l0.581-3.582l1.975,0.32
							l-0.469,2.895h7.876l-0.47-2.895l1.975-0.32l0.594,3.742C20.547,28.77,19.838,29.43,18.967,29.43z"/>
					</g>
					<g id="Shape_2_">
						<path fill="#35A1E2" d="M26.442,22.146H2.577c-1.633,0-2.961-1.337-2.961-2.979V2.575c0-1.666,1.301-2.971,2.961-2.971h23.865
							c1.635,0,2.965,1.333,2.965,2.971v16.591C29.407,20.809,28.077,22.146,26.442,22.146z M2.577,1.604
							c-0.539,0-0.961,0.427-0.961,0.971v16.591c0,0.549,0.422,0.979,0.961,0.979h23.865c0.541,0,0.965-0.431,0.965-0.979V2.575
							c0-0.544-0.424-0.971-0.965-0.971H2.577z"/>
					</g>
					<g id="Shape_3_">
						<rect x="0.617" y="16.521" fill="#35A1E2" width="27.79" height="2"/>
					</g>
				</g>
			</g>
		</g>
	</g>
</g>
</svg>
