<?xml version="1.0" encoding="utf-8"?>
<!-- Generator: Adobe Illustrator 20.0.0, SVG Export Plug-In . SVG Version: 6.00 Build 0)  -->
<svg version="1.1" id="Layer_1" xmlns="http://www.w3.org/2000/svg" xmlns:xlink="http://www.w3.org/1999/xlink" x="0px" y="0px"
	 viewBox="0 0 64 64" style="enable-background:new 0 0 64 64;" xml:space="preserve">
<path d="M32,0C14.4,0,0,14.4,0,32s14.4,32,32,32s32-14.4,32-32S49.6,0,32,0z M40,33.1h-5.2c0,8.3,0,18.6,0,18.6H27
	c0,0,0-10.1,0-18.6h-3.7v-6.6H27v-4.2c0-3,1.4-7.8,7.8-7.8l5.7,0v6.4c0,0-3.5,0-4.1,0c-0.7,0-1.6,0.3-1.6,1.8v3.9h5.9L40,33.1z"/>
</svg>
