<?xml version="1.0" encoding="utf-8"?>
<!-- Generator: Adobe Illustrator 20.0.0, SVG Export Plug-In . SVG Version: 6.00 Build 0)  -->
<svg version="1.1" id="Layer_1" xmlns="http://www.w3.org/2000/svg" xmlns:xlink="http://www.w3.org/1999/xlink" x="0px" y="0px"
	 viewBox="0 0 64 64" style="enable-background:new 0 0 64 64;" xml:space="preserve">
<g>
	<path d="M27.7,37.3c-0.2-0.1-0.4-0.3-0.6-0.4c-0.6-0.2-1.3-0.3-2-0.3H25c-3.2,0-6,1.9-6,4.2c0,2.4,2.4,4.3,5.5,4.3
		c4.1,0,6.1-1.4,6.1-4.2c0-0.3,0-0.5-0.1-0.8C30.2,39,29.2,38.3,27.7,37.3z"/>
	<path d="M25.5,28.8C25.5,28.8,25.5,28.8,25.5,28.8c0.8,0,1.4-0.3,1.9-0.9c0.8-0.9,1.1-2.4,0.9-3.9c-0.4-2.8-2.4-5.1-4.5-5.2l-0.1,0
		c-0.7,0-1.4,0.3-1.9,0.9c-0.8,0.9-1.1,2.3-0.9,3.9C21.3,26.3,23.4,28.8,25.5,28.8L25.5,28.8z"/>
	<path d="M32,0.2C14.5,0.2,0.2,14.5,0.2,32S14.5,63.8,32,63.8S63.8,49.5,63.8,32S49.5,0.2,32,0.2z M28.3,47.5
		c-1.2,0.3-2.5,0.5-3.9,0.5c-1.5,0-3-0.2-4.3-0.5c-2.6-0.7-4.6-1.9-5.5-3.6c-0.4-0.7-0.6-1.4-0.6-2.2c0-0.8,0.2-1.6,0.6-2.4
		c1.4-3.1,5.3-5.1,9.5-5.1c0,0,0.1,0,0.1,0c-0.3-0.6-0.5-1.2-0.5-1.9c0-0.3,0-0.7,0.1-1c-4.4-0.1-7.7-3.3-7.7-7.6c0-3,2.4-6,5.9-7.1
		c1-0.4,2.1-0.5,3.1-0.5h9.5c0.3,0,0.6,0.2,0.7,0.5c0.1,0.3,0,0.6-0.3,0.8l-2.1,1.5c-0.1,0.1-0.3,0.1-0.4,0.1h-0.8
		c1,1.2,1.6,2.8,1.6,4.7c0,2.1-1,4-3,5.5c-1.5,1.1-1.5,1.5-1.5,2.1c0,0.4,1,1.5,2.2,2.3c2.6,1.9,3.6,3.7,3.6,6.8
		C34.5,43.6,32.1,46.4,28.3,47.5z M49.7,31.3c0,0.4-0.3,0.7-0.7,0.7h-5.4v5.4c0,0.4-0.3,0.7-0.7,0.7h-1.5c-0.4,0-0.7-0.3-0.7-0.7V32
		h-5.4c-0.4,0-0.7-0.3-0.7-0.7v-1.5c0-0.4,0.3-0.7,0.7-0.7h5.4v-5.4c0-0.4,0.3-0.7,0.7-0.7h1.5c0.4,0,0.7,0.3,0.7,0.7V29H49
		c0.4,0,0.7,0.3,0.7,0.7V31.3z"/>
</g>
</svg>
