<?xml version="1.0" encoding="UTF-8"?>
<svg width="767px" height="588px" viewBox="0 0 767 588" version="1.1" xmlns="http://www.w3.org/2000/svg" xmlns:xlink="http://www.w3.org/1999/xlink">
    <!-- Generator: Sketch 45.2 (43514) - http://www.bohemiancoding.com/sketch -->
    <title>Group 9</title>
    <desc>Created with Sketch.</desc>
    <defs>
        <ellipse id="path-1" cx="24.0191029" cy="24.6329795" rx="23.8785945" ry="24.6329795"></ellipse>
        <linearGradient x1="0%" y1="29.2864197%" x2="100%" y2="67.7630354%" id="linearGradient-3">
            <stop stop-color="#36987B" offset="0%"></stop>
            <stop stop-color="#D01E25" offset="100%"></stop>
        </linearGradient>
        <linearGradient x1="100%" y1="0%" x2="0%" y2="100%" id="linearGradient-4">
            <stop stop-color="#1E96C8" offset="0%"></stop>
            <stop stop-color="#37AEE2" offset="100%"></stop>
        </linearGradient>
        <linearGradient x1="61.2346759%" y1="43.69%" x2="74.7064382%" y2="80.24%" id="linearGradient-5">
            <stop stop-color="#EFF7FC" offset="0%"></stop>
            <stop stop-color="#FFFFFF" offset="100%"></stop>
        </linearGradient>
        <path d="M24.7946489,119.702714 C6.1861133,109.836261 -2.11353872,48.0204858 0.512416371,33.818618 C3.13837146,19.6167503 13.5137632,11.4031053 22.061025,9.17636054 C30.6082868,6.94961576 99.1187108,-10.1768707 123.353152,9.17636054 C138.669887,21.4968942 134.465845,84.1072678 123.353152,103.380528 C112.240458,122.653788 43.4031845,129.569167 24.7946489,119.702714 Z" id="path-6"></path>
        <path d="M0.266584687,48.9009764 C0.571744975,45.8506548 1.13464548,42.8757841 1.93331503,39.9982175 C3.00661304,36.1311783 3.71516316,32.4398659 5.58671388,28.9773173 C7.93221196,24.6379207 11.653241,20.6578215 15.0637721,17.1414148 C16.934587,15.2125229 19.7403794,13.4231545 21.8827544,11.7905405 C25.5394654,9.00391446 28.7759786,6.67396634 33.087221,4.88637841 C35.6539307,3.82213317 38.3213713,2.95012468 41.0713649,2.28843357 C45.1387326,1.30976177 49.3866913,0 53.756425,0 C58.7958735,0 63.6733595,1.48090223 68.2986682,2.77062426 C72.6936925,3.99613377 77.6515609,5.76338101 81.5138022,7.99538118 C84.0409645,9.45583547 86.4375046,11.1152698 88.6817392,12.9521175 C90.9564143,14.8138799 93.0746242,16.857901 95.0137916,19.0617245 C97.7885836,22.2152179 99.4062449,26.487087 101.381699,30.2291868 C103.480764,34.2054446 105.881771,37.6856712 106.924288,42.1732839 C107.470896,44.526212 107.070835,46.938578 107.293735,49.3990046 C107.293735,49.3990046 107.293735,49.3990046 107.293735,49.3990046 L107.293735,49.3990046 C107.577784,52.534403 105.266308,55.3064128 102.13091,55.5904617 C101.787156,55.6216037 101.441285,55.6214599 101.097557,55.590032 L98.8259385,55.3823057 L86.7350361,56.17348 L75.1571491,55.3823031 L62.7074164,56.1734774 L39.5222071,55.3822992 L21.8217765,56.173473 L6.84197122,56.1734713 L6.84197122,56.1734713 L6.84197122,56.1734713 C3.19203748,56.1734709 0.233181883,53.2146147 0.233182279,49.5646809 C0.233182303,49.3470411 0.243933256,49.1295341 0.265395836,48.9129551 C0.265789122,48.9089476 0.266186676,48.9049549 0.266584687,48.9009764 Z" id="path-8"></path>
        <rect id="path-10" x="645" y="182" width="39" height="39" rx="19.5"></rect>
    </defs>
    <g id="Page-1" stroke="none" stroke-width="1" fill="none" fill-rule="evenodd">
        <g id="Group-9" transform="translate(1.000000, 0.000000)">
            <circle id="Oval-21" stroke="#315890" stroke-width="2" stroke-dasharray="6,10" cx="400" cy="301" r="282"></circle>
            <circle id="Oval-21-Copy" stroke="#C1E0F4" stroke-width="2" stroke-dasharray="6,10" cx="400" cy="302" r="199"></circle>
            <g id="line-messenger" transform="translate(223.000000, 43.000000)">
                <circle id="Oval-34-Copy-8" fill="#00B900" cx="21.679627" cy="21.679627" r="21.679627"></circle>
                <path d="M9.75743621,26.4828168 L13.9555938,26.4828168 C14.5527559,26.4828168 15.0411792,25.9942433 15.0411792,25.3970812 L15.0411792,25.3065156 C15.0411792,24.7093535 14.5527559,24.2209302 13.9555938,24.2209302 L10.9335872,24.2209302 L10.9335872,17.3453057 C10.9335872,16.7481436 10.4451639,16.2597203 9.84800179,16.2597203 L9.75743621,16.2597203 C9.16027413,16.2597203 8.67185082,16.7481436 8.67185082,17.3453057 L8.67185082,25.396931 C8.67185082,25.9942433 9.16027413,26.4828168 9.75743621,26.4828168 L9.75743621,26.4828168 Z M35.7713846,21.435926 L35.7713846,21.3453605 C35.7713846,20.7481984 35.2828111,20.2597751 34.685649,20.2597751 L31.6637926,20.2597751 L31.6637926,18.5408314 L34.685649,18.5408314 C35.2828111,18.5408314 35.7713846,18.0524081 35.7713846,17.455246 L35.7713846,17.3646804 C35.7713846,16.7675183 35.2828111,16.279095 34.685649,16.279095 L30.4874914,16.279095 C29.8903293,16.279095 29.401906,16.7675183 29.401906,17.3646804 L29.401906,25.4163057 C29.401906,26.0134678 29.8903293,26.5020413 30.4874914,26.5020413 L34.685649,26.5020413 C35.2828111,26.5020413 35.7713846,26.0134678 35.7713846,25.4163057 L35.7713846,25.3257401 C35.7713846,24.728578 35.2828111,24.2401547 34.685649,24.2401547 L31.6637926,24.2401547 L31.6637926,22.521211 L34.685649,22.521211 C35.2828111,22.5215114 35.7713846,22.0329379 35.7713846,21.435926 L35.7713846,21.435926 Z M27.6978313,26.1591537 L27.6981317,26.1587031 C27.8990189,25.9561597 28.0118283,25.6825022 28.0120323,25.3972314 L28.0120323,17.3456061 C28.0120323,16.748444 27.523609,16.2600207 26.9262967,16.2600207 L26.8357311,16.2600207 C26.2385691,16.2600207 25.7501457,16.748444 25.7501457,17.3456061 L25.7501457,22.0719878 L21.8262381,16.8089712 C21.6387989,16.4817036 21.2858485,16.2600207 20.8836352,16.2600207 L20.7930696,16.2600207 C20.1959076,16.2600207 19.707334,16.748444 19.707334,17.3456061 L19.707334,25.3972314 C19.707334,25.9943934 20.1957574,26.482967 20.7930696,26.482967 L20.8836352,26.482967 C21.4807973,26.482967 21.9692206,25.9943934 21.9692206,25.3972314 L21.9692206,20.5823868 L25.9213642,25.9804256 C25.9456953,26.0182739 25.9722792,26.0546203 26.0009658,26.0891644 L26.001116,26.0894648 C26.1097046,26.2375538 26.2582442,26.3390833 26.4237554,26.4011125 C26.5509677,26.4536796 26.6900452,26.4828168 26.8355809,26.4828168 L26.9261465,26.4828168 C27.1030641,26.4829155 27.2772749,26.4393757 27.4333438,26.356055 C27.5419324,26.3043891 27.6333991,26.237704 27.6978313,26.1591537 L27.6978313,26.1591537 Z M17.0029828,26.4828168 L17.0935484,26.4828168 C17.6907105,26.4828168 18.1791338,25.9942433 18.1791338,25.3970812 L18.1791338,17.3454559 C18.1791338,16.7482938 17.6907105,16.2598705 17.0935484,16.2598705 L17.0029828,16.2598705 C16.4058207,16.2598705 15.9172472,16.7482938 15.9172472,17.3454559 L15.9172472,25.3970812 C15.9172472,25.9942433 16.4058207,26.4828168 17.0029828,26.4828168 Z" id="Shape" fill="#FFFFFF"></path>
            </g>
            <g id="twillio" transform="translate(137.000000, 133.000000)">
                <circle id="Oval-34-Copy-5" fill="#EE3248" cx="20.585995" cy="20.585995" r="20.585995"></circle>
                <g id="Group-4" transform="translate(9.357270, 9.357270)" fill="#FFFFFF">
                    <path d="M11.6965881,0 C5.24007145,0 0,5.24007145 0,11.6965881 C0,18.1531047 5.24007145,23.3931761 11.6965881,23.3931761 C18.1531047,23.3931761 23.3931761,18.1531047 23.3931761,11.6965881 C23.3931761,5.24007145 18.1531047,0 11.6965881,0 Z M11.6965881,20.3052769 C6.93607672,20.3052769 3.08789925,16.4454028 3.08789925,11.6965881 C3.08789925,6.93607672 6.9477733,3.08789925 11.6965881,3.08789925 C16.4570994,3.08789925 20.3052769,6.9477733 20.3052769,11.6965881 C20.3052769,16.4570994 16.4570994,20.3052769 11.6965881,20.3052769 Z" id="XMLID_181_"></path>
                    <circle id="XMLID_180_" cx="14.6090385" cy="8.78413763" r="2.43289032"></circle>
                    <circle id="XMLID_179_" cx="14.6090385" cy="14.6090385" r="2.43289032"></circle>
                    <circle id="XMLID_178_" cx="8.78413763" cy="14.6090385" r="2.43289032"></circle>
                    <circle id="XMLID_177_" cx="8.78413763" cy="8.78413763" r="2.43289032"></circle>
                </g>
            </g>
            <g id="Skype" transform="translate(381.000000, 0.000000)">
                <circle id="Oval-3" fill="#00AFF0" cx="19.6250507" cy="19.6250507" r="19.6250507"></circle>
                <path d="M11.5109433,9.97585951 C13.4546607,8.57328526 16.2034003,8.45281876 18.2733207,9.65270334 C20.6071201,9.24828009 23.0747711,9.63262559 25.1571206,10.7674965 C27.4813592,12.0161413 29.3065223,14.1606362 30.1564804,16.6598381 C30.7406473,18.3511495 30.8764111,20.1896977 30.5723766,21.9517593 C31.3200338,23.2663739 31.5791324,24.8486918 31.2760539,26.331577 C30.955766,27.9674356 29.9470981,29.4503208 28.5521725,30.3614683 C26.6208842,31.6598294 23.967753,31.7334478 21.9561537,30.5689383 C19.7160504,30.9542399 17.3535685,30.6205668 15.3266718,29.5860847 C12.9708825,28.4024535 11.0921788,26.308631 10.1733827,23.8371556 C9.5079487,22.0712697 9.34063412,20.1285084 9.6570977,18.2698824 C8.89318712,16.9323218 8.64556154,15.3155849 8.97158596,13.8107097 C9.29474212,12.2733277 10.2250112,10.87649 11.5109433,9.97585951 Z M12.5626349,11.2178118 C11.2623616,12.0629894 10.4324813,13.584118 10.4468225,15.1367973 C10.4277009,16.1550261 10.8110903,17.1283189 11.3531895,17.9734966 C11.0023069,19.5854531 11.0281212,21.2891935 11.5472744,22.8619506 C12.357077,25.4204296 14.3772811,27.5544076 16.8850877,28.5095348 C18.5840478,29.1778371 20.4751806,29.2638846 22.2515834,28.8747587 C22.7697806,29.1759249 23.2965825,29.4809155 23.8845737,29.6233719 C25.3588542,30.025883 27.0128784,29.6415375 28.1582662,28.6319135 C29.3313805,27.6299382 29.9547468,26.0256304 29.7463206,24.4949409 C29.6612292,23.6822701 29.2988736,22.9365251 28.878197,22.247189 C29.234816,20.6094183 29.1984849,18.8750831 28.6573417,17.2822483 C27.8045154,14.6692726 25.6839226,12.5152168 23.0862441,11.6174546 C21.4542099,11.0332877 19.6644219,10.979747 17.9778909,11.3478391 C17.5457413,11.1002135 17.1155038,10.8372906 16.6374621,10.6852733 C15.2922528,10.2273094 13.7433979,10.4252187 12.5626349,11.2178118 Z M18.7207677,13.6835507 C20.2495449,13.4521785 21.8605453,13.6864189 23.2248762,14.4264274 C23.8214722,14.7572322 24.3989466,15.2046792 24.6762107,15.8471672 C24.8569105,16.2697561 24.8769882,16.8214161 24.5433151,17.175167 C24.1819156,17.5451712 23.5920122,17.6589451 23.107278,17.5031036 C22.5460571,17.2679071 22.2668807,16.6799158 21.7907512,16.3299893 C21.1922431,15.8366503 20.3862648,15.7037547 19.6319151,15.7171399 C19.080255,15.741042 18.4893955,15.8662889 18.0868844,16.2716682 C17.714968,16.6684428 17.577292,17.3482181 17.9396476,17.794709 C18.2819254,18.1895714 18.8106395,18.3368082 19.2953737,18.471616 C20.2199063,18.7029881 21.1549558,18.8894244 22.0833127,19.1083675 C23.0489569,19.3292227 24.0241619,19.7518116 24.6618695,20.5386681 C25.7613653,21.9632323 25.5137397,24.2224572 24.1465406,25.3888789 C23.0527812,26.3573913 21.5316527,26.6250946 20.1147372,26.6336994 C18.6022133,26.6117094 16.9854764,26.3019384 15.8228791,25.2674563 C15.2396683,24.7416104 14.7491975,23.9480613 14.9251168,23.1363465 C15.1172896,22.3294122 16.2253902,22.0234655 16.8535369,22.5196728 C17.3334908,22.9049744 17.5935454,23.4910535 18.0562898,23.8935645 C18.609862,24.4012448 19.3814212,24.6029784 20.1195176,24.5848128 C20.8432727,24.6039344 21.6119637,24.3821231 22.1081709,23.8314191 C22.4456683,23.4595027 22.6244559,22.8935014 22.4055128,22.4173719 C22.2257692,21.9699249 21.7639809,21.7261236 21.3222704,21.6056571 C20.5076874,21.3924505 19.6873679,21.1983656 18.8727849,20.9832469 C17.9778909,20.7643038 17.0476218,20.5644824 16.2779748,20.0309879 C15.6775544,19.6323011 15.2224588,19.0098909 15.076178,18.3004771 C14.8304646,17.1875961 15.0063839,15.9035761 15.8152304,15.0536181 C16.5552389,14.2304303 17.6528226,13.847997 18.7207677,13.6835507 Z" id="Combined-Shape" fill="#FFFFFF"></path>
            </g>
            <g id="Group-39" transform="translate(576.000000, 74.000000)">
                <g id="Group-40">
                    <mask id="mask-2" fill="white">
                        <use xlink:href="#path-1"></use>
                    </mask>
                    <use id="Mask" fill="#2DC100" xlink:href="#path-1"></use>
                    <g mask="url(#mask-2)">
                        <g transform="translate(7.500000, 6.382979)">
                            <polygon id="Rectangle-23" fill="#FFFFFF" fill-rule="evenodd" points="2.03090771 3.63494557 33.0726405 3.63494557 32.4673854 32.2705631 1.43270215 30.2306903"></polygon>
                            <path d="M34.03125,29.8404255 C34.03125,32.7488723 31.7458247,35.106383 28.9265625,35.106383 L5.1046875,35.106383 C2.28531188,35.106383 0,32.7488723 0,29.8404255 L0,5.26595745 C0,2.35762766 2.28542531,0 5.1046875,0 L28.9265625,0 C31.7458247,0 34.03125,2.35762766 34.03125,5.26595745 L34.03125,29.8404255 Z M22.6875,12.7339236 C22.5310097,11.0478379 21.9388504,9.6222082 20.9731631,8.35202669 C18.2993984,4.83564152 13.3578334,3.35991529 8.96074075,4.80663828 C5.73920317,5.86668958 3.3682899,7.90024101 2.40283017,11.2533826 C1.359296,14.8779854 2.75370985,18.3986122 6.06174388,20.7510846 C6.57696683,21.1179241 6.65492744,21.4314571 6.4866008,21.9947849 C6.25772663,22.76125 6.1284372,23.5580941 5.92869868,24.4680851 C7.01730205,23.7826686 7.93575779,23.1678686 8.89381981,22.6233413 C9.18244481,22.4592953 9.58681572,22.4182552 9.92756622,22.4471438 C10.9141948,22.530829 11.8952467,22.6787112 12.9723551,22.8130661 C12.7270922,19.8955463 13.624379,17.5420421 15.5900109,15.6214085 C17.5354982,13.7203778 19.9317913,12.8789398 22.6875,12.7339236 Z M9.28057911,11.738225 C9.25952003,12.3216634 8.78208721,12.7807544 8.212556,12.7655925 C7.63806421,12.7502336 7.20237518,12.2700735 7.21922244,11.6708825 C7.23588252,11.0796663 7.7049853,10.621166 8.27535887,10.6387893 C8.83244182,10.6559203 9.301451,11.1688656 9.28057911,11.738225 Z M16.4932952,10.6384848 C17.0637674,10.6275807 17.5264139,11.0949852 17.5311999,11.6875418 C17.5366428,12.291199 17.0983016,12.7586035 16.520322,12.7658729 C15.9438438,12.7731423 15.4791328,12.3106496 15.4689039,11.7194683 C15.4589565,11.149113 15.9326765,10.6492907 16.4932952,10.6384848 Z M29.1242779,30.8510638 L29.1242779,30.8510638 C29.0664148,30.6070179 29.0550227,30.3623725 28.9553133,30.1691495 C28.4151452,29.1226046 28.7181086,28.4693381 29.5599992,27.6754695 C32.4693944,24.9324694 32.7494606,20.5981361 30.366247,17.3330022 C27.6352911,13.5911636 21.9546726,12.692173 18.0812314,15.3889051 C13.7230038,18.4231781 13.1847533,24.1004835 16.9517174,27.8031261 C18.9323711,29.7496206 21.3344212,30.5437289 24.0156352,30.2522162 C24.8958756,30.1565636 25.7802893,29.6407828 26.621616,29.7341579 C27.4662136,29.8278927 28.2594902,30.4418433 29.1242779,30.8510638 Z M18.5609448,21.2765952 C18.0104438,21.2758876 17.5507085,20.8176213 17.531851,20.2510975 C17.5118576,19.6581579 17.993404,19.1462346 18.5682152,19.1489469 C19.1488199,19.1514234 19.615144,19.6562711 19.5929922,20.2581731 C19.5719763,20.8267017 19.1154218,21.2771848 18.5609448,21.2765952 Z M25.7884965,19.1489609 L25.7884965,19.1489609 C26.3726127,19.153107 26.8337633,19.6547777 26.811743,20.2623501 C26.7911135,20.8397156 26.3425957,21.278485 25.7749366,21.2765896 C25.1880389,21.2750497 24.7271201,20.7772881 24.7508788,20.1711372 C24.7732468,19.6043145 25.2396126,19.1450518 25.7884965,19.1489609 Z" id="Wechat" fill="#2DC100" fill-rule="nonzero"></path>
                        </g>
                    </g>
                </g>
            </g>
            <g id="discord_color" transform="translate(563.000000, 214.000000)">
                <rect id="500x500" x="0" y="0" width="40.6657495" height="40.6657495"></rect>
                <circle id="Oval" fill="#7289DA" cx="20.3328748" cy="20.3328748" r="20.3328748"></circle>
                <path d="M24.0234309,26.4294002 C26.3039159,25.7852938 27.1743301,24.3578145 27.1743301,24.3578145 C26.4605905,24.8278381 25.7816675,25.1585956 25.1723775,25.3849032 C24.3019633,25.7504772 23.4663658,25.9941931 22.6481764,26.1334594 C20.9769813,26.4468085 19.4450524,26.3597671 18.1394311,26.1160511 C17.147159,25.92456 16.2941531,25.6460275 15.5804135,25.3674949 C15.180023,25.2108204 14.7448159,25.0193293 14.3096088,24.7756133 C14.2573839,24.7407968 14.2051591,24.7233885 14.1529342,24.688572 C14.1181177,24.6711636 14.1007094,24.6537553 14.0833011,24.636347 C13.769952,24.4622642 13.5958692,24.3404062 13.5958692,24.3404062 C13.5958692,24.3404062 14.4314668,25.7330688 16.6423187,26.3945837 C16.1200702,27.0560985 15.4759638,27.8394712 15.4759638,27.8394712 C11.6287332,27.7176132 10.1664374,25.1934121 10.1664374,25.1934121 C10.1664374,19.5879449 12.6732302,15.044383 12.6732302,15.044383 C15.180023,13.1642884 17.5649578,13.2165133 17.5649578,13.2165133 L17.7390406,13.4254127 C14.6055496,14.3306434 13.1606621,15.7058978 13.1606621,15.7058978 C13.1606621,15.7058978 13.5436443,15.4969984 14.1877508,15.2010575 C16.0504371,14.3828682 17.5301412,14.1565605 18.1394311,14.1043357 C18.2438809,14.0869274 18.3309222,14.0695191 18.4353719,14.0695191 C19.4972772,13.9302529 20.6984487,13.8954363 21.9518452,14.0347026 C23.6056321,14.2261937 25.3812769,14.7136256 27.1917384,15.7058978 C27.1917384,15.7058978 25.816484,14.4002765 22.8570759,13.4950458 L23.1007918,13.2165133 C23.1007918,13.2165133 25.4857267,13.1642884 27.9925195,15.044383 C27.9925195,15.044383 30.4993121,19.5879449 30.4993121,25.1934121 C30.4993121,25.1934121 29.0196082,27.7176132 25.1723775,27.8394712 C25.1723775,27.8394712 24.5456793,27.090915 24.0234309,26.4294002 Z M15.3018809,21.6421224 C15.3018809,22.7040276 16.102662,23.5744418 17.0775259,23.5744418 C18.0697979,23.5744418 18.8531708,22.7040276 18.8531708,21.6421224 C18.870579,20.5802171 18.0697979,19.7098029 17.0775259,19.7098029 C16.0852537,19.7098029 15.3018809,20.5802171 15.3018809,21.6421224 Z M21.6559044,21.6421224 C21.6559044,22.7040276 22.4566853,23.5744418 23.4315492,23.5744418 C24.4238213,23.5744418 25.2071941,22.7040276 25.2071941,21.6421224 C25.2071941,20.5802171 24.4238213,19.7098029 23.4315492,19.7098029 C22.4392771,19.7098029 21.6559044,20.5802171 21.6559044,21.6421224 Z" id="Discord-color" fill="#FFFFFF"></path>
            </g>
            <g id="twitter_color" transform="translate(158.000000, 465.000000)">
                <circle id="Oval-3" fill="#1DA1F2" cx="45.6686978" cy="45.6686978" r="45.6686978"></circle>
                <path d="M63.8557182,37.8576273 C63.8557182,37.4520833 63.8474579,37.048369 63.8292671,36.6464799 C65.6587716,35.3239024 67.2489722,33.6734192 68.5030467,31.7945894 C66.8242488,32.5408234 65.0175786,33.0431852 63.1223081,33.2697049 C65.0568537,32.1097064 66.5420132,30.2747217 67.2425786,28.0871685 C65.4322534,29.1603934 63.427378,29.9404238 61.2928021,30.3614922 C59.5829495,28.5402065 57.1487839,27.4012187 54.4533918,27.4012187 C49.2790773,27.4012187 45.0829953,31.5973007 45.0829953,36.7697869 C45.0829953,37.5050589 45.1651989,38.2202398 45.3259558,38.9061881 C37.5384544,38.5143477 30.6332767,34.7859192 26.0124743,29.1165515 C25.2077828,30.5012399 24.7437859,32.1097064 24.7437859,33.8259526 C24.7437859,37.0766836 26.3979211,39.9465331 28.913377,41.6253309 C27.3761551,41.5778355 25.9320959,41.1558507 24.6697995,40.4534601 C24.6684203,40.492772 24.6684203,40.5310984 24.6684203,40.5731136 C24.6684203,45.110799 27.8981436,48.8995117 32.185563,49.7580907 C31.3982272,49.9727366 30.569788,50.0878217 29.7148625,50.0878217 C29.1120297,50.0878217 28.5247242,50.0284892 27.953861,49.9188475 C29.1467379,53.6417958 32.605718,56.3508885 36.7068092,56.4267016 C33.4999202,58.9403292 29.4600281,60.4373656 25.0693975,60.4373656 C24.3140282,60.4373656 23.5677957,60.3944003 22.8343489,60.3076635 C26.9811087,62.9656103 31.9051558,64.5165327 37.197294,64.5165327 C54.4314341,64.5165327 63.8557182,50.2385314 63.8557182,37.8576273 Z" id="Twitter-color" fill="#FFFFFF"></path>
                <rect id="500x500" x="0" y="0" width="91.3373955" height="91.3373955"></rect>
            </g>
            <g id="slack_color" transform="translate(490.000000, 506.000000)">
                <g id="Group-5" fill="#FFFFFF">
                    <ellipse id="Oval-3" stroke="#D4D4D4" transform="translate(43.725134, 43.681512) rotate(10.000000) translate(-43.725134, -43.681512) " cx="43.7251344" cy="43.6815121" rx="23.0978685" ry="23.0548557"></ellipse>
                    <ellipse id="Oval-3-Copy" stroke="url(#linearGradient-3)" transform="translate(43.725134, 43.681512) rotate(10.000000) translate(-43.725134, -43.681512) " cx="43.7251344" cy="43.6815121" rx="37.3315963" ry="37.2620775"></ellipse>
                </g>
                <g id="Group" transform="translate(27.551259, 27.530327)">
                    <path d="M20.9402653,2.03435027 C20.4494262,0.526501022 18.827086,-0.298627604 17.3165044,0.191481759 C15.806055,0.681327571 14.9793606,2.3006742 15.4700939,3.80825594 L22.9064018,26.6445051 C23.4168812,28.0529822 24.9412003,28.8445826 26.4046112,28.4242247 C27.9309175,27.9855828 28.8613479,26.3676114 28.3742947,24.8712038 C28.3557721,24.8144514 20.9402653,2.03435027 20.9402653,2.03435027" id="path22-7" fill="#E7A213"></path>
                    <path d="M9.41802634,5.77107524 C8.92718723,4.26349153 7.30484781,3.4383629 5.79426622,3.92820871 C4.2838171,4.41805453 3.45712245,6.0374507 3.94785575,7.54522068 L11.384162,30.3814381 C11.8946422,31.7900104 13.4189619,32.5815037 14.8822676,32.1609358 C16.4085725,31.722615 17.3391629,30.1045326 16.8520297,28.6081408 C16.833527,28.5512577 9.41802634,5.77107524 9.41802634,5.77107524" id="path24-8" fill="#4DC088"></path>
                    <path d="M30.3000104,20.9472852 C31.8106708,20.4573601 32.6370748,18.8380412 32.1463151,17.3302732 C31.6555554,15.822636 30.0331896,14.9974816 28.5227932,15.4873017 L5.64394128,22.9097597 C4.23272925,23.4192905 3.43975805,24.940771 3.86090075,26.4013517 C4.30025516,27.9247881 5.92124433,28.853567 7.42054957,28.3673396 C7.47740782,28.3488713 30.3000104,20.9472852 30.3000104,20.9472852" id="path26-3" fill="#E10D63"></path>
                    <path d="M10.4123043,27.397213 C11.9015774,26.9141838 13.820993,26.2917567 15.8804897,25.6238067 C15.3966915,24.137414 14.7728921,22.2212549 14.1035637,20.1652757 L8.63508713,21.9392903 L10.4123043,27.397213" id="path28-4" fill="#3F2543"></path>
                    <path d="M21.9346493,23.660276 C24.0020347,22.9898432 25.9234086,22.3666769 27.4028347,21.8868697 C26.9189559,20.4002649 26.2950241,18.4837095 25.6255103,16.4273083 L20.1570073,18.2013487 L21.9346493,23.660276" id="path30-9" fill="#D01E25"></path>
                    <path d="M26.5563139,9.4465041 C28.0667103,8.95657902 28.8933783,7.33726013 28.4026186,5.82946439 C27.9118589,4.32161712 26.2894395,3.49675205 24.7788585,3.98659786 L1.90003518,11.4089786 C0.488939605,11.9185074 -0.304135025,13.4400949 0.117114284,14.9005686 C0.55646008,16.424005 2.17745739,17.352889 3.67664093,16.8666635 C3.7336314,16.8481952 26.5563139,9.4465041 26.5563139,9.4465041" id="path32-2" fill="#7CD3DC"></path>
                    <path d="M6.66749548,15.8967212 C8.15674214,15.4136128 10.0766872,14.7910806 12.1367132,14.1229186 C11.4649229,12.0592786 10.840594,10.1413757 10.3597873,8.66438758 L4.8902519,10.4388243 L6.66749548,15.8967212" id="path34-0" fill="#36987B"></path>
                    <path d="M18.1897337,12.15981 C20.2575157,11.4892721 22.1792867,10.8659988 23.6589516,10.3860886 C22.9870555,8.32194533 22.3625161,6.40354109 21.881708,4.9263944 L16.4120666,6.70096191 L18.1897337,12.15981" id="path36-4" fill="#5A872D"></path>
                </g>
            </g>
            <g id="email_color" transform="translate(201.000000, 362.000000)">
                <path d="M0,14.4172842 C0,6.45483804 6.4530873,0 14.4172842,0 C22.3797305,0 28.8345685,6.4530873 28.8345685,14.4172842 C28.8345685,22.3797305 22.3814812,28.8345685 14.4172842,28.8345685 C6.45483804,28.8345685 0,22.3814812 0,14.4172842 L0,14.4172842 Z" id="Shape" fill="#F65756"></path>
                <path d="M21.5580289,10.2060443 L14.3085343,14.9223279 L7.25122943,10.2879893 C7.39359789,9.75950683 7.87650791,9.37123476 8.45032987,9.37123476 L20.3842387,9.37123476 C20.9275338,9.37123476 21.3897586,9.72017384 21.5580289,10.2060443 Z M21.6259264,10.9287634 L21.6259264,17.9234314 C21.6259264,18.6091074 21.0700038,19.1636472 20.3842387,19.1636472 L8.45032987,19.1636472 C7.76498275,19.1636472 7.20864212,18.6083836 7.20864212,17.9234314 L7.20864212,11.0701041 L14.3085346,15.8161464 L21.6259264,10.9287634 Z" id="Email-color" fill="#FFFFFF"></path>
                <rect id="500x500" x="0" y="0" width="28.8345685" height="28.8345685"></rect>
            </g>
            <g id="telegram_color" transform="translate(553.000000, 416.000000)">
                <ellipse id="Oval" fill="url(#linearGradient-4)" cx="25.6038625" cy="25.556183" rx="25.6038625" ry="25.556183"></ellipse>
                <g id="Group-2" transform="translate(12.801931, 15.333710)">
                    <path d="M9.67569651,20.0876591 C8.91609962,20.0876591 9.04517404,19.8013807 8.78319557,19.0794732 L6.54946177,11.7417048 L23.7437528,1.56020653" id="Shape" fill="#C8DAEA"></path>
                    <path d="M9.67569651,20.0876591 C10.2618655,20.0876591 10.5208545,19.8200837 10.8480345,19.5025817 L13.9742693,16.46837 L10.0746822,14.1212343" id="Shape" fill="#A9C9DD"></path>
                    <path d="M10.0742914,14.1218194 L19.5233359,21.0898968 C20.6015938,21.6837309 21.3798113,21.3762727 21.648394,20.090682 L25.4946397,1.99950219 C25.888428,0.423654582 24.8928199,-0.291076032 23.8612992,0.176361846 L1.27620718,8.86885753 C-0.265436868,9.48605573 -0.256448943,10.3445399 0.99519775,10.7270635 L6.79104156,12.532671 L20.2090364,4.08317752 C20.8424702,3.69977626 21.4238326,3.905901 20.9466715,4.32859801" id="Shape" fill="url(#linearGradient-5)"></path>
                </g>
                <rect id="500x500" x="0" y="0" width="51.207725" height="51.1123661"></rect>
            </g>
            <g id="viber-icon" transform="translate(400.000000, 486.000000)">
                <circle id="Oval-2" fill="#7B519D" cx="19.7284852" cy="19.7284852" r="19.7284852"></circle>
                <path d="M27.7181182,24.1405963 C27.1164983,23.6562621 26.4735965,23.2215451 25.8407562,22.7774571 C24.5786268,21.8910072 23.4242149,21.8221055 22.4824267,23.2482772 C21.9535555,24.0489575 21.213195,24.0840249 20.4390495,23.7327593 C18.3049214,22.7650774 16.6569523,21.2740977 15.6916378,19.1049515 C15.2646149,18.1452597 15.2702375,17.2848514 16.269337,16.6060931 C16.7983068,16.2471334 17.3312223,15.8223793 17.2886088,15.0380243 C17.2329745,14.0153 14.7498003,10.5974891 13.7691962,10.2367539 C13.3634308,10.0874586 12.9593422,10.0971749 12.5465238,10.2359154 C10.2471696,11.0091731 9.29477734,12.9001971 10.2068742,15.1392807 C12.9279246,21.8194422 17.7165195,26.4699377 24.3082974,29.3083725 C24.6841249,29.4699981 25.1016288,29.5346089 25.3130194,29.5926106 C26.8137648,29.6077029 28.5718188,28.1618027 29.0795312,26.7268518 C29.5683536,25.3463516 28.5352718,24.7983931 27.7181182,24.1405963 Z M20.3270904,10.921628 L20.3270904,10.921628 C19.9278353,10.8602231 19.3194091,10.9469298 19.3494457,10.419193 C19.3945252,9.63641625 20.1171794,9.92750995 20.4664228,9.87725165 C25.0954636,10.0335012 29.0813561,14.271277 29.024834,18.8425627 C29.0192114,19.2913363 29.1802944,19.9559887 28.5117949,19.9432145 C27.8721483,19.9307856 28.0391499,19.2561703 27.9822332,18.8078406 C27.3685789,13.9541417 25.1461165,11.6626789 20.3270904,10.921628 Z M21.2697171,12.2524618 L21.2697171,12.2524618 C24.2434893,12.6095473 26.6723116,15.1894404 26.6482922,18.0239295 C26.602966,18.359363 26.7987711,18.9336097 26.2566819,19.0161733 C25.5251992,19.1271954 25.6673922,18.4572655 25.5958272,18.0268395 C25.1057718,15.0744727 24.0694348,13.9911819 21.0930979,13.325987 C20.6548791,13.2278871 19.9728656,13.2964436 20.0859591,12.6213844 C20.1942684,11.978236 20.8061965,12.1966302 21.2697171,12.2524618 Z M21.5430059,14.5702621 L21.5430059,14.5702621 C22.8623478,14.5375128 24.4084194,16.1185531 24.3865701,17.4864271 C24.4001334,17.8603311 24.3601339,18.2540622 23.9177721,18.3068359 C23.5985653,18.3445173 23.3888516,18.0767525 23.3559051,17.7463005 C23.2339337,16.5287575 22.5913772,15.808816 21.370431,15.6128135 C21.0047143,15.554072 20.6454094,15.4362437 20.8162087,14.9420453 C20.9299434,14.611396 21.233614,14.5779069 21.5430059,14.5702621 Z" id="Combined-Shape" fill="#FFFFFF"></path>
            </g>
            <g id="messenger_color" transform="translate(432.000000, 81.000000)">
                <circle id="Oval-4" stroke="#1B91FB" fill="#FFFFFF" cx="39.7122927" cy="39.7122927" r="39.7122927"></circle>
                <ellipse id="Oval-3" fill="#0084FF" cx="39.5117041" cy="39.4651812" rx="24.9828165" ry="24.9362936"></ellipse>
                <polygon id="Messenger-color" fill="#FFFFFF" points="41.4840317 45.6925964 36.5830964 40.4431746 27.0202959 45.6925964 37.5393765 34.4779225 42.5598468 39.7273443 52.0031124 34.4779225"></polygon>
                <rect id="500x500" x="14.5288876" y="14.5288876" width="49.9656331" height="49.8725872"></rect>
            </g>
            <g id="Group-8" transform="translate(0.000000, 194.000000)">
                <path d="M132.960156,108.123219 C123.446845,129.039089 122.437163,140.943144 129.931112,143.835387 C141.172034,148.173751 146.697026,143.618347 151.135134,148.173751 C157.832687,144.65071 161.181464,141.053697 161.181464,137.382711 C161.181464,131.876233 144.43882,131.023745 140.787591,129.188748 C138.353439,127.965416 138.353439,121.598036 140.787591,110.086607 C139.044175,108.964257 137.800557,108.309795 137.056737,108.123219 C136.312917,107.936644 134.94739,107.936644 132.960156,108.123219 Z" id="Path-8" fill="#315890"></path>
                <path d="M154.46881,147.006682 C155.689293,144.58181 155.384087,142.65514 153.553191,141.226674" id="Path-9" stroke="#FFFFFF" stroke-width="2"></path>
                <path d="M158.946902,143.282014 C160.167385,140.857141 159.862179,138.930472 158.031283,137.502005" id="Path-9-Copy" stroke="#FFFFFF" stroke-width="2"></path>
                <path d="M47.6542538,110.760091 C52.0787162,127.371725 72.1343857,136.07804 107.821262,136.879038 C143.508139,137.680035 164.974751,129.447561 172.221097,112.181614 L47.6542538,110.760091 Z" id="Path-57" fill="#C1E0F4"></path>
                <path d="M63.4201049,125.442305 C53.9067938,146.358174 52.8971124,158.26223 60.3910608,161.154472 C71.6319833,165.492836 77.1569751,160.937432 81.5950832,165.492836 C88.2926364,161.969795 91.641413,158.372782 91.641413,154.701796 C91.641413,149.195318 74.8987692,148.34283 71.2475403,146.507833 C68.8133876,145.284501 68.8133876,138.917121 71.2475403,127.405693 C69.5041237,126.283343 68.2605056,125.62888 67.516686,125.442305 C66.7728665,125.255729 65.4073394,125.255729 63.4201049,125.442305 Z" id="Path-8" fill="#315890"></path>
                <path d="M84.9287595,164.325767 C86.1492422,161.900895 85.8440358,159.974225 84.0131401,158.545759" id="Path-9" stroke="#FFFFFF" stroke-width="2"></path>
                <path d="M89.4068513,160.601099 C90.627334,158.176226 90.3221275,156.249557 88.4912319,154.82109" id="Path-9-Copy" stroke="#FFFFFF" stroke-width="2"></path>
                <path d="M54.1348005,112.610211 C45.0711046,112.706795 40.3801573,108.253426 40.0619584,99.250105 C39.5846601,85.7451231 31.0381752,76.4858113 20.3305948,76.4858113 C9.62301449,76.4858113 1.6543607,60.4328012 23.3751623,58.4509808 C45.0959639,56.4691605 48.57875,77.1937634 48.57875,80.2955815 L50.3159303,79.5700339 C45.0967529,97.9583024 48.7313899,107.66432 61.2198413,108.688088 L54.1348005,112.610211 Z" id="Path-11" fill="#315890" transform="translate(35.421694, 85.464718) rotate(-12.000000) translate(-35.421694, -85.464718) "></path>
                <path d="M110.794158,125.723974 C114.699186,125.723974 118.520356,124.932868 122.22646,124.769578 C128.850882,124.47771 135.107672,124.642597 140.8186,123.895107 C144.945427,123.354956 148.787217,122.706911 152.276715,121.966958 C160.343394,120.256407 166.527439,118.054709 169.998029,115.559375 C172.034569,114.095115 172.428336,112.529745 172.428336,110.903176 C172.428336,109.165148 171.878339,107.496995 169.566266,105.947404 C168.370379,105.145899 166.892609,104.376114 165.161295,103.644786 C159.173327,101.115392 150.15245,99.7517729 139.271153,98.4211609 C130.735046,97.377329 121.054035,96.0823781 110.794158,96.0823781 C105.237209,96.0823781 99.8500713,96.2552205 94.7226801,96.5795248 C90.984379,96.81597 87.3841497,97.8386792 83.9568471,98.2278618 C80.6968275,98.5980489 77.5932657,98.3278308 74.6761579,98.8215813 C63.5977258,100.69672 55.9169333,103.411502 51.8599222,106.575332 C50.1043384,107.944411 48.4515407,109.397576 48.4515407,110.903176 C48.4515407,112.758864 49.8861291,114.534895 52.5060333,116.172011 C53.6818643,116.90676 55.0964506,117.613528 56.7272574,118.286957 C57.6643989,118.673942 58.6729411,119.049918 59.7486077,119.413868 C61.9001374,120.141835 64.3202138,120.115938 66.9746179,120.739547 C72.4178413,122.018343 78.8464402,123.766368 85.9653366,124.501966 C93.5732689,125.288098 101.969597,125.723974 110.794158,125.723974 Z" id="Oval-9" stroke="#315890" stroke-width="2" fill="#FFFFFF"></path>
                <path d="M73.2150511,104.7743 C74.0904105,92.7199126 74.8862117,84.3216967 75.6024546,79.5796525 C77.0812969,69.7886497 79.3678631,62.9475825 81.0452753,59.0564509 C83.0525802,54.4000594 86.0793731,50.9410007 88.7087763,48.6792748 C92.5773824,45.3516273 97.1306307,42.1596739 102.368521,40.5149194 C111.727953,37.5759563 118.261182,39.5978194 124.90748,46.6278506 C127.56382,49.4375585 131.244818,52.9456447 133.589252,57.4124396 C137.199521,64.2910005 141.3673,73.2566903 143.835182,84.106741 C144.82601,88.4629142 145.796892,95.6695106 146.747831,105.72653 L146.747827,105.726531 C147.023098,108.637773 145.083172,111.296866 142.226871,111.923487 C142.226871,111.923487 142.226871,111.923487 142.226871,111.923487 C124.788862,115.749074 115.347822,115.64144 106.531214,115.64144 C98.5994583,115.64144 88.9621518,114.093323 77.6192941,110.99709 L77.6192941,110.99709 C74.8527324,110.241909 73.007347,107.634549 73.2150511,104.7743 Z" id="Path-56" stroke="#C1E0F4" stroke-width="2" fill="#FFFFFF"></path>
                <path d="M83.9948396,104.687649 C87.3701091,105.544951 89.8900743,106.143056 91.5547353,106.481964 C94.5003137,107.081654 95.7060046,108.261133 98.5876435,108.611053 C101.800245,109.001163 106.681028,108.53138 109.814159,108.611053 C112.732682,108.685269 116.028838,108.806203 118.878404,108.611053 C123.137507,108.319372 126.907476,107.545412 131.012532,106.651974 C133.50952,106.108522 135.97801,105.453747 138.418002,104.687649 C138.654096,101.758593 138.654096,99.2312631 138.418002,97.105659 C138.279892,95.8622316 137.901987,92.0708574 137.747432,90.8877455 C137.456706,88.6622504 136.468232,86.5434641 136.119317,84.5313865 C135.694983,82.0843921 135.269685,79.5694603 134.759287,77.4381164 C134.050197,74.477062 133.215982,72.0463929 132.340777,69.694584 C131.380354,67.1137775 130.319911,64.8998046 129.159449,63.0526654 C128.54945,62.0817138 127.682975,61.0295571 126.560024,59.8961953 L126.560047,59.8961726 C125.746269,59.0748502 124.420758,59.0687344 123.599436,59.8825124 C123.405408,60.0747578 123.250876,60.3031143 123.14455,60.5547089 C123.14455,60.5547089 123.14455,60.5547089 123.14455,60.5547089 C122.446041,62.2075663 122.096786,63.4308625 122.096786,64.2245974 C119.949387,63.5317624 118.392115,63.1411184 117.424972,63.0526654 C110.688417,62.4365536 106.468915,63.1758944 104.837371,63.9108734 C104.837371,62.3069876 104.837371,61.1882661 104.837371,60.5547089 C104.837371,60.5547089 104.837371,60.5547089 104.837371,60.5547089 L104.837371,60.5547089 C104.837371,58.9093511 103.503545,57.575525 101.858187,57.575525 C101.130439,57.575525 100.427859,57.8419029 99.8830411,58.3243871 C96.4843158,61.3343234 94.2441221,63.5377681 93.1624929,64.9347583 C89.6790594,69.4338256 87.9781638,74.3483943 86.7235516,77.4381164 C85.1627311,81.2819348 85.0933149,86.0955821 84.5340976,90.2789505 C84.256138,92.3582985 84.0541837,94.833717 83.8654433,97.105659 C83.7114633,98.8929473 83.7545954,101.420277 83.9948396,104.687649 Z" id="Path-58" stroke="#315890" stroke-width="2" fill="#C1E0F4"></path>
                <rect id="Rectangle" fill="#3A6499" x="111.894134" y="80.2158" width="4.01192602" height="5.32894931" rx="2.00596301"></rect>
                <rect id="Rectangle-Copy" fill="#3A6499" x="127.273183" y="80.2158" width="4.01192602" height="5.32894931" rx="2.00596301"></rect>
                <path d="M117.876937,93.4617505 C115.078223,93.1943426 113.641962,92.3066384 113.568152,90.7986378 C113.457437,88.5366368 117.224501,86.1778376 121.026071,88.8135348 C124.564084,86.9385161 128.141472,86.933033 128.899119,90.1973918 C129.404217,92.373631 127.921383,93.383862 124.450617,93.228085 L121.685493,91.3714137 L119.146244,93.228085 L117.876937,93.4617505 Z" id="Path-70" fill="#FFFFFF"></path>
                <ellipse id="Oval-2" fill="#FFFFFF" cx="106.210572" cy="90.20758" rx="4.01192602" ry="2.66447466"></ellipse>
                <ellipse id="Oval-2-Copy" fill="#FFFFFF" cx="134.962708" cy="90.20758" rx="1.75706995" ry="2.66447466"></ellipse>
                <path d="M116.57843,90.3897722 C116.657713,92.5769493 117.21071,93.6705378 118.237418,93.6705378 C119.264127,93.6705378 120.416243,92.9842967 121.693767,91.6118144 C122.65528,92.9842967 123.660415,93.6705378 124.709173,93.6705378 C125.75793,93.6705378 126.06657,92.414737 125.635092,89.9031352" id="Path-69" stroke="#315890" stroke-width="2"></path>
                <path d="M152.024302,67.0373511 C152.876405,67.8045453 153.396107,68.3805506 153.583409,68.7653669 C153.901629,69.4191598 154.868151,70.0745168 155.145664,70.7314379 C155.419919,71.3806446 155.674296,72.0313789 155.908794,72.6836407 C156.183842,73.4486896 156.431542,73.5497213 156.651895,74.3189732 C156.783437,74.7781865 156.905234,75.9042674 157.017285,76.3649785 C157.177265,77.022753 157.709739,77.7014092 157.829988,78.3622369 C158.000911,79.3015419 157.739338,80.2245762 157.829988,81.1700498 C157.892878,81.8259807 157.93645,82.4833961 157.960704,83.1422959 C157.98868,83.9023035 157.990955,84.6642861 157.96753,85.4282438" id="Path-7" stroke="#315890" stroke-width="2"></path>
                <path d="M157.23804,62.4921076 C158.511331,63.6385205 159.287919,64.4992411 159.567802,65.0742694 C160.043317,66.0512274 161.487583,67.0305227 161.90227,68.0121552 C162.312087,68.9822602 162.6922,69.9546477 163.042609,70.9293179 C163.453611,72.072525 163.823747,72.223496 164.153019,73.3729836 C164.349582,74.0591828 164.531582,75.7418773 164.69902,76.4303147 C164.938076,77.4132224 165.733748,78.4273335 165.913436,79.4148036 C166.168844,80.8184004 165.777977,82.1976839 165.913436,83.6104984 C166.007411,84.5906512 166.07252,85.5730223 166.108763,86.5576117 C166.150568,87.6932856 166.153968,88.8319107 166.118963,89.9734872" id="Path-7-Copy" stroke="#315890" stroke-width="2"></path>
                <polyline id="Path-4" stroke="#315890" stroke-width="2" fill="#FFFFFF" points="67.7202766 106.980026 66.4626628 98.550072 65.7743758 93.9363924 65.6857738 86.7961031 63.6334398 79.5854121 61.859379 67.6936449 61.7461117 59.4151099 58.860921 47.59458 57.7848299 40.3813975 56.474023 31.5948839 54.5038315 24.9348045 53.8307071 13.8763833 52.6166674 5.73851307 52.7371879 0"></polyline>
                <path d="M52.6793092,4.08454583 L0.784969195,12.4306028 L6.74299349,47.2345077 L57.6786895,40.329949 C52.9979983,36.3242182 50.1517016,31.4340774 49.1397996,25.6595268 C48.1278975,19.8849761 49.3077341,12.6933158 52.6793092,4.08454583 Z" id="Path-10" stroke="#315890" stroke-width="2" fill="#C1E0F4"></path>
                <g id="github_color-copy" transform="translate(26.201920, 27.183591) rotate(-13.000000) translate(-26.201920, -27.183591) translate(11.701920, 12.683591)">
                    <ellipse id="Oval-3" fill="#315890" cx="14.246485" cy="14.1924595" rx="14.246485" ry="14.1924595"></ellipse>
                    <ellipse id="Oval-3" fill="#FFFFFF" cx="13.8903229" cy="14.547271" rx="10.3287016" ry="10.2895331"></ellipse>
                    <path d="M2.56630787,14.4621731 C2.56630787,19.2840563 6.62287294,23.3743157 10.8687444,24.8174638 C11.403332,24.9179615 11.5981448,24.580959 11.5981448,24.2915254 C11.5981448,24.0329111 11.5889617,23.3461763 11.5837143,22.4356665 C8.61166983,23.0949319 7.98459535,20.9724189 7.98459535,20.9724189 C7.49854703,19.7115069 6.79800775,19.3758443 6.79800775,19.3758443 C5.82787893,18.6991593 6.87147255,18.712559 6.87147255,18.712559 C7.94392733,18.7896073 8.50803199,19.8374641 8.50803199,19.8374641 C9.46110649,21.5050571 11.0091146,21.0233378 11.6178229,20.743954 C11.7149014,20.0391296 11.9910503,19.5580802 12.2960604,19.2853963 C9.92354113,19.0100324 7.42901785,18.0733931 7.42901785,13.8913458 C7.42901785,12.7001122 7.84553699,11.7252837 8.52902193,10.9628406 C8.41882475,10.6868067 8.05215672,9.57664134 8.63397164,8.07453461 C8.63397164,8.07453461 9.53063567,7.78108111 11.5719074,9.19340983 C12.4239678,8.9508752 13.3383421,8.83027787 14.246813,8.82558797 C15.1546279,8.83027787 16.0683463,8.9508752 16.9217186,9.19340983 C18.9616784,7.78108111 19.8570306,8.07453461 19.8570306,8.07453461 C20.4401574,9.57664134 20.0734894,10.6868067 19.9639481,10.9628406 C20.6487449,11.7252837 21.0619844,12.7001122 21.0619844,13.8913458 C21.0619844,18.0841129 18.5635255,19.0066825 16.183791,19.2766865 C16.5668574,19.613689 16.9085999,20.2796543 16.9085999,21.2980317 C16.9085999,22.7565894 16.8954812,23.9337533 16.8954812,24.2915254 C16.8954812,24.5836389 17.0883262,24.9233214 17.6301291,24.8167938 C21.8727209,23.3702958 24.9313488,19.2827163 24.9313488,14.4621731 C24.9313488,8.43431664 20.1469542,3.54811487 14.2455011,3.54811487 C8.34601589,3.54811487 2.56630787,8.43431664 2.56630787,14.4621731 Z" id="github_color" fill="#315890"></path>
                </g>
            </g>
            <g id="Group-3" transform="translate(268.000000, 166.000000)">
                <g id="Group">
                    <path d="M102.164984,143.414982 C126.419459,174.295849 135.680394,196.910232 129.947788,211.258131 C157.66034,212.936277 171.516616,213.77535 171.516616,213.77535 C189.157436,190.552991 189.304553,162.155382 171.957967,128.582524 C154.611381,95.0096663 131.347053,99.9538188 102.164984,143.414982 Z" id="Path-6" fill="#44B8FF"></path>
                    <path d="M156.261188,149.259661 C172.010421,164.043275 179.560925,181.693099 178.912698,202.209134 C183.64413,194.429001 185.758375,183.865529 185.255434,170.518719 C184.752493,157.171909 178.158932,147.686778 165.474753,142.063327 L156.261188,149.259661 Z" id="Path-38" fill="#3390D5"></path>
                    <path d="M122.397789,144.387915 C146.201773,154.808256 161.234455,153.159832 167.495835,139.442644 C173.757215,125.725455 158.724533,127.373879 122.397789,144.387915 Z" id="Path-37" fill="#3390D5"></path>
                    <path d="M175.512709,131.44389 C220.899103,172.949977 238.434377,202.477285 228.11853,220.025815 C217.802684,237.574344 182.571546,239.033543 122.425117,224.40341 C122.754922,206.639537 120.750071,195.629751 116.410564,191.374051 C109.901303,184.990501 182.388087,216.010314 189.503061,199.461346 C194.246377,188.4287 185.177993,167.054473 162.29791,135.338662 L175.512709,131.44389 Z" id="Path-5" fill="#C1E0F4"></path>
                    <path d="M89.1604927,135.149457 C83.6355754,153.559104 76.7806784,163.211716 68.5958018,164.107293 C60.4109251,165.00287 64.7442207,176.435146 81.5956885,198.40412 C99.5953799,169.101517 106.242345,149.723697 101.536585,140.270661 C96.830825,130.817625 92.7054608,129.110557 89.1604927,135.149457 Z" id="Path-36" fill="#C1E0F4" transform="translate(83.790805, 165.011274) rotate(10.000000) translate(-83.790805, -165.011274) "></path>
                    <path d="M121.518167,5.96099695 C125.802805,10.2825313 129.248013,13.1979453 131.853792,14.7072389 C136.368451,17.3221749 131.432322,18.1832377 127.339134,17.3221749 C123.245945,16.461112 115.517104,15.6426784 115.517104,11.1274599 C115.517104,9.34834258 115.976785,7.77330071 116.896146,6.40233431 L116.896146,6.40233431 C117.818942,5.02624761 119.682554,4.65878243 121.058641,5.58157787 C121.224029,5.69248629 121.377964,5.81958621 121.518167,5.96099695 Z" id="Path-2" fill="#315890" transform="translate(124.583225, 11.358736) scale(1, -1) rotate(-52.000000) translate(-124.583225, -11.358736) "></path>
                    <path d="M65.7608318,20.4389644 C67.9246726,14.483892 71.0399596,9.45396778 75.533306,9.27012324 C80.0266524,9.0862787 80.9434555,13.4017558 79.3274997,14.7991947 C77.711544,16.1966336 72.3166884,18.7999672 69.3019782,23.8117084 C66.2872681,28.8234495 63.5969911,26.3940368 65.7608318,20.4389644 Z" id="Path-3" fill="#315890"></path>
                    <g id="Path-32" transform="translate(55.646025, 23.574447)">
                        <mask id="mask-7" fill="white">
                            <use xlink:href="#path-6"></use>
                        </mask>
                        <use id="Mask" fill="#44B8FF" xlink:href="#path-6"></use>
                        <path d="M-4.23250324,47.4378471 C-2.71529524,41.2682864 -0.225859539,38.1835061 3.23580387,38.1835061 C8.42829899,38.1835061 11.9490853,42.7676779 35.1915084,39.8683146 C58.4339315,36.9689512 82.7171935,26.8760649 97.7650878,34.1125338 C112.812982,41.3490026 113.379327,96.051731 100.383392,118.844828 C91.7194347,134.040226 69.405942,143.673998 33.4429134,147.746144 L7.96285741,132.082825 L-10.3362354,66.1587983 L-4.23250324,47.4378471 Z" fill="#3390D5" mask="url(#mask-7)"></path>
                        <rect id="Rectangle-4" fill="#FFFFFF" mask="url(#mask-7)" transform="translate(65.947793, 82.763967) rotate(-6.000000) translate(-65.947793, -82.763967) " x="61.5308278" y="76.1240517" width="8.83393022" height="13.2798307" rx="4.41696511"></rect>
                        <rect id="Rectangle-4-Copy" fill="#FFFFFF" mask="url(#mask-7)" transform="translate(20.305820, 85.715041) rotate(-6.000000) translate(-20.305820, -85.715041) " x="15.888855" y="79.0751252" width="8.83393022" height="13.2798307" rx="4.41696511"></rect>
                    </g>
                    <path d="M180.403188,69.1744536 C173.244277,81.0024148 172.647751,95.6497434 178.613609,113.116439 C192.76777,113.305117 199.50353,105.366678 198.820889,89.3011221 C198.138248,73.2355662 191.999015,66.5266767 180.403188,69.1744536 Z" id="Path-20" fill="#3390D5"></path>
                    <path d="M11.4931517,159.450507 L69.5014943,159.450507 L69.5014943,159.450507 C71.0466951,159.450507 72.453702,160.340505 73.1157491,161.736692 C78.2484504,172.561016 82.5329106,183.843409 85.9691299,195.583871 C89.2850624,206.913351 92.7434372,220.00717 96.3442543,234.865328 L96.3442544,234.865328 C96.8645692,237.012318 95.5458881,239.174596 93.3988977,239.694911 C93.0904366,239.769665 92.7741744,239.807441 92.4567844,239.807441 L34.9761075,239.807441 L34.9761075,239.807441 C33.2427005,239.807441 31.7065516,238.690964 31.1714607,237.042213 L7.68850492,164.68528 L7.68850492,164.68528 C7.0065589,162.584031 8.1571308,160.327806 10.2583792,159.64586 C10.6571876,159.51643 11.0738661,159.450507 11.4931517,159.450507 Z" id="Path-33-Copy" fill="#3390D5"></path>
                    <path d="M4.13154315,159.450507 L61.7274536,159.450507 L61.7274536,159.450507 C63.4702345,159.450507 65.0124324,160.578888 65.5398709,162.239939 L88.515574,234.596873 L88.515574,234.596873 C89.1841521,236.702413 88.0192644,238.95128 85.9137245,239.619858 C85.5222269,239.744172 85.1139172,239.807441 84.7031567,239.807441 L27.614499,239.807441 L27.614499,239.807441 C25.8810919,239.807441 24.344943,238.690964 23.8098522,237.042213 L0.326896404,164.68528 L0.326896404,164.68528 C-0.355049613,162.584031 0.795522283,160.327806 2.89677066,159.64586 C3.29557906,159.51643 3.71225755,159.450507 4.13154315,159.450507 Z" id="Path-33" fill="#44B8FF"></path>
                    <path d="M89.2327883,184.345515 C92.2513684,176.989529 94.9271236,171.346861 108.595212,174.966255 C122.2633,178.585649 133.679992,210.091416 132.307001,221.543364 C131.446491,228.720771 127.488956,232.524396 120.434396,232.954239 L120.434396,232.954239 C119.61065,233.004431 118.84066,232.543502 118.495776,231.793747 L114.967414,224.123335 L114.967414,224.123335 C114.378217,222.842463 114.760438,221.324143 115.885865,220.474909 C117.994283,218.883923 119.048492,216.035457 119.048492,211.92951 C119.048492,203.980784 107.304892,191.97735 98.97397,198.412287 C90.6430481,204.847224 86.2142082,191.701501 89.2327883,184.345515 Z" id="Path-34" fill="#3390D5"></path>
                    <path d="M3.86004933,188.649181 C10.5364312,182.90533 14.429669,181.332346 15.5397628,183.930228 C17.3042286,188.059495 18.3800737,203.649862 15.5397628,208.155063 C12.699452,212.660265 18.4484241,221.974527 12.699452,222.755697 C8.9582477,223.264051 5.67253857,212.783977 2.84232463,191.315472 L2.84232466,191.315472 C2.71002643,190.311928 3.09271652,189.309335 3.86004933,188.649181 Z" id="Path-35" fill="#3390D5" transform="translate(10.053026, 202.744984) rotate(-8.000000) translate(-10.053026, -202.744984) "></path>
                    <path d="M187.713705,179.136096 C195.33584,166.76156 204.377153,162.636715 214.837646,166.76156" id="Path-41" stroke="#FFFFFF" stroke-width="2"></path>
                    <path d="M176.934223,157.24586 C179.870259,149.098321 185.215027,145.789487 192.968528,147.319357" id="Path-42" stroke="#FFFFFF" stroke-width="2"></path>
                    <path d="M87.88682,115.614179 C89.0823333,120.246338 92.0011423,122.76276 96.6432471,123.163442 C101.310514,123.566296 104.662322,121.084847 106.69867,115.719094 L106.69867,115.719094 C106.894629,115.202743 106.634901,114.625301 106.11855,114.429341 C106.0052,114.386324 105.884972,114.364278 105.763734,114.364278 L88.8550914,114.364278 L88.8550914,114.364278 C88.3028067,114.364278 87.8550914,114.811993 87.8550914,115.364278 C87.8550914,115.448582 87.8657522,115.532549 87.88682,115.614179 Z" id="Path-45" fill="#FFFFFF" transform="translate(97.309552, 118.784957) rotate(-3.000000) translate(-97.309552, -118.784957) "></path>
                    <path d="" id="Path-22" stroke="#979797"></path>
                    <path d="M162.30671,233.918512 C167.906844,220.526672 167.906844,209.262159 162.30671,200.124973" id="Path-39" stroke="#FFFFFF" stroke-width="2"></path>
                    <path d="M187.038642,197.108303 C212.00286,199.017401 225.437438,208.091583 227.342376,224.330849" id="Path-40" stroke="#FFFFFF" stroke-width="2"></path>
                    <path d="M80.0868961,154.399227 C89.7618957,155.244756 96.4045555,160.389695 100.014875,169.834046" id="Path-44" stroke="#FFFFFF" stroke-width="2"></path>
                </g>
                <path d="M141.648276,159.731984 L141.648276,157.69126 C141.648276,157.182313 142.125087,156.771908 142.69701,156.771908 C143.27452,156.771908 143.745744,157.182147 143.745744,157.69126 L143.745744,159.476731 C143.91213,159.470303 144.079355,159.467058 144.247357,159.467058 C151.116756,159.467058 156.688405,164.892074 156.688405,171.587825 C156.688405,174.051027 155.934381,176.342258 154.63911,178.254695 C154.676175,178.835642 154.834318,179.122852 155.193223,179.386679 C155.228979,179.412962 155.326678,179.479118 155.455029,179.564372 C155.532856,179.61596 155.532856,179.61596 155.593642,179.656006 C155.618807,179.672554 155.618807,179.672554 155.646358,179.690595 C155.644746,179.689565 155.653722,179.695437 155.653722,179.695437 C156.505918,180.274744 156.8428,180.962596 156.657804,181.915587 C156.350088,183.500756 154.819959,184.013881 152.618012,183.57087 C151.575467,183.36112 150.497546,182.954169 149.701953,182.484521 C148.054827,183.268581 146.20372,183.708592 144.247357,183.708592 C137.377957,183.708592 131.806308,178.283576 131.806308,171.587825 C131.806308,166.689888 134.787648,162.471911 139.077443,160.559956 C139.062297,160.490848 139.054317,160.418937 139.054317,160.345041 L139.054317,159.434952 C139.054317,158.895151 139.49731,158.451571 140.033198,158.451571 C140.576642,158.451571 141.01208,158.889067 141.01208,159.434952 L141.01208,159.880978 C141.222006,159.826046 141.434123,159.776331 141.648276,159.731984 Z M152.289791,177.488616 C153.564081,175.84696 154.319643,173.803 154.319643,171.587825 C154.319643,166.177033 149.811729,161.787757 144.247357,161.787757 C138.682985,161.787757 134.175071,166.177033 134.175071,171.587825 C134.175071,176.998617 138.682985,181.387893 144.247357,181.387893 C146.274727,181.387893 148.161852,180.805217 149.741796,179.802755 C150.119908,180.102792 150.119908,180.102792 150.119908,180.102792 C150.789405,180.510344 152.263815,181.130477 153.094554,181.297614 C153.436268,181.366363 153.744847,181.399203 153.994188,181.397311 C153.89707,181.331806 153.819503,181.278217 153.771543,181.242962 C152.922961,180.619178 152.422786,179.614219 152.299185,178.34474 C152.299185,178.34474 152.299185,178.34474 152.299185,177.555975 C152.299185,177.529596 152.295979,177.50722 152.289791,177.488616 Z M146.872833,168.033683 C146.872833,169.834932 145.356088,171.291268 143.489908,171.291268 C141.623729,171.291268 140.106984,169.834932 140.106984,168.033683 C140.106984,166.232434 141.623729,164.776098 143.489908,164.776098 C145.356088,164.776098 146.872833,166.232434 146.872833,168.033683 Z M145.447518,174.34803 C144.800119,174.34803 144.275299,173.837022 144.275299,173.206662 C144.275299,172.576301 144.800119,172.065293 145.447518,172.065293 C146.094916,172.065293 146.619736,172.576301 146.619736,173.206662 C146.619736,173.837022 146.094916,174.34803 145.447518,174.34803 Z M143.139063,174.022293 C143.139063,175.198368 142.147815,176.150137 140.927079,176.150137 C139.706344,176.150137 138.715096,175.198368 138.715096,174.022293 C138.715096,172.846218 139.706344,171.894449 140.927079,171.894449 C142.147815,171.894449 143.139063,172.846218 143.139063,174.022293 Z" id="Combined-Shape-Copy" fill="#FFFFFF" fill-rule="nonzero"></path>
                <ellipse id="Oval-17" fill="#FFFFFF" transform="translate(41.438987, 201.295809) rotate(-11.000000) translate(-41.438987, -201.295809) " cx="41.4389866" cy="201.295809" rx="8.28779732" ry="12.7031336"></ellipse>
            </g>
            <path d="M269.503045,264.674878 C269.507734,264.673072 269.512407,264.671265 269.517063,264.669454 C272.325028,263.577918 274.572614,261.357594 275.70713,258.563195 C275.710368,258.555219 275.7136,258.547197 275.716825,258.539128 L275.716804,258.53912 C275.892404,258.099737 276.390947,257.8859 276.830329,258.0615 C277.047434,258.148267 277.219649,258.31999 277.307037,258.536846 C277.307037,258.536846 277.307037,258.536846 277.307037,258.536846 C278.433705,261.332737 280.673499,263.557158 283.474978,264.656649 C283.479992,264.658617 283.485026,264.660583 283.490078,264.662546 L283.490086,264.662526 C283.901499,264.822355 284.105448,265.285437 283.94562,265.69685 C283.864597,265.905409 283.699855,266.070452 283.491444,266.151854 C283.491444,266.151854 283.491444,266.151854 283.491444,266.151854 C280.61321,267.276059 278.325792,269.586962 277.225806,272.485764 C277.222632,272.494128 277.219466,272.502545 277.216307,272.511014 L277.216239,272.510989 C277.071248,272.899709 276.63859,273.097291 276.24987,272.952301 C276.046464,272.876431 275.885826,272.716274 275.809348,272.513095 C275.809348,272.513095 275.809348,272.513095 275.809348,272.513095 C274.709402,269.59088 272.403929,267.262675 269.501791,266.139573 C269.501791,266.139573 269.501791,266.139573 269.501791,266.139573 L269.501791,266.139573 C269.097449,265.983096 268.896515,265.528463 269.052992,265.124122 C269.132919,264.917587 269.296363,264.75442 269.503032,264.674843 Z" id="Combined-Shape" fill="#C1E0F4"></path>
            <path d="M243.80492,179.679815 C243.812429,179.676924 243.819912,179.674029 243.827369,179.67113 C248.320113,177.924671 251.916251,174.372149 253.731477,169.901108 C253.736661,169.888339 253.741834,169.875496 253.746996,169.862579 L253.747025,169.862591 C254.027976,169.159598 254.82562,168.817465 255.528613,169.098416 C255.875973,169.237238 256.151511,169.511988 256.291327,169.858949 C256.291327,169.858949 256.291327,169.858949 256.291327,169.858949 C258.093997,174.332377 261.677668,177.891455 266.160034,179.650642 C266.168065,179.653794 266.176125,179.656941 266.184215,179.660084 L266.184204,179.660112 C266.842447,179.915829 267.168759,180.656739 266.913042,181.314982 C266.78341,181.648669 266.51983,181.912731 266.186381,182.042972 C266.186381,182.042972 266.186381,182.042972 266.186381,182.042972 C261.581205,183.841701 257.921336,187.539149 256.161359,192.177235 C256.156283,192.190612 256.151219,192.204073 256.146166,192.217618 L256.146115,192.217598 C255.914122,192.839568 255.221848,193.155707 254.599879,192.923714 C254.27442,192.802319 254.017393,192.546059 253.895025,192.220965 C253.895025,192.220965 253.895025,192.220965 253.895025,192.220965 C252.135111,187.545417 248.446354,183.820286 243.802932,182.023322 C243.802932,182.023322 243.802932,182.023322 243.802932,182.023322 L243.802932,182.023322 C243.156004,181.772966 242.834518,181.045573 243.084874,180.398645 C243.212754,180.068198 243.474258,179.807137 243.804921,179.679818 Z" id="Combined-Shape-Copy-3" fill="#FFFFFF" transform="translate(255.000023, 180.999996) scale(-1, -1) translate(-255.000023, -180.999996) "></path>
            <path d="M161.905484,73.0147998 C161.913931,73.0115472 161.92235,73.0082904 161.930738,73.0050294 C166.985076,71.0402625 171.030731,67.0436751 173.07286,62.0137543 C173.078692,61.9993895 173.084512,61.9849412 173.09032,61.9704096 L173.090352,61.9704226 C173.406422,61.1795553 174.303771,60.7946557 175.094639,61.1107254 C175.485419,61.2669004 175.795399,61.5759945 175.952692,61.966326 C175.952692,61.966326 175.952692,61.966326 175.952692,61.966326 C177.980696,66.9989325 182.012326,71.0028942 187.054987,72.9819801 C187.064021,72.9855257 187.073089,72.9890665 187.082191,72.9926023 L187.082179,72.9926336 C187.822702,73.2803152 188.189803,74.1138398 187.902121,74.8543631 C187.756285,75.2297603 187.459758,75.5268301 187.084628,75.6733516 C187.084628,75.6733516 187.084628,75.6733516 187.084628,75.6733516 C181.903804,77.6969211 177.786451,81.8565504 175.806478,87.0743972 C175.800767,87.0894461 175.79507,87.1045897 175.789386,87.119828 L175.789328,87.1198062 C175.528336,87.819522 174.749528,88.175178 174.049812,87.9141861 C173.683671,87.7776165 173.394516,87.4893248 173.256852,87.1235935 C173.256852,87.1235935 173.256852,87.1235935 173.256852,87.1235935 C171.276949,81.8636019 167.127097,77.6728295 161.903248,75.6512448 C161.903248,75.6512448 161.903248,75.6512448 161.903248,75.6512448 L161.903248,75.6512448 C161.175453,75.3695945 160.813782,74.5512777 161.095432,73.823483 C161.239297,73.4517307 161.533489,73.1580372 161.905485,73.0148034 Z" id="Combined-Shape-Copy-2" fill="#C1E0F4"></path>
            <g id="Group-7" transform="translate(639.000000, 174.000000)">
                <path d="M70.1149842,57.7558219 C64.8009125,72.1770699 66.7414597,84.2894523 75.9366259,94.0929688 C89.7293752,108.798244 117.224722,100.173368 120.549692,114.523133 C122.76634,124.089643 117.833451,128.651772 105.751028,128.20952" id="Path-83" stroke="#C1E0F4" stroke-width="10" stroke-linecap="round" stroke-linejoin="round"></path>
                <path d="M29.8048396,68.046503 C24.4907679,80.8489581 26.4313152,91.6017189 35.6264814,100.304785 C49.4192307,113.359385 76.914577,105.702657 80.2395479,118.441653 C82.4561951,126.934317 77.5233068,130.984344 65.440883,130.591735" id="Path-83-Copy" stroke="#C1E0F4" stroke-width="10" stroke-linecap="round" stroke-linejoin="round" transform="translate(53.820186, 99.332130) rotate(37.000000) translate(-53.820186, -99.332130) "></path>
                <path d="M73.6248556,67.8451969 C78.3719236,74.7686947 79.9542796,80.8451135 78.3719236,86.0744535 C75.9983896,93.9184634 60.2756426,115.071502 69.3002434,133.276479 C75.3166439,145.41313 82.9460456,149.386686 92.1884484,145.197148" id="Path-84" stroke="#C1E0F4" stroke-width="10" stroke-linecap="round" stroke-linejoin="round"></path>
                <path d="M50.2113358,64.085227 C55.9952731,70.9775712 55.0725409,77.9700518 47.4431393,85.0626686 C35.9990367,95.7015939 21.7867377,124.792301 35.9990367,144.659342" id="Path-85" stroke="#C1E0F4" stroke-width="10" stroke-linecap="round" stroke-linejoin="round"></path>
                <path d="M59.6560078,60.1293488 C58.2685743,99.1810211 46.3701466,120.859417 23.9607247,125.164536 C-9.65340821,131.622214 -0.904128345,163.654703 8.51441028,171.968241" id="Path-86" stroke="#C1E0F4" stroke-width="10" stroke-linecap="round" stroke-linejoin="round"></path>
                <rect id="Rectangle-2" fill="#315890" x="22.1349985" y="27.6911475" width="64.0333886" height="45.4909608" rx="22.7454804"></rect>
                <g id="Combined-Shape-Copy-4">
                    <mask id="mask-9" fill="white">
                        <use xlink:href="#path-8"></use>
                    </mask>
                    <g id="Mask">
                        <use fill="#FFFFFF" fill-rule="evenodd" xlink:href="#path-8"></use>
                        <path stroke="#315890" stroke-width="2" d="M98.812975,56.3852926 L86.800332,57.171346 L86.66686,57.1711533 L75.1545714,56.3844591 L62.673312,57.1728957 L39.5668605,56.3813018 L21.8217764,57.173473 L6.84197111,57.1734713 C2.63975262,57.1734709 -0.766818178,53.7668993 -0.766817721,49.5646808 C-0.766817693,49.3141091 -0.754439974,49.0636903 -0.729823116,48.8152861 L-0.728448364,48.8014313 C-0.420147204,45.7197142 0.148944215,42.6880656 0.969740619,39.7307771 C1.17187194,39.002508 1.20349783,38.8825185 1.69286745,37.006792 C2.7724418,32.8688436 3.45451272,30.8190357 4.70699704,28.5018194 C6.74174537,24.7373396 9.44259319,21.5007635 14.3459413,16.4451972 C15.3465414,15.4135348 16.5481745,14.4411632 18.3981074,13.0946704 C18.7397516,12.8460012 19.9401608,11.981625 19.8919224,12.0164744 C20.470099,11.5987761 20.8894164,11.2902498 21.276634,10.9951675 C26.0582261,7.35131692 28.8741518,5.55070717 32.7042061,3.96263626 C35.3362618,2.87129635 38.0542868,1.98584873 40.8374261,1.31618223 C41.4875212,1.15975927 41.6182162,1.12699075 43.310108,0.699513618 C48.1984354,-0.535582053 50.7234521,-1 53.756425,-1 C57.6261958,-1 60.911655,-0.337504764 66.9721461,1.36031065 C66.9027242,1.34086245 68.2090994,1.70750061 68.567262,1.80737073 C73.6988391,3.23826076 78.4315191,5.05914417 82.014161,7.12956301 C84.5809197,8.61290014 87.0226701,10.3019666 89.3151124,12.178271 C91.6313539,14.0740545 93.7889035,16.1558664 95.7645385,18.4011344 C97.4397686,20.3049987 98.615133,22.3269517 100.436714,26.0739921 C100.558645,26.3250491 100.558645,26.3250491 100.67997,26.5754579 C100.801052,26.8254781 100.801052,26.8254781 100.921763,27.0745919 C101.511868,28.2917844 101.872743,29.0173241 102.266039,29.7623438 C102.596359,30.3880682 102.937176,31.008872 103.419243,31.8695254 C103.531407,32.0697762 103.657806,32.2948328 103.896582,32.7198901 C104.090443,33.0652308 104.23307,33.3202469 104.37255,33.5713772 C106.268046,36.9841614 107.270132,39.24278 107.898349,41.9469998 C108.197304,43.2338788 108.247283,44.2418319 108.224542,46.5029713 C108.210359,47.9131887 108.219974,48.5396143 108.289656,49.3087799 C108.623535,52.9942106 105.906565,56.2525045 102.221134,56.5863831 C101.817077,56.6229883 101.410531,56.6228193 101.006493,56.585877 L98.812975,56.3852926 Z"></path>
                    </g>
                    <path d="M-7.64156974,48.9009764 C-5.10199845,21.8873169 16.433145,0.791175642 42.6234551,0.791175642 C68.9744997,0.791175642 90.6130633,22.1470531 92.9330875,49.3990046 C92.9330875,49.3990046 92.9330875,49.3990046 92.9330875,49.3990046 L92.9330875,49.3990046 C93.2256392,52.8354358 90.6770212,55.8583738 87.24059,56.1509254 C87.0644175,56.1659234 86.8876874,56.1734326 86.7108776,56.1734325 L-1.02070171,56.1734714 L-1.02070171,56.1734705 C-4.69342957,56.1734701 -7.67076342,53.1961356 -7.670763,49.5234077 C-7.67076297,49.3155884 -7.6610212,49.1078834 -7.64156974,48.9009764 C-7.64156974,48.9009764 -7.64156974,48.9009764 -7.64156974,48.9009764 Z" fill="#C1E0F4" mask="url(#mask-9)"></path>
                </g>
            </g>
            <g id="Rectangle-16">
                <use fill="#FFFFFF" fill-rule="evenodd" xlink:href="#path-10"></use>
                <rect stroke="#315890" stroke-width="2" x="644" y="181" width="41" height="41" rx="20.5"></rect>
            </g>
            <rect id="Rectangle-3" fill="#315890" x="650" y="201" width="6" height="8" rx="3"></rect>
        </g>
    </g>
</svg>