<?xml version="1.0" encoding="utf-8"?>
<!-- Generator: Adobe Illustrator 20.0.0, SVG Export Plug-In . SVG Version: 6.00 Build 0)  -->
<svg version="1.1" id="Layer_1" xmlns="http://www.w3.org/2000/svg" xmlns:xlink="http://www.w3.org/1999/xlink" x="0px" y="0px"
	 viewBox="0 0 64 64" style="enable-background:new 0 0 64 64;" xml:space="preserve">
<g>
	<path d="M37.8,27.5c-2.7,0-3.9,1.5-4.6,2.5v-2.2H28c0.1,1.4,0,15.4,0,15.4h5.1v-8.6c0-0.5,0-0.9,0.2-1.3c0.4-0.9,1.2-1.9,2.6-1.9
		c1.9,0,2.6,1.4,2.6,3.5v8.3h5.1h0v-8.9C43.7,29.7,41.2,27.5,37.8,27.5z M33.2,30.1L33.2,30.1C33.2,30.1,33.2,30,33.2,30.1
		L33.2,30.1z"/>
	<rect x="20.1" y="27.8" width="5.1" height="15.4"/>
	<path d="M32,0.2C14.5,0.2,0.2,14.5,0.2,32S14.5,63.8,32,63.8S63.8,49.5,63.8,32S49.5,0.2,32,0.2z M48.9,46.4c0,1.4-1.1,2.4-2.5,2.4
		H17.4c-1.4,0-2.5-1.1-2.5-2.4V17.1c0-1.4,1.1-2.4,2.5-2.4h28.9c1.4,0,2.5,1.1,2.5,2.4V46.4z"/>
	<path d="M22.7,20.4c-1.8,0-2.9,1.2-2.9,2.7c0,1.5,1.1,2.7,2.8,2.7h0c1.8,0,2.9-1.2,2.9-2.7C25.5,21.6,24.4,20.4,22.7,20.4z"/>
</g>
</svg>
