<?xml version="1.0" encoding="UTF-8"?>
<svg width="173px" height="44px" viewBox="0 0 173 44" version="1.1" xmlns="http://www.w3.org/2000/svg" xmlns:xlink="http://www.w3.org/1999/xlink">
    <!-- Generator: Sketch 45.2 (43514) - http://www.bohemiancoding.com/sketch -->
    <title>logo</title>
    <desc>Created with Sketch.</desc>
    <defs></defs>
    <g id="Phase-II" stroke="none" stroke-width="1" fill="none" fill-rule="evenodd">
        <g id="Website-Review" transform="translate(-152.000000, -6809.000000)" fill="#FFFFFF">
            <g id="Group-13" transform="translate(-15.000000, 5983.000000)">
                <g id="Footer" transform="translate(164.000000, 826.000000)">
                    <g id="logo" transform="translate(3.000000, 0.000000)">
                        <path d="M139,41.7714286 L139,7.22857143 C139,6.00285714 139.995122,5 141.156098,5 L152.434146,5 C164.596748,5 173,13.4128571 173,24.5 C173,35.4757143 164.596748,44 152.434146,44 L141.156098,44 C139.995122,44 139,42.9971429 139,41.7714286 Z M143.367758,39.6666667 L152.432262,39.6666667 C162.215293,39.6666667 168.460957,33.077497 168.460957,24.5664862 L168.460957,24.4566667 C168.460957,15.9456558 162.215293,9.24666667 152.432262,9.24666667 L143.367758,9.24666667 L143.367758,39.6666667 Z" id="Combined-Shape"></path>
                        <path d="M126,41.8028169 C126,43.0112676 126.911392,44 127.974684,44 C129.088608,44 130,43.0112676 130,41.8028169 L130,7.1971831 C130,5.98873239 129.088608,5 127.974684,5 C126.911392,5 126,5.98873239 126,7.1971831 L126,41.8028169 Z" id="ID"></path>
                        <path d="M94.4146868,4.83250921 L94.4146868,1.50089914 C94.4146868,0.670011399 95.1614787,0 96.0572354,0 C96.9617429,0 97.699784,0.669740557 97.699784,1.50089914 L97.699784,4.4157927 C97.9603816,4.40529735 98.2222928,4.4 98.4854198,4.4 C109.244411,4.4 117.97084,13.2566769 117.97084,24.1879078 C117.97084,28.2092394 116.789871,31.9498167 114.761192,35.0719886 C114.819244,36.020422 115.066931,36.4893093 115.629056,36.9200236 C115.685056,36.9629329 115.838075,37.0709365 116.039101,37.2101191 C116.160996,37.2943399 116.160996,37.2943399 116.256199,37.3597175 C116.295613,37.3867321 116.295613,37.3867321 116.338764,37.4161858 C116.336239,37.4145046 116.350298,37.4240906 116.350298,37.4240906 C117.685024,38.3698456 118.212655,39.4928062 117.922911,41.0486235 C117.44096,43.6365118 115.044442,44.4742194 111.595708,43.7509772 C109.962854,43.4085474 108.274592,42.744174 107.028518,41.9774437 C104.448756,43.2574716 101.549516,43.9758156 98.4854198,43.9758156 C87.7264285,43.9758156 79,35.1191387 79,24.1879078 C79,16.1917212 83.6694339,9.30561001 90.3881977,6.18422368 C90.3644746,6.07140088 90.351977,5.95400257 90.351977,5.8333616 L90.351977,4.34758484 C90.351977,3.46632606 91.0458005,2.74215439 91.8851204,2.74215439 C92.7362727,2.74215439 93.4182638,3.45639389 93.4182638,4.34758484 L93.4182638,5.07575117 C93.7470548,4.98607098 94.079277,4.90490799 94.4146868,4.83250921 Z M111.081642,33.8213182 C113.07746,31.1412126 114.260836,27.804319 114.260836,24.1879078 C114.260836,15.3544527 107.200451,8.18868576 98.4854198,8.18868576 C89.770389,8.18868576 82.7100035,15.3544527 82.7100035,24.1879078 C82.7100035,33.0213629 89.770389,40.1871298 98.4854198,40.1871298 C101.660728,40.1871298 104.616381,39.2358759 107.090921,37.5992945 C107.683128,38.0891225 107.683128,38.0891225 107.683128,38.0891225 C108.731708,38.7544768 111.040957,39.7668833 112.342078,40.0397444 C112.877277,40.1519822 113.36058,40.2055941 113.751102,40.2025055 C113.598994,40.0955646 113.477508,40.0080769 113.402392,39.9505209 C112.073325,38.9321554 111.289941,37.291497 111.096355,35.2189927 C111.096355,35.2189927 111.096355,35.2189927 111.096355,33.9312859 C111.096355,33.8882203 111.091334,33.8516902 111.081642,33.8213182 Z M102.597493,18.3855499 C102.597493,21.3262005 100.221936,23.70376 97.2990891,23.70376 C94.376242,23.70376 92.0006856,21.3262005 92.0006856,18.3855499 C92.0006856,15.4448993 94.376242,13.0673397 97.2990891,13.0673397 C100.221936,13.0673397 102.597493,15.4448993 102.597493,18.3855499 Z M100.365136,28.6941156 C99.3511674,28.6941156 98.5291834,27.8598629 98.5291834,26.8307602 C98.5291834,25.8016574 99.3511674,24.9674048 100.365136,24.9674048 C101.379104,24.9674048 102.201088,25.8016574 102.201088,26.8307602 C102.201088,27.8598629 101.379104,28.6941156 100.365136,28.6941156 Z M96.7495876,28.1623289 C96.7495876,30.0823447 95.1970748,31.6361665 93.2851349,31.6361665 C91.373195,31.6361665 89.8206823,30.0823447 89.8206823,28.1623289 C89.8206823,26.2423131 91.373195,24.6884912 93.2851349,24.6884912 C95.1970748,24.6884912 96.7495876,26.2423131 96.7495876,28.1623289 Z" id="Combined-Shape" fill-rule="nonzero"></path>
                        <path d="M39,41.787234 L39,7.21276596 C39,5.99574468 40.0072202,5 41.1823105,5 L55.8429603,5 C60.6552347,5 64.5162455,6.43829787 66.9783394,8.87234043 C68.8808664,10.7531915 70,13.4638298 70,16.506383 L70,16.6170213 C70,22.9787234 65.6353791,26.6851064 59.5361011,27.8468085 L69.2725632,40.2382979 C69.7202166,40.7361702 70,41.2340426 70,41.8425532 C70,43.0042553 68.8808664,44 67.7617329,44 C66.866426,44 66.1949458,43.5021277 65.6913357,42.8382979 L54.66787,28.6765957 L43.4205776,28.6765957 L43.4205776,41.787234 C43.4205776,43.0042553 42.4133574,44 41.1823105,44 C40.0072202,44 39,43.0042553 39,41.787234 Z M43.4162011,24.8466667 L55.4349763,24.8466667 C61.3046107,24.8466667 65.4972067,21.8804695 65.4972067,16.9368075 L65.4972067,16.8269484 C65.4972067,12.1030047 61.8077222,9.24666667 55.4908776,9.24666667 L43.4162011,9.24666667 L43.4162011,24.8466667 Z" id="Combined-Shape"></path>
                        <path d="M0,41.7714286 L0,7.22857143 C0,6.00285714 1.01946903,5 2.20884956,5 L16.8778761,5 C21.4088496,5 24.9769912,6.28142857 27.2424779,8.45428571 C28.8849558,10.1257143 29.7911504,12.1871429 29.7911504,14.6942857 L29.7911504,14.8057143 C29.7911504,19.8757143 26.619469,22.4942857 23.5044248,23.8314286 C28.2053097,25.2242857 32,27.8985714 32,33.2471429 L32,33.3585714 C32,40.0442857 26.279646,44 17.6141593,44 L2.20884956,44 C1.01946903,44 0,42.9971429 0,41.7714286 Z M4.38356164,39.84 L17.6968799,39.84 C23.7020363,39.84 27.4410959,37.2508772 27.4410959,32.9540351 L27.4410959,32.8438596 C27.4410959,28.657193 23.8153411,26.2333333 16.9037461,26.2333333 L4.38356164,26.2333333 L4.38356164,39.84 Z M4.38356164,22.42 L16.1205479,22.42 C21.5070876,22.42 25.2493151,20.0541079 25.2493151,15.5424066 L25.2493151,15.4323651 C25.2493151,11.6359336 22.1307921,9.16 16.4607504,9.16 L4.38356164,9.16 L4.38356164,22.42 Z" id="Combined-Shape"></path>
                    </g>
                </g>
            </g>
        </g>
    </g>
</svg>