<?xml version="1.0" encoding="UTF-8"?>
<svg width="2200px" height="700px" viewBox="0 0 2200 700" version="1.1" xmlns="http://www.w3.org/2000/svg" xmlns:xlink="http://www.w3.org/1999/xlink">
    <!-- Generator: Sketch 45.2 (43514) - http://www.bohemiancoding.com/sketch -->
    <title>broid</title>
    <desc>Created with Sketch.</desc>
    <defs></defs>
    <g id="Illustrations" stroke="none" stroke-width="1" fill="none" fill-rule="evenodd">
        <g id="broid" fill="#1DA1F2">
            <g id="logo" transform="translate(100.000000, 100.000000)">
                <path d="M1603,474.285714 L1603,75.7142857 C1603,61.5714286 1614.61951,50 1628.17561,50 L1759.86341,50 C1901.87967,50 2000,147.071429 2000,275 C2000,401.642857 1901.87967,500 1759.86341,500 L1628.17561,500 C1614.61951,500 1603,488.428571 1603,474.285714 Z M1654,450 L1759.84141,450 C1874.07269,450 1947,373.971119 1947,275.767148 L1947,274.5 C1947,176.296029 1874.07269,99 1759.84141,99 L1654,99 L1654,450 Z" id="Combined-Shape"></path>
                <path d="M1461,474.647887 C1461,488.591549 1472.62025,500 1486.17722,500 C1500.37975,500 1512,488.591549 1512,474.647887 L1512,75.3521127 C1512,61.4084507 1500.37975,50 1486.17722,50 C1472.62025,50 1461,61.4084507 1461,75.3521127 L1461,474.647887 Z" id="ID"></path>
                <path d="M1089,54.9148774 L1089,17.0556721 C1089,7.61376589 1097.86576,0 1108.5,0 C1119.23813,0 1128,7.61068814 1128,17.0556721 L1128,50.179464 C1131.09376,50.0601971 1134.20312,50 1137.32691,50 C1265.05544,50 1368.65381,150.644055 1368.65381,274.862588 C1368.65381,320.559538 1354.6336,363.066098 1330.54954,398.545325 C1331.23872,409.322977 1334.17921,414.651242 1340.85263,419.545723 C1341.51746,420.033328 1343.33407,421.260642 1345.72061,422.842263 C1347.16772,423.799317 1347.16772,423.799317 1348.29795,424.542244 C1348.76587,424.849229 1348.76587,424.849229 1349.27814,425.18393 C1349.24817,425.164825 1349.41508,425.273756 1349.41508,425.273756 C1365.26067,436.020972 1371.5246,448.781889 1368.08481,466.461631 C1362.36319,495.869452 1333.91222,505.388857 1292.96956,497.170195 C1273.58465,493.278948 1253.54195,485.72925 1238.74881,477.016405 C1208.12241,491.562177 1173.70323,499.725177 1137.32691,499.725177 C1009.59837,499.725177 906,399.081121 906,274.862588 C906,183.996833 961.434561,105.74557 1041.19834,70.2752702 C1040.91671,68.9931918 1040.76834,67.6591201 1040.76834,66.2882 L1040.76834,49.4043731 C1040.76834,39.3900689 1049.00527,31.1608454 1058.96951,31.1608454 C1069.07421,31.1608454 1077.17067,39.2772033 1077.17067,49.4043731 L1077.17067,57.6789906 C1081.074,56.6598987 1085.01807,55.7375929 1088.99999,54.9148802 Z M1286.86667,384.333157 C1310.56061,353.877412 1324.60941,315.958169 1324.60941,274.862588 C1324.60941,174.482417 1240.78996,93.0532473 1137.32691,93.0532473 C1033.86385,93.0532473 950.044401,174.482417 950.044401,274.862588 C950.044401,375.24276 1033.86385,456.67193 1137.32691,456.67193 C1175.02351,456.67193 1210.11243,445.862226 1239.48965,427.26471 C1246.52021,432.830938 1246.52021,432.830938 1246.52021,432.830938 C1258.96873,440.391782 1286.38367,451.896401 1301.83031,454.997096 C1308.18408,456.272525 1313.92175,456.881751 1318.55796,456.846654 C1316.75216,455.631416 1315.3099,454.637237 1314.41814,453.983192 C1298.63972,442.410856 1289.33956,423.767012 1287.04135,400.215826 C1287.04135,400.215826 1287.04135,400.215826 1287.04135,385.582794 C1287.04135,385.093412 1286.98174,384.678298 1286.86667,384.333162 Z M1186.14459,208.926703 C1186.14459,242.343187 1157.94247,269.360909 1123.24303,269.360909 C1088.54359,269.360909 1060.34147,242.343187 1060.34147,208.926703 C1060.34147,175.510219 1088.54359,148.492497 1123.24303,148.492497 C1157.94247,148.492497 1186.14459,175.510219 1186.14459,208.926703 Z M1159.64251,326.069495 C1147.60488,326.069495 1137.84646,316.589352 1137.84646,304.895002 C1137.84646,293.200652 1147.60488,283.720509 1159.64251,283.720509 C1171.68014,283.720509 1181.43856,293.200652 1181.43856,304.895002 C1181.43856,316.589352 1171.68014,326.069495 1159.64251,326.069495 Z M1116.71946,320.026464 C1116.71946,341.844826 1098.28835,359.501892 1075.59019,359.501892 C1052.89203,359.501892 1034.46092,341.844826 1034.46092,320.026464 C1034.46092,298.208103 1052.89203,280.551037 1075.59019,280.551037 C1098.28835,280.551037 1116.71946,298.208103 1116.71946,320.026464 Z" id="Combined-Shape" fill-rule="nonzero"></path>
                <path d="M457,474.468085 L457,75.5319149 C457,61.4893617 468.631769,50 482.202166,50 L651.509025,50 C707.083032,50 751.67148,66.5957447 780.104693,94.6808511 C802.075812,116.382979 815,147.659574 815,182.765957 L815,184.042553 C815,257.446809 764.595668,300.212766 694.158845,313.617021 L806.599278,456.595745 C811.768953,462.340426 815,468.085106 815,475.106383 C815,488.510638 802.075812,500 789.151625,500 C778.812274,500 771.057762,494.255319 765.241877,486.595745 L637.938628,323.191489 L508.050542,323.191489 L508.050542,474.468085 C508.050542,488.510638 496.418773,500 482.202166,500 C468.631769,500 457,488.510638 457,474.468085 Z M508,279 L646.797468,279 C714.582278,279 763,244.774648 763,187.732394 L763,186.464789 C763,131.957746 720.392405,99 647.443038,99 L508,99 L508,279 Z" id="Combined-Shape"></path>
                <path d="M0,474.285714 L0,75.7142857 C0,61.5714286 11.6283186,50 25.1946903,50 L192.513274,50 C244.19469,50 284.893805,64.7857143 310.734513,89.8571429 C329.469027,109.142857 339.80531,132.928571 339.80531,161.857143 L339.80531,163.142857 C339.80531,221.642857 303.628319,251.857143 268.097345,267.285714 C321.716814,283.357143 365,314.214286 365,375.928571 L365,377.214286 C365,454.357143 299.752212,500 200.911504,500 L25.1946903,500 C11.6283186,500 0,488.428571 0,474.285714 Z M50,452 L201.855037,452 C270.351351,452 313,422.125506 313,372.546559 L313,371.275304 C313,322.967611 271.643735,295 192.808354,295 L50,295 L50,452 Z M50,251 L183.875,251 C245.315217,251 288,223.701245 288,171.643154 L288,170.373444 C288,126.568465 252.429348,98 187.755435,98 L50,98 L50,251 Z" id="Combined-Shape"></path>
            </g>
        </g>
    </g>
</svg>