<?xml version="1.0" encoding="utf-8"?>
<!-- Generator: Adobe Illustrator 19.2.0, SVG Export Plug-In . SVG Version: 6.00 Build 0)  -->
<svg version="1.1" id="Layer_1" xmlns="http://www.w3.org/2000/svg" xmlns:xlink="http://www.w3.org/1999/xlink" x="0px" y="0px"
	 viewBox="0 0 425.2 287.6" style="enable-background:new 0 0 425.2 287.6;" xml:space="preserve">
<style type="text/css">
	.st0{fill:#E3E3F2;}
	.st1{fill:#CACCE7;}
	.st2{fill:#FFFFFF;}
	.st3{fill:#A3A5C1;}
</style>
<g>
	<path class="st0" d="M116.7,154.7l25,20.3l1-1.4c7.2-8.9,19.3-11.2,27-5c7.6,6.2,8,18.5,0.7,27.4l-1.1,1.3l27,21.9l121.5-150
		l-25-20.3l-1,1.4c-7.2,8.9-19.3,11.2-27,5c-7.6-6.2-8-18.5-0.7-27.4l1.1-1.3l-27-21.9L116.7,154.7L116.7,154.7z"/>
	<path class="st1" d="M196.8,223.8L322.5,68.6l-30.2-24.5l-3.1,4.1c-4.2,5.2-10.6,8-16.4,7.1c-2.2-0.4-4.2-1.2-5.9-2.6
		c-6.2-5-6.3-15.2-0.3-22.7l3.3-3.9L237.7,0L112.1,155.2l30.2,24.5l3.1-4.1c4.2-5.2,10.6-8,16.4-7.1c2.2,0.4,4.2,1.2,5.9,2.6
		c6.2,5,6.3,15.2,0.3,22.7l-3.3,3.9L196.8,223.8L196.8,223.8z M313.2,69.6L195.9,214.5L174,196.8c7.4-10.2,6.5-23.8-2.2-30.8
		c-2.6-2.1-5.6-3.4-9-4c-7.7-1.2-15.8,1.9-21.6,8.3l-19.9-16.1L238.7,9.3L260.6,27c-7.4,10.2-6.5,23.8,2.2,30.8c2.6,2.1,5.7,3.5,9,4
		c7.7,1.2,15.8-1.9,21.6-8.3L313.2,69.6L313.2,69.6z"/>
	<polygon class="st0" points="160,141.1 188.1,126.8 191.2,143.7 223.9,103.1 171.8,105.7 183.7,118.1 155.5,132.5 160,141.1 	"/>
	<path class="st1" d="M159.3,145.3c0.9,0.1,1.8,0,2.6-0.4l23.1-11.8l2.1,11.3c0.3,1.6,1.5,2.9,3.1,3.3c1.6,0.4,3.3-0.2,4.3-1.4
		l32.8-40.6c1-1.3,1.2-3.1,0.5-4.6c-0.8-1.5-2.3-2.4-4-2.3l-52.1,2.6c-1.7,0.1-3.1,1.1-3.7,2.7c-0.6,1.5-0.3,3.3,0.9,4.5l7.9,8.3
		l-23.1,11.8c-2.1,1.1-2.9,3.6-1.8,5.7l4.4,8.7C156.8,144.3,158,145.1,159.3,145.3L159.3,145.3z M188.8,122.6
		c-0.9-0.1-1.8,0-2.6,0.4l-24.4,12.4l-0.6-1.1l24.4-12.4c1.2-0.6,2-1.7,2.2-3.1c0.2-1.3-0.2-2.7-1.1-3.6l-5.5-5.7l33.4-1.7l-21,26.1
		l-1.4-7.8c-0.2-1.3-1.1-2.4-2.3-3C189.6,122.8,189.2,122.7,188.8,122.6L188.8,122.6z"/>
	<polygon class="st2" points="160,141.1 188.1,126.8 191.2,143.7 223.9,103.1 171.8,105.7 183.7,118.1 155.5,132.5 160,141.1 	"/>
	<path class="st1" d="M159.5,142.4l27.8-14.2l3.2,17.7l35.5-43.9l-56.4,2.9l12.4,13L154.2,132L159.5,142.4L159.5,142.4z
		 M188.8,125.3l-28.4,14.5l-3.5-6.9l28.4-14.5L174,106.6l47.8-2.4l-30.1,37.2L188.8,125.3L188.8,125.3z"/>
	<path class="st1" d="M226.8,153c0.3,0,0.6,0.1,0.8,0c2.1-0.1,3.6-1.9,3.5-4l-2-28.9c-0.1-2.1-1.9-3.6-4-3.5c-2.1,0.1-3.6,1.9-3.5,4
		l2,28.9C223.8,151.3,225.1,152.7,226.8,153L226.8,153z M255.9,135.3c1.2,0.2,2.5-0.2,3.4-1.2c1.4-1.6,1.2-3.9-0.4-5.3l-19.2-16.7
		c-1.6-1.4-3.9-1.2-5.3,0.4c-1.4,1.6-1.2,3.9,0.4,5.3l19.2,16.7C254.6,134.9,255.2,135.2,255.9,135.3L255.9,135.3z M240.7,106
		c0.3,0,0.6,0.1,0.9,0l24.1-1.7c2.1-0.1,3.6-1.9,3.5-4c-0.1-2.1-1.9-3.6-4-3.5L241,98.6c-2.1,0.1-3.6,1.9-3.5,4
		C237.7,104.4,239,105.8,240.7,106L240.7,106z M210.4,95.7c1.2,0.2,2.5-0.2,3.4-1.2c1.4-1.6,1.2-3.9-0.4-5.3l-19.3-16.8
		c-1.6-1.4-3.9-1.2-5.3,0.4c-1.4,1.6-1.2,3.9,0.4,5.3l19.3,16.8C209.1,95.4,209.8,95.6,210.4,95.7L210.4,95.7z M235.5,93.6
		c1.2,0.2,2.5-0.2,3.4-1.2l14.4-16.6c1.4-1.6,1.2-3.9-0.4-5.3c-1.6-1.4-3.9-1.2-5.3,0.4l-14.4,16.6c-1.4,1.6-1.2,3.9,0.4,5.3
		C234.2,93.2,234.8,93.5,235.5,93.6L235.5,93.6z M222.4,90.1c0.3,0,0.6,0.1,0.8,0c2.1-0.1,3.6-1.9,3.5-4l-2.2-31.1
		c-0.1-2.1-1.9-3.6-4-3.5c-2.1,0.1-3.6,1.9-3.5,4l2.2,31.1C219.4,88.5,220.8,89.9,222.4,90.1L222.4,90.1z"/>
	<path class="st2" d="M411.4,218.8h-37c-2.3,0-4.3,1.7-4.9,4.1c-3.4-2.7-7.5-4.1-12.3-4.1c-5.4,0-10,1.8-13.6,5.2
		c-1,1-1.9,2-2.6,3.2c-0.5-0.7-1-1.5-1.5-2.1c0,0,0,0,0,0c-3.5-4.2-8.2-6.3-14.1-6.3c-5.4,0-10,1.8-13.6,5.2
		c-4.4,4.3-6.7,10.6-6.7,19v20.3c0,1.1,0,2.1,0.1,3.1c-1.6-1.1-3.5-1.7-5.5-1.7c-1.4,0-2.6,0.3-3.8,0.8v-41c0-3.1-2.3-5.6-5.1-5.6
		h-12.9c-0.7,0-1.3,0.1-1.9,0.4c-0.6-0.3-1.2-0.4-1.9-0.4h-12.9c-0.3,0-0.5,0-0.8,0.1c-0.4-0.1-0.8-0.2-1.2-0.2h-12.9
		c-0.8,0-1.5,0.2-2.1,0.5c-0.7-0.3-1.4-0.5-2.1-0.5c-0.2,0-0.4,0-0.5,0c-3.9,0.5-7.3,2-10,4.6c-0.2-0.9-0.5-1.8-1-2.5
		c-1-1.3-2.4-2.1-3.9-2.1h-10.8c-1.1,0-2.1,0.4-2.9,1c-0.8-0.7-1.8-1-2.9-1h-1.7c-0.3-0.3-0.6-0.6-1-0.9c-0.2-0.1-0.4-0.3-0.6-0.4
		l-5.6-3.1l-0.2-6.8c0.1-3.1-1.4-5.1-3-6l0,0c-0.7-0.4-1.5-0.6-2.3-0.6c-2.3,0-3.7,1.6-4.2,2.1c0,0,0,0-0.1,0.1l-4.4,5.1l-6.2-1.9
		c-0.7-0.2-1.3-0.3-1.9-0.3c-2.3,0-4.3,1.6-5.1,4c-0.4,1.3-0.3,2.8,0.2,4.1l0.3,0.7c0.1,0.2,0.2,0.4,0.3,0.6l1.8,3.3h-24.3
		c-0.3,0-0.5-0.1-0.8-0.1h-12.9c-0.7,0-1.3,0.1-1.9,0.4c-0.6-0.3-1.2-0.4-1.9-0.4h-12.9c-0.7,0-1.3,0.1-1.9,0.4
		c-0.6-0.3-1.2-0.4-1.9-0.4h-12.9c-2.3,0-4.3,1.8-4.9,4.1c-3.4-2.7-7.5-4.1-12.3-4.1c-5.4,0-10,1.8-13.6,5.2
		c-0.5,0.4-0.9,0.9-1.3,1.4c-3.2-5.8-8.3-6.7-11-6.7h-2.9v-9c0-3.1-2.3-5.6-5.1-5.6H40.9c-2.8,0-5.1,2.5-5.1,5.6v12.4
		c-3.1-2.2-6.9-3.4-11.1-3.4c-9.5,0-14.1,4.7-16.3,8.6c-2.1,3.6-3.1,8.4-3.1,14.6c0,4.3,0.7,8,2,10.9c-1.4,1-2.3,2.8-2.3,4.7v8.8
		c0,7.3,1.8,12.8,5.3,16.4c3.1,3.2,7.5,4.8,13.3,4.8c5.2,0,9.4-1.2,12.6-3.4c0.8,2,2.6,3.4,4.7,3.4h12.9c0.7,0,1.3-0.1,1.9-0.4
		c0.6,0.3,1.2,0.4,1.9,0.4h12.9c2.3,0,4.3-1.7,4.9-4.1c3.4,2.7,7.5,4.1,12.3,4.1c5.4,0,10-1.8,13.6-5.2c0.5-0.4,0.9-0.9,1.3-1.4
		c3.2,5.9,8.3,6.7,11,6.7h28.8c2.9,0,8.6-1,11.7-8.2v2.5c0,3.1,2.3,5.6,5.1,5.6h13.3c2.5,0,4.6-2,5-4.7c0.4,2.7,2.5,4.7,5,4.7h12.9
		c0.3,0,0.6,0,0.8-0.1c0.4,0.1,0.8,0.2,1.2,0.2h12.9c0.8,0,1.6-0.2,2.3-0.6c0.7,0.4,1.5,0.6,2.3,0.6h12.9c2.8,0,5.1-2.5,5.1-5.6
		v-8.5c0-0.9,0-1.7-0.1-2.6h8.6V282c0,3.1,2.3,5.6,5.1,5.6h12.9c1.6,0,3-0.8,3.9-2.1c2.5,1.6,5.1,2,6.8,2h20.8
		c1.4,0,2.6-0.6,3.5-1.6c1.6,1.1,3.4,1.7,5.4,1.7c2.8,0,5.3-1.2,7.3-3.4c1.2-1.3,2-2.9,2.5-4.6c0.7,0.9,1.4,1.8,2.2,2.6
		c3.6,3.5,8.2,5.2,13.6,5.2c6.1,0,10.9-2.1,14.2-6.2c0.5-0.7,1-1.4,1.5-2.1c0.8,1.1,1.6,2.2,2.6,3.1c3.6,3.5,8.2,5.2,13.6,5.2
		c4.8,0,8.9-1.4,12.3-4.1c0.6,2.4,2.6,4.1,4.9,4.1h12.9c0.7,0,1.3-0.1,1.9-0.4c0.6,0.3,1.2,0.4,1.9,0.4h12.4c0.7,0,1.3-0.1,1.9-0.4
		c0.6,0.3,1.2,0.4,1.9,0.4h12.9c2.8,0,5.1-2.5,5.1-5.6v-42.5C425.2,220.8,415.5,218.8,411.4,218.8L411.4,218.8z"/>
	<path class="st3" d="M38.9,265.6c0,5.9-1.4,10.2-4.2,12.8c-2.5,2.3-6.2,3.5-11.1,3.5c-4.4,0-7.7-1.1-9.8-3.3
		c-2.5-2.5-3.7-6.5-3.7-12.2v-8.8H22v10.3c0,2,0.7,3.1,2.1,3.1c1.5,0,2.3-1.1,2.3-3.2v-6.4c0-2-0.4-3.3-1.3-3.9
		c-1-0.5-2.3-1.1-3.8-1.6c-3.7-0.4-6.4-1.5-8-3.2c-1.9-2.1-2.9-5.7-2.9-10.6c0-5,0.8-8.9,2.3-11.6c2.2-4,6.2-5.9,12-5.9
		c3.5,0,6.4,0.9,8.8,2.8c3.2,2.5,4.8,6.3,4.8,11.4V250H26.4v-11.3c0-2.2-0.7-3.3-2-3.3c-1.4,0-2.1,1.1-2.1,3.3v11.2
		c0.1,1.1,1.1,1.6,2.9,1.4c3.5,0,6.4,0.9,8.8,2.8C37.3,256.7,38.9,260.5,38.9,265.6L38.9,265.6z"/>
	<path class="st3" d="M70.5,281.9H57.6v-42c0-2.7-0.7-4-2-4c-1.2,0-1.8,1.4-1.8,4.1v41.9H40.9v-72.1h12.9v14.6h8c5.8,0,8.8,5,8.8,15
		V281.9L70.5,281.9z"/>
	<path class="st3" d="M102.9,263.3c0,6.6-1.6,11.6-4.9,14.7c-2.7,2.6-6.1,3.9-10.3,3.9c-4.2,0-7.6-1.3-10.3-3.9
		c-3.3-3.2-4.9-8.1-4.9-14.7V243c0-6.6,1.6-11.6,4.9-14.7c2.7-2.6,6.1-3.9,10.3-3.9c4.2,0,7.6,1.3,10.3,3.9
		c3.3,3.2,4.9,8.1,4.9,14.7V263.3L102.9,263.3z M90,266.7v-28.1c0-2.5-0.8-3.7-2.3-3.7c-1.5,0-2.3,1.2-2.3,3.7v28.1
		c0,2.5,0.8,3.7,2.3,3.7C89.2,270.4,90,269.1,90,266.7L90,266.7z"/>
	<path class="st3" d="M151.1,267c0,10-2.9,15-8.8,15h-28.8c-5.8,0-8.8-5-8.8-15v-42.6h12.9v42.1c0,2.7,0.7,4,2,4
		c1.2,0,1.8-1.4,1.8-4.2v-42h12.9v42c0,2.8,0.6,4.2,1.8,4.2c1.4,0,2-1.3,2-4v-42.1h12.9V267L151.1,267z"/>
	<polygon class="st3" points="180.4,232.2 172.5,232.2 172.5,281.9 159.2,281.9 159.2,232.2 151.3,232.2 151.3,224.5 180.4,224.5 
		180.4,232.2 	"/>
	<path class="st3" d="M205,223.2c-0.2,0.1-0.4,0.2-0.7,0.3l-8.5,3.1l-0.7,5.6h0.2v49.7h-12.9v-49.7h7.4l-2-3.1l-9.6,2.1
		c-0.4,0.1-0.6,0.1-0.7,0.1c-0.1-0.1-0.2-0.2-0.1-0.3c0-0.1,0.2-0.2,0.4-0.6l5.5-9.2l-4.6-8.6l-0.3-0.7c0-0.2,0.3-0.2,0.9,0l9,2.7
		l6.5-7.5c0.3-0.4,0.6-0.5,0.7-0.5c0.1,0.1,0.2,0.3,0.1,0.8l0.4,10.5l8.3,4.6C204.9,222.9,205.1,223.1,205,223.2L205,223.2z
		 M200.8,222.7l-6.6-3.4l-0.1-8.4l-5.1,6.1l-6.9-2.3l3.6,6.6l-4.7,7.4l7.7-2.1l4.3,7.2l1.1-8.9L200.8,222.7L200.8,222.7z
		 M196.9,222.3L196.9,222.3l-4.3,1.4l-0.6,5.6l-0.1,0.1l-2.6-4.7l-4.9,1.4l-0.1-0.2l3.1-4.5l-2.2-4l0.1-0.1l4.1,1.7l3.2-3.9v5.3
		L196.9,222.3L196.9,222.3z"/>
	<path class="st3" d="M227.8,282h-12.9v-13.1c0-2.5-0.8-3.7-2.3-3.7c-1.5,0-2.3,1.2-2.3,3.7V282h-12.9v-8.5c0-7.9,2.3-13.4,6.9-16.4
		l-5.9-32.7H210l3,21.9h0.1l2.7-21.9h10.8l-6.2,32.4c4.9,2.9,7.3,8.4,7.3,16.6V282L227.8,282z"/>
	<path class="st3" d="M242.2,257.6h4.2v-33.2h12.9V282h-12.9v-16.7h-16.6V243c0-6.1,1.3-10.7,3.8-13.9c2.1-2.7,5-4.2,8.5-4.7
		L242.2,257.6L242.2,257.6z"/>
	<path class="st3" d="M290.8,281.9H270c-5.8,0-8.8-5-8.8-15v-42.5h12.9v42c0,2.7,0.7,4,2,4c1.2,0,1.8-1.4,1.8-4.1v-41.9h12.9V281.9
		L290.8,281.9z"/>
	<path class="st3" d="M294.5,276.1c0-1.6,0.5-3,1.5-4.1c1-1.1,2.2-1.7,3.7-1.7c1.4,0,2.7,0.6,3.7,1.7c1,1.1,1.5,2.5,1.5,4.1
		c0,1.6-0.5,3-1.5,4.1c-1,1.1-2.2,1.7-3.7,1.7c-1.4,0-2.7-0.6-3.7-1.7C295,279.1,294.5,277.7,294.5,276.1L294.5,276.1z"/>
	<path class="st3" d="M340.1,260.1c0,8.2-1.4,14-4.3,17.5c-2.4,2.9-5.9,4.3-10.5,4.3c-4.2,0-7.6-1.3-10.3-3.9
		c-3.3-3.2-4.9-8.1-4.9-14.7V243c0-6.6,1.6-11.6,4.9-14.7c2.7-2.6,6.1-3.9,10.3-3.9c4.4,0,7.9,1.5,10.4,4.5
		c2.6,3.2,3.9,7.7,3.9,13.6v10.7h-12.4V238c0-2.1-0.7-3.2-2.1-3.2c-1.4,0-2.1,1.1-2.1,3.2v29.1c0,2.9,0.8,4.3,2.3,4.3
		c1.5,0,2.3-1.5,2.3-4.6v-9.3h12.4V260.1L340.1,260.1z"/>
	<path class="st3" d="M372.4,263.3c0,6.6-1.6,11.6-4.9,14.7c-2.7,2.6-6.1,3.9-10.3,3.9c-4.2,0-7.6-1.3-10.3-3.9
		c-3.3-3.2-4.9-8.1-4.9-14.7V243c0-6.6,1.6-11.6,4.9-14.7c2.7-2.6,6.1-3.9,10.3-3.9c4.2,0,7.6,1.3,10.3,3.9
		c3.3,3.2,4.9,8.1,4.9,14.7V263.3L372.4,263.3z M359.6,266.7v-28.1c0-2.5-0.8-3.7-2.3-3.7c-1.5,0-2.3,1.2-2.3,3.7v28.1
		c0,2.5,0.8,3.7,2.3,3.7C358.8,270.4,359.6,269.1,359.6,266.7L359.6,266.7z"/>
	<path class="st3" d="M420.1,281.9h-12.9v-42c0-2.7-0.7-4-2-4c-1.2,0-1.7,1.4-1.7,4.1v41.9H391v-42c0-2.7-0.7-4-2-4
		c-1.2,0-1.8,1.4-1.8,4.1v41.9h-12.9v-57.4h37c5.8,0,8.8,5,8.8,15V281.9L420.1,281.9z"/>
</g>
</svg>
