<?xml version="1.0" encoding="utf-8"?>
<!-- Generator: Adobe Illustrator 15.0.2, SVG Export Plug-In . SVG Version: 6.00 Build 0)  -->
<!DOCTYPE svg PUBLIC "-//W3C//DTD SVG 1.1//EN" "http://www.w3.org/Graphics/SVG/1.1/DTD/svg11.dtd">
<svg version="1.1" id="Layer_1" xmlns="http://www.w3.org/2000/svg" xmlns:xlink="http://www.w3.org/1999/xlink" x="0px" y="0px"
	 width="44.359px" height="44.359px" viewBox="0 0 44.359 44.359" enable-background="new 0 0 44.359 44.359" xml:space="preserve">
<g>
	<g>
		<defs>
			<rect id="SVGID_1_" x="0" y="0" width="44.359" height="44.359"/>
		</defs>
		<clipPath id="SVGID_2_">
			<use xlink:href="#SVGID_1_"  overflow="visible"/>
		</clipPath>
		<g clip-path="url(#SVGID_2_)">
			<path fill="#333333" d="M44.358,44.359H0V19.717l5.485-5.108v7.502l16.695,9.208l16.696-9.208v-7.502l5.481,5.109V44.359z
				 M1,43.359h42.358V20.152l-3.481-3.245v5.794l-17.696,9.76l-17.695-9.76v-5.794L1,20.152V43.359z"/>
		</g>
	</g>
	<g>
		<defs>
			<rect id="SVGID_3_" x="0" y="0" width="44.359" height="44.359"/>
		</defs>
		<clipPath id="SVGID_4_">
			<use xlink:href="#SVGID_3_"  overflow="visible"/>
		</clipPath>
		<g clip-path="url(#SVGID_4_)">
			<path fill="#333333" d="M31.482,7.727H12.878l7.569-7.043c0.945-0.881,2.52-0.882,3.465,0.001L31.482,7.727z M15.421,6.727
				h13.519l-5.71-5.311c-0.575-0.539-1.526-0.536-2.1,0L15.421,6.727z"/>
		</g>
	</g>
	<g>
		<defs>
			<rect id="SVGID_5_" x="0" y="0" width="44.359" height="44.359"/>
		</defs>
		<clipPath id="SVGID_6_">
			<use xlink:href="#SVGID_5_"  overflow="visible"/>
		</clipPath>
		<g clip-path="url(#SVGID_6_)">
			<path fill="#333333" d="M43.516,44.36H0.595C0.267,44.36,0,44.092,0,43.762V19.516l0.677-0.049l0.137,0.07l43.325,23.887
				l-0.23,0.919L43.516,44.36z M1,43.36h40.951L1,20.781V43.36z"/>
		</g>
	</g>
	<g>
		<defs>
			<rect id="SVGID_7_" x="0" y="0" width="44.359" height="44.359"/>
		</defs>
		<clipPath id="SVGID_8_">
			<use xlink:href="#SVGID_7_"  overflow="visible"/>
		</clipPath>
		<g clip-path="url(#SVGID_8_)">
			<path fill="#333333" d="M43.763,44.36H42.87l0.112-0.432L21.145,31.889l22.518-12.416l0.638-0.006l0.06,0.536v23.759
				C44.36,44.092,44.093,44.36,43.763,44.36z M23.216,31.889L43.36,42.995V20.781L23.216,31.889z"/>
		</g>
	</g>
</g>
<g>
	<g>
		<defs>
			<polygon id="SVGID_9_" points="4.985,7.227 4.985,22.406 22.18,31.89 39.377,22.406 39.377,7.227 			"/>
		</defs>
		<clipPath id="SVGID_10_">
			<use xlink:href="#SVGID_9_"  overflow="visible"/>
		</clipPath>
		<g clip-path="url(#SVGID_10_)">
			<path fill="#333333" d="M33.771,13.207H10.596c-0.414,0-0.749-0.332-0.749-0.746c0-0.418,0.335-0.746,0.749-0.746h23.175
				c0.411,0,0.744,0.328,0.744,0.746C34.516,12.875,34.183,13.207,33.771,13.207"/>
		</g>
	</g>
	<g>
		<defs>
			<polygon id="SVGID_11_" points="4.985,7.227 4.985,22.406 22.18,31.89 39.377,22.406 39.377,7.227 			"/>
		</defs>
		<clipPath id="SVGID_12_">
			<use xlink:href="#SVGID_11_"  overflow="visible"/>
		</clipPath>
		<g clip-path="url(#SVGID_12_)">
			<path fill="#333333" d="M33.771,18.08H10.596c-0.414,0-0.749-0.334-0.749-0.744c0-0.42,0.335-0.75,0.749-0.75h23.175
				c0.411,0,0.744,0.33,0.744,0.75C34.516,17.746,34.183,18.08,33.771,18.08"/>
		</g>
	</g>
	<g>
		<defs>
			<polygon id="SVGID_13_" points="4.985,7.227 4.985,22.406 22.18,31.89 39.377,22.406 39.377,7.227 			"/>
		</defs>
		<clipPath id="SVGID_14_">
			<use xlink:href="#SVGID_13_"  overflow="visible"/>
		</clipPath>
		<g clip-path="url(#SVGID_14_)">
			<path fill="#333333" d="M33.771,22.951H10.596c-0.414,0-0.749-0.332-0.749-0.742c0-0.418,0.335-0.748,0.749-0.748h23.175
				c0.411,0,0.744,0.33,0.744,0.748C34.516,22.619,34.183,22.951,33.771,22.951"/>
		</g>
	</g>
	<g>
		<defs>
			<polygon id="SVGID_15_" points="4.985,7.227 4.985,22.406 22.18,31.89 39.377,22.406 39.377,7.227 			"/>
		</defs>
		<clipPath id="SVGID_16_">
			<use xlink:href="#SVGID_15_"  overflow="visible"/>
		</clipPath>
	</g>
</g>
<g>
	<g>
		<defs>
			<rect id="SVGID_17_" x="0" y="0" width="44.359" height="44.359"/>
		</defs>
		<clipPath id="SVGID_18_">
			<use xlink:href="#SVGID_17_"  overflow="visible"/>
		</clipPath>
		<g clip-path="url(#SVGID_18_)">
			<path fill="#333333" d="M22.18,32.461l-17.694-9.76V6.727h35.391v15.974L22.18,32.461z M5.486,22.111l16.694,9.208l16.696-9.208
				V7.727H5.486V22.111z"/>
		</g>
	</g>
</g>
</svg>
