<?xml version="1.0" encoding="iso-8859-1"?>
<!-- Generator: Adobe Illustrator 18.0.0, SVG Export Plug-In . SVG Version: 6.00 Build 0)  -->
<!DOCTYPE svg PUBLIC "-//W3C//DTD SVG 1.1//EN" "http://www.w3.org/Graphics/SVG/1.1/DTD/svg11.dtd">
<svg xmlns="http://www.w3.org/2000/svg" xmlns:xlink="http://www.w3.org/1999/xlink" version="1.1" id="Capa_1" x="0px" y="0px" viewBox="0 0 390 390" style="enable-background:new 0 0 390 390;" xml:space="preserve" width="512px" height="512px">
<g>
	<polygon points="152.704,235.807 163.071,235.807 157.856,221.967  " fill="#FFFFFF"/>
	<path d="M317.78,80.194h-33.14V42.63c0-3.055-1.396-5.941-3.79-7.838c-2.395-1.896-5.522-2.595-8.498-1.896l-38.593,9.069V10   c0-3.507-1.837-6.757-4.841-8.566c-3.004-1.81-6.737-1.913-9.837-0.273L67.53,81.364c-0.041,0.022-0.083,0.043-0.124,0.065   l-0.092,0.049c0.004-0.001,0.011-0.002,0.016-0.003c-3.048,1.713-5.111,4.973-5.111,8.719V380c0,5.523,4.477,10,10,10H317.78   c5.523,0,10-4.477,10-10V90.194C327.78,84.672,323.303,80.194,317.78,80.194z M213.76,26.606v20.058l-68.173,16.019L213.76,26.606z    M185.99,272.097c-0.01,0-0.017,0-0.024,0h-6.344c-1.728,0-3.277-1.072-3.887-2.689l-7.295-19.356h-21.037l-7.197,19.339   c-0.607,1.627-2.159,2.706-3.895,2.706h-6.336c-1.359,0-2.634-0.666-3.411-1.784c-0.775-1.118-0.956-2.546-0.481-3.82   l24.338-65.392c0.605-1.624,2.154-2.703,3.886-2.707l7.003-0.014c0.003,0,0.005,0,0.008,0c1.729,0,3.279,1.072,3.887,2.689   l24.496,65.004c0.283,0.563,0.444,1.196,0.444,1.868C190.146,270.236,188.284,272.097,185.99,272.097z M226.652,271.701h-26.32   c-2.295,0-4.154-1.86-4.154-4.155v-65.293c0-2.296,1.859-4.155,4.154-4.155h26.32c20.693,0,37.527,16.527,37.527,36.845   C264.179,255.212,247.345,271.701,226.652,271.701z M264.641,80.194H158.495l67.552-15.872l38.593-9.069V80.194z" fill="#FFFFFF"/>
	<path d="M226.652,212.343h-16.229v45.112h16.229c12.836,0,23.279-10.101,23.279-22.513   C249.932,222.481,239.488,212.343,226.652,212.343z" fill="#FFFFFF"/>
</g>
<g>
</g>
<g>
</g>
<g>
</g>
<g>
</g>
<g>
</g>
<g>
</g>
<g>
</g>
<g>
</g>
<g>
</g>
<g>
</g>
<g>
</g>
<g>
</g>
<g>
</g>
<g>
</g>
<g>
</g>
</svg>
