<?xml version="1.0" encoding="utf-8"?>
<!-- Generator: Adobe Illustrator 16.0.3, SVG Export Plug-In . SVG Version: 6.00 Build 0)  -->
<!DOCTYPE svg PUBLIC "-//W3C//DTD SVG 1.1//EN" "http://www.w3.org/Graphics/SVG/1.1/DTD/svg11.dtd">
<svg version="1.1" id="Layer_1" xmlns="http://www.w3.org/2000/svg" xmlns:xlink="http://www.w3.org/1999/xlink" x="0px" y="0px"
	 width="26px" height="33px" viewBox="0 0 26 33" enable-background="new 0 0 26 33" xml:space="preserve">
<title>Group</title>
<desc>Created with Sketch.</desc>
<g id="Page-1">
	<g id="Website-Review" transform="translate(-554.000000, -3708.000000)">
		<g id="Group-11" transform="translate(503.000000, 3375.000000)">
			<g id="Group-22" transform="translate(52.000000, 334.000000)">
				<g id="Group" transform="translate(0.333333, 0.000000)">
					<g id="Shape">
						<path fill="#35A1E2" d="M19.271,31.334H4.689c-2.119,0-3.843-1.704-3.843-3.799l-1.253-12.98
							c-0.004-2.187,1.719-3.889,3.838-3.889h17.098c2.119,0,3.843,1.697,3.843,3.782l-1.263,13.158
							C23.114,29.619,21.39,31.334,19.271,31.334z M3.431,12.667c-1.033,0-1.843,0.788-1.843,1.793l1.253,12.98
							c0.004,1.104,0.814,1.895,1.847,1.895h14.582c1.017,0,1.843-0.818,1.843-1.823l1.263-13.158
							c-0.005-0.904-0.814-1.687-1.848-1.687H3.431z"/>
					</g>
					<g id="Shape_1_">
						<path fill="#35A1E2" d="M14.355,26H9.607l-0.674-5.609c0-1.648,1.366-2.99,3.045-2.99c1.681,0,3.048,1.336,3.048,2.979
							l-0.007,0.12L14.355,26z M11.379,24h1.203l0.444-3.671c-0.027-0.524-0.478-0.929-1.047-0.929c-0.568,0-1.018,0.409-1.044,0.94
							L11.379,24z"/>
					</g>
					<g id="Shape_2_">
						<path fill="#35A1E2" d="M18.982,11.667h-2V5.715c0-2.452-2.337-4.603-5-4.603c-2.664,0-5,2.151-5,4.603v5.951h-2V5.715
							c0-3.579,3.206-6.603,7-6.603c3.794,0,7,3.024,7,6.603V11.667z"/>
					</g>
				</g>
			</g>
		</g>
	</g>
</g>
</svg>
