<?xml version="1.0" encoding="iso-8859-1"?>
<!-- Generator: Adobe Illustrator 18.1.1, SVG Export Plug-In . SVG Version: 6.00 Build 0)  -->
<svg xmlns="http://www.w3.org/2000/svg" xmlns:xlink="http://www.w3.org/1999/xlink" version="1.1" id="Capa_1" x="0px" y="0px" viewBox="0 0 61.525 61.525" style="enable-background:new 0 0 61.525 61.525;" xml:space="preserve" width="512px" height="512px">
<g>
	<g>
		<circle cx="28.718" cy="5.415" r="5.415" fill="#FFFFFF"/>
		<path d="M44.683,40.592c-1.964-1.867-6.904-2.65-11.592-2.955c-0.002-0.008-0.002-0.016-0.005-0.023    c-1.425-5.311-1.816-10.849-2.305-16.383l9.923,5.305c0.424,0.226,0.877,0.333,1.326,0.333c1.004,0,1.977-0.54,2.481-1.487    c0.732-1.372,0.218-3.078-1.153-3.81L29.17,13.987c-0.364-0.195-0.752-0.295-1.14-0.322c-0.355-0.21-0.75-0.369-1.176-0.474    c-0.428-0.2-0.906-0.306-1.408-0.265c-6.841,0.558-8.332,5.122-9.423,8.455c-0.411,1.258-0.799,2.446-1.414,3.499    c-0.784,1.344-0.33,3.067,1.013,3.85c0.446,0.262,0.934,0.384,1.416,0.384c0.968,0,1.911-0.5,2.434-1.397    c0.917-1.571,1.44-3.172,1.902-4.584c0.002-0.005,0.003-0.01,0.005-0.015c0.496,5.711,1.001,11.545,2.459,16.977    c0.694,2.584,2.826,3.58,4.887,3.396c0.306,0.108,0.626,0.188,0.968,0.194c4.566,0.121,9.458,0.777,10.722,1.432    c0.521,0.926,1.164,5.031,0.085,12.893c-0.232,1.693,0.952,3.258,2.646,3.488c0.145,0.021,0.285,0.027,0.426,0.027    c1.521,0,2.851-1.123,3.063-2.676C47.962,49.226,47.304,43.083,44.683,40.592z" fill="#FFFFFF"/>
		<polygon points="19.193,31.223 14.454,31.223 14.445,59.516 37.407,59.516 38.815,46.564 22.569,45.158       " fill="#FFFFFF"/>
	</g>
</g>
<g>
</g>
<g>
</g>
<g>
</g>
<g>
</g>
<g>
</g>
<g>
</g>
<g>
</g>
<g>
</g>
<g>
</g>
<g>
</g>
<g>
</g>
<g>
</g>
<g>
</g>
<g>
</g>
<g>
</g>
</svg>
