<?xml version="1.0" encoding="iso-8859-1"?>
<!-- Generator: Adobe Illustrator 19.0.0, SVG Export Plug-In . SVG Version: 6.00 Build 0)  -->
<svg version="1.1" id="Capa_1" xmlns="http://www.w3.org/2000/svg" xmlns:xlink="http://www.w3.org/1999/xlink" x="0px" y="0px"
	 viewBox="0 0 418.304 418.304" style="enable-background:new 0 0 418.304 418.304;" xml:space="preserve">
<g>
	<g>
		<path d="M396.288,342.272h-10.24c0-7.68-4.096-14.336-10.24-17.92v-47.104V96.512c0-40.96-33.28-74.24-74.24-74.24H121.856
			c-40.96,0-74.24,33.28-74.24,74.24v180.736v47.104c-6.144,3.584-10.24,10.752-10.24,17.92h-15.36C9.728,342.272,0,352,0,364.288
			v4.608c0,3.072,2.048,5.12,5.12,5.12c3.072,0,5.12-2.048,5.12-5.12v-4.608c0-6.656,5.12-11.776,11.776-11.776H38.4
			c6.656,0,11.776,5.12,11.776,11.776v1.536c-7.68,3.584-13.312,11.264-13.312,19.968v4.608c0,3.072,2.048,5.12,5.12,5.12
			c3.072,0,5.12-2.048,5.12-5.12v-4.096c0-6.656,5.12-11.776,11.776-11.776h16.896c6.656,0,11.776,5.12,11.776,11.776v4.608
			c0,3.072,2.048,5.12,5.12,5.12c3.072,0,5.12-2.048,5.12-5.12v-4.608c0-10.752-8.192-19.968-18.432-21.504
			c0-6.656,5.12-11.776,11.776-11.776h16.896c6.656,0,11.776,5.12,11.776,11.776v2.56c-6.656,4.096-10.752,10.752-10.752,18.944
			v4.608c0,3.072,2.048,5.12,5.12,5.12c3.072,0,5.12-2.048,5.12-5.12v-4.608c0-6.656,5.12-11.776,11.776-11.776h16.896
			c6.656,0,11.776,5.12,11.776,11.776v4.608c0,3.072,2.048,5.12,5.12,5.12c3.072,0,5.12-2.048,5.12-5.12v-4.608
			c0-10.752-8.192-19.968-18.432-21.504c0-6.656,5.12-11.776,11.776-11.776h16.896c6.656,0,11.776,5.12,11.776,11.776v2.56
			c-6.656,4.096-10.752,10.752-10.752,18.944v4.608c0,3.072,2.048,5.12,5.12,5.12c3.072,0,5.12-2.048,5.12-5.12v-4.608
			c0-6.656,5.12-11.776,11.776-11.776h16.896c6.656,0,11.776,5.12,11.776,11.776v4.608c0,3.072,2.048,5.12,5.12,5.12
			c3.072,0,5.12-2.048,5.12-5.12v-4.608c0-10.752-8.192-19.968-18.432-21.504c0-6.656,5.12-11.776,11.776-11.776h16.896
			c6.656,0,11.776,5.12,11.776,11.776v2.56c-6.656,4.096-10.752,10.752-10.752,18.944v4.608c0,3.072,2.048,5.12,5.12,5.12
			c3.072,0,5.12-2.048,5.12-5.12v-4.608c0-6.656,5.12-11.776,11.776-11.776h16.896c6.656,0,11.776,5.12,11.776,11.776v4.608
			c0,3.072,2.048,5.12,5.12,5.12c3.072,0,5.12-2.048,5.12-5.12v-4.608c0-10.752-8.192-19.968-18.432-21.504
			c0-6.656,5.12-11.776,11.776-11.776h16.896c6.656,0,11.776,5.12,11.776,11.776v2.56c-6.656,3.584-11.264,10.752-11.264,18.944
			v4.608c0,3.072,2.048,5.12,5.12,5.12c3.072,0,5.12-2.048,5.12-5.12v-4.608c0-6.656,5.12-11.776,11.776-11.776h16.896
			c6.656,0,11.776,5.12,11.776,11.776v4.608c0,3.072,2.048,5.12,5.12,5.12c3.072,0,5.12-2.048,5.12-5.12v-4.608
			c0-10.752-8.192-19.968-18.432-21.504c0-6.656,5.12-11.776,11.776-11.776h16.896c6.656,0,11.776,5.12,11.776,11.776v4.608
			c0,3.072,2.048,5.12,5.12,5.12c3.072,0,5.12-2.048,5.12-5.12V364.8C418.304,352.512,408.576,342.272,396.288,342.272z
			 M365.568,96.512v73.216C343.552,142.592,326.144,68.864,320,35.072C346.624,43.264,365.568,67.84,365.568,96.512z
			 M86.016,175.872c25.088-26.112,44.544-82.944,50.688-101.888c18.944,10.752,45.568,17.408,75.264,17.408
			c33.28,0,61.952-8.192,81.408-20.992c3.584,14.848,20.992,77.312,43.52,105.472h-0.512c-3.072,0-5.12,2.048-5.12,5.12
			c0,3.072,2.048,5.12,5.12,5.12h2.56c-4.096,6.144-9.728,14.848-15.872,27.648h-220.16c-7.168-12.288-13.824-21.504-18.432-27.648
			c3.072,0,5.12-2.048,5.12-5.12C89.088,178.432,87.552,176.896,86.016,175.872z M117.248,272.128H97.792
			c-13.312-49.664-26.624-74.752-34.816-86.016h7.168C76.288,192.256,99.84,219.392,117.248,272.128z M108.032,223.488H317.44
			c-5.632,13.312-11.776,29.184-16.896,48.64H128C121.856,252.672,114.688,236.8,108.032,223.488z M351.232,186.112h7.68
			c-8.192,11.776-21.504,36.864-34.816,86.528h-12.8C325.632,220.416,345.6,192.768,351.232,186.112z M365.568,194.304v77.824
			h-30.72C346.624,228.608,358.4,205.568,365.568,194.304z M357.376,175.872h-6.656c-26.624-20.992-48.128-110.08-48.64-111.104
			c0-0.512-0.512-1.024-0.512-1.536c4.608-4.608,8.704-9.216,11.264-14.336C318.976,80.64,334.848,146.688,357.376,175.872z
			 M294.4,32.512c-67.584,41.984-139.776,13.312-165.888,0H294.4z M216.576,64.256c28.16,0,59.392-7.168,89.6-27.648
			c-4.608,24.576-46.08,44.032-94.72,44.032c-47.616,0-88.576-18.944-94.72-43.008C129.536,44.8,168.96,64.256,216.576,64.256z
			 M127.488,67.84c-5.12,16.896-28.672,89.088-56.832,107.52h-6.144c23.04-29.184,38.912-97.792,45.056-128
			C113.152,55.04,119.296,62.208,127.488,67.84z M57.344,96.512c0-28.16,18.432-52.224,44.032-60.928
			c-6.144,33.28-22.528,104.448-44.032,132.608V96.512z M57.344,196.352c7.168,11.776,18.432,34.816,29.696,75.776H57.344V196.352z
			 M69.12,364.288h-8.704c0-8.704-5.632-16.384-13.312-19.968v-1.536c0-6.656,5.12-11.776,11.776-11.776h16.896
			c6.656,0,11.776,5.12,11.776,11.776C77.312,344.32,69.12,353.024,69.12,364.288z M141.312,364.288h-10.24
			c-0.512,0-0.512,0-1.024,0c0-7.68-4.608-14.848-10.752-18.432v-2.56c0-6.656,5.12-11.776,11.776-11.776h16.896
			c6.656,0,11.776,5.12,11.776,11.776C149.504,344.32,141.312,353.024,141.312,364.288z M212.992,364.288h-10.24
			c-0.512,0-0.512,0-1.024,0c0-7.68-4.608-14.848-10.752-18.432v-2.56c0-6.656,5.12-11.776,11.776-11.776h16.896
			c6.656,0,11.776,5.12,11.776,11.776C221.184,344.32,213.504,353.024,212.992,364.288z M285.184,364.288h-10.24
			c-0.512,0-0.512,0-1.024,0c0-7.68-4.608-14.848-10.752-18.432v-2.56c0-6.656,5.12-11.776,11.776-11.776h16.896
			c6.656,0,11.776,5.12,11.776,11.776C293.376,344.32,285.696,353.024,285.184,364.288z M325.12,342.784c-0.512,0-0.512,0-1.024,0
			h-10.24c0-11.776-10.24-21.504-22.016-21.504h-16.896c-12.288,0-22.016,9.728-22.016,21.504c-0.512,0-0.512,0-1.024,0h-10.24
			c0-11.776-10.24-21.504-22.016-21.504h-16.896c-12.288,0-22.016,9.728-22.016,21.504c-0.512,0-0.512,0-1.024,0h-10.24
			c0-11.776-10.24-21.504-22.016-21.504H130.56c-12.288,0-22.016,9.728-22.016,21.504c-0.512,0-0.512,0-1.024,0H97.28
			c0-11.776-10.24-21.504-22.016-21.504H58.88c-0.512,0-1.024,0-1.536,0v-38.4h308.224v38.4c-0.512,0-1.024,0-1.536,0h-16.896
			C335.36,320.768,325.632,330.496,325.12,342.784z M357.376,364.288h-10.24c-0.512,0-0.512,0-1.024,0
			c0-7.68-4.608-14.848-10.752-18.432v-2.56c0-6.656,5.12-11.776,11.776-11.776h16.896c6.656,0,11.776,5.12,11.776,11.776
			C365.568,344.32,357.376,353.024,357.376,364.288z"/>
	</g>
</g>
<g>
</g>
<g>
</g>
<g>
</g>
<g>
</g>
<g>
</g>
<g>
</g>
<g>
</g>
<g>
</g>
<g>
</g>
<g>
</g>
<g>
</g>
<g>
</g>
<g>
</g>
<g>
</g>
<g>
</g>
</svg>
