<?xml version="1.0" encoding="utf-8"?>
<!-- Generator: Adobe Illustrator 20.0.0, SVG Export Plug-In . SVG Version: 6.00 Build 0)  -->
<svg version="1.1" id="Layer_1" xmlns="http://www.w3.org/2000/svg" xmlns:xlink="http://www.w3.org/1999/xlink" x="0px" y="0px"
	 viewBox="0 0 64 64" style="enable-background:new 0 0 64 64;" xml:space="preserve">
<path d="M32,0.2C14.5,0.2,0.2,14.5,0.2,32S14.5,63.8,32,63.8S63.8,49.5,63.8,32S49.5,0.2,32,0.2z M46.2,24.7c0,0.3,0,0.6,0,1
	c0,9.7-7.4,20.8-20.8,20.8c-4.1,0-8-1.2-11.2-3.3c0.6,0.1,1.2,0.1,1.7,0.1c3.4,0,6.6-1.2,9.1-3.1c-3.2-0.1-5.9-2.2-6.8-5.1
	c0.4,0.1,0.9,0.1,1.4,0.1c0.7,0,1.3-0.1,1.9-0.3c-3.4-0.7-5.9-3.6-5.9-7.2c0,0,0-0.1,0-0.1c1,0.5,2.1,0.9,3.3,0.9
	c-2-1.3-3.3-3.6-3.3-6.1c0-1.3,0.4-2.6,1-3.7c3.6,4.4,9,7.3,15.1,7.7c-0.1-0.5-0.2-1.1-0.2-1.7c0-4,3.3-7.3,7.3-7.3
	c2.1,0,4,0.9,5.3,2.3c1.7-0.3,3.2-0.9,4.7-1.8c-0.5,1.7-1.7,3.1-3.2,4.1c1.5-0.2,2.9-0.6,4.2-1.2C48.9,22.4,47.6,23.7,46.2,24.7z"/>
</svg>
