<?xml version="1.0" encoding="UTF-8"?>
<svg width="39px" height="20px" viewBox="0 0 39 20" version="1.1" xmlns="http://www.w3.org/2000/svg" xmlns:xlink="http://www.w3.org/1999/xlink">
    <!-- Generator: Sketch 45.2 (43514) - http://www.bohemiancoding.com/sketch -->
    <title>infinity (1)</title>
    <desc>Created with Sketch.</desc>
    <defs></defs>
    <g id="Page-1" stroke="none" stroke-width="1" fill="none" fill-rule="evenodd">
        <g id="Website-Review" transform="translate(-549.000000, -3601.000000)" stroke-width="0.7" stroke="#35A1E2" fill="#35A1E2" fill-rule="nonzero">
            <g id="Group-11" transform="translate(503.000000, 3375.000000)">
                <g id="Group-19" transform="translate(47.000000, 227.000000)">
                    <g id="infinity-(1)">
                        <path d="M28.5405681,0.0295785354 C28.3143479,0.0128761639 28.0882029,0.00504230823 27.9175983,0.0068160114 C27.8489807,0.0011253804 20.6672043,-0.518347935 17.7917279,8.78864211 C15.2783542,16.9241751 9.455928,16.5631526 9.14801303,16.5403901 C9.0330992,16.5403901 8.91750896,16.5378774 8.80184356,16.5325562 C4.69643597,16.3534861 1.47990079,13.0448646 1.47990079,9.00000841 C1.47990079,4.84215256 4.91972505,1.45925719 9.14801303,1.45925719 C11.7690856,1.45925719 14.1820507,2.75539078 15.6028035,4.92669908 L16.8472399,4.13932268 C15.1533694,1.54986386 12.274962,0.00385983945 9.14808819,0.00385983945 C4.10397962,0.00400764804 0,4.03962578 0,9.00008231 C0,13.8255157 3.83732541,17.7730399 8.73548063,17.9865494 C8.87203945,17.9926096 9.00867343,17.9947528 9.08232651,17.9929052 C9.08954151,17.9936442 9.17627176,18 9.32801214,18 C10.6194212,18 16.6347734,17.5395023 19.2081969,9.21144861 C21.7215706,1.07525046 27.5455,1.4387118 27.8519118,1.4593311 C28.0463409,1.4593311 28.2400184,1.46679543 28.4307649,1.48061554 C32.4060771,1.77194628 35.520024,5.07458158 35.520024,9.00000841 C35.520024,13.1578643 32.0801998,16.5403901 27.8519118,16.5403901 C25.2308392,16.5403901 22.8186257,15.2442565 21.3978729,13.0729482 L20.1534365,13.8603246 C21.847307,16.4497834 24.7249628,17.9957875 27.8519118,17.9957875 C32.8960204,17.9957875 37,13.9601693 37,9.00008231 C37,4.31713642 33.2840519,0.376780931 28.5405681,0.0295785354 Z" id="Shape"></path>
                    </g>
                </g>
            </g>
        </g>
    </g>
</svg>