<?xml version="1.0" encoding="iso-8859-1"?>
<!-- Generator: Adobe Illustrator 19.0.0, SVG Export Plug-In . SVG Version: 6.00 Build 0)  -->
<svg xmlns="http://www.w3.org/2000/svg" xmlns:xlink="http://www.w3.org/1999/xlink" version="1.1" id="Layer_1" x="0px" y="0px" viewBox="0 0 512 512" style="enable-background:new 0 0 512 512;" xml:space="preserve" width="512px" height="512px">
<g>
	<g>
		<path d="M422,71v15c0,22.056-17.944,40-40,40c-22.056,0-40-17.944-40-40V71H0v370h342v-15c0-22.056,17.944-40,40-40    c22.056,0,40,17.944,40,40v15h90V71H422z M482,411h-31.618c-5.826-26.58-26.802-47.551-53.382-53.377V332h-30v25.623    c-26.58,5.826-47.556,26.798-53.382,53.377H30V101h283.618c5.826,26.58,26.802,47.551,53.382,53.377V180h30v-25.623    c26.58-5.826,47.556-26.798,53.382-53.377H482V411z" fill="#FFFFFF"/>
	</g>
</g>
<g>
	<g>
		<rect x="367" y="211" width="30" height="30" fill="#FFFFFF"/>
	</g>
</g>
<g>
	<g>
		<rect x="367" y="272" width="30" height="30" fill="#FFFFFF"/>
	</g>
</g>
<g>
	<g>
		<polygon points="144.266,206 121.028,276.986 97.506,206 73,206 111.309,306 130.746,306 168.633,206   " fill="#FFFFFF"/>
	</g>
</g>
<g>
	<g>
		<rect x="184.97" y="206" width="23.098" height="100" fill="#FFFFFF"/>
	</g>
</g>
<g>
	<g>
		<path d="M276.939,206h-42.675v100h23.098v-32.253h20.282c21.689,0,31.971-18.872,31.971-33.944    C309.615,224.125,296.374,206,276.939,206z M276.237,253.606h-18.874h-0.001v-27.324h18.029c9.921,0,10.845,11.175,10.845,13.521    C286.236,244.31,284.563,253.606,276.237,253.606z" fill="#FFFFFF"/>
	</g>
</g>
<g>
</g>
<g>
</g>
<g>
</g>
<g>
</g>
<g>
</g>
<g>
</g>
<g>
</g>
<g>
</g>
<g>
</g>
<g>
</g>
<g>
</g>
<g>
</g>
<g>
</g>
<g>
</g>
<g>
</g>
</svg>
