<?xml version="1.0" encoding="UTF-8"?>
<svg width="15px" height="10px" viewBox="0 0 15 10" version="1.1" xmlns="http://www.w3.org/2000/svg" xmlns:xlink="http://www.w3.org/1999/xlink">
    <!-- Generator: Sketch 45.2 (43514) - http://www.bohemiancoding.com/sketch -->
    <title>Shape</title>
    <desc>Created with Sketch.</desc>
    <defs></defs>
    <g id="Page-1" stroke="none" stroke-width="1" fill="none" fill-rule="evenodd">
        <g id="Website-Review" transform="translate(-838.000000, -3937.000000)" fill-rule="nonzero" fill="#44B8FF">
            <g id="Group-43" transform="translate(575.000000, 3929.000000)">
                <path d="M277.416323,12.5222088 L273.067032,8.19787865 C272.801671,7.93404045 272.371309,7.93404045 272.105947,8.19787865 C271.840532,8.46177089 271.840532,8.88955526 272.105947,9.1534475 L275.295119,12.3243167 L263.679577,12.3243167 C263.304287,12.3243167 263,12.6268576 263,12.9999932 C263,13.3730748 263.304287,13.6756698 263.679577,13.6756698 L275.295119,13.6756698 L272.106056,16.846539 C271.840641,17.1104312 271.840641,17.5382156 272.106056,17.8021078 C272.23871,17.9339459 272.412681,18 272.586598,18 C272.760516,18 272.934433,17.9339459 273.067141,17.8021078 L277.416323,13.4777777 C277.681738,13.2138854 277.681738,12.7861011 277.416323,12.5222088 Z" id="Shape"></path>
            </g>
        </g>
    </g>
</svg>