<?xml version="1.0" encoding="UTF-8"?>
<svg width="3100px" height="750px" viewBox="0 0 3100 750" version="1.1" xmlns="http://www.w3.org/2000/svg" xmlns:xlink="http://www.w3.org/1999/xlink">
    <!-- Generator: Sketch 45.2 (43514) - http://www.bohemiancoding.com/sketch -->
    <title>broid_beta_logo</title>
    <desc>Created with Sketch.</desc>
    <defs></defs>
    <g id="Illustrations" stroke="none" stroke-width="1" fill="none" fill-rule="evenodd">
        <g id="broid_beta_logo">
            <g id="Group-3" transform="translate(100.000000, 2.000000)">
                <g id="logo" transform="translate(0.000000, 148.000000)" fill="#1DA1F2">
                    <path d="M1603,474.285714 L1603,75.7142857 C1603,61.5714286 1614.61951,50 1628.17561,50 L1759.86341,50 C1901.87967,50 2000,147.071429 2000,275 C2000,401.642857 1901.87967,500 1759.86341,500 L1628.17561,500 C1614.61951,500 1603,488.428571 1603,474.285714 Z M1654,450 L1759.84141,450 C1874.07269,450 1947,373.971119 1947,275.767148 L1947,274.5 C1947,176.296029 1874.07269,99 1759.84141,99 L1654,99 L1654,450 Z" id="Combined-Shape"></path>
                    <path d="M1461,474.647887 C1461,488.591549 1472.62025,500 1486.17722,500 C1500.37975,500 1512,488.591549 1512,474.647887 L1512,75.3521127 C1512,61.4084507 1500.37975,50 1486.17722,50 C1472.62025,50 1461,61.4084507 1461,75.3521127 L1461,474.647887 Z" id="ID"></path>
                    <path d="M1089,54.9148774 L1089,17.0556721 C1089,7.61376589 1097.86576,0 1108.5,0 C1119.23813,0 1128,7.61068814 1128,17.0556721 L1128,50.179464 C1131.09376,50.0601971 1134.20312,50 1137.32691,50 C1265.05544,50 1368.65381,150.644055 1368.65381,274.862588 C1368.65381,320.559538 1354.6336,363.066098 1330.54954,398.545325 C1331.23872,409.322977 1334.17921,414.651242 1340.85263,419.545723 C1341.51746,420.033328 1343.33407,421.260642 1345.72061,422.842263 C1347.16772,423.799317 1347.16772,423.799317 1348.29795,424.542244 C1348.76587,424.849229 1348.76587,424.849229 1349.27814,425.18393 C1349.24817,425.164825 1349.41508,425.273756 1349.41508,425.273756 C1365.26067,436.020972 1371.5246,448.781889 1368.08481,466.461631 C1362.36319,495.869452 1333.91222,505.388857 1292.96956,497.170195 C1273.58465,493.278948 1253.54195,485.72925 1238.74881,477.016405 C1208.12241,491.562177 1173.70323,499.725177 1137.32691,499.725177 C1009.59837,499.725177 906,399.081121 906,274.862588 C906,183.996833 961.434561,105.74557 1041.19834,70.2752702 C1040.91671,68.9931918 1040.76834,67.6591201 1040.76834,66.2882 L1040.76834,49.4043731 C1040.76834,39.3900689 1049.00527,31.1608454 1058.96951,31.1608454 C1069.07421,31.1608454 1077.17067,39.2772033 1077.17067,49.4043731 L1077.17067,57.6789906 C1081.074,56.6598987 1085.01807,55.7375929 1088.99999,54.9148802 Z M1286.86667,384.333157 C1310.56061,353.877412 1324.60941,315.958169 1324.60941,274.862588 C1324.60941,174.482417 1240.78996,93.0532473 1137.32691,93.0532473 C1033.86385,93.0532473 950.044401,174.482417 950.044401,274.862588 C950.044401,375.24276 1033.86385,456.67193 1137.32691,456.67193 C1175.02351,456.67193 1210.11243,445.862226 1239.48965,427.26471 C1246.52021,432.830938 1246.52021,432.830938 1246.52021,432.830938 C1258.96873,440.391782 1286.38367,451.896401 1301.83031,454.997096 C1308.18408,456.272525 1313.92175,456.881751 1318.55796,456.846654 C1316.75216,455.631416 1315.3099,454.637237 1314.41814,453.983192 C1298.63972,442.410856 1289.33956,423.767012 1287.04135,400.215826 C1287.04135,400.215826 1287.04135,400.215826 1287.04135,385.582794 C1287.04135,385.093412 1286.98174,384.678298 1286.86667,384.333162 Z M1186.14459,208.926703 C1186.14459,242.343187 1157.94247,269.360909 1123.24303,269.360909 C1088.54359,269.360909 1060.34147,242.343187 1060.34147,208.926703 C1060.34147,175.510219 1088.54359,148.492497 1123.24303,148.492497 C1157.94247,148.492497 1186.14459,175.510219 1186.14459,208.926703 Z M1159.64251,326.069495 C1147.60488,326.069495 1137.84646,316.589352 1137.84646,304.895002 C1137.84646,293.200652 1147.60488,283.720509 1159.64251,283.720509 C1171.68014,283.720509 1181.43856,293.200652 1181.43856,304.895002 C1181.43856,316.589352 1171.68014,326.069495 1159.64251,326.069495 Z M1116.71946,320.026464 C1116.71946,341.844826 1098.28835,359.501892 1075.59019,359.501892 C1052.89203,359.501892 1034.46092,341.844826 1034.46092,320.026464 C1034.46092,298.208103 1052.89203,280.551037 1075.59019,280.551037 C1098.28835,280.551037 1116.71946,298.208103 1116.71946,320.026464 Z" id="Combined-Shape" fill-rule="nonzero"></path>
                    <path d="M457,474.468085 L457,75.5319149 C457,61.4893617 468.631769,50 482.202166,50 L651.509025,50 C707.083032,50 751.67148,66.5957447 780.104693,94.6808511 C802.075812,116.382979 815,147.659574 815,182.765957 L815,184.042553 C815,257.446809 764.595668,300.212766 694.158845,313.617021 L806.599278,456.595745 C811.768953,462.340426 815,468.085106 815,475.106383 C815,488.510638 802.075812,500 789.151625,500 C778.812274,500 771.057762,494.255319 765.241877,486.595745 L637.938628,323.191489 L508.050542,323.191489 L508.050542,474.468085 C508.050542,488.510638 496.418773,500 482.202166,500 C468.631769,500 457,488.510638 457,474.468085 Z M508,279 L646.797468,279 C714.582278,279 763,244.774648 763,187.732394 L763,186.464789 C763,131.957746 720.392405,99 647.443038,99 L508,99 L508,279 Z" id="Combined-Shape"></path>
                    <path d="M0,474.285714 L0,75.7142857 C0,61.5714286 11.6283186,50 25.1946903,50 L192.513274,50 C244.19469,50 284.893805,64.7857143 310.734513,89.8571429 C329.469027,109.142857 339.80531,132.928571 339.80531,161.857143 L339.80531,163.142857 C339.80531,221.642857 303.628319,251.857143 268.097345,267.285714 C321.716814,283.357143 365,314.214286 365,375.928571 L365,377.214286 C365,454.357143 299.752212,500 200.911504,500 L25.1946903,500 C11.6283186,500 0,488.428571 0,474.285714 Z M50,452 L201.855037,452 C270.351351,452 313,422.125506 313,372.546559 L313,371.275304 C313,322.967611 271.643735,295 192.808354,295 L50,295 L50,452 Z M50,251 L183.875,251 C245.315217,251 288,223.701245 288,171.643154 L288,170.373444 C288,126.568465 252.429348,98 187.755435,98 L50,98 L50,251 Z" id="Combined-Shape"></path>
                </g>
                <path d="M2100,98 L2147.98129,98 L2147.98129,229.469441 L2149.18082,229.469441 C2151.5799,226.348489 2154.64534,223.162565 2158.37723,219.911573 C2162.10913,216.660582 2166.64065,213.604696 2171.97193,210.743823 C2177.30321,207.882951 2183.43409,205.542272 2190.36476,203.721717 C2197.29542,201.901161 2205.29222,200.990897 2214.3554,200.990897 C2227.95017,200.990897 2240.47849,203.526633 2251.94074,208.598179 C2263.403,213.669726 2273.19908,220.626744 2281.32928,229.469441 C2289.45948,238.312138 2295.79029,248.715155 2300.32187,260.678804 C2304.85346,272.642453 2307.11922,285.516186 2307.11922,299.30039 C2307.11922,313.084594 2304.98674,325.958328 2300.72172,337.921977 C2296.45669,349.885625 2290.19253,360.288642 2281.92905,369.131339 C2273.66556,377.974036 2263.66956,384.931054 2251.94074,390.002601 C2240.21193,395.074148 2227.0172,397.609883 2212.35618,397.609883 C2198.76142,397.609883 2186.09981,395.009129 2174.371,389.807542 C2162.64218,384.605956 2153.31258,376.283542 2146.38191,364.840052 L2145.58222,364.840052 L2145.58222,392.928479 L2100,392.928479 L2100,98 Z M2259.13794,299.30039 C2259.13794,292.018169 2257.87178,284.996133 2255.33942,278.23407 C2252.80706,271.472008 2249.07522,265.490273 2244.14378,260.288687 C2239.21235,255.0871 2233.28139,250.925893 2226.35072,247.804941 C2219.42006,244.68399 2211.55654,243.123537 2202.75992,243.123537 C2193.96331,243.123537 2186.09979,244.68399 2179.16912,247.804941 C2172.23846,250.925893 2166.3075,255.0871 2161.37606,260.288687 C2156.44463,265.490273 2152.71279,271.472008 2150.18043,278.23407 C2147.64807,284.996133 2146.38191,292.018169 2146.38191,299.30039 C2146.38191,306.582611 2147.64807,313.604648 2150.18043,320.36671 C2152.71279,327.128772 2156.44463,333.110507 2161.37606,338.312094 C2166.3075,343.51368 2172.23846,347.674887 2179.16912,350.795839 C2186.09979,353.916791 2193.96331,355.477243 2202.75992,355.477243 C2211.55654,355.477243 2219.42006,353.916791 2226.35072,350.795839 C2233.28139,347.674887 2239.21235,343.51368 2244.14378,338.312094 C2249.07522,333.110507 2252.80706,327.128772 2255.33942,320.36671 C2257.87178,313.604648 2259.13794,306.582611 2259.13794,299.30039 Z M2390.0079,316.075423 C2391.60728,330.119706 2397.20504,341.042874 2406.80135,348.845254 C2416.39765,356.647633 2427.99301,360.548765 2441.58778,360.548765 C2453.58316,360.548765 2463.6458,358.143067 2471.77601,353.331599 C2479.90621,348.520132 2487.03669,342.473378 2493.16766,335.191157 L2527.55425,360.548765 C2516.35856,374.072889 2503.83024,383.69568 2489.96891,389.417425 C2476.10758,395.13917 2461.58006,398 2446.38591,398 C2431.99145,398 2418.39689,395.659321 2405.60182,390.977893 C2392.80674,386.296466 2381.7445,379.664542 2372.41476,371.081925 C2363.08502,362.499307 2355.68798,352.161309 2350.22341,340.06762 C2344.75885,327.973932 2342.02661,314.515029 2342.02661,299.690507 C2342.02661,284.865986 2344.75885,271.407083 2350.22341,259.313394 C2355.68798,247.219705 2363.08502,236.881707 2372.41476,228.29909 C2381.7445,219.716472 2392.80674,213.084549 2405.60182,208.403121 C2418.39689,203.721693 2431.99145,201.381014 2446.38591,201.381014 C2459.71411,201.381014 2471.90923,203.656674 2482.97164,208.208062 C2494.03405,212.759451 2503.49693,219.326355 2511.36057,227.908973 C2519.22421,236.49159 2525.35509,247.089664 2529.7534,259.703511 C2534.1517,272.317358 2536.35082,286.816563 2536.35082,303.20156 L2536.35082,316.075423 L2390.0079,316.075423 Z M2488.64843,280.574772 C2488.38186,266.790568 2483.98362,255.932419 2475.45357,248 C2466.92352,240.067581 2455.0616,236.10143 2439.86745,236.10143 C2425.47299,236.10143 2414.07755,240.132599 2405.68078,248.195059 C2397.28402,256.257518 2392.15274,267.050648 2390.28679,280.574772 L2488.64843,280.574772 Z M2559.05047,245.659298 L2559.05047,205.86736 L2598.63503,205.86736 L2598.63503,151.641092 L2646.61632,151.641092 L2646.61632,205.86736 L2699.39574,205.86736 L2699.39574,245.659298 L2646.61632,245.659298 L2646.61632,327.583875 C2646.61632,336.946731 2648.4156,344.35888 2652.01421,349.820546 C2655.61283,355.282212 2662.74331,358.013004 2673.40587,358.013004 C2677.6709,358.013004 2682.3357,357.557872 2687.40041,356.647594 C2692.46513,355.737317 2696.46353,354.241883 2699.39574,352.161248 L2699.39574,391.563069 C2694.33102,393.903783 2688.1335,395.529254 2680.80299,396.439532 C2673.47248,397.349809 2667.00839,397.804941 2661.41055,397.804941 C2648.61548,397.804941 2638.15299,396.439546 2630.02279,393.708713 C2621.89259,390.97788 2615.49515,386.816673 2610.83028,381.224967 C2606.16541,375.633262 2602.96668,368.676244 2601.23402,360.353706 C2599.50135,352.031168 2598.63503,342.408377 2598.63503,331.485046 L2598.63503,245.659298 L2559.05047,245.659298 Z M2856.81684,367.570871 L2855.61731,367.570871 C2848.68664,378.234124 2839.89016,385.971367 2829.2276,390.782835 C2818.56504,395.594302 2806.8364,398 2794.04132,398 C2785.24471,398 2776.64815,396.829661 2768.25138,394.488947 C2759.85461,392.148233 2752.39093,388.637215 2745.86011,383.955787 C2739.3293,379.274359 2734.06473,373.422662 2730.06627,366.40052 C2726.06781,359.378378 2724.06861,351.186003 2724.06861,341.823147 C2724.06861,331.680053 2725.93453,323.032546 2729.66643,315.880364 C2733.39833,308.728183 2738.39633,302.746448 2744.66058,297.93498 C2750.92484,293.123513 2758.1886,289.287401 2766.45208,286.426528 C2774.71557,283.565655 2783.31213,281.420033 2792.24203,279.989597 C2801.17192,278.559161 2810.16832,277.648897 2819.2315,277.258778 C2828.29468,276.868659 2836.8246,276.673602 2844.82152,276.673602 L2856.81684,276.673602 L2856.81684,271.602081 C2856.81684,259.898511 2852.68516,251.120966 2844.42168,245.269181 C2836.15819,239.417396 2825.62907,236.491547 2812.83399,236.491547 C2802.70456,236.491547 2793.24168,238.247057 2784.44507,241.758127 C2775.64845,245.269198 2768.05149,250.015575 2761.65395,255.997399 L2736.46378,231.420026 C2747.12634,220.756774 2759.58802,213.084549 2773.8492,208.403121 C2788.11037,203.721693 2802.83782,201.381014 2818.03197,201.381014 C2831.62673,201.381014 2843.08882,202.876448 2852.41856,205.86736 C2861.7483,208.858272 2869.47854,212.694385 2875.60951,217.375813 C2881.74049,222.057241 2886.47193,227.453806 2889.80398,233.56567 C2893.13603,239.677534 2895.53507,245.854325 2897.00117,252.096229 C2898.46727,258.338133 2899.33359,264.384886 2899.60016,270.236671 C2899.86672,276.088456 2900,281.224945 2900,285.646294 L2900,393.318596 L2856.81684,393.318596 L2856.81684,367.570871 Z M2854.1059,309.053316 L2844.1098,309.053316 C2837.4457,309.053316 2829.98202,309.313391 2821.71853,309.83355 C2813.45504,310.353709 2805.65816,311.589067 2798.32765,313.539662 C2790.99714,315.490257 2784.79962,318.351086 2779.7349,322.122237 C2774.67019,325.893387 2772.13787,331.159914 2772.13787,337.921977 C2772.13787,342.343325 2773.13747,346.0494 2775.1367,349.040312 C2777.13593,352.031224 2779.73489,354.56696 2782.93366,356.647594 C2786.13242,358.728229 2789.73098,360.223663 2793.72945,361.13394 C2797.72791,362.044218 2801.72631,362.49935 2805.72477,362.49935 C2822.25174,362.49935 2834.44686,358.663237 2842.3105,350.990897 C2850.17414,343.318557 2854.1059,332.850521 2854.1059,319.586476 L2854.1059,309.053316 Z" id="beta" fill="#657786"></path>
            </g>
        </g>
    </g>
</svg>