<?xml version="1.0" encoding="UTF-8" standalone="no"?>
<svg width="418px" height="481px" viewBox="0 0 418 481" version="1.1" xmlns="http://www.w3.org/2000/svg" xmlns:xlink="http://www.w3.org/1999/xlink">
    <!-- Generator: Sketch 43.1 (39012) - http://www.bohemiancoding.com/sketch -->
    <title>callr-color</title>
    <desc>Created with Sketch.</desc>
    <defs></defs>
    <g id="Page-1" stroke="none" stroke-width="1" fill="none" fill-rule="evenodd">
        <g id="Logos-Couleur" transform="translate(-22323.000000, -498.000000)">
            <g id="callr-color" transform="translate(22323.000000, 498.000000)">
                <rect id="500x500" x="0" y="0" width="500" height="480.392157"></rect>
                <path d="M250,0 C314.579385,0 373.433881,23.5188832 417.772163,62.1353722 C393.872394,95.0365196 376.395031,132.590865 367.129922,173.116683 C343.335439,134.828953 299.786797,109.198428 250,109.198428 C174.707833,109.198428 113.668667,167.818612 113.668667,240.170789 C113.668667,278.332074 130.659086,312.687346 157.756896,336.636144 L157.756896,393.688403 L209.149295,365.174918 C222.033586,369.056798 235.773321,371.155795 250,371.155795 C299.786797,371.155795 343.335439,345.525271 367.129922,307.250185 C376.395031,347.776002 393.859234,385.330348 417.785323,418.256785 C373.433881,456.873274 314.579385,480.392157 250,480.392157 C111.931459,480.392157 0,372.850167 0,240.196078 C0,107.554635 111.931459,0 250,0" id="Fill-1" fill="#659BD5"></path>
            </g>
        </g>
    </g>
</svg>