<?xml version="1.0" encoding="UTF-8"?>
<svg width="200px" height="172px" viewBox="0 0 200 172" version="1.1" xmlns="http://www.w3.org/2000/svg" xmlns:xlink="http://www.w3.org/1999/xlink">
    <!-- Generator: Sketch 45.2 (43514) - http://www.bohemiancoding.com/sketch -->
    <title>chat_section1_1</title>
    <desc>Created with Sketch.</desc>
    <defs>
        <rect id="path-1" x="0" y="0" width="200" height="200"></rect>
        <path d="M12.2699387,0 L97.5582848,0 L97.5582848,1.77635684e-15 C104.334785,6.55027504e-15 109.828223,5.49343865 109.828223,12.2699387 L109.828223,158.324198 L0,158.324198 L0,12.2699387 L0,12.2699387 C-8.29881903e-16,5.49343865 5.49343865,6.57389337e-15 12.2699387,5.32907052e-15 Z" id="path-3"></path>
        <rect id="path-5" x="9.4739314" y="25.2830503" width="89.8269051" height="134.359493"></rect>
    </defs>
    <g id="pages_for_valérie" stroke="none" stroke-width="1" fill="none" fill-rule="evenodd">
        <g id="700-card---regular" transform="translate(-300.000000, -64.000000)">
            <g id="Sales-point" transform="translate(250.000000, 37.000000)">
                <g id="Group-5">
                    <g id="chat_section1_1" transform="translate(50.000000, 0.000000)">
                        <mask id="mask-2" fill="white">
                            <use xlink:href="#path-1"></use>
                        </mask>
                        <g id="Rectangle"></g>
                        <g id="Group-24" mask="url(#mask-2)">
                            <g transform="translate(0.000000, 27.000000)">
                                <path d="M33.3817978,142.645261 C36.2809028,143.286361 39.2942989,143.624427 42.3868621,143.624427 C65.2604479,143.624427 83.8031528,125.130348 83.8031528,102.316746 C83.8031528,79.503143 65.2604479,61.009064 42.3868621,61.009064 C19.5132763,61.009064 0.970571319,79.503143 0.970571319,102.316746 C0.970571319,115.493098 7.15608494,127.228535 16.7889836,134.792109 L16.7889836,151.647821 L33.3817936,142.64526 Z" id="Combined-Shape" stroke="#35A1E2" stroke-width="1.22699387" stroke-dasharray="3.680981595092025,6.134969325153374"></path>
                                <g id="Group-11" stroke="none" stroke-width="1" fill-rule="evenodd" transform="translate(60.122699, 13.000000)">
                                    <g id="Group-2">
                                        <mask id="mask-4" fill="white">
                                            <use xlink:href="#path-3"></use>
                                        </mask>
                                        <use id="Mask" fill="#39434D" xlink:href="#path-3"></use>
                                        <g id="Rectangle-7" mask="url(#mask-4)">
                                            <use fill="#FFFFFF" fill-rule="evenodd" xlink:href="#path-5"></use>
                                            <rect stroke="#000000" stroke-width="1.22699387" x="8.86043447" y="24.6695534" width="91.053899" height="135.586487"></rect>
                                        </g>
                                    </g>
                                    <g id="Group-12" transform="translate(15.705506, 54.922550)">
                                        <g id="Group-16" transform="translate(0.000000, 0.000000)">
                                            <rect id="Rectangle-21" fill="#F3F3F3" x="10.7490525" y="0.195162564" width="57.6740914" height="21.116668" rx="2.45398773"></rect>
                                            <rect id="Rectangle-21" fill="#B2C5D0" x="14.799722" y="4.82330907" width="34.1532046" height="2.29977272" rx="1.14988636"></rect>
                                            <rect id="Rectangle-21" fill="#B2C5D0" x="14.799722" y="9.36512801" width="47.8144865" height="2.29977272" rx="1.14988636"></rect>
                                            <rect id="Rectangle-21" fill="#B2C5D0" x="14.799722" y="13.9069469" width="47.8144865" height="2.29977272" rx="1.14988636"></rect>
                                            <rect id="Rectangle-20" fill="#54C6AB" x="0" y="13.9230436" width="6.83064093" height="6.81272841" rx="3.4063642"></rect>
                                        </g>
                                        <g id="Group-16-Copy-2" transform="translate(0.000000, 41.157861)">
                                            <rect id="Rectangle-20" fill="#54C6AB" x="0" y="13.6415534" width="6.83064093" height="6.81272841" rx="3.4063642"></rect>
                                            <g id="Wow" transform="translate(12.522842, 0.000000)">
                                                <ellipse id="Wow-Oval" fill="#FFDA69" cx="11.2672475" cy="11.2377006" rx="11.2672475" ry="11.2377006"></ellipse>
                                                <ellipse id="mouth" fill="#252B37" cx="11.2672475" cy="15.5750587" rx="3.36040716" ry="4.33735811"></ellipse>
                                                <path d="M16.9980696,10.6117979 C16.0304603,10.7824135 15.0697905,9.92106144 14.8523533,8.68791416 C14.6349162,7.45476687 15.2430508,6.3167922 16.21066,6.14617659 C17.1782693,5.97556098 18.1389391,6.83691308 18.3563763,8.07006037 C18.5738134,9.30320765 17.9656788,10.4411823 16.9980696,10.6117979 Z M5.70646683,10.6883174 C4.73885761,10.5177018 4.13072297,9.37972708 4.34816011,8.1465798 C4.56559725,6.91343251 5.52626714,6.0520804 6.49387636,6.22269602 C7.46148559,6.39331163 8.06962022,7.5312863 7.85218308,8.76443359 C7.63474594,9.99758087 6.67407606,10.858933 5.70646683,10.6883174 Z M18.2950174,2.94040589 C18.4815621,3.13910705 18.4712839,3.451014 18.2720603,3.63706957 C18.0728367,3.82312514 17.7601097,3.81287386 17.5735649,3.61417271 C17.2557521,3.2756493 16.8214678,3.0704217 16.34763,3.04565404 C15.9165655,3.02312215 15.5021479,3.1522938 15.1647329,3.4059438 C14.9467815,3.56978766 14.636926,3.52638814 14.4726514,3.30900826 C14.3083767,3.09162838 14.3518904,2.78258547 14.5698418,2.61874161 C15.0911598,2.22684347 15.7340286,2.02646486 16.3993565,2.06124178 C17.1308787,2.0994787 17.8043062,2.41771699 18.2950174,2.94040589 Z M6.1667497,3.13244779 C5.69291194,3.15721545 5.25862761,3.36244305 4.94081483,3.70096646 C4.75427007,3.89966762 4.44154303,3.90991889 4.24231943,3.72386332 C4.04309583,3.53780776 4.0328176,3.2259008 4.21936236,3.02719964 C4.71007351,2.50451075 5.38350099,2.18627246 6.11502319,2.14803554 C6.78035115,2.11325861 7.42321993,2.31363723 7.94453796,2.70553536 C8.16248939,2.86937922 8.20600302,3.17842213 8.04172836,3.39580201 C7.87745371,3.6131819 7.56759824,3.65658141 7.34964681,3.49273755 C7.0122318,3.23908756 6.59781419,3.1099159 6.1667497,3.13244779 Z" id="eyes" fill="#252B37"></path>
                                            </g>
                                        </g>
                                        <g id="Group-16-Copy" transform="translate(7.969081, 27.532404)">
                                            <rect id="Rectangle-21" fill="#C1E0F4" x="0.267933669" y="0" width="60.0693945" height="9.0623694" rx="2.45398773"></rect>
                                            <rect id="Rectangle-20" fill="#35A1E2" x="62.6142085" y="2.27090947" width="6.83064093" height="6.81272841" rx="3.4063642"></rect>
                                        </g>
                                        <g id="Group-16-Copy-3" transform="translate(8.825291, 68.408774)">
                                            <rect id="Rectangle-21" fill="#C1E0F4" x="0.211077739" y="0" width="59.2700405" height="20.5568647" rx="2.45398773"></rect>
                                            <rect id="Rectangle-20" fill="#35A1E2" x="61.7579986" y="13.6254568" width="6.83064093" height="6.81272841" rx="3.4063642"></rect>
                                        </g>
                                    </g>
                                    <rect id="Rectangle-7" fill="#C1E0F4" x="9.4739314" y="25.2830503" width="89.8269051" height="17.3853917"></rect>
                                    <rect id="Rectangle-8" fill="#FFFFFF" x="39.2638037" y="9.79020979" width="31.5117569" height="5.5000962" rx="2.7500481"></rect>
                                </g>
                                <g id="Group-25" stroke="none" stroke-width="1" fill-rule="evenodd" transform="translate(7.361963, 66.846154)">
                                    <path d="M24.6808137,69.2823015 C28.1164998,70.384033 31.7799948,70.979021 35.5828221,70.979021 C55.2346721,70.979021 71.1656442,55.0898259 71.1656442,35.4895105 C71.1656442,15.8891951 55.2346721,0 35.5828221,0 C15.9309721,0 0,15.8891951 0,35.4895105 C0,46.809979 5.3142864,56.8924843 13.5903949,63.3907313 L13.5903949,77.872323 L24.6808137,69.2823015 Z" id="Combined-Shape" fill="#35A1E2"></path>
                                    <g id="Group-26" transform="translate(17.659605, 31.740777)" fill="#FFFFFF">
                                        <ellipse id="Oval-3" cx="4.33328295" cy="4.32191944" rx="4.33328295" ry="4.32191944"></ellipse>
                                        <ellipse id="Oval-3" cx="18.7775594" cy="4.32191944" rx="4.33328295" ry="4.32191944"></ellipse>
                                        <ellipse id="Oval-3" cx="33.2218359" cy="4.32191944" rx="4.33328295" ry="4.32191944"></ellipse>
                                    </g>
                                </g>
                                <g id="Love" stroke="none" stroke-width="1" fill-rule="evenodd" transform="translate(142.331288, 0.482517)">
                                    <ellipse id="Love-Oval" fill="#F55065" cx="28.6736576" cy="28.5984645" rx="28.6736576" ry="28.5984645"></ellipse>
                                    <path d="M11.8165517,25.1811448 C11.6553945,24.5067679 11.5700724,23.8030531 11.5700724,23.0794625 C11.5700724,18.091727 15.624062,14.0483685 20.6249116,14.0483685 C24.1290653,14.0483685 27.1683138,16.0336448 28.6736576,18.9380014 C30.1790014,16.0336448 33.2182499,14.0483685 36.7224036,14.0483685 C41.7232532,14.0483685 45.7772429,18.091727 45.7772429,23.0794625 C45.7772429,23.7295386 45.708377,24.3635723 45.5775245,24.9747024 C45.5670161,25.0928517 45.5498079,25.213678 45.5257195,25.3372361 C43.7650564,34.3683302 28.9251809,44.6537427 28.9251809,44.6537427 C28.9251809,44.6537427 12.3246423,33.8666027 11.8215957,25.3372361 C11.818497,25.2846962 11.8168218,25.2326674 11.8165517,25.1811448 Z" fill="#FFFFFF"></path>
                                </g>
                            </g>
                        </g>
                    </g>
                </g>
            </g>
        </g>
    </g>
</svg>