<?xml version="1.0" encoding="UTF-8" standalone="no"?>
<svg width="438px" height="500px" viewBox="0 0 438 500" version="1.1" xmlns="http://www.w3.org/2000/svg" xmlns:xlink="http://www.w3.org/1999/xlink">
    <!-- Generator: Sketch 43.1 (39012) - http://www.bohemiancoding.com/sketch -->
    <title>discord_color</title>
    <desc>Created with Sketch.</desc>
    <defs></defs>
    <g id="Page-1" stroke="none" stroke-width="1" fill="none" fill-rule="evenodd">
        <g id="Logos-Couleur" transform="translate(-14285.000000, -498.000000)">
            <g id="discord_color" transform="translate(14254.000000, 498.000000)">
                <rect id="500x500" x="0" y="0" width="500" height="500"></rect>
                <path d="M417.25,0 L82.2499999,0 C53.9999999,0 31,22.9999999 31,51.4999999 L31,389.5 C31,417.999999 53.9999999,440.999999 82.2499999,440.999999 L365.749999,440.999999 L352.5,394.75 L384.499999,424.5 L414.749999,452.5 L468.499999,500 L468.499999,51.4999999 C468.499999,22.9999999 445.499999,0 417.25,0 L417.25,0 Z M304.25,306.25 C336.999999,297 349.5,276.5 349.5,276.5 C339.25,283.249999 329.5,288 320.75,291.249999 C308.249999,296.499999 296.25,299.999999 284.499999,302 C260.5,306.5 238.5,305.249999 219.749999,301.749999 C205.5,298.999999 193.25,295 183,290.999999 C177.25,288.75 171,285.999999 164.75,282.499999 C164,282 163.25,281.75 162.5,281.25 C162,281 161.75,280.749999 161.5,280.499999 C157,277.999999 154.5,276.249999 154.5,276.249999 C154.5,276.249999 166.5,296.249999 198.25,305.75 C190.75,315.25 181.5,326.5 181.5,326.5 C126.25,324.75 105.25,288.499999 105.25,288.499999 C105.25,207.999999 141.25,142.75 141.25,142.75 C177.25,115.75 211.5,116.5 211.5,116.5 L214,119.5 C169,132.5 148.25,152.25 148.25,152.25 C148.25,152.25 153.75,149.25 163,145 C189.75,133.25 210.999999,130 219.749999,129.25 C221.25,129 222.499999,128.75 223.999999,128.75 C239.25,126.75 256.499999,126.25 274.5,128.25 C298.25,131 323.749999,138 349.75,152.25 C349.75,152.25 329.999999,133.5 287.5,120.5 L291,116.5 C291,116.5 325.25,115.75 361.25,142.75 C361.25,142.75 397.249999,207.999999 397.249999,288.499999 C397.249999,288.499999 376,324.75 320.75,326.5 C320.75,326.5 311.749999,315.749999 304.25,306.25 Z M179,237.5 C179,252.749999 190.5,265.25 204.5,265.25 C218.749999,265.25 230,252.749999 230,237.5 C230.249999,222.25 218.749999,209.749999 204.5,209.749999 C190.25,209.749999 179,222.25 179,237.5 Z M270.25,237.5 C270.25,252.749999 281.749999,265.25 295.749999,265.25 C309.999999,265.25 321.249999,252.749999 321.249999,237.5 C321.249999,222.25 309.999999,209.749999 295.749999,209.749999 C281.5,209.749999 270.25,222.25 270.25,237.5 Z" id="Discord-color" fill="#7289DA"></path>
                <path d="M417.25,0 L82.2499999,0 C53.9999999,0 31,22.9999999 31,51.4999999 L31,389.5 C31,417.999999 53.9999999,440.999999 82.2499999,440.999999 L365.749999,440.999999 L352.5,394.75 L384.499999,424.5 L414.749999,452.5 L468.499999,500 L468.499999,51.4999999 C468.499999,22.9999999 445.499999,0 417.25,0 L417.25,0 Z M304.25,306.25 C336.999999,297 349.5,276.5 349.5,276.5 C339.25,283.249999 329.5,288 320.75,291.249999 C308.249999,296.499999 296.25,299.999999 284.499999,302 C260.5,306.5 238.5,305.249999 219.749999,301.749999 C205.5,298.999999 193.25,295 183,290.999999 C177.25,288.75 171,285.999999 164.75,282.499999 C164,282 163.25,281.75 162.5,281.25 C162,281 161.75,280.749999 161.5,280.499999 C157,277.999999 154.5,276.249999 154.5,276.249999 C154.5,276.249999 166.5,296.249999 198.25,305.75 C190.75,315.25 181.5,326.5 181.5,326.5 C126.25,324.75 105.25,288.499999 105.25,288.499999 C105.25,207.999999 141.25,142.75 141.25,142.75 C177.25,115.75 211.5,116.5 211.5,116.5 L214,119.5 C169,132.5 148.25,152.25 148.25,152.25 C148.25,152.25 153.75,149.25 163,145 C189.75,133.25 210.999999,130 219.749999,129.25 C221.25,129 222.499999,128.75 223.999999,128.75 C239.25,126.75 256.499999,126.25 274.5,128.25 C298.25,131 323.749999,138 349.75,152.25 C349.75,152.25 329.999999,133.5 287.5,120.5 L291,116.5 C291,116.5 325.25,115.75 361.25,142.75 C361.25,142.75 397.249999,207.999999 397.249999,288.499999 C397.249999,288.499999 376,324.75 320.75,326.5 C320.75,326.5 311.749999,315.749999 304.25,306.25 Z M179,237.5 C179,252.749999 190.5,265.25 204.5,265.25 C218.749999,265.25 230,252.749999 230,237.5 C230.249999,222.25 218.749999,209.749999 204.5,209.749999 C190.25,209.749999 179,222.25 179,237.5 Z M270.25,237.5 C270.25,252.749999 281.749999,265.25 295.749999,265.25 C309.999999,265.25 321.249999,252.749999 321.249999,237.5 C321.249999,222.25 309.999999,209.749999 295.749999,209.749999 C281.5,209.749999 270.25,222.25 270.25,237.5 Z" id="Discord-color" fill="#7289DA"></path>
            </g>
        </g>
    </g>
</svg>