<?xml version="1.0" encoding="UTF-8"?>
<svg width="1440px" height="163px" viewBox="0 0 1440 163" version="1.1" xmlns="http://www.w3.org/2000/svg" xmlns:xlink="http://www.w3.org/1999/xlink">
    <!-- Generator: Sketch 45.2 (43514) - http://www.bohemiancoding.com/sketch -->
    <title>footer-bg-1440</title>
    <desc>Created with Sketch.</desc>
    <defs></defs>
    <g id="QA-pages_for_valérie-" stroke="none" stroke-width="1" fill="none" fill-rule="evenodd">
        <g id="Artboard-6" transform="translate(0.000000, -31.000000)">
            <g id="Group-13" transform="translate(0.000000, 31.000000)">
                <g id="blue-footer">
                    <g id="footer-bg-1440">
                        <path d="M0.277317684,162 L0.395061728,124.163623 C0.395061728,124.163623 259.433363,227.275343 696.318244,84.2128537 C703.181486,81.9654139 710.012624,79.7729823 716.810972,77.6343852 L723.189029,77.6343854 C729.987376,79.7729823 736.818514,81.9654139 743.681756,84.2128537 C1175.82799,225.723623 1434.35126,127.136299 1439.90854,124.981006 L1439.87599,162 L0.277317684,162 Z" id="Combined-Shape" fill="#35A1E2"></path>
                        <path d="M0.124231185,163 L0,22.1441958 C0,22.1441958 295.750507,-54.5940164 719.999954,77.634371 C712.149726,80.0811281 704.255454,82.5994198 696.318244,85.1910708 C259.433363,227.842353 0.395061728,125.027008 0.395061728,125.027008 L0.276551916,163 L0.124231185,163 Z" id="Combined-Shape" fill="#2F9CE1"></path>
                        <path d="M720.000046,77.634371 C1144.24949,-54.5940164 1440,22.1441958 1440,22.1441958 L1439.90854,125.842043 C1434.35126,127.99114 1175.82799,226.295093 743.681756,85.1910708 C735.744546,82.5994198 727.850274,80.0811281 720,77.6343854 Z" id="Combined-Shape" fill="#43A9E7"></path>
                    </g>
                </g>
            </g>
        </g>
    </g>
</svg>