<?xml version="1.0" encoding="UTF-8" standalone="no"?>
<svg width="500px" height="479px" viewBox="0 0 500 479" version="1.1" xmlns="http://www.w3.org/2000/svg" xmlns:xlink="http://www.w3.org/1999/xlink">
    <!-- Generator: Sketch 43.1 (39012) - http://www.bohemiancoding.com/sketch -->
    <title>google_assistant</title>
    <desc>Created with Sketch.</desc>
    <defs></defs>
    <g id="Page-1" stroke="none" stroke-width="1" fill="none" fill-rule="evenodd">
        <g id="Logos-Couleur" transform="translate(-500.000000, -511.000000)" fill-rule="nonzero">
            <g id="google_assistant" transform="translate(500.000000, 511.000000)">
                <ellipse id="Oval" fill="#2196F3" cx="152.605469" cy="153.032227" rx="152.605469" ry="152.605469"></ellipse>
                <path d="M500,167.919922 C500,185.052734 486.109375,198.9375 468.982422,198.9375 C451.855469,198.9375 437.964844,185.052734 437.964844,167.919922 C437.964844,150.788086 451.855469,136.902344 468.982422,136.902344 C486.109375,136.902344 500,150.788086 500,167.919922 Z" id="Shape" fill="#00C853"></path>
                <path d="M444.168945,243.602539 C444.168945,277.861328 416.397461,305.635742 382.134766,305.635742 C347.869141,305.635742 320.099609,277.861328 320.099609,243.602539 C320.099609,209.341797 347.870117,181.567383 382.134766,181.567383 C416.398438,181.567383 444.168945,209.342773 444.168945,243.602539 Z" id="Shape" fill="#F44336"></path>
                <path d="M456.575195,403.651367 C456.575195,444.764648 423.250977,478.089844 382.133789,478.089844 C341.016602,478.089844 307.691406,444.764648 307.691406,403.651367 C307.691406,362.540039 341.015625,329.210938 382.133789,329.210938 C423.250977,329.210938 456.575195,362.540039 456.575195,403.651367 Z" id="Shape" fill="#FFEB3B"></path>
            </g>
        </g>
    </g>
</svg>