<?xml version="1.0" encoding="utf-8"?>
<!-- Generator: Adobe Illustrator 16.0.3, SVG Export Plug-In . SVG Version: 6.00 Build 0)  -->
<!DOCTYPE svg PUBLIC "-//W3C//DTD SVG 1.1//EN" "http://www.w3.org/Graphics/SVG/1.1/DTD/svg11.dtd">
<svg version="1.1" id="Layer_1" xmlns="http://www.w3.org/2000/svg" xmlns:xlink="http://www.w3.org/1999/xlink" x="0px" y="0px"
	 width="49px" height="48px" viewBox="0 0 49 48" enable-background="new 0 0 49 48" xml:space="preserve">
<title>green_check</title>
<desc>Created with Sketch.</desc>
<g id="pages_for_valérie">
	<g id="Artboard-2" transform="translate(-837.000000, -204.000000)">
		<g id="Group-18" transform="translate(-18.000000, 62.000000)">
			<g id="Group-8" transform="translate(0.000000, 142.000000)">
				<g id="green_check" transform="translate(855.717530, 0.000000)">
					<g id="Oval-5">
						<g>
							<path fill="#5BC2A9" d="M23.782,46.195C11.545,46.195,1.588,36.237,1.588,24S11.545,1.805,23.782,1.805
								c12.238,0,22.195,9.957,22.195,22.194S36.021,46.195,23.782,46.195z M23.782,2.742C12.061,2.742,2.525,12.278,2.525,24
								c0,11.722,9.536,21.259,21.258,21.259c11.723,0,21.259-9.537,21.259-21.259C45.041,12.278,35.505,2.742,23.782,2.742z"/>
							<path fill="#5BC2A9" d="M23.782,46.695C11.269,46.695,1.088,36.514,1.088,24c0-12.514,10.181-22.694,22.694-22.694
								c12.515,0,22.695,10.181,22.695,22.694C46.478,36.514,36.297,46.695,23.782,46.695z M23.782,3.242
								C12.337,3.242,3.025,12.554,3.025,24c0,11.447,9.312,20.759,20.758,20.759c11.446,0,20.759-9.313,20.759-20.759
								C44.541,12.554,35.229,3.242,23.782,3.242z"/>
						</g>
					</g>
					<g id="Shape">
						<g>
							<path fill="#5BC2A9" d="M20.454,33.365c-0.501,0-1.003-0.19-1.386-0.572l-6.931-6.933c-0.766-0.767-0.766-2.006,0-2.772
								s2.007-0.766,2.772,0l5.544,5.543l12.477-12.474c0.766-0.766,2.006-0.766,2.771,0c0.766,0.766,0.766,2.007,0,2.772
								L21.841,32.793C21.458,33.175,20.956,33.365,20.454,33.365z"/>
							<path fill="#5BC2A9" d="M20.454,33.865c-0.658,0-1.275-0.255-1.739-0.719l-6.931-6.933c-0.958-0.96-0.958-2.521,0-3.479
								c0.93-0.93,2.55-0.93,3.479,0l5.191,5.19l12.123-12.121c0.93-0.93,2.549-0.93,3.479,0c0.465,0.465,0.721,1.083,0.721,1.74
								s-0.256,1.275-0.721,1.739L22.194,33.146C21.729,33.61,21.112,33.865,20.454,33.865z M13.524,23.014
								c-0.39,0-0.757,0.152-1.033,0.428c-0.569,0.569-0.569,1.496,0,2.065l6.931,6.933c0.55,0.549,1.514,0.549,2.065,0
								l13.861-13.863c0.275-0.276,0.428-0.642,0.428-1.032s-0.152-0.757-0.428-1.033c-0.553-0.552-1.512-0.552-2.064,0
								l-12.83,12.828l-5.898-5.897C14.281,23.166,13.914,23.014,13.524,23.014z"/>
						</g>
						<g>
							<path fill="#5BC2A9" d="M20.454,33.834c-0.65,0-1.26-0.253-1.718-0.71l-6.93-6.933c-0.459-0.459-0.711-1.068-0.711-1.718
								c0-0.648,0.252-1.257,0.711-1.716c0.917-0.917,2.517-0.917,3.435,0l5.213,5.212L32.6,15.826c0.918-0.917,2.518-0.917,3.434,0
								c0.459,0.459,0.712,1.068,0.712,1.718c0,0.648-0.253,1.258-0.712,1.717L22.172,33.124
								C21.713,33.581,21.103,33.834,20.454,33.834z M13.524,22.983c-0.398,0-0.773,0.155-1.055,0.437s-0.437,0.657-0.437,1.054
								c0,0.399,0.155,0.774,0.437,1.056l6.931,6.932c0.562,0.563,1.546,0.563,2.11,0l13.862-13.862
								c0.282-0.282,0.438-0.656,0.438-1.055s-0.155-0.773-0.438-1.055c-0.563-0.563-1.545-0.564-2.109,0L20.454,29.295
								l-5.875-5.875C14.297,23.138,13.922,22.983,13.524,22.983z"/>
							<path fill="#5BC2A9" d="M20.454,34.334c-0.783,0-1.519-0.304-2.071-0.856l-6.93-6.933c-0.553-0.553-0.858-1.289-0.858-2.071
								c0-0.782,0.305-1.517,0.858-2.07c1.061-1.061,3.081-1.061,4.142,0l4.86,4.859l11.792-11.79c1.061-1.059,3.082-1.062,4.141,0
								c0.554,0.553,0.858,1.289,0.858,2.071s-0.305,1.518-0.858,2.07L22.525,33.478C21.971,34.03,21.236,34.334,20.454,34.334z
								 M13.524,23.483c-0.266,0-0.515,0.103-0.702,0.29c-0.188,0.188-0.291,0.436-0.291,0.701c0,0.266,0.103,0.515,0.29,0.702
								l6.932,6.932c0.351,0.352,1.052,0.35,1.403,0l13.862-13.862c0.188-0.188,0.291-0.437,0.291-0.701
								c0-0.265-0.104-0.514-0.291-0.701c-0.353-0.353-1.051-0.351-1.402,0l-13.161,13.16l-6.229-6.229
								C14.038,23.586,13.789,23.483,13.524,23.483z"/>
						</g>
					</g>
				</g>
			</g>
		</g>
	</g>
</g>
</svg>
