<?xml version="1.0" encoding="UTF-8" standalone="no"?>
<svg width="435px" height="500px" viewBox="0 0 435 500" version="1.1" xmlns="http://www.w3.org/2000/svg" xmlns:xlink="http://www.w3.org/1999/xlink">
    <!-- Generator: Sketch 43.1 (39012) - http://www.bohemiancoding.com/sketch -->
    <title>groupme</title>
    <desc>Created with Sketch.</desc>
    <defs></defs>
    <g id="Page-1" stroke="none" stroke-width="1" fill="none" fill-rule="evenodd">
        <g id="Logos-Couleur" transform="translate(-26834.000000, -498.000000)" fill-rule="nonzero" fill="#00A0E9">
            <g id="groupme" transform="translate(26834.000000, 498.000000)">
                <path d="M340.142104,0.195674722 L95.4836519,0.195674722 C43.1738443,0.195674722 0.771239329,42.6130184 0.771239329,94.9327957 L0.771239329,339.659586 C0.771239329,391.9776 43.1716217,434.394944 95.4836519,434.394944 L176.913856,434.394944 L217.392808,499.27551 L257.88065,434.394944 L340.142104,434.394944 C392.446355,434.394944 434.856739,391.9776 434.856739,339.659586 L434.856739,94.9322081 C434.856739,42.6124308 392.448578,0.195674722 340.142104,0.195674722 Z M130.372786,170.068951 L165.478622,170.068951 L165.478622,136.905317 L130.372786,136.905317 L130.372786,101.14444 L165.478622,101.14444 L165.478622,66.0299353 L201.234566,66.0299353 L201.234566,101.14444 L234.384522,101.14444 L234.384522,66.0299353 L270.139355,66.0299353 L270.139355,101.14444 L305.240746,101.14444 L305.240746,136.905317 L270.139355,136.905317 L270.139355,170.068951 L305.240746,170.068951 L305.240746,205.827478 L270.139355,205.827478 L270.139355,240.943158 L234.383411,240.943158 L234.383411,205.827478 L201.233455,205.827478 L201.233455,240.943158 L165.477511,240.943158 L165.477511,205.827478 L130.371674,205.827478 L130.372786,170.068951 L130.372786,170.068951 Z M381.824589,279.51517 C381.824589,279.51517 334.625631,368.432584 222.561445,368.432584 C221.008965,368.432584 219.477599,368.413193 217.954013,368.385575 C216.431537,368.413193 214.89906,368.432584 213.348802,368.432584 C101.284616,368.432584 54.0867697,279.51517 54.0867697,279.51517 C54.0867697,279.51517 51.0318174,273.724843 51.0318174,267.482643 C50.8395632,262.978012 53.0432629,256.520158 58.8220014,252.716547 C62.0369803,250.602908 65.0741519,249.557546 67.8923982,249.230246 C81.3879752,247.798237 89.2081642,256.587733 95.638122,266.624143 C102.741525,277.698274 143.713892,326.218554 217.952901,328.075407 C292.196355,326.218554 333.172056,277.698274 340.271014,266.624143 C346.702084,256.587733 354.805653,247.783546 368.017849,249.230246 C370.834985,249.557546 373.87549,250.602908 377.086024,252.716547 C382.868096,256.520158 385.119582,261.87859 384.916214,267.477943 C384.463917,275.717435 381.824589,279.51517 381.824589,279.51517 Z" id="Shape"></path>
                <rect id="Rectangle-path" x="201.195219" y="137.450199" width="33.0529195" height="33.0665573"></rect>
            </g>
        </g>
    </g>
</svg>