<?xml version="1.0" encoding="UTF-8"?>
<svg width="199px" height="155px" viewBox="0 0 199 155" version="1.1" xmlns="http://www.w3.org/2000/svg" xmlns:xlink="http://www.w3.org/1999/xlink">
    <!-- Generator: Sketch 45.2 (43514) - http://www.bohemiancoding.com/sketch -->
    <title>home_hero_mobile</title>
    <desc>Created with Sketch.</desc>
    <defs>
        <ellipse id="path-1" cx="6.21539508" cy="6.4493645" rx="6.17903587" ry="6.4493645"></ellipse>
        <linearGradient x1="0%" y1="29.2864197%" x2="100%" y2="67.7630354%" id="linearGradient-3">
            <stop stop-color="#36987B" offset="0%"></stop>
            <stop stop-color="#D01E25" offset="100%"></stop>
        </linearGradient>
        <linearGradient x1="100%" y1="0%" x2="0%" y2="100%" id="linearGradient-4">
            <stop stop-color="#1E96C8" offset="0%"></stop>
            <stop stop-color="#37AEE2" offset="100%"></stop>
        </linearGradient>
        <linearGradient x1="61.2346759%" y1="43.69%" x2="74.7064382%" y2="80.24%" id="linearGradient-5">
            <stop stop-color="#EFF7FC" offset="0%"></stop>
            <stop stop-color="#FFFFFF" offset="100%"></stop>
        </linearGradient>
        <path d="M6.4160822,31.3403597 C1.60077328,28.7571419 -0.546917934,12.5726414 0.132597383,8.85433266 C0.8121127,5.13602397 3.49694064,2.98554151 5.70870555,2.402539 C7.92047046,1.8195365 25.6488325,-2.66449086 31.9199503,2.402539 C35.8834438,5.62828004 34.795569,22.0208208 31.9199503,27.0669127 C29.0443317,32.1130047 11.2313911,33.9235774 6.4160822,31.3403597 Z" id="path-6"></path>
        <path d="M0.0689838066,12.8031699 C0.147949776,12.0045399 0.29361088,11.2256644 0.50028166,10.4722648 C0.778017728,9.45980323 0.96136841,8.49335014 1.4456674,7.58679161 C2.05260918,6.4506582 3.01549549,5.40859546 3.89803463,4.48793588 C4.38214321,3.98291669 5.10819482,3.51442732 5.66257466,3.08697912 C6.60881749,2.35738946 7.4463262,1.74736644 8.56194136,1.27934323 C9.22612581,1.00070436 9.91637629,0.772396592 10.6279889,0.599153758 C11.6804969,0.342919583 12.7797361,0 13.910487,0 C15.2145392,0 16.4766805,0.387727287 17.6735662,0.725400098 C18.8108615,1.0462609 20.0938033,1.50895855 21.0932309,2.09333701 C21.7471818,2.47571065 22.3673316,2.91018092 22.9480696,3.39110122 C23.5366846,3.87854466 24.0848113,4.41370677 24.5866074,4.99070806 C25.304637,5.8163503 25.7232373,6.93480376 26.2344232,7.91455391 C26.7775959,8.95561094 27.3989016,9.86679789 27.6686725,11.041737 C27.8101177,11.6577766 27.7065942,12.2893781 27.7642739,12.9335628 C27.7642739,12.9335628 27.7642739,12.9335628 27.7642739,12.9335628 L27.7642739,12.9335628 C27.8377731,13.7544252 27.2319155,14.4794485 26.4110531,14.5529477 C26.321046,14.5610068 26.2304929,14.5608734 26.1405099,14.5525491 L25.5730721,14.5001004 L22.4443235,14.7072443 L19.4483273,14.5000998 L16.2267246,14.7072437 L10.2271152,14.5000987 L5.64679549,14.7072425 L1.77048886,14.7072421 L1.77048886,14.7072421 L1.77048886,14.7072421 C0.824954295,14.707242 0.0584471639,13.9407347 0.058447268,12.9952001 C0.0584472734,12.9452504 0.0606332359,12.8953247 0.0649988814,12.8455662 C0.0663334531,12.8308062 0.067648671,12.8166729 0.0689838066,12.8031699 Z" id="path-8"></path>
        <rect id="path-10" x="168.444355" y="70.1124668" width="10.0919842" height="10.2109132" rx="5.04599212"></rect>
    </defs>
    <g id="pages_for_valérie" stroke="none" stroke-width="1" fill="none" fill-rule="evenodd">
        <g id="700-card---extra" transform="translate(-61.000000, -48.000000)">
            <g id="home_hero_mobile" transform="translate(60.000000, 26.000000)">
                <ellipse id="Oval-21" stroke="#315890" stroke-width="0.525624179" stroke-dasharray="1.57687260554387,2.628121009239784" cx="105.045992" cy="101.268843" rx="72.9728091" ry="73.8327571"></ellipse>
                <ellipse id="Oval-21-Copy" stroke="#C1E0F4" stroke-width="0.525624179" stroke-dasharray="1.57687260554387,2.628121009239784" cx="105.045992" cy="101.530661" rx="51.4949965" ry="52.1018392"></ellipse>
                <g id="line-messenger" transform="translate(59.243910, 33.719725)">
                    <ellipse id="Oval-34-Copy-8" fill="#00B900" cx="5.61001165" cy="5.67612283" rx="5.61001165" ry="5.67612283"></ellipse>
                    <path d="M2.52492032,6.93368573 L3.61127263,6.93368573 C3.76579956,6.93368573 3.89218829,6.80576825 3.89218829,6.6494203 L3.89218829,6.62570858 C3.89218829,6.46936062 3.76579956,6.34148246 3.61127263,6.34148246 L2.82927153,6.34148246 L2.82927153,4.54131823 C2.82927153,4.38497027 2.7028828,4.25709212 2.54835587,4.25709212 L2.52492032,4.25709212 C2.37039339,4.25709212 2.24400466,4.38497027 2.24400466,4.54131823 L2.24400466,6.64938098 C2.24400466,6.80576825 2.37039339,6.93368573 2.52492032,6.93368573 L2.52492032,6.93368573 Z M9.25651922,5.61231745 L9.25651922,5.58860572 C9.25651922,5.43225777 9.13009162,5.30437961 8.97556469,5.30437961 L8.19360245,5.30437961 L8.19360245,4.85432872 L8.97556469,4.85432872 C9.13009162,4.85432872 9.25651922,4.72645057 9.25651922,4.57010261 L9.25651922,4.54639089 C9.25651922,4.39004293 9.13009162,4.26216478 8.97556469,4.26216478 L7.88921238,4.26216478 C7.73468545,4.26216478 7.60829672,4.39004293 7.60829672,4.54639089 L7.60829672,6.65445363 C7.60829672,6.81080159 7.73468545,6.93871907 7.88921238,6.93871907 L8.97556469,6.93871907 C9.13009162,6.93871907 9.25651922,6.81080159 9.25651922,6.65445363 L9.25651922,6.63074191 C9.25651922,6.47439396 9.13009162,6.3465158 8.97556469,6.3465158 L8.19360245,6.3465158 L8.19360245,5.89646491 L8.97556469,5.89646491 C9.13009162,5.89654356 9.25651922,5.76862608 9.25651922,5.61231745 L9.25651922,5.61231745 Z M7.16733531,6.84894483 L7.16741304,6.84882686 C7.21939637,6.79579727 7.24858795,6.72414875 7.24864073,6.64945962 L7.24864073,4.54139688 C7.24864073,4.38504892 7.122252,4.25717076 6.9676862,4.25717076 L6.94425065,4.25717076 C6.78972372,4.25717076 6.66333499,4.38504892 6.66333499,4.54139688 L6.66333499,5.77885004 L5.64795003,4.40089606 C5.59944661,4.3152114 5.50811404,4.25717076 5.40403378,4.25717076 L5.38059823,4.25717076 C5.2260713,4.25717076 5.0996437,4.38504892 5.0996437,4.54139688 L5.0996437,6.64945962 C5.0996437,6.80580758 5.22603243,6.93372506 5.38059823,6.93372506 L5.40403378,6.93372506 C5.55856071,6.93372506 5.68494944,6.80580758 5.68494944,6.64945962 L5.68494944,5.38884526 L6.70764101,6.80215054 C6.71393712,6.81205992 6.72081621,6.82157607 6.72823941,6.83062034 L6.72827828,6.83069899 C6.75637762,6.86947139 6.79481503,6.89605369 6.83764417,6.91229406 C6.87056276,6.92605708 6.90655168,6.93368573 6.94421179,6.93368573 L6.96764734,6.93368573 C7.01342809,6.9337116 7.05850842,6.92231208 7.09889418,6.90049718 C7.12699352,6.8869701 7.15066226,6.86951072 7.16733531,6.84894483 L7.16733531,6.84894483 Z M4.39984191,6.93368573 L4.42327746,6.93368573 C4.57780439,6.93368573 4.70419312,6.80576825 4.70419312,6.6494203 L4.70419312,4.54135755 C4.70419312,4.3850096 4.57780439,4.25713144 4.42327746,4.25713144 L4.39984191,4.25713144 C4.24531498,4.25713144 4.11888738,4.3850096 4.11888738,4.54135755 L4.11888738,6.6494203 C4.11888738,6.80576825 4.24531498,6.93368573 4.39984191,6.93368573 Z" id="Shape" fill="#FFFFFF"></path>
                </g>
                <g id="twillio" transform="translate(36.989791, 57.283371)">
                    <ellipse id="Oval-34-Copy-5" fill="#EE3248" cx="5.32701376" cy="5.38978995" rx="5.32701376" ry="5.38978995"></ellipse>
                    <g id="Group-4" transform="translate(2.421370, 2.449905)" fill="#FFFFFF">
                        <path d="M3.02671236,0 C1.35596714,0 0,1.37194653 0,3.06238065 C0,4.75281477 1.35596714,6.12476131 3.02671236,6.12476131 C4.69745759,6.12476131 6.05342473,4.75281477 6.05342473,3.06238065 C6.05342473,1.37194653 4.69745759,0 3.02671236,0 Z M3.02671236,5.31629282 C1.79484043,5.31629282 0.799052064,4.3057072 0.799052064,3.06238065 C0.799052064,1.81599173 1.79786714,0.808468493 3.02671236,0.808468493 C4.2585843,0.808468493 5.25437266,1.81905411 5.25437266,3.06238065 C5.25437266,4.30876958 4.2585843,5.31629282 3.02671236,5.31629282 Z" id="XMLID_181_"></path>
                        <ellipse id="XMLID_180_" cx="3.78036374" cy="2.29984787" rx="1" ry="1"></ellipse>
                        <ellipse id="XMLID_179_" cx="3.78036374" cy="3.82491344" rx="1" ry="1"></ellipse>
                        <ellipse id="XMLID_178_" cx="2.27306099" cy="3.82491344" rx="1" ry="1"></ellipse>
                        <ellipse id="XMLID_177_" cx="2.27306099" cy="2.29984787" rx="1" ry="1"></ellipse>
                    </g>
                </g>
                <g id="Skype" transform="translate(100.129384, 22.461538)">
                    <ellipse id="Oval-3" fill="#00AFF0" cx="5.07835135" cy="5.13819718" rx="5.07835135" ry="5.13819718"></ellipse>
                    <path d="M2.97867328,2.61186245 C3.48164676,2.24464287 4.19293487,2.21310253 4.72856574,2.52725426 C5.33248028,2.42136886 5.97103145,2.52199754 6.50987858,2.8191275 C7.11131907,3.14604555 7.58361438,3.70751353 7.80355704,4.36185027 C7.95472122,4.80466653 7.98985267,5.28603208 7.91117802,5.74737203 C8.10464839,6.09156216 8.17169502,6.50584193 8.09326778,6.8940884 C8.01038725,7.3223861 7.74937544,7.71063257 7.38841218,7.94918763 C6.88865497,8.28912232 6.20210731,8.30839697 5.68156811,8.00350709 C5.10189923,8.10438609 4.49056256,8.01702437 3.96606489,7.74617802 C3.35646005,7.43628174 2.87031009,6.88808072 2.6325543,6.24100326 C2.46036073,5.77866204 2.41706493,5.2700116 2.49895584,4.78338932 C2.3012796,4.4331915 2.23720181,4.00990021 2.32156677,3.61589637 C2.40518951,3.21338165 2.64591415,2.84766399 2.97867328,2.61186245 Z M3.2508183,2.93702826 C2.9143481,3.15831123 2.69960094,3.55657051 2.70331201,3.96309035 C2.69836392,4.22968126 2.79757314,4.48450712 2.93785153,4.70579009 C2.84705406,5.12782978 2.85373398,5.5739002 2.98807466,5.98567676 C3.19762632,6.65553335 3.72039216,7.21424781 4.36933432,7.46431759 C4.80897223,7.63929134 5.29833845,7.66182015 5.75801612,7.55993987 C5.8921094,7.6387907 6.02842931,7.71864281 6.18058311,7.75594051 C6.56208095,7.86132527 6.99009084,7.76069659 7.2864815,7.49635857 C7.5900469,7.2340231 7.75135467,6.81398597 7.69742048,6.41322349 C7.67540147,6.20045141 7.58163514,6.00520173 7.47277714,5.82472094 C7.56505904,5.39592261 7.55565766,4.94184194 7.41562668,4.52480866 C7.19494181,3.84068382 6.6461985,3.27671264 5.97400031,3.04166206 C5.55168072,2.88871648 5.08853938,2.87469856 4.65211774,2.9710718 C4.54029087,2.90623889 4.42895882,2.83740086 4.30525654,2.79759997 C3.95715832,2.67769664 3.55636293,2.7295129 3.2508183,2.93702826 Z M4.84435108,3.5826038 C5.23995097,3.52202634 5.65682766,3.58335476 6.00987397,3.77710252 C6.16425441,3.86371327 6.31368677,3.98086308 6.38543409,4.14907819 C6.43219355,4.25971967 6.43738905,4.40415437 6.35104486,4.49677281 C6.25752593,4.59364668 6.10487732,4.62343478 5.97944321,4.5826326 C5.83421673,4.52105386 5.7619746,4.36710699 5.63876713,4.27548984 C5.48389187,4.14632467 5.27532982,4.11153017 5.08012763,4.11503465 C4.93737519,4.12129266 4.78447918,4.15408459 4.68032186,4.26022031 C4.58408148,4.36410315 4.54845522,4.54208074 4.64222155,4.65898023 C4.73079239,4.76236243 4.86760711,4.80091173 4.99304122,4.83620686 C5.23228143,4.89678433 5.47424309,4.94559675 5.71447292,5.00292005 C5.96435153,5.06074399 6.21670418,5.17138548 6.38172302,5.37739892 C6.66623827,5.75037587 6.60216049,6.34188226 6.24837196,6.64727279 C5.96534115,6.90084705 5.57172049,6.97093668 5.20506693,6.97318956 C4.81367291,6.96743219 4.3953118,6.88632848 4.09446785,6.61548213 C3.94355107,6.47780608 3.81663253,6.27004039 3.86215497,6.05751863 C3.91188329,5.84624847 4.19862517,5.76614603 4.36116997,5.89606217 C4.48536706,5.99694117 4.5526611,6.15038739 4.67240491,6.25577215 C4.81565215,6.38869212 5.01530763,6.44150966 5.20630395,6.43675358 C5.39358921,6.44175998 5.59250247,6.38368572 5.72090544,6.23950134 C5.80823925,6.14212682 5.8545039,5.99393732 5.79784826,5.86927791 C5.7513362,5.75212811 5.6318398,5.68829648 5.51753889,5.65675615 C5.3067502,5.60093477 5.09447709,5.55011979 4.8836884,5.49379776 C4.65211774,5.43647446 4.4113931,5.38415756 4.21223243,5.24447894 C4.05686236,5.14009546 3.93909779,4.97713708 3.90124489,4.79139956 C3.83766192,4.50002697 3.88318436,4.16384707 4.09248862,3.9413125 C4.28397975,3.7257869 4.56800018,3.62565886 4.84435108,3.5826038 Z" id="Combined-Shape" fill="#FFFFFF"></path>
                </g>
                <g id="Group-39" transform="translate(150.589306, 41.836092)">
                    <g id="Group-40">
                        <mask id="mask-2" fill="white">
                            <use xlink:href="#path-1"></use>
                        </mask>
                        <use id="Mask" fill="#2DC100" xlink:href="#path-1"></use>
                        <g mask="url(#mask-2)">
                            <g transform="translate(1.940766, 1.671181)">
                                <polygon id="Rectangle-23" fill="#FFFFFF" fill-rule="evenodd" points="0.525535605 0.951695226 8.55816837 0.951695226 8.40154721 8.44902357 0.370738653 7.91494755"></polygon>
                                <path d="M8.80622662,7.81276911 C8.80622662,8.57425367 8.2148298,9.19149307 7.48529263,9.19149307 L1.32093399,9.19149307 C0.591367472,9.19149307 0,8.57425367 0,7.81276911 L0,1.37872396 C0,0.617270036 0.591396826,0 1.32093399,0 L7.48529263,0 C8.2148298,0 8.80622662,0.617270036 8.80622662,1.37872396 L8.80622662,7.81276911 Z M5.87081775,3.33397408 C5.83032294,2.892526 5.67709058,2.51927007 5.4272008,2.18671332 C4.73531386,1.26605938 3.45659087,0.879687269 2.31876037,1.2584658 C1.48512687,1.53600662 0.871608425,2.06842757 0.621777542,2.94634137 C0.351743431,3.89532867 0.712574267,4.81709313 1.56859035,5.43301344 C1.70191399,5.52905871 1.72208776,5.6111474 1.67853008,5.75863692 C1.61930458,5.95931151 1.5858485,6.16793984 1.5341624,6.40619214 C1.81585902,6.22673756 2.05352673,6.06577169 2.30144331,5.92320449 C2.37613047,5.88025424 2.48076905,5.86950918 2.56894466,5.87707275 C2.82425339,5.89898307 3.07811902,5.93770132 3.35684111,5.9728779 C3.2933747,5.20901786 3.52556457,4.59282743 4.03420882,4.08997041 C4.53764029,3.59224581 5.15772625,3.37194197 5.87081775,3.33397408 Z M2.40152457,3.07328198 C2.39607513,3.22603681 2.2725304,3.34623522 2.12515348,3.34226556 C1.97649291,3.33824434 1.86375017,3.21252963 1.86810972,3.05565047 C1.87242083,2.90085925 1.99381,2.7808155 2.1414049,2.7854296 C2.2855606,2.7899148 2.40692556,2.92421327 2.40152457,3.07328198 Z M4.26795063,2.78534988 C4.41557106,2.78249498 4.53528955,2.90487003 4.53652801,3.06001218 C4.53793647,3.21806066 4.42450745,3.34043572 4.27494433,3.34233899 C4.12576975,3.34424226 4.00551702,3.22315319 4.0028701,3.06837113 C4.00029603,2.91904167 4.12287999,2.78817907 4.26795063,2.78534988 Z M7.53645522,8.0773727 L7.53645522,8.0773727 C7.52148206,8.013477 7.51853413,7.94942438 7.49273243,7.89883506 C7.35295379,7.62483046 7.43135125,7.45379334 7.64920629,7.24594402 C8.40206708,6.52777643 8.47453949,5.39296871 7.8578381,4.53809696 C7.15115184,3.55841519 5.68118486,3.32304301 4.67885903,4.02909678 C3.55108559,4.82352495 3.41180313,6.30994733 4.38657602,7.27936687 C4.89910744,7.78899471 5.52068314,7.9969068 6.21449774,7.92058345 C6.44227651,7.89553985 6.67113522,7.76049898 6.88884433,7.78494631 C7.10739987,7.80948778 7.31267512,7.97023128 7.53645522,8.0773727 Z M4.80299391,5.57060171 C4.66054141,5.57041646 4.54157624,5.45043395 4.53669652,5.30210766 C4.53152284,5.14686524 4.65613203,5.01283435 4.80487524,5.01354449 C4.95511765,5.01419287 5.07578779,5.14637123 5.07005559,5.3039602 C5.06461735,5.45281137 4.94647526,5.57075609 4.80299391,5.57060171 Z M6.67325897,5.01354816 L6.67325897,5.01354816 C6.82441005,5.01463367 6.94374143,5.14598023 6.93804327,5.30505379 C6.932705,5.45621865 6.81664256,5.57109649 6.66975011,5.57060026 C6.51787926,5.57019707 6.39860786,5.43987399 6.40475587,5.2811726 C6.410544,5.13276804 6.53122494,5.01252468 6.67325897,5.01354816 Z" id="Wechat" fill="#2DC100" fill-rule="nonzero"></path>
                            </g>
                        </g>
                    </g>
                </g>
                <g id="discord_color" transform="translate(147.225311, 78.490652)">
                    <rect id="500x500" x="0" y="0" width="10.5230283" height="10.6470369"></rect>
                    <ellipse id="Oval" fill="#7289DA" cx="5.26151414" cy="5.32351845" rx="5.26151414" ry="5.32351845"></ellipse>
                    <path d="M6.21651501,6.91970031 C6.80663345,6.75106146 7.03186951,6.37732129 7.03186951,6.37732129 C6.84717596,6.50038206 6.67149183,6.58698041 6.5138266,6.64623189 C6.28859054,6.74194583 6.07236394,6.80575513 5.86064203,6.84221759 C5.42818883,6.92425812 5.03177338,6.90146907 4.69391929,6.83765978 C4.43715021,6.7875239 4.21641887,6.714599 4.03172531,6.64167407 C3.92811673,6.60065382 3.8154987,6.55051794 3.70288067,6.48670865 C3.68936651,6.47759305 3.67585235,6.47303523 3.66233818,6.46391963 C3.65332874,6.45936181 3.64882402,6.454804 3.6443193,6.45024618 C3.56323432,6.40466812 3.51818711,6.37276347 3.51818711,6.37276347 C3.51818711,6.37276347 3.73441372,6.73738802 4.30651329,6.91058471 C4.17137166,7.08378136 4.00469698,7.28888267 4.00469698,7.28888267 C3.00915364,7.25697802 2.63075707,6.59609601 2.63075707,6.59609601 C2.63075707,5.12848219 3.2794369,3.93889459 3.2794369,3.93889459 C3.92811673,3.44665145 4.54526351,3.46032487 4.54526351,3.46032487 L4.59031072,3.51501855 C3.77946093,3.75202451 3.40556909,4.11209125 3.40556909,4.11209125 C3.40556909,4.11209125 3.50467295,4.05739757 3.67134763,3.97991486 C4.15335278,3.76569793 4.53625405,3.70644644 4.69391929,3.69277302 C4.72094764,3.68821521 4.74347123,3.68365741 4.77049954,3.68365741 C5.04528754,3.64719495 5.35611328,3.63807934 5.68045321,3.67454179 C6.10840171,3.72467767 6.56788323,3.85229626 7.03637424,4.11209125 C7.03637424,4.11209125 6.68050126,3.77025574 5.9146987,3.53324978 L5.97776479,3.46032487 C5.97776479,3.46032487 6.59491158,3.44665145 7.24359141,3.93889459 C7.24359141,3.93889459 7.89227121,5.12848219 7.89227121,6.59609601 C7.89227121,6.59609601 7.50936995,7.25697802 6.5138266,7.28888267 C6.5138266,7.28888267 6.35165663,7.09289696 6.21651501,6.91970031 Z M3.95964977,5.66630342 C3.95964977,5.94432963 4.16686694,6.17221998 4.41913133,6.17221998 C4.6759004,6.17221998 4.87861287,5.94432963 4.87861287,5.66630342 C4.88311757,5.38827719 4.6759004,5.16038683 4.41913133,5.16038683 C4.16236222,5.16038683 3.95964977,5.38827719 3.95964977,5.66630342 Z M5.60387296,5.66630342 C5.60387296,5.94432963 5.8110901,6.17221998 6.06335448,6.17221998 C6.32012358,6.17221998 6.52283602,5.94432963 6.52283602,5.66630342 C6.52283602,5.38827719 6.32012358,5.16038683 6.06335448,5.16038683 C5.8065854,5.16038683 5.60387296,5.38827719 5.60387296,5.66630342 Z" id="Discord-color" fill="#FFFFFF"></path>
                </g>
                <g id="twitter_color" transform="translate(42.423936, 144.207042)">
                    <ellipse id="Oval-3" fill="#1DA1F2" cx="11.8176353" cy="11.9569002" rx="11.8176353" ry="11.9569002"></ellipse>
                    <path d="M16.5238692,9.91181916 C16.5238692,9.8056403 16.5217318,9.69994052 16.5170245,9.59471862 C16.9904433,9.24844365 17.4019376,8.81631695 17.726453,8.32440495 C17.2920324,8.51978267 16.8245225,8.65131015 16.3340856,8.71061717 C16.8346857,8.40690835 17.2189987,7.92647578 17.4002831,7.35373436 C16.9318274,7.63472426 16.4130282,7.83895049 15.8606665,7.94919389 C15.4182099,7.47234799 14.7883237,7.17414015 14.0908403,7.17414015 C12.751889,7.17414015 11.6660738,8.27275115 11.6660738,9.62700264 C11.6660738,9.8195103 11.6873455,10.0067577 11.7289444,10.1863515 C9.71378179,10.0837606 7.92693705,9.10758979 6.73121745,7.62324564 C6.52298838,7.9857824 6.40292043,8.40690835 6.40292043,8.85625298 C6.40292043,9.7073538 6.83095906,10.4587329 7.48188063,10.8982729 C7.08409554,10.8858377 6.71041802,10.7753543 6.38377507,10.5914557 C6.38341817,10.6017482 6.38341817,10.6117828 6.38341817,10.6227831 C6.38341817,11.8108321 7.21916989,12.8027864 8.32862038,13.0275781 C8.1248824,13.0837763 7.91050816,13.1139077 7.68928009,13.1139077 C7.53328575,13.1139077 7.3813094,13.0983734 7.2335878,13.0696672 C7.54226715,14.0444031 8.43734339,14.7536931 9.49857794,14.7735424 C8.66873503,15.431656 7.6233369,15.8236076 6.48717857,15.8236076 C6.29171254,15.8236076 6.09861083,15.8123585 5.90881766,15.7896492 C6.98186984,16.4855483 8.25605971,16.8916081 9.62550011,16.8916081 C14.0851583,16.8916081 16.5238692,13.1533663 16.5238692,9.91181916 Z" id="Twitter-color" fill="#FFFFFF"></path>
                    <rect id="500x500" x="0" y="0" width="23.6352707" height="23.9138005"></rect>
                </g>
                <g id="slack_color" transform="translate(128.335186, 154.941592)">
                    <g id="Group-5" stroke-width="0.5" fill="#FFFFFF">
                        <ellipse id="Oval-3" stroke="#D4D4D4" transform="translate(11.314702, 11.436619) rotate(10.000000) translate(-11.314702, -11.436619) " cx="11.3147017" cy="11.4366187" rx="5.97700833" ry="6.03618284"></ellipse>
                        <ellipse id="Oval-3-Copy" stroke="url(#linearGradient-3)" transform="translate(11.314702, 11.436619) rotate(10.000000) translate(-11.314702, -11.436619) " cx="11.3147017" cy="11.4366187" rx="9.66025337" ry="9.75589333"></ellipse>
                    </g>
                    <g id="Group" transform="translate(7.129407, 7.207943)">
                        <path d="M5.41868788,0.532630103 C5.29167402,0.137847596 4.87186295,-0.0781861678 4.48097152,0.0501334261 C4.09011431,0.178384018 3.87619156,0.60235858 4.00317804,0.997071048 L5.9274627,6.97601869 C6.05955886,7.34478376 6.45400513,7.55203921 6.83269025,7.44198184 C7.22765075,7.32713737 7.46841712,6.90352287 7.34238294,6.51173599 C7.33758987,6.49687718 5.41868788,0.532630103 5.41868788,0.532630103" id="path22-7" fill="#E7A213"></path>
                        <path d="M2.43709162,1.51097304 C2.31007776,1.11626005 1.8902669,0.900226287 1.49937547,1.02847688 C1.10851832,1.15672747 0.894595519,1.580715 1.021582,1.97547676 L2.94586624,7.9544161 C3.07796261,8.32320608 3.47240902,8.53043351 3.85106691,8.42032114 C4.24602706,8.30556072 4.48683484,7.88191716 4.36077995,7.49013443 C4.35599202,7.47524139 2.43709162,1.51097304 2.43709162,1.51097304" id="path24-8" fill="#4DC088"></path>
                        <path d="M7.84069812,5.48438234 C8.23160995,5.35611099 8.44545754,4.9321437 8.31846423,4.53738246 C8.19147091,4.14265547 7.77165322,3.92661496 7.38080972,4.0548588 L1.46047606,5.99819405 C1.09529838,6.13159854 0.890102154,6.52994996 0.999080757,6.9123567 C1.11277198,7.31122019 1.53223345,7.55439151 1.9202069,7.42708827 C1.93492005,7.42225293 7.84069812,5.48438234 7.84069812,5.48438234" id="path26-3" fill="#E10D63"></path>
                        <path d="M2.69437977,7.1730914 C3.07975721,7.04662552 3.57644213,6.8836627 4.10937568,6.70878119 C3.9841838,6.31961639 3.82276395,5.8179309 3.64956264,5.27963795 L2.23449136,5.74410743 L2.69437977,7.1730914" id="path28-4" fill="#3F2543"></path>
                        <path d="M5.67600346,6.19469295 C6.21097835,6.01916137 6.70817001,5.85600503 7.09099937,5.73038275 C6.96578664,5.34116243 6.80433252,4.83937317 6.63108322,4.30096972 L5.21600512,4.76544594 L5.67600346,6.19469295" id="path30-9" fill="#D01E25"></path>
                        <path d="M6.87194618,2.47326753 C7.26278968,2.34499618 7.4767056,1.92102888 7.34971228,1.52626038 C7.22271897,1.13147839 6.8028874,0.915513633 6.41199613,1.04376422 L0.491669873,2.98707924 C0.126522328,3.1204832 -0.0787006635,3.51886264 0.0303055259,3.90124137 C0.143994522,4.30010486 0.563458093,4.54330367 0.951400059,4.41600095 C0.966147415,4.41116562 6.87194618,2.47326753 6.87194618,2.47326753" id="path32-2" fill="#7CD3DC"></path>
                        <path d="M1.72533998,4.16205233 C2.11071059,4.0355657 2.60753252,3.87257539 3.14060303,3.69763836 C2.96676465,3.15733968 2.80520779,2.65519763 2.68078999,2.26849512 L1.26544475,2.73307511 L1.72533998,4.16205233" id="path34-0" fill="#36987B"></path>
                        <path d="M4.70693603,3.18366063 C5.24201357,3.00810155 5.73930798,2.8449172 6.12219914,2.71926793 C5.94833337,2.17883747 5.78672205,1.67656416 5.6623039,1.28982014 L4.24693122,1.75443437 L4.70693603,3.18366063" id="path36-4" fill="#5A872D"></path>
                    </g>
                </g>
                <g id="email_color" transform="translate(53.550996, 117.239759)">
                    <path d="M0,3.77470867 C0,1.68999464 1.66985783,0 3.73074373,0 C5.79117659,0 7.46148745,1.68953627 7.46148745,3.77470867 C7.46148745,5.8594227 5.79162962,7.54941735 3.73074373,7.54941735 C1.67031086,7.54941735 0,5.85988108 0,3.77470867 L0,3.77470867 Z" id="Shape" fill="#F65756"></path>
                    <path d="M5.57854584,2.67212904 L3.70260264,3.90693834 L1.87639213,2.69358374 C1.91323265,2.55521736 2.03819471,2.45356064 2.18668194,2.45356064 L5.27480551,2.45356064 C5.41539336,2.45356064 5.53500272,2.54491927 5.57854584,2.67212904 Z M5.59611559,2.86135012 L5.59611559,4.69268211 C5.59611559,4.87220462 5.45226017,5.01739328 5.27480551,5.01739328 L2.18668194,5.01739328 C2.00933547,5.01739328 1.86537186,4.87201514 1.86537186,4.69268211 L1.86537186,2.89835569 L3.70260271,4.14095636 L5.59611559,2.86135012 Z" id="Email-color" fill="#FFFFFF"></path>
                    <rect id="500x500" x="0" y="0" width="7.46148745" height="7.54941735"></rect>
                </g>
                <g id="telegram_color" transform="translate(144.637623, 131.377946)">
                    <ellipse id="Oval" fill="url(#linearGradient-4)" cx="6.62548145" cy="6.69107608" rx="6.62548145" ry="6.69107608"></ellipse>
                    <g id="Group-2" transform="translate(3.312741, 4.014646)">
                        <path d="M2.50376863,5.25931652 C2.30720864,5.25931652 2.34060907,5.1843636 2.27281721,4.99535499 L1.69479654,3.07419305 L6.14414305,0.408490603" id="Shape" fill="#C8DAEA"></path>
                        <path d="M2.50376863,5.25931652 C2.6554509,5.25931652 2.72246918,5.18926038 2.80713317,5.10613254 L3.61610526,4.31172044 L2.60701369,3.69719739" id="Shape" fill="#A9C9DD"></path>
                        <path d="M2.60691257,3.69735057 L5.05203073,5.52172067 C5.33105026,5.6771973 5.53242869,5.59669912 5.60192951,5.26010797 L6.59721799,0.523506239 C6.69911813,0.110920517 6.4414858,-0.0762090281 6.1745604,0.0461747566 L0.330242633,2.32202909 C-0.0686867868,2.48362287 -0.0663609921,2.70838972 0.257526154,2.8085414 L1.75730986,3.28128247 L5.22946864,1.06905055 C5.39338156,0.968669086 5.54382003,1.02263631 5.42034561,1.13330612" id="Shape" fill="url(#linearGradient-5)"></path>
                    </g>
                    <rect id="500x500" x="0" y="0" width="13.2509629" height="13.3821522"></rect>
                </g>
                <g id="viber-icon" transform="translate(105.045992, 149.705226)">
                    <ellipse id="Oval-2" fill="#7B519D" cx="5.10511695" cy="5.1652782" rx="5.10511695" ry="5.1652782"></ellipse>
                    <path d="M7.17258493,6.32044958 C7.01690444,6.19364204 6.8505415,6.07982517 6.68678216,5.9635548 C6.36018242,5.73146602 6.0614566,5.71342629 5.81775117,6.08682412 C5.68089579,6.29645687 5.48931358,6.30563815 5.28898886,6.2136704 C4.73674302,5.96031359 4.31029999,5.56994783 4.0605067,5.00202568 C3.95000648,4.75076081 3.95146144,4.52549019 4.20999724,4.34777886 C4.34687814,4.25379665 4.48478006,4.14258825 4.47375301,3.93722977 C4.45935659,3.66946184 3.8167885,2.77461644 3.56303875,2.68016936 C3.45803929,2.64108113 3.35347377,2.64362503 3.24664924,2.67994984 C2.65164806,2.88240285 2.40519862,3.37750751 2.64122086,3.96374056 C3.34534388,5.71272898 4.58448296,6.93031376 6.29022958,7.67346791 C6.38748202,7.71578444 6.49551902,7.73270072 6.55022033,7.74788663 C6.93856645,7.75183807 7.39349602,7.37327496 7.52487616,6.99757858 C7.65136816,6.63613836 7.3840388,6.49267281 7.17258493,6.32044958 Z M5.26001733,2.85948193 L5.26001733,2.85948193 C5.15670256,2.84340501 4.99926081,2.8661064 5.00703335,2.72793526 C5.01869854,2.52299 5.20569891,2.59920366 5.29607221,2.58604511 C6.49392367,2.6269541 7.52534839,3.73648131 7.51072223,4.93332751 C7.50926727,5.05082463 7.55095054,5.22484279 7.37796371,5.22149828 C7.21244311,5.21824415 7.25565791,5.04161753 7.24092966,4.92423662 C7.08213505,3.65344949 6.50703106,3.05350263 5.26001733,2.85948193 Z M5.50393974,3.20791857 L5.50393974,3.20791857 C6.27345928,3.30141007 6.90196277,3.97687327 6.89574729,4.71899436 C6.88401829,4.80681697 6.93468656,4.95716526 6.79441076,4.97878194 C6.60512585,5.00784953 6.64192096,4.83244966 6.62340216,4.71975624 C6.4965911,3.94677262 6.2284194,3.66314729 5.45823619,3.48898709 C5.34483882,3.46330275 5.16835499,3.48125208 5.19762006,3.30450924 C5.22564714,3.13612123 5.38399505,3.19330084 5.50393974,3.20791857 Z M5.57465834,3.81476107 L5.57465834,3.81476107 C5.91606292,3.80618671 6.31613804,4.22013196 6.31048412,4.5782664 C6.31399389,4.67616131 6.30364327,4.77924731 6.18917382,4.79306442 C6.10657306,4.8029301 6.05230568,4.73282439 6.04378014,4.64630601 C6.01221777,4.32753097 5.84594417,4.13903712 5.53000135,4.0877201 C5.43536528,4.07234049 5.34238837,4.04149088 5.3865859,3.9121007 C5.41601689,3.82553067 5.49459737,3.81676261 5.57465834,3.81476107 Z" id="Combined-Shape" fill="#FFFFFF"></path>
                </g>
                <g id="messenger_color" transform="translate(113.326595, 43.668820)">
                    <ellipse id="Oval-4" stroke="#1B91FB" stroke-width="0.5" fill="#FFFFFF" cx="10.2763034" cy="10.3974045" rx="10.2763034" ry="10.3974045"></ellipse>
                    <ellipse id="Oval-3" fill="#0084FF" cx="10.2243973" cy="10.3327062" rx="6.46477411" ry="6.52877769"></ellipse>
                    <polygon id="Messenger-color" fill="#FFFFFF" points="10.7347742 11.9631573 9.46656493 10.5887627 6.99201025 11.9631573 9.7140204 9.02695062 11.0131616 10.4013453 13.4567844 9.02695062"></polygon>
                    <rect id="500x500" x="3.75962319" y="3.80392847" width="12.9295482" height="13.0575554"></rect>
                </g>
                <g id="Group-8" transform="translate(1.538462, 73.254286)">
                    <path d="M34.4059435,28.3086361 C31.9441951,33.7847932 31.6829211,36.9014927 33.6221213,37.6587347 C36.5309216,38.7945977 37.9606173,37.6019096 39.1090613,38.7945977 C40.8421793,37.8722012 41.7087383,36.9304373 41.7087383,35.9693061 C41.7087383,34.5276094 37.376264,34.3044125 36.4314398,33.8239767 C35.8015569,33.5036861 35.8015569,31.8365896 36.4314398,28.822687 C35.9802979,28.5288352 35.6584883,28.3574849 35.466011,28.3086361 C35.2735337,28.2597873 34.9201778,28.2597873 34.4059435,28.3086361 Z" id="Path-8" fill="#315890"></path>
                    <path d="M12.3314353,28.9990172 C13.4763483,33.3482468 18.6661303,35.6277195 27.9007815,35.8374353 C37.1354327,36.0471511 42.6903226,33.8917387 44.5654511,29.3711981 L12.3314353,28.9990172 Z" id="Path-57" fill="#C1E0F4"></path>
                    <path d="M16.4111461,32.8430894 C13.9493978,38.3192464 13.6881237,41.435946 15.6273239,42.1931879 C18.5361243,43.3290509 19.9658199,42.1363629 21.1142639,43.3290509 C22.8473819,42.4066544 23.7139409,41.4648906 23.7139409,40.5037594 C23.7139409,39.0620626 19.3814666,38.8388658 18.4366424,38.3584299 C17.8067596,38.0381394 17.8067596,36.3710428 18.4366424,33.3571402 C17.9855005,33.0632885 17.6636909,32.8919382 17.4712136,32.8430894 C17.2787363,32.7942405 16.9253805,32.7942405 16.4111461,32.8430894 Z" id="Path-8" fill="#315890"></path>
                    <path d="M14.0083988,29.4834127 C11.6629969,29.5087001 10.4491259,28.3427267 10.366786,25.9854925 C10.243276,22.4496413 8.03171217,20.0253841 5.26092417,20.0253841 C2.49013617,20.0253841 0.428096976,15.8224125 6.04876332,15.3035357 C11.6694297,14.7846589 12.5706661,20.2107389 12.5706661,21.0228516 L13.0201942,20.83289 C11.6696338,25.647275 12.6101646,28.188488 15.8417865,28.456529 L14.0083988,29.4834127 Z" id="Path-11" fill="#315890" transform="translate(9.166030, 22.376226) rotate(-12.000000) translate(-9.166030, -22.376226) "></path>
                    <path d="M28.6700742,32.9168356 C29.6805737,32.9168356 30.6693736,32.7097094 31.6283975,32.6669574 C33.3425915,32.5905408 34.9616538,32.6337113 36.4394638,32.4380048 C37.5073581,32.2965835 38.5014935,32.1269132 39.4044668,31.93318 C41.4918718,31.4853266 43.09211,30.9088817 43.9901904,30.2555577 C44.5171835,29.8721875 44.6190782,29.4623453 44.6190782,29.0364797 C44.6190782,28.5814321 44.476756,28.1446791 43.8784637,27.7389679 C43.5690053,27.5291193 43.1866045,27.3275755 42.7385946,27.1361003 C41.189095,26.4738588 38.8547732,26.1168384 36.0390328,25.7684598 C33.8301545,25.4951655 31.3250106,25.1561237 28.6700742,25.1561237 C27.232109,25.1561237 25.8380858,25.201377 24.5112768,25.2862858 C23.543921,25.3481915 22.6122939,25.6159554 21.7254148,25.7178506 C20.8818233,25.8147723 20.0787183,25.7440243 19.3238617,25.8732972 C16.4571089,26.3642427 14.4695592,27.0750224 13.4197312,27.903371 C12.9654409,28.2618209 12.5377483,28.642286 12.5377483,29.0364797 C12.5377483,29.5223326 12.9089751,29.9873302 13.5869246,30.4159571 C13.891193,30.6083278 14.2572439,30.7933725 14.6792458,30.9696884 C14.9217488,31.0710082 15.1827281,31.1694456 15.4610771,31.2647345 C16.0178259,31.4553296 16.6440663,31.4485493 17.3309433,31.6118215 C18.7394798,31.9466337 20.4030008,32.4042984 22.2451493,32.5968917 C24.213845,32.8027152 26.3865529,32.9168356 28.6700742,32.9168356 Z" id="Oval-9" stroke="#315890" stroke-width="0.525624179" fill="#FFFFFF"></path>
                    <path d="M18.9457676,27.4319011 C19.1722854,24.2758028 19.3782157,22.0769718 19.5635584,20.8354083 C19.9462368,18.2719448 20.5379288,16.4808283 20.9719908,15.4620588 C21.4914187,14.2429304 22.2746584,13.3372856 22.9550659,12.7451244 C23.9561406,11.8738854 25.1343793,11.0381736 26.4897821,10.6075468 C28.9117112,9.83807253 30.6023074,10.3674333 32.3221619,12.208024 C33.0095399,12.9436569 33.9620676,13.862138 34.5687339,15.0316266 C35.5029589,16.8325597 36.5814503,19.1799412 37.2200614,22.0206829 C37.4769383,23.1633517 37.7286348,25.0551206 37.975151,27.6959895 L37.975155,27.6959892 C38.0455806,28.4504421 37.5436095,29.13942 36.8038806,29.3036156 C36.8038806,29.3036156 36.8038806,29.3036156 36.8038806,29.3036156 C32.2914673,30.3052242 29.8484204,30.2770438 27.5669572,30.2770438 C25.517678,30.2770438 23.0284357,29.8729862 20.09923,29.0648709 L20.09923,29.0648709 C19.3747151,28.8649902 18.8919639,28.1815539 18.9457676,27.4319011 Z" id="Path-56" stroke="#C1E0F4" stroke-width="0.525624179" fill="#FFFFFF"></path>
                    <path d="M21.7352461,27.4091409 C22.6086606,27.6335983 23.260749,27.7901932 23.6915114,27.8789255 C24.4537353,28.0359352 24.7657305,28.3447444 25.5114088,28.43636 C26.3427298,28.5384978 27.6057245,28.4155001 28.4164812,28.43636 C29.1717038,28.455791 30.0246462,28.4874538 30.7620252,28.43636 C31.8641483,28.3599926 32.8396985,28.1573556 33.9019593,27.9234373 C34.5481019,27.7811516 35.1868701,27.6097194 35.8182639,27.4091409 C35.8793577,26.6422605 35.8793577,25.9805594 35.8182639,25.4240373 C35.7825255,25.0984853 35.6847353,24.1058342 35.6447413,23.7960739 C35.5695106,23.2133986 35.3137242,22.6586616 35.2234359,22.1318629 C35.1136315,21.491195 35.0035775,20.8327398 34.8715025,20.274715 C34.688012,19.4994568 34.4721432,18.8630632 34.2456676,18.2473166 C33.9971399,17.5716143 33.7227304,16.9919557 33.422439,16.5083409 C33.2650334,16.2548416 33.0416319,15.9802005 32.7522343,15.6844176 L32.7522282,15.6844236 C32.543188,15.4707711 32.2005279,15.4670321 31.9868754,15.6760723 C31.9350377,15.7267909 31.893922,15.7874105 31.8659707,15.8543302 C31.8659707,15.8543302 31.8659707,15.8543302 31.8659707,15.8543302 C31.6852182,16.2870785 31.594842,16.6073598 31.594842,16.8151741 C31.039162,16.6337772 30.6361887,16.5314995 30.3859222,16.5083409 C28.6427117,16.3470315 27.5508362,16.5406045 27.1286435,16.7330354 C27.1286435,16.3131088 27.1286435,16.020207 27.1286435,15.8543302 C27.1286435,15.8543302 27.1286435,15.8543302 27.1286435,15.8543302 L27.1286435,15.8543302 C27.1286435,15.4268717 26.7821199,15.0803482 26.3546615,15.0803482 C26.16398,15.0803482 25.9800093,15.1507371 25.8380264,15.2780175 C24.9633732,16.0621903 24.3865324,16.6365368 24.107549,17.0011072 C23.206145,18.1790453 22.7660062,19.4657693 22.4413517,20.274715 C22.03746,21.281097 22.0194972,22.5413979 21.8747892,23.6366802 C21.8028619,24.1810915 21.7506025,24.8292014 21.7017623,25.4240373 C21.6619171,25.8919821 21.6730784,26.5536833 21.7352461,27.4091409 Z" id="Path-58" stroke="#315890" stroke-width="0.525624179" fill="#C1E0F4"></path>
                    <rect id="Rectangle" fill="#3A6499" x="28.9547137" y="21.0019634" width="1.03816139" height="1.39521638" rx="0.519080694"></rect>
                    <rect id="Rectangle-Copy" fill="#3A6499" x="32.9343323" y="21.0019634" width="1.03816139" height="1.39521638" rx="0.519080694"></rect>
                    <path d="M30.5028765,24.4699955 C29.7786568,24.3999832 29.406997,24.167566 29.3878973,23.7727438 C29.3592477,23.1805106 30.3340465,22.5629339 31.3177744,23.2530076 C32.2333019,22.7620934 33.1590185,22.7606578 33.3550738,23.6153267 C33.4857774,24.1851059 33.1020662,24.4496028 32.2039402,24.4088176 L31.4884121,23.9227071 L30.8313336,24.4088176 L30.5028765,24.4699955 Z" id="Path-70" fill="#FFFFFF"></path>
                    <ellipse id="Oval-2" fill="#FFFFFF" cx="27.483985" cy="23.6179941" rx="1.03816139" ry="1"></ellipse>
                    <ellipse id="Oval-2-Copy" fill="#FFFFFF" cx="34.9241416" cy="23.6179941" rx="1" ry="1"></ellipse>
                    <path d="M30.1668635,23.6656954 C30.1873796,24.2383383 30.3304778,24.5246598 30.596158,24.5246598 C30.8618382,24.5246598 31.15997,24.3449893 31.4905534,23.9856484 C31.7393629,24.3449893 31.9994606,24.5246598 32.2708463,24.5246598 C32.5422321,24.5246598 32.6220984,24.1958682 32.5104454,23.5382849" id="Path-69" stroke="#315890" stroke-width="0.525624179"></path>
                    <path d="M39.3391501,17.5516045 C39.5596478,17.7524699 39.6941306,17.9032787 39.7425984,18.0040306 C39.824944,18.1752055 40.0750496,18.34679 40.1468615,18.518784 C40.2178301,18.6887581 40.2836548,18.8591323 40.3443358,19.0299063 C40.4155094,19.2302101 40.4796065,19.2566621 40.536627,19.4580663 C40.5706661,19.5782967 40.6021833,19.8731253 40.6311787,19.9937479 C40.6725765,20.1659653 40.8103642,20.3436499 40.8414808,20.5166667 C40.8857103,20.7625939 40.8180233,21.0042611 40.8414808,21.2518034 C40.8577547,21.4235381 40.8690298,21.5956615 40.875306,21.7681735 C40.8825454,21.9671574 40.8831341,22.1666584 40.8770723,22.3666765" id="Path-7" stroke="#315890" stroke-width="0.525624179"></path>
                    <path d="M40.688303,16.3615766 C41.0177912,16.6617285 41.2187478,16.8870809 41.2911729,17.0376338 C41.4142212,17.2934193 41.7879523,17.5498167 41.8952603,17.806826 C42.0013082,18.0608172 42.0996696,18.3154061 42.1903447,18.5705926 C42.296699,18.8699051 42.3924788,18.909432 42.4776842,19.2103889 C42.5285485,19.3900484 42.5756444,19.8306086 42.618972,20.0108541 C42.6808325,20.2681973 42.8867276,20.5337101 42.933225,20.7922479 C42.9993168,21.1597352 42.8981727,21.5208568 42.933225,21.8907575 C42.9575429,22.1473794 42.9743912,22.4045822 42.9837698,22.6623657 C42.9945875,22.9597059 42.9954673,23.2578187 42.9864091,23.5567043" id="Path-7-Copy" stroke="#315890" stroke-width="0.525624179"></path>
                    <polyline id="Path-4" stroke="#315890" stroke-width="0.525624179" fill="#FFFFFF" points="17.5238965 28.0093271 17.1984653 25.8022111 17.020358 24.5942654 16.9974306 22.7248071 16.4663506 20.8369163 16.0072789 17.7234342 15.9779689 15.5559623 15.2313714 12.4611314 14.9529126 10.5725883 14.6137167 8.2721184 14.1038925 6.52838782 13.9297089 3.6330909 13.6155533 1.50244767 13.6467402 0"></polyline>
                    <path d="M13.631763,1.06940879 L0.203125557,3.25455914 L1.74487651,12.3668579 L14.9254468,10.5591182 C13.7142298,9.5103446 12.977697,8.23001632 12.7158483,6.71813335 C12.4539996,5.20625039 12.7593045,3.3233422 13.631763,1.06940879 Z" id="Path-10" stroke="#315890" stroke-width="0.525624179" fill="#C1E0F4"></path>
                    <g id="github_color-copy" transform="translate(6.825209, 7.157715) rotate(-13.000000) translate(-6.825209, -7.157715) translate(3.038227, 3.311562)">
                        <ellipse id="Oval-3" fill="#315890" cx="3.68654621" cy="3.71584544" rx="3.68654621" ry="3.71584544"></ellipse>
                        <ellipse id="Oval-3" fill="#FFFFFF" cx="3.59438256" cy="3.80874157" rx="2.672746" ry="2.69398794"></ellipse>
                        <path d="M0.664080477,3.7864614 C0.664080477,5.0489186 1.71379306,6.11982331 2.81249223,6.49766586 C2.95082683,6.52397802 3.00123833,6.43574459 3.00123833,6.35996558 C3.00123833,6.29225564 2.99886203,6.11245591 2.99750414,5.87406779 C2.22843169,6.04667552 2.06616437,5.49096281 2.06616437,5.49096281 C1.94039021,5.16083297 1.75911249,5.07295037 1.75911249,5.07295037 C1.50807339,4.89578186 1.77812289,4.89929015 1.77812289,4.89929015 C2.05564075,4.9194628 2.20161345,5.19381087 2.20161345,5.19381087 C2.44823942,5.63041723 2.84881567,5.5042943 3.0063304,5.43114651 C3.03145128,5.24661059 3.10291001,5.12066308 3.18183711,5.04926943 C2.56790309,4.97717413 1.92239823,4.73194484 1.92239823,3.63700836 C1.92239823,3.32512162 2.0301804,3.06989371 2.207045,2.87027216 C2.1785294,2.79800144 2.08364714,2.50733984 2.23420271,2.11406082 C2.23420271,2.11406082 2.46623141,2.03722933 2.9944489,2.40700282 C3.21493557,2.34350282 3.45154714,2.31192823 3.68663108,2.31070033 C3.92154529,2.31192823 4.15798711,2.34350282 4.37881326,2.40700282 C4.90669128,2.03722933 5.13838051,2.11406082 5.13838051,2.11406082 C5.28927554,2.50733984 5.19439329,2.79800144 5.16604743,2.87027216 C5.3432515,3.06989371 5.45018499,3.32512162 5.45018499,3.63700836 C5.45018499,4.73475147 4.80366171,4.97629705 4.1878606,5.04698904 C4.28698624,5.13522247 4.37541854,5.30958435 4.37541854,5.57621419 C4.37541854,5.95809127 4.37202383,6.26629431 4.37202383,6.35996558 C4.37202383,6.43644625 4.42192612,6.52538133 4.56212781,6.49749045 C5.65997831,6.11877083 6.45145587,5.04856777 6.45145587,3.7864614 C6.45145587,2.20825834 5.21340369,0.928961359 3.68629161,0.928961359 C2.15968874,0.928961359 0.664080477,2.20825834 0.664080477,3.7864614 Z" id="github_color" fill="#315890"></path>
                    </g>
                </g>
                <g id="Group-3" transform="translate(70.888507, 65.923374)">
                    <g id="Group">
                        <path d="M26.4371131,37.548665 C32.7134151,45.6338406 35.1098563,51.5546997 33.6264367,55.311242 C40.7975812,55.7506113 44.3831535,55.970296 44.3831535,55.970296 C48.9480478,49.8902577 48.9861171,42.4552445 44.4973614,33.6652563 C40.0086056,24.8752681 33.9885228,26.1697377 26.4371131,37.548665 Z" id="Path-6" fill="#44B8FF"></path>
                        <path d="M40.4355242,39.0789089 C44.5109348,42.9495293 46.4647697,47.570576 46.2970289,52.9420492 C47.521376,50.9050681 48.0684767,48.139358 47.9383312,44.644919 C47.8081857,41.15048 46.1019779,38.6670993 42.8197077,37.1947771 L40.4355242,39.0789089 Z" id="Path-38" fill="#3390D5"></path>
                        <path d="M31.6727321,37.8033967 C37.8324611,40.5316325 41.7224506,40.100045 43.3427006,36.5086342 C44.9629506,32.9172233 41.0729611,33.3488108 31.6727321,37.8033967 Z" id="Path-37" fill="#3390D5"></path>
                        <path d="M45.4172178,34.4144142 C57.1618017,45.2814668 61.6993839,53.0122561 59.0299644,57.606782 C56.3605449,62.2013079 47.2438247,62.5833528 31.6798039,58.7529165 C31.7651472,54.1020097 31.2463543,51.2194463 30.123425,50.1052263 C28.4390312,48.4338962 47.1963512,56.5554504 49.0374847,52.222628 C50.264907,49.3340797 47.918292,43.7379159 41.9976397,35.4341367 L45.4172178,34.4144142 Z" id="Path-5" fill="#C1E0F4"></path>
                        <path d="M23.0719561,35.3845993 C21.6422797,40.2045815 19.8684461,42.7318119 17.7504551,42.9662904 C15.6324642,43.2007689 16.753786,46.1939478 21.1144206,51.945827 C25.7721796,44.2738695 27.492207,39.2004019 26.274503,36.7254242 C25.0567989,34.2504465 23.9892833,33.8035049 23.0719561,35.3845993 Z" id="Path-36" fill="#C1E0F4" transform="translate(21.682448, 43.202969) rotate(10.000000) translate(-21.682448, -43.202969) "></path>
                        <path d="M31.4587095,1.57583556 C32.5609447,2.69943438 33.4477888,3.45798149 34.1192416,3.85147689 C35.2874946,4.53611493 34.0101783,4.76155694 32.9509886,4.53611493 C31.891799,4.31067293 29.8918159,4.09639206 29.8918159,2.91422527 C29.8918159,2.45881517 30.0055169,2.05447755 30.2329191,1.70121242 L30.2329191,1.70121242 C30.4686096,1.33507153 30.9564903,1.22932058 31.3226312,1.46501106 C31.3719735,1.49677346 31.4176156,1.53394517 31.4587095,1.57583556 Z" id="Path-2" fill="#315890" transform="translate(32.237845, 2.974250) scale(1, -1) rotate(-52.000000) translate(-32.237845, -2.974250) "></path>
                        <path d="M17.0168533,5.35129466 C17.5767878,3.79214779 18.382927,2.47522165 19.545665,2.42708779 C20.7084029,2.37895393 20.945643,3.50882475 20.527484,3.87469981 C20.109325,4.24057488 18.7133046,4.92217522 17.9331916,6.2343407 C17.1530786,7.54650619 16.4569188,6.91044153 17.0168533,5.35129466 Z" id="Path-3" fill="#315890"></path>
                        <g id="Path-32" transform="translate(14.399457, 6.172221)">
                            <mask id="mask-7" fill="white">
                                <use xlink:href="#path-6"></use>
                            </mask>
                            <use id="Mask" fill="#44B8FF" xlink:href="#path-6"></use>
                            <path d="M-1.0952399,12.4200959 C-0.702633764,10.8047921 -0.0584454079,9.99714017 0.83732517,9.99714017 C2.18098104,9.99714017 3.09205079,11.1973602 9.10646533,10.4382538 C15.1208799,9.6791475 21.4046311,7.03664528 25.298557,8.93128517 C29.192483,10.8259251 29.3390353,25.1480997 25.9760924,31.1157494 C23.7341305,35.0941825 17.9600942,37.6164802 8.65398344,38.6826424 L2.06053927,34.581699 L-2.67469551,17.3215833 L-1.0952399,12.4200959 Z" fill="#3390D5" mask="url(#mask-7)"></path>
                            <rect id="Rectangle-4" fill="#FFFFFF" mask="url(#mask-7)" transform="translate(17.065233, 21.669120) rotate(-6.000000) translate(-17.065233, -21.669120) " x="15.9222601" y="19.9306689" width="2.28594576" height="3.47690254" rx="1.14297288"></rect>
                            <rect id="Rectangle-4-Copy" fill="#FFFFFF" mask="url(#mask-7)" transform="translate(5.254513, 22.441765) rotate(-6.000000) translate(-5.254513, -22.441765) " x="4.11154037" y="20.7033139" width="2.28594576" height="3.47690254" rx="1.14297288"></rect>
                        </g>
                        <path d="M46.6827212,18.111137 C44.8302182,21.2079135 44.6758559,25.042852 46.2196341,29.6159525 C49.8822896,29.6653517 51.6252943,27.5869232 51.4486481,23.3806669 C51.272002,19.1744105 49.6833597,17.4179006 46.6827212,18.111137 Z" id="Path-20" fill="#3390D5"></path>
                        <path d="M2.99112774,41.7470587 L17.9712592,41.7470587 L17.9712592,41.7470587 C18.3791212,41.7470587 18.7501739,41.9829751 18.9232106,42.352312 C20.2500038,45.1842772 21.3576439,48.1359845 22.2461309,51.2074341 C23.1040297,54.1731421 23.9987742,57.6006127 24.9303646,61.4898461 L24.9303646,61.4898461 C25.0656076,62.054463 24.7175313,62.6218115 24.1529144,62.7570545 C24.0727051,62.7762671 23.9905135,62.7859735 23.9080353,62.7859735 L9.06523446,62.7859735 L9.06523446,62.7859735 C8.60834735,62.7859735 8.20377142,62.4908669 8.06422215,62.0558131 L1.99011543,43.119395 L1.99011543,43.119395 C1.81278346,42.5665512 2.11719596,41.9746268 2.6700398,41.7972948 C2.77381796,41.7640066 2.88214144,41.7470587 2.99112774,41.7470587 Z" id="Path-33-Copy" fill="#3390D5"></path>
                        <path d="M1.08617295,41.7470587 L15.9585899,41.7470587 L15.9585899,41.7470587 C16.4179185,41.7470587 16.8240647,42.0452737 16.9616036,42.4835268 L22.9045042,61.4199449 L22.9045042,61.4199449 C23.0783526,61.9738941 22.7702199,62.5638905 22.2162708,62.7377389 C22.1144022,62.7697087 22.0082579,62.7859735 21.9014905,62.7859735 L7.16027966,62.7859735 L7.16027966,62.7859735 C6.70339255,62.7859735 6.29881662,62.4908669 6.15926735,62.0558131 L0.0851606379,43.119395 L0.0851606379,43.119395 C-0.0921713378,42.5665512 0.212241168,41.9746268 0.765085,41.7972948 C0.868863168,41.7640066 0.977186645,41.7470587 1.08617295,41.7470587 Z" id="Path-33" fill="#44B8FF"></path>
                        <path d="M23.0906639,48.265027 C23.8717784,46.3390953 24.5641804,44.8617418 28.1010556,45.8093653 C31.6379308,46.7569889 34.5922148,55.0057747 34.2369274,58.0041043 C34.0145922,59.8804292 32.9932735,60.876115 31.1729715,60.9911616 L31.1729715,60.9911616 C30.9552283,61.0049233 30.7516213,60.8827405 30.6613234,60.6841259 L29.7488082,58.6770043 L29.7488082,58.6770043 C29.5967123,58.3424619 29.6959105,57.9472068 29.9879532,57.7241311 C30.5333434,57.307537 30.8060385,56.5618338 30.8060385,55.4870215 C30.8060385,53.4058996 27.7671609,50.2631809 25.6113781,51.9479652 C23.4555952,53.6327495 22.3095495,50.1909588 23.0906639,48.265027 Z" id="Path-34" fill="#3390D5"></path>
                        <path d="M0.999431642,49.3912848 C2.72672107,47.8878471 3.73397874,47.4761773 4.02120467,48.1562752 C4.47779341,49.2373929 4.75618857,53.3192361 4.02120467,54.4987801 C3.28622077,55.6783241 4.77387553,58.1169684 3.28622077,58.3214929 C2.31799785,58.4546054 1.4676711,55.7100574 0.73524052,50.0878489 L0.73524057,50.0878489 C0.701137963,49.8260739 0.800308255,49.5646023 0.999431642,49.3912848 Z" id="Path-35" fill="#3390D5" transform="translate(2.601565, 53.082322) rotate(-8.000000) translate(-2.601565, -53.082322) "></path>
                        <path d="M48.5744551,46.9011059 C50.546826,43.6612262 52.8864362,42.5812663 55.5932856,43.6612262" id="Path-41" stroke="#FFFFFF" stroke-width="0.525624179"></path>
                        <path d="M45.7850611,41.1698418 C46.5448157,39.036667 47.9278752,38.1703537 49.9342395,38.5709019" id="Path-42" stroke="#FFFFFF" stroke-width="0.525624179"></path>
                        <path d="M22.7425123,30.2704711 C23.0519635,31.4828982 23.8072126,32.1415567 25.0082598,32.2464465 C26.2158845,32.3519108 27.083176,31.7023599 27.6101345,30.2977937 L27.6101345,30.2977937 C27.6611199,30.1618961 27.592285,30.0103974 27.4563873,29.959412 C27.4268686,29.9483373 27.3955979,29.9426644 27.3640701,29.9426644 L22.9971609,29.9426644 L22.9971609,29.9426644 C22.8520137,29.9426644 22.7343488,30.0603293 22.7343488,30.2054765 C22.7343488,30.227397 22.7370912,30.2492315 22.7425123,30.2704711 Z" id="Path-45" fill="#FFFFFF" transform="translate(25.180583, 31.100080) rotate(-3.000000) translate(-25.180583, -31.100080) "></path>
                        <path d="M41.9999168,61.2441441 C43.449057,57.7379156 43.449057,54.7886601 41.9999168,52.3963778" id="Path-39" stroke="#FFFFFF" stroke-width="0.525624179"></path>
                        <path d="M48.39977,51.6065584 C54.8597313,52.1063952 58.3361813,54.482182 58.82912,58.7339188" id="Path-40" stroke="#FFFFFF" stroke-width="0.525624179"></path>
                        <path d="M20.7239921,40.4245412 C23.2275804,40.6459161 24.9464937,41.9929553 25.8807319,44.465659" id="Path-44" stroke="#FFFFFF" stroke-width="0.525624179"></path>
                    </g>
                    <path d="M36.6541581,41.8207555 L36.6541581,41.2864556 C36.6541581,41.153204 36.777542,41.0457525 36.9255378,41.0457525 C37.0749793,41.0457525 37.1969175,41.1531606 37.1969175,41.2864556 L37.1969175,41.7539247 C37.2399731,41.7522416 37.2832457,41.751392 37.3267192,41.751392 C39.1043056,41.751392 40.5460747,43.1717604 40.5460747,44.9248304 C40.5460747,45.5697419 40.3509567,46.169628 40.015781,46.6703389 C40.0253723,46.8224416 40.0662948,46.8976383 40.1591682,46.9667131 C40.1684206,46.9735945 40.1937022,46.9909154 40.2269155,47.0132364 C40.2470547,47.0267431 40.2470547,47.0267431 40.2627841,47.0372279 C40.269296,47.0415603 40.269296,47.0415603 40.2764253,47.0462839 C40.2760082,47.0460143 40.278331,47.0475516 40.278331,47.0475516 C40.4988527,47.1992248 40.5860272,47.3793169 40.538156,47.6288274 C40.4585288,48.0438538 40.0625791,48.1781992 39.4927838,48.0622109 C39.2230058,48.0072946 38.9440734,47.9007473 38.7381987,47.7777847 C38.3119737,47.9830661 37.8329652,48.0982688 37.3267192,48.0982688 C35.5491328,48.0982688 34.1073637,46.6779004 34.1073637,44.9248304 C34.1073637,43.6424611 34.8788415,42.5381175 35.9889068,42.0375326 C35.9849873,42.0194389 35.9829225,42.0006115 35.9829225,41.9812639 L35.9829225,41.7429861 C35.9829225,41.6016563 36.0975551,41.485519 36.2362264,41.485519 C36.3768527,41.485519 36.4895304,41.6000634 36.4895304,41.7429861 L36.4895304,41.859764 C36.5438528,41.8453817 36.5987421,41.8323654 36.6541581,41.8207546 Z M39.4078505,46.4697656 C39.737597,46.0399501 39.9331128,45.5048037 39.9331128,44.9248304 C39.9331128,43.5081862 38.7666052,42.3589934 37.3267192,42.3589934 C35.8868333,42.3589934 34.7203256,43.5081862 34.7203256,44.9248304 C34.7203256,46.3414747 35.8868333,47.4906674 37.3267192,47.4906674 C37.8513394,47.4906674 38.3396687,47.3381123 38.7485089,47.0756495 C38.8463525,47.1542045 38.8463525,47.1542045 38.8463525,47.1542045 C39.0195975,47.2609091 39.4011287,47.4232714 39.6160982,47.4670308 C39.7045229,47.4850307 39.7843736,47.4936286 39.8488953,47.4931333 C39.8237642,47.4759829 39.8036924,47.4619522 39.7912818,47.4527218 C39.571695,47.2894039 39.4422655,47.0262872 39.4102814,46.6939143 C39.4102814,46.6939143 39.4102814,46.6939143 39.4102814,46.4874014 C39.4102814,46.4804949 39.4094519,46.4746364 39.4078505,46.4697656 Z M38.0061105,43.9942911 C38.0061105,44.465891 37.6136242,44.8471864 37.1307152,44.8471864 C36.6478063,44.8471864 36.2553199,44.465891 36.2553199,43.9942911 C36.2553199,43.5226913 36.6478063,43.1413959 37.1307152,43.1413959 C37.6136242,43.1413959 38.0061105,43.5226913 38.0061105,43.9942911 Z M37.6372835,45.6475027 C37.4697569,45.6475027 37.3339498,45.5137115 37.3339498,45.3486716 C37.3339498,45.1836317 37.4697569,45.0498404 37.6372835,45.0498404 C37.80481,45.0498404 37.9406171,45.1836317 37.9406171,45.3486716 C37.9406171,45.5137115 37.80481,45.6475027 37.6372835,45.6475027 Z M37.0399273,45.5622187 C37.0399273,45.8701366 36.7834232,46.1193271 36.467535,46.1193271 C36.1516468,46.1193271 35.8951426,45.8701366 35.8951426,45.5622187 C35.8951426,45.2543008 36.1516468,45.0051103 36.467535,45.0051103 C36.7834232,45.0051103 37.0399273,45.2543008 37.0399273,45.5622187 Z" id="Combined-Shape-Copy" fill="#FFFFFF" fill-rule="nonzero"></path>
                    <ellipse id="Oval-17" fill="#FFFFFF" transform="translate(10.723118, 52.702924) rotate(-11.000000) translate(-10.723118, -52.702924) " cx="10.7231179" cy="52.702924" rx="2.14462359" ry="3.32591268"></ellipse>
                </g>
                <path d="M71.2774539,91.7582595 C71.2786654,91.7577876 71.2798727,91.757315 71.2810758,91.7568418 C72.0076895,91.4710576 72.5892946,90.889736 72.8828721,90.1581115 C72.88371,90.1560232 72.8845463,90.1539227 72.8853807,90.1518101 L72.8853457,90.1517963 C72.9302591,90.0380909 73.058845,89.9823239 73.1725504,90.0272373 C73.2293107,90.0496575 73.2742969,90.0945163 73.296878,90.1512128 C73.296878,90.1512128 73.296878,90.1512128 73.296878,90.1512128 C73.5884246,90.883228 74.1680135,91.4656222 74.8929488,91.7534892 C74.8942455,91.7540041 74.895547,91.7545183 74.8968533,91.7550317 L74.8968517,91.7550359 C75.0045656,91.7973748 75.0575625,91.9190166 75.0152236,92.0267305 C74.9939729,92.0807941 74.9512344,92.1236112 74.8972099,92.1449612 C74.8972099,92.1449612 74.8972099,92.1449612 74.8972099,92.1449612 C74.1524124,92.4392985 73.5605,93.0443352 73.2758581,93.8032945 C73.2750342,93.8054914 73.2742122,93.8077021 73.2733921,93.8099267 L73.2733387,93.809907 C73.2362634,93.9104828 73.1246752,93.9619602 73.0240995,93.9248849 C72.9709824,93.9053044 72.9290617,93.8635086 72.9093227,93.8104503 C72.9093227,93.8104503 72.9093227,93.8104503 72.9093227,93.8104503 C72.6246911,93.0453609 72.0281065,92.4357942 71.2771237,92.1417457 C71.2771237,92.1417457 71.2771237,92.1417457 71.2771237,92.1417457 L71.2771237,92.1417457 C71.1712598,92.1002945 71.1190429,91.980872 71.1604941,91.875008 C71.1814604,91.8214615 71.2238683,91.7791258 71.2774505,91.7582508 Z" id="Combined-Shape" fill="#C1E0F4"></path>
                <path d="M64.6275709,69.5050347 C64.6295161,69.5042769 64.6314545,69.5035182 64.6333862,69.5027584 C65.7959684,69.0455034 66.7265367,68.1153881 67.1962607,66.9447879 C67.1976015,66.9414466 67.1989394,66.9380858 67.2002745,66.9347057 L67.2002184,66.9346835 C67.2720798,66.7527548 67.4778174,66.6635277 67.6597461,66.7353891 C67.7505626,66.7712615 67.8225405,66.8430356 67.8586702,66.93375 C67.8586702,66.93375 67.8586702,66.93375 67.8586702,66.93375 C68.325145,68.1049753 69.2524873,69.0368068 70.4123839,69.4973942 C70.4144518,69.4982153 70.4165273,69.4990353 70.4186105,69.4998542 L70.4186321,69.4997993 C70.5909933,69.5675514 70.6757958,69.7622016 70.6080437,69.9345629 C70.5740382,70.0210729 70.5056495,70.0895866 70.4192017,70.12375 C70.4192017,70.12375 70.4192017,70.12375 70.4192017,70.12375 C69.2275256,70.59469 68.2804656,71.5627496 67.8250384,72.7770853 C67.8237225,72.7805941 67.8224096,72.784125 67.8210999,72.787678 L67.8210735,72.7876682 C67.7617447,72.9486075 67.5831821,73.030979 67.4222429,72.9716502 C67.3372471,72.9403173 67.2701674,72.8734369 67.2385818,72.7885347 C67.2385818,72.7885347 67.2385818,72.7885347 67.2385818,72.7885347 C66.7831711,71.5643907 65.8286356,70.5890832 64.6270629,70.1186052 C64.6270629,70.1186052 64.6270629,70.1186052 64.6270629,70.1186052 L64.6270629,70.1186052 C64.4576998,70.0522907 64.3741624,69.8612363 64.4404769,69.6918732 C64.4740195,69.6062074 64.5418659,69.5384772 64.6275892,69.5050816 Z" id="Combined-Shape-Copy-3" fill="#FFFFFF" transform="translate(67.524520, 69.850664) scale(-1, -1) translate(-67.524520, -69.850664) "></path>
                <path d="M43.4345465,41.5781511 C43.4367348,41.5772986 43.4389155,41.576445 43.4410887,41.5755902 C44.7489937,41.0611783 45.795883,40.0147987 46.3243224,38.6978734 C46.3258308,38.6941144 46.327336,38.6903336 46.328838,38.686531 L46.3287748,38.686506 C46.409619,38.4818362 46.6410737,38.3814557 46.8457435,38.4622998 C46.9479121,38.5026562 47.0288873,38.583402 47.0695332,38.6854558 C47.0695332,38.6854558 47.0695332,38.6854558 47.0695332,38.6854558 C47.5943173,40.0030842 48.6375774,41.0513946 49.9424611,41.5695555 C49.9447874,41.5704793 49.9471224,41.5714018 49.949466,41.572323 L49.9494903,41.5722612 C50.1433967,41.6484823 50.2387995,41.8674639 50.1625784,42.0613702 C50.1243222,42.158694 50.0473849,42.2357719 49.9501311,42.2742058 C49.9501311,42.2742058 49.9501311,42.2742058 49.9501311,42.2742058 C48.6094955,42.8040133 47.5440529,43.8930803 47.0316974,45.259208 C47.030217,45.2631554 47.02874,45.2671276 47.0272665,45.2711247 L47.0272368,45.2711138 C46.9604919,45.4521704 46.7596091,45.5448384 46.5785524,45.4780935 C46.4829322,45.442844 46.4074675,45.3676035 46.3719337,45.2720885 C46.3719337,45.2720885 46.3719337,45.2720885 46.3719337,45.2720885 C45.8595966,43.8949265 44.7857442,42.7977057 43.433975,42.2684178 C43.433975,42.2684178 43.433975,42.2684178 43.433975,42.2684178 L43.433975,42.2684178 C43.2434415,42.1938141 43.1494619,41.9788779 43.2240656,41.7883444 C43.2618011,41.6919704 43.3381284,41.6157739 43.434567,41.5782039 Z" id="Combined-Shape-Copy-2" fill="#C1E0F4"></path>
                <g id="Group-7" transform="translate(166.891742, 68.017920)">
                    <path d="M18.1435722,15.1215304 C16.7684561,18.8972768 17.2706092,22.06852 19.6500316,24.63526 C23.2191651,28.4853698 30.3341036,26.2272198 31.1945024,29.9842506 C31.7681016,32.4889379 30.4916239,33.6833866 27.3650693,33.567597" id="Path-83" stroke="#C1E0F4" stroke-width="2.62812089" stroke-linecap="round" stroke-linejoin="round"></path>
                    <path d="M7.71256337,17.8158189 C6.33744728,21.1677358 6.83960041,23.9830052 9.21902278,26.2616271 C12.7881563,29.6795601 19.9030948,27.6748886 20.7634936,31.0101907 C21.3370928,33.2337254 20.0606151,34.2940966 16.9340605,34.1913044" id="Path-83-Copy" stroke="#C1E0F4" stroke-width="2.62812089" stroke-linecap="round" stroke-linejoin="round" transform="translate(13.926986, 26.006968) rotate(37.000000) translate(-13.926986, -26.006968) "></path>
                    <path d="M19.0518175,17.7631133 C20.2802107,19.5758116 20.6896751,21.1667292 20.2802107,22.535866 C19.6660141,24.5895713 15.5974573,30.1278236 17.9327426,34.8942194 C19.4895995,38.0718166 21.4638509,39.1121664 23.8554966,38.0152688" id="Path-84" stroke="#C1E0F4" stroke-width="2.62812089" stroke-linecap="round" stroke-linejoin="round"></path>
                    <path d="M12.9931284,16.7786844 C14.4898311,18.5832262 14.2510568,20.4139854 12.2768055,22.2709622 C9.31542849,25.0564274 5.63772853,32.6729065 9.31542849,37.8744612" id="Path-85" stroke="#C1E0F4" stroke-width="2.62812089" stroke-linecap="round" stroke-linejoin="round"></path>
                    <path d="M15.4371151,15.7429631 C15.0780906,25.9674051 11.9991484,31.6432055 6.20028861,32.7703644 C-2.49800111,34.4611028 -0.233960231,42.8477941 2.20326396,45.0244304" id="Path-86" stroke="#C1E0F4" stroke-width="2.62812089" stroke-linecap="round" stroke-linejoin="round"></path>
                    <rect id="Rectangle-2" fill="#315890" x="5.72784759" y="7.25004881" width="16.5698448" height="11.9103654" rx="5.95518272"></rect>
                    <g id="Combined-Shape-Copy-4">
                        <mask id="mask-9" fill="white">
                            <use xlink:href="#path-8"></use>
                        </mask>
                        <g id="Mask">
                            <use fill="#FFFFFF" fill-rule="evenodd" xlink:href="#path-8"></use>
                            <path stroke="#315890" stroke-width="0.525624179" d="M-0.19255292,12.77731 C-0.112784705,11.9705664 0.0344600761,11.1769242 0.246832661,10.4027393 C0.299140856,10.2120545 0.307324977,10.1806378 0.43396115,9.68952832 C0.713303893,8.60620542 0.889777537,8.06960439 1.21385949,7.46295588 C1.74042026,6.47728756 2.43939822,5.62979243 3.70831215,4.30606897 C3.96737358,4.03581762 4.2784461,3.78112871 4.75729314,3.42848764 C4.53524387,3.59201312 5.34152795,3.0026564 5.50209903,2.87884991 C6.73970952,1.92460458 7.46865319,1.45299743 8.46027081,1.0369937 C9.14165415,0.751139551 9.84530508,0.519210736 10.5658227,0.343799956 C10.7340111,0.302854311 10.7678275,0.294275777 11.205603,0.18236299 C12.4710854,-0.141144578 13.1248808,-0.262812089 13.910487,-0.262812089 C14.9127026,-0.262812089 15.7633257,-0.0892671808 17.332168,0.355415264 C17.5397495,0.414369414 17.6522516,0.446315556 17.7449268,0.472461639 C19.0732637,0.847220289 20.2983735,1.32413206 21.2258878,1.86646184 C21.8902933,2.25494846 22.522325,2.69730487 23.1156941,3.18868529 C23.7151924,3.68514142 24.2736029,4.23029924 24.7849173,4.81824543 C25.218514,5.31682619 25.5226617,5.84621036 25.994052,6.82729956 C26.057062,6.95869373 26.057062,6.95869373 26.1195673,7.08927457 C26.2722693,7.40796015 26.3656535,7.59792205 26.4674272,7.79298376 C26.5529039,7.95681022 26.6410967,8.11934774 26.7658405,8.3446823 C26.88942,8.56727418 26.9556046,8.68656394 27.0125268,8.7902585 C27.5029974,9.68374293 27.7622889,10.2750517 27.9248195,10.9829246 C28.0021369,11.3196666 28.0150641,11.5834518 28.009181,12.1753075 C28.0055103,12.5445962 28.0079992,12.7086532 28.0260387,12.9101246 C28.1124825,13.8755557 27.3999224,14.7282688 26.4344913,14.8147125 C26.3286323,14.824191 26.2221311,14.8240341 26.1163211,14.8142456 L25.590434,14.7623384 L22.4261958,14.9694305 L19.4651909,14.7623703 L16.217656,14.9698992 L10.2389886,14.7626425 L5.64679547,14.9700546 L1.77048883,14.9700542 C0.679807157,14.970054 -0.204364941,14.0858817 -0.204364821,12.9952001 C-0.204364815,12.9375828 -0.20184329,12.879993 -0.196745456,12.8218999 C-0.194681426,12.7992828 -0.194681426,12.7992828 -0.19255292,12.77731 Z"></path>
                        </g>
                        <path d="M-1.97740003,12.8031699 C-1.32023815,5.73049982 4.25238565,0.207144252 11.0296214,0.207144252 C17.8484504,0.207144252 23.4478361,5.79850351 24.048186,12.9335628 C24.048186,12.9335628 24.048186,12.9335628 24.048186,12.9335628 L24.048186,12.9335628 C24.1239643,13.8341751 23.4553042,14.6256961 22.5546919,14.7014744 C22.5090563,14.7053142 22.4632797,14.7072366 22.4174829,14.7072366 L-0.242052486,14.7072421 L-0.242052486,14.7072335 C-1.20458681,14.7072334 -1.98487496,13.926945 -1.98487484,12.9644107 C-1.98487484,12.9105772 -1.98238056,12.8567725 -1.97740003,12.8031699 C-1.97740003,12.8031699 -1.97740003,12.8031699 -1.97740003,12.8031699 Z" fill="#C1E0F4" mask="url(#mask-9)"></path>
                    </g>
                </g>
                <g id="Rectangle-16">
                    <use fill="#FFFFFF" fill-rule="evenodd" xlink:href="#path-10"></use>
                    <rect stroke="#315890" stroke-width="0.525624179" x="168.181543" y="69.8496547" width="10.6176084" height="10.7365374" rx="5.3088042"></rect>
                </g>
                <rect id="Rectangle-3" fill="#315890" x="169.738199" y="75.0870143" width="1.55261296" height="2.0945463" rx="0.776306479"></rect>
                <rect id="Rectangle-41" x="0" y="0" width="200" height="200"></rect>
            </g>
        </g>
    </g>
</svg>