<?xml version="1.0" encoding="UTF-8"?>

<svg width="645px" height="500px" viewBox="0 0 645 500" version="1.1" xmlns="http://www.w3.org/2000/svg" xmlns:xlink="http://www.w3.org/1999/xlink">
    <!-- Generator: Sketch 46.1 (44463) - http://www.bohemiancoding.com/sketch -->
    <desc>Created with Sketch.</desc>
    <defs>
        <ellipse id="path-1" cx="20.200034" cy="20.9604346" rx="20.0818666" ry="20.9604346"></ellipse>
        <linearGradient x1="0%" y1="29.2864197%" x2="100%" y2="67.7630354%" id="linearGradient-3">
            <stop stop-color="#36987B" offset="0%"></stop>
            <stop stop-color="#D01E25" offset="100%"></stop>
        </linearGradient>
        <linearGradient x1="100%" y1="0%" x2="0%" y2="100%" id="linearGradient-4">
            <stop stop-color="#1E96C8" offset="0%"></stop>
            <stop stop-color="#37AEE2" offset="100%"></stop>
        </linearGradient>
        <linearGradient x1="61.2346759%" y1="43.69%" x2="74.7064382%" y2="80.24%" id="linearGradient-5">
            <stop stop-color="#EFF7FC" offset="0%"></stop>
            <stop stop-color="#FFFFFF" offset="100%"></stop>
        </linearGradient>
        <path d="M20.8522671,101.856169 C5.20251316,93.4607111 -1.77748329,40.8610844 0.430941495,28.7765811 C2.63936628,16.6920779 11.3650571,9.70300989 18.553293,7.80825175 C25.741529,5.91349362 83.3587055,-8.6595953 103.739839,7.80825175 C116.621192,18.2919101 113.085599,71.5676677 103.739839,87.9674664 C94.394078,104.367265 36.5020211,110.251627 20.8522671,101.856169 Z" id="path-6"></path>
        <path d="M0.224197372,41.6103022 C0.480836773,39.0147548 0.95423536,36.4834092 1.6259154,34.0348607 C2.52855762,30.7443605 3.12444733,27.603388 4.69841903,24.6570727 C6.67097983,20.9646391 9.80036035,17.5779352 12.6686126,14.5857916 C14.2419654,12.9444792 16.6016332,11.4218888 18.4033677,10.0326821 C21.4786568,7.66151576 24.2005602,5.67894093 27.8263094,4.15786549 C29.9849089,3.25228918 32.2282229,2.51028892 34.5409639,1.94724971 C37.9616148,1.11448864 41.5341425,0 45.2090828,0 C49.4472524,0 53.5492117,1.26011368 57.4390902,2.35755032 C61.1352999,3.40034792 65.3048607,4.90411528 68.5530005,6.80334528 C70.6783407,8.04605961 72.6938278,9.45808798 74.5812261,11.021079 C76.4942249,12.6052702 78.2756367,14.344547 79.9064739,16.2198012 C82.2400703,18.9031385 83.6005213,22.5381122 85.2618753,25.7223002 C87.0271867,29.1057355 89.0464301,32.0670931 89.9231855,35.8856452 C90.3828826,37.8877739 90.0464311,39.9404789 90.23389,42.0340791 C90.23389,42.0340791 90.23389,42.0340791 90.23389,42.0340791 L90.23389,42.0340791 C90.4727674,44.7019369 88.5036897,47.0583113 85.8358319,47.2971886 C85.5433027,47.3233814 85.2489989,47.3229478 84.9565481,47.2958931 L83.1124844,47.1253264 L72.9440514,47.7985441 L63.2070637,47.1253242 L52.7368548,47.7985419 L33.2381243,47.1253209 L18.3520854,47.7985381 L5.75408881,47.7985367 L5.75408881,47.7985367 L5.75408881,47.7985367 C2.68115391,47.7985364 0.190048258,45.3074302 0.190048596,42.2344953 C0.190048614,42.0721818 0.19715111,41.9099461 0.211335705,41.7482536 C0.215574558,41.7002186 0.219853529,41.6542341 0.224197372,41.6103022 Z" id="path-8"></path>
        <rect id="path-10" x="547.444152" y="227.865517" width="32.7989488" height="33.1854679" rx="16.3994744"></rect>
    </defs>
    <g id="pages_for_valérie" stroke="none" stroke-width="1" fill="none" fill-rule="evenodd">
        <g id="700-card---extra" transform="translate(-794.000000, -99.000000)">
            <g id="Home---Hero" transform="translate(790.000000, 26.000000)">
                <ellipse id="Oval-21" stroke="#315890" stroke-width="1.70827858" stroke-dasharray="5.124835742444152,8.541392904073588" cx="341.399474" cy="329.12374" rx="237.161629" ry="239.956461"></ellipse>
                <ellipse id="Oval-21-Copy" stroke="#C1E0F4" stroke-width="1.70827858" stroke-dasharray="5.124835742444152,8.541392904073588" cx="341.399474" cy="329.974649" rx="167.358739" ry="169.330977"></ellipse>
                <g id="line-messenger" transform="translate(192.542707, 109.589106)">
                    <ellipse id="Oval-34-Copy-8" fill="#00B900" cx="18.2325379" cy="18.4473992" rx="18.2325379" ry="18.4473992"></ellipse>
                    <path d="M8.20599103,22.5344786 L11.7366361,22.5344786 C12.2388486,22.5344786 12.6496119,22.1187468 12.6496119,21.610616 L12.6496119,21.5335529 C12.6496119,21.025422 12.2388486,20.609818 11.7366361,20.609818 L9.19513246,20.609818 L9.19513246,14.7592842 C9.19513246,14.2511534 8.78436909,13.8355494 8.28215657,13.8355494 L8.20599103,13.8355494 C7.70377851,13.8355494 7.29301514,14.2511534 7.29301514,14.7592842 L7.29301514,21.6104882 C7.29301514,22.1187468 7.70377851,22.5344786 8.20599103,22.5344786 L8.20599103,22.5344786 Z M30.0836875,18.2400317 L30.0836875,18.1629686 C30.0836875,17.6548377 29.6727978,17.2392337 29.1705853,17.2392337 L26.629208,17.2392337 L26.629208,15.7765683 L29.1705853,15.7765683 C29.6727978,15.7765683 30.0836875,15.3609643 30.0836875,14.8528335 L30.0836875,14.7757704 C30.0836875,14.2676395 29.6727978,13.8520355 29.1705853,13.8520355 L25.6399402,13.8520355 C25.1377277,13.8520355 24.7269643,14.2676395 24.7269643,14.7757704 L24.7269643,21.6269743 C24.7269643,22.1351052 25.1377277,22.550837 25.6399402,22.550837 L29.1705853,22.550837 C29.6727978,22.550837 30.0836875,22.1351052 30.0836875,21.6269743 L30.0836875,21.5499112 C30.0836875,21.0417804 29.6727978,20.6261763 29.1705853,20.6261763 L26.629208,20.6261763 L26.629208,19.163511 L29.1705853,19.163511 C29.6727978,19.1637666 30.0836875,18.7480348 30.0836875,18.2400317 L30.0836875,18.2400317 Z M23.2938398,22.2590707 L23.2940924,22.2586873 C23.4630382,22.0863411 23.5579108,21.8534834 23.5580824,21.6107438 L23.5580824,14.7595398 C23.5580824,14.251409 23.147319,13.835805 22.6449802,13.835805 L22.5688146,13.835805 C22.0666021,13.835805 21.6558387,14.251409 21.6558387,14.7595398 L21.6558387,18.7812626 L18.3558376,14.3029122 C18.1982015,14.0244371 17.9013706,13.835805 17.5631098,13.835805 L17.4869442,13.835805 C16.9847317,13.835805 16.573842,14.251409 16.573842,14.7595398 L16.573842,21.6107438 C16.573842,22.1188746 16.9846054,22.5346064 17.4869442,22.5346064 L17.5631098,22.5346064 C18.0653223,22.5346064 18.4760857,22.1188746 18.4760857,21.6107438 L18.4760857,17.5137471 L21.7998333,22.1069893 C21.8202957,22.1391947 21.8426527,22.1701222 21.8667781,22.1995161 L21.8669044,22.1997717 C21.9582273,22.325782 22.0831488,22.4121745 22.2223436,22.4649557 C22.329329,22.5096855 22.446293,22.5344786 22.5686883,22.5344786 L22.6448538,22.5344786 C22.7936413,22.5345627 22.9401524,22.4975143 23.0714061,22.4266158 C23.1627289,22.3826528 23.2396523,22.3259098 23.2938398,22.2590707 L23.2938398,22.2590707 Z M14.2994862,22.5344786 L14.3756517,22.5344786 C14.8778643,22.5344786 15.2886276,22.1187468 15.2886276,21.610616 L15.2886276,14.759412 C15.2886276,14.2512812 14.8778643,13.8356772 14.3756517,13.8356772 L14.2994862,13.8356772 C13.7972737,13.8356772 13.386384,14.2512812 13.386384,14.759412 L13.386384,21.610616 C13.386384,22.1187468 13.7972737,22.5344786 14.2994862,22.5344786 Z" id="Shape" fill="#FFFFFF"></path>
                </g>
                <g id="twillio" transform="translate(120.216820, 186.170955)">
                    <ellipse id="Oval-34-Copy-5" fill="#EE3248" cx="17.3127947" cy="17.5168173" rx="17.3127947" ry="17.5168173"></ellipse>
                    <g id="Group-4" transform="translate(7.869452, 7.962190)" fill="#FFFFFF">
                        <path d="M9.83681518,0 C4.4068932,0 0,4.45882623 0,9.95273713 C0,15.446648 4.4068932,19.9054743 9.83681518,19.9054743 C15.2667372,19.9054743 19.6736304,15.446648 19.6736304,9.95273713 C19.6736304,4.45882623 15.2667372,0 9.83681518,0 Z M9.83681518,17.2779516 C5.8332314,17.2779516 2.59691921,13.9935484 2.59691921,9.95273713 C2.59691921,5.90197312 5.84306822,2.6275226 9.83681518,2.6275226 C13.840399,2.6275226 17.0767112,5.91192585 17.0767112,9.95273713 C17.0767112,14.0035011 13.840399,17.2779516 9.83681518,17.2779516 Z" id="XMLID_181_"></path>
                        <ellipse id="XMLID_180_" cx="12.2861822" cy="7.47450558" rx="2.04605756" ry="2.07016932"></ellipse>
                        <ellipse id="XMLID_179_" cx="12.2861822" cy="12.4309687" rx="2.04605756" ry="2.07016932"></ellipse>
                        <ellipse id="XMLID_178_" cx="7.3874482" cy="12.4309687" rx="2.04605756" ry="2.07016932"></ellipse>
                        <ellipse id="XMLID_177_" cx="7.3874482" cy="7.47450558" rx="2.04605756" ry="2.07016932"></ellipse>
                    </g>
                </g>
                <g id="Skype" transform="translate(325.420499, 73.000000)">
                    <ellipse id="Oval-3" fill="#00AFF0" cx="16.5046419" cy="16.6991408" rx="16.5046419" ry="16.6991408"></ellipse>
                    <path d="M9.68068817,8.48855297 C11.315352,7.29508931 13.6270383,7.19258323 15.3678387,8.21357634 C17.3305609,7.86944878 19.4058522,8.19649199 21.1571054,9.16216436 C23.111787,10.224648 24.6467467,12.049419 25.3615604,14.1760134 C25.852844,15.6151662 25.9670212,17.1796043 25.7113286,18.6789591 C26.3401073,19.797577 26.5580088,21.1439863 26.3031203,22.4057873 C26.0337586,23.7977548 25.1854702,25.0595559 24.0123396,25.8348598 C22.3881286,26.9396475 20.1568488,27.0022902 18.4650964,26.011398 C16.5811725,26.3392548 14.5943283,26.0553292 12.8897109,25.1750786 C10.9084952,24.1679157 9.32850778,22.3862623 8.55580148,20.2832606 C7.99617237,18.7806516 7.85546102,17.1275377 8.12160648,15.5460153 C7.47915868,14.4078724 7.27090589,13.0321757 7.545092,11.7516632 C7.81686591,10.4434904 8.59922098,9.25490796 9.68068817,8.48855297 Z M10.5651595,9.54534185 C9.47163132,10.2645115 8.77370305,11.5588542 8.78576402,12.8800436 C8.76968273,13.7464641 9.09211272,14.5746481 9.54801748,15.2938178 C9.25292569,16.6654468 9.27463544,18.1151756 9.71124263,19.4534495 C10.3922855,21.6304834 12.0912745,23.4463054 14.2003365,24.2590322 C15.6291597,24.8276969 17.2196,24.9009155 18.7135524,24.5698046 C19.1493555,24.8260698 19.5923953,25.0855891 20.0868951,25.2068067 C21.3267631,25.5493071 22.7177952,25.2222639 23.6810649,24.3631653 C24.6676524,23.5105751 25.1919027,22.1454544 25.0166166,20.8429763 C24.9450548,20.1514671 24.6403142,19.5169056 24.2865257,18.930343 C24.5864419,17.5367485 24.5558874,16.0609863 24.1007867,14.7056281 C23.3835609,12.4822224 21.6001451,10.6493161 19.415501,9.88540171 C18.0429623,9.38832857 16.537753,9.34277031 15.1193826,9.65598334 C14.7559453,9.44527639 14.3941162,9.2215528 13.9920838,9.09219989 C12.8607645,8.70251408 11.5581795,8.87091692 10.5651595,9.54534185 Z M15.744141,11.6434624 C17.0298407,11.4465856 18.3846899,11.645903 19.5320904,12.2755832 C20.0338268,12.5570681 20.519482,12.937805 20.7526608,13.4845041 C20.904629,13.8440889 20.9215144,14.3135017 20.6408958,14.6145116 C20.3369593,14.9293517 19.8408513,15.026163 19.4331904,14.893556 C18.9612044,14.693425 18.7264174,14.1930977 18.3259932,13.895342 C17.8226486,13.4755552 17.1448219,13.3624731 16.5104148,13.3738626 C16.0464694,13.3942011 15.5495573,13.5007749 15.211046,13.845716 C14.8982648,14.1833352 14.7824795,14.7617624 15.08722,15.1416858 C15.3750753,15.4776779 15.8197231,15.6029631 16.227384,15.7176723 C17.0049147,15.9145491 17.79129,16.0731894 18.572037,16.2594902 C19.3841425,16.447418 20.2042886,16.8070028 20.7405998,17.4765465 C21.6652744,18.6887216 21.4570216,20.6111174 20.3072089,21.6036366 C19.3873587,22.4277529 18.1080916,22.6555442 16.9164675,22.6628661 C15.644437,22.6441546 14.2847634,22.3805676 13.3070205,21.5003169 C12.816541,21.0528698 12.4040557,20.3776313 12.5520037,19.6869355 C12.7136207,19.0003075 13.6455318,18.7399746 14.1738024,19.162202 C14.5774429,19.4900588 14.7961486,19.988759 15.185316,20.3312595 C15.6508695,20.7632494 16.2997498,20.9349064 16.9204878,20.9194491 C17.5291649,20.9357199 18.175633,20.7469786 18.5929427,20.2783794 C18.8767776,19.9619122 19.0271377,19.4802963 18.8430068,19.0751532 C18.6918427,18.6944164 18.3034793,18.4869636 17.9320014,18.3844575 C17.2469382,18.203038 16.5570505,18.0378893 15.8719873,17.8548427 C15.1193826,17.668542 14.3370276,17.4985121 13.6897554,17.0445566 C13.1848027,16.7053103 12.8020678,16.1756955 12.6790459,15.5720486 C12.4724012,14.6250876 12.6203492,13.532503 13.300588,12.8092656 C13.9229342,12.1088074 14.8460006,11.7833913 15.744141,11.6434624 Z" id="Combined-Shape" fill="#FFFFFF"></path>
                </g>
                <g id="Group-39" transform="translate(489.415243, 135.967298)">
                    <g id="Group-40">
                        <mask id="mask-2" fill="white">
                            <use xlink:href="#path-1"></use>
                        </mask>
                        <use id="Mask" fill="#2DC100" xlink:href="#path-1"></use>
                        <g mask="url(#mask-2)">
                            <g transform="translate(6.307490, 5.431337)">
                                <polygon id="Rectangle-23" fill="#FFFFFF" fill-rule="evenodd" points="1.70799072 3.09300948 27.8140472 3.09300948 27.3050284 27.4593266 1.20490062 25.7235795"></polygon>
                                <path d="M28.6202365,25.3914996 C28.6202365,27.8663244 26.6981968,29.8723525 24.3272011,29.8723525 L4.29303548,29.8723525 C1.92194428,29.8723525 0,27.8663244 0,25.3914996 L0,4.48085287 C0,2.00612762 1.92203968,0 4.29303548,0 L24.3272011,0 C26.6981968,0 28.6202365,2.00612762 28.6202365,4.48085287 L28.6202365,25.3914996 Z M19.0801577,10.8354157 C18.9485496,9.40070951 18.4505444,8.18762774 17.6384026,7.1068183 C15.38977,4.11469299 11.2339203,2.85898362 7.53597119,4.09001386 C4.82666232,4.99202151 2.83272738,6.72238961 2.02077701,9.57560945 C1.14316615,12.6598182 2.31586637,15.6555527 5.09791864,17.6572937 C5.53122046,17.9694408 5.59678523,18.2362291 5.45522275,18.71557 C5.26273987,19.3677624 5.15400763,20.0458045 4.9860278,20.8201245 C5.9015418,20.2368971 6.67396188,19.713758 7.47969077,19.2504146 C7.72242402,19.1108263 8.06249942,19.0759048 8.34907014,19.1004864 C9.1788235,19.171695 10.0038868,19.2975293 10.9097336,19.4118532 C10.7034678,16.9293081 11.4580849,14.9266891 13.1111787,13.2924038 C14.7473309,11.6747989 16.7626103,10.9588114 19.0801577,10.8354157 Z M7.80495484,9.98816643 C7.78724418,10.4846196 7.3857238,10.8752645 6.90674881,10.8623631 C6.42360196,10.8492941 6.05718806,10.4407213 6.07135659,9.93086404 C6.08536769,9.42779257 6.47988251,9.03765039 6.95956593,9.05264619 C7.42807196,9.06722311 7.82250807,9.50369311 7.80495484,9.98816643 Z M13.8708396,9.05238712 C14.3506059,9.04310868 14.739691,9.4408276 14.743716,9.94503957 C14.7482935,10.4586972 14.3796492,10.8564161 13.8935691,10.8626017 C13.4087517,10.8687873 13.0179303,10.4752479 13.0093278,9.97220617 C13.0009621,9.48688543 13.39936,9.06158196 13.8708396,9.05238712 Z M24.4934794,26.2514613 L24.4934794,26.2514613 C24.4448167,26.0438002 24.4352359,25.8356292 24.3513804,25.6712139 C23.8970998,24.780699 24.1518916,24.2248284 24.8599204,23.5493181 C27.306718,21.2152734 27.5422534,17.5271483 25.5379738,14.7488151 C23.2412435,11.5648494 18.4638508,10.7998898 15.2062918,13.0945645 C11.5410282,15.6764561 11.0883602,20.5073288 14.2563721,23.6579423 C15.9220992,25.3142328 17.9422202,25.9899471 20.1971177,25.7418962 C20.9373987,25.6605045 21.6811895,25.2216217 22.3887441,25.3010755 C23.0990496,25.3808353 23.7661941,25.9032517 24.4934794,26.2514613 Z M15.6097302,18.1044556 C15.1467596,18.1038535 14.7601228,17.7139103 14.7442637,17.2318499 C14.7274492,16.727312 15.1324291,16.2917116 15.6158445,16.2940196 C16.1041324,16.2961268 16.4963103,16.7257065 16.4776807,17.2378706 C16.4600064,17.721637 16.0760446,18.1049573 15.6097302,18.1044556 Z M21.6880917,16.2940315 L21.6880917,16.2940315 C22.1793327,16.2975594 22.5671596,16.7244358 22.5486406,17.2414248 C22.5312913,17.7327106 22.1540883,18.1060636 21.6766878,18.1044508 C21.1831076,18.1031405 20.7954755,17.6795905 20.8154566,17.163811 C20.834268,16.6814961 21.2264811,16.2907052 21.6880917,16.2940315 Z" id="Wechat" fill="#2DC100" fill-rule="nonzero"></path>
                            </g>
                        </g>
                    </g>
                </g>
                <g id="discord_color" transform="translate(478.482260, 255.094619)">
                    <rect id="500x500" x="0" y="0" width="34.1998419" height="34.6028699"></rect>
                    <ellipse id="Oval" fill="#7289DA" cx="17.099921" cy="17.301435" rx="17.099921" ry="17.301435"></ellipse>
                    <path d="M20.2036738,22.489026 C22.1215587,21.9409498 22.8535759,20.7262942 22.8535759,20.7262942 C22.2533219,21.1262417 21.6823485,21.4076863 21.1699364,21.6002536 C20.4379192,21.911324 19.7351828,22.1187042 19.0470866,22.2372072 C17.6416137,22.5038389 16.3532635,22.4297745 15.2552377,22.2223943 C14.4207382,22.0594527 13.7033613,21.8224468 13.1031073,21.5854407 C12.7663794,21.4521249 12.4003708,21.2891833 12.0343622,21.0818031 C11.9904412,21.0521774 11.9465201,21.0373645 11.9025991,21.0077388 C11.8733184,20.9929259 11.8586781,20.978113 11.8440377,20.9633001 C11.5805115,20.8151714 11.4341081,20.7114813 11.4341081,20.7114813 C11.4341081,20.7114813 12.1368446,21.8965111 13.9961682,22.4594003 C13.5569579,23.0222894 13.0152652,23.6888687 13.0152652,23.6888687 C9.77974932,23.5851786 8.54996048,21.437312 8.54996048,21.437312 C8.54996048,16.6675671 10.6581699,12.8014074 10.6581699,12.8014074 C12.7663794,11.2016172 14.7721064,11.2460558 14.7721064,11.2460558 L14.9185098,11.4238103 C12.283248,12.1940797 11.0680995,13.3642966 11.0680995,13.3642966 C11.0680995,13.3642966 11.3901871,13.1865421 11.9318798,12.9347233 C13.4983965,12.2385183 14.7428257,12.0459509 15.2552377,12.0015123 C15.3430798,11.9866994 15.4162815,11.9718866 15.5041235,11.9718866 C16.3971845,11.8533836 17.4073682,11.8237578 18.4614729,11.9422608 C19.8523056,12.1052024 21.3456205,12.5199629 22.8682163,13.3642966 C22.8682163,13.3642966 21.7116291,12.2533311 19.2227708,11.4830618 L19.4277356,11.2460558 C19.4277356,11.2460558 21.4334626,11.2016172 23.5416721,12.8014074 C23.5416721,12.8014074 25.6498814,16.6675671 25.6498814,21.437312 C25.6498814,21.437312 24.4054523,23.5851786 21.1699364,23.6888687 C21.1699364,23.6888687 20.642884,23.0519151 20.2036738,22.489026 Z M12.8688618,18.4154861 C12.8688618,19.3190713 13.5423176,20.0597149 14.3621768,20.0597149 C15.1966763,20.0597149 15.8554918,19.3190713 15.8554918,18.4154861 C15.8701321,17.5119009 15.1966763,16.7712572 14.3621768,16.7712572 C13.5276772,16.7712572 12.8688618,17.5119009 12.8688618,18.4154861 Z M18.2125871,18.4154861 C18.2125871,19.3190713 18.8860428,20.0597149 19.705902,20.0597149 C20.5404016,20.0597149 21.1992171,19.3190713 21.1992171,18.4154861 C21.1992171,17.5119009 20.5404016,16.7712572 19.705902,16.7712572 C18.8714025,16.7712572 18.2125871,17.5119009 18.2125871,18.4154861 Z" id="Discord-color" fill="#FFFFFF"></path>
                </g>
                <g id="twitter_color" transform="translate(137.877792, 468.672887)">
                    <ellipse id="Oval-3" fill="#1DA1F2" cx="38.4073148" cy="38.8599258" rx="38.4073148" ry="38.8599258"></ellipse>
                    <path d="M53.7025751,32.2134123 C53.7025751,31.868331 53.6956282,31.5248067 53.6803298,31.1828355 C55.2189406,30.0574419 56.5562973,28.6530301 57.6109722,27.0543161 C56.1991054,27.6892937 54.6796982,28.116758 53.0857782,28.3095058 C54.7127285,27.3224521 55.9617457,25.7610463 56.5509202,23.8996367 C55.0284391,24.8128539 53.3423416,25.4765891 51.547166,25.8348801 C50.1091823,24.285131 48.0620522,23.3159555 45.795231,23.3159555 C41.4436393,23.3159555 37.9147398,26.8864413 37.9147398,31.2877586 C37.9147398,31.9134085 37.983873,32.5219626 38.1190693,33.1056425 C31.5697908,32.7722218 25.7625454,29.5996668 21.8764567,24.7755483 C21.1997122,25.9537928 20.8094914,27.3224521 20.8094914,28.7828222 C20.8094914,31.5488999 22.200617,33.9908819 24.3161121,35.4193868 C23.0233105,35.3789725 21.8088586,35.0199016 20.747269,34.4222309 C20.746109,34.4556817 20.746109,34.488294 20.746109,34.5240452 C20.746109,38.3852044 23.4623021,41.6090558 27.0680162,42.3396288 C26.4058678,42.522273 25.7091515,42.6202 24.9901603,42.6202 C24.4831787,42.6202 23.9892556,42.5697134 23.5091604,42.4764183 C24.5123682,45.6443101 27.421366,47.9495026 30.8703783,48.0140127 C28.1733888,50.1528821 24.7758449,51.4267246 21.0833303,51.4267246 C20.4480658,51.4267246 19.8204852,51.390165 19.2036574,51.3163598 C22.691077,53.5780318 26.8321941,54.8977264 31.2828753,54.8977264 C45.7767645,54.8977264 53.7025751,42.7484404 53.7025751,32.2134123 Z" id="Twitter-color" fill="#FFFFFF"></path>
                    <rect id="500x500" x="0" y="0" width="76.8146296" height="77.7198516"></rect>
                </g>
                <g id="slack_color" transform="translate(417.089356, 503.560174)">
                    <g id="Group-5" stroke-width="0.85413929" fill="#FFFFFF">
                        <ellipse id="Oval-3" stroke="#D4D4D4" transform="translate(36.772781, 37.169011) rotate(10.000000) translate(-36.772781, -37.169011) " cx="36.7727805" cy="37.1690108" rx="19.4252771" ry="19.6175942"></ellipse>
                        <ellipse id="Oval-3-Copy" stroke="url(#linearGradient-3)" transform="translate(36.772781, 37.169011) rotate(10.000000) translate(-36.772781, -37.169011) " cx="36.7727805" cy="37.1690108" rx="31.3958235" ry="31.7066533"></ellipse>
                    </g>
                    <g id="Group" transform="translate(23.170572, 23.425815)">
                        <path d="M17.6107356,1.73104784 C17.1979406,0.448004687 15.8335546,-0.254105045 14.5631574,0.162933635 C13.2928715,0.579748058 12.5976226,1.95766539 13.0103286,3.24048091 L19.2642538,22.6720608 C19.6935663,23.8705472 20.9755167,24.5441274 22.2062433,24.186441 C23.4898649,23.8131965 24.2723557,22.4364493 23.8627446,21.163142 C23.8471671,21.1148508 17.6107356,1.73104784 17.6107356,1.73104784" id="path22-7" fill="#E7A213"></path>
                        <path d="M7.92054778,4.91066237 C7.50775273,3.62784516 6.14336741,2.92573543 4.87297027,3.34254986 C3.60268455,3.75936428 2.90743544,5.13732376 3.3201415,6.42029946 L9.57406527,25.8518523 C10.0033785,27.0504197 11.2853293,27.7239089 12.5159675,27.3660437 C13.7995879,26.9930724 14.5822132,25.6162308 14.1725348,24.3429369 C14.1569741,24.2945345 7.92054778,4.91066237 7.92054778,4.91066237" id="path24-8" fill="#4DC088"></path>
                        <path d="M25.4822689,17.8242426 C26.7527323,17.4073607 27.447737,16.029467 27.0350087,14.746493 C26.6222805,13.4636303 25.257873,12.7614986 23.9876316,13.1782911 L4.7465472,19.4941307 C3.55971974,19.9276952 2.892832,21.2223374 3.24701246,22.4651593 C3.61650894,23.7614656 4.9797587,24.5517724 6.24067244,24.1380369 C6.28849015,24.122322 25.4822689,17.8242426 25.4822689,17.8242426" id="path26-3" fill="#E10D63"></path>
                        <path d="M8.75673424,23.312547 C10.0092109,22.9015329 11.6234369,22.3719038 13.355471,21.8035389 C12.9485974,20.5387533 12.4239828,18.9082754 11.8610786,17.1588233 L7.26209693,18.6683491 L8.75673424,23.312547" id="path28-4" fill="#3F2543"></path>
                        <path d="M18.4470112,20.1327521 C20.1856796,19.5622744 21.8015525,19.0320164 23.045748,18.6237439 C22.6388066,17.3587779 22.1140807,15.7279628 21.5510205,13.9781516 L16.9520166,15.4876993 L18.4470112,20.1327521" id="path30-9" fill="#D01E25"></path>
                        <path d="M22.3338251,8.03811946 C23.6040664,7.62123759 24.2992932,6.24334387 23.8865649,4.96034624 C23.4738367,3.67730478 22.1093841,2.97541931 20.8389874,3.39223373 L1.59792709,9.70800753 C0.411197565,10.1415704 -0.255777157,11.4363036 0.0984929592,12.6790344 C0.467982196,13.9753408 1.8312388,14.7657369 3.09205019,14.3520031 C3.1399791,14.3362882 22.3338251,8.03811946 22.3338251,8.03811946" id="path32-2" fill="#7CD3DC"></path>
                        <path d="M5.60735494,13.5266701 C6.85980942,13.1155885 8.4744807,12.58587 10.2069599,12.0173247 C9.64198512,10.261354 9.11692531,8.6293923 8.71256748,7.37260914 L4.11269542,8.88249409 L5.60735494,13.5266701" id="path34-0" fill="#36987B"></path>
                        <path d="M15.2975421,10.346897 C17.0365441,9.77633003 18.6527509,9.24598089 19.8971472,8.83762078 C19.3320835,7.08122179 18.8068467,5.44883353 18.4024877,4.19191547 L13.8025265,5.70191171 L15.2975421,10.346897" id="path36-4" fill="#5A872D"></path>
                    </g>
                </g>
                <g id="email_color" transform="translate(174.040736, 381.029215)">
                    <path d="M0,12.2678032 C0,5.49248259 5.42703794,0 12.1249171,0 C18.8213239,0 24.2498342,5.49099287 24.2498342,12.2678032 C24.2498342,19.0431238 18.8227963,24.5356064 12.1249171,24.5356064 C5.42851031,24.5356064 0,19.0446135 0,12.2678032 L0,12.2678032 Z" id="Shape" fill="#F65756"></path>
                    <path d="M18.130274,8.6844194 L12.0334586,12.6975496 L6.09827442,8.75414714 C6.21800611,8.30445644 6.62413281,7.97407207 7.10671632,7.97407207 L17.1431179,7.97407207 C17.6000284,7.97407207 17.9887589,8.27098762 18.130274,8.6844194 Z M18.1873757,9.29938789 L18.1873757,15.2512168 C18.1873757,15.834665 17.7198455,16.3065282 17.1431179,16.3065282 L7.10671632,16.3065282 C6.53034029,16.3065282 6.06245855,15.8340492 6.06245855,15.2512168 L6.06245855,9.419656 L12.0334588,13.4581082 L18.1873757,9.29938789 Z" id="Email-color" fill="#FFFFFF"></path>
                    <rect id="500x500" x="0" y="0" width="24.2498342" height="24.5356064"></rect>
                </g>
                <g id="telegram_color" transform="translate(470.072273, 426.978325)">
                    <ellipse id="Oval" fill="url(#linearGradient-4)" cx="21.5328147" cy="21.7459973" rx="21.5328147" ry="21.7459973"></ellipse>
                    <g id="Group-2" transform="translate(10.766407, 13.047598)">
                        <path d="M8.13724805,17.0927787 C7.49842807,17.0927787 7.60697948,16.8491817 7.38665593,16.2349037 L5.50808874,9.99112741 L19.9684649,1.32759446" id="Shape" fill="#C8DAEA"></path>
                        <path d="M8.13724805,17.0927787 C8.63021542,17.0927787 8.84802483,16.8650962 9.12318279,16.5949308 L11.7523421,14.0130914 L8.4727945,12.0158915" id="Shape" fill="#A9C9DD"></path>
                        <path d="M8.47246586,12.0163894 L16.4190999,17.9455922 C17.3259133,18.4508912 17.9803932,18.1892721 18.2062709,17.0953509 L21.4409585,1.70139528 C21.7721339,0.360491681 20.9348289,-0.247679341 20.0673213,0.150067959 L1.07328856,7.54659454 C-0.223232057,8.07177432 -0.215673224,8.80226657 0.83696,9.12775955 L5.71125703,10.664168 L16.9957731,3.47441427 C17.5284901,3.14817453 18.0174151,3.32356801 17.6161232,3.68324488" id="Shape" fill="url(#linearGradient-5)"></path>
                    </g>
                    <rect id="500x500" x="0" y="0" width="43.0656294" height="43.4919945"></rect>
                </g>
                <g id="viber-icon" transform="translate(341.399474, 486.541985)">
                    <ellipse id="Oval-2" fill="#7B519D" cx="16.5916301" cy="16.7871541" rx="16.5916301" ry="16.7871541"></ellipse>
                    <path d="M23.310901,20.5414611 C22.8049394,20.1293366 22.2642599,19.7594318 21.732042,19.3815531 C20.6705929,18.6272646 19.699734,18.5686354 18.9076913,19.7821784 C18.4629113,20.4634848 17.8402691,20.493324 17.1892138,20.1944288 C15.3944148,19.3710192 14.008475,18.1023304 13.1966468,16.2565835 C12.8375211,15.4399726 12.8422497,14.7078431 13.682491,14.1302813 C14.127354,13.8248391 14.5755352,13.4634118 14.5396973,12.7959968 C14.4929089,11.925751 12.4045626,9.01750344 11.5798759,8.71055043 C11.2386277,8.58351369 10.8987898,8.59178136 10.55161,8.70983698 C8.6178562,9.36780926 7.81689553,10.9768994 8.5839678,12.8821568 C10.8723676,18.5663692 14.8995696,22.5235197 20.4432461,24.9387707 C20.7593166,25.0762994 21.1104368,25.1312773 21.2882161,25.1806315 C22.5503409,25.1934737 24.0288621,23.9631436 24.4558475,22.7421304 C24.8669465,21.5674497 23.9981261,21.1011866 23.310901,20.5414611 Z M17.0950563,9.29331629 L17.0950563,9.29331629 C16.7592833,9.24106629 16.2475976,9.3148458 16.2728584,8.86578959 C16.3107702,8.19971751 16.9185214,8.44741188 17.2122347,8.40464662 C21.1052519,8.53760083 24.4573823,12.1435642 24.4098473,16.0333144 C24.4051186,16.4151801 24.5405893,16.9807391 23.9783821,16.9698694 C23.4404401,16.9592935 23.5808882,16.385257 23.5330214,16.003769 C23.0169389,11.8737108 21.1478509,9.92388355 17.0950563,9.29331629 Z M17.8878041,10.4257353 L17.8878041,10.4257353 C20.3887426,10.7295827 22.431379,12.9248381 22.4111787,15.3367317 C22.3730594,15.6221552 22.5377313,16.1107871 22.081835,16.1810413 C21.466659,16.275511 21.5862431,15.7054614 21.526057,15.3392078 C21.1139211,12.827011 20.242363,11.9052287 17.7392676,11.339208 C17.3707262,11.2557339 16.7971537,11.3140693 16.8922652,10.739655 C16.9833532,10.192394 17.4979839,10.3782277 17.8878041,10.4257353 Z M18.1176396,12.3979735 L18.1176396,12.3979735 C19.2272045,12.3701068 20.5274486,13.7154289 20.5090734,14.8793658 C20.5204801,15.1975242 20.4868406,15.5325538 20.1148149,15.5774594 C19.8463624,15.6095228 19.6699935,15.3816793 19.6422855,15.1004945 C19.5397077,14.0644757 18.9993185,13.4518707 17.9725044,13.2850903 C17.6649371,13.2351066 17.3627622,13.1348454 17.5064042,12.7143273 C17.6020549,12.4329747 17.8574415,12.4044785 18.1176396,12.3979735 Z" id="Combined-Shape" fill="#FFFFFF"></path>
                </g>
                <g id="messenger_color" transform="translate(368.311432, 141.923664)">
                    <ellipse id="Oval-4" stroke="#1B91FB" stroke-width="0.85413929" fill="#FFFFFF" cx="33.397986" cy="33.7915646" rx="33.397986" ry="33.7915646"></ellipse>
                    <ellipse id="Oval-3" fill="#0084FF" cx="33.2292912" cy="33.581295" rx="21.0105159" ry="21.2185275"></ellipse>
                    <polygon id="Messenger-color" fill="#FFFFFF" points="34.8880162 38.8802614 30.766336 34.4134788 22.7240333 38.8802614 31.5705663 29.3375895 35.7927752 33.8043721 43.7345492 29.3375895"></polygon>
                    <rect id="500x500" x="12.2187754" y="12.3627675" width="42.0210317" height="42.437055"></rect>
                </g>
                <g id="Group-8" transform="translate(5.000000, 238.076430)">
                    <path d="M111.819316,92.0030673 C103.818634,109.800578 102.969493,119.929851 109.271894,122.390888 C118.725495,126.082442 123.372006,122.206206 127.104449,126.082442 C132.737083,123.084654 135.553399,120.023921 135.553399,116.900245 C135.553399,112.21473 121.472858,111.489341 118.402179,109.927924 C116.35506,108.88698 116.35506,103.468916 118.402179,93.6737327 C116.935968,92.7187145 115.890087,92.1618261 115.264536,92.0030673 C114.638984,91.8443086 113.490578,91.8443086 111.819316,92.0030673 Z" id="Path-8" fill="#315890"></path>
                    <path d="M129.908067,125.089373 C130.934491,123.026026 130.677813,121.386605 129.138032,120.171109" id="Path-9" stroke="#FFFFFF" stroke-width="1.70827858"></path>
                    <path d="M133.674136,121.920017 C134.70056,119.85667 134.443882,118.217249 132.904101,117.001753" id="Path-9-Copy" stroke="#FFFFFF" stroke-width="1.70827858"></path>
                    <path d="M40.0771648,94.2468061 C43.7981319,108.381802 60.6649236,115.790088 90.67754,116.471665 C120.690156,117.153241 138.743548,110.148151 144.837716,95.4563937 L40.0771648,94.2468061 Z" id="Path-57" fill="#C1E0F4"></path>
                    <path d="M53.3362249,106.74004 C45.3355427,124.537551 44.486402,134.666824 50.7888027,137.127861 C60.2424038,140.819415 64.8889147,136.943179 68.6213578,140.819415 C74.2539912,137.821627 77.0703079,134.760894 77.0703079,131.637218 C77.0703079,126.951703 62.9897665,126.226314 59.9190877,124.664897 C57.8719686,123.623953 57.8719686,118.205889 59.9190877,108.410706 C58.4528767,107.455688 57.4069955,106.898799 56.7814442,106.74004 C56.155893,106.581282 55.0074865,106.581282 53.3362249,106.74004 Z" id="Path-8" fill="#315890"></path>
                    <path d="M71.4249751,139.826346 C72.4513995,137.762999 72.1947213,136.123578 70.6549405,134.908082" id="Path-9" stroke="#FFFFFF" stroke-width="1.70827858"></path>
                    <path d="M75.1910444,136.65699 C76.2174688,134.593643 75.9607906,132.954222 74.4210097,131.738726" id="Path-9-Copy" stroke="#FFFFFF" stroke-width="1.70827858"></path>
                    <path d="M45.5272961,95.8210914 C37.9047398,95.9032752 33.9596592,92.1138617 33.6920544,84.4528507 C33.2906471,72.9613342 26.1030645,65.0824985 17.0980035,65.0824985 C8.09294254,65.0824985 1.39131517,51.4228407 19.6584808,49.736491 C37.9256464,48.0501414 40.8546649,65.6849015 40.8546649,68.3242679 L42.3156313,67.7068926 C37.9263099,83.3536437 40.9830348,91.6125859 51.4858061,92.4837192 L45.5272961,95.8210914 Z" id="Path-11" fill="#315890" transform="translate(29.789598, 72.722735) rotate(-12.000000) translate(-29.789598, -72.722735) "></path>
                    <path d="M93.1777411,106.979716 C96.4618646,106.979716 99.6754641,106.306556 102.792292,106.167611 C108.363423,105.919257 113.625375,106.059562 118.428257,105.423516 C121.898914,104.963896 125.129854,104.412468 128.064517,103.782835 C134.848583,102.327311 140.049357,100.453866 142.968119,98.3305626 C144.680846,97.0846094 145.012004,95.7526221 145.012004,94.3685589 C145.012004,92.8896544 144.549457,91.4702071 142.605007,90.1516455 C141.599267,89.4696378 140.356465,88.8146203 138.900432,88.192326 C133.864559,86.0400411 126.278013,84.8797247 117.126857,83.7474944 C109.948002,82.8592879 101.806285,81.757402 93.1777411,81.757402 C88.5043544,81.757402 83.9737788,81.9044752 79.6616495,82.1804288 C76.5177432,82.3816223 73.4899551,83.2518552 70.6075981,83.5830144 C67.8659259,83.89801 65.2558345,83.6680789 62.8025506,84.0882158 C53.4856039,85.6837887 47.0260674,87.993823 43.6141264,90.6859556 C42.1376828,91.8509178 40.7476821,93.0874293 40.7476821,94.3685589 C40.7476821,95.9475809 41.954169,97.458823 44.157505,98.8518606 C45.1463773,99.4770653 46.3360425,100.07846 47.707549,100.651487 C48.4956837,100.980777 49.3438664,101.300698 50.2485006,101.610387 C52.0579342,102.229821 54.0932153,102.207785 56.3255657,102.73842 C60.9033094,103.826559 66.3097526,105.31397 72.2967351,105.939898 C78.6949962,106.608824 85.756297,106.979716 93.1777411,106.979716 Z" id="Oval-9" stroke="#315890" stroke-width="1.70827858" fill="#FFFFFF"></path>
                    <path d="M61.5737447,89.1536782 C62.3099275,78.8963588 62.979201,71.7501584 63.5815649,67.7150771 C64.8252694,59.3838204 66.7482685,53.5626918 68.15897,50.2516912 C69.8471109,46.2895238 72.3926397,43.3461781 74.6039643,41.4216542 C77.8574569,38.5901275 81.6867327,35.8740643 86.0917918,34.4745272 C93.9630614,31.9737357 99.457499,33.6941581 105.047026,39.676078 C107.281005,42.0668849 110.37672,45.0519486 112.348385,48.8527865 C115.384616,54.7058189 118.889713,62.3348089 120.965199,71.5672194 C121.800051,75.2808995 122.618066,81.4291634 123.419245,90.0120111 L123.419219,90.0120136 C123.648099,92.4639629 122.016708,94.7031198 119.612612,95.2367508 C119.612612,95.2367508 119.612612,95.2367508 119.612612,95.2367508 C104.947269,98.4919788 97.0073664,98.4003923 89.5926107,98.4003923 C82.9324531,98.4003923 74.8424149,97.0872048 65.3224959,94.4608299 L65.3224963,94.4608282 C62.9678237,93.8112163 61.3988828,91.590049 61.5737447,89.1536782 Z" id="Path-56" stroke="#C1E0F4" stroke-width="1.70827858" fill="#FFFFFF"></path>
                    <path d="M70.6395497,89.0797078 C73.4781469,89.8091944 75.5974344,90.3181278 76.9974121,90.6065077 C79.4746396,91.1167893 80.4886241,92.1204192 82.9120787,92.4181699 C85.613872,92.7501179 89.7186047,92.3503754 92.3535638,92.4181699 C94.8080373,92.4813206 97.5801002,92.5842248 99.9765818,92.4181699 C103.558482,92.1699759 106.72902,91.5114056 110.181368,90.7511713 C112.281331,90.2887427 114.357328,89.7315882 116.409358,89.0797078 C116.607913,86.5873467 116.607913,84.4368179 116.409358,82.6281213 C116.293208,81.5700773 115.97539,78.3439612 115.845409,77.3372401 C115.60091,75.4435454 114.769604,73.6406501 114.476167,71.9285543 C114.119302,69.8463836 113.761627,67.7064045 113.332383,65.8928239 C112.736039,63.3732347 112.034466,61.3049554 111.29842,59.303779 C110.490705,57.1077464 109.598874,55.2238561 108.622927,53.6521079 C108.111364,52.8282435 107.385319,51.9356698 106.444791,50.9743867 L106.444812,50.9743655 C105.765417,50.2799773 104.651745,50.2678234 103.957356,50.9472191 C103.788879,51.112059 103.655249,51.309078 103.564405,51.5265731 C103.564405,51.5265731 103.564405,51.5265731 103.564405,51.5265731 C102.976959,52.9330051 102.683237,53.9739193 102.683237,54.6493158 C100.877277,54.059776 99.5676134,53.7273734 98.7542472,53.6521079 C93.088813,53.1278525 89.5402177,53.7569645 88.1680913,54.3823651 C88.1680913,53.0176036 88.1680913,52.0656729 88.1680913,51.5265731 C88.1680913,51.5265731 88.1680913,51.5265731 88.1680913,51.5265731 L88.1680913,51.5265731 C88.1680913,50.1373995 87.0419436,49.0112519 85.65277,49.0112519 C85.0330852,49.0112519 84.4352094,49.2400044 83.9737873,49.6536455 C81.1309927,52.2020888 79.2562375,54.0687352 78.3495341,55.2535984 C75.4199711,59.0818973 73.9895201,63.2637501 72.9343929,65.8928239 C71.621745,69.1635651 71.563366,73.2595431 71.093065,76.8192107 C70.8593013,78.5885475 70.6894581,80.6949045 70.5307276,82.6281213 C70.4012306,84.1489419 70.4375047,86.2994707 70.6395497,89.0797078 Z" id="Path-58" stroke="#315890" stroke-width="1.70827858" fill="#C1E0F4"></path>
                    <rect id="Rectangle" fill="#3A6499" x="94.1028194" y="68.256381" width="3.37402451" height="4.53445324" rx="1.68701225"></rect>
                    <rect id="Rectangle-Copy" fill="#3A6499" x="107.03658" y="68.256381" width="3.37402451" height="4.53445324" rx="1.68701225"></rect>
                    <path d="M99.1343487,79.5274853 C96.7806346,79.2999454 95.5727404,78.5445895 95.5106663,77.2614175 C95.417555,75.3366596 98.5856512,73.3295351 101.782767,75.5722746 C104.758231,73.9768036 107.76681,73.9721379 108.40399,76.7498116 C108.828776,78.6015941 107.581715,79.4612092 104.662806,79.3286571 L102.337339,77.7487979 L100.201834,79.3286571 L99.1343487,79.5274853 Z" id="Path-70" fill="#FFFFFF"></path>
                    <ellipse id="Oval-2" fill="#FFFFFF" cx="89.3229513" cy="76.7584808" rx="3.37402451" ry="2.26722662"></ellipse>
                    <ellipse id="Oval-2-Copy" fill="#FFFFFF" cx="113.50346" cy="76.7584808" rx="1.47769352" ry="2.26722662"></ellipse>
                    <path d="M98.0423063,76.91351 C98.1089837,78.7745996 98.5740528,79.7051443 99.4375135,79.7051443 C100.300974,79.7051443 101.269903,79.1212153 102.344298,77.9533572 C103.15293,79.1212153 103.998247,79.7051443 104.880251,79.7051443 C105.762254,79.7051443 106.02182,78.6365716 105.658947,76.499426" id="Path-69" stroke="#315890" stroke-width="1.70827858"></path>
                    <path d="M127.852238,57.0427145 C128.568856,57.6955273 129.005924,58.1856556 129.163445,58.5130995 C129.431068,59.069418 130.243911,59.6270675 130.4773,60.1860479 C130.707948,60.7384639 130.921878,61.2921799 131.119091,61.8471956 C131.350406,62.4981829 131.558721,62.5841518 131.744038,63.2387155 C131.854665,63.6294644 131.957096,64.5876572 132.051331,64.9796807 C132.185874,65.5393872 132.633684,66.1168621 132.734813,66.6791667 C132.878558,67.4784302 132.658576,68.2638487 132.734813,69.0683612 C132.787703,69.6264989 132.824347,70.1858999 132.844745,70.746564 C132.868273,71.3932616 132.870186,72.0416398 132.850485,72.6916986" id="Path-7" stroke="#315890" stroke-width="1.70827858"></path>
                    <path d="M132.236985,53.1751239 C133.307821,54.1506175 133.96093,54.8830128 134.196312,55.3723097 C134.596219,56.2036126 135.810845,57.0369042 136.159596,57.8721845 C136.504252,58.697656 136.823926,59.5250697 137.11862,60.3544258 C137.464272,61.3271915 137.775556,61.4556541 138.052474,62.433764 C138.217783,63.0176573 138.370844,64.449478 138.511659,65.0352758 C138.712705,65.8716413 139.381865,66.734558 139.532981,67.5748056 C139.74778,68.7691393 139.419061,69.9427847 139.532981,71.1449619 C139.612015,71.9789832 139.666771,72.814892 139.697252,73.6526884 C139.732409,74.619044 139.735269,75.5879109 139.705829,76.5592891" id="Path-7-Copy" stroke="#315890" stroke-width="1.70827858"></path>
                    <polyline id="Path-4" stroke="#315890" stroke-width="1.70827858" fill="#FFFFFF" points="56.9526636 91.030313 55.8950121 83.857186 55.3161636 79.9313626 55.2416495 73.855623 53.5156393 67.719978 52.0236564 57.6011611 51.9283988 50.5568776 49.5019572 40.4986772 48.596966 34.3609121 47.4945792 26.8843848 45.8376507 21.2172604 45.2715539 11.8075454 44.2505481 4.88295491 44.3519057 0"></polyline>
                    <path d="M44.3032298,3.47557858 L0.660158062,10.5773172 L5.67084866,40.1922882 L48.5077021,34.3171341 C44.5712469,30.9086199 42.1775152,26.747553 41.3265069,21.8339334 C40.4754986,16.9203138 41.4677396,10.8008622 44.3032298,3.47557858 Z" id="Path-10" stroke="#315890" stroke-width="1.70827858" fill="#C1E0F4"></path>
                    <g id="github_color-copy" transform="translate(22.181930, 23.262575) rotate(-13.000000) translate(-22.181930, -23.262575) translate(9.874238, 10.762575)">
                        <ellipse id="Oval-3" fill="#315890" cx="11.9812752" cy="12.0764977" rx="11.9812752" ry="12.0764977"></ellipse>
                        <ellipse id="Oval-3" fill="#FFFFFF" cx="11.6817433" cy="12.3784101" rx="8.68642451" ry="8.75546081"></ellipse>
                        <path d="M2.15826155,12.3059996 C2.15826155,16.4089855 5.56982744,19.8894258 9.14059976,21.117414 C9.59018719,21.2029286 9.75402457,20.9161699 9.75402457,20.6698881 C9.75402457,20.4498308 9.7463016,19.8654817 9.74188847,19.0907203 C7.24240301,19.6516954 6.71503419,17.8456291 6.71503419,17.8456291 C6.3062682,16.7727071 5.71711559,16.4870887 5.71711559,16.4870887 C4.90123852,15.911291 5.77889938,15.922693 5.77889938,15.922693 C6.68083245,15.9882541 7.15524373,16.8798853 7.15524373,16.8798853 C7.95677813,18.298856 9.25865094,17.8889565 9.7705738,17.6512262 C9.85221667,17.0514844 10.0844575,16.642155 10.3409706,16.4101256 C8.34568505,16.1758159 6.24779425,15.3788207 6.24779425,11.8202772 C6.24779425,10.8066452 6.5980863,9.97715456 7.17289624,9.32838452 C7.08022055,9.09350469 6.77185322,8.14885446 7.2611588,6.87069768 C7.2611588,6.87069768 8.01525208,6.62099533 9.73195893,7.82275916 C10.4485406,7.61638415 11.2175282,7.51376675 11.981551,7.50977607 C12.7450222,7.51376675 13.5134581,7.61638415 14.2311431,7.82275916 C15.9467467,6.62099533 16.6997367,6.87069768 16.6997367,6.87069768 C17.1901455,8.14885446 16.8817782,9.09350469 16.7896541,9.32838452 C17.3655674,9.97715456 17.7131012,10.8066452 17.7131012,11.8202772 C17.7131012,15.3879423 15.6119006,16.1729654 13.6105469,16.4027144 C13.9327053,16.689473 14.2201103,17.2561491 14.2201103,18.1226961 C14.2201103,19.3637966 14.2090774,20.3654565 14.2090774,20.6698881 C14.2090774,20.9184503 14.3712599,21.2074893 14.8269154,21.116844 C18.3949295,19.8860052 20.9672316,16.4078453 20.9672316,12.3059996 C20.9672316,7.1768396 16.943562,3.01912442 11.9804477,3.01912442 C7.01898839,3.01912442 2.15826155,7.1768396 2.15826155,12.3059996 Z" id="github_color" fill="#315890"></path>
                    </g>
                </g>
                <g id="Group-3" transform="translate(230.387648, 214.250966)">
                    <g id="Group">
                        <path d="M85.9206175,122.033161 C106.318599,148.309982 114.107033,167.552774 109.285919,179.761537 C132.592139,181.189487 144.245249,181.903462 144.245249,181.903462 C159.081155,162.143338 159.204881,137.979545 144.616424,109.412083 C130.027968,80.8446214 110.462699,85.0516475 85.9206175,122.033161 Z" id="Path-6" fill="#44B8FF"></path>
                        <path d="M131.415454,127.006454 C144.660538,139.58597 151.010502,154.604372 150.465344,172.06166 C154.444472,165.441471 156.222549,156.452914 155.799576,145.095987 C155.376603,133.73906 149.831428,125.668073 139.16405,120.883025 L131.415454,127.006454 Z" id="Path-38" fill="#3390D5"></path>
                        <path d="M102.936379,122.861039 C122.955499,131.727806 135.597965,130.325146 140.863777,118.653061 C146.12959,106.980976 133.487124,108.383635 102.936379,122.861039 Z" id="Path-37" fill="#3390D5"></path>
                        <path d="M147.605958,111.846846 C185.775855,147.164767 200.522998,172.289832 191.847384,187.222042 C183.171771,202.154251 153.54243,203.395896 102.959363,190.946979 C103.236728,175.831532 101.550651,166.463201 97.9011313,162.841985 C92.4268513,157.410163 153.388142,183.805214 159.371825,169.723541 C163.360948,160.335759 155.734449,142.148227 136.492329,115.160944 L147.605958,111.846846 Z" id="Path-5" fill="#C1E0F4"></path>
                        <path d="M74.9838572,114.999948 C70.337409,130.66489 64.5724497,138.878389 57.6889791,139.640444 C50.8055086,140.402499 54.4498045,150.13033 68.6218668,168.823938 C83.7595836,143.890076 89.3496729,127.401306 85.3921347,119.357629 C81.4345966,111.313951 77.9651707,109.861391 74.9838572,114.999948 Z" id="Path-36" fill="#C1E0F4" transform="translate(70.467957, 140.409650) rotate(10.000000) translate(-70.467957, -140.409650) "></path>
                        <path d="M102.240805,5.12146443 C105.82307,8.77316123 108.705313,11.2384397 110.887535,12.5172999 C114.684357,14.7423735 110.533079,15.47506 107.090713,14.7423735 C103.648347,14.009687 97.1484015,13.3132742 97.1484015,9.47123214 C97.1484015,7.99114513 97.5179321,6.67704462 98.2569933,5.52893061 L98.2569994,5.52893449 C99.0229932,4.33898121 100.608602,3.99529421 101.798555,4.76128809 C101.958916,4.86451509 102.107251,4.98532206 102.240805,5.12146443 Z" id="Path-2" fill="#315890" transform="translate(104.772998, 9.666312) scale(1, -1) rotate(-52.000000) translate(-104.772998, -9.666312) "></path>
                        <path d="M55.3047732,17.3917076 C57.1245604,12.3244803 59.7445127,8.04447037 63.5234111,7.88803532 C67.3023095,7.73160027 68.0733397,11.4036804 66.714323,12.5927744 C65.3553064,13.7818683 60.8182399,15.9970695 58.2828726,20.2616073 C55.7475054,24.5261451 53.4849859,22.458935 55.3047732,17.3917076 Z" id="Path-3" fill="#315890"></path>
                        <g id="Path-32" transform="translate(46.798234, 20.059719)">
                            <mask id="mask-7" fill="white">
                                <use xlink:href="#path-6"></use>
                            </mask>
                            <use id="Mask" fill="#44B8FF" xlink:href="#path-6"></use>
                            <path d="M-3.55952967,40.3653117 C-2.28355973,35.1155743 -0.189947576,32.4907056 2.7213068,32.4907056 C7.08818837,32.4907056 10.0491651,36.3914206 29.5960123,33.924325 C49.1428596,31.4572294 69.5650511,22.8690972 82.2203104,29.0266768 C94.8755697,35.1842564 95.3518647,81.7313241 84.4223004,101.126185 C77.1359241,114.056093 58.370306,122.25356 28.1254462,125.718588 L6.69675262,112.390522 L-8.69276041,56.2951456 L-3.55952967,40.3653117 Z" fill="#3390D5" mask="url(#mask-7)"></path>
                            <rect id="Rectangle-4" fill="#FFFFFF" mask="url(#mask-7)" transform="translate(55.462007, 70.424640) rotate(-6.000000) translate(-55.462007, -70.424640) " x="51.7473454" y="64.7746738" width="7.42932371" height="11.2999333" rx="3.71466185"></rect>
                            <rect id="Rectangle-4-Copy" fill="#FFFFFF" mask="url(#mask-7)" transform="translate(17.077168, 72.935737) rotate(-6.000000) translate(-17.077168, -72.935737) " x="13.3625062" y="67.2857701" width="7.42932371" height="11.2999333" rx="3.71466185"></rect>
                        </g>
                        <path d="M151.718844,58.8611952 C145.698209,68.9257189 145.196532,81.3892691 150.213811,96.2518456 C162.117441,96.4123932 167.782206,89.6575004 167.208106,75.9871673 C166.634007,62.3168342 161.470919,56.6081768 151.718844,58.8611952 Z" id="Path-20" fill="#3390D5"></path>
                        <path d="M9.72116516,135.677941 L58.4066021,135.677941 L58.4066021,135.67795 C59.7321504,135.67795 60.9380686,136.444676 61.5004362,137.645018 C65.8125133,146.848903 69.4123431,156.441951 72.2999253,166.424161 C75.088096,176.06271 77.9960154,187.201988 81.0236836,199.841994 L81.0236892,199.841993 C81.4632297,201.677001 80.3319798,203.520886 78.4969718,203.960427 C78.2362912,204.022868 77.9691679,204.054414 77.7011132,204.054414 L29.462012,204.054414 L29.462012,204.054414 C27.9771289,204.054414 26.6622571,203.095318 26.208722,201.681393 L6.46787516,140.138034 L6.46787516,140.138034 C5.89154624,138.341291 6.88088689,136.417537 8.67762934,135.841208 C9.01490839,135.733021 9.36695968,135.677941 9.72116516,135.677941 Z" id="Path-33-Copy" fill="#3390D5"></path>
                        <path d="M3.53006207,135.677941 L51.8654171,135.677941 L51.8654171,135.677941 C53.3582351,135.677941 54.6782101,136.64714 55.1252117,138.071462 L74.4396387,199.614821 L74.4396387,199.614821 C75.0046458,201.415156 74.0032148,203.332644 72.20288,203.897651 C71.8718073,204.001553 71.5268381,204.054414 71.1798441,204.054414 L23.2709089,204.054414 L23.2709089,204.054414 C21.7860258,204.054414 20.471154,203.095318 20.0176189,201.681393 L0.276772073,140.138034 L0.276772073,140.138034 C-0.299556848,138.341291 0.689783796,136.417537 2.48652625,135.841208 C2.8238053,135.733021 3.17585659,135.677941 3.53006207,135.677941 Z" id="Path-33" fill="#44B8FF"></path>
                        <path d="M75.0446577,156.861338 C77.5832796,150.60206 79.8335862,145.800661 91.3284306,148.880437 C102.823275,151.960214 112.424698,178.768768 111.270014,188.513339 C110.547425,194.611388 107.228147,197.847366 101.312178,198.221274 L101.312179,198.221291 C100.604506,198.266018 99.9427752,197.86892 99.6493038,197.223415 L96.6836293,190.70027 L96.6836234,190.700273 C96.1893103,189.613007 96.5117055,188.328425 97.4608473,187.603427 C99.2333659,186.249496 100.119625,183.82596 100.119625,180.33282 C100.119625,173.569174 90.243273,163.355338 83.2369787,168.830887 C76.2306844,174.306436 72.5060358,163.120616 75.0446577,156.861338 Z" id="Path-34" fill="#3390D5"></path>
                        <path d="M3.24814399,160.521683 C8.86184003,155.635505 12.1354304,154.297575 13.0689152,156.507894 C14.5528286,160.021527 15.4576129,173.287517 13.0689152,177.121035 C10.6802175,180.954553 15.5150955,188.880147 10.6802175,189.544852 C7.53349418,189.977467 4.76993313,181.057693 2.38953435,162.785529 L2.38951763,162.785531 C2.27868338,161.934757 2.60098884,161.084969 3.24814399,160.521683 Z" id="Path-35" fill="#3390D5" transform="translate(8.455086, 172.517548) rotate(-8.000000) translate(-8.455086, -172.517548) "></path>
                        <path d="M157.866979,152.428594 C164.277184,141.898985 171.880917,138.389115 180.678178,141.898985" id="Path-41" stroke="#FFFFFF" stroke-width="1.70827858"></path>
                        <path d="M148.801449,133.801986 C151.270651,126.869168 155.765594,124.05365 162.286278,125.355431" id="Path-42" stroke="#FFFFFF" stroke-width="1.70827858"></path>
                        <path d="M73.9131681,98.3790433 C74.9188863,102.319424 77.3734451,104.46006 81.2768444,104.800951 C85.2016181,105.14371 88.0203129,103.032677 89.7329287,98.467852 L89.7329487,98.4678595 C89.8986561,98.0261814 89.6749375,97.5337981 89.2332594,97.3680908 C89.1373207,97.3320968 89.0356882,97.3136592 88.9332197,97.3136592 L74.7408201,97.3136592 L74.7408201,97.3136133 C74.2690667,97.3136133 73.886635,97.6960451 73.886635,98.1677985 C73.886635,98.2390444 73.8955485,98.3100104 73.9131681,98.3790433 Z" id="Path-45" fill="#FFFFFF" transform="translate(81.836896, 101.075260) rotate(-3.000000) translate(-81.836896, -101.075260) "></path>
                        <path d="" id="Path-22" stroke="#979797" stroke-width="0.85413929"></path>
                        <path d="M136.499729,199.043468 C141.209435,187.648226 141.209435,178.063145 136.499729,170.288228" id="Path-39" stroke="#FFFFFF" stroke-width="1.70827858"></path>
                        <path d="M157.299252,167.721315 C178.294127,169.345784 189.592589,177.067092 191.19464,190.885236" id="Path-40" stroke="#FFFFFF" stroke-width="1.70827858"></path>
                        <path d="M67.3529743,131.379759 C75.4896363,132.099227 81.0761045,136.477105 84.1123787,144.513392" id="Path-44" stroke="#FFFFFF" stroke-width="1.70827858"></path>
                    </g>
                    <path d="M119.126014,135.917455 L119.126014,134.180981 C119.126014,133.747913 119.527012,133.398696 120.007998,133.398696 C120.493683,133.398696 120.889982,133.747772 120.889982,134.180981 L120.889982,135.700255 C121.029913,135.694785 121.170549,135.692024 121.311837,135.692024 C127.088993,135.692024 131.774743,140.308221 131.774743,146.005699 C131.774743,148.101661 131.140609,150.051291 130.051288,151.678601 C130.08246,152.172935 130.215458,152.417324 130.517297,152.641817 C130.547367,152.664182 130.629532,152.720475 130.737475,152.793018 C130.802928,152.836915 130.802928,152.836915 130.854048,152.870991 C130.875212,152.885071 130.875212,152.885071 130.898382,152.900423 C130.897027,152.899546 130.904576,152.904543 130.904576,152.904543 C131.621271,153.397481 131.904589,153.98278 131.749007,154.793689 C131.490219,156.142525 130.203382,156.579147 128.351547,156.202185 C127.474769,156.023707 126.568239,155.677429 125.899146,155.2778 C124.513915,155.944965 122.957137,156.319374 121.311837,156.319374 C115.534682,156.319374 110.848932,151.703176 110.848932,146.005699 C110.848932,141.837999 113.356235,138.248882 116.963947,136.621981 C116.951209,136.563177 116.944498,136.501987 116.944498,136.439108 L116.944498,135.664705 C116.944498,135.205383 117.317054,134.827937 117.767736,134.827937 C118.224771,134.827937 118.590974,135.200206 118.590974,135.664705 L118.590974,136.044233 C118.767521,135.997491 118.945912,135.955188 119.126014,135.917453 Z M128.075514,151.026738 C129.14719,149.629838 129.782617,147.890612 129.782617,146.005699 C129.782617,141.401605 125.991467,137.666729 121.311837,137.666729 C116.632208,137.666729 112.841058,141.401605 112.841058,146.005699 C112.841058,150.609793 116.632208,154.344669 121.311837,154.344669 C123.016853,154.344669 124.603923,153.848865 125.932654,152.995861 C126.250646,153.251165 126.250646,153.251165 126.250646,153.251165 C126.813692,153.597955 128.053668,154.125632 128.752319,154.26785 C129.0397,154.32635 129.299214,154.354293 129.50891,154.352683 C129.427234,154.296944 129.362,154.251345 129.321666,154.221346 C128.608009,153.690563 128.187363,152.835433 128.083415,151.755221 C128.083415,151.755221 128.083415,151.755221 128.083415,151.084055 C128.083415,151.061608 128.080719,151.042568 128.075514,151.026738 Z M123.519859,142.981446 C123.519859,144.514146 122.244279,145.753356 120.674824,145.753356 C119.10537,145.753356 117.82979,144.514146 117.82979,142.981446 C117.82979,141.448747 119.10537,140.209537 120.674824,140.209537 C122.244279,140.209537 123.519859,141.448747 123.519859,142.981446 Z M122.321171,148.354384 C121.77671,148.354384 121.335337,147.919562 121.335337,147.383183 C121.335337,146.846803 121.77671,146.411981 122.321171,146.411981 C122.865633,146.411981 123.307006,146.846803 123.307006,147.383183 C123.307006,147.919562 122.865633,148.354384 122.321171,148.354384 Z M120.379764,148.077211 C120.379764,149.077944 119.546125,149.887813 118.519489,149.887813 C117.492852,149.887813 116.659214,149.077944 116.659214,148.077211 C116.659214,147.076477 117.492852,146.266608 118.519489,146.266608 C119.546125,146.266608 120.379764,147.076477 120.379764,148.077211 Z" id="Combined-Shape-Copy" fill="#FFFFFF" fill-rule="nonzero"></path>
                    <ellipse id="Oval-17" fill="#FFFFFF" transform="translate(34.850133, 171.284503) rotate(-11.000000) translate(-34.850133, -171.284503) " cx="34.8501333" cy="171.284503" rx="6.97002666" ry="10.8092162"></ellipse>
                </g>
                <path d="M231.651705,298.214352 C231.655649,298.212815 231.659579,298.211276 231.663496,298.209736 C234.024991,297.280937 235.915208,295.391642 236.869334,293.013862 C236.872061,293.007068 236.874781,293.000234 236.877496,292.993361 L236.877448,292.993342 C237.023406,292.623819 237.441286,292.442585 237.810808,292.588543 C237.99527,292.661404 238.141469,292.807187 238.214853,292.991442 C238.214853,292.991442 238.214853,292.991442 238.214853,292.991442 C239.16238,295.370491 241.046044,297.263272 243.402084,298.19884 C243.406291,298.20051 243.410514,298.202179 243.414752,298.203845 L243.414772,298.203796 C243.764861,298.341407 243.937108,298.736767 243.799497,299.086856 C243.730428,299.262571 243.591521,299.401733 243.415932,299.471124 C243.415932,299.471124 243.415932,299.471124 243.415932,299.471124 C240.99534,300.42772 239.071625,302.394089 238.146539,304.860707 C238.143868,304.867828 238.141204,304.874994 238.138546,304.882204 L238.138552,304.882206 C238.018032,305.209132 237.655305,305.376457 237.328379,305.255937 C237.155723,305.192288 237.019461,305.05643 236.955299,304.883963 C236.955299,304.883963 236.955299,304.883963 236.955299,304.883963 C236.030246,302.397423 234.091346,300.416331 231.650652,299.460673 C231.650652,299.460673 231.650652,299.460673 231.650652,299.460673 L231.650652,299.460673 C231.306614,299.325965 231.136919,298.937864 231.271628,298.593826 C231.339764,298.419808 231.477584,298.282224 231.651718,298.214385 Z" id="Combined-Shape" fill="#C1E0F4"></path>
                <path d="M210.039655,225.891344 C210.04596,225.888887 210.052244,225.886428 210.058505,225.883965 C213.836897,224.397886 216.861244,221.375011 218.387847,217.570561 C218.392212,217.559684 218.396567,217.548743 218.400913,217.53774 L218.400889,217.537731 C218.634414,216.946511 219.303001,216.656542 219.894221,216.890066 C220.189354,217.00664 220.423265,217.239888 220.540678,217.534688 C220.540678,217.534688 220.540678,217.534688 220.540678,217.534688 C222.056721,221.34117 225.070584,224.369622 228.840248,225.866531 C228.846985,225.869206 228.853747,225.871878 228.860535,225.874546 L228.860546,225.874518 C229.420674,226.094688 229.696264,226.727245 229.476093,227.287373 C229.365586,227.568511 229.14334,227.791165 228.862406,227.902188 C228.862406,227.902188 228.862406,227.902188 228.862406,227.902188 C224.989458,229.432743 221.911513,232.578936 220.431375,236.525527 C220.4271,236.536926 220.422835,236.548396 220.41858,236.559938 L220.418542,236.559924 C220.225717,237.082991 219.645371,237.350705 219.122304,237.157879 C218.846061,237.056044 218.628047,236.838677 218.525391,236.562738 C218.525391,236.562738 218.525391,236.562738 218.525391,236.562738 C217.045306,232.58427 213.943066,229.41452 210.037955,227.885467 C210.037955,227.885467 210.037955,227.885467 210.037955,227.885467 L210.037955,227.885467 C209.487477,227.669926 209.215957,227.048946 209.431498,226.498469 C209.54052,226.220034 209.761036,225.999894 210.039657,225.891348 Z" id="Combined-Shape-Copy-3" fill="#FFFFFF" transform="translate(219.454688, 227.014657) scale(-1, -1) translate(-219.454688, -227.014657) "></path>
                <path d="M141.162332,135.128969 C141.169425,135.126206 141.176494,135.123439 141.183538,135.120668 C145.434229,133.44883 148.83662,130.048096 150.554048,125.768089 C150.558958,125.755852 150.563858,125.743544 150.568747,125.731165 L150.56872,125.731155 C150.831435,125.066033 151.583596,124.739817 152.248718,125.002532 C152.580743,125.133678 152.843893,125.396081 152.975983,125.727731 C152.975983,125.727731 152.975983,125.727731 152.975983,125.727731 C154.681531,130.010024 158.072127,133.417033 162.312999,135.101055 C162.320578,135.104065 162.328185,135.107071 162.335821,135.110072 L162.335834,135.11004 C162.965978,135.357732 163.276016,136.069359 163.028325,136.699503 C162.904004,137.015782 162.653977,137.266268 162.337926,137.391169 C162.337926,137.391169 162.337926,137.391169 162.337926,137.391169 C157.98086,139.113043 154.518172,142.652511 152.853017,147.092426 C152.848207,147.105249 152.843409,147.118153 152.838623,147.131138 L152.83858,147.131122 C152.621651,147.719573 151.968763,148.020751 151.380312,147.803822 C151.069539,147.689257 150.824272,147.444719 150.708784,147.134288 C150.708784,147.134288 150.708784,147.134288 150.708784,147.134288 C149.043689,142.658511 145.553669,139.092543 141.160419,137.372358 C141.160419,137.372358 141.160419,137.372358 141.160419,137.372358 L141.160419,137.372358 C140.541132,137.129875 140.235672,136.431273 140.478155,135.811986 C140.600804,135.498747 140.848885,135.251089 141.162334,135.128974 Z" id="Combined-Shape-Copy-2" fill="#C1E0F4"></path>
                <g id="Group-7" transform="translate(542.398160, 221.058242)">
                    <path d="M58.9666095,49.1449737 C54.4974822,61.4161498 56.1294799,71.7226902 63.8626026,80.0645949 C75.4622867,92.577452 98.5858368,85.2384643 101.382133,97.4488145 C103.24633,105.589048 99.0977778,109.471007 88.9364752,109.09469" id="Path-83" stroke="#C1E0F4" stroke-width="8.5413929" stroke-linecap="round" stroke-linejoin="round"></path>
                    <path d="M25.065831,57.9014114 C20.5967036,68.7951412 22.2287013,77.9447668 29.961824,85.3502882 C41.5615081,96.4585702 64.6850582,89.9433879 67.4813543,100.78312 C69.3455517,108.009608 65.1969992,111.455814 55.0356966,111.121739" id="Path-83-Copy" stroke="#C1E0F4" stroke-width="8.5413929" stroke-linecap="round" stroke-linejoin="round" transform="translate(45.262706, 84.522647) rotate(37.000000) translate(-45.262706, -84.522647) "></path>
                    <path d="M61.9184068,57.7301181 C65.9106848,63.6213877 67.2414441,68.7918698 65.9106848,73.2415645 C63.9145458,79.9161066 50.6917362,97.9154267 58.2814136,113.406213 C63.3411985,123.733404 69.7575153,127.114541 77.530364,123.549624" id="Path-84" stroke="#C1E0F4" stroke-width="8.5413929" stroke-linecap="round" stroke-linejoin="round"></path>
                    <path d="M42.2276674,54.5307243 C47.0919511,60.395485 46.3159346,66.3454527 39.8996178,72.3806272 C30.2751426,81.4333891 18.3226177,106.186946 30.2751426,123.091999" id="Path-85" stroke="#C1E0F4" stroke-width="8.5413929" stroke-linecap="round" stroke-linejoin="round"></path>
                    <path d="M50.1706241,51.1646302 C49.0037944,84.3940666 38.9972324,102.840418 20.150938,106.503684 C-8.11850362,111.998584 -0.76037075,139.255331 7.16060786,146.329399" id="Path-86" stroke="#C1E0F4" stroke-width="8.5413929" stroke-linecap="round" stroke-linejoin="round"></path>
                    <rect id="Rectangle-2" fill="#315890" x="18.6155047" y="23.5626586" width="53.8519957" height="38.7086877" rx="19.3543438"></rect>
                    <g id="Combined-Shape-Copy-4">
                        <mask id="mask-9" fill="white">
                            <use xlink:href="#path-8"></use>
                        </mask>
                        <g id="Mask">
                            <use fill="#FFFFFF" fill-rule="evenodd" xlink:href="#path-8"></use>
                            <path stroke="#315890" stroke-width="1.70827858" d="M83.1012936,47.9820765 L73.0004776,48.6508175 L72.8851365,48.6506491 L63.2048316,47.9813483 L52.707382,48.6521725 L33.276713,47.9785881 L18.3520853,48.6526774 L5.75408871,48.652676 C2.20942571,48.6526756 -0.664091085,45.7791582 -0.664090695,42.2344952 C-0.664090674,42.0472649 -0.655897869,41.8601243 -0.639497213,41.6731718 C-0.6327542,41.5980778 -0.6327542,41.5980778 -0.625796989,41.5262575 C-0.366550293,38.9043409 0.111995247,36.3250038 0.802206149,33.8089027 C0.972207781,33.1891772 0.998806175,33.0870728 1.41037374,31.490967 C2.31823765,27.9701676 2.89177699,26.2262143 3.94504333,24.2546066 C5.65636585,21.0511846 7.92804423,18.2968254 12.0520145,13.9947241 C12.8939641,13.1164073 13.9049498,12.2886683 15.4612027,11.1425848 C15.7485561,10.930967 16.758128,10.1954398 16.7175357,10.2251108 C17.2037024,9.86974524 17.5562715,9.6072741 17.8818219,9.35626222 C21.9040559,6.25496488 24.2731229,4.72224164 27.4958801,3.37022952 C29.710376,2.44120354 31.9972415,1.68743489 34.3389239,1.11734986 C34.8855362,0.984276512 34.9954395,0.956396274 36.4182096,0.592679719 C40.5310274,-0.458719878 42.6558625,-0.85413929 45.2090828,-0.85413929 C48.4662833,-0.85413929 51.2308084,-0.290118338 56.3295461,1.15509961 C56.271178,1.13855538 57.3698178,1.45052556 57.671012,1.53550033 C61.988107,2.75346594 65.969714,4.30342921 68.9841354,6.06600097 C71.1434533,7.3285825 73.1975562,8.76624081 75.1260058,10.3632272 C77.0743754,11.9767096 78.8892093,13.7484725 80.5509812,15.6592977 C81.9601706,17.2796851 82.9486504,19.0001837 84.4806688,22.1887236 C84.5752407,22.3855529 84.6854513,22.6157546 84.8885936,23.0401424 C85.3848752,24.0758705 85.688374,24.6932467 86.0191385,25.3271972 C86.2969376,25.8596332 86.5835643,26.3878802 86.9889817,27.1202175 C87.0833114,27.2906126 87.1896127,27.4821151 87.390423,27.8438005 C87.5534597,28.1376546 87.6734091,28.3546506 87.7907121,28.5683401 C89.3847416,31.4721645 90.2274391,33.3939181 90.7556633,35.6945048 C91.0069448,36.7889165 91.0489585,37.6462183 91.0298383,39.5697495 C91.0179083,40.7699378 91.0259973,41.3031229 91.0846259,41.957905 C91.365573,45.0956112 89.0497121,47.8669773 85.9120059,48.1479244 C85.5679581,48.1787301 85.2218231,48.1782202 84.8778803,48.146402 L83.1012936,47.9820765 Z"></path>
                        </g>
                        <path d="M-6.42655011,41.6103022 C-4.29077399,18.6241244 13.8202534,0.673218818 35.8462697,0.673218818 C58.0074636,0.673218818 76.2054672,18.8451364 78.1566045,42.0340791 C78.1566045,42.0340791 78.1566045,42.0340791 78.1566045,42.0340791 L78.1566045,42.0340791 C78.4028858,44.9610915 76.2297238,47.5335544 73.3027114,47.7798357 C73.1543948,47.7923152 73.0056197,47.7985632 72.856779,47.7985632 L-0.78663001,47.7985368 L-0.78663001,47.7985533 C-3.91488906,47.7985529 -6.45084378,45.2625976 -6.45084342,42.1343385 C-6.4508434,41.9593783 -6.44273693,41.784512 -6.42655011,41.6103022 C-6.42655011,41.6103022 -6.42655011,41.6103022 -6.42655011,41.6103022 Z" fill="#C1E0F4" mask="url(#mask-9)"></path>
                    </g>
                </g>
                <g id="Rectangle-16">
                    <use fill="#FFFFFF" fill-rule="evenodd" xlink:href="#path-10"></use>
                    <rect stroke="#315890" stroke-width="1.70827858" x="546.590013" y="227.011378" width="34.5072273" height="34.8937465" rx="17.2536137"></rect>
                </g>
                <rect id="Rectangle-3" fill="#315890" x="551.649146" y="244.032796" width="5.04599212" height="6.80727548" rx="2.52299606"></rect>
                <rect id="Rectangle-41" x="0" y="0" width="650" height="650"></rect>
            </g>
        </g>
    </g>
</svg>