
<svg width="488px" height="373px" viewBox="0 0 488 373" version="1.1" xmlns="http://www.w3.org/2000/svg" xmlns:xlink="http://www.w3.org/1999/xlink">
    <!-- Generator: Sketch 46.1 (44463) - http://www.bohemiancoding.com/sketch -->
    <desc>Created with Sketch.</desc>
    <defs>
        <rect id="path-1" x="0" y="0.210509808" width="353" height="319.646553" rx="20"></rect>
        <rect id="path-3" x="21.0397351" y="265.937956" width="231.437086" height="39.8321168" rx="4"></rect>
        <path d="M20.6532206,99.4825761 C5.15285226,91.2827608 -1.76051621,39.9088831 0.426827917,28.1059896 C2.61417205,16.3030961 11.2565713,9.47689698 18.3761915,7.62629311 C25.4958117,5.77568924 82.563,-8.45779747 102.749584,7.62629311 C115.507978,17.8656468 112.006134,69.8998993 102.749584,85.9175273 C93.4930337,101.935155 36.1535889,107.682391 20.6532206,99.4825761 Z" id="path-4"></path>
    </defs>
    <g id="Symbols" stroke="none" stroke-width="1" fill="none" fill-rule="evenodd">
        <g id="Interactive_06" transform="translate(0.000000, 2.000000)">
            <g>
                <g id="Group-25" transform="translate(102.000000, 0.000000)">
                    <g id="Rectangle-15">
                        <mask id="mask-2" fill="white">
                            <use xlink:href="#path-1"></use>
                        </mask>
                        <g id="Mask">
                            <use fill="#FFFFFF" fill-rule="evenodd" xlink:href="#path-1"></use>
                            <rect stroke="#54C6AB" stroke-width="2" x="-1" y="-0.789490192" width="355" height="321.646553" rx="20"></rect>
                        </g>
                        <path d="M0,251.908158 L353,251.908158 L353,299.857063 L353,299.857063 C353,310.902758 344.045695,319.857063 333,319.857063 L20,319.857063 L20,319.857063 C8.954305,319.857063 6.25798147e-15,310.902758 0,299.857063 L0,251.908158 Z" fill="#EBF1F5" mask="url(#mask-2)"></path>
                        <g id="Rectangle-9" mask="url(#mask-2)">
                            <use fill="#FFFFFF" fill-rule="evenodd" xlink:href="#path-3"></use>
                            <rect stroke="#C7CFD6" stroke-width="1" x="21.5397351" y="266.437956" width="230.437086" height="38.8321168" rx="4"></rect>
                        </g>
                        <rect id="Rectangle-9-Copy" fill="#54C6AB" mask="url(#mask-2)" x="260.115597" y="265.937956" width="66.0002975" height="39.8321168" rx="4"></rect>
                        <text id="SEND" mask="url(#mask-2)" font-family="Avenir-Black, Avenir" font-size="11" font-weight="700" letter-spacing="1" fill="#FFFFFF">
                            <tspan x="274.68543" y="288.768248">SEN</tspan>
                            <tspan x="299.89443" y="288.768248">D</tspan>
                        </text>
                    </g>
                    <g id="Group-30" transform="translate(36.235099, 104.266423)">
                        <path d="M0,0 L269.104913,0 L269.104913,0 C277.389184,-1.52179594e-15 284.104913,6.71572875 284.104913,15 L284.104913,98.4975008 L284.104913,98.4975008 C284.104913,106.781772 277.389184,113.497501 269.104913,113.497501 L15,113.497501 L15,113.497501 C6.71572875,113.497501 1.01453063e-15,106.781772 0,98.4975008 L0,0 Z" id="Rectangle-11" fill="#EBF1F5"></path>
                        <text id="Hai,Lorem-ipsum-dolo" font-family="Avenir-Book, Avenir" font-size="14" font-weight="normal" line-spacing="20" fill="#23272A">
                            <tspan x="31.7154834" y="37.5729927">Hai,Lorem ipsum dolor sir amet kill </tspan>
                            <tspan x="31.7154834" y="57.5729927">bounevato da lorem ipsum na ho </tspan>
                            <tspan x="29.3774834" y="77.5729927">pikan aona?</tspan>
                            <tspan x="106.379233" y="76.0729927" font-family="AppleColorEmoji, Apple Color Emoji">🍔</tspan>
                        </text>
                    </g>
                    <path d="M20,7.82793969e-17 L333,7.82793969e-17 L333,3.55271368e-15 C344.045695,-2.79080144e-14 353,8.954305 353,20 L353,67.9489051 L0,67.9489051 L0,20 L3.55271368e-15,20 C2.20000618e-15,8.954305 8.954305,5.58168962e-15 20,3.55271368e-15 Z" id="Rectangle-15-Copy" fill="#54C6AB"></path>
                    <text id="Say-Hi-To-Broid-Robo" font-family="Avenir-Black, Avenir" font-size="16" font-weight="700" fill="#FFFFFF">
                        <tspan x="30.3907285" y="38.9744526">Say Hi To Broid Robot!</tspan>
                    </text>
                </g>
                <g id="Group-26" transform="translate(418.000000, 286.000000)">
                    <circle id="Oval-12" fill="#35AE92" cx="35" cy="35" r="35"></circle>
                    <g id="Broid-Logo" transform="translate(16.140783, 13.620348)" fill="#FFFFFF">
                        <path d="M30.0312285,30.8017898 C32.2064284,28.2016342 33.5113435,24.8786792 33.5113435,21.2577915 C33.5113435,12.9257009 26.6016285,6.17120691 18.078063,6.17120691 C9.55449755,6.17120691 2.6447825,12.9257009 2.6447825,21.2577915 C2.6447825,29.5898821 9.55449755,36.3443761 18.078063,36.3443761 C20.8448586,36.3443761 23.441605,35.632664 25.6871663,34.3863064 C26.3331106,34.980111 29.1401917,36.2565239 30.7459371,36.580863 C31.588907,36.7511316 32.3080181,36.7829569 32.7778349,36.6802818 C33.0704467,36.6163335 33.1235002,36.5715928 33.1409685,36.4812505 C33.1711239,36.325293 33.2084216,36.3881486 32.9020966,36.1790904 C32.9672875,36.2235814 32.3333339,35.8062805 32.126573,35.6536914 C30.7845849,34.6633067 30.08727,32.9474348 30.08727,30.7564014 L30.0312285,30.8017898 Z M32.6601995,31.5819287 C32.7275296,32.6568718 33.0509544,33.1874826 33.6753574,33.6482908 C33.8165439,33.7524862 34.387606,34.1283886 34.3735553,34.1187994 C35.4266186,34.8374856 35.9154872,35.6613468 35.666719,36.9479253 C35.2460682,39.1234462 33.0293589,39.6078921 30.2257926,39.0416093 C28.5614247,38.7054293 26.7983234,38.0048406 25.6476611,37.2306169 C23.3464857,38.2744651 20.7818793,38.8571045 18.078063,38.8571045 C8.13486512,38.8571045 0.0743105968,30.9776237 0.0743105968,21.2577915 C0.0743105968,11.5379593 8.13486512,3.65847853 18.078063,3.65847853 C28.0212609,3.65847853 36.0818154,11.5379593 36.0818154,21.2577915 C36.0818154,25.1147284 34.8126084,28.6818854 32.6601995,31.5819287 Z" id="Shape-v2" stroke="#FFFFFF" stroke-width="0.7" fill-rule="nonzero" stroke-linejoin="round"></path>
                        <path d="M21.9774463,15.9582529 C21.9774463,13.2724325 19.7247613,11.1009069 16.9530932,11.1009069 C14.1814251,11.1009069 11.92874,13.2724325 11.92874,15.9582529 C11.92874,18.6440733 14.1814251,20.8155989 16.9530932,20.8155989 C19.7247613,20.8155989 21.9774463,18.6440733 21.9774463,15.9582529 Z" id="Oval-26" fill-rule="nonzero"></path>
                        <path d="M16.4320136,24.8877982 C16.4320136,23.1341667 14.9598018,21.7149955 13.1467535,21.7149955 C11.3337053,21.7149955 9.86149344,23.1341667 9.86149344,24.8877982 C9.86149344,26.6414297 11.3337053,28.0606009 13.1467535,28.0606009 C14.9598018,28.0606009 16.4320136,26.6414297 16.4320136,24.8877982 Z" id="Oval-26-Copy" fill-rule="nonzero"></path>
                        <ellipse id="Oval" cx="19.8605542" cy="23.6716203" rx="1.74099112" ry="1.7018812"></ellipse>
                        <rect id="Rectangle-48" stroke="#FFFFFF" x="11.4322029" y="2.2283943" width="1.40016217" height="2.70753827" rx="0.700081087"></rect>
                        <rect id="Rectangle-48" stroke="#FFFFFF" stroke-width="1.4" x="15.3559312" y="0" width="1.05012163" height="5.41507653" rx="0.525060815"></rect>
                    </g>
                </g>
                <g id="Group-3" transform="translate(0.000000, 171.000000)">
                    <g id="Group">
                        <path d="M85.100457,119.189376 C105.303728,144.853858 113.017817,163.648228 108.242724,175.572486 C131.326473,176.96716 142.868347,177.664497 142.868347,177.664497 C157.562637,158.36485 157.685181,134.764155 143.23598,106.862412 C128.786778,78.9606687 109.408271,83.0696568 85.100457,119.189376 Z" id="Path-6" fill="#54C6AB"></path>
                        <path d="M130.16102,124.046774 C143.279672,136.333145 149.569022,151.001568 149.029068,168.052042 C152.970213,161.586126 154.731318,152.807032 154.312382,141.71476 C153.893447,130.622488 148.401203,122.739582 137.835651,118.066043 L130.16102,124.046774 Z" id="Path-38" fill="#35AE92"></path>
                        <path d="M101.953794,119.997962 C121.78182,128.658103 134.303606,127.28813 139.519153,115.888044 C144.734701,104.487958 132.212914,105.85793 101.953794,119.997962 Z" id="Path-37" fill="#35AE92"></path>
                        <path d="M146.196976,109.240437 C184.002521,143.735331 198.608893,168.274897 190.016094,182.859136 C181.423294,197.443374 152.076782,198.656085 101.976558,186.497269 C102.251276,171.734063 100.581293,162.584046 96.9666102,159.047217 C91.5445852,153.741974 151.923966,179.521932 157.850532,165.768409 C161.801576,156.599394 154.247876,138.835693 135.189433,112.477305 L146.196976,109.240437 Z" id="Path-5" fill="#CAD5C4"></path>
                        <path d="M74.2680943,112.32006 C69.6659991,127.619957 63.9560695,135.642053 57.1383055,136.38635 C50.3205416,137.130646 53.9300506,146.631786 67.9668327,164.88977 C82.9600515,140.536951 88.4967802,124.432425 84.577019,116.576193 C80.6572577,108.71996 77.2209495,107.301249 74.2680943,112.32006 Z" id="Path-36" fill="#CAD5C4" transform="translate(69.795301, 137.137631) rotate(10.000000) translate(-69.795301, -137.137631) "></path>
                        <path d="M101.801253,5.15133675 C105.160146,8.49336042 107.878402,10.764696 109.956022,11.9653433 C113.716602,14.1385653 109.60495,14.8541777 106.195443,14.1385653 C102.785936,13.4229528 96.3480361,12.7427687 96.3480361,8.99025926 C96.3480361,7.92137156 96.5481399,6.94111835 96.9483473,6.04949963 L96.9483519,6.04950167 C97.6268256,4.53793614 99.4022031,3.86258175 100.913769,4.54105543 C101.243991,4.68927737 101.544664,4.89603603 101.801253,5.15133675 Z" id="Path-2" fill="#315890" transform="translate(103.899851, 9.341879) scale(1, -1) rotate(-52.000000) translate(-103.899851, -9.341879) "></path>
                        <path d="M54.7768581,16.9864221 C56.5792745,12.0372783 59.1742178,7.85700704 62.9170445,7.70421745 C66.6598713,7.55142787 67.4235416,11.1379362 66.0774975,12.2993202 C64.7314534,13.4607043 60.2376957,15.6242837 57.72653,19.7894434 C55.2153642,23.9546031 52.9744418,21.9355659 54.7768581,16.9864221 Z" id="Path-3" fill="#315890"></path>
                        <g id="Path-32" transform="translate(46.351519, 19.592260)">
                            <mask id="mask-5" fill="white">
                                <use xlink:href="#path-4"></use>
                            </mask>
                            <use id="Mask" fill="#54C6AB" xlink:href="#path-4"></use>
                            <path d="M-3.52555196,39.4246635 C-2.26176188,34.2972628 -0.18813442,31.7335624 2.69533041,31.7335624 C7.02052764,31.7335624 9.95324016,35.5433776 29.3135018,33.1337736 C48.6737635,30.7241697 68.9010137,22.33617 81.4354715,28.3502572 C93.9699292,34.3643444 94.4416778,79.8267082 83.6164422,98.7696037 C76.3996185,111.398201 57.8131288,119.40464 27.8569731,122.78892 L6.63282837,109.771443 L-8.60978315,54.9832785 L-3.52555196,39.4246635 Z" fill="#35AE92" mask="url(#mask-5)"></path>
                            <rect id="Rectangle-4" fill="#FFFFFF" mask="url(#mask-5)" transform="translate(54.932591, 68.783508) rotate(-6.000000) translate(-54.932591, -68.783508) " x="51.253388" y="63.2652051" width="7.35840665" height="11.0366066" rx="3.67920333"></rect>
                            <rect id="Rectangle-4-Copy" fill="#FFFFFF" mask="url(#mask-5)" transform="translate(16.914157, 71.236088) rotate(-6.000000) translate(-16.914157, -71.236088) " x="13.2349536" y="65.7177843" width="7.35840665" height="11.0366066" rx="3.67920333"></rect>
                        </g>
                        <path d="M150.270603,57.4895305 C144.307438,67.3195169 143.810549,79.4926242 148.779936,94.0088524 C160.569939,94.1656587 166.180631,87.5681778 165.612011,74.2164096 C165.043392,60.8646415 159.929589,55.2890151 150.270603,57.4895305 Z" id="Path-20" fill="#35AE92"></path>
                        <path d="M10.4965805,132.516187 L57.4720255,132.516187 L57.4720255,132.516189 C59.019325,132.516189 60.4278491,133.408579 61.0887639,134.807624 C65.2819948,143.683986 68.7890009,152.930083 71.609782,162.545916 C74.3090518,171.747525 77.1216373,182.349517 80.0475387,194.351891 L80.0475404,194.35189 C80.5707554,196.498177 79.254996,198.662235 77.1087096,199.18545 C76.7985934,199.26105 76.4805429,199.299257 76.161345,199.299257 L29.6176274,199.299257 L29.6176274,199.299257 C27.8852048,199.299257 26.3496933,198.184026 25.8138061,196.53657 L6.69275914,137.753499 L6.69275914,137.753499 C6.00941014,135.652707 7.15847515,133.395714 9.25926768,132.712365 C9.65884149,132.582391 10.076399,132.516187 10.4965805,132.516187 Z" id="Path-33-Copy" fill="#35AE92"></path>
                        <path d="M4.36457496,132.516187 L50.9303445,132.516187 L50.9303445,132.516187 C52.6721573,132.516187 54.2137323,133.643335 54.7419669,135.303118 L73.4499822,194.086188 L73.4499822,194.086188 C74.1199414,196.191289 72.9565292,198.44092 70.8514283,199.110879 C70.459174,199.235716 70.0500002,199.299257 69.6383599,199.299257 L23.4856219,199.299257 L23.4856219,199.299257 C21.7531992,199.299257 20.2176877,198.184026 19.6818005,196.53657 L0.560753598,137.753499 L0.560753598,137.753499 C-0.122595407,135.652707 1.0264696,133.395714 3.12726214,132.712365 C3.52683595,132.582391 3.94439349,132.516187 4.36457496,132.516187 Z" id="Path-33" fill="#54C6AB"></path>
                        <path d="M74.3283144,153.205939 C76.8427038,147.092523 79.0715299,142.403013 90.4566496,145.41102 C101.841769,148.419028 111.351541,174.602852 110.20788,184.120341 C109.50156,189.998292 106.290255,193.153599 100.573965,193.586264 L100.573965,193.586258 C99.7409644,193.649308 98.9565253,193.187977 98.6067613,192.42934 L95.9326096,186.629116 L95.9326042,186.629118 C95.3646555,185.39724 95.6940019,183.93752 96.7358814,183.068855 C98.3545787,181.719271 99.1639273,179.406471 99.1639273,176.130456 C99.1639273,169.524426 89.3818504,159.548607 82.4424351,164.896557 C75.5030198,170.244507 71.8139251,159.319355 74.3283144,153.205939 Z" id="Path-34" fill="#35AE92"></path>
                        <path d="M3.43333789,156.593884 C8.86127217,151.973019 12.0314975,150.727915 12.944014,152.858573 C14.4137626,156.290326 15.3099103,169.247174 12.944014,172.991358 C10.5781178,176.735542 15.3668442,184.476443 10.5781178,185.125658 C7.47800892,185.545944 4.75337847,176.928694 2.40422647,159.273909 L2.40423563,159.273907 C2.26982547,158.263763 2.65738813,157.254459 3.43333789,156.593884 Z" id="Path-35" fill="#35AE92" transform="translate(8.389745, 168.495147) rotate(-8.000000) translate(-8.389745, -168.495147) "></path>
                        <path d="M156.36005,148.876493 C162.709067,138.592259 170.240218,135.164182 178.953504,138.592259" id="Path-41" stroke="#FFFFFF" stroke-width="2"></path>
                        <path d="M147.381056,130.683948 C149.826688,123.912688 154.278724,121.162781 160.737165,122.434226" id="Path-42" stroke="#FFFFFF" stroke-width="2"></path>
                        <path d="M73.2688976,96.3151223 C74.3012151,100.018338 76.7119256,102.033103 80.5010292,102.359416 C84.3173483,102.688074 87.0777943,100.706856 88.7823671,96.4157638 L88.782354,96.4157586 C88.9862406,95.9024944 88.7354405,95.3211289 88.2221764,95.1172423 C88.1046911,95.070573 87.9794223,95.0466034 87.8530071,95.0466034 L74.2321511,95.0466034 L74.2321511,95.0466236 C73.6798775,95.0466236 73.2321713,95.4943298 73.2321713,96.0466034 C73.2321713,96.1373616 73.2445268,96.2276974 73.2688976,96.3151223 Z" id="Path-45" fill="#FFFFFF" transform="translate(81.042715, 98.720546) rotate(-3.000000) translate(-81.042715, -98.720546) "></path>
                        <path d="" id="Path-22" stroke="#979797"></path>
                        <path d="M135.196763,194.405083 C139.861512,183.275388 139.861512,173.913673 135.196763,166.319937" id="Path-39" stroke="#FFFFFF" stroke-width="2"></path>
                        <path d="M155.797743,163.812842 C176.592209,165.399456 187.782822,172.94083 189.36958,186.436965" id="Path-40" stroke="#FFFFFF" stroke-width="2"></path>
                        <path d="M66.7100525,128.318167 C74.7690455,129.020869 80.3021876,133.296727 83.3094789,141.145741" id="Path-44" stroke="#FFFFFF" stroke-width="2"></path>
                    </g>
                    <path d="M117.988889,132.750119 L117.988889,131.054111 C117.988889,130.631135 118.386059,130.290055 118.862454,130.290055 C119.343503,130.290055 119.736019,130.630997 119.736019,131.054111 L119.736019,132.537981 C119.874614,132.532638 120.013908,132.529941 120.153848,132.529941 C125.875858,132.529941 130.516879,137.038566 130.516879,142.603273 C130.516879,144.650392 129.888799,146.554589 128.809876,148.143978 C128.84075,148.626792 128.972479,148.865486 129.271436,149.084747 C129.301219,149.106591 129.3826,149.161572 129.489513,149.232425 C129.554341,149.275299 129.554341,149.275299 129.604973,149.30858 C129.625935,149.322332 129.625935,149.322332 129.648884,149.337326 C129.647541,149.33647 129.655018,149.34135 129.655018,149.34135 C130.364873,149.822801 130.645485,150.394461 130.491389,151.186473 C130.235071,152.503877 128.960518,152.930324 127.12636,152.562147 C126.257951,152.387828 125.360074,152.049619 124.697368,151.659303 C123.32536,152.31092 121.783442,152.676604 120.153848,152.676604 C114.431838,152.676604 109.790817,148.16798 109.790817,142.603273 C109.790817,138.532694 112.274186,135.027216 115.847461,133.438227 C115.834844,133.380793 115.828197,133.32103 115.828197,133.259616 L115.828197,132.503259 C115.828197,132.054641 116.197197,131.68599 116.643577,131.68599 C117.09625,131.68599 117.458956,132.049585 117.458956,132.503259 L117.458956,132.873943 C117.633819,132.82829 117.810506,132.786972 117.988889,132.750117 Z M126.852962,147.507305 C127.914408,146.142957 128.543769,144.444261 128.543769,142.603273 C128.543769,138.10647 124.788808,134.458629 120.153848,134.458629 C115.518888,134.458629 111.763927,138.10647 111.763927,142.603273 C111.763927,147.100076 115.518888,150.747917 120.153848,150.747917 C121.842588,150.747917 123.414509,150.263667 124.730556,149.43054 C125.045512,149.679895 125.045512,149.679895 125.045512,149.679895 C125.603184,150.018603 126.831324,150.533984 127.523306,150.672888 C127.807943,150.730024 128.064981,150.757316 128.272675,150.755744 C128.191778,150.701304 128.127167,150.656767 128.087218,150.627468 C127.380373,150.109053 126.963743,149.273852 126.860787,148.218812 C126.860787,148.218812 126.860787,148.218812 126.860787,147.563286 C126.860787,147.541362 126.858116,147.522766 126.852962,147.507305 Z M122.340793,139.649496 C122.340793,141.146478 121.077388,142.35681 119.522916,142.35681 C117.968443,142.35681 116.705038,141.146478 116.705038,139.649496 C116.705038,138.152513 117.968443,136.942181 119.522916,136.942181 C121.077388,136.942181 122.340793,138.152513 122.340793,139.649496 Z M121.153547,144.897226 C120.614283,144.897226 120.177123,144.472537 120.177123,143.948657 C120.177123,143.424776 120.614283,143.000088 121.153547,143.000088 C121.692811,143.000088 122.129971,143.424776 122.129971,143.948657 C122.129971,144.472537 121.692811,144.897226 121.153547,144.897226 Z M119.230671,144.626512 C119.230671,145.603924 118.404991,146.394921 117.388154,146.394921 C116.371317,146.394921 115.545636,145.603924 115.545636,144.626512 C115.545636,143.649099 116.371317,142.858102 117.388154,142.858102 C118.404991,142.858102 119.230671,143.649099 119.230671,144.626512 Z" id="Combined-Shape-Copy" fill="#FFFFFF" fill-rule="nonzero"></path>
                    <ellipse id="Oval-17" fill="#FFFFFF" transform="translate(34.517469, 167.292995) rotate(-11.000000) translate(-34.517469, -167.292995) " cx="34.5174692" cy="167.292995" rx="6.90349385" ry="10.557325"></ellipse>
                </g>
            </g>
        </g>
    </g>
</svg>