
<svg width="501px" height="382px" viewBox="0 0 501 382" version="1.1" xmlns="http://www.w3.org/2000/svg" xmlns:xlink="http://www.w3.org/1999/xlink">
    <!-- Generator: Sketch 46.1 (44463) - http://www.bohemiancoding.com/sketch -->
    <desc>Created with Sketch.</desc>
    <defs>
        <ellipse id="path-1" cx="16.0127353" cy="16.2577664" rx="15.919063" ry="16.2577664"></ellipse>
        <linearGradient x1="0%" y1="29.2864197%" x2="100%" y2="67.7630354%" id="linearGradient-3">
            <stop stop-color="#36987B" offset="0%"></stop>
            <stop stop-color="#D01E25" offset="100%"></stop>
        </linearGradient>
        <linearGradient x1="100%" y1="0%" x2="0%" y2="100%" id="linearGradient-4">
            <stop stop-color="#1E96C8" offset="0%"></stop>
            <stop stop-color="#37AEE2" offset="100%"></stop>
        </linearGradient>
        <linearGradient x1="61.2346759%" y1="43.69%" x2="74.7064382%" y2="80.24%" id="linearGradient-5">
            <stop stop-color="#EFF7FC" offset="0%"></stop>
            <stop stop-color="#FFFFFF" offset="100%"></stop>
        </linearGradient>
        <path d="M16.2077575,77.8067643 C4.0437364,71.39357 -1.38157726,31.2133158 0.334956156,21.9821017 C2.05148957,12.7508877 8.83367205,7.41201845 14.4208432,5.96463435 C20.0080143,4.51725024 64.7918845,-6.61496596 80.6334456,5.96463435 C90.6456834,13.9729813 87.8975871,54.6697241 80.6334456,67.1973431 C73.369304,79.724962 28.3717786,84.2199586 16.2077575,77.8067643 Z" id="path-6"></path>
        <path d="M0.17262451,31.8424963 C0.370228304,29.8562403 0.734729452,27.9191152 1.25190071,26.0453509 C1.94690517,23.5272789 2.40572041,21.1236336 3.6176262,18.8689508 C5.13643233,16.0432972 7.54595113,13.4516047 9.75440982,11.1618515 C10.9658391,9.90582885 12.7827047,8.74065874 14.1699803,7.67756125 C16.5378506,5.86301407 18.6336255,4.34583855 21.4253317,3.1818278 C23.0873814,2.4888309 24.8146585,1.92101142 26.595392,1.49014279 C29.2291793,0.852868127 31.9799066,0 34.8094883,0 C38.0727378,0 41.2311098,0.964308432 44.2261868,1.80412742 C47.0721452,2.60213362 50.2825681,3.75289926 52.7835276,5.20629472 C54.4199688,6.15728821 55.9718267,7.23785013 57.4250606,8.43393697 C58.898006,9.64624736 60.2696337,10.9772379 61.5253241,12.4122857 C63.3221156,14.4657233 64.3696176,17.2474055 65.6488048,19.6841216 C67.0080358,22.2733128 68.562786,24.5395068 69.2378585,27.4616733 C69.59181,28.9938125 69.3327535,30.5646555 69.4770906,32.1667937 C69.4770906,32.1667937 69.4770906,32.1667937 69.4770906,32.1667937 L69.4770906,32.1667937 C69.6610218,34.2084255 68.1550579,36.0126008 66.1134261,36.196532 C65.8895801,36.2166983 65.664365,36.2164913 65.4405565,36.1959134 L63.9938454,36.0628967 L56.1644906,36.57808 L48.6673343,36.062895 L40.6056221,36.5780783 L25.5922489,36.0628925 L14.1304946,36.5780754 L4.43045677,36.5780744 L4.43045677,36.5780744 L4.43045677,36.5780744 C2.06571658,36.5780741 0.148716104,34.6610732 0.148716362,32.296333 C0.148716377,32.1639029 0.154860288,32.0315442 0.167128281,31.8996836 C0.168942407,31.880141 0.170775829,31.8610787 0.17262451,31.8424963 Z" id="path-8"></path>
        <rect id="path-10" x="418" y="118" width="26" height="26" rx="13"></rect>
    </defs>
    <g id="Symbols" stroke="none" stroke-width="1" fill="none" fill-rule="evenodd">
        <g id="Interactive_08" transform="translate(1.000000, 0.000000)">
            <g>
                <ellipse id="Oval-21" stroke="#315890" stroke-width="2" stroke-dasharray="6,10" cx="260" cy="196.5" rx="183" ry="183.5"></ellipse>
                <circle id="Oval-21-Copy" stroke="#C1E0F4" stroke-width="2" stroke-dasharray="6,10" cx="259.5" cy="196.5" r="129.5"></circle>
                <g id="line-messenger" transform="translate(145.000000, 28.000000)">
                    <circle id="Oval-34-Copy-8" fill="#00B900" cx="14.2888451" cy="14.2888451" r="14.2888451"></circle>
                    <path d="M6.43103751,17.4545838 L9.19800501,17.4545838 C9.59158911,17.4545838 9.91350448,17.1325694 9.91350448,16.7389853 L9.91350448,16.6792944 C9.91350448,16.2857103 9.59158911,15.9637949 9.19800501,15.9637949 L7.20622792,15.9637949 L7.20622792,11.4321333 C7.20622792,11.0385492 6.88431256,10.7166338 6.49072845,10.7166338 L6.43103751,10.7166338 C6.0374534,10.7166338 5.71553804,11.0385492 5.71553804,11.4321333 L5.71553804,16.7388863 C5.71553804,17.1325694 6.0374534,17.4545838 6.43103751,17.4545838 L6.43103751,17.4545838 Z M23.5765944,14.128224 L23.5765944,14.068533 C23.5765944,13.6749489 23.25458,13.3530336 22.8609959,13.3530336 L20.8693179,13.3530336 L20.8693179,12.2200934 L22.8609959,12.2200934 C23.25458,12.2200934 23.5765944,11.898178 23.5765944,11.5045939 L23.5765944,11.444903 C23.5765944,11.0513189 23.25458,10.7294035 22.8609959,10.7294035 L20.0940284,10.7294035 C19.7004443,10.7294035 19.378529,11.0513189 19.378529,11.444903 L19.378529,16.751656 C19.378529,17.1452401 19.7004443,17.4672545 20.0940284,17.4672545 L22.8609959,17.4672545 C23.25458,17.4672545 23.5765944,17.1452401 23.5765944,16.751656 L23.5765944,16.6919651 C23.5765944,16.298381 23.25458,15.9764656 22.8609959,15.9764656 L20.8693179,15.9764656 L20.8693179,14.8435255 L22.8609959,14.8435255 C23.25458,14.8437234 23.5765944,14.5217091 23.5765944,14.128224 L23.5765944,14.128224 Z M18.2553888,17.2412604 L18.2555868,17.2409634 C18.3879897,17.1074689 18.4623414,16.9271037 18.4624758,16.7390843 L18.4624758,11.4323313 C18.4624758,11.0387472 18.1405605,10.7168318 17.7468774,10.7168318 L17.6871864,10.7168318 C17.2936023,10.7168318 16.971687,11.0387472 16.971687,11.4323313 L16.971687,14.5474465 L14.3854751,11.0786401 C14.2619357,10.862941 14.0293092,10.7168318 13.7642141,10.7168318 L13.7045232,10.7168318 C13.3109391,10.7168318 12.9889247,11.0387472 12.9889247,11.4323313 L12.9889247,16.7390843 C12.9889247,17.1326684 13.3108401,17.4546828 13.7045232,17.4546828 L13.7642141,17.4546828 C14.1577982,17.4546828 14.4797136,17.1326684 14.4797136,16.7390843 L14.4797136,13.565664 L17.0845355,17.1234623 C17.1005719,17.1484078 17.1180931,17.1723634 17.1370002,17.1951311 L17.1370992,17.1953291 C17.2086689,17.2929332 17.30657,17.3598504 17.415657,17.4007332 C17.4995015,17.4353797 17.5911662,17.4545838 17.6870874,17.4545838 L17.7467784,17.4545838 C17.8633832,17.4546489 17.9782039,17.4259522 18.0810675,17.3710362 C18.1526372,17.3369837 18.2129221,17.2930321 18.2553888,17.2412604 L18.2553888,17.2412604 Z M11.2065114,17.4545838 L11.2662023,17.4545838 C11.6597865,17.4545838 11.9817018,17.1325694 11.9817018,16.7389853 L11.9817018,11.4322323 C11.9817018,11.0386482 11.6597865,10.7167328 11.2662023,10.7167328 L11.2065114,10.7167328 C10.8129273,10.7167328 10.4909129,11.0386482 10.4909129,11.4322323 L10.4909129,16.7389853 C10.4909129,17.1325694 10.8129273,17.4545838 11.2065114,17.4545838 Z" id="Shape" fill="#FFFFFF"></path>
                </g>
                <g id="twillio" transform="translate(89.000000, 87.000000)">
                    <circle id="Oval-34-Copy-5" fill="#EE3248" cx="13.2338539" cy="13.2338539" r="13.2338539"></circle>
                    <g id="Group-4" transform="translate(6.015388, 6.015388)" fill="#FFFFFF">
                        <path d="M7.51923518,0 C3.36861736,0 0,3.36861736 0,7.51923518 C0,11.669853 3.36861736,15.0384704 7.51923518,15.0384704 C11.669853,15.0384704 15.0384704,11.669853 15.0384704,7.51923518 C15.0384704,3.36861736 11.669853,0 7.51923518,0 Z M7.51923518,13.0533923 C4.45890646,13.0533923 1.98507809,10.5720447 1.98507809,7.51923518 C1.98507809,4.45890646 4.4664257,1.98507809 7.51923518,1.98507809 C10.5795639,1.98507809 13.0533923,4.4664257 13.0533923,7.51923518 C13.0533923,10.5795639 10.5795639,13.0533923 7.51923518,13.0533923 Z" id="XMLID_181_"></path>
                        <circle id="XMLID_180_" cx="9.39152474" cy="5.64694562" r="1.56400092"></circle>
                        <circle id="XMLID_179_" cx="9.39152474" cy="9.39152474" r="1.56400092"></circle>
                        <circle id="XMLID_178_" cx="5.64694562" cy="9.39152474" r="1.56400092"></circle>
                        <circle id="XMLID_177_" cx="5.64694562" cy="5.64694562" r="1.56400092"></circle>
                    </g>
                </g>
                <g id="Skype" transform="translate(248.000000, 0.000000)">
                    <circle id="Oval-3" fill="#00AFF0" cx="12.756283" cy="12.756283" r="12.756283"></circle>
                    <path d="M7.48211313,6.48430868 C8.74552945,5.57263542 10.5322102,5.4943322 11.8776584,6.27425717 C13.394628,6.01138206 14.9986012,6.26120663 16.3521284,6.99887273 C17.8628835,7.81049187 19.0492395,9.20441356 19.6017122,10.8288947 C19.9814207,11.9282472 20.0696672,13.1233035 19.8720448,14.2686435 C20.358022,15.123143 20.526436,16.1516497 20.3294351,17.1155251 C20.1212479,18.1788331 19.4656138,19.1427085 18.5589122,19.7349544 C17.3035747,20.5788891 15.5790394,20.6267411 14.2714999,19.8698099 C12.8154328,20.1202559 11.2798195,19.9033684 9.9623367,19.230955 C8.43107364,18.4615948 7.20991621,17.1006102 6.61269876,15.4941512 C6.18016666,14.3463253 6.07141218,13.0835304 6.27711351,11.8754236 C5.78057163,11.0060092 5.619615,9.95513019 5.83153087,8.97696133 C6.04158238,7.97766304 6.64625728,7.0697185 7.48211313,6.48430868 Z M8.16571271,7.29157764 C7.32053505,7.84094312 6.78111283,8.8296767 6.79043465,9.83891826 C6.77800556,10.5007669 7.02720868,11.1334073 7.37957319,11.6827728 C7.15149952,12.7305445 7.16827878,13.8379758 7.50572839,14.8602679 C8.03210007,16.5232792 9.34523272,17.9103649 10.975307,18.5311977 C12.079631,18.9655941 13.3088674,19.021525 14.4635292,18.7685931 C14.8003574,18.9643512 15.1427786,19.1625951 15.5249729,19.2551918 C16.4832552,19.516824 17.5583709,19.2669994 18.302873,18.6107438 C19.0653973,17.9594598 19.4705854,16.9166597 19.3351084,15.9217116 C19.279799,15.3934756 19.0442679,14.9087413 18.770828,14.4606729 C19.0026304,13.3961219 18.9790152,12.268804 18.6272721,11.2334614 C18.072935,9.53502717 16.6945497,8.13489094 15.0060587,7.55134548 C13.9452364,7.17163699 12.7818742,7.13683555 11.6856291,7.37609541 C11.4047318,7.21513878 11.1250774,7.04423888 10.8143504,6.94542767 C9.93996435,6.64775112 8.9332086,6.77639214 8.16571271,7.29157764 Z M12.168499,8.89430793 C13.1622042,8.74391602 14.2093545,8.89617229 15.0961696,9.37717781 C15.4839569,9.59220095 15.8593153,9.8830415 16.039537,10.3006587 C16.1569918,10.5753414 16.1700423,10.9339205 15.9531548,11.1638585 C15.7182452,11.4043613 15.3348079,11.4783143 15.0197307,11.3770173 C14.6549371,11.2241396 14.4734725,10.8419453 14.1639883,10.6144931 C13.774958,10.2938227 13.2510721,10.2074406 12.7607448,10.2161409 C12.4021657,10.2316773 12.0181071,10.3130878 11.7564749,10.5765844 C11.5147292,10.8344878 11.4252398,11.2763417 11.6607709,11.5665608 C11.8832515,11.8232214 12.2269157,11.9189253 12.5419929,12.0065504 C13.1429391,12.1569423 13.7507213,12.2781259 14.3541533,12.4204389 C14.981822,12.5639948 15.6157052,12.8386775 16.0302152,13.3501343 C16.7448874,14.276101 16.5839308,15.7445972 15.6952514,16.5027713 C14.9843078,17.1323043 13.9955742,17.3063115 13.0745792,17.3119046 C12.0914387,17.2976111 11.0405597,17.09626 10.2848714,16.4238466 C9.90578437,16.0820468 9.58697839,15.5662398 9.70132595,15.0386252 C9.82623824,14.5141179 10.5465036,14.3152526 10.954799,14.6377873 C11.266769,14.8882333 11.4358045,15.2691847 11.7365883,15.5308169 C12.0964103,15.8608091 12.5979238,15.9919359 13.0776864,15.9801283 C13.5481272,15.9925574 14.0477764,15.84838 14.3703111,15.4904224 C14.5896844,15.2486768 14.7058963,14.8807759 14.5635833,14.5712917 C14.4467499,14.2804512 14.1465876,14.1219804 13.8594758,14.0436771 C13.3299968,13.9050929 12.7967891,13.7789377 12.2673102,13.6391105 C11.6856291,13.4967975 11.0809542,13.3669135 10.5806836,13.0201421 C10.1904104,12.7609957 9.8945982,12.3564291 9.79951571,11.8953101 C9.63980199,11.1719374 9.75414956,10.3373245 10.2798998,9.78485175 C10.7609053,9.24977971 11.4743347,9.00119804 12.168499,8.89430793 Z" id="Combined-Shape" fill="#FFFFFF"></path>
                </g>
                <g id="Group-39" transform="translate(374.000000, 48.000000)">
                    <g id="Group-40">
                        <mask id="mask-2" fill="white">
                            <use xlink:href="#path-1"></use>
                        </mask>
                        <use id="Mask" fill="#2DC100" xlink:href="#path-1"></use>
                        <g mask="url(#mask-2)">
                            <g transform="translate(5.000000, 4.212766)">
                                <polygon id="Rectangle-23" fill="#FFFFFF" fill-rule="evenodd" points="1.35393847 2.39906408 22.048427 2.39906408 21.6449236 21.2985716 0.955134764 19.9522556"></polygon>
                                <path d="M22.6875,19.6946809 C22.6875,21.6142557 21.1638831,23.1702128 19.284375,23.1702128 L3.403125,23.1702128 C1.52354125,23.1702128 0,21.6142557 0,19.6946809 L0,3.47553191 C0,1.55603426 1.52361688,0 3.403125,0 L19.284375,0 C21.1638831,0 22.6875,1.55603426 22.6875,3.47553191 L22.6875,19.6946809 Z M15.125,8.40438959 C15.0206731,7.29157302 14.6259003,6.35065741 13.9821087,5.51233761 C12.199599,3.1915234 8.90522226,2.21754409 5.97382716,3.17238126 C3.82613544,3.87201512 2.2455266,5.21415906 1.60188678,7.42723254 C0.906197335,9.81947038 1.83580657,12.143084 4.04116259,13.6957159 C4.38464455,13.9378299 4.4366183,14.1447617 4.32440053,14.516558 C4.17181775,15.022425 4.0856248,15.5483421 3.95246579,16.1489362 C4.67820137,15.6965613 5.2905052,15.2907933 5.9292132,14.9314053 C6.12162987,14.8231349 6.39121048,14.7960484 6.61837748,14.8151149 C7.27612988,14.8703472 7.93016445,14.9679494 8.64823675,15.0566236 C8.48472811,13.1310606 9.08291936,11.5777478 10.3933406,10.3101296 C11.6903321,9.05544933 13.2878609,8.50010029 15.125,8.40438959 Z M6.18705274,7.74722853 C6.17301335,8.13229785 5.85472481,8.43529789 5.47503734,8.42529102 C5.09204281,8.4151542 4.80158345,8.09824852 4.81281496,7.70278246 C4.82392168,7.31257975 5.13665687,7.00996959 5.51690591,7.02160094 C5.88829455,7.0329074 6.20096734,7.3714513 6.18705274,7.74722853 Z M10.9955301,7.02139999 C11.3758449,7.01420326 11.6842759,7.32269025 11.6874666,7.71377758 C11.6910952,8.11219131 11.3988678,8.4206783 11.013548,8.42547613 C10.6292292,8.43027395 10.3194218,8.12502873 10.3126026,7.7348491 C10.305971,7.35841457 10.6217843,7.02853189 10.9955301,7.02139999 Z M19.4161853,20.3617021 L19.4161853,20.3617021 C19.3776099,20.2006318 19.3700151,20.0391659 19.3035422,19.9116387 C18.9434302,19.220919 19.1454057,18.7897631 19.7066661,18.2658098 C21.6462629,16.4554298 21.8329738,13.5947698 20.2441647,11.4397815 C18.4235274,8.970168 14.6364484,8.37683421 12.0541543,10.1566774 C9.1486692,12.1592976 8.78983551,15.9063191 11.3011449,18.3500632 C12.6215807,19.6347496 14.2229475,20.1588611 16.0104235,19.9664627 C16.5972504,19.903332 17.1868596,19.5629166 17.747744,19.6245442 C18.3108091,19.6864092 18.8396602,20.0916166 19.4161853,20.3617021 Z M12.3739632,14.0425528 C12.0069626,14.0420858 11.7004723,13.73963 11.6879007,13.3657243 C11.6745717,12.9743842 11.9956026,12.6365148 12.3788101,12.638305 C12.7658799,12.6399394 13.0767626,12.9731389 13.0619948,13.3703943 C13.0479842,13.7456231 12.7436145,14.042942 12.3739632,14.0425528 Z M17.192331,12.6383142 L17.192331,12.6383142 C17.5817418,12.6410506 17.8891755,12.9721533 17.8744953,13.373151 C17.8607423,13.7542123 17.5617304,14.0438001 17.1832911,14.0425492 C16.7920259,14.0415328 16.4847468,13.7130101 16.5005859,13.3129506 C16.5154979,12.9388475 16.8264084,12.6357342 17.192331,12.6383142 Z" id="Wechat" fill="#2DC100" fill-rule="nonzero"></path>
                            </g>
                        </g>
                    </g>
                </g>
                <g id="discord_color" transform="translate(366.000000, 139.000000)">
                    <rect id="500x500" x="0" y="0" width="25.7880363" height="25.7880363"></rect>
                    <circle id="Oval" fill="#7289DA" cx="12.8940181" cy="12.8940181" r="12.8940181"></circle>
                    <path d="M15.2343708,16.7601075 C16.680532,16.3516497 17.232502,15.446419 17.232502,15.446419 C16.7798867,15.7444827 16.3493501,15.9542313 15.9629711,16.0977435 C15.4110011,16.3295709 14.88111,16.4841225 14.3622582,16.5724377 C13.3024759,16.7711469 12.3310088,16.7159499 11.5030538,16.5613983 C10.8738082,16.4399649 10.3328776,16.2633345 9.8802622,16.0867041 C9.62635602,15.9873495 9.35037104,15.8659161 9.07438606,15.7113645 C9.04126787,15.6892858 9.00814967,15.6782463 8.97503147,15.6561676 C8.95295267,15.6451282 8.94191328,15.6340887 8.93087388,15.6230493 C8.73216469,15.5126553 8.6217707,15.4353795 8.6217707,15.4353795 C8.6217707,15.4353795 9.15166185,16.3185315 10.5536655,16.7380287 C10.2224836,17.1575258 9.8140258,17.6542988 9.8140258,17.6542988 C7.3743186,17.577023 6.44700907,15.9763101 6.44700907,15.9763101 C6.44700907,12.4216236 8.03668255,9.54034044 8.03668255,9.54034044 C9.62635602,8.34808533 11.1387537,8.38120353 11.1387537,8.38120353 L11.2491477,8.51367632 C9.26205585,9.08772507 8.34578572,9.9598376 8.34578572,9.9598376 C8.34578572,9.9598376 8.5886525,9.82736481 8.99711027,9.63969503 C10.178326,9.12084327 11.1166749,8.97733108 11.5030538,8.94421288 C11.5692903,8.93317349 11.6244872,8.92213409 11.6907236,8.92213409 C12.364127,8.83381889 13.1258455,8.81174009 13.9206823,8.90005528 C14.9694252,9.02148868 16.0954439,9.33059185 17.2435414,9.9598376 C17.2435414,9.9598376 16.3714289,9.13188267 14.494731,8.55783392 L14.6492826,8.38120353 C14.6492826,8.38120353 16.1616803,8.34808533 17.7513538,9.54034044 C17.7513538,9.54034044 19.3410272,12.4216236 19.3410272,15.9763101 C19.3410272,15.9763101 18.4026783,17.577023 15.9629711,17.6542988 C15.9629711,17.6542988 15.5655527,17.1796046 15.2343708,16.7601075 Z M9.70363182,13.7242727 C9.70363182,14.397676 10.2114442,14.949646 10.8296505,14.949646 C11.4588962,14.949646 11.9556693,14.397676 11.9556693,13.7242727 C11.9667086,13.0508694 11.4588962,12.4988994 10.8296505,12.4988994 C10.2004048,12.4988994 9.70363182,13.0508694 9.70363182,13.7242727 Z M13.7330125,13.7242727 C13.7330125,14.397676 14.2408248,14.949646 14.8590312,14.949646 C15.4882769,14.949646 15.9850499,14.397676 15.9850499,13.7242727 C15.9850499,13.0508694 15.4882769,12.4988994 14.8590312,12.4988994 C14.2297855,12.4988994 13.7330125,13.0508694 13.7330125,13.7242727 Z" id="Discord-color" fill="#FFFFFF"></path>
                </g>
                <g id="twitter_color" transform="translate(102.000000, 303.000000)">
                    <circle id="Oval-3" fill="#1DA1F2" cx="29.7839333" cy="29.7839333" r="29.7839333"></circle>
                    <path d="M41.6450336,24.689757 C41.6450336,24.4252717 41.6396465,24.1619798 41.6277829,23.8998782 C42.820938,23.0373277 43.8580254,21.9609256 44.6759,20.7356018 C43.5810318,21.2222762 42.4027687,21.5499034 41.1667227,21.6976336 C42.4283828,20.9411129 43.3969652,19.7443837 43.8538556,18.3177186 C42.6732087,19.0176479 41.3656813,19.5263633 39.9735666,19.8009732 C38.8584453,18.6131781 37.270946,17.87036 35.5130816,17.87036 C32.1385287,17.87036 29.4019535,20.6069352 29.4019535,23.9802958 C29.4019535,24.459821 29.4555645,24.9262433 29.560406,25.3736009 C24.4816007,25.1180528 19.9782239,22.686469 16.9646572,18.9890553 C16.4398584,19.892113 16.1372517,20.9411129 16.1372517,22.0604039 C16.1372517,24.1804458 17.2160355,26.0520868 18.8565502,27.146955 C17.8540142,27.1159797 16.9122364,26.8407722 16.0889997,26.3826914 C16.0881002,26.4083295 16.0881002,26.4333251 16.0881002,26.4607263 C16.0881002,29.4200863 18.1944415,31.8909859 20.9905846,32.4509287 C20.4771047,32.5909152 19.9368182,32.6659707 19.3792581,32.6659707 C18.9861063,32.6659707 18.603081,32.6272755 18.2307789,32.5557701 C19.0087421,34.9837799 21.2645987,36.7505794 23.9392234,36.8000228 C21.847774,38.4393451 19.2130618,39.4156732 16.3496071,39.4156732 C15.8569749,39.4156732 15.3703015,39.3876524 14.8919667,39.3310849 C17.5963753,41.0645284 20.8077103,42.0759996 24.2591048,42.0759996 C35.4987614,42.0759996 41.6450336,32.7642596 41.6450336,24.689757 Z" id="Twitter-color" fill="#FFFFFF"></path>
                    <rect id="500x500" x="0" y="0" width="59.5678667" height="59.5678667"></rect>
                </g>
                <g id="slack_color" transform="translate(319.000000, 329.000000)">
                    <g id="Group-5" fill="#FFFFFF">
                        <ellipse id="Oval-3" stroke="#D4D4D4" transform="translate(28.144914, 28.116835) rotate(10.000000) translate(-28.144914, -28.116835) " cx="28.1449141" cy="28.1168354" rx="14.8675935" ry="14.8399071"></ellipse>
                        <ellipse id="Oval-3-Copy" stroke="url(#linearGradient-3)" transform="translate(28.144914, 28.116835) rotate(10.000000) translate(-28.144914, -28.116835) " cx="28.1449141" cy="28.1168354" rx="24.0295333" ry="23.9847855"></ellipse>
                    </g>
                    <g id="Group" transform="translate(17.734144, 17.720670)">
                        <path d="M13.4787915,1.30946684 C13.162849,0.33889721 12.1185841,-0.192220067 11.1462557,0.123252626 C10.1740124,0.438555678 9.64188726,1.48089374 9.95776157,2.45129118 L14.7443506,17.150486 C15.072935,18.057092 16.0541059,18.5666279 16.9960716,18.2960527 C17.9785216,18.0137085 18.5774193,16.9722556 18.2639138,16.0090507 C18.2519912,15.9725205 13.4787915,1.30946684 13.4787915,1.30946684" id="path22-7" fill="#E7A213"></path>
                        <path d="M6.06217787,3.7147151 C5.74623546,2.74431639 4.70197101,2.21319911 3.72964262,2.52850216 C2.75739951,2.84380521 2.22527422,3.88617516 2.54114853,4.85669377 L7.32773645,19.5558682 C7.65632142,20.4625354 8.63749272,20.9720024 9.57939062,20.701292 C10.5618398,20.4191545 11.1608405,19.3776302 10.8472835,18.4144355 C10.8353737,18.377821 6.06217787,3.7147151 6.06217787,3.7147151" id="path24-8" fill="#4DC088"></path>
                        <path d="M19.5034549,13.48331 C20.4758341,13.1679559 21.0077723,12.1256357 20.691881,11.1551184 C20.3759897,10.1846853 19.3317082,9.65355139 18.3594991,9.96883786 L3.63288174,14.746512 C2.72451538,15.0744858 2.21409714,16.0538296 2.4851775,16.9939735 C2.76798034,17.9745762 3.81137566,18.572411 4.7764457,18.259437 C4.81304411,18.2475493 19.5034549,13.48331 19.5034549,13.48331" id="path26-3" fill="#E10D63"></path>
                        <path d="M6.70217289,17.6349877 C7.66078543,17.3240724 8.89627133,16.9234296 10.2219244,16.4934848 C9.9105141,15.5367262 9.50898801,14.3033365 9.07815597,12.9799476 L5.558217,14.1218421 L6.70217289,17.6349877" id="path28-4" fill="#3F2543"></path>
                        <path d="M14.1188547,15.229603 C15.4495856,14.79806 16.686332,14.3969414 17.6386062,14.0881 C17.327144,13.131205 16.9255327,11.8975602 16.4945813,10.5738996 L12.9746254,11.7158106 L14.1188547,15.229603" id="path30-9" fill="#D01E25"></path>
                        <path d="M17.0937193,6.08050838 C18.0659284,5.76515431 18.5980366,4.72283411 18.2821453,3.75229892 C17.966254,2.78173056 16.9219381,2.25078293 15.9496101,2.56608598 L1.22301115,7.34371037 C0.314719746,7.67168294 -0.195765074,8.65109559 0.0753839071,9.59117062 C0.358181201,10.5717733 1.40158177,11.1696757 2.36657347,10.8567029 C2.40325699,10.8448153 17.0937193,6.08050838 17.0937193,6.08050838" id="path32-2" fill="#7CD3DC"></path>
                        <path d="M4.29172123,10.2323723 C5.25031678,9.92140593 6.48614349,9.52069554 7.81213723,9.09061427 C7.3797205,7.7622943 6.97785361,6.52778209 6.66836881,5.57707706 L3.14774835,6.71924324 L4.29172123,10.2323723" id="path34-0" fill="#36987B"></path>
                        <path d="M11.7083343,7.82700413 C13.0393205,7.39539354 14.2763224,6.99420612 15.2287504,6.68529841 C14.7962656,5.35665446 14.3942632,4.12181955 14.0847776,3.17101249 L10.5640889,4.31326284 L11.7083343,7.82700413" id="path36-4" fill="#5A872D"></path>
                    </g>
                </g>
                <g id="email_color" transform="translate(130.000000, 235.000000)">
                    <path d="M0,9.44580692 C0,4.22903182 4.00536453,0 8.94865919,0 C13.8908672,0 17.8973184,4.22788478 17.8973184,9.44580692 C17.8973184,14.662582 13.8919538,18.8916138 8.94865919,18.8916138 C4.0064512,18.8916138 0,14.6637291 0,9.44580692 L0,9.44580692 Z" id="Shape" fill="#F65756"></path>
                    <path d="M13.3808455,6.68671869 L8.88115924,9.77669761 L4.50076309,6.74040677 C4.58912972,6.39415965 4.88886698,6.1397745 5.24503234,6.1397745 L12.6522861,6.1397745 C12.9895037,6.1397745 13.2764019,6.36838975 13.3808455,6.68671869 Z M13.4229888,7.1602243 L13.4229888,11.7429378 C13.4229888,12.1921738 13.0779334,12.555493 12.6522861,12.555493 L5.24503234,12.555493 C4.81964447,12.555493 4.47432959,12.1916996 4.47432959,11.7429378 L4.47432959,7.25282681 L8.88115941,10.3623028 L13.4229888,7.1602243 Z" id="Email-color" fill="#FFFFFF"></path>
                    <rect id="500x500" x="0" y="0" width="17.8973184" height="18.8916138"></rect>
                </g>
                <g id="telegram_color" transform="translate(359.000000, 270.000000)">
                    <ellipse id="Oval" fill="url(#linearGradient-4)" cx="16.248605" cy="16.2183469" rx="16.248605" ry="16.2183469"></ellipse>
                    <g id="Group-2" transform="translate(8.124303, 9.731008)">
                        <path d="M6.14034586,12.7479375 C5.65829399,12.7479375 5.7402066,12.5662609 5.57395103,12.1081272 L4.1563892,7.45146653 L15.0681508,0.99013107" id="Shape" fill="#C8DAEA"></path>
                        <path d="M6.14034586,12.7479375 C6.51233773,12.7479375 6.67669614,12.5781301 6.88432961,12.3766384 L8.86828627,10.451081 L6.39354833,8.96155255" id="Shape" fill="#A9C9DD"></path>
                        <path d="M6.39330033,8.96192385 L12.3898093,13.383973 C13.0740884,13.7608292 13.5679572,13.5657115 13.7384039,12.7498559 L16.1792906,1.26891485 C16.4291947,0.268857715 15.7973665,-0.184721328 15.1427476,0.111921941 L0.809900707,5.62831343 C-0.16845032,6.01999691 -0.162746445,6.56480415 0.631567803,6.80755954 L4.30969945,7.95342585 L12.8249654,2.59124727 C13.2269522,2.34793494 13.5958938,2.47874487 13.29308,2.74699489" id="Shape" fill="url(#linearGradient-5)"></path>
                    </g>
                    <rect id="500x500" x="0" y="0" width="32.4972101" height="32.4366939"></rect>
                </g>
                <g id="viber-icon" transform="translate(260.000000, 316.000000)">
                    <circle id="Oval-2" fill="#7B519D" cx="12.8235154" cy="12.8235154" r="12.8235154"></circle>
                    <path d="M18.0167769,15.6913876 C17.6257239,15.3765704 17.2078377,15.0940043 16.7964916,14.8053471 C15.9761074,14.2291547 15.2257397,14.1843686 14.6135773,15.1113802 C14.2698111,15.6318224 13.7885768,15.6546162 13.2853822,15.4262936 C11.8981989,14.7973003 10.827019,13.8281635 10.1995646,12.4182185 C9.92199968,11.7944188 9.92565438,11.2351534 10.575069,10.7939605 C10.9188994,10.5606367 11.2652945,10.2845465 11.2375957,9.7747158 C11.2014334,9.109945 9.58737016,6.8883679 8.94997755,6.65389 C8.68622999,6.55684808 8.42357243,6.56316366 8.15524046,6.653345 C6.66066026,7.15596252 6.04160527,8.3851281 6.63446824,9.84053247 C8.40315099,14.1826374 11.5157377,17.2054595 15.8003933,19.0504422 C16.0446812,19.1554988 16.3160587,19.1974958 16.4534626,19.2351969 C17.4289471,19.2450069 18.5716822,18.3051718 18.9016953,17.3724537 C19.2194298,16.4751285 18.5479267,16.1189555 18.0167769,15.6913876 Z M13.2126088,7.09905819 L13.2126088,7.09905819 C12.953093,7.05914501 12.5576159,7.11550434 12.5771397,6.77247542 C12.6064414,6.26367057 13.0761666,6.45288147 13.3031748,6.42021358 C16.3120514,6.52177578 18.9028815,9.27633005 18.8661421,12.2476658 C18.8624874,12.5393686 18.9671914,12.9713927 18.5326667,12.9630894 C18.1168964,12.9550106 18.2254474,12.5165107 18.1884516,12.2250964 C17.7895763,9.07019211 16.3449757,7.58074132 13.2126088,7.09905819 Z M13.8253161,7.96410018 L13.8253161,7.96410018 C15.758268,8.19620572 17.3370025,9.87313625 17.3213899,11.7155542 C17.2919279,11.9335859 17.4192012,12.3068463 17.0668432,12.3605127 C16.5913795,12.432677 16.6838049,11.9972226 16.6372877,11.7174457 C16.3187516,9.79840724 15.6451326,9.09426826 13.7105136,8.66189152 C13.4256714,8.59812662 12.9823626,8.64268832 13.0558734,8.20389983 C13.1262745,7.78585337 13.5240277,7.92780964 13.8253161,7.96410018 Z M14.0029538,9.47067036 L14.0029538,9.47067036 C14.8605261,9.44938333 15.8654726,10.4770595 15.8512706,11.3661776 C15.8600867,11.6092152 15.8340871,11.8651404 15.5465519,11.8994433 C15.3390675,11.9239362 15.2027536,11.7498891 15.1813383,11.5350953 C15.1020569,10.7436924 14.6843952,10.2757304 13.8907801,10.1483288 C13.6530643,10.1101468 13.4195161,10.0335584 13.5305357,9.71232942 C13.6044632,9.49740738 13.8018491,9.47563947 14.0029538,9.47067036 Z" id="Combined-Shape" fill="#FFFFFF"></path>
                </g>
                <g id="messenger_color" transform="translate(281.000000, 53.000000)">
                    <ellipse id="Oval-4" stroke="#1B91FB" fill="#FFFFFF" cx="25.8129903" cy="26.3093939" rx="25.8129903" ry="26.3093939"></ellipse>
                    <ellipse id="Oval-3" fill="#0084FF" cx="25.6826077" cy="26.1456825" rx="16.2388307" ry="16.5202945"></ellipse>
                    <polygon id="Messenger-color" fill="#FFFFFF" points="26.9646206 30.2713451 23.7790127 26.7936032 17.5631923 30.2713451 24.4005947 22.8416236 27.6639004 26.3193656 33.802023 22.8416236"></polygon>
                    <rect id="500x500" x="9.44377693" y="9.62538803" width="32.4776615" height="33.040589"></rect>
                </g>
                <g id="Group-8" transform="translate(0.000000, 126.000000)">
                    <path d="M86.846807,70.345227 C80.6329101,83.953142 79.9734073,91.6979494 84.8682984,93.5796493 C92.2106351,96.4021992 95.8194448,93.4384425 98.7183246,96.4021992 C103.093027,94.1101005 105.280378,91.769875 105.280378,89.3815228 C105.280378,85.7989946 94.3444317,85.2443642 91.9595249,84.0505106 C90.369587,83.2546081 90.369587,79.1119753 91.9595249,71.6226119 C90.8207615,70.8924083 90.008456,70.4666134 89.5226086,70.345227 C89.0367611,70.2238406 88.1448272,70.2238406 86.846807,70.345227 Z" id="Path-8" fill="#315890"></path>
                    <path d="M100.895813,95.6429015 C101.693007,94.0652737 101.493652,92.8117779 100.297749,91.8824141" id="Path-9" stroke="#FFFFFF" stroke-width="2"></path>
                    <path d="M103.820809,93.2196233 C104.618003,91.6419954 104.418648,90.3884996 103.222745,89.4591358" id="Path-9-Copy" stroke="#FFFFFF" stroke-width="2"></path>
                    <path d="M31.1267669,72.0607818 C34.0167337,82.868351 47.1166797,88.532701 70.4266049,89.0538319 C93.7365302,89.5749628 107.758074,84.218895 112.491237,72.9856284 L31.1267669,72.0607818 Z" id="Path-57" fill="#C1E0F4"></path>
                    <path d="M41.4246928,81.6130656 C35.2107959,95.2209806 34.5512931,102.965788 39.4461842,104.847488 C46.7885209,107.670038 50.3973305,104.706281 53.2962104,107.670038 C57.6709128,105.377939 59.858264,103.037714 59.858264,100.649361 C59.858264,97.0668332 48.9223175,96.5122028 46.5374107,95.3183492 C44.9474728,94.5224467 44.9474728,90.3798139 46.5374107,82.8904506 C45.3986473,82.1602469 44.5863418,81.734452 44.1004944,81.6130656 C43.6146469,81.4916792 42.722713,81.4916792 41.4246928,81.6130656 Z" id="Path-8" fill="#315890"></path>
                    <path d="M55.4736984,106.91074 C56.2708923,105.333112 56.0715378,104.079617 54.8756349,103.150253" id="Path-9" stroke="#FFFFFF" stroke-width="2"></path>
                    <path d="M58.3986948,104.487462 C59.1958887,102.909834 58.9965342,101.656338 57.8006312,100.726974" id="Path-9-Copy" stroke="#FFFFFF" stroke-width="2"></path>
                    <path d="M35.3597252,73.2644749 C29.4395077,73.3273124 26.3754784,70.4299399 26.1676376,64.5723574 C25.8558763,55.7859837 20.2734901,49.7618532 13.2795215,49.7618532 C6.28555282,49.7618532 1.08059398,39.3177261 15.2681696,38.028349 C29.4557452,36.7389719 31.7306286,50.2224485 31.7306286,52.2404988 L32.8653187,51.7684558 C29.4562606,63.7319076 31.8303298,70.0466662 39.9875264,70.7127317 L35.3597252,73.2644749 Z" id="Path-11" fill="#315890" transform="translate(23.136714, 55.603552) rotate(-12.000000) translate(-23.136714, -55.603552) "></path>
                    <path d="M72.3684383,81.7963206 C74.9191214,81.7963206 77.4150305,81.2816247 79.83578,81.1753884 C84.1627149,80.9854978 88.2495201,81.0927739 91.9797789,80.6064553 C94.675337,80.2550319 97.1847139,79.8334117 99.4639814,79.3519965 C104.732968,78.2391083 108.772258,76.806678 111.039175,75.183208 C112.369401,74.2305565 112.626601,73.2121236 112.626601,72.1538737 C112.626601,71.0231084 112.267354,69.9378039 110.757157,68.9296363 C109.976028,68.4081755 109.010779,67.9073514 107.879921,67.4315473 C103.968705,65.7859177 98.0764557,64.8987438 90.9690189,64.0330444 C85.3934118,63.3539249 79.0699768,62.5114267 72.3684383,62.5114267 C68.7387549,62.5114267 65.2199888,62.6238784 61.8708835,62.8348715 C59.429103,62.9887034 57.0775082,63.6540805 54.8388654,63.9072836 C52.7094885,64.1481282 50.6823065,63.9723237 48.7769124,64.2935589 C41.5407111,65.5135284 36.5237772,67.2797726 33.873822,69.3381679 C32.7271112,70.2288939 31.6475382,71.1743264 31.6475382,72.1538737 C31.6475382,73.3611884 32.5845814,74.5166789 34.2958484,75.5817906 C35.0638767,76.05982 35.987855,76.5196446 37.0530641,76.957779 C37.6651854,77.2095525 38.3239442,77.4541635 39.0265473,77.6909504 C40.4318816,78.1645676 42.0126252,78.147719 43.7464267,78.5534403 C47.301827,79.3854281 51.500854,80.522697 56.150769,81.0012794 C61.120112,81.5127382 66.6044188,81.7963206 72.3684383,81.7963206 Z" id="Oval-9" stroke="#315890" stroke-width="2" fill="#FFFFFF"></path>
                    <path d="M47.9524765,66.4133271 C48.4733084,59.5041121 48.9497996,54.6245743 49.3819501,51.7747137 C50.3478992,45.4046637 51.8414366,40.9538489 52.9370873,38.4222692 C54.2482172,35.3928098 56.2252553,33.1423378 57.9427267,31.6708535 C60.4696197,29.505878 63.4437067,27.4291855 66.8649878,26.3591042 C72.9783737,24.4470077 77.2457434,25.7624367 81.5869664,30.336192 C83.3220324,32.1641947 85.7263842,34.446564 87.2577195,37.3526716 C89.6158718,41.8278799 92.3381784,47.6609792 93.9501481,54.7200484 C94.5969214,57.5523707 95.2306842,62.2368115 95.8514365,68.7733709 L95.8514393,68.7733706 C96.0319344,70.6739954 94.7647977,72.4101207 92.8996328,72.8176902 C92.8996328,72.8176902 92.8996328,72.8176902 92.8996328,72.8176902 C81.5094876,75.3066262 75.3427968,75.2365995 69.583972,75.2365995 C64.8150068,75.2365995 59.1021066,74.3831766 52.4452715,72.6763307 L52.4452731,72.6763245 C49.6274412,71.9538183 47.7338113,69.3140817 47.9524765,66.4133271 Z" id="Path-56" stroke="#C1E0F4" stroke-width="2" fill="#FFFFFF"></path>
                    <path d="M54.8636814,68.1100364 C57.0683371,68.6677994 58.714326,69.056928 59.8016479,69.2774223 C61.7256384,69.6675819 62.5131706,70.4349538 64.3953972,70.6626129 C66.4938014,70.9164192 69.6818278,70.6107775 71.7283238,70.6626129 C73.6346419,70.7108978 75.7876224,70.789578 77.6488999,70.6626129 C80.4308574,70.4728447 82.8933222,69.9693041 85.5746599,69.3880316 C87.2056404,69.0344603 88.8180066,68.6084619 90.4117584,68.1100364 C90.5659702,66.2043858 90.5659702,64.5600989 90.4117584,63.1771757 C90.3215482,62.3681989 90.0747081,59.9015217 89.9737562,59.1317862 C89.7838603,57.6838738 89.1382093,56.3053863 88.9103053,54.9963238 C88.6331392,53.4043033 88.3553432,51.7680826 88.021962,50.3814252 C87.5587989,48.454956 87.0139071,46.8735568 86.4422419,45.3434643 C85.8149131,43.6643853 85.1222539,42.2239693 84.3642643,41.0222161 C83.9654469,40.3899118 83.3987857,39.7046747 82.6642807,38.9665048 L82.6643021,38.9664835 C82.1314487,38.4309713 81.2653672,38.428816 80.729855,38.9616695 C80.6045032,39.086399 80.5045256,39.2342509 80.4354575,39.3970395 C80.4354575,39.3970395 80.4354575,39.3970395 80.4354575,39.3970395 C79.9792058,40.4723925 79.7510799,41.268272 79.7510799,41.7846778 C78.3484433,41.3339177 77.3312661,41.0797638 76.6995482,41.0222161 C72.2993704,40.6213722 69.5432798,41.1023891 68.4775892,41.5805682 C68.4775892,40.5370763 68.4775892,39.8092334 68.4775892,39.3970395 C68.4775892,39.3970395 68.4775892,39.3970395 68.4775892,39.3970395 L68.4775892,39.3970395 C68.4775892,38.3237744 67.6075359,37.4537211 66.5342707,37.4537211 C66.0609274,37.4537211 65.6038579,37.6264825 65.2488567,37.9395769 C63.0247565,39.9011148 61.559074,41.3368286 60.8518017,42.2467102 C58.5764954,45.1738142 57.4655058,48.3712445 56.6460192,50.3814252 C55.6265238,52.8822226 55.5811826,56.0139932 55.2159135,58.7357027 C55.034356,60.0885315 54.9024437,61.6990448 54.7791624,63.1771757 C54.6785858,64.3399898 54.7067588,65.9842767 54.8636814,68.1100364 Z" id="Path-58" stroke="#315890" stroke-width="2" fill="#C1E0F4"></path>
                    <rect id="Rectangle" fill="#3A6499" x="73.0869197" y="52.1885928" width="2.62050659" height="3.46702726" rx="1.31025329"></rect>
                    <rect id="Rectangle-Copy" fill="#3A6499" x="83.1321949" y="52.1885928" width="2.62050659" height="3.46702726" rx="1.31025329"></rect>
                    <path d="M76.994762,60.8064401 C75.1667008,60.6324639 74.2285645,60.0549214 74.1803534,59.0738125 C74.1080366,57.6021493 76.5686046,56.0675088 79.0517112,57.7822997 C81.3626679,56.5624081 83.6993433,56.5588407 84.1942224,58.6826404 C84.5241418,60.0985069 83.5555855,60.7557657 81.2885535,60.6544167 L79.4824316,59.4464619 L77.8238469,60.6544167 L76.994762,60.8064401 Z" id="Path-70" fill="#FFFFFF"></path>
                    <ellipse id="Oval-2" fill="#FFFFFF" cx="69.3745353" cy="58.6892689" rx="2.62050659" ry="1.73351363"></ellipse>
                    <ellipse id="Oval-2-Copy" fill="#FFFFFF" cx="88.1548326" cy="58.6892689" rx="1.14768153" ry="1.73351363"></ellipse>
                    <path d="M76.1466044,58.8078036 C76.1983908,60.2307863 76.5595964,60.9422776 77.2302212,60.9422776 C77.900846,60.9422776 78.6533844,60.4958075 79.4878365,59.6028672 C80.1158767,60.4958075 80.7724101,60.9422776 81.4574367,60.9422776 C82.1424632,60.9422776 82.3440603,60.1252505 82.0622278,58.4911964" id="Path-69" stroke="#315890" stroke-width="2"></path>
                    <path d="M99.2991103,43.6146621 C99.8556863,44.1138006 100.195145,44.488551 100.317487,44.7389134 C100.525342,45.1642727 101.156653,45.5906495 101.337919,46.018044 C101.517057,46.4404194 101.683211,46.8637887 101.83638,47.2881518 C102.016035,47.7858944 102.177828,47.8516259 102.321758,48.3521031 C102.407679,48.6508683 102.487234,49.3834993 102.560423,49.683239 C102.664919,50.1111887 103.01272,50.552724 103.091264,50.9826602 C103.202907,51.5937742 103.032053,52.1943026 103.091264,52.80943 C103.132342,53.2361802 103.160802,53.6638962 103.176645,54.0925781 C103.194918,54.5870408 103.196404,55.0827886 103.181103,55.5798212" id="Path-7" stroke="#315890" stroke-width="2"></path>
                    <path d="M102.704615,40.6575158 C103.536303,41.4033748 104.043554,41.9633617 104.226368,42.3374765 C104.536964,42.9730877 105.480329,43.6102196 105.751193,44.2488721 C106.018877,44.8800247 106.267159,45.5126624 106.49604,46.1467852 C106.764497,46.8905584 107.006263,46.9887805 107.221336,47.73664 C107.349727,48.1830828 107.468606,49.2778479 107.577972,49.7257469 C107.734119,50.3652291 108.253836,51.0250121 108.371204,51.6674626 C108.538031,52.580646 108.282725,53.4780112 108.371204,54.3971917 C108.432586,55.0348815 108.475114,55.6740145 108.498788,56.3145907 C108.526094,57.0534629 108.528314,57.7942552 108.50545,58.5369676" id="Path-7-Copy" stroke="#315890" stroke-width="2"></path>
                    <polyline id="Path-4" stroke="#315890" stroke-width="2" fill="#FFFFFF" points="44.2334755 69.6014624 43.4120283 64.1169143 42.9624536 61.1152433 42.9045806 56.4697538 41.5640387 51.7784609 40.4052591 44.0416485 40.3312753 38.6556137 38.4467287 30.9651484 37.7438484 26.2722345 36.8876567 20.5557076 35.6007685 16.2226439 35.1610977 9.02800838 34.3681122 3.73349043 34.4468337 0"></polyline>
                    <path d="M34.4090286,2.65741536 L0.512725544,8.08738015 L4.40438303,30.7308845 L37.6745197,26.238762 C34.6171896,23.6326239 32.7580479,20.4510865 32.0970945,16.6941499 C31.4361412,12.9372134 32.2067858,8.25830183 34.4090286,2.65741536 Z" id="Path-10" stroke="#315890" stroke-width="2" fill="#C1E0F4"></path>
                    <g id="github_color-copy" transform="translate(17.157897, 17.744068) rotate(-13.000000) translate(-17.157897, -17.744068) translate(7.657897, 8.244068)">
                        <ellipse id="Oval-3" fill="#315890" cx="9.30550756" cy="9.23364834" rx="9.30550756" ry="9.23364834"></ellipse>
                        <ellipse id="Oval-3" fill="#FFFFFF" cx="9.07286987" cy="9.46448954" rx="6.74649298" ry="6.69439504"></ellipse>
                        <path d="M1.6762589,9.40912468 C1.6762589,12.5462535 4.32592278,15.2073861 7.09923767,16.1463017 C7.44841914,16.2116858 7.57566686,15.9924312 7.57566686,15.804125 C7.57566686,15.6358699 7.56966865,15.1890786 7.5662411,14.5966987 C5.62496353,15.0256183 5.21537153,13.6447063 5.21537153,13.6447063 C4.89789488,12.8243539 4.4403172,12.605971 4.4403172,12.605971 C3.80664924,12.1657181 4.48830288,12.174436 4.48830288,12.174436 C5.18880803,12.2245638 5.55726945,12.9063019 5.55726945,12.9063019 C6.17979788,13.991242 7.19092458,13.6778342 7.58852017,13.4960664 C7.65192981,13.037506 7.83230453,12.7245341 8.03153076,12.5471253 C6.48185056,12.3679729 4.85247987,11.7585931 4.85247987,9.03774303 C4.85247987,8.26272357 5.1245415,7.62849786 5.57097965,7.13245053 C5.49900113,6.95286222 5.25950121,6.23058593 5.63953061,5.25331167 C5.63953061,5.25331167 6.2252129,5.06239012 7.55852912,5.98125459 C8.11507725,5.82346097 8.71232751,5.74500006 9.30572178,5.7419488 C9.89868761,5.74500006 10.4955094,5.82346097 11.0529144,5.98125459 C12.3853738,5.06239012 12.9701992,5.25331167 12.9701992,5.25331167 C13.3510855,6.23058593 13.1115855,6.95286222 13.0400355,7.13245053 C13.4873305,7.62849786 13.7572499,8.26272357 13.7572499,9.03774303 C13.7572499,11.7655674 12.1253086,12.3657934 10.5709155,12.5414587 C10.8211265,12.7607133 11.0443456,13.1939919 11.0443456,13.8565508 C11.0443456,14.8054919 11.0357767,15.5713576 11.0357767,15.804125 C11.0357767,15.9941747 11.1617391,16.215173 11.5156334,16.1458658 C14.2868061,15.2047708 16.2846382,12.5453817 16.2846382,9.40912468 C16.2846382,5.48738673 13.1595712,2.30841208 9.3048649,2.30841208 C5.4514439,2.30841208 1.6762589,5.48738673 1.6762589,9.40912468 Z" id="github_color" fill="#315890"></path>
                    </g>
                </g>
                <g id="Group-3" transform="translate(174.000000, 108.000000)">
                    <g id="Group">
                        <path d="M66.7831715,93.2197382 C82.6378283,113.292302 88.6915129,127.991651 84.9442254,137.317785 C103.059357,138.40858 112.116922,138.953977 112.116922,138.953977 C123.648368,123.859444 123.744535,105.400999 112.405424,83.5786408 C101.066314,61.7562831 85.8588963,64.9699822 66.7831715,93.2197382 Z" id="Path-6" fill="#44B8FF"></path>
                        <path d="M102.144759,97.0187798 C112.439713,106.628129 117.375323,118.100514 116.951591,131.435937 C120.044431,126.378851 121.42647,119.512594 121.097708,110.837167 C120.768945,102.161741 116.458869,95.9964058 108.167479,92.3411627 L102.144759,97.0187798 Z" id="Path-38" fill="#3390D5"></path>
                        <path d="M80.0089441,93.8521449 C95.5691241,100.625366 105.395683,99.5538909 109.488619,90.6377183 C113.581556,81.7215458 103.754998,82.7930213 80.0089441,93.8521449 Z" id="Path-37" fill="#3390D5"></path>
                        <path d="M114.729087,85.4385285 C144.397249,112.417485 155.859701,131.610235 149.116442,143.01678 C142.373183,154.423324 119.343305,155.371803 80.0268082,145.862216 C80.2423952,134.315699 78.9318648,127.159338 76.0952171,124.393133 C71.8402456,120.243826 119.223382,140.406704 123.874295,129.649875 C126.974904,122.478655 121.047086,108.585407 106.090842,87.9701304 L114.729087,85.4385285 Z" id="Path-5" fill="#C1E0F4"></path>
                        <path d="M58.2824,87.8471469 C54.670874,99.8134173 50.1899673,106.087615 44.8396799,106.66974 C39.4893926,107.251866 42.3219797,114.682845 53.3374414,128.962678 C65.1034734,109.915986 69.4484596,97.3204029 66.3723999,91.1759295 C63.2963401,85.0314562 60.5996735,83.921862 58.2824,87.8471469 Z" id="Path-36" fill="#C1E0F4" transform="translate(54.772344, 107.257328) rotate(10.000000) translate(-54.772344, -107.257328) "></path>
                        <path d="M80.9400625,4.30621325 C83.2095568,6.49377344 85.0750702,8.00843808 86.5366027,8.85020718 C89.4877433,10.5499155 86.2610962,11.1096064 83.585462,10.5499155 C80.9098278,9.99022467 75.8576417,9.45824285 75.8576417,6.5233508 C75.8576417,6.48831264 75.8579175,6.45339626 75.8584692,6.41860164 L75.8584721,6.41860169 C75.8847394,4.76195726 77.2490089,3.44027546 78.9056533,3.46654276 C79.6656763,3.47859347 80.3927895,3.77869804 80.9400625,4.30621325 Z" id="Path-2" fill="#315890" transform="translate(81.783981, 7.112818) scale(1, -1) rotate(-52.000000) translate(-81.783981, -7.112818) "></path>
                        <path d="M42.9865178,13.2853269 C44.4009765,9.41452977 46.4373762,6.14507905 49.3745853,6.0255801 C52.3117944,5.90608116 52.91109,8.71114127 51.8547726,9.61947656 C50.7984552,10.5278118 47.2719478,12.2199787 45.3012931,15.4776104 C43.3306385,18.7352422 41.5720591,17.1561239 42.9865178,13.2853269 Z" id="Path-3" fill="#315890"></path>
                        <g id="Path-32" transform="translate(36.374675, 15.323391)">
                            <mask id="mask-7" fill="white">
                                <use xlink:href="#path-6"></use>
                            </mask>
                            <use id="Mask" fill="#44B8FF" xlink:href="#path-6"></use>
                            <path d="M-2.76670125,30.8346006 C-1.77493325,26.8243862 -0.147639785,24.8192789 2.11517915,24.8192789 C5.50940756,24.8192789 7.81087396,27.7989906 23.003973,25.9144045 C38.1970721,24.0298183 54.0705464,17.4694422 63.9070487,22.1731469 C73.743551,26.8768517 74.113759,62.4336252 65.6185806,77.2491383 C59.9551283,87.126147 45.3692521,93.3880988 21.860952,96.0349936 L5.20515788,85.8538362 L-6.7565868,43.0032189 L-2.76670125,30.8346006 Z" fill="#3390D5" mask="url(#mask-7)"></path>
                            <rect id="Rectangle-4" fill="#FFFFFF" mask="url(#mask-7)" transform="translate(43.108730, 53.796579) rotate(-6.000000) translate(-43.108730, -53.796579) " x="40.2214502" y="49.4806336" width="5.77456045" height="8.63188998" rx="2.88728022"></rect>
                            <rect id="Rectangle-4-Copy" fill="#FFFFFF" mask="url(#mask-7)" transform="translate(13.273501, 55.714776) rotate(-6.000000) translate(-13.273501, -55.714776) " x="10.3862213" y="51.3988314" width="5.77456045" height="8.63188998" rx="2.88728022"></rect>
                        </g>
                        <path d="M117.925893,44.9633948 C113.246259,52.6515696 112.856322,62.1723332 116.756082,73.5256857 C126.008369,73.6483262 130.411398,68.4883407 129.96517,58.0457294 C129.518942,47.603118 125.505849,43.2423398 117.925893,44.9633948 Z" id="Path-20" fill="#3390D5"></path>
                        <path d="M9.42845649,103.64283 L44.5585792,103.64283 L44.5585792,103.642841 C46.1095938,103.642841 47.5207993,104.539475 48.1796918,105.943579 C51.3644511,112.730319 54.0366442,119.792298 56.1962711,127.129516 C58.2324501,134.047326 60.3507955,141.977149 62.5513075,150.918985 L62.5513104,150.918984 C63.0792114,153.064124 61.7681808,155.231051 59.6230414,155.758952 C59.3102533,155.835927 58.9893123,155.874837 58.667192,155.874837 L23.8649215,155.874837 L23.8649215,155.874837 C22.1339631,155.874837 20.5994006,154.761459 20.0623313,153.115928 L5.62586628,108.883921 L5.62586628,108.883921 C4.94043047,106.783808 6.08725258,104.525675 8.18736516,103.840239 C8.58807678,103.709455 9.0069421,103.64283 9.42845649,103.64283 Z" id="Path-33-Copy" fill="#3390D5"></path>
                        <path d="M4.61632278,103.64283 L39.3414199,103.64283 L39.3414199,103.64283 C41.0817926,103.64283 42.6224402,104.768147 43.1518564,106.426041 L57.276481,150.658048 L57.276481,150.658048 C57.9484945,152.762494 56.7872786,155.01326 54.6828327,155.685273 C54.2894532,155.810891 53.8789939,155.874837 53.4660444,155.874837 L19.0527878,155.874837 L19.0527878,155.874837 C17.3218294,155.874837 15.7872669,154.761459 15.2501976,153.115928 L0.813732575,108.883921 L0.813732575,108.883921 C0.128296759,106.783808 1.27511887,104.525675 3.37523145,103.840239 C3.77594308,103.709455 4.19480839,103.64283 4.61632278,103.64283 Z" id="Path-33" fill="#44B8FF"></path>
                        <path d="M58.3296582,119.824585 C60.3028426,115.043194 62.0519293,111.37546 70.9864806,113.728066 C79.9210319,116.080672 87.3838912,136.55942 86.4863948,144.003187 C85.9466021,148.480186 83.5424835,150.937691 79.2740389,151.375703 L79.2740387,151.3757 C78.4244621,151.462881 77.6132661,151.000973 77.254696,150.225854 L75.4887128,146.408342 L75.4887237,146.408337 C74.9509612,145.24586 75.2105478,143.870184 76.1349601,142.983616 C77.258038,141.906515 77.8195769,140.16337 77.8195769,137.754182 C77.8195769,132.58751 70.1430245,124.785277 64.6972704,128.967987 C59.2515163,133.150696 56.3564738,124.605976 58.3296582,119.824585 Z" id="Path-34" fill="#3390D5"></path>
                        <path d="M2.98412104,122.227153 C7.06680949,118.814121 9.45800204,117.921725 10.1576987,119.549963 C11.3110941,122.233987 12.0143521,132.367725 10.1576987,135.296106 C8.30104529,138.224487 12.0590314,144.278757 8.30104529,144.786518 C5.88962886,145.112336 3.76770699,138.493661 1.93527968,124.930491 L1.93526832,124.930493 C1.79726581,123.909032 2.19331336,122.888249 2.98412104,122.227153 Z" id="Path-35" fill="#3390D5" transform="translate(6.604844, 131.779554) rotate(-8.000000) translate(-6.604844, -131.779554) "></path>
                        <path d="M122.70463,116.438462 C127.687064,108.395014 133.597187,105.713865 140.434998,108.395014" id="Path-41" stroke="#FFFFFF" stroke-width="2"></path>
                        <path d="M115.658301,102.209809 C117.577528,96.9139086 121.071295,94.7631663 126.1396,95.7575823" id="Path-42" stroke="#FFFFFF" stroke-width="2"></path>
                        <path d="M57.5908457,75.6406883 C58.4472607,78.3393943 60.3082327,79.8117199 63.1737616,80.0576652 C66.070503,80.3062895 68.1920571,78.8647897 69.5384238,75.7331661 L69.5384121,75.733161 C69.7565455,75.2257869 69.5220695,74.6376468 69.0146953,74.4195135 C68.8899273,74.3658724 68.7555402,74.3382083 68.6197299,74.3382083 L58.5440103,74.3382083 L58.5440103,74.3381999 C57.9917209,74.3381999 57.5440019,74.7859189 57.5440019,75.3382083 C57.5440019,75.4408414 57.5598015,75.5428629 57.5908457,75.6406883 Z" id="Path-45" fill="#FFFFFF" transform="translate(63.581987, 77.211648) rotate(-3.000000) translate(-63.581987, -77.211648) "></path>
                        <path d="" id="Path-22" stroke="#979797"></path>
                        <path d="M106.096594,152.047033 C109.757288,143.342337 109.757288,136.020403 106.096594,130.081233" id="Path-39" stroke="#FFFFFF" stroke-width="2"></path>
                        <path d="M122.263355,128.120397 C138.581956,129.361311 147.363866,135.259529 148.609086,145.815052" id="Path-40" stroke="#FFFFFF" stroke-width="2"></path>
                        <path d="M52.3511745,100.359498 C58.6755249,100.909091 63.0176964,104.253302 65.377689,110.39213" id="Path-44" stroke="#FFFFFF" stroke-width="2"></path>
                    </g>
                    <path d="M92.5925958,103.825792 L92.5925958,102.499319 C92.5925958,102.168503 92.9042778,101.90174 93.278132,101.90174 C93.6556384,101.90174 93.9636682,102.168396 93.9636682,102.499319 L93.9636682,103.659875 C94.0724316,103.655697 94.1817432,103.653588 94.2915622,103.653588 C98.7819488,103.653588 102.424022,107.179848 102.424022,111.532086 C102.424022,113.133168 101.931132,114.622468 101.08444,115.865551 C101.108669,116.243167 101.212043,116.429854 101.446652,116.601341 C101.470025,116.618425 101.533889,116.661427 101.61779,116.716842 C101.668664,116.750374 101.668664,116.750374 101.708398,116.776404 C101.724848,116.78716 101.724848,116.78716 101.742857,116.798887 C101.741803,116.798217 101.747671,116.802034 101.747671,116.802034 C102.304734,117.178584 102.524947,117.625687 102.404019,118.245131 C102.202871,119.275492 101.202657,119.609023 99.7632891,119.321066 C99.0817991,119.184728 98.3771838,118.92021 97.8571207,118.614938 C96.7804278,119.124578 95.5703973,119.410584 94.2915622,119.410584 C89.8011755,119.410584 86.1591019,115.884324 86.1591019,111.532086 C86.1591019,108.348427 88.107943,105.606742 90.912095,104.363971 C90.9021939,104.319051 90.8969779,104.272309 90.8969779,104.224276 L90.8969779,103.632719 C90.8969779,103.281848 91.186553,102.993521 91.5368526,102.993521 C91.8920907,102.993521 92.1767274,103.277894 92.1767274,103.632719 L92.1767274,103.922636 C92.313952,103.88693 92.4526087,103.854615 92.5925958,103.82579 Z M99.5487378,115.367601 C100.381715,114.300524 100.875611,112.97195 100.875611,111.532086 C100.875611,108.015071 97.9288788,105.162042 94.2915622,105.162042 C90.6542456,105.162042 87.7075138,108.015071 87.7075138,111.532086 C87.7075138,115.049101 90.6542456,117.90213 94.2915622,117.90213 C95.6168128,117.90213 96.8503884,117.523391 97.8831655,116.871791 C98.1303296,117.066815 98.1303296,117.066815 98.1303296,117.066815 C98.5679663,117.331724 99.5317578,117.73481 100.074795,117.843449 C100.298166,117.888136 100.499878,117.909482 100.662867,117.908252 C100.599383,117.865674 100.54868,117.830841 100.517329,117.807925 C99.9626279,117.402466 99.635674,116.749242 99.5548787,115.924081 C99.5548787,115.924081 99.5548787,115.924081 99.5548787,115.411384 C99.5548787,115.394238 99.5527831,115.379693 99.5487378,115.367601 Z M96.0077823,109.221894 C96.0077823,110.392706 95.016317,111.339324 93.7964337,111.339324 C92.5765504,111.339324 91.5850851,110.392706 91.5850851,109.221894 C91.5850851,108.051082 92.5765504,107.104464 93.7964337,107.104464 C95.016317,107.104464 96.0077823,108.051082 96.0077823,109.221894 Z M95.076083,113.32622 C94.6528917,113.32622 94.3098274,112.994064 94.3098274,112.58433 C94.3098274,112.174596 94.6528917,111.842441 95.076083,111.842441 C95.4992742,111.842441 95.8423385,112.174596 95.8423385,112.58433 C95.8423385,112.994064 95.4992742,113.32622 95.076083,113.32622 Z M93.567093,113.11449 C93.567093,113.878939 92.9191342,114.497589 92.1211645,114.497589 C91.3231948,114.497589 90.675236,113.878939 90.675236,113.11449 C90.675236,112.350042 91.3231948,111.731392 92.1211645,111.731392 C92.9191342,111.731392 93.567093,112.350042 93.567093,113.11449 Z" id="Combined-Shape-Copy" fill="#FFFFFF" fill-rule="nonzero"></path>
                    <ellipse id="Oval-17" fill="#FFFFFF" transform="translate(27.087822, 130.842276) rotate(-11.000000) translate(-27.087822, -130.842276) " cx="27.0878224" cy="130.842276" rx="5.41756448" ry="8.25703682"></ellipse>
                </g>
                <path d="M174.3689,172.894904 C174.372338,172.89358 174.375765,172.892254 174.37918,172.890927 C176.438354,172.090466 178.086584,170.462227 178.918562,168.412999 C178.920937,168.40715 178.923307,168.401267 178.925671,168.39535 L178.925656,168.395344 C179.05443,168.07313 179.420027,167.916315 179.742241,168.045089 C179.901452,168.108718 180.027743,168.234649 180.091827,168.393676 C180.091827,168.393676 180.091827,168.393676 180.091827,168.393676 C180.91805,170.443998 182.560566,172.075242 184.614984,172.881537 C184.618661,172.88298 184.622352,172.884421 184.626057,172.885861 L184.626063,172.885846 C184.927766,173.003054 185.077329,173.342649 184.960121,173.644351 C184.900705,173.797295 184.779894,173.918326 184.627059,173.978021 C184.627059,173.978021 184.627059,173.978021 184.627059,173.978021 C182.516354,174.802439 180.838914,176.497103 180.032258,178.622893 C180.02993,178.629027 180.027608,178.635199 180.025292,178.64141 L180.025242,178.641392 C179.918916,178.926453 179.601633,179.071347 179.316572,178.96502 C179.167407,178.909383 179.049606,178.791934 178.993522,178.642936 C178.993522,178.642936 178.993522,178.642936 178.993522,178.642936 C178.186895,176.499976 176.496214,174.792624 174.36798,173.969015 C174.36798,173.969015 174.36798,173.969015 174.36798,173.969015 L174.36798,173.969015 C174.071463,173.854265 173.924111,173.520867 174.03886,173.22435 C174.097474,173.072891 174.217333,172.953235 174.36889,172.894879 Z" id="Combined-Shape" fill="#C1E0F4"></path>
                <path d="M158.536626,117.119887 C158.541628,117.117961 158.546612,117.116033 158.551579,117.114102 C161.546742,115.949795 163.944167,113.581447 165.154318,110.600754 C165.157774,110.592241 165.161222,110.583679 165.164664,110.575068 L165.164683,110.575076 C165.351984,110.106413 165.883747,109.878325 166.352409,110.065625 C166.583982,110.158173 166.767674,110.34134 166.860885,110.572648 C166.860885,110.572648 166.860885,110.572648 166.860885,110.572648 C168.062665,113.554933 170.451779,115.927651 173.440023,117.100443 C173.445372,117.102542 173.450741,117.104639 173.45613,117.106732 L173.456138,117.106712 C173.894979,117.277196 174.112525,117.771151 173.942041,118.209992 C173.855617,118.432455 173.679892,118.6085 173.457587,118.69533 C173.457587,118.69533 173.457587,118.69533 173.457587,118.69533 C170.38747,119.894482 167.947557,122.359448 166.774239,125.451505 C166.770854,125.460427 166.767476,125.469405 166.764106,125.478439 L166.764034,125.478412 C166.609377,125.893047 166.147876,126.103801 165.733241,125.949145 C165.516273,125.868217 165.344926,125.697382 165.26335,125.480658 C165.26335,125.480658 165.26335,125.480658 165.26335,125.480658 C164.090074,122.363626 161.630902,119.880206 158.535288,118.682229 C158.535288,118.682229 158.535288,118.682229 158.535288,118.682229 L158.535288,118.682229 C158.10399,118.515321 157.88966,118.030378 158.056569,117.59908 C158.141824,117.378777 158.316165,117.204732 158.536612,117.11985 Z" id="Combined-Shape-Copy-3" fill="#FFFFFF" transform="translate(166.000015, 118.000005) scale(-1, -1) translate(-166.000015, -118.000005) "></path>
                <path d="M104.603656,48.0098666 C104.609288,48.0076982 104.6149,48.005527 104.620492,48.0033529 C107.990051,46.6935083 110.687154,44.0291167 112.048573,40.6758362 C112.052461,40.6662597 112.056341,40.6566275 112.060213,40.6469397 L112.060235,40.6469484 C112.270948,40.1197035 112.869181,39.8631038 113.396426,40.0738169 C113.656946,40.1779336 113.863599,40.3839963 113.968461,40.6442173 C113.968461,40.6442173 113.968461,40.6442173 113.968461,40.6442173 C115.320464,43.9992883 118.008217,46.6685961 121.369992,47.9879867 C121.376014,47.9903505 121.38206,47.992711 121.388127,47.9950682 L121.388119,47.9950891 C121.881801,48.1868768 122.126535,48.7425599 121.934748,49.236242 C121.837524,49.4865069 121.639839,49.6845534 121.389752,49.7822344 C121.389752,49.7822344 121.389752,49.7822344 121.389752,49.7822344 C117.935869,51.1312807 115.190968,53.9043669 113.870985,57.3829315 C113.867178,57.3929641 113.86338,57.4030598 113.859591,57.4132186 L113.859552,57.4132041 C113.685557,57.8796814 113.166352,58.1167854 112.699875,57.9427908 C112.455781,57.8517443 112.26301,57.6595499 112.171234,57.415729 C112.171234,57.415729 112.171234,57.415729 112.171234,57.415729 C110.851299,53.9090679 108.084731,51.1152196 104.602165,49.7674965 C104.602165,49.7674965 104.602165,49.7674965 104.602165,49.7674965 L104.602165,49.7674965 C104.116969,49.5797297 103.875854,49.0341851 104.063621,48.5489887 C104.159531,48.3011538 104.35566,48.1053581 104.603657,48.0098689 Z" id="Combined-Shape-Copy-2" fill="#C1E0F4"></path>
                <g id="Group-7" transform="translate(416.000000, 113.000000)">
                    <path d="M45.4023258,37.6084421 C41.9612466,46.9990223 43.2178305,54.886155 49.1720774,61.2698402 C58.1034479,70.845368 75.9078115,65.2291702 78.0608664,74.573203 C79.4962363,80.8025583 76.301989,83.7732469 68.4781244,83.4852689" id="Path-83" stroke="#C1E0F4" stroke-width="10" stroke-linecap="round" stroke-linejoin="round"></path>
                    <path d="M19.2998552,44.3093508 C15.858776,52.6458332 17.1153598,59.6476309 23.0696068,65.3147439 C32.0009772,73.8154135 49.8053409,68.829637 51.9583958,77.1247971 C53.3937657,82.6549038 50.1995184,85.292131 42.3756537,85.0364786" id="Path-83-Copy" stroke="#C1E0F4" stroke-width="10" stroke-linecap="round" stroke-linejoin="round" transform="translate(34.850776, 64.681387) rotate(37.000000) translate(-34.850776, -64.681387) "></path>
                    <path d="M47.6751114,44.1782678 C50.7490325,48.6865919 51.7736729,52.6433297 50.7490325,56.0484813 C49.212072,61.1562087 39.0309489,74.9302804 44.8747477,86.7846838 C48.7706137,94.6876193 53.7109639,97.2750516 59.6957986,94.5469804" id="Path-84" stroke="#C1E0F4" stroke-width="10" stroke-linecap="round" stroke-linejoin="round"></path>
                    <path d="M32.5138978,41.7299153 C36.2592342,46.2179534 35.6617273,50.7711965 30.7213771,55.3896447 C23.3108517,62.3173169 14.1078055,81.2601028 23.3108517,94.1967809" id="Path-85" stroke="#C1E0F4" stroke-width="10" stroke-linecap="round" stroke-linejoin="round"></path>
                    <path d="M38.6297099,39.1539946 C37.7312899,64.5829905 30.0265703,78.6991551 15.5155512,81.5024885 C-6.25097744,85.7074884 -0.585460158,106.565853 5.51342961,111.97932" id="Path-86" stroke="#C1E0F4" stroke-width="10" stroke-linecap="round" stroke-linejoin="round"></path>
                    <rect id="Rectangle-2" fill="#315890" x="14.3333187" y="18.0314449" width="41.4642434" height="29.622021" rx="14.8110105"></rect>
                    <g id="Combined-Shape-Copy-4">
                        <mask id="mask-9" fill="white">
                            <use xlink:href="#path-8"></use>
                        </mask>
                        <g id="Mask">
                            <use fill="#FFFFFF" fill-rule="evenodd" xlink:href="#path-8"></use>
                            <path stroke="#315890" stroke-width="2" d="M63.9808156,37.0659167 L56.2301501,37.5759221 L56.0959349,37.5757273 L48.6646373,37.065068 L40.5713272,37.5774901 L25.6371515,37.0618839 L14.1304945,37.5780754 L4.43045666,37.5780744 C1.51343172,37.578074 -0.851283957,35.2133578 -0.851283638,32.2963329 C-0.85128362,32.1329738 -0.843704799,31.9697027 -0.828590722,31.8072516 C-0.825555186,31.7749334 -0.825555186,31.7749334 -0.822463235,31.7434994 C-0.620881332,29.7172567 -0.248766308,27.723848 0.287943814,25.7792925 C0.418132486,25.3076057 0.438543194,25.2297337 0.754815616,24.0106987 C1.46054397,21.2905516 1.90873753,19.9360749 2.73680405,18.3955035 C4.07402684,15.9076755 5.83821688,13.7817238 9.03464129,10.4676374 C9.70014679,9.77763428 10.490894,9.13417608 11.7039673,8.24628964 C11.9260566,8.08373554 12.7041814,7.5202989 12.6722866,7.5434699 C13.0444554,7.27309623 13.3138369,7.07378147 13.5617219,6.88382217 C16.680281,4.49400687 18.5256159,3.30742991 21.040491,2.25884479 C22.7620297,1.54104376 24.5398264,0.958653856 26.360217,0.518189754 C26.7792391,0.416802592 26.863681,0.395512484 27.9574428,0.117614505 C31.1506492,-0.693700705 32.8067202,-1 34.8094883,-1 C37.3578347,-1 39.5090935,-0.563783938 43.4636866,0.550271416 C43.4189993,0.537682466 44.2645896,0.776327297 44.4961736,0.841263422 C47.845525,1.78042089 50.9364526,2.97629687 53.2859799,4.34168979 C54.9645948,5.31719189 56.5614109,6.42795817 58.0605481,7.66182582 C59.5751847,8.90845031 60.986024,10.2773781 62.2778947,11.7537741 C63.389416,13.0240604 64.1622758,14.36103 65.3548307,16.8278674 C65.4277729,16.9787508 65.5127625,17.1551858 65.6690815,17.4797563 C66.0495883,18.2690057 66.2818671,18.7386151 66.534216,19.219313 C66.7465155,19.6237211 66.9659844,20.0257226 67.2768637,20.5838519 C67.3493805,20.7140432 67.4311101,20.8603786 67.5858006,21.1372914 C67.7115669,21.362583 67.8041527,21.5290515 67.8947729,21.6931232 C69.1364732,23.9412721 69.7965332,25.437314 70.2121966,27.2365838 C70.4139968,28.1101103 70.4472662,28.7848296 70.432268,30.2844568 C70.4231982,31.1913183 70.4293056,31.5914273 70.473057,32.0770668 C70.706543,34.6687556 68.7948419,36.9590124 66.2031531,37.1924984 C65.9189984,37.218098 65.6331057,37.2178352 65.3489984,37.1917132 L63.9808156,37.0659167 Z"></path>
                        </g>
                        <path d="M-4.94822959,31.8424963 C-3.30375309,14.2522063 10.6411349,0.515184139 27.600434,0.515184139 C44.6638154,0.515184139 58.6756721,14.4213369 60.1779829,32.1667937 C60.1779829,32.1667937 60.1779829,32.1667937 60.1779829,32.1667937 L60.1779829,32.1667937 C60.3675136,34.405551 58.7062873,36.3740674 56.46753,36.5635981 C56.353393,36.5732608 56.238899,36.5780986 56.1243538,36.5780986 L-0.63469748,36.5780744 L-0.63469748,36.5781003 C-3.0273837,36.5781001 -4.9670389,34.6384444 -4.96703862,32.2457582 C-4.96703861,32.1111183 -4.96076212,31.9765516 -4.94822959,31.8424963 C-4.94822959,31.8424963 -4.94822959,31.8424963 -4.94822959,31.8424963 Z" fill="#C1E0F4" mask="url(#mask-9)"></path>
                    </g>
                </g>
                <g id="Rectangle-16">
                    <use fill="#FFFFFF" fill-rule="evenodd" xlink:href="#path-10"></use>
                    <rect stroke="#315890" stroke-width="2" x="417" y="117" width="28" height="28" rx="14"></rect>
                </g>
                <rect id="Rectangle-3" fill="#315890" x="422" y="131" width="4" height="5" rx="2"></rect>
            </g>
        </g>
    </g>
</svg>