<?xml version="1.0" encoding="UTF-8"?>
<svg width="650px" height="608px" viewBox="0 0 650 608" version="1.1" xmlns="http://www.w3.org/2000/svg" xmlns:xlink="http://www.w3.org/1999/xlink">
    <!-- Generator: Sketch 45.2 (43514) - http://www.bohemiancoding.com/sketch -->
    <title>integrations_hero</title>
    <desc>Created with Sketch.</desc>
    <defs>
        <rect id="path-1" x="0" y="0" width="650" height="650"></rect>
        <path d="M0.285240464,0.686478455 L650.28524,0.686478455 L650.28524,650.686478 L0.285240464,650.686478 L0.285240464,0.686478455 Z M329.036396,312.441241 L192.918901,650.686478 L465.803901,650.686478 L329.036396,312.441241 Z" id="path-3"></path>
        <ellipse id="path-5" cx="329.057954" cy="333.816118" rx="162.55385" ry="162.428438"></ellipse>
        <filter x="-7.1%" y="-7.1%" width="114.1%" height="114.2%" filterUnits="objectBoundingBox" id="filter-6">
            <feGaussianBlur stdDeviation="22.5" in="SourceAlpha" result="shadowBlurInner1"></feGaussianBlur>
            <feOffset dx="0" dy="1" in="shadowBlurInner1" result="shadowOffsetInner1"></feOffset>
            <feComposite in="shadowOffsetInner1" in2="SourceAlpha" operator="arithmetic" k2="-1" k3="1" result="shadowInnerInner1"></feComposite>
            <feColorMatrix values="0 0 0 0 0.22745098   0 0 0 0 0.639215686   0 0 0 0 0.890196078  0 0 0 0.10510077 0" type="matrix" in="shadowInnerInner1"></feColorMatrix>
        </filter>
        <mask id="mask-7" maskContentUnits="userSpaceOnUse" maskUnits="objectBoundingBox" x="0" y="0" width="325.1077" height="324.856876" fill="white">
            <use xlink:href="#path-5"></use>
        </mask>
        <ellipse id="path-8" cx="329.057954" cy="333.816118" rx="239.626796" ry="239.441922"></ellipse>
        <filter x="-4.8%" y="-4.8%" width="109.6%" height="109.6%" filterUnits="objectBoundingBox" id="filter-9">
            <feGaussianBlur stdDeviation="22.5" in="SourceAlpha" result="shadowBlurInner1"></feGaussianBlur>
            <feOffset dx="0" dy="1" in="shadowBlurInner1" result="shadowOffsetInner1"></feOffset>
            <feComposite in="shadowOffsetInner1" in2="SourceAlpha" operator="arithmetic" k2="-1" k3="1" result="shadowInnerInner1"></feComposite>
            <feColorMatrix values="0 0 0 0 0.22745098   0 0 0 0 0.639215686   0 0 0 0 0.890196078  0 0 0 0.10510077 0" type="matrix" in="shadowInnerInner1"></feColorMatrix>
        </filter>
        <mask id="mask-10" maskContentUnits="userSpaceOnUse" maskUnits="objectBoundingBox" x="0" y="0" width="479.253592" height="478.883844" fill="white">
            <use xlink:href="#path-8"></use>
        </mask>
        <ellipse id="path-11" cx="328.357291" cy="333.115996" rx="303.387142" ry="303.153076"></ellipse>
        <filter x="-3.8%" y="-3.8%" width="107.6%" height="107.6%" filterUnits="objectBoundingBox" id="filter-12">
            <feGaussianBlur stdDeviation="22.5" in="SourceAlpha" result="shadowBlurInner1"></feGaussianBlur>
            <feOffset dx="0" dy="1" in="shadowBlurInner1" result="shadowOffsetInner1"></feOffset>
            <feComposite in="shadowOffsetInner1" in2="SourceAlpha" operator="arithmetic" k2="-1" k3="1" result="shadowInnerInner1"></feComposite>
            <feColorMatrix values="0 0 0 0 0.22745098   0 0 0 0 0.639215686   0 0 0 0 0.890196078  0 0 0 0.10510077 0" type="matrix" in="shadowInnerInner1"></feColorMatrix>
        </filter>
        <mask id="mask-13" maskContentUnits="userSpaceOnUse" maskUnits="objectBoundingBox" x="0" y="0" width="606.774284" height="606.306153" fill="white">
            <use xlink:href="#path-11"></use>
        </mask>
        <ellipse id="path-14" cx="96.6915423" cy="14.0024516" rx="54.6517413" ry="14.0024516"></ellipse>
        <filter x="-21.0%" y="-82.1%" width="142.1%" height="264.3%" filterUnits="objectBoundingBox" id="filter-15">
            <feGaussianBlur stdDeviation="22.5" in="SourceAlpha" result="shadowBlurInner1"></feGaussianBlur>
            <feOffset dx="0" dy="1" in="shadowBlurInner1" result="shadowOffsetInner1"></feOffset>
            <feComposite in="shadowOffsetInner1" in2="SourceAlpha" operator="arithmetic" k2="-1" k3="1" result="shadowInnerInner1"></feComposite>
            <feColorMatrix values="0 0 0 0 0.22745098   0 0 0 0 0.639215686   0 0 0 0 0.890196078  0 0 0 0.10510077 0" type="matrix" in="shadowInnerInner1"></feColorMatrix>
        </filter>
        <ellipse id="path-16" cx="96.6915423" cy="33.6058838" rx="70.066335" ry="19.6034322"></ellipse>
        <filter x="-16.4%" y="-58.7%" width="132.8%" height="217.3%" filterUnits="objectBoundingBox" id="filter-17">
            <feGaussianBlur stdDeviation="22.5" in="SourceAlpha" result="shadowBlurInner1"></feGaussianBlur>
            <feOffset dx="0" dy="1" in="shadowBlurInner1" result="shadowOffsetInner1"></feOffset>
            <feComposite in="shadowOffsetInner1" in2="SourceAlpha" operator="arithmetic" k2="-1" k3="1" result="shadowInnerInner1"></feComposite>
            <feColorMatrix values="0 0 0 0 0.22745098   0 0 0 0 0.639215686   0 0 0 0 0.890196078  0 0 0 0.10510077 0" type="matrix" in="shadowInnerInner1"></feColorMatrix>
        </filter>
        <ellipse id="path-18" cx="96.6915423" cy="57.4100514" rx="96.6915423" ry="19.6034322"></ellipse>
        <filter x="-11.9%" y="-58.7%" width="123.8%" height="217.3%" filterUnits="objectBoundingBox" id="filter-19">
            <feGaussianBlur stdDeviation="22.5" in="SourceAlpha" result="shadowBlurInner1"></feGaussianBlur>
            <feOffset dx="0" dy="1" in="shadowBlurInner1" result="shadowOffsetInner1"></feOffset>
            <feComposite in="shadowOffsetInner1" in2="SourceAlpha" operator="arithmetic" k2="-1" k3="1" result="shadowInnerInner1"></feComposite>
            <feColorMatrix values="0 0 0 0 0.22745098   0 0 0 0 0.639215686   0 0 0 0 0.890196078  0 0 0 0.10510077 0" type="matrix" in="shadowInnerInner1"></feColorMatrix>
        </filter>
        <radialGradient cx="0%" cy="0%" fx="0%" fy="0%" r="141.421356%" gradientTransform="translate(0.000000,0.000000),scale(0.999228,1.000000),rotate(44.977881),translate(-0.000000,-0.000000)" id="radialGradient-20">
            <stop stop-color="#FFFFFF" offset="0%"></stop>
            <stop stop-color="#FFFFFF" offset="51.8833705%"></stop>
            <stop stop-color="#006699" offset="100%"></stop>
        </radialGradient>
        <linearGradient x1="50%" y1="0%" x2="50%" y2="100%" id="linearGradient-21">
            <stop stop-color="#990000" offset="0%"></stop>
            <stop stop-color="#006699" offset="100%"></stop>
        </linearGradient>
        <ellipse id="path-22" cx="28.026534" cy="28.0049031" rx="28.026534" ry="28.0049031"></ellipse>
        <linearGradient x1="0%" y1="29.2864197%" x2="100%" y2="67.7630354%" id="linearGradient-23">
            <stop stop-color="#36987B" offset="0%"></stop>
            <stop stop-color="#D01E25" offset="100%"></stop>
        </linearGradient>
        <linearGradient x1="100%" y1="0%" x2="0%" y2="100%" id="linearGradient-24">
            <stop stop-color="#1E96C8" offset="0%"></stop>
            <stop stop-color="#37AEE2" offset="100%"></stop>
        </linearGradient>
        <linearGradient x1="61.2346759%" y1="43.69%" x2="74.7064382%" y2="80.24%" id="linearGradient-25">
            <stop stop-color="#EFF7FC" offset="0%"></stop>
            <stop stop-color="#FFFFFF" offset="100%"></stop>
        </linearGradient>
        <linearGradient x1="87.547437%" y1="15.6326066%" x2="15.3390362%" y2="87.5297394%" id="linearGradient-26">
            <stop stop-color="#FFCD4B" offset="0%"></stop>
            <stop stop-color="#FAA340" offset="100%"></stop>
        </linearGradient>
        <linearGradient x1="50%" y1="0%" x2="50%" y2="100%" id="linearGradient-27">
            <stop stop-color="#FFBD0E" offset="0%"></stop>
            <stop stop-color="#F78200" offset="100%"></stop>
        </linearGradient>
        <linearGradient x1="10.7979633%" y1="17.5334216%" x2="92.2556459%" y2="81.0413877%" id="linearGradient-28">
            <stop stop-color="#2196F3" offset="0%"></stop>
            <stop stop-color="#FFEB3B" offset="100%"></stop>
        </linearGradient>
    </defs>
    <g id="pages_for_valérie" stroke="none" stroke-width="1" fill="none" fill-rule="evenodd">
        <g id="700-card---extra" transform="translate(-790.000000, -36.000000)">
            <g id="integrations_hero" transform="translate(790.000000, 25.000000)">
                <mask id="mask-2" fill="white">
                    <use xlink:href="#path-1"></use>
                </mask>
                <g id="Rectangle-43"></g>
                <g id="Group-9" mask="url(#mask-2)">
                    <g transform="translate(-1.000000, -1.000000)">
                        <g id="Group-10" transform="translate(0.714760, 0.313522)">
                            <mask id="mask-4" fill="white">
                                <use xlink:href="#path-3"></use>
                            </mask>
                            <g id="Combined-Shape"></g>
                            <g id="Oval-33" stroke-dasharray="8.407960404606403,12.61194009290603" mask="url(#mask-4)">
                                <use fill="black" fill-opacity="1" filter="url(#filter-6)" xlink:href="#path-5"></use>
                                <use stroke-opacity="0.370782382" stroke="#3AA3E3" mask="url(#mask-7)" stroke-width="2.8026534" xlink:href="#path-5"></use>
                            </g>
                            <g id="Oval-33-Copy" opacity="0.699999988" stroke-dasharray="8.407960404606403,12.61194009290603" mask="url(#mask-4)">
                                <use fill="black" fill-opacity="1" filter="url(#filter-9)" xlink:href="#path-8"></use>
                                <use stroke-opacity="0.370782382" stroke="#3AA3E3" mask="url(#mask-10)" stroke-width="2.8026534" xlink:href="#path-8"></use>
                            </g>
                            <g id="Oval-33-Copy-2" opacity="0.699999988" stroke-dasharray="8.407960404606403,12.61194009290603" mask="url(#mask-4)">
                                <use fill="black" fill-opacity="1" filter="url(#filter-12)" xlink:href="#path-11"></use>
                                <use stroke-opacity="0.370782382" stroke="#3AA3E3" mask="url(#mask-13)" stroke-width="2.8026534" xlink:href="#path-11"></use>
                            </g>
                        </g>
                        <g id="Robot" transform="translate(116.771144, 238.912969)">
                            <g id="Group-29" transform="translate(0.000000, 0.000000)">
                                <g id="Group-20" transform="translate(227.014925, 138.624271)">
                                    <path d="M94.6473909,-3.91459605 C89.7800288,8.70524211 78.1274651,33.4760111 83.9436544,62.9736569 C89.7598438,92.4713028 104.891644,94.8597889 112.749057,101.252416 C120.606469,107.645042 104.285035,143.123801 104.285035,143.123801 C104.285035,143.123801 57.8141642,124.436344 55.4368258,76.6608787 C53.0594875,28.8854137 66.6218367,5.63154201 82.1545198,-15.347258 C91.1144321,-21.0119971 97.8145895,-12.4827884 94.6473909,-3.91459605 Z" id="Path-18" fill="#C1E0F4" transform="translate(85.026297, 62.973657) rotate(-63.000000) translate(-85.026297, -62.973657) "></path>
                                    <path d="M106.795115,64.0442023 C106.795115,64.0442023 89.68429,76.255169 100.05,104.774171" id="Path-10" stroke="#FFFFFF" stroke-width="1.4013267"></path>
                                    <path d="M56.2817919,83.6836078 C56.2817919,83.6836078 57.5907997,60.1633821 71.5728652,57.6309166" id="Path-11" stroke="#FFFFFF" stroke-width="1.4013267"></path>
                                    <g id="Group-11" transform="translate(157.037455, 53.601600) rotate(-10.000000) translate(-157.037455, -53.601600) translate(123.405614, 17.895349)">
                                        <path d="M18.0350968,45.402645 C18.0350968,45.402645 9.49099131,26.2389383 22.7712755,8.45825007 C36.0515598,-9.32243819 63.4618404,2.81522434 66.9716101,35.2445088 C70.4813798,67.6737932 30.4744377,60.1482817 30.4744377,60.1482817 L18.0350968,45.402645 Z" id="Path-40" fill="#3390D5"></path>
                                        <path d="M21.1770928,50.1776071 C21.1770928,50.1776071 30.9179244,17.7584977 42.2872144,30.2465227 C53.6565045,42.7345477 37.1751726,50.1776071 21.1770928,50.1776071 Z" id="Path-41" fill="#FFFFFF"></path>
                                        <rect id="Rectangle-46" fill="#3390D5" transform="translate(19.393417, 50.274371) rotate(-38.000000) translate(-19.393417, -50.274371) " x="13.0874469" y="28.5705712" width="12.6119403" height="43.4075999" rx="6.30597015"></rect>
                                    </g>
                                    <path d="M166.51914,47.0418711 L178.71953,26.1045869" id="Path-52" stroke="#3390D5" stroke-width="1.4013267"></path>
                                </g>
                                <g id="Group-20-Copy" transform="translate(100.192995, 201.635303) scale(-1, 1) translate(-100.192995, -201.635303) translate(1.399463, 138.624271)">
                                    <path d="M94.6473909,-3.91459605 C89.7800288,8.70524211 78.1274651,33.4760111 83.9436544,62.9736569 C89.7598438,92.4713028 104.891644,94.8597889 112.749057,101.252416 C120.606469,107.645042 104.285035,143.123801 104.285035,143.123801 C104.285035,143.123801 57.8141642,124.436344 55.4368258,76.6608787 C53.0594875,28.8854137 66.6218367,5.63154201 82.1545198,-15.347258 C91.1144321,-21.0119971 97.8145895,-12.4827884 94.6473909,-3.91459605 Z" id="Path-18" fill="#C1E0F4" transform="translate(85.026297, 62.973657) rotate(-63.000000) translate(-85.026297, -62.973657) "></path>
                                    <path d="M106.795115,64.0442023 C106.795115,64.0442023 89.68429,76.255169 100.05,104.774171" id="Path-10" stroke="#FFFFFF" stroke-width="1.4013267"></path>
                                    <path d="M56.2817919,83.6836078 C56.2817919,83.6836078 57.5907997,60.1633821 71.5728652,57.6309166" id="Path-11" stroke="#FFFFFF" stroke-width="1.4013267"></path>
                                    <g id="Group-11" transform="translate(157.037455, 53.601600) rotate(-10.000000) translate(-157.037455, -53.601600) translate(123.405614, 17.895349)">
                                        <path d="M18.0350968,45.402645 C18.0350968,45.402645 9.49099131,26.2389383 22.7712755,8.45825007 C36.0515598,-9.32243819 63.4618404,2.81522434 66.9716101,35.2445088 C70.4813798,67.6737932 30.4744377,60.1482817 30.4744377,60.1482817 L18.0350968,45.402645 Z" id="Path-40" fill="#3390D5"></path>
                                        <path d="M21.1770928,50.1776071 C21.1770928,50.1776071 30.9179244,17.7584977 42.2872144,30.2465227 C53.6565045,42.7345477 37.1751726,50.1776071 21.1770928,50.1776071 Z" id="Path-41" fill="#FFFFFF"></path>
                                        <rect id="Rectangle-46" fill="#3390D5" transform="translate(19.393417, 50.274371) rotate(-38.000000) translate(-19.393417, -50.274371) " x="13.0874469" y="28.5705712" width="12.6119403" height="43.4075999" rx="6.30597015"></rect>
                                    </g>
                                    <path d="M166.51914,47.0418711 L178.71953,26.1045869" id="Path-52" stroke="#3390D5" stroke-width="1.4013267"></path>
                                </g>
                                <path d="M197.223923,155.427212 C197.223923,155.427212 116.270635,165.908126 132.465291,176.627423 C148.659947,187.34672 175.996676,188.531982 175.996676,188.531982 L197.223923,155.427212 Z" id="Path-54" fill="#3390D5"></path>
                                <path d="M298.119446,155.427212 C298.119446,155.427212 217.166157,165.908126 233.360813,176.627423 C249.555469,187.34672 276.892198,188.531982 276.892198,188.531982 L298.119446,155.427212 Z" id="Path-54-Copy" fill="#3390D5" transform="translate(264.669176, 171.979597) scale(-1, 1) translate(-264.669176, -171.979597) "></path>
                                <path d="M202.276148,140.024516 L223.952979,140.024516 L223.952979,140.024516 C237.913507,140.024516 250.739697,147.712079 257.320869,160.024045 L268.301099,180.565709 L268.301099,180.565709 C270.619259,184.902493 271.224241,189.951707 269.99623,194.713382 L256.754019,246.060737 L256.754019,246.060737 C252.444513,262.771069 237.374034,274.448051 220.116947,274.448051 L205.818716,274.448051 L205.818716,274.448051 C188.590269,274.448051 173.537198,262.80903 169.200931,246.135213 L156.050712,195.569972 L156.050712,195.569972 C154.824883,190.856414 155.396132,185.855406 157.653344,181.539704 L168.749153,160.324944 L168.749153,160.324944 C175.275947,147.845967 188.193396,140.024516 202.276148,140.024516 Z" id="Rectangle-45" fill="#44B8FF"></path>
                                <path d="M194.750442,174.614649 L231.423498,174.614649 L231.423498,174.614649 C244.964886,174.614649 255.942349,185.592113 255.942349,199.1335 C255.942349,201.892699 255.476618,204.632107 254.564781,207.236283 L252.012414,214.52576 L252.012414,214.52576 C246.699649,229.698841 232.378677,239.857917 216.302362,239.857917 L209.871578,239.857917 L209.871578,239.857917 C193.795264,239.857917 179.474291,229.698841 174.161526,214.52576 L171.609159,207.236283 L171.609159,207.236283 C167.134116,194.455706 173.867081,180.467261 186.647658,175.992218 C189.251835,175.080381 191.991242,174.614649 194.750442,174.614649 Z" id="Rectangle-45-Copy" fill="#3390D5"></path>
                                <rect id="Rectangle-22" fill="#3390D5" x="110.704809" y="63.0110321" width="63.0597015" height="46.2080902" rx="23.1040451"></rect>
                                <rect id="Rectangle-22-Copy" fill="#3390D5" x="242.429519" y="63.0110321" width="63.0597015" height="46.2080902" rx="23.1040451"></rect>
                                <rect id="Rectangle-44-Copy" fill="#EAEAEA" x="200.389718" y="91.0159352" width="25.2220167" height="60.2105418" rx="12.6110084"></rect>
                                <rect id="Rectangle-19" fill="#44B8FF" x="133.126036" y="9.8017161" width="151.343284" height="133.02329" rx="37.8358209"></rect>
                                <path d="M238.233203,3.97944821 L248.312828,6.40986546 L248.312828,6.40986546 C250.256861,6.87861423 251.601636,8.65190927 251.528571,10.6503215 L251.508911,11.1880366 L251.508911,11.1880366 C251.430667,13.3281167 249.632359,14.9995643 247.492279,14.9213194 C247.460169,14.9201454 247.428074,14.9185724 247.396003,14.9166005 L236.727546,14.2606804 L236.727546,14.2606804 C234.410128,14.1182005 232.646992,12.124059 232.789472,9.80664074 C232.795413,9.71000694 232.804691,9.61360721 232.817288,9.51761401 L233.079533,7.51929288 L233.079533,7.51929288 C233.381638,5.21723719 235.492728,3.59595683 237.794783,3.89806184 C237.94226,3.91741564 238.088606,3.94458263 238.233203,3.97944821 Z" id="Path-22-Copy-2" fill="#38475B" transform="translate(242.129527, 9.330664) rotate(28.000000) translate(-242.129527, -9.330664) "></path>
                                <path d="M169.635957,22.9565406 L179.715581,25.3869578 L179.715581,25.3869578 C181.659614,25.8557066 183.00439,27.6290016 182.931325,29.6274139 L182.911665,30.165129 L182.911665,30.165129 C182.83342,32.305209 181.035112,33.9766567 178.895032,33.8984118 C178.862922,33.8972378 178.830828,33.8956647 178.798756,33.8936929 L168.130299,33.2377728 L168.130299,33.2377728 C165.812881,33.0952928 164.049745,31.1011514 164.192225,28.7837331 C164.198166,28.6870993 164.207444,28.5906996 164.220041,28.4947064 L164.482287,26.4963853 L164.482287,26.4963853 C164.784392,24.1943296 166.895481,22.5730492 169.197537,22.8751542 C169.345014,22.894508 169.491359,22.921675 169.635957,22.9565406 Z" id="Path-22-Copy-4" fill="#38475B" transform="translate(173.532280, 28.307757) scale(-1, 1) rotate(2.000000) translate(-173.532280, -28.307757) "></path>
                                <path d="M177.267828,45.9419003 L240.327529,45.9419003 L240.327529,45.9419003 C258.514916,45.9419003 273.258706,60.6856907 273.258706,78.8730778 L273.258706,109.419878 L273.258707,109.419878 C273.258707,127.607265 258.514916,142.351056 240.327529,142.351056 C238.896298,142.351056 237.46659,142.257751 236.047499,142.071736 C222.000611,140.230459 212.917337,139.290236 208.797678,139.251067 C204.680936,139.211926 195.607605,140.118401 181.577686,141.970492 L181.577686,141.970492 C163.54673,144.350761 147.000163,131.663373 144.619894,113.632417 C144.431268,112.203544 144.33665,110.763829 144.33665,109.322559 L144.33665,78.8730778 L144.33665,78.8730778 C144.33665,60.6856907 159.08044,45.9419003 177.267828,45.9419003 Z" id="Rectangle-20" fill="#3390D5" transform="translate(208.797678, 94.497203) scale(1, -1) translate(-208.797678, -94.497203) "></path>
                                <g id="Group-8" transform="translate(116.310116, 303.853199)">
                                    <g id="Oval-32">
                                        <use fill="black" fill-opacity="1" filter="url(#filter-15)" xlink:href="#path-14"></use>
                                        <ellipse stroke-opacity="0.370782382" stroke="#3AA3E3" stroke-width="1.4013267" cx="96.6915423" cy="14.0024516" rx="53.9510779" ry="13.3017882"></ellipse>
                                    </g>
                                    <g id="Oval-32-Copy" opacity="0.600000024">
                                        <use fill="black" fill-opacity="1" filter="url(#filter-17)" xlink:href="#path-16"></use>
                                        <ellipse stroke-opacity="0.370782382" stroke="#3AA3E3" stroke-width="1.4013267" cx="96.6915423" cy="33.6058838" rx="69.3656716" ry="18.9027688"></ellipse>
                                    </g>
                                    <g id="Oval-32-Copy-2" opacity="0.200000003">
                                        <use fill="black" fill-opacity="1" filter="url(#filter-19)" xlink:href="#path-18"></use>
                                        <ellipse stroke-opacity="0.370782382" stroke="#3AA3E3" stroke-width="1.4013267" cx="96.6915423" cy="57.4100514" rx="95.9908789" ry="18.9027688"></ellipse>
                                    </g>
                                </g>
                                <ellipse id="Oval-25" fill="#FFFFFF" cx="243.130182" cy="241.54229" rx="4.90464345" ry="4.90085805"></ellipse>
                                <path d="M194.820147,267.485351 L235.112873,267.485351 L235.112873,267.485351 C241.993363,267.485351 248.343856,271.180248 251.744078,277.161856 L251.744078,277.161856 L251.744078,277.161856 C253.511603,280.271254 252.4238,284.224781 249.314402,285.992306 C248.338916,286.546818 247.236092,286.83836 246.114015,286.83836 L183.79505,286.83836 L183.79505,286.83836 C180.220334,286.83836 177.322454,283.94048 177.322454,280.365763 C177.322454,279.242245 177.614904,278.138076 178.171041,277.161856 L178.171041,277.161856 L178.171041,277.161856 C181.579163,271.179375 187.934992,267.485351 194.820147,267.485351 Z" id="Path-53" fill="#3390D5"></path>
                                <path d="M182.498974,75.6132385 L182.498974,75.6132385 C185.775022,75.6132385 188.430784,78.2690002 188.430784,81.5450483 L188.430784,85.4873798 L188.430784,85.4873798 C188.430784,88.7634279 185.775022,91.4191896 182.498974,91.4191896 L182.498974,91.4191896 C179.222926,91.4191896 176.567164,88.7634279 176.567164,85.4873798 L176.567164,81.5450483 L176.567164,81.5450483 C176.567164,78.2690002 179.222926,75.6132385 182.498974,75.6132385 L182.498974,75.6132385 Z M237.150715,75.6132385 L237.150715,75.6132385 C240.426763,75.6132385 243.082525,78.2690002 243.082525,81.5450483 L243.082525,85.4873798 C243.082525,88.7634279 240.426763,91.4191896 237.150715,91.4191896 C233.874667,91.4191896 231.218905,88.7634279 231.218905,85.4873798 L231.218905,81.5450483 L231.218905,81.5450483 C231.218905,78.2690002 233.874667,75.6132385 237.150715,75.6132385 L237.150715,75.6132385 Z M198.988391,91.0159352 L223.932099,91.0159352 C222.759564,99.5586031 218.602279,103.829937 211.460245,103.829937 C204.318211,103.829937 200.160926,99.5586031 198.988391,91.0159352 Z" id="Path-53" fill="#F2F2F2"></path>
                            </g>
                        </g>
                        <g id="Integrations" transform="translate(1.862355, 12.073254)">
                            <g id="line-messenger" transform="translate(75.671642, 84.014709)">
                                <ellipse id="Oval-34-Copy-8" fill="#00B900" cx="28.026534" cy="28.0049031" rx="28.026534" ry="28.0049031"></ellipse>
                                <path d="M12.6140139,34.2094777 L18.0412202,34.2094777 C18.8132068,34.2094777 19.4446205,33.5783574 19.4446205,32.8069665 L19.4446205,32.6899774 C19.4446205,31.9185865 18.8132068,31.2876602 18.0412202,31.2876602 L14.1344938,31.2876602 L14.1344938,22.4059946 C14.1344938,21.6346037 13.5030801,21.0036774 12.7310934,21.0036774 L12.6140139,21.0036774 C11.8420273,21.0036774 11.2106136,21.6346037 11.2106136,22.4059946 L11.2106136,32.8067725 C11.2106136,33.5783574 11.8420273,34.2094777 12.6140139,34.2094777 L12.6140139,34.2094777 Z M46.2437811,27.6900996 L46.2437811,27.5731105 C46.2437811,26.8017196 45.6121733,26.1707933 44.8401866,26.1707933 L40.9336544,26.1707933 L40.9336544,23.9503284 L44.8401866,23.9503284 C45.6121733,23.9503284 46.2437811,23.3194021 46.2437811,22.5480112 L46.2437811,22.4310221 C46.2437811,21.6596312 45.6121733,21.0287049 44.8401866,21.0287049 L39.4129804,21.0287049 C38.6409937,21.0287049 38.00958,21.6596312 38.00958,22.4310221 L38.00958,32.8318 C38.00958,33.6031909 38.6409937,34.2343112 39.4129804,34.2343112 L44.8401866,34.2343112 C45.6121733,34.2343112 46.2437811,33.6031909 46.2437811,32.8318 L46.2437811,32.7148109 C46.2437811,31.94342 45.6121733,31.3124937 44.8401866,31.3124937 L40.9336544,31.3124937 L40.9336544,29.0920288 L44.8401866,29.0920288 C45.6121733,29.0924168 46.2437811,28.4612965 46.2437811,27.6900996 L46.2437811,27.6900996 Z M35.806622,33.7913823 L35.8070104,33.7908003 C36.066709,33.5291625 36.2125445,33.1756624 36.2128082,32.8071605 L36.2128082,22.4063826 C36.2128082,21.6349917 35.5813945,21.0040654 34.8092137,21.0040654 L34.6921342,21.0040654 C33.9201475,21.0040654 33.2887339,21.6349917 33.2887339,22.4063826 L33.2887339,28.5117395 L28.2160668,21.7131785 C27.9737531,21.2904268 27.5174732,21.0040654 26.9975084,21.0040654 L26.8804289,21.0040654 C26.1084422,21.0040654 25.4768344,21.6349917 25.4768344,22.4063826 L25.4768344,32.8071605 C25.4768344,33.5785514 26.108248,34.2096717 26.8804289,34.2096717 L26.9975084,34.2096717 C27.769495,34.2096717 28.4009087,33.5785514 28.4009087,32.8071605 L28.4009087,26.5875306 L33.5100781,33.5605083 C33.5415323,33.6093993 33.5758989,33.6563501 33.6129838,33.7009728 L33.613178,33.7013609 C33.7535568,33.8926565 33.9455827,34.0238084 34.1595488,34.1039353 C34.3240037,34.1718394 34.5037974,34.2094777 34.6919401,34.2094777 L34.8090195,34.2094777 C35.0377313,34.2096053 35.2629439,34.1533623 35.4647034,34.0457318 C35.6050823,33.9789917 35.7233267,33.8928505 35.806622,33.7913823 L35.806622,33.7913823 Z M21.9807599,34.2094777 L22.0978393,34.2094777 C22.869826,34.2094777 23.5012397,33.5783574 23.5012397,32.8069665 L23.5012397,22.4061886 C23.5012397,21.6347977 22.869826,21.0038714 22.0978393,21.0038714 L21.9807599,21.0038714 C21.2087732,21.0038714 20.5771654,21.6347977 20.5771654,22.4061886 L20.5771654,32.8069665 C20.5771654,33.5783574 21.2087732,34.2094777 21.9807599,34.2094777 Z" id="Shape" fill="#FFFFFF"></path>
                            </g>
                            <g id="kik" transform="translate(521.293532, 84.014709)">
                                <ellipse id="Oval-3" fill="#82BC23" cx="28.026534" cy="28.0049031" rx="28.026534" ry="28.0049031"></ellipse>
                                <g id="Group-6" transform="translate(11.210614, 18.203187)">
                                    <path d="M33.0125044,8.56825014 C34.1263089,8.56825014 35.0289135,9.46628237 35.0289135,10.5742264 C35.0289135,11.6820453 34.1263089,12.5800775 33.0125044,12.5800775 C31.8987,12.5800775 30.9962205,11.6820453 30.9962205,10.5742264 C30.9960954,9.46653241 31.8985748,8.56825014 33.0125044,8.56825014 Z" id="Shape" fill="#3DB4E7"></path>
                                    <path d="M26.883778,16.5827584 L23.8819852,12.5732013 L22.9619892,13.4258506 L22.961864,15.798391 L22.9383806,15.7974753 C22.8857656,16.7480631 22.1083854,17.5026894 21.1567801,17.5026894 C20.1707215,17.5026894 19.3720904,16.6930476 19.3720904,15.6946228 C19.3720904,15.6825277 19.3722076,15.6704602 19.3724409,15.6584217 L19.332553,15.6568662 L19.3328032,1.8939566 L19.3328032,1.8939566 L19.3739001,1.89439245 C19.373196,1.87333194 19.3728412,1.85218103 19.3728412,1.83094556 C19.3728412,0.821143767 20.1751007,0.00275048156 21.1645374,0.00275048156 C22.1539742,0.00275048156 22.9562337,0.821143767 22.9562337,1.83094556 C22.9562337,1.86497438 22.9553227,1.89878606 22.9535243,1.9323566 L22.9753768,1.93258836 L22.9933939,8.63688716 L26.3655865,5.34181025 L26.3665211,5.34268112 C26.7000166,4.97327714 27.1819687,4.7412051 27.7178668,4.7412051 L27.7178668,4.7412051 C28.7244447,4.7412051 29.5403422,5.55922332 29.5403422,6.56852503 C29.5403422,7.05779161 29.3485671,7.50221492 29.0362637,7.8302754 L29.0548826,7.84762397 L26.6825115,10.1821577 L29.9984009,14.6488147 L29.9735214,14.6668548 C30.1583763,14.9546503 30.265779,15.2982375 30.265779,15.667243 C30.265779,16.6807955 29.4550114,17.5029394 28.4544391,17.5029394 C27.7829102,17.5029394 27.196707,17.1327294 26.883778,16.5827584 Z M7.55472803,16.5820979 L4.55331083,12.5732013 L3.63331482,13.4258506 L3.63318971,15.798391 L3.60970623,15.7974752 C3.55709112,16.748063 2.7797068,17.5026894 1.82798063,17.5026894 C0.842297441,17.5026894 0.043416104,16.6930476 0.043416104,15.6946228 C0.043416104,15.682526 0.0435333166,15.670457 0.043766654,15.6584168 L0.00400379057,15.6568662 L0.00425402748,1.8939566 L0.00425402748,1.8939566 L0.0451006699,1.8943898 C0.0443965955,1.87333016 0.0440416963,1.85218014 0.0440416963,1.83094556 C0.0440416963,0.821143767 0.84642635,0.00275048156 1.8358631,0.00275048156 C2.82542496,0.00275048156 3.62755938,0.821143767 3.62755938,1.83094556 C3.62755938,1.86497393 3.62664828,1.89878517 3.62484962,1.93235527 L3.64682762,1.93258836 L3.66496979,8.63688716 L7.03691217,5.34181025 L7.03783702,5.34267193 C7.37134207,4.97327328 7.85335731,4.7412051 8.38931755,4.7412051 L8.38931755,4.7412051 C9.39589552,4.7412051 10.211793,5.55922332 10.211793,6.56852503 C10.211793,7.05776132 10.0200416,7.50215989 9.70777248,7.83021448 L9.72645848,7.84762397 L7.35383721,10.1821577 L10.6697265,14.6488147 L10.6449071,14.6668121 C10.8297998,14.9546163 10.9372298,15.2982193 10.9372298,15.667243 C10.9372298,16.6807955 10.1263371,17.5029394 9.12576478,17.5029394 C8.45396706,17.5029394 7.86756335,17.1324329 7.55472803,16.5820979 Z M16.7573235,6.62683448 L16.7790105,6.62691025 L16.7793858,15.6967482 L16.7793858,15.6967482 L16.7579638,15.6967475 C16.7453004,16.6971132 15.9422041,17.5041897 14.9534071,17.5041897 C13.9645693,17.5041897 13.1610781,16.6970468 13.1484735,15.696624 L13.1251762,15.6966232 L13.1290549,6.61415802 L13.148793,6.61422698 C13.1484803,6.60019822 13.1483231,6.58613054 13.1483231,6.57202564 C13.1483231,5.56022349 13.9565883,4.74020492 14.9534071,4.74020492 C15.9502258,4.74020492 16.7581157,5.56022349 16.7581157,6.57202564 C16.7581157,6.59035951 16.7578504,6.60863037 16.7573235,6.62683448 Z" id="Combined-Shape" fill="#FFFFFF"></path>
                                </g>
                            </g>
                            <g id="twillio" transform="translate(88.283582, 176.430890)">
                                <ellipse id="Oval-34-Copy-5" fill="#EE3248" cx="30.8291874" cy="30.8053935" rx="30.8291874" ry="30.8053935"></ellipse>
                                <g id="Group-4" transform="translate(14.013267, 14.002452)" fill="#FFFFFF">
                                    <path d="M17.5165837,0 C7.84742952,0 0,7.84137288 0,17.5030645 C0,27.164756 7.84742952,35.0061289 17.5165837,35.0061289 C27.185738,35.0061289 35.0331675,27.164756 35.0331675,17.5030645 C35.0331675,7.84137288 27.185738,0 17.5165837,0 Z M17.5165837,30.3853199 C10.3873342,30.3853199 4.62437811,24.6093086 4.62437811,17.5030645 C4.62437811,10.3793172 10.4048507,4.62080902 17.5165837,4.62080902 C24.6458333,4.62080902 30.4087894,10.3968203 30.4087894,17.5030645 C30.4087894,24.6268117 24.6458333,30.3853199 17.5165837,30.3853199 Z" id="XMLID_181_"></path>
                                    <ellipse id="XMLID_180_" cx="21.8782131" cy="13.1448014" rx="3.64344942" ry="3.64063741"></ellipse>
                                    <ellipse id="XMLID_179_" cx="21.8782131" cy="21.8613275" rx="3.64344942" ry="3.64063741"></ellipse>
                                    <ellipse id="XMLID_178_" cx="13.1549544" cy="21.8613275" rx="3.64344942" ry="3.64063741"></ellipse>
                                    <ellipse id="XMLID_177_" cx="13.1549544" cy="13.1448014" rx="3.64344942" ry="3.64063741"></ellipse>
                                </g>
                            </g>
                            <g id="Skype" transform="translate(222.810945, 0.000000)">
                                <ellipse id="Oval-3" fill="#00AFF0" cx="28.026534" cy="28.0049031" rx="28.026534" ry="28.0049031"></ellipse>
                                <path d="M16.4387775,14.235529 C19.2146003,12.2340587 23.1400751,12.0621533 26.0961283,13.7743859 C29.4290272,13.1972748 32.9530795,13.745735 35.9268827,15.3651932 C39.2461277,17.1470066 41.852643,20.207196 43.0664681,23.7735513 C43.9007169,26.1870489 44.0946012,28.8106531 43.6604095,31.325111 C44.7281387,33.201063 45.0981574,35.4590271 44.6653311,37.575101 C44.2079279,39.9094675 42.7674493,42.0255414 40.7753562,43.3257467 C38.0172834,45.1785052 34.2283468,45.2835585 31.3555819,43.6218061 C28.1564906,44.1716305 24.7826303,43.6954798 21.8880193,42.2192761 C18.5237167,40.5302371 15.84074,37.5423571 14.5286073,34.0155673 C13.5783011,31.4956521 13.3393591,28.7233361 13.7913008,26.071081 C12.7003601,24.162385 12.346726,21.8553051 12.8123215,19.7078516 C13.2738208,17.514011 14.602338,15.5207267 16.4387775,14.235529 Z M17.9406983,16.0077921 C16.0837781,17.2138587 14.898626,19.3845057 14.9191067,21.6001756 C14.8917991,23.0531858 15.4393175,24.4420724 16.2134894,25.648139 C15.712394,27.9483973 15.7492593,30.3796312 16.4906621,32.623952 C17.6471411,36.2748957 20.5321944,39.3200775 24.1135929,40.6830419 C26.5398777,41.6367077 29.2406044,41.7594973 31.7774852,41.2042155 C32.5175225,41.6339791 33.2698483,42.0691999 34.1095586,42.2724849 C36.2149785,42.8468673 38.5770903,42.2984072 40.2128186,40.857676 C41.888143,39.4278595 42.7783724,37.1385158 42.480719,34.9542255 C42.3592,33.794546 41.84172,32.7303696 41.2409516,31.7466886 C41.7502393,29.4095934 41.6983548,26.9347011 40.9255483,24.6617294 C39.707627,20.9330189 36.6792085,17.8591862 32.9694641,16.5780815 C30.6387561,15.7444766 28.08276,15.6680742 25.6742251,16.1933408 C25.0570722,15.8399796 24.4426501,15.4647892 23.7599588,15.2478609 C21.8388655,14.5943475 19.6269458,14.8767635 17.9406983,16.0077921 Z M26.7351274,19.5263959 C28.9183741,19.1962284 31.2190437,19.5304889 33.1674446,20.5864794 C34.0194433,21.0585371 34.8441344,21.697043 35.2400953,22.6138719 C35.4981526,23.2169052 35.5268257,24.0041229 35.0503071,24.5089245 C34.5341925,25.0369198 33.6917515,25.1992749 32.9995025,24.9768893 C32.198023,24.6412644 31.7993313,23.8022022 31.1193708,23.3028579 C30.2646413,22.5988643 29.1136238,22.4092226 28.036337,22.4283232 C27.2485112,22.4624314 26.4047048,22.6411585 25.8298787,23.2196339 C25.2987449,23.7858303 25.1021298,24.755868 25.6196098,25.3930096 C26.1084168,25.9564773 26.8634733,26.166584 27.5557223,26.3589543 C28.8760472,26.6891219 30.2113914,26.955166 31.5371778,27.2675973 C32.9162142,27.5827572 34.3089044,28.1857905 35.2196146,29.3086331 C36.7898045,31.3414829 36.4361704,34.5653918 34.4836734,36.2298729 C32.9216757,37.6119379 30.7493521,37.9939499 28.7258551,38.0062289 C26.5658199,37.9748493 24.256958,37.5328068 22.5966529,36.0566031 C21.7637695,35.3062223 21.0633282,34.1738294 21.3145586,33.0155143 C21.5890005,31.8640208 23.1714789,31.4274356 24.0685352,32.1355223 C24.7539573,32.6853468 25.1253413,33.5216803 25.7861865,34.0960627 C26.576743,34.8205213 27.6786067,35.1083946 28.7326821,35.0824724 C29.7662767,35.109759 30.8640442,34.7932347 31.5726778,34.0073813 C32.0546578,33.4766574 32.3099844,32.6689748 31.9973117,31.9895391 C31.7406198,31.3510332 31.0811401,31.0031294 30.4503333,30.831224 C29.2870274,30.5269787 28.1155291,30.2500199 26.9522232,29.943046 C25.6742251,29.6306147 24.3457079,29.34547 23.2465749,28.5841745 C22.3891147,28.0152494 21.7391926,27.1270714 21.5302891,26.1147395 C21.1793858,24.5266608 21.4306162,22.6943673 22.5857298,21.481479 C23.6425359,20.306792 25.2099951,19.7610605 26.7351274,19.5263959 Z" id="Combined-Shape" fill="#FFFFFF"></path>
                            </g>
                            <g id="discord_color" transform="translate(301.285240, 56.009806)">
                                <rect id="500x500" x="0" y="0" width="56.053068" height="56.0098063"></rect>
                                <ellipse id="Oval" fill="#7289DA" cx="28.026534" cy="28.0049031" rx="28.026534" ry="28.0049031"></ellipse>
                                <path d="M33.113542,36.401778 C36.2569288,35.5146365 37.4566949,33.5485387 37.4566949,33.5485387 C36.4728868,34.1959123 35.5370693,34.6514716 34.6972331,34.9631699 C33.497467,35.4666828 32.3456917,35.802358 31.2179116,35.9941724 C28.9143609,36.4257549 26.8027727,36.3058708 25.0031236,35.9701956 C23.6353905,35.7064507 22.4596197,35.322822 21.4758116,34.9391931 C20.9239192,34.723402 20.3240362,34.4596571 19.7241532,34.1239819 C19.6521673,34.0760284 19.5801813,34.0520515 19.5081953,34.004098 C19.4602047,33.9801212 19.4362094,33.9561443 19.4122141,33.9321675 C18.9802983,33.6923995 18.7403451,33.5245619 18.7403451,33.5245619 C18.7403451,33.5245619 19.8921205,35.4427059 22.9395261,36.3538245 C22.2196665,37.2649429 21.3318397,38.3438989 21.3318397,38.3438989 C16.0288739,38.1760613 14.013267,34.6994251 14.013267,34.6994251 C14.013267,26.9788953 17.4685931,20.7209504 17.4685931,20.7209504 C20.9239192,18.1314559 24.2112782,18.2033863 24.2112782,18.2033863 L24.4512313,18.4911079 C20.1320737,19.7379015 18.1404621,21.6320688 18.1404621,21.6320688 C18.1404621,21.6320688 18.6683591,21.3443472 19.556186,20.9367416 C22.1236853,19.8098319 24.1632874,19.4981335 25.0031236,19.4262031 C25.1470957,19.4022263 25.2670722,19.3782495 25.4110441,19.3782495 C26.8747587,19.1864351 28.5304357,19.1384815 30.2580989,19.3302959 C32.5376543,19.5940407 34.9851768,20.2653911 37.4806903,21.6320688 C37.4806903,21.6320688 35.5850599,19.8338087 31.5058555,18.5870151 L31.84179,18.2033863 C31.84179,18.2033863 35.1291489,18.1314559 38.584475,20.7209504 C38.584475,20.7209504 42.039801,26.9788953 42.039801,34.6994251 C42.039801,34.6994251 40.0001989,38.1760613 34.6972331,38.3438989 C34.6972331,38.3438989 33.8334015,37.3128964 33.113542,36.401778 Z M21.0918865,29.8081579 C21.0918865,31.2707426 22.1956712,32.4695827 23.5394092,32.4695827 C24.9071423,32.4695827 25.9869319,31.2707426 25.9869319,29.8081579 C26.0109271,28.345573 24.9071423,27.1467329 23.5394092,27.1467329 C22.1716759,27.1467329 21.0918865,28.345573 21.0918865,29.8081579 Z M29.8501784,29.8081579 C29.8501784,31.2707426 30.953963,32.4695827 32.297701,32.4695827 C33.6654343,32.4695827 34.7452237,31.2707426 34.7452237,29.8081579 C34.7452237,28.345573 33.6654343,27.1467329 32.297701,27.1467329 C30.9299678,27.1467329 29.8501784,28.345573 29.8501784,29.8081579 Z" id="Discord-color" fill="#FFFFFF"></path>
                            </g>
                            <g id="twitter_color" transform="translate(379.759536, 0.000000)">
                                <ellipse id="Oval-3" fill="#1DA1F2" cx="28.026534" cy="28.0049031" rx="28.026534" ry="28.0049031"></ellipse>
                                <path d="M39.1877707,23.2150081 C39.1877707,22.9663208 39.1827015,22.7187556 39.1715379,22.4723097 C40.2942909,21.6612804 41.270185,20.649173 42.039801,19.4970393 C41.0095355,19.9546441 39.9007957,20.2627017 38.7376825,20.4016079 C39.9248985,19.690275 40.8363296,18.5650279 41.2662613,17.2235792 C40.1552784,17.8817009 38.9249016,18.3600302 37.6149285,18.6182372 C36.5656049,17.5013906 35.0717759,16.8029419 33.4176342,16.8029419 C30.2421966,16.8029419 27.6670928,19.3760582 27.6670928,22.5479239 C27.6670928,22.9988065 27.7175406,23.4373688 27.8161958,23.8580052 C23.0370652,23.6177213 18.7994099,21.3313789 15.9636585,17.8548162 C15.4698254,18.7039331 15.185074,19.690275 15.185074,20.7427094 C15.185074,22.7361187 16.2002043,24.4959643 17.7439205,25.5254347 C16.8005391,25.4963096 15.9143309,25.2375406 15.1396692,24.8068215 C15.1388227,24.8309282 15.1388227,24.8544307 15.1388227,24.8801952 C15.1388227,27.6627891 17.1208795,29.9860989 19.7520363,30.5125957 C19.2688543,30.6442206 18.7604474,30.7147929 18.2357861,30.7147929 C17.8658321,30.7147929 17.5054072,30.6784091 17.1550728,30.6111748 C17.8871323,32.8941566 20.0098823,34.5554231 22.5266908,34.6019131 C20.5586473,36.1433168 18.0793962,37.0613276 15.3848994,37.0613276 C14.921335,37.0613276 14.4633777,37.0349805 14.013267,36.9817918 C16.5581021,38.6116947 19.5799525,39.5627495 22.8276976,39.5627495 C33.4041589,39.5627495 39.1877707,30.807211 39.1877707,23.2150081 Z" id="Twitter-color" fill="#FFFFFF"></path>
                                <rect id="500x500" x="0" y="0" width="56.053068" height="56.0098063"></rect>
                            </g>
                            <g id="github_color" transform="translate(461.036484, 303.853199)">
                                <ellipse id="Oval-3" fill="#000000" cx="28.026534" cy="28.0049031" rx="28.026534" ry="28.0049031"></ellipse>
                                <ellipse id="Oval-3" fill="#FFFFFF" cx="27.3258706" cy="28.7050257" rx="20.3192371" ry="20.3035548"></ellipse>
                                <path d="M7.0066335,28.5371086 C7.0066335,38.0517648 13.0289102,46.1227632 21.3816414,48.9704177 C22.4333139,49.1687223 22.8165614,48.5037408 22.8165614,47.9326235 C22.8165614,47.4223195 22.7984959,46.0672379 22.7881727,44.270598 C16.9413899,45.5714763 15.7077716,41.3832825 15.7077716,41.3832825 C14.7515884,38.8952204 13.3734458,38.232883 13.3734458,38.232883 C11.4649506,36.8976318 13.5179701,36.9240724 13.5179701,36.9240724 C15.6277671,37.076106 16.7375074,39.1437623 16.7375074,39.1437623 C18.6124523,42.4342971 21.6577861,41.4837569 22.8552733,40.93247 C23.0462519,39.5416935 23.5895084,38.5924754 24.1895424,38.0544088 C19.5221812,37.5110541 14.6148065,35.662855 14.6148065,27.4107383 C14.6148065,25.0601674 15.4342077,23.1366125 16.7788,21.6321414 C16.5620135,21.0874647 15.8406824,18.8968595 16.9852633,15.9328663 C16.9852633,15.9328663 18.7492342,15.3538168 22.7649456,18.1406579 C24.4411696,17.6620827 26.2399812,17.4241171 28.0271792,17.4148629 C29.8130868,17.4241171 31.610608,17.6620827 33.2894128,18.1406579 C37.3025434,15.3538168 39.0639335,15.9328663 39.0639335,15.9328663 C40.2110952,18.8968595 39.4897641,21.0874647 39.274268,21.6321414 C40.6214411,23.1366125 41.4343904,25.0601674 41.4343904,27.4107383 C41.4343904,35.6840075 36.5192732,37.504444 31.8377176,38.0372224 C32.5913087,38.7022039 33.2636049,40.0163026 33.2636049,42.0257895 C33.2636049,44.9038507 33.237797,47.226659 33.237797,47.9326235 C33.237797,48.5090289 33.6171733,49.1792986 34.6830401,48.9690957 C43.0293194,46.114831 49.0464345,38.0491207 49.0464345,28.5371086 C49.0464345,16.6427969 39.6342884,7.00122579 28.0245984,7.00122579 C16.4187796,7.00122579 7.0066335,16.6427969 7.0066335,28.5371086 Z" fill="#000000"></path>
                                <rect id="500x500" x="0" y="0" width="56.053068" height="56.0098063"></rect>
                            </g>
                            <g id="irc_color" transform="translate(493.266998, 532.093160)">
                                <g id="Oval-3">
                                    <use fill-opacity="0.5" fill="url(#radialGradient-20)" fill-rule="evenodd" xlink:href="#path-22"></use>
                                    <use fill="#FFFFFF" fill-rule="evenodd" xlink:href="#path-22"></use>
                                    <ellipse stroke="url(#linearGradient-21)" stroke-width="1.4013267" cx="28.026534" cy="28.0049031" rx="27.3258706" ry="27.3042398"></ellipse>
                                </g>
                                <g id="Group-3" transform="translate(7.006633, 7.001226)">
                                    <path d="M32.2583782,15.9122054 C31.4321159,17.0157732 30.5250198,18.0647217 29.538766,19.0474053 C30.1832532,21.5468255 30.1477263,24.1095999 29.5269946,26.511703 C30.7404209,25.6309043 31.8868342,24.6805443 32.9597309,23.6657103 C33.4477877,21.1433671 33.2500073,18.4637509 32.2583782,15.9122054 L32.2583782,15.9122054 Z M6.70155726,27.3017513 C7.9209803,29.7455195 9.77268802,31.6884578 11.9672831,33.0179339 C13.4118527,32.9018524 14.8574459,32.6937265 16.2984899,32.3895887 C14.1246939,31.2282848 12.228732,29.5291212 10.8325181,27.3792226 C9.44794671,27.4538675 8.06744037,27.426253 6.70155726,27.3017513 L6.70155726,27.3017513 Z M28.7601127,19.7976421 C26.6123054,21.7816436 24.1293209,23.4667855 21.3453795,24.7559924 L23.6002639,29.9710382 C25.2596794,29.2105676 26.8322998,28.3387809 28.3107025,27.3599058 C28.3111532,27.3585951 28.3117663,27.3573677 28.3122171,27.356058 C29.1334075,24.9663961 29.3185337,22.3560473 28.7601127,19.7976421 L28.7601127,19.7976421 Z M11.9024612,27.3026744 C13.397124,29.4285171 15.4277316,31.0480243 17.7245783,32.0560061 C19.4150908,31.6233164 21.0923443,31.054633 22.7464601,30.34897 L20.4915756,25.1339242 C17.6838479,26.3267886 14.7895603,27.0377075 11.9024612,27.3026744 L11.9024612,27.3026744 Z M32.5376485,25.3067821 C31.4473616,26.2580362 30.2929368,27.149343 29.074251,27.9715865 C28.3002469,30.069006 27.0609719,31.9965774 25.4284765,33.5890852 C28.9322022,31.8512534 31.4129396,28.8076972 32.5376485,25.3067821 L32.5376485,25.3067821 Z M13.4541705,33.80276 C16.7259699,35.2834685 20.5513648,35.5045252 24.1335884,34.1525867 C21.8988835,34.2593089 19.6901392,33.8672582 17.6637533,33.0328103 C16.2655853,33.3778052 14.8600794,33.6327603 13.4541705,33.80276 L13.4541705,33.80276 Z M27.6980476,28.8542998 C26.5098121,29.5785259 25.2674063,30.2400532 23.9727897,30.8326081 L24.850141,32.8617246 C26.0363123,31.6906448 26.9947325,30.330962 27.6980476,28.8542998 L27.6980476,28.8542998 Z M19.2185179,32.6145298 C20.7482316,33.0891485 22.3633276,33.3047734 23.9951772,33.2369722 L23.1178259,31.2078548 C21.8303325,31.7573806 20.5296026,32.226971 19.2185179,32.6145298 L19.2185179,32.6145298 Z" id="path2862" fill="#339966" transform="translate(19.958550, 25.481434) rotate(-337.000000) translate(-19.958550, -25.481434) "></path>
                                    <path d="M21.0174034,0.00585130759 C13.8523785,0.00585130759 7.52239737,3.61246792 3.73279816,9.11341157 L7.79221616,11.4656372 C10.7608265,7.36001248 15.5786829,4.68689738 21.0174034,4.68689738 C26.4561239,4.68689757 31.2739802,7.36001248 34.2425906,11.4656372 L38.3020086,9.11341157 C34.5124094,3.61246792 28.1824283,0.00585130759 21.0174034,0.00585130759 L21.0174034,0.00585130759 Z" id="path4005" fill="#990000"></path>
                                    <path d="M1.52228175,13.2415091 C0.554595447,15.6623888 0.0204137399,18.3040641 0.0204137399,21.0705586 C0.0204137399,31.9073507 8.19045906,40.84129 18.6844045,42.0065372 L18.6844045,37.284532 C10.7741732,36.1471829 4.68641144,29.3192817 4.68641144,21.0705586 C4.68641153,19.1564059 5.01445935,17.3193424 5.61669473,15.6112886 L1.52228175,13.2415091 L1.52228175,13.2415091 Z" id="path4003" fill="#006699"></path>
                                    <path d="M40.512525,13.2415091 L36.418112,15.6112886 C37.0203477,17.3193424 37.3483953,19.1564059 37.3483953,21.0705586 C37.3483953,29.3192808 31.2606345,36.1471829 23.3504022,37.284532 L23.3504022,42.0065372 C33.8443468,40.84129 42.0143921,31.9073507 42.014393,21.0705586 C42.014393,18.3040641 41.4802109,15.6623888 40.512525,13.2415091 L40.512525,13.2415091 Z" id="path3918" fill="#006699"></path>
                                    <path d="M15.1565184,11.575075 L15.1565184,20.8263122 L12.7585875,20.8263122 L12.7585875,11.575075 L15.1565184,11.575075 Z M16.585708,11.575075 L18.2830558,11.575075 C19.4146267,11.575075 20.1807038,11.6188831 20.5813103,11.7065008 C20.9819168,11.7941185 21.3084726,12.0179211 21.5609876,12.3779155 C21.8135025,12.7379099 21.9397581,13.312178 21.9397581,14.100737 C21.9397581,14.8207257 21.8505248,15.3045204 21.6720556,15.5521356 C21.4935864,15.7997507 21.142349,15.9483176 20.618333,15.9978407 C21.0929852,16.115934 21.4119467,16.2740244 21.5752271,16.4721166 C21.7385074,16.6702087 21.8400815,16.8521079 21.8799522,17.0178196 C21.919823,17.1835313 21.9397581,17.6397077 21.9397581,18.3863627 L21.9397581,20.8263122 L19.7127011,20.8263122 L19.7127011,17.7520901 C19.7127011,17.2568598 19.6737802,16.9502025 19.5959373,16.8321091 C19.5180943,16.7140157 19.3139969,16.6549699 18.983639,16.6549699 L18.983639,20.8263122 L16.585708,20.8263122 L16.585708,11.575075 Z M18.983639,13.1578994 L18.983639,15.2149997 C19.2532414,15.2149997 19.4421502,15.177858 19.5503709,15.1035734 C19.6585916,15.0292889 19.7127011,14.7883439 19.7127011,14.3807312 L19.7127011,13.8721703 C19.7127011,13.5788416 19.6604902,13.3864665 19.5560667,13.2950394 C19.4516432,13.2036123 19.2608359,13.1578994 18.983639,13.1578994 L18.983639,13.1578994 Z M28.9337424,15.6092773 L26.5358114,15.6092773 L26.5358114,13.997882 C26.5358114,13.5293179 26.5101806,13.2369459 26.4589181,13.1207573 C26.4076557,13.0045686 26.2946902,12.9464752 26.1200182,12.9464752 C25.9225629,12.9464752 25.7972565,13.0169492 25.7440955,13.1578994 C25.6909345,13.2988495 25.6643543,13.6036021 25.6643543,14.0721662 L25.6643543,18.3692202 C25.6643543,18.818737 25.6909345,19.1120613 25.7440955,19.249202 C25.7972565,19.3863427 25.9168671,19.454912 26.1029308,19.454912 C26.2814,19.454912 26.3981627,19.3863427 26.4532223,19.249202 C26.508282,19.1120613 26.5358114,18.7901664 26.5358114,18.2835077 L26.5358114,17.1235317 L28.9337424,17.1235317 L28.9337424,17.4835242 C28.9337424,18.4396997 28.8663428,19.1177741 28.7315415,19.5177679 C28.5967403,19.9177616 28.2986632,20.268227 27.8373013,20.5691747 C27.3759393,20.8701224 26.8073145,21.0205939 26.1314098,21.0205939 C25.4289245,21.0205939 24.8498575,20.8929788 24.3941914,20.6377447 C23.9385253,20.3825106 23.636651,20.0291881 23.4885595,19.5777666 C23.340468,19.1263451 23.2664234,18.4473184 23.2664234,17.5406659 L23.2664234,14.8378646 C23.2664234,14.1712084 23.2892063,13.6712238 23.334773,13.3378957 C23.3803396,13.0045675 23.5160881,12.683625 23.7420225,12.3750584 C23.967957,12.0664918 24.2812227,11.8236421 24.6818292,11.6465021 C25.0824356,11.469362 25.5428414,11.3807933 26.0630602,11.3807933 C26.7693427,11.3807933 27.3522068,11.5179319 27.8116702,11.7922133 C28.2711335,12.0664947 28.5730078,12.408389 28.717302,12.8179064 C28.8615963,13.2274238 28.9337424,13.8645471 28.9337424,14.7292955 L28.9337424,15.6092773 Z" id="IRC" fill="#990000"></path>
                                </g>
                            </g>
                            <g id="slack_color" transform="translate(379.759536, 149.826232)">
                                <g id="Group-5" stroke="url(#linearGradient-23)" stroke-width="1.4013267" fill="#FFFFFF">
                                    <ellipse id="Oval-3" transform="translate(32.930823, 32.905407) rotate(10.000000) translate(-32.930823, -32.905407) " cx="32.9308228" cy="32.9054068" rx="28.0501046" ry="28.0284556"></ellipse>
                                </g>
                                <g id="Group" transform="translate(15.414594, 15.402697)">
                                    <path d="M22.667881,2.20459416 C22.1365466,0.570561076 20.3803599,-0.32361815 18.7451522,0.207505843 C17.1100876,0.738344231 16.2151891,2.49320532 16.746409,4.12694851 L24.7962278,28.8742412 C25.3488228,30.4005862 26.9989014,31.2584314 28.5830468,30.802896 C30.2352766,30.3275466 31.2424694,28.5741758 30.7152333,26.9525418 C30.6951826,26.8910401 22.667881,2.20459416 22.667881,2.20459416" id="path22-7" fill="#E7A213"></path>
                                    <path d="M10.1950332,6.25402566 C9.66369883,4.62028033 7.90751303,3.7261011 6.27230529,4.25693949 C4.63724096,4.78777788 3.74234228,6.54269265 4.2735621,8.17663984 L12.3233791,32.9238982 C12.8759751,34.4503463 14.5260543,35.3080755 16.1100858,34.8523125 C17.7623141,34.3773109 18.7696801,32.6238199 18.2423574,31.0022031 C18.2223281,30.9405597 10.1950332,6.25402566 10.1950332,6.25402566" id="path24-8" fill="#4DC088"></path>
                                    <path d="M32.7998246,22.7002514 C34.4351176,22.1693272 35.3297017,20.4144961 34.7984533,18.7805511 C34.2672049,17.1467478 32.5109905,16.2525406 30.8759832,16.7833511 L6.10957823,24.826955 C4.58193826,25.3791257 3.72354528,27.0279307 4.17943314,28.6107396 C4.6550352,30.2616642 6.40975937,31.2681677 8.03276043,30.7412505 C8.09430959,30.7212367 32.7998246,22.7002514 32.7998246,22.7002514" id="path26-3" fill="#E10D63"></path>
                                    <path d="M11.2713412,29.6899392 C12.8834824,29.1664879 14.9612538,28.4919731 17.1906633,27.768126 C16.6669508,26.157345 15.9916866,24.0808328 15.2671372,21.8527997 L9.34749987,23.7752722 L11.2713412,29.6899392" id="path28-4" fill="#3F2543"></path>
                                    <path d="M23.7443037,25.640278 C25.9822527,24.9137402 28.062144,24.2384244 29.6636258,23.7184648 C29.1398261,22.107454 28.4644185,20.0305123 27.7396685,17.8020218 L21.8200025,19.7245222 L23.7443037,25.640278" id="path30-9" fill="#D01E25"></path>
                                    <path d="M28.7472653,10.2370315 C30.3822725,9.70610721 31.2771424,7.95127618 30.745894,6.31730108 C30.2146456,4.68327014 28.4583732,3.78937652 26.8231661,4.32021491 L2.05679205,12.363735 C0.529278144,12.9159036 -0.329226801,14.5648246 0.126776458,16.1475175 C0.6023692,17.7984421 2.35710217,18.8050594 3.97997149,18.2781443 C4.04166379,18.2581305 28.7472653,10.2370315 28.7472653,10.2370315" id="path32-2" fill="#7CD3DC"></path>
                                    <path d="M7.2175778,17.2270328 C8.82969041,16.7034956 10.908035,16.028867 13.1380174,15.3047901 C12.410803,13.0684552 11.7349657,10.9900532 11.2144914,9.38946383 L5.2937079,11.3123937 L7.2175778,17.2270328" id="path34-0" fill="#36987B"></path>
                                    <path d="M19.6904247,13.1773994 C21.9288031,12.4507478 24.0091242,11.7753161 25.6108645,11.2552448 C24.8835356,9.01836442 24.2074704,6.93941919 23.6869946,5.33865799 L17.7660964,7.26172957 L19.6904247,13.1773994" id="path36-4" fill="#5A872D"></path>
                                </g>
                                <rect id="500x500" x="4.8807182" y="4.87695127" width="56.1002092" height="56.0569111"></rect>
                            </g>
                            <g id="messenger_color" transform="translate(211.600332, 152.626722)">
                                <ellipse id="Oval-3" fill="#0084FF" cx="28.026534" cy="28.0049031" rx="28.026534" ry="28.0049031"></ellipse>
                                <polygon id="Messenger-color" fill="#FFFFFF" points="30.2391551 34.9986514 24.7411269 29.1032464 14.013267 34.9986514 25.8139129 22.4039225 31.4460393 28.2993275 42.039801 22.4039225"></polygon>
                                <rect id="500x500" x="0" y="0" width="56.053068" height="56.0098063"></rect>
                            </g>
                            <g id="email_color" transform="translate(517.089552, 184.832361)">
                                <path d="M0,28.0049031 C0,12.5382222 12.5445034,0 28.026534,0 C43.5051613,0 56.053068,12.5348215 56.053068,28.0049031 C56.053068,43.471584 43.5085646,56.0098063 28.026534,56.0098063 C12.5479067,56.0098063 0,43.4749848 0,28.0049031 L0,28.0049031 Z" id="Shape" fill="#F65756"></path>
                                <path d="M41.9078114,19.8247657 L27.8151292,28.985927 L14.0960548,19.98394 C14.3728125,18.9573874 15.3115672,18.203187 16.4270506,18.203187 L39.6260175,18.203187 C40.6821581,18.203187 41.5807017,18.8809849 41.9078114,19.8247657 Z M42.039801,21.2286139 L42.039801,34.8154306 C42.039801,36.1473243 40.9591133,37.224492 39.6260175,37.224492 L16.4270506,37.224492 C15.0947675,37.224492 14.013267,36.1459185 14.013267,34.8154306 L14.013267,21.5031616 L27.8151297,30.7221277 L42.039801,21.2286139 Z" id="Email-color" fill="#FFFFFF"></path>
                                <rect id="500x500" x="0" y="0" width="56.053068" height="56.0098063"></rect>
                            </g>
                            <g id="telegram_color" transform="translate(0.000000, 233.840941)">
                                <ellipse id="Oval" fill="url(#linearGradient-24)" cx="28.026534" cy="28.0049031" rx="28.026534" ry="28.0049031"></ellipse>
                                <g id="Group-2" transform="translate(14.013267, 16.802942)">
                                    <path d="M10.5912238,22.012401 C9.75975282,22.012401 9.90104043,21.6986922 9.61427321,20.9076135 L7.16918055,12.8667613 L25.9904183,1.70970105" id="Shape" fill="#C8DAEA"></path>
                                    <path d="M10.5912238,22.012401 C11.2328569,22.012401 11.5163518,21.7191872 11.87449,21.3712631 L15.2965332,18.046322 L11.027962,15.4742905" id="Shape" fill="#A9C9DD"></path>
                                    <path d="M11.0275343,15.4749316 L21.3706599,23.1106702 C22.550944,23.7614038 23.4027975,23.4244858 23.6967938,22.0157135 L27.9069764,2.19108875 C28.3380255,0.464247948 27.2482117,-0.318966101 26.1190871,0.193260332 L1.39696359,9.718646 C-0.290552857,10.3949824 -0.280714483,11.335724 1.08936468,11.7548999 L7.43361894,13.7335156 L22.1212423,4.47441587 C22.8146125,4.05427821 23.4509842,4.28015322 22.9286734,4.74335184" id="Shape" fill="url(#linearGradient-25)"></path>
                                </g>
                                <rect id="500x500" x="0" y="0" width="56.053068" height="56.0098063"></rect>
                            </g>
                            <g id="flowdock_color" opacity="0.75" transform="translate(91.086235, 520.891198)">
                                <ellipse id="Oval-3" stroke="url(#linearGradient-26)" stroke-width="1.4013267" fill="#FFFFFF" transform="translate(40.608106, 40.576764) rotate(-45.000000) translate(-40.608106, -40.576764) " cx="40.6081056" cy="40.5767643" rx="27.9961653" ry="27.9745579"></ellipse>
                                <path d="M57.4442611,33.6003971 L46.3739325,33.6003971 L46.3739325,39.7520433 L56.347815,39.7520433 L56.347815,45.8031174 L46.3097296,45.8031174 C46.3097296,45.8031174 46.3097301,52.3382437 46.3097296,56.6439235 C41.7840579,59.0262759 22.5201303,56.6439228 23.8923481,38.0523696 C23.8923481,38.0523696 24.7529586,24.2248688 41.0764667,22.4039225 C41.0764667,22.4039225 52.7588256,22.4039225 57.4442611,33.6003971 Z M39.6252605,34.2645108 C30.8069769,36.0940433 30.3945184,43.7625585 30.3945184,43.7625585 C30.3945184,43.7625585 28.5282098,53.2374888 39.6252607,55.8566267 C39.6252607,54.2945891 39.6252605,34.2645108 39.6252605,34.2645108 Z M39.7287056,32.665156 C39.7287056,32.665156 39.7287052,30.538407 39.7287056,29.2410536 C23.978938,32.1285151 28.2499325,48.0117642 29.0923658,48.0117633 C29.0923658,48.0117633 25.9367939,35.6904892 39.7287056,32.665156 Z M51.2808487,27.6765427 C42.2467511,20.7864045 33.6611369,25.9325425 33.6611369,25.9325425 C19.3982688,35.1432804 27.4874792,48.1623529 27.4874792,48.1623529 C27.4874792,48.1623529 21.5286436,31.8524342 39.7388506,27.6765427 C42.8505675,27.6765427 51.2808487,27.6765427 51.2808487,27.6765427 Z" id="Flowdock-color" fill="url(#linearGradient-27)"></path>
                            </g>
                            <g id="viber-icon" transform="translate(18.217247, 399.069870)">
                                <ellipse id="Oval-2" fill="#7B519D" cx="28.026534" cy="28.0049031" rx="28.026534" ry="28.0049031"></ellipse>
                                <path d="M39.3767072,34.2679661 C38.5220383,33.580446 37.608724,32.9633581 36.7097031,32.332968 C34.9167062,31.0746381 33.2767341,30.976831 31.9388179,33.0013048 C31.1874969,34.1378834 30.1357315,34.1876621 29.0359707,33.6890349 C26.0042014,32.3153949 23.6630758,30.1989251 22.2917379,27.119787 C21.6851038,25.757489 21.6930914,24.5361256 23.1124246,23.5726172 C23.8638858,23.0630682 24.6209523,22.4601228 24.560415,21.3467183 C24.4813802,19.8949446 20.9537516,15.0433068 19.5606932,14.5312373 C18.9842577,14.3193103 18.4102044,14.3331027 17.8237494,14.5300471 C14.557258,15.6276989 13.2042775,18.312038 14.5000138,21.4904534 C18.3655722,30.9730504 25.1683103,37.5745039 34.5326728,41.6037079 C35.0665781,41.833138 35.6596894,41.9248541 35.9599936,42.0071884 C38.0919713,42.0286122 40.589485,39.9761335 41.3107476,37.9391976 C42.0051748,35.9795552 40.5375658,35.2017193 39.3767072,34.2679661 Z M28.8769202,15.5034272 L28.8769202,15.5034272 C28.3097334,15.416262 27.4453954,15.5393435 27.4880657,14.7902126 C27.5521063,13.6790484 28.5787179,14.0922606 29.0748575,14.0209182 C35.6509311,14.2427169 41.31334,20.2583081 41.233044,26.747322 C41.2250565,27.3843633 41.453893,28.3278481 40.5042143,28.309715 C39.5955243,28.2920719 39.8327688,27.3344445 39.7519123,26.6980333 C38.8801472,19.8081294 35.7228892,16.555361 28.8769202,15.5034272 Z M30.2160275,17.3925673 L30.2160275,17.3925673 C34.4406056,17.8994559 37.8910211,21.5616558 37.8568988,25.5852589 C37.7925079,26.0614121 38.0706711,26.8765645 37.3005723,26.993765 C36.2614189,27.1513626 36.46342,26.2003864 36.3617538,25.5893896 C35.665575,21.3984573 34.1933416,19.8607086 29.96512,18.9164536 C29.3425809,18.7771993 28.3737039,18.8745163 28.534366,17.9162588 C28.6882316,17.0032993 29.5575443,17.3133135 30.2160275,17.3925673 Z M30.6042649,20.6827222 L30.6042649,20.6827222 C32.4785387,20.6362341 34.6749074,22.8805463 34.643868,24.8222656 C34.6631362,25.3530283 34.6063125,25.911936 33.9778877,25.9868491 C33.5244186,26.0403384 33.2264966,25.660242 33.1796923,25.19116 C33.0064183,23.462838 32.0935944,22.4408695 30.3591029,22.1626408 C29.8395612,22.0792563 29.3291281,21.911997 29.5717678,21.2104745 C29.7333407,20.7411124 30.1647389,20.6935741 30.6042649,20.6827222 Z" id="Combined-Shape" fill="#FFFFFF"></path>
                            </g>
                            <g id="CALLR_ICON_white_rgb" transform="translate(592.761194, 228.239961)">
                                <ellipse id="Oval-2-Copy" fill="#659BD5" cx="28.026534" cy="28.0049031" rx="28.026534" ry="28.0049031"></ellipse>
                                <path d="M28.026534,14.0024516 C31.6464067,14.0024516 34.9453817,15.3735065 37.4306784,17.6246903 C36.0910231,19.542693 35.1113632,21.7319582 34.5920255,24.094448 C33.2582717,21.8624295 30.8172367,20.3682745 28.026534,20.3682745 C23.8061771,20.3682745 20.3847445,23.7855921 20.3847445,28.0034289 C20.3847445,30.2280761 21.3371096,32.2308483 22.856025,33.6269656 L22.856025,36.9528795 L25.7367266,35.2906597 C26.4589307,35.5169575 27.229085,35.6393204 28.026534,35.6393204 C30.8172367,35.6393204 33.2582717,34.1451654 34.5920255,31.913884 C35.1113632,34.2763739 36.0902854,36.465639 37.4314161,38.385116 C34.9453817,40.6362998 31.6464067,42.0073547 28.026534,42.0073547 C20.2873687,42.0073547 14.013267,35.7380954 14.013267,28.0049031 C14.013267,20.272448 20.2873687,14.0024516 28.026534,14.0024516" id="Fill-1" fill="#FFFFFF"></path>
                            </g>
                            <g id="amazon-echo" transform="translate(591.359867, 399.069870)">
                                <ellipse id="Oval-2-Copy" fill="#2CC0E1" cx="28.026534" cy="28.0049031" rx="28.026534" ry="28.0049031"></ellipse>
                                <g id="Group-7" transform="translate(14.013267, 18.203187)" fill="#FFFFFF">
                                    <path d="M6.26133361,14.8777811 C6.26133361,12.4922205 5.12261312,10.9913765 3.16202642,10.9913765 C1.24868277,10.9913765 0,12.5874476 0,14.8623169 C0,16.9955665 1.13872049,18.8122063 3.62060985,18.8122063 C4.47424294,18.8122063 5.3914098,18.5753595 6.08702303,18.1325942 L5.64391578,17.1689286 C5.12179859,17.453796 4.50519529,17.6743647 3.79410589,17.6743647 C2.30757878,17.6743647 1.45394569,16.6317502 1.42217881,15.2253193 L6.26051907,15.2253193 L6.26051907,14.8777811 L6.26133361,14.8777811 Z M1.42217881,14.1818909 C1.43846951,13.0440493 2.08602516,12.0966618 3.16121188,12.0966618 C4.28364166,12.0966618 4.78946814,13.1392763 4.82123502,14.1818909 L1.42217881,14.1818909 Z M6.84617003,14.9884725 C6.84617003,12.7608097 8.36446401,10.9913765 10.6410904,10.9913765 C11.446666,10.9913765 12.1105123,11.2127591 12.5544341,11.4658841 L12.5544341,12.6826747 C12.0477931,12.3506007 11.4792474,12.1454962 10.7518673,12.1454962 C9.21809711,12.1454962 8.28463954,13.3305444 8.28463954,14.9103374 C8.28463954,16.6643064 9.21809711,17.6589005 10.6565666,17.6589005 C11.4157136,17.6589005 11.953307,17.4065894 12.4436573,17.1371863 L12.8541831,18.11713 C12.3002991,18.4955966 11.4311898,18.8122063 10.482256,18.8122063 C8.12661967,18.8113924 6.84617003,17.10463 6.84617003,14.9884725 Z M13.7811244,7.46797417 L15.1715363,7.46797417 L15.1715363,12.0811976 C15.9152072,11.4496059 16.7525495,10.9913765 17.7169595,10.9913765 C18.8874468,10.9913765 19.9935859,11.6864528 19.9935859,13.6455263 L19.9935859,18.6543084 L18.6023594,18.6543084 L18.6023594,14.1029419 C18.6023594,13.0440493 18.3335628,12.2228174 17.3056191,12.2228174 C16.5464721,12.2228174 15.819092,12.6655826 15.1707218,13.2336895 L15.1707218,18.6534945 L13.7803099,18.6534945 L13.7803099,7.46797417 L13.7811244,7.46797417 Z M24.4849341,10.9905625 L24.4849341,10.9905625 C26.6035407,10.9905625 28.026534,12.697325 28.026534,14.9087096 C28.026534,17.10463 26.6198314,18.8113924 24.4694579,18.8113924 C22.3345606,18.8113924 20.9270435,17.10463 20.9270435,14.9087096 C20.9270435,12.6965111 22.3345606,10.9905625 24.4849341,10.9905625 Z M24.4694579,17.6580866 C25.7971506,17.6580866 26.5880645,16.5055946 26.5880645,14.9095235 C26.5880645,13.2971742 25.7971506,12.1446823 24.4849341,12.1446823 C23.1564268,12.1446823 22.3663275,13.2979882 22.3663275,14.9095235 C22.3663275,16.5055946 23.1564268,17.6580866 24.4694579,17.6580866 Z" id="Combined-Shape"></path>
                                    <path d="M16.2623035,4.40017697 C15.1767869,5.20089587 13.6026331,5.6263207 12.2477132,5.6263207 C10.348145,5.6263207 8.63791516,4.9244899 7.34347353,3.75706097 C7.24210367,3.66538347 7.33247748,3.54005654 7.45446494,3.61113236 C8.85096369,4.42318219 10.5776877,4.91212889 12.3614536,4.91212889 C13.5644906,4.91212889 14.8871096,4.66250512 16.1042352,4.14677622 C16.2880755,4.06883317 16.4420202,4.26729609 16.2623035,4.40017697 Z M16.7141725,3.88479143 C16.5750037,3.70727356 15.7963457,3.80066788 15.4465338,3.84255798 C15.3406968,3.85560571 15.3242027,3.76289812 15.4197309,3.69559928 C16.0410079,3.25953024 17.0591737,3.38554389 17.1777249,3.5314725 C17.2969634,3.67877456 17.1464549,4.69890143 16.5640077,5.18578796 C16.4743211,5.26064076 16.3894454,5.22081083 16.4289624,5.12192273 C16.5595405,4.79469927 16.8533413,4.06265266 16.7141725,3.88479143 L16.7141725,3.88479143 Z M15.4709313,0.614616994 L15.4709313,0.191252327 C15.4716185,0.126357013 15.5197263,0.0834368321 15.5784864,0.0837801936 L17.4794291,0.0834368321 C17.540251,0.0834368321 17.589046,0.127730459 17.589046,0.190222243 L17.589046,0.553842017 C17.5883588,0.614616994 17.5368148,0.69427685 17.4457537,0.820633863 L16.4612633,2.22532555 C16.8265385,2.21674151 17.2134621,2.27167935 17.5454054,2.45778125 C17.620316,2.50001471 17.64059,2.56216313 17.6464317,2.62328147 L17.6464317,3.0754885 C17.6464317,3.13763692 17.57805,3.21008619 17.506232,3.17231643 C16.9213794,2.86603801 16.1447832,2.83273195 15.4980778,3.1760934 C15.4321015,3.21111627 15.3626889,3.14004045 15.3626889,3.07789203 L15.3626889,2.64800349 C15.3626889,2.5793312 15.3640634,2.46155823 15.433476,2.35683299 L16.5743165,0.721745766 L15.5808918,0.721745766 C15.5200699,0.721745766 15.4716185,0.678138862 15.4709313,0.614616994 L15.4709313,0.614616994 Z M8.53723255,3.2615904 L7.95925251,3.2615904 C7.90427224,3.25781343 7.86028803,3.21661005 7.85582088,3.16407575 L7.85650814,0.198462918 C7.85650814,0.139061387 7.906334,0.0916775069 7.9681868,0.0916775069 L8.5069934,0.0913341454 C8.56334817,0.094081037 8.60836327,0.136657857 8.61179953,0.190908966 L8.61179953,0.577877319 L8.62279559,0.577877319 C8.76299526,0.203613339 9.02758779,0.0288423617 9.38392864,0.0288423617 C9.74576751,0.0288423617 9.97256111,0.203613339 10.1340656,0.577877319 C10.2746089,0.203613339 10.5928072,0.0288423617 10.9333412,0.0288423617 C11.1762853,0.0288423617 11.4405342,0.128760543 11.6023824,0.353318931 C11.7862226,0.603286066 11.7484237,0.964845672 11.7484237,1.28314173 L11.7477364,3.15480499 C11.7477364,3.21386316 11.6979106,3.26124704 11.6360578,3.26124704 L11.0584214,3.26124704 C11.0006921,3.25747007 10.9549897,3.21180299 10.9549897,3.15480499 L10.9546461,1.58220956 C10.9546461,1.45756935 10.9656422,1.14545379 10.9384956,1.02699409 C10.8951987,0.827157731 10.7659951,0.771189814 10.5986489,0.771189814 C10.4584492,0.771189814 10.3127515,0.864584129 10.2533041,1.01428972 C10.1938567,1.16433867 10.1993547,1.41361909 10.1993547,1.58220956 L10.1993547,3.15446163 C10.1993547,3.2135198 10.1495288,3.26090368 10.087676,3.26090368 L9.51038325,3.26090368 C9.45231034,3.25712671 9.406608,3.21145963 9.406608,3.15446163 L9.40592074,1.5818662 C9.40592074,1.25120912 9.4595265,0.764665947 9.0495799,0.764665947 C8.63379164,0.764665947 8.65028572,1.23884811 8.65028572,1.5818662 L8.64994209,3.15411827 C8.64891121,3.21420652 8.59908535,3.2615904 8.53723255,3.2615904 L8.53723255,3.2615904 Z M19.2253962,0.0288423617 C20.0837756,0.0288423617 20.5480152,0.76535267 20.5480152,1.70135598 C20.5480152,2.6061134 20.0353242,3.32373883 19.2253962,3.32373883 C18.3835109,3.32373883 17.9244256,2.58722852 17.9244256,1.67011009 C17.924082,0.74646779 18.3886653,0.0288423617 19.2253962,0.0288423617 L19.2253962,0.0288423617 Z M19.2308942,0.634188596 C18.8044535,0.634188596 18.777307,1.21446945 18.777307,1.57637241 C18.777307,1.93827538 18.771809,2.71221209 19.2253962,2.71221209 C19.6734853,2.71221209 19.6951338,2.08798097 19.6951338,1.70753649 C19.6951338,1.45791271 19.6841378,1.15850153 19.6085399,0.921238768 C19.5435945,0.715221898 19.4140472,0.634188596 19.2308942,0.634188596 L19.2308942,0.634188596 Z M21.6610219,3.2615904 L21.08476,3.2615904 C21.0270308,3.25781343 20.9809848,3.21214636 20.9809848,3.15514835 L20.9802975,0.188505435 C20.9851083,0.133910965 21.0328724,0.0916775069 21.0912889,0.0916775069 L21.6276902,0.0913341454 C21.6782033,0.094081037 21.7197821,0.128417182 21.7304345,0.174427616 L21.7304345,0.62800809 L21.7414306,0.62800809 C21.9032787,0.222154857 22.1300723,0.0288423617 22.5293665,0.0288423617 C22.788461,0.0288423617 23.0420575,0.122580037 23.2042493,0.378384317 C23.355445,0.615303717 23.355445,1.01463308 23.355445,1.30202661 L23.355445,3.16785273 C23.3489161,3.22038703 23.3018392,3.26124704 23.2444536,3.26124704 L22.6647554,3.26124704 C22.6111497,3.25781343 22.5678527,3.21832686 22.562011,3.16785273 L22.562011,1.55783089 C22.562011,1.23335432 22.59981,0.759172164 22.2001722,0.759172164 C22.0596289,0.759172164 21.9300816,0.852566478 21.8654798,0.996091564 C21.7847275,1.17704305 21.7737315,1.35799453 21.7737315,1.55783089 L21.7737315,3.15480499 C21.772357,3.21420652 21.7225311,3.2615904 21.6610219,3.2615904 L21.6610219,3.2615904 Z M14.5386722,3.25403645 C14.5005296,3.2883726 14.4452057,3.29077613 14.4019088,3.26742755 C14.2098214,3.10810784 14.1754588,3.03428512 14.070309,2.88251936 C13.7531416,3.20562249 13.5284098,3.30245042 13.1170887,3.30245042 C12.6301697,3.30245042 12.2514931,3.00235251 12.2514931,2.40181334 C12.2514931,1.9327816 12.5061205,1.61379881 12.868303,1.45756935 C13.1820341,1.31988141 13.6205017,1.29481602 13.9558813,1.25738963 L13.9558813,1.18219347 C13.9558813,1.04450553 13.9668774,0.882095562 13.8854379,0.763292501 C13.8149944,0.656850452 13.6799491,0.612900186 13.5607107,0.612900186 C13.340446,0.612900186 13.1442352,0.725866103 13.0957838,0.960038611 C13.0858186,1.01222955 13.0476761,1.06373377 12.9954448,1.06648066 L12.4349898,1.00570568 C12.3875693,0.994718118 12.3349944,0.95729172 12.3487395,0.884842454 C12.4775995,0.205330146 13.0916603,0 13.6418066,0 C13.9232368,0 14.2909173,0.0748527959 14.5129002,0.287736894 C14.7943304,0.550408403 14.7671839,0.900637081 14.7671839,1.28211165 L14.7671839,2.18240537 C14.7671839,2.45331755 14.8798934,2.57212061 14.9853868,2.71770587 C15.0224985,2.77024017 15.0307455,2.83273195 14.9836687,2.87118844 C14.8654611,2.97007653 14.6558489,3.1520581 14.5403903,3.25472317 L14.5386722,3.25403645 L14.5386722,3.25403645 Z M13.9558813,1.84522443 L13.9558813,1.72024086 C13.5376877,1.72024086 13.0957838,1.80951484 13.0957838,2.30155179 C13.0957838,2.55186229 13.2256747,2.72079612 13.4473139,2.72079612 C13.6095057,2.72079612 13.755547,2.62087794 13.8476389,2.45812461 C13.9613794,2.25794489 13.9558813,2.07046954 13.9558813,1.84522443 Z M6.95826805,3.25403645 C6.92012549,3.2883726 6.8648016,3.29077613 6.82150464,3.26742755 C6.62941733,3.10810784 6.59505467,3.03428512 6.48990491,2.88251936 C6.17239388,3.20562249 5.94766204,3.30245042 5.53668456,3.30245042 C5.04942195,3.30245042 4.671089,3.00235251 4.671089,2.40181334 C4.671089,1.9327816 4.92537273,1.61379881 5.28789885,1.45756935 C5.60162999,1.31988141 6.03975399,1.29481602 6.37513361,1.25738963 L6.37513361,1.18219347 C6.37513361,1.04450553 6.38612966,0.882095562 6.30469014,0.763292501 C6.23424667,0.656850452 6.0992014,0.612900186 5.98030657,0.612900186 C5.75969826,0.612900186 5.56348743,0.725866103 5.5153797,0.960038611 C5.50541453,1.01222955 5.46727197,1.06373377 5.41504072,1.06648066 L4.85458564,1.00570568 C4.80716516,0.994718118 4.75459028,0.95729172 4.76799172,0.884842454 C4.89685171,0.205330146 5.51091256,0.000343361449 6.06140246,0.000343361449 C6.3428327,0.000343361449 6.71051323,0.0751961573 6.93249605,0.288080256 C7.21392628,0.550751764 7.18677978,0.900980442 7.18677978,1.28245501 L7.18677978,2.18274873 C7.18677978,2.45366091 7.29948932,2.57246398 7.4049827,2.71804923 C7.44209438,2.77058353 7.45034142,2.83307532 7.40326457,2.8715318 C7.285057,2.9704199 7.07510111,3.15240146 6.95964255,3.25506654 L6.95826805,3.25403645 L6.95826805,3.25403645 Z M6.37513361,1.84522443 L6.37513361,1.72024086 C5.95693996,1.72024086 5.51503608,1.80951484 5.51503608,2.30155179 C5.51503608,2.55186229 5.64492695,2.72079612 5.86656615,2.72079612 C6.02910156,2.72079612 6.17514289,2.62087794 6.26689121,2.45812461 C6.38063163,2.25794489 6.37513361,2.07046954 6.37513361,1.84522443 Z" id="Combined-Shape"></path>
                                </g>
                            </g>
                            <g id="google" transform="translate(121.915423, 291.250993)">
                                <g id="Group-5" stroke="url(#linearGradient-28)" stroke-width="1.4013267" fill="#FFFFFF">
                                    <ellipse id="Oval-3" transform="translate(39.937456, 39.906633) rotate(10.000000) translate(-39.937456, -39.906633) " cx="39.9374563" cy="39.9066326" rx="28.0501046" ry="28.0284556"></ellipse>
                                </g>
                                <g id="Group" transform="translate(26.625207, 26.604658)">
                                    <ellipse id="Oval" fill="#2196F3" cx="8.55400472" cy="8.57130536" rx="8.55400472" ry="8.54740274"></ellipse>
                                    <path d="M28.026534,9.4051623 C28.026534,10.3647678 27.2479218,11.1424508 26.2879036,11.1424508 C25.3278853,11.1424508 24.5492732,10.3647678 24.5492732,9.4051623 C24.5492732,8.44561148 25.3278853,7.66787375 26.2879036,7.66787375 C27.2479218,7.66787375 28.026534,8.44561148 28.026534,9.4051623 Z" id="Shape" fill="#00C853"></path>
                                    <path d="M24.8970321,13.644131 C24.8970321,15.5629592 23.3403552,17.1185987 21.419826,17.1185987 C19.4991326,17.1185987 17.9425652,15.5629592 17.9425652,13.644131 C17.9425652,11.7251935 19.4991873,10.1695539 21.419826,10.1695539 C23.3404099,10.1695539 24.8970321,11.7252482 24.8970321,13.644131 Z" id="Shape" fill="#F44336"></path>
                                    <path d="M25.5924405,22.6084349 C25.5924405,24.9111818 23.7245158,26.7777195 21.4197713,26.7777195 C19.1150268,26.7777195 17.2470473,24.9111818 17.2470473,22.6084349 C17.2470473,20.3057974 19.114972,18.4390408 21.4197713,18.4390408 C23.7245158,18.4390408 25.5924405,20.3057974 25.5924405,22.6084349 Z" id="Shape" fill="#FFEB3B"></path>
                                </g>
                            </g>
                        </g>
                    </g>
                </g>
            </g>
        </g>
    </g>
</svg>