<?xml version="1.0" encoding="utf-8"?>
<!-- Generator: Adobe Illustrator 16.0.3, SVG Export Plug-In . SVG Version: 6.00 Build 0)  -->
<!DOCTYPE svg PUBLIC "-//W3C//DTD SVG 1.1//EN" "http://www.w3.org/Graphics/SVG/1.1/DTD/svg11.dtd">
<svg version="1.1" id="Layer_1" xmlns="http://www.w3.org/2000/svg" xmlns:xlink="http://www.w3.org/1999/xlink" x="0px" y="0px"
	 width="244px" height="156.5px" viewBox="0 0 244 156.5" enable-background="new 0 0 244 156.5" xml:space="preserve">
<desc>Created with Sketch.</desc>
<g id="Symbols">
	<g id="Interactive_03">
		<defs>
			<filter id="Adobe_OpacityMaskFilter" filterUnits="userSpaceOnUse" x="0" y="0" width="243.77" height="215.957">
				<feColorMatrix  type="matrix" values="1 0 0 0 0  0 1 0 0 0  0 0 1 0 0  0 0 0 1 0"/>
			</filter>
		</defs>
		<mask maskUnits="userSpaceOnUse" x="0" y="0" width="243.77" height="215.957" id="mask-2">
			<g filter="url(#Adobe_OpacityMaskFilter)">
				<circle id="path-1" fill="#FFFFFF" cx="120.523" cy="113.076" r="37.544"/>
			</g>
		</mask>
		<g mask="url(#mask-2)">
			
				<circle id="Oval-33" fill="none" stroke="#C1E0F4" stroke-width="2" stroke-dasharray="6,10" cx="120.411" cy="112.964" r="67.219"/>
			<g id="Oval-33_1_">
				
					<circle id="path-1_1_" fill="#FFFFFF" stroke="#3AA3E3" stroke-width="2" stroke-opacity="0.3708" stroke-dasharray="6,9" cx="120.523" cy="113.076" r="37.544"/>
			</g>
			
				<circle id="Oval-33-Copy" fill="none" stroke="#C1E0F4" stroke-width="2" stroke-dasharray="6,10" cx="120.367" cy="112.92" r="99.09"/>
			<rect id="Rectangle-19" x="14.894" y="138.298" fill="#FFFFFF" width="210.639" height="77.659"/>
			<g id="Group-18">
				<g id="Group-19" transform="translate(196.808645, 91.489424)">
					<circle id="Oval-34" fill="#FFFFFF" stroke="#35A1E2" stroke-dasharray="6,10" cx="23.23" cy="23.231" r="23.231"/>
					<g id="Slack_Mark" transform="translate(8.447555, 6.335666)">
						<g id="Layer_1_1_">
							<g id="Group">
								<path id="Shape" fill="#ECB32D" d="M19.743,2.017c-0.474-1.419-1.991-2.191-3.411-1.743
									c-1.419,0.473-2.19,1.992-1.742,3.411l6.996,21.51c0.473,1.32,1.916,2.066,3.285,1.668c1.444-0.422,2.316-1.941,1.843-3.336
									C26.714,23.478,19.743,2.017,19.743,2.017z"/>
								<path id="Shape_1_" fill="#63C1A0" d="M8.913,5.527C8.439,4.108,6.922,3.336,5.502,3.784
									c-1.418,0.473-2.19,1.992-1.742,3.411l6.996,21.51c0.473,1.319,1.916,2.066,3.286,1.669
									c1.444-0.424,2.315-1.942,1.843-3.337C15.884,26.987,8.913,5.527,8.913,5.527z"/>
								<path id="Shape_2_" fill="#E01A59" d="M28.556,19.817c1.419-0.473,2.19-1.992,1.742-3.41
									c-0.473-1.42-1.991-2.191-3.41-1.743L5.353,21.685c-1.32,0.473-2.066,1.917-1.668,3.286
									c0.423,1.444,1.941,2.315,3.336,1.843C7.07,26.814,28.556,19.817,28.556,19.817z"/>
								<path id="Shape_3_" fill="#331433" d="M9.834,25.917c1.395-0.448,3.212-1.046,5.154-1.668
									c-0.449-1.395-1.046-3.212-1.668-5.154l-5.154,1.669L9.834,25.917z"/>
								<path id="Shape_4_" fill="#D62027" d="M20.689,22.382c1.941-0.623,3.759-1.221,5.153-1.668
									c-0.448-1.395-1.046-3.212-1.668-5.154l-5.153,1.668L20.689,22.382z"/>
								<path id="Shape_5_" fill="#89D3DF" d="M25.021,8.987c1.418-0.473,2.19-1.992,1.742-3.411
									c-0.473-1.419-1.992-2.191-3.41-1.743L1.842,10.83c-1.319,0.473-2.066,1.917-1.668,3.286
									c0.423,1.443,1.942,2.315,3.336,1.842C3.56,15.958,25.021,8.987,25.021,8.987z"/>
								<path id="Shape_6_" fill="#258B74" d="M6.324,15.062c1.395-0.447,3.211-1.045,5.153-1.668
									c-0.622-1.941-1.22-3.759-1.668-5.153L4.656,9.909L6.324,15.062z"/>
								<path id="Shape_7_" fill="#819C3C" d="M17.154,11.552c1.941-0.623,3.759-1.22,5.153-1.668
									c-0.622-1.942-1.22-3.759-1.669-5.153l-5.152,1.668L17.154,11.552z"/>
							</g>
						</g>
					</g>
				</g>
				<g id="Group-22" transform="translate(138.297967, 0.000000)">
					<circle id="Oval-34-Copy-3" fill="#7289DA" cx="22.616" cy="22.616" r="22.616"/>
					<g id="Group-6" transform="translate(9.251897, 7.195920)">
						<ellipse id="Oval-2" fill="#FFFFFF" cx="13.651" cy="14.898" rx="10.238" ry="10.314"/>
						<g enable-background="new    ">
							
								<image overflow="visible" width="176" height="201" id="_x32_c21aeda16de354ba5334551a883b481" xlink:href="B367E407.png"  transform="matrix(0.1551 0 0 0.1539 -6.103516e-005 -1.220703e-004)">
							</image>
						</g>
					</g>
				</g>
				<g id="Group-29" transform="translate(135.526190, 72.455000)">
					<circle id="Oval-34-Copy-12" fill="#1EA6F9" cx="13.214" cy="13.214" r="13.214"/>
					<g id="Twitter_Logo_Blue">
						<g enable-background="new    ">
							
								<image overflow="visible" width="400" height="400" xlink:href="B367E405.png"  transform="matrix(0.0548 0 0 0.0548 2.5783 1.9337)">
							</image>
						</g>
						<g>
							<rect id="rect-3" x="2.578" y="1.934" fill="#FFFFFF" width="21.915" height="21.916"/>
						</g>
					</g>
				</g>
				<g id="Group-31" transform="translate(78.021322, 89.000000)">
					<circle id="Oval-34-Copy-8" fill="#00B900" cx="11.022" cy="11.021" r="11.021"/>
					<g transform="matrix(1 0 0 1 -2.384186e-007 0)" enable-background="new    ">
						
							<image overflow="visible" width="473" height="473" id="LINE_Icon" xlink:href="B367E40B.png"  transform="matrix(0.0318 0 0 0.0318 3.0085 3.0078)">
						</image>
					</g>
				</g>
				<g id="Group-21" transform="translate(67.021322, 35.106407)">
					<circle id="Oval-34-Copy-2" fill="#FFFFFF" stroke="#35A1E2" stroke-dasharray="6,10" cx="17.018" cy="17.018" r="17.018"/>
					<g enable-background="new    ">
						
							<image overflow="visible" width="250" height="110" id="Skype-logo-Feb_2012_RGB_250" xlink:href="B367E40D.png"  transform="matrix(0.1021 0 0 0.1055 4.6413 11.6031)">
						</image>
					</g>
				</g>
				<g id="messenger_color" transform="translate(0.000000, 71.276644)">
					<path id="Messenger-color" fill="#0084FF" d="M20.83,0C9.417,0,0.167,8.618,0.167,19.25c0,6.058,3.004,11.461,7.7,14.99v7.34
						l7.036-3.886c1.878,0.522,3.867,0.806,5.927,0.806c11.412,0,20.663-8.619,20.663-19.25C41.493,8.618,32.241,0,20.83,0L20.83,0z
						 M22.883,25.924l-5.262-5.646L7.354,25.924L18.647,13.86l5.391,5.646l10.139-5.646L22.883,25.924L22.883,25.924z"/>
					<rect id="_x35_00x500" y="0" fill="none" width="41.581" height="41.581"/>
				</g>
			</g>
		</g>
	</g>
</g>
</svg>
