
<svg width="163px" height="143px" viewBox="0 0 163 143" version="1.1" xmlns="http://www.w3.org/2000/svg" xmlns:xlink="http://www.w3.org/1999/xlink">
    <!-- Generator: Sketch 46.1 (44463) - http://www.bohemiancoding.com/sketch -->
    <desc>Created with Sketch.</desc>
    <defs>
        <path d="M10,0 L79.5100021,0 L79.5100021,0 C85.0328496,-1.08250786e-14 89.5100021,4.4771525 89.5100021,10 L89.5100021,129.373487 L0,129.373487 L0,10 L1.77635684e-15,10 C1.10000309e-15,4.4771525 4.4771525,1.01453063e-15 10,0 Z" id="path-1"></path>
        <rect id="path-3" x="7.72125409" y="20.659864" width="73.2089277" height="109.7909"></rect>
    </defs>
    <g id="Symbols" stroke="none" stroke-width="1" fill="none" fill-rule="evenodd">
        <g id="Interactive_02">
            <g>
                <path d="M27.2061652,105.938699 C29.5689358,106.462569 32.0248536,106.738818 34.5452926,106.738818 C53.187265,106.738818 68.2995696,91.6265131 68.2995696,72.9845407 C68.2995696,54.3425683 53.187265,39.2302637 34.5452926,39.2302637 C15.9033202,39.2302637 0.791015625,54.3425683 0.791015625,72.9845407 C0.791015625,83.7515032 5.83220922,93.3410318 13.6830216,99.5215518 L13.6830216,113.295077 L27.2061618,105.938698 Z" id="Combined-Shape" stroke="#35A1E2" stroke-dasharray="3,5"></path>
                <g id="Group-11" transform="translate(49.000000, 0.000000)">
                    <g id="Rectangle-7" transform="translate(0.000000, 0.000000)">
                        <mask id="mask-2" fill="white">
                            <use xlink:href="#path-1"></use>
                        </mask>
                        <use id="Mask" fill="#39434D" xlink:href="#path-1"></use>
                        <g mask="url(#mask-2)">
                            <use fill="#FFFFFF" fill-rule="evenodd" xlink:href="#path-3"></use>
                            <rect stroke="#000000" stroke-width="1" x="7.22125409" y="20.159864" width="74.2089277" height="110.7909"></rect>
                        </g>
                    </g>
                    <g id="Group-12" transform="translate(12.799987, 44.879570)">
                        <g id="Group-16" transform="translate(0.000000, 0.000000)">
                            <rect id="Rectangle-21" fill="#F3F3F3" x="8.76047775" y="0.159475695" width="47.0043845" height="17.2553345" rx="2"></rect>
                            <rect id="Rectangle-21" fill="#B2C5D0" x="12.0617734" y="3.94133256" width="27.8348618" height="1.87924285" rx="0.939621427"></rect>
                            <rect id="Rectangle-21" fill="#B2C5D0" x="12.0617734" y="7.65264746" width="38.9688065" height="1.87924285" rx="0.939621427"></rect>
                            <rect id="Rectangle-21" fill="#B2C5D0" x="12.0617734" y="11.3639624" width="38.9688065" height="1.87924285" rx="0.939621427"></rect>
                            <rect id="Rectangle-20" fill="#54C6AB" x="0" y="11.3771156" width="5.56697235" height="5.56697235" rx="2.78348618"></rect>
                        </g>
                        <g id="Group-16-Copy-2" transform="translate(0.000000, 33.631852)">
                            <rect id="Rectangle-20" fill="#54C6AB" x="0" y="11.1470979" width="5.56697235" height="5.56697235" rx="2.78348618"></rect>
                            <g id="Wow" transform="translate(10.206116, 0.000000)">
                                <circle id="Wow-Oval" fill="#FFDA69" cx="9.18280675" cy="9.18280675" r="9.18280675"></circle>
                                <ellipse id="mouth" fill="#252B37" cx="9.18280675" cy="12.7270479" rx="2.73873184" ry="3.5442412"></ellipse>
                                <path d="M13.8542703,8.67135489 C13.0656688,8.81040661 12.2823452,8.10626251 12.104668,7.09860501 C11.9269907,6.09094752 12.4222428,5.16135602 13.2108443,5.0223043 C13.9994458,4.88325257 14.7827695,5.58739668 14.9604467,6.59505417 C15.1381239,7.60271167 14.6428719,8.53230316 13.8542703,8.67135489 Z M4.64992681,8.73388219 C3.8613253,8.59483046 3.36607329,7.66523897 3.54375049,6.65758148 C3.72142769,5.64992398 4.50475137,4.94577988 5.29335289,5.0848316 C6.08195441,5.22388333 6.57720641,6.15347482 6.39952921,7.16113232 C6.22185201,8.16878981 5.43852833,8.87293391 4.64992681,8.73388219 Z M14.9104392,2.40273167 C15.0624731,2.5650989 15.0540964,2.81997144 14.8917292,2.97200542 C14.7293619,3.1240394 14.4744894,3.11566264 14.3224554,2.95329541 C14.063438,2.67667343 13.7094963,2.50897316 13.3233185,2.48873444 C12.9720009,2.47032267 12.6342506,2.57587436 12.3592573,2.78314265 C12.1816269,2.91702649 11.9290947,2.88156288 11.7952109,2.70393246 C11.661327,2.52630205 11.6967906,2.27376984 11.8744211,2.139886 C12.2992952,1.81964924 12.8232333,1.65591129 13.3654756,1.684329 C13.9616662,1.71557402 14.5105096,1.97562017 14.9104392,2.40273167 Z M5.025901,2.55965734 C4.63972323,2.57989606 4.2857815,2.74759632 4.02676408,3.02421831 C3.87473011,3.18658554 3.61985757,3.1949623 3.45749033,3.04292832 C3.2951231,2.89089434 3.28674634,2.6360218 3.43878032,2.47365457 C3.83870991,2.04654307 4.38755331,1.78649692 4.9837439,1.7552519 C5.52598619,1.72683418 6.04992424,1.89057213 6.47479843,2.21080889 C6.65242885,2.34469274 6.68789246,2.59722494 6.55400862,2.77485536 C6.42012477,2.95248578 6.16759257,2.98794938 5.98996215,2.85406554 C5.71496891,2.64679726 5.37721857,2.54124556 5.025901,2.55965734 Z" id="eyes" fill="#252B37"></path>
                            </g>
                        </g>
                        <g id="Group-16-Copy" transform="translate(6.494801, 22.497907)">
                            <rect id="Rectangle-21" fill="#C1E0F4" x="0.21836594" y="0" width="48.9565565" height="7.40525042" rx="2"></rect>
                            <rect id="Rectangle-20" fill="#35A1E2" x="51.0305799" y="1.85565745" width="5.56697235" height="5.56697235" rx="2.78348618"></rect>
                        </g>
                        <g id="Group-16-Copy-3" transform="translate(7.192612, 55.899741)">
                            <rect id="Rectangle-21" fill="#C1E0F4" x="0.172028357" y="0" width="48.305083" height="16.7978952" rx="2"></rect>
                            <rect id="Rectangle-20" fill="#35A1E2" x="50.3327688" y="11.1339447" width="5.56697235" height="5.56697235" rx="2.78348618"></rect>
                        </g>
                    </g>
                    <rect id="Rectangle-7" fill="#C1E0F4" x="7.72125409" y="20.659864" width="73.2089277" height="14.2063487"></rect>
                    <rect id="Rectangle-8" fill="#FFFFFF" x="32" y="8" width="25.6820819" height="4.49436433" rx="2.24718216"></rect>
                </g>
                <g id="Group-25" transform="translate(6.000000, 44.000000)">
                    <path d="M20.1148632,56.6135378 C22.9149473,57.5138098 25.9006958,58 29,58 C45.0162577,58 58,45.0162577 58,29 C58,12.9837423 45.0162577,0 29,0 C12.9837423,0 0,12.9837423 0,29 C0,38.25044 4.33114341,46.4892872 11.0761719,51.7992833 L11.0761719,63.6328125 L20.1148632,56.6135378 Z" id="Combined-Shape" fill="#35A1E2"></path>
                    <g id="Group-26" transform="translate(14.392578, 25.936749)" fill="#FFFFFF">
                        <circle id="Oval-3" cx="3.5316256" cy="3.5316256" r="3.5316256"></circle>
                        <circle id="Oval-3" cx="15.3037109" cy="3.5316256" r="3.5316256"></circle>
                        <circle id="Oval-3" cx="27.0757963" cy="3.5316256" r="3.5316256"></circle>
                    </g>
                </g>
                <g id="Love" transform="translate(116.000000, 96.000000)">
                    <circle id="Love-Oval" fill="#F55065" cx="23.369031" cy="23.369031" r="23.369031"></circle>
                    <path d="M9.63048966,20.5765926 C9.4991465,20.0255303 9.42960898,19.4504948 9.42960898,18.859218 C9.42960898,14.7835255 12.7336105,11.479524 16.809303,11.479524 C19.6651883,11.479524 22.1421757,13.1017783 23.369031,15.4750526 C24.5958862,13.1017783 27.0728737,11.479524 29.9287589,11.479524 C34.0044514,11.479524 37.3084529,14.7835255 37.3084529,18.859218 C37.3084529,19.3904229 37.2523272,19.908519 37.1456825,20.4078997 C37.1371181,20.5044445 37.1230934,20.6031769 37.1034614,20.7041415 C35.6685209,28.0838355 23.5740225,36.4884869 23.5740225,36.4884869 C23.5740225,36.4884869 10.0445835,27.6738525 9.63460048,20.7041415 C9.63207504,20.6612089 9.63070974,20.6186939 9.63048966,20.5765926 Z" fill="#FFFFFF"></path>
                </g>
            </g>
        </g>
    </g>
</svg>