<?xml version="1.0" encoding="UTF-8"?>
<svg width="200px" height="188px" viewBox="0 0 200 188" version="1.1" xmlns="http://www.w3.org/2000/svg" xmlns:xlink="http://www.w3.org/1999/xlink">
    <!-- Generator: Sketch 45.2 (43514) - http://www.bohemiancoding.com/sketch -->
    <title>integrations_hero_mobile</title>
    <desc>Created with Sketch.</desc>
    <defs>
        <rect id="path-1" x="0" y="0" width="200" height="200"></rect>
        <path d="M0.0877662967,0.21122414 L200.087766,0.21122414 L200.087766,200.211224 L0.0877662967,200.211224 L0.0877662967,0.21122414 Z M101.241968,96.1357664 L59.3596619,200.211224 L143.324277,200.211224 L101.241968,96.1357664 Z" id="path-3"></path>
        <ellipse id="path-5" cx="101.248601" cy="102.712652" rx="50.0165692" ry="49.977981"></ellipse>
        <filter x="-7.0%" y="-7.0%" width="114.0%" height="114.0%" filterUnits="objectBoundingBox" id="filter-6">
            <feGaussianBlur stdDeviation="7" in="SourceAlpha" result="shadowBlurInner1"></feGaussianBlur>
            <feOffset dx="0" dy="0" in="shadowBlurInner1" result="shadowOffsetInner1"></feOffset>
            <feComposite in="shadowOffsetInner1" in2="SourceAlpha" operator="arithmetic" k2="-1" k3="1" result="shadowInnerInner1"></feComposite>
            <feColorMatrix values="0 0 0 0 0.22745098   0 0 0 0 0.639215686   0 0 0 0 0.890196078  0 0 0 0.10510077 0" type="matrix" in="shadowInnerInner1"></feColorMatrix>
        </filter>
        <mask id="mask-7" maskContentUnits="userSpaceOnUse" maskUnits="objectBoundingBox" x="0" y="0" width="100.033138" height="99.955962" fill="white">
            <use xlink:href="#path-5"></use>
        </mask>
        <ellipse id="path-8" cx="101.248601" cy="102.712652" rx="73.7313218" ry="73.6744375"></ellipse>
        <filter x="-4.7%" y="-4.8%" width="109.5%" height="109.5%" filterUnits="objectBoundingBox" id="filter-9">
            <feGaussianBlur stdDeviation="7" in="SourceAlpha" result="shadowBlurInner1"></feGaussianBlur>
            <feOffset dx="0" dy="0" in="shadowBlurInner1" result="shadowOffsetInner1"></feOffset>
            <feComposite in="shadowOffsetInner1" in2="SourceAlpha" operator="arithmetic" k2="-1" k3="1" result="shadowInnerInner1"></feComposite>
            <feColorMatrix values="0 0 0 0 0.22745098   0 0 0 0 0.639215686   0 0 0 0 0.890196078  0 0 0 0.10510077 0" type="matrix" in="shadowInnerInner1"></feColorMatrix>
        </filter>
        <mask id="mask-10" maskContentUnits="userSpaceOnUse" maskUnits="objectBoundingBox" x="0" y="0" width="147.462644" height="147.348875" fill="white">
            <use xlink:href="#path-8"></use>
        </mask>
        <ellipse id="path-11" cx="101.033013" cy="102.497229" rx="93.3498899" ry="93.2778697"></ellipse>
        <filter x="-3.7%" y="-3.8%" width="107.5%" height="107.5%" filterUnits="objectBoundingBox" id="filter-12">
            <feGaussianBlur stdDeviation="7" in="SourceAlpha" result="shadowBlurInner1"></feGaussianBlur>
            <feOffset dx="0" dy="0" in="shadowBlurInner1" result="shadowOffsetInner1"></feOffset>
            <feComposite in="shadowOffsetInner1" in2="SourceAlpha" operator="arithmetic" k2="-1" k3="1" result="shadowInnerInner1"></feComposite>
            <feColorMatrix values="0 0 0 0 0.22745098   0 0 0 0 0.639215686   0 0 0 0 0.890196078  0 0 0 0.10510077 0" type="matrix" in="shadowInnerInner1"></feColorMatrix>
        </filter>
        <mask id="mask-13" maskContentUnits="userSpaceOnUse" maskUnits="objectBoundingBox" x="0" y="0" width="186.69978" height="186.555739" fill="white">
            <use xlink:href="#path-11"></use>
        </mask>
        <ellipse id="path-14" cx="29.7512438" cy="4.30844664" rx="16.8159204" ry="4.30844664"></ellipse>
        <filter x="-20.8%" y="-81.2%" width="141.6%" height="262.5%" filterUnits="objectBoundingBox" id="filter-15">
            <feGaussianBlur stdDeviation="7" in="SourceAlpha" result="shadowBlurInner1"></feGaussianBlur>
            <feOffset dx="0" dy="0" in="shadowBlurInner1" result="shadowOffsetInner1"></feOffset>
            <feComposite in="shadowOffsetInner1" in2="SourceAlpha" operator="arithmetic" k2="-1" k3="1" result="shadowInnerInner1"></feComposite>
            <feColorMatrix values="0 0 0 0 0.22745098   0 0 0 0 0.639215686   0 0 0 0 0.890196078  0 0 0 0.10510077 0" type="matrix" in="shadowInnerInner1"></feColorMatrix>
        </filter>
        <ellipse id="path-16" cx="29.7512438" cy="10.3402719" rx="21.5588723" ry="6.03182529"></ellipse>
        <filter x="-16.2%" y="-58.0%" width="132.5%" height="216.1%" filterUnits="objectBoundingBox" id="filter-17">
            <feGaussianBlur stdDeviation="7" in="SourceAlpha" result="shadowBlurInner1"></feGaussianBlur>
            <feOffset dx="0" dy="0" in="shadowBlurInner1" result="shadowOffsetInner1"></feOffset>
            <feComposite in="shadowOffsetInner1" in2="SourceAlpha" operator="arithmetic" k2="-1" k3="1" result="shadowInnerInner1"></feComposite>
            <feColorMatrix values="0 0 0 0 0.22745098   0 0 0 0 0.639215686   0 0 0 0 0.890196078  0 0 0 0.10510077 0" type="matrix" in="shadowInnerInner1"></feColorMatrix>
        </filter>
        <ellipse id="path-18" cx="29.7512438" cy="17.6646312" rx="29.7512438" ry="6.03182529"></ellipse>
        <filter x="-11.8%" y="-58.0%" width="123.5%" height="216.1%" filterUnits="objectBoundingBox" id="filter-19">
            <feGaussianBlur stdDeviation="7" in="SourceAlpha" result="shadowBlurInner1"></feGaussianBlur>
            <feOffset dx="0" dy="0" in="shadowBlurInner1" result="shadowOffsetInner1"></feOffset>
            <feComposite in="shadowOffsetInner1" in2="SourceAlpha" operator="arithmetic" k2="-1" k3="1" result="shadowInnerInner1"></feComposite>
            <feColorMatrix values="0 0 0 0 0.22745098   0 0 0 0 0.639215686   0 0 0 0 0.890196078  0 0 0 0.10510077 0" type="matrix" in="shadowInnerInner1"></feColorMatrix>
        </filter>
        <radialGradient cx="0%" cy="0%" fx="0%" fy="0%" r="141.421356%" gradientTransform="translate(0.000000,0.000000),scale(0.999228,1.000000),rotate(44.977881),translate(-0.000000,-0.000000)" id="radialGradient-20">
            <stop stop-color="#FFFFFF" offset="0%"></stop>
            <stop stop-color="#FFFFFF" offset="51.8833705%"></stop>
            <stop stop-color="#006699" offset="100%"></stop>
        </radialGradient>
        <linearGradient x1="50%" y1="0%" x2="50%" y2="100%" id="linearGradient-21">
            <stop stop-color="#990000" offset="0%"></stop>
            <stop stop-color="#006699" offset="100%"></stop>
        </linearGradient>
        <ellipse id="path-22" cx="8.62354892" cy="8.61689327" rx="8.62354892" ry="8.61689327"></ellipse>
        <linearGradient x1="0%" y1="29.2864197%" x2="100%" y2="67.7630354%" id="linearGradient-23">
            <stop stop-color="#36987B" offset="0%"></stop>
            <stop stop-color="#D01E25" offset="100%"></stop>
        </linearGradient>
        <linearGradient x1="100%" y1="0%" x2="0%" y2="100%" id="linearGradient-24">
            <stop stop-color="#1E96C8" offset="0%"></stop>
            <stop stop-color="#37AEE2" offset="100%"></stop>
        </linearGradient>
        <linearGradient x1="61.2346759%" y1="43.69%" x2="74.7064382%" y2="80.24%" id="linearGradient-25">
            <stop stop-color="#EFF7FC" offset="0%"></stop>
            <stop stop-color="#FFFFFF" offset="100%"></stop>
        </linearGradient>
        <linearGradient x1="87.547437%" y1="15.6326066%" x2="15.3390362%" y2="87.5297394%" id="linearGradient-26">
            <stop stop-color="#FFCD4B" offset="0%"></stop>
            <stop stop-color="#FAA340" offset="100%"></stop>
        </linearGradient>
        <linearGradient x1="50%" y1="0%" x2="50%" y2="100%" id="linearGradient-27">
            <stop stop-color="#FFBD0E" offset="0%"></stop>
            <stop stop-color="#F78200" offset="100%"></stop>
        </linearGradient>
        <linearGradient x1="10.7979633%" y1="17.5334216%" x2="92.2556459%" y2="81.0413877%" id="linearGradient-28">
            <stop stop-color="#2196F3" offset="0%"></stop>
            <stop stop-color="#FFEB3B" offset="100%"></stop>
        </linearGradient>
    </defs>
    <g id="pages_for_valérie" stroke="none" stroke-width="1" fill="none" fill-rule="evenodd">
        <g id="700-card---extra" transform="translate(-60.000000, -23.000000)">
            <g id="Group-6" transform="translate(10.000000, 20.000000)">
                <g id="integrations_hero_mobile" transform="translate(50.000000, 0.000000)">
                    <mask id="mask-2" fill="white">
                        <use xlink:href="#path-1"></use>
                    </mask>
                    <g id="Rectangle-43"></g>
                    <g id="Group-9" mask="url(#mask-2)">
                        <g transform="translate(-0.307692, -0.307692)">
                            <g id="Group-10" transform="translate(0.219926, 0.096468)">
                                <mask id="mask-4" fill="white">
                                    <use xlink:href="#path-3"></use>
                                </mask>
                                <g id="Combined-Shape"></g>
                                <g id="Oval-33" stroke-dasharray="2.587064596322867,3.880597041203426" mask="url(#mask-4)">
                                    <use fill="black" fill-opacity="1" filter="url(#filter-6)" xlink:href="#path-5"></use>
                                    <use stroke-opacity="0.370782382" stroke="#3AA3E3" mask="url(#mask-7)" stroke-width="1" xlink:href="#path-5"></use>
                                </g>
                                <g id="Oval-33-Copy" opacity="0.699999988" stroke-dasharray="2.587064596322867,3.880597041203426" mask="url(#mask-4)">
                                    <use fill="black" fill-opacity="1" filter="url(#filter-9)" xlink:href="#path-8"></use>
                                    <use stroke-opacity="0.370782382" stroke="#3AA3E3" mask="url(#mask-10)" stroke-width="1" xlink:href="#path-8"></use>
                                </g>
                                <g id="Oval-33-Copy-2" opacity="0.699999988" stroke-dasharray="2.587064596322867,3.880597041203426" mask="url(#mask-4)">
                                    <use fill="black" fill-opacity="1" filter="url(#filter-12)" xlink:href="#path-11"></use>
                                    <use stroke-opacity="0.370782382" stroke="#3AA3E3" mask="url(#mask-13)" stroke-width="1" xlink:href="#path-11"></use>
                                </g>
                            </g>
                            <g id="Robot" transform="translate(35.929583, 73.511683)">
                                <g id="Group-29" transform="translate(0.000000, 0.000000)">
                                    <g id="Group-20" transform="translate(69.850746, 42.653622)">
                                        <path d="M29.1222741,-1.20449109 C27.6246243,2.67853603 24.03922,10.3003111 25.8288167,19.3765098 C27.6184135,28.4527086 32.2743521,29.1876273 34.6920174,31.1545894 C37.1096827,33.1215515 32.0877031,44.0380927 32.0877031,44.0380927 C32.0877031,44.0380927 17.7889736,38.2881058 17.0574849,23.5879627 C16.3259961,8.88781959 20.4990267,1.73278216 25.2783138,-4.72223322 C28.0352099,-6.46522989 30.0967968,-3.84085796 29.1222741,-1.20449109 Z" id="Path-18" fill="#C1E0F4" transform="translate(26.161938, 19.376510) rotate(-63.000000) translate(-26.161938, -19.376510) "></path>
                                        <path d="M32.8600354,19.7059084 C32.8600354,19.7059084 27.5951662,23.4631289 30.7846154,32.2382065" id="Path-10" stroke="#FFFFFF" stroke-width="0.5"></path>
                                        <path d="M17.3174744,25.7488024 C17.3174744,25.7488024 17.7202461,18.5118099 22.0224201,17.7325897" id="Path-11" stroke="#FFFFFF" stroke-width="0.5"></path>
                                        <g id="Group-11" transform="translate(48.319217, 16.492800) rotate(-10.000000) translate(-48.319217, -16.492800) translate(37.970958, 5.506261)">
                                            <path d="M5.54926055,13.9700446 C5.54926055,13.9700446 2.92030502,8.07351949 7.00654632,2.60253848 C11.0927876,-2.86844252 19.5267201,0.866222874 20.6066493,10.8444642 C21.6865784,20.8227056 9.37675007,18.5071636 9.37675007,18.5071636 L5.54926055,13.9700446 Z" id="Path-40" fill="#3390D5"></path>
                                            <path d="M6.51602855,15.4392637 C6.51602855,15.4392637 9.5132075,5.46415312 13.0114506,9.30662237 C16.5096937,13.1490916 11.4385146,15.4392637 6.51602855,15.4392637 Z" id="Path-41" fill="#FFFFFF"></path>
                                            <rect id="Rectangle-46" fill="#3390D5" transform="translate(5.967205, 15.469037) rotate(-38.000000) translate(-5.967205, -15.469037) " x="4.02690673" y="8.79094499" width="3.88059701" height="13.3561846" rx="1.94029851"></rect>
                                        </g>
                                        <path d="M51.2366586,14.4744219 L54.9906247,8.03218057" id="Path-52" stroke="#3390D5" stroke-width="0.5"></path>
                                    </g>
                                    <g id="Group-20-Copy" transform="translate(30.828614, 62.041632) scale(-1, 1) translate(-30.828614, -62.041632) translate(0.430604, 42.653622)">
                                        <path d="M29.1222741,-1.20449109 C27.6246243,2.67853603 24.03922,10.3003111 25.8288167,19.3765098 C27.6184135,28.4527086 32.2743521,29.1876273 34.6920174,31.1545894 C37.1096827,33.1215515 32.0877031,44.0380927 32.0877031,44.0380927 C32.0877031,44.0380927 17.7889736,38.2881058 17.0574849,23.5879627 C16.3259961,8.88781959 20.4990267,1.73278216 25.2783138,-4.72223322 C28.0352099,-6.46522989 30.0967968,-3.84085796 29.1222741,-1.20449109 Z" id="Path-18" fill="#C1E0F4" transform="translate(26.161938, 19.376510) rotate(-63.000000) translate(-26.161938, -19.376510) "></path>
                                        <path d="M32.8600354,19.7059084 C32.8600354,19.7059084 27.5951662,23.4631289 30.7846154,32.2382065" id="Path-10" stroke="#FFFFFF" stroke-width="0.5"></path>
                                        <path d="M17.3174744,25.7488024 C17.3174744,25.7488024 17.7202461,18.5118099 22.0224201,17.7325897" id="Path-11" stroke="#FFFFFF" stroke-width="0.5"></path>
                                        <g id="Group-11" transform="translate(48.319217, 16.492800) rotate(-10.000000) translate(-48.319217, -16.492800) translate(37.970958, 5.506261)">
                                            <path d="M5.54926055,13.9700446 C5.54926055,13.9700446 2.92030502,8.07351949 7.00654632,2.60253848 C11.0927876,-2.86844252 19.5267201,0.866222874 20.6066493,10.8444642 C21.6865784,20.8227056 9.37675007,18.5071636 9.37675007,18.5071636 L5.54926055,13.9700446 Z" id="Path-40" fill="#3390D5"></path>
                                            <path d="M6.51602855,15.4392637 C6.51602855,15.4392637 9.5132075,5.46415312 13.0114506,9.30662237 C16.5096937,13.1490916 11.4385146,15.4392637 6.51602855,15.4392637 Z" id="Path-41" fill="#FFFFFF"></path>
                                            <rect id="Rectangle-46" fill="#3390D5" transform="translate(5.967205, 15.469037) rotate(-38.000000) translate(-5.967205, -15.469037) " x="4.02690673" y="8.79094499" width="3.88059701" height="13.3561846" rx="1.94029851"></rect>
                                        </g>
                                        <path d="M51.2366586,14.4744219 L54.9906247,8.03218057" id="Path-52" stroke="#3390D5" stroke-width="0.5"></path>
                                    </g>
                                    <path d="M60.6842841,47.8237577 C60.6842841,47.8237577 35.77558,51.048654 40.7585511,54.3468993 C45.7415221,57.6451447 54.1528232,58.0098407 54.1528232,58.0098407 L60.6842841,47.8237577 Z" id="Path-54" fill="#3390D5"></path>
                                    <path d="M91.7290602,47.8237577 C91.7290602,47.8237577 66.8203561,51.048654 71.8033272,54.3468993 C76.7862983,57.6451447 85.1975994,58.0098407 85.1975994,58.0098407 L91.7290602,47.8237577 Z" id="Path-54-Copy" fill="#3390D5" transform="translate(81.436669, 52.916799) scale(-1, 1) translate(-81.436669, -52.916799) "></path>
                                    <path d="M62.2388147,43.0844664 L68.9086089,43.0844664 L68.9086089,43.0844664 C73.204156,43.0844664 77.1506759,45.4498704 79.1756519,49.2381678 L82.5541842,55.5586797 L82.5541842,55.5586797 C83.2674644,56.8930746 83.4536126,58.4466791 83.0757632,59.9118099 L79.0012368,75.7109959 L79.0012368,75.7109959 C77.6752348,80.8526367 73.0381644,84.4455541 67.7282915,84.4455541 L63.3288357,84.4455541 L63.3288357,84.4455541 C58.0277751,84.4455541 53.3960609,80.8643168 52.0618251,75.7339116 L48.0156036,60.1753761 L48.0156036,60.1753761 C47.6384255,58.7250504 47.8141944,57.1862787 48.5087212,55.8583703 L51.9228165,49.3307519 L51.9228165,49.3307519 C53.9310605,45.4910669 57.9056605,43.0844664 62.2388147,43.0844664 Z" id="Rectangle-45" fill="#44B8FF"></path>
                                    <path d="M59.9232128,53.7275844 L71.2072303,53.7275844 L71.2072303,53.7275844 C75.373811,53.7275844 78.751492,57.1052654 78.751492,61.2718462 C78.751492,62.1208306 78.60819,62.9637252 78.3276248,63.7650102 L77.5422811,66.007926 L77.5422811,66.007926 C75.9075842,70.6765665 71.5011312,73.802436 66.5545731,73.802436 L64.57587,73.802436 L64.57587,73.802436 C59.6293119,73.802436 55.2228589,70.6765665 53.588162,66.007926 L52.8028183,63.7650102 L52.8028183,63.7650102 C51.4258818,59.8325249 53.4975634,55.5283881 57.4300488,54.1514516 C58.2313338,53.8708864 59.0742284,53.7275844 59.9232128,53.7275844 Z" id="Rectangle-45-Copy" fill="#3390D5"></path>
                                    <rect id="Rectangle-22" fill="#3390D5" x="34.0630182" y="19.3880099" width="19.4029851" height="14.2178739" rx="7.10893695"></rect>
                                    <rect id="Rectangle-22-Copy" fill="#3390D5" x="74.5936982" y="19.3880099" width="19.4029851" height="14.2178739" rx="7.10893695"></rect>
                                    <rect id="Rectangle-44-Copy" fill="#EAEAEA" x="61.6583748" y="28.0049031" width="7.76062053" height="18.5263205" rx="3.88031027"></rect>
                                    <rect id="Rectangle-19" fill="#44B8FF" x="40.9618574" y="3.01591265" width="46.5671642" height="40.9302431" rx="11.641791"></rect>
                                    <path d="M73.3025241,1.2244456 L76.403947,1.9722663 L76.403947,1.9722663 C77.002111,2.11649669 77.4158881,2.66212593 77.3934065,3.277022 L77.3873574,3.4424728 L77.3873574,3.4424728 C77.363282,4.10095897 76.8099566,4.61525056 76.1514704,4.59117521 C76.1415903,4.59081398 76.1317151,4.59032996 76.1218471,4.58972325 L72.8392449,4.38790167 L72.8392449,4.38790167 C72.1261931,4.34406168 71.5836898,3.73047969 71.6275298,3.01742792 C71.6293578,2.98769444 71.6322125,2.95803299 71.6360886,2.92849662 L71.7167794,2.31362858 L71.7167794,2.31362858 C71.8097348,1.60530375 72.4593008,1.10644826 73.1676256,1.19940364 C73.2130031,1.20535866 73.2580326,1.21371773 73.3025241,1.2244456 Z" id="Path-22-Copy-2" fill="#38475B" transform="translate(74.501393, 2.870974) rotate(28.000000) translate(-74.501393, -2.870974) "></path>
                                    <path d="M52.195679,7.06355095 L55.2971019,7.81137164 L55.2971019,7.81137164 C55.8952659,7.95560203 56.309043,8.50123127 56.2865614,9.11612735 L56.2805123,9.28157815 L56.2805123,9.28157815 C56.2564369,9.94006432 55.7031115,10.4543559 55.0446253,10.4302806 C55.0347452,10.4299193 55.02487,10.4294353 55.015002,10.4288286 L51.7323998,10.227007 L51.7323998,10.227007 C51.019348,10.183167 50.4768447,9.56958503 50.5206847,8.85653327 C50.5225127,8.82679979 50.5253674,8.79713833 50.5292435,8.76760196 L50.6099343,8.15273392 L50.6099343,8.15273392 C50.7028897,7.4444091 51.3524557,6.9455536 52.0607805,7.03850899 C52.106158,7.044464 52.1511875,7.05282308 52.195679,7.06355095 Z" id="Path-22-Copy-4" fill="#38475B" transform="translate(53.394548, 8.710079) scale(-1, 1) rotate(2.000000) translate(-53.394548, -8.710079) "></path>
                                    <path d="M54.5439469,14.1359693 L73.946932,14.1359693 L73.946932,14.1359693 C79.5430511,14.1359693 84.079602,18.6725202 84.079602,24.2686393 L84.079602,33.6676548 L84.079602,33.6676548 C84.079602,39.263774 79.5430511,43.8003249 73.946932,43.8003249 C73.5065533,43.8003249 73.0666431,43.7716158 72.6299997,43.7143802 C68.3078803,43.1478336 65.5130269,42.8585342 64.2454395,42.8464821 C62.9787495,42.8344386 60.1869554,43.113354 55.8700572,43.6832284 L55.8700572,43.6832284 C50.3220708,44.4156189 45.2308194,40.5118071 44.4984289,34.9638207 C44.4403902,34.5241673 44.4112769,34.081178 44.4112769,33.6377104 L44.4112769,24.2686393 L44.4112769,24.2686393 C44.4112769,18.6725202 48.9478278,14.1359693 54.5439469,14.1359693 Z" id="Rectangle-20" fill="#3390D5" transform="translate(64.245439, 29.076062) scale(1, -1) translate(-64.245439, -29.076062) "></path>
                                    <g id="Group-8" transform="translate(35.787728, 93.493292)">
                                        <g id="Oval-32">
                                            <use fill="black" fill-opacity="1" filter="url(#filter-15)" xlink:href="#path-14"></use>
                                            <ellipse stroke-opacity="0.370782382" stroke="#3AA3E3" stroke-width="0.5" cx="29.7512438" cy="4.30844664" rx="16.5659204" ry="4.05844664"></ellipse>
                                        </g>
                                        <g id="Oval-32-Copy" opacity="0.600000024">
                                            <use fill="black" fill-opacity="1" filter="url(#filter-17)" xlink:href="#path-16"></use>
                                            <ellipse stroke-opacity="0.370782382" stroke="#3AA3E3" stroke-width="0.5" cx="29.7512438" cy="10.3402719" rx="21.3088723" ry="5.78182529"></ellipse>
                                        </g>
                                        <g id="Oval-32-Copy-2" opacity="0.200000003">
                                            <use fill="black" fill-opacity="1" filter="url(#filter-19)" xlink:href="#path-18"></use>
                                            <ellipse stroke-opacity="0.370782382" stroke="#3AA3E3" stroke-width="0.5" cx="29.7512438" cy="17.6646312" rx="29.5012438" ry="5.78182529"></ellipse>
                                        </g>
                                    </g>
                                    <ellipse id="Oval-25" fill="#FFFFFF" cx="74.8092869" cy="74.3207045" rx="1.50912106" ry="1.50795632"></ellipse>
                                    <path d="M59.9446607,82.3031851 L72.3424224,82.3031851 L72.3424224,82.3031851 C74.4594963,82.3031851 76.4134943,83.4400762 77.4597164,85.280571 L77.4597164,85.280571 L77.4597164,85.280571 C78.0035703,86.2373089 77.6688617,87.4537789 76.7121238,87.9976327 C76.4119742,88.1682516 76.0726436,88.257957 75.7273892,88.257957 L56.5523232,88.257957 L56.5523232,88.257957 C55.4524104,88.257957 54.560755,87.3663015 54.560755,86.2663887 C54.560755,85.9206909 54.6507397,85.5809463 54.8218587,85.280571 L54.8218587,85.280571 L54.8218587,85.280571 C55.8705118,83.4398078 57.8261512,82.3031851 59.9446607,82.3031851 Z" id="Path-53" fill="#3390D5"></path>
                                    <path d="M56.1535305,23.2656118 L56.1535305,23.2656118 C57.1615453,23.2656118 57.9787027,24.0827693 57.9787027,25.0907841 L57.9787027,26.3038092 L57.9787027,26.3038092 C57.9787027,27.311824 57.1615453,28.1289814 56.1535305,28.1289814 L56.1535305,28.1289814 L56.1535305,28.1289814 C55.1455157,28.1289814 54.3283582,27.311824 54.3283582,26.3038092 L54.3283582,25.0907841 L54.3283582,25.0907841 C54.3283582,24.0827693 55.1455157,23.2656118 56.1535305,23.2656118 L56.1535305,23.2656118 Z M72.9694509,23.2656118 C73.9774657,23.2656118 74.7946231,24.0827693 74.7946231,25.0907841 L74.7946231,26.3038092 C74.7946231,27.311824 73.9774657,28.1289814 72.9694509,28.1289814 C71.9614361,28.1289814 71.1442786,27.311824 71.1442786,26.3038092 L71.1442786,25.0907841 L71.1442786,25.0907841 C71.1442786,24.0827693 71.9614361,23.2656118 72.9694509,23.2656118 Z M61.2271973,28.0049031 L68.9021842,28.0049031 C68.5414042,30.6334163 67.2622398,31.9476729 65.0646908,31.9476729 C62.8671418,31.9476729 61.5879773,30.6334163 61.2271973,28.0049031 Z" id="Path-53" fill="#F2F2F2"></path>
                                </g>
                            </g>
                            <g id="Integrations" transform="translate(0.573032, 3.714847)">
                                <g id="line-messenger" transform="translate(23.283582, 25.850680)">
                                    <ellipse id="Oval-34-Copy-8" fill="#00B900" cx="8.62354892" cy="8.61689327" rx="8.62354892" ry="8.61689327"></ellipse>
                                    <path d="M3.88123506,10.5259931 L5.55114466,10.5259931 C5.78867903,10.5259931 5.98296015,10.3318023 5.98296015,10.0944512 L5.98296015,10.0584546 C5.98296015,9.82110355 5.78867903,9.62697237 5.55114466,9.62697237 L4.349075,9.62697237 L4.349075,6.89415217 C4.349075,6.65680114 4.15479388,6.46266996 3.91725951,6.46266996 L3.88123506,6.46266996 C3.64370069,6.46266996 3.44941957,6.65680114 3.44941957,6.89415217 L3.44941957,10.0943915 C3.44941957,10.3318023 3.64370069,10.5259931 3.88123506,10.5259931 L3.88123506,10.5259931 Z M14.2288557,8.52003065 L14.2288557,8.484034 C14.2288557,8.24668297 14.0345149,8.05255179 13.7969805,8.05255179 L12.5949706,8.05255179 L12.5949706,7.36933181 L13.7969805,7.36933181 C14.0345149,7.36933181 14.2288557,7.17520063 14.2288557,6.9378496 L14.2288557,6.90185295 C14.2288557,6.66450191 14.0345149,6.47037073 13.7969805,6.47037073 L12.1270709,6.47037073 C11.8895365,6.47037073 11.6952554,6.66450191 11.6952554,6.90185295 L11.6952554,10.1020923 C11.6952554,10.3394433 11.8895365,10.5336342 12.1270709,10.5336342 L13.7969805,10.5336342 C14.0345149,10.5336342 14.2288557,10.3394433 14.2288557,10.1020923 L14.2288557,10.0660957 C14.2288557,9.82874463 14.0345149,9.63461345 13.7969805,9.63461345 L12.5949706,9.63461345 L12.5949706,8.95139347 L13.7969805,8.95139347 C14.0345149,8.95151287 14.2288557,8.75732199 14.2288557,8.52003065 L14.2288557,8.52003065 Z M11.0174222,10.3973484 L11.0175417,10.3971693 C11.0974489,10.3166654 11.1423214,10.2078961 11.1424025,10.0945109 L11.1424025,6.89427156 C11.1424025,6.65692053 10.9481214,6.46278935 10.7105273,6.46278935 L10.6745028,6.46278935 C10.4369685,6.46278935 10.2426873,6.65692053 10.2426873,6.89427156 L10.2426873,8.77284293 L8.68186672,6.68097799 C8.60730864,6.55090055 8.46691484,6.46278935 8.30692565,6.46278935 L8.2709012,6.46278935 C8.03336683,6.46278935 7.83902596,6.65692053 7.83902596,6.89427156 L7.83902596,10.0945109 C7.83902596,10.331862 8.03330709,10.5260528 8.2709012,10.5260528 L8.30692565,10.5260528 C8.54446002,10.5260528 8.73874114,10.331862 8.73874114,10.0945109 L8.73874114,8.18077865 L10.3107933,10.3263102 C10.3204715,10.3413536 10.3310458,10.3558 10.3424566,10.3695301 L10.3425163,10.3696495 C10.3857098,10.4285097 10.4447947,10.4688641 10.5106304,10.4935186 C10.5612319,10.5144121 10.6165531,10.5259931 10.6744431,10.5259931 L10.7104675,10.5259931 C10.7808404,10.5260324 10.8501366,10.5087269 10.9122164,10.4756098 C10.9554099,10.4550744 10.9917928,10.4285694 11.0174222,10.3973484 L11.0174222,10.3973484 Z M6.76331073,10.5259931 L6.79933518,10.5259931 C7.03686954,10.5259931 7.23115067,10.3318023 7.23115067,10.0944512 L7.23115067,6.89421187 C7.23115067,6.65686083 7.03686954,6.46272965 6.79933518,6.46272965 L6.76331073,6.46272965 C6.52577636,6.46272965 6.33143549,6.65686083 6.33143549,6.89421187 L6.33143549,10.0944512 C6.33143549,10.3318023 6.52577636,10.5259931 6.76331073,10.5259931 Z" id="Shape" fill="#FFFFFF"></path>
                                </g>
                                <g id="kik" transform="translate(160.398010, 25.850680)">
                                    <ellipse id="Oval-3" fill="#82BC23" cx="8.62354892" cy="8.61689327" rx="8.62354892" ry="8.61689327"></ellipse>
                                    <g id="Group-6" transform="translate(3.449420, 5.600981)">
                                        <path d="M10.1576937,2.63638466 C10.5004027,2.63638466 10.7781272,2.91270227 10.7781272,3.25360811 C10.7781272,3.59447548 10.5004027,3.87079309 10.1576937,3.87079309 C9.8149846,3.87079309 9.53729863,3.59447548 9.53729863,3.25360811 C9.53726013,2.9127792 9.8149461,2.63638466 10.1576937,2.63638466 Z" id="Shape" fill="#3DB4E7"></path>
                                        <path d="M8.27193171,5.10238721 L7.34830313,3.86867733 L7.06522743,4.13103096 L7.06518894,4.86104339 L7.05796325,4.86076162 C7.04177403,5.15325017 6.80258014,5.38544289 6.50977849,5.38544289 C6.20637586,5.38544289 5.96064321,5.13632235 5.96064321,4.82911472 C5.96064321,4.82539313 5.96067927,4.82168007 5.96075105,4.81797589 L5.94847785,4.8174973 L5.94855484,0.582755876 L5.94855484,0.582755876 L5.96120002,0.582889986 C5.96098339,0.576409828 5.9608742,0.569901856 5.9608742,0.563367866 C5.9608742,0.252659621 6.20772329,0.000846302018 6.51216536,0.000846302018 C6.81660744,0.000846302018 7.06345653,0.252659621 7.06345653,0.563367866 C7.06345653,0.573838271 7.06317623,0.584241866 7.06262286,0.594571262 L7.06934672,0.594642572 L7.07489043,2.65750374 L8.11248815,1.64363392 L8.11277574,1.64390188 C8.21538971,1.53023912 8.36368268,1.45883234 8.52857439,1.45883234 L8.52857439,1.45883234 C8.83829069,1.45883234 9.08933606,1.71053025 9.08933606,2.02108462 C9.08933606,2.17162819 9.03032833,2.30837382 8.93423498,2.40931551 L8.93996387,2.41465353 L8.21000355,3.1329716 L9.23027719,4.50732761 L9.22262198,4.51287841 C9.27950039,4.60143086 9.31254738,4.70715001 9.31254738,4.82069017 C9.31254738,5.13255246 9.06308043,5.38551983 8.75521204,5.38551983 C8.54858776,5.38551983 8.36821754,5.27160904 8.27193171,5.10238721 Z M2.3245317,5.10218396 L1.40101872,3.86867733 L1.11794302,4.13103096 L1.11790452,4.86104339 L1.11067884,4.86076161 C1.09448957,5.15325017 0.855294399,5.38544289 0.562455579,5.38544289 C0.259168443,5.38544289 0.0133588012,5.13632235 0.0133588012,4.82911472 C0.0133588012,4.82539263 0.0133948666,4.82167908 0.0134666628,4.81797441 L0.00123193556,4.8174973 L0.00130893153,0.582755876 L0.00130893153,0.582755876 L0.0138771292,0.58288917 C0.0136604909,0.576409281 0.0135512912,0.569901581 0.0135512912,0.563367866 C0.0135512912,0.252659621 0.260438877,0.000846302018 0.564880952,0.000846302018 C0.869361526,0.000846302018 1.11617212,0.252659621 1.11617212,0.563367866 C1.11617212,0.573838132 1.11589178,0.584241591 1.11533834,0.594570852 L1.12210081,0.594642572 L1.12768301,2.65750374 L2.16520374,1.64363392 L2.16548831,1.64389905 C2.26810525,1.53023793 2.41641763,1.45883234 2.58132848,1.45883234 L2.58132848,1.45883234 C2.89104478,1.45883234 3.14209014,1.71053025 3.14209014,2.02108462 C3.14209014,2.17161887 3.08308972,2.30835689 2.98700692,2.40929676 L2.99275646,2.41465353 L2.26271914,3.1329716 L3.28299277,4.50732761 L3.27535603,4.51286525 C3.3322461,4.60142039 3.36530147,4.70714439 3.36530147,4.82069017 C3.36530147,5.13255246 3.11579602,5.38551983 2.80792762,5.38551983 C2.60122064,5.38551983 2.42078872,5.27151782 2.3245317,5.10218396 Z M5.15609953,2.03902599 L5.16277245,2.03904931 L5.16288794,4.82976868 L5.16288794,4.82976868 L5.15629656,4.82976845 C5.15240014,5.13757329 4.90529358,5.38590451 4.60104833,5.38590451 C4.29679056,5.38590451 4.04956251,5.13755286 4.04568415,4.82973046 L4.03851575,4.82973021 L4.03970919,2.03512554 L4.04578245,2.03514676 C4.04568624,2.03083022 4.04563788,2.0265017 4.04563788,2.02216174 C4.04563788,1.710838 4.29433487,1.45852459 4.60104833,1.45852459 C4.90776179,1.45852459 5.15634328,1.710838 5.15634328,2.02216174 C5.15634328,2.02780293 5.15626165,2.03342473 5.15609953,2.03902599 Z" id="Combined-Shape" fill="#FFFFFF"></path>
                                    </g>
                                </g>
                                <g id="twillio" transform="translate(27.164179, 54.286428)">
                                    <ellipse id="Oval-34-Copy-5" fill="#EE3248" cx="9.48590381" cy="9.4785826" rx="9.48590381" ry="9.4785826"></ellipse>
                                    <g id="Group-4" transform="translate(4.311774, 4.308447)" fill="#FFFFFF">
                                        <path d="M5.38971808,0 C2.4145937,0 0,2.41273012 0,5.3855583 C0,8.35838648 2.4145937,10.7711166 5.38971808,10.7711166 C8.36484245,10.7711166 10.7794362,8.35838648 10.7794362,5.3855583 C10.7794362,2.41273012 8.36484245,0 5.38971808,0 Z M5.38971808,9.3493292 C3.19610282,9.3493292 1.42288557,7.57209496 1.42288557,5.3855583 C1.42288557,3.19363607 3.20149254,1.42178739 5.38971808,1.42178739 C7.58333333,1.42178739 9.35655058,3.19902163 9.35655058,5.3855583 C9.35655058,7.57748052 7.58333333,9.3493292 5.38971808,9.3493292 Z" id="XMLID_181_"></path>
                                        <ellipse id="XMLID_180_" cx="6.73175788" cy="4.04455428" rx="1.12106136" ry="1.12019613"></ellipse>
                                        <ellipse id="XMLID_179_" cx="6.73175788" cy="6.72656231" rx="1.12106136" ry="1.12019613"></ellipse>
                                        <ellipse id="XMLID_178_" cx="4.04767828" cy="6.72656231" rx="1.12106136" ry="1.12019613"></ellipse>
                                        <ellipse id="XMLID_177_" cx="4.04767828" cy="4.04455428" rx="1.12106136" ry="1.12019613"></ellipse>
                                    </g>
                                </g>
                                <g id="Skype" transform="translate(68.557214, 0.000000)">
                                    <ellipse id="Oval-3" fill="#00AFF0" cx="8.62354892" cy="8.61689327" rx="8.62354892" ry="8.61689327"></ellipse>
                                    <path d="M5.05808539,4.38016277 C5.9121847,3.76432576 7.12002311,3.71143179 8.02957795,4.23827258 C9.05508528,4.06069995 10.1394091,4.22945692 11.0544255,4.72775176 C12.0757316,5.27600202 12.8777363,6.21759876 13.251221,7.31493887 C13.5079129,8.05755351 13.5675696,8.86481634 13.4339722,9.63849569 C13.7625042,10.2157117 13.8763561,10.9104699 13.7431788,11.5615695 C13.6024394,12.2798362 13.1592152,12.9309358 12.5462634,13.330999 C11.6976257,13.9010785 10.531799,13.9334026 9.64787137,13.4220942 C8.66353558,13.5912709 7.62542472,13.444763 6.73477517,12.9905465 C5.69960514,12.4708422 4.87407384,11.5514945 4.47034072,10.4663284 C4.17793879,9.69096987 4.10441819,8.83794956 4.24347715,8.02187106 C3.9078031,7.43458001 3.79899262,6.72470926 3.94225276,6.06395435 C4.08425254,5.38892646 4.49302707,4.77560822 5.05808539,4.38016277 Z M5.52021487,4.92547448 C4.94885479,5.2965719 4.58419262,5.9644633 4.59049438,6.64620789 C4.58209203,7.09328792 4.75055923,7.52063767 4.98876597,7.89173509 C4.83458277,8.59950687 4.84592595,9.34757882 5.07404987,10.0381391 C5.42988957,11.1615064 6.31759829,12.0984854 7.41956704,12.5178591 C8.16611621,12.8112947 8.99710904,12.8490761 9.77768774,12.6782202 C10.0053915,12.8104551 10.2368764,12.9443692 10.4952488,13.0069184 C11.1430703,13.1836515 11.8698739,13.0148945 12.3731749,12.5715926 C12.8886594,12.1316491 13.1625761,11.4272356 13.0709905,10.7551463 C13.0336,10.3983219 12.8743754,10.070883 12.6895236,9.76821187 C12.8462275,9.04910567 12.830263,8.28760033 12.5924764,7.58822442 C12.2177314,6.44092888 11.2859103,5.49513421 10.1444505,5.10094815 C9.42730957,4.84445434 8.64084922,4.82094591 7.89976158,4.98256639 C7.70986837,4.87383989 7.52081541,4.75839668 7.31075655,4.69164952 C6.71965093,4.49056845 6.03906024,4.5774657 5.52021487,4.92547448 Z M8.22619304,6.00812182 C8.89796126,5.9065318 9.6058596,6.0093812 10.2053676,6.33430134 C10.467521,6.47954988 10.7212721,6.67601322 10.8431063,6.95811443 C10.9225085,7.14366314 10.931331,7.38588397 10.7847099,7.54120755 C10.6259054,7.70366762 10.3666928,7.75362304 10.1536931,7.68519671 C9.907084,7.58192751 9.78440962,7.32375453 9.575191,7.17011013 C9.31219732,6.9534967 8.95803809,6.89514541 8.62656522,6.90102252 C8.3841573,6.91151735 8.12452455,6.9665103 7.947655,7.14450273 C7.78422921,7.31871701 7.72373226,7.61719017 7.88295687,7.81323371 C8.03335901,7.98660841 8.2656841,8.05125661 8.47868378,8.11044748 C8.88493761,8.2120375 9.29581273,8.29389723 9.70374702,8.39002993 C10.1280659,8.48700222 10.556586,8.67255093 10.8368045,9.01804095 C11.3199399,9.64353321 11.2111294,10.6355052 10.610361,11.1476532 C10.1297464,11.572904 9.46133911,11.6904461 8.83872466,11.6942243 C8.17409844,11.684569 7.4636794,11.5485559 6.95281626,11.0943394 C6.69654446,10.863453 6.48102407,10.5150244 6.55832573,10.1586198 C6.64276939,9.80431411 7.12968582,9.6699802 7.40570315,9.88785301 C7.61660224,10.0570298 7.73087426,10.3143632 7.93421123,10.4910962 C8.17745939,10.7140065 8.51649438,10.802583 8.84082525,10.7946069 C9.15885435,10.8030028 9.49662899,10.7056107 9.71467008,10.4638096 C9.86297164,10.30051 9.94153365,10.0519923 9.84532669,9.84293511 C9.76634456,9.64647177 9.56342771,9.53942443 9.36933333,9.48653046 C9.01139304,9.39291651 8.65093204,9.30769844 8.29299176,9.21324491 C7.89976158,9.11711221 7.49098705,9.02937537 7.15279229,8.79513062 C6.88895837,8.62007675 6.68898234,8.3467912 6.62470433,8.03530445 C6.51673408,7.54666486 6.59403574,6.98288224 6.94945532,6.60968585 C7.27462643,6.24824368 7.75692156,6.0803263 8.22619304,6.00812182 Z" id="Combined-Shape" fill="#FFFFFF"></path>
                                </g>
                                <g id="discord_color" transform="translate(92.703151, 17.233787)">
                                    <rect id="500x500" x="0" y="0" width="17.2470978" height="17.2337865"></rect>
                                    <ellipse id="Oval" fill="#7289DA" cx="8.62354892" cy="8.61689327" rx="8.62354892" ry="8.61689327"></ellipse>
                                    <path d="M10.1887821,11.2005471 C11.1559781,10.9275804 11.5251369,10.3226273 11.5251369,10.3226273 C11.2224267,10.5218192 10.9344829,10.6619913 10.6760717,10.7578984 C10.3069129,10.9128255 9.95252052,11.0161101 9.60551126,11.07513 C8.89672644,11.2079246 8.24700699,11.1710372 7.69326881,11.0677525 C7.27242785,10.9866002 6.91065223,10.8685606 6.60794203,10.750521 C6.438129,10.6841237 6.25354961,10.6029714 6.06897022,10.4996867 C6.0468207,10.4849318 6.02467117,10.4775543 6.00252164,10.4627994 C5.98775529,10.4554219 5.98037212,10.4480444 5.97298894,10.4406669 C5.84009178,10.3668921 5.76626003,10.3152498 5.76626003,10.3152498 C5.76626003,10.3152498 6.12065245,10.905448 7.05831574,11.1857921 C6.83682047,11.4661363 6.56364298,11.7981227 6.56364298,11.7981227 C4.9319612,11.7464804 4.31177446,10.6767462 4.31177446,10.6767462 C4.31177446,8.30119855 5.37495173,6.37567704 5.37495173,6.37567704 C6.438129,5.5789095 7.44962405,5.60104194 7.44962405,5.60104194 L7.5234558,5.68957166 C6.19448421,6.07320047 5.58168064,6.65602116 5.58168064,6.65602116 C5.58168064,6.65602116 5.7441105,6.56749144 6.01728799,6.44207433 C6.80728777,6.0953329 7.43485767,5.9994257 7.69326881,5.97729327 C7.7375679,5.96991579 7.77448375,5.96253832 7.81878279,5.96253832 C8.26915651,5.9035185 8.7785956,5.88876354 9.31018427,5.94778336 C10.0115859,6.02893561 10.7646698,6.23550497 11.5325201,6.65602116 C11.5325201,6.65602116 10.9492492,6.10271038 9.69410938,5.71908157 L9.79747384,5.60104194 C9.79747384,5.60104194 10.8089689,5.5789095 11.8721462,6.37567704 C11.8721462,6.37567704 12.9353234,8.30119855 12.9353234,10.6767462 C12.9353234,10.6767462 12.3077535,11.7464804 10.6760717,11.7981227 C10.6760717,11.7981227 10.4102774,11.4808912 10.1887821,11.2005471 Z M6.48981123,9.17174089 C6.48981123,9.62176697 6.8294373,9.99064084 7.24289514,9.99064084 C7.6637361,9.99064084 7.99597904,9.62176697 7.99597904,9.17174089 C8.00336218,8.72171476 7.6637361,8.35284089 7.24289514,8.35284089 C6.82205412,8.35284089 6.48981123,8.72171476 6.48981123,9.17174089 Z M9.18467029,9.17174089 C9.18467029,9.62176697 9.52429632,9.99064084 9.93775414,9.99064084 C10.3585952,9.99064084 10.690838,9.62176697 10.690838,9.17174089 C10.690838,8.72171476 10.3585952,8.35284089 9.93775414,8.35284089 C9.51691318,8.35284089 9.18467029,8.72171476 9.18467029,9.17174089 Z" id="Discord-color" fill="#FFFFFF"></path>
                                </g>
                                <g id="twitter_color" transform="translate(116.849088, 0.000000)">
                                    <ellipse id="Oval-3" fill="#1DA1F2" cx="8.62354892" cy="8.61689327" rx="8.62354892" ry="8.61689327"></ellipse>
                                    <path d="M12.0577756,7.1430794 C12.0577756,7.06656025 12.0562158,6.99038635 12.0527809,6.91455684 C12.3982434,6.66500934 12.6985185,6.3535917 12.9353234,5.99908903 C12.6183186,6.13989048 12.2771679,6.23467744 11.9192869,6.2774178 C12.2845841,6.05854616 12.5650245,5.71231627 12.6973112,5.29956283 C12.3554703,5.50206181 11.9768928,5.64924005 11.5738242,5.72868837 C11.2509554,5.38504326 10.7913157,5.17013596 10.282349,5.17013596 C9.30529126,5.17013596 8.51295164,5.96186406 8.51295164,6.93782273 C8.51295164,7.07655584 8.52847402,7.2114981 8.55882949,7.34092468 C7.08832775,7.26699117 5.78443382,6.56350121 4.91189492,5.49378959 C4.75994629,5.75505635 4.67233047,6.05854616 4.67233047,6.38237212 C4.67233047,6.99572882 4.98467824,7.53721978 5.45966785,7.85397989 C5.16939665,7.84501833 4.89671719,7.76539709 4.65835974,7.63286814 C4.6580993,7.64028561 4.6580993,7.64751715 4.6580993,7.65544469 C4.6580993,8.51162742 5.26796292,9.22649197 6.07754964,9.38849098 C5.92887823,9.42899094 5.77244535,9.45070551 5.6110111,9.45070551 C5.49717912,9.45070551 5.38627915,9.43951049 5.27848394,9.41882301 C5.50373302,10.121279 6.15688685,10.6324379 6.93128949,10.6467425 C6.32573764,11.1210205 5.56289113,11.4034854 4.7338152,11.4034854 C4.59117999,11.4034854 4.45027008,11.3953786 4.31177446,11.3790129 C5.09480065,11.8805215 6.02460077,12.1731537 7.02390696,12.1731537 C10.2782027,12.1731537 12.0577756,9.47914183 12.0577756,7.1430794 Z" id="Twitter-color" fill="#FFFFFF"></path>
                                    <rect id="500x500" x="0" y="0" width="17.2470978" height="17.2337865"></rect>
                                </g>
                                <g id="github_color" transform="translate(141.857380, 93.493292)">
                                    <ellipse id="Oval-3" fill="#000000" cx="8.62354892" cy="8.61689327" rx="8.62354892" ry="8.61689327"></ellipse>
                                    <ellipse id="Oval-3" fill="#FFFFFF" cx="8.4079602" cy="8.83231561" rx="6.25207297" ry="6.24724762"></ellipse>
                                    <path d="M2.15588723,8.7806488 C2.15588723,11.7082353 4.00889543,14.1916194 6.57896659,15.0678208 C6.90255812,15.1288376 7.02048044,14.9242279 7.02048044,14.7484995 C7.02048044,14.5914829 7.01492181,14.1745347 7.01174545,13.6217224 C5.21273535,14.0219927 4.83316049,12.7333177 4.83316049,12.7333177 C4.53895028,11.9677601 4.1149064,11.763964 4.1149064,11.763964 C3.5276771,11.3531175 4.15937542,11.3612531 4.15937542,11.3612531 C4.80854371,11.4080326 5.15000226,12.0442345 5.15000226,12.0442345 C5.72690839,13.0567068 6.66393418,12.7642329 7.03239178,12.5946062 C7.09115442,12.1666749 7.25831029,11.8746078 7.44293613,11.7090489 C6.006825,11.5418628 4.49686352,10.9731861 4.49686352,8.43407333 C4.49686352,7.71082075 4.74898699,7.1189577 5.1627077,6.6560435 C5.09600417,6.48845067 4.87405611,5.81441832 5.22623487,4.90242041 C5.22623487,4.90242041 5.76899515,4.72425132 7.00459864,5.58174088 C7.52035987,5.43448698 8.07384036,5.36126681 8.62374744,5.35841936 C9.17325748,5.36126681 9.72634093,5.43448698 10.2428962,5.58174088 C11.4777057,4.72425132 12.0196718,4.90242041 12.0196718,4.90242041 C12.3726447,5.81441832 12.1506966,6.48845067 12.0843901,6.6560435 C12.4989049,7.1189577 12.7490432,7.71082075 12.7490432,8.43407333 C12.7490432,10.9796946 11.2366994,11.5398289 9.79622082,11.7037607 C10.028095,11.9083704 10.2349553,12.3127085 10.2349553,12.9310122 C10.2349553,13.8165695 10.2270145,14.5312797 10.2270145,14.7484995 C10.2270145,14.925855 10.3437456,15.1320919 10.6717047,15.067414 C13.2397906,14.1891788 15.0912106,11.7074218 15.0912106,8.7806488 C15.0912106,5.12086058 12.1951657,2.15422332 8.62295335,2.15422332 C5.05193219,2.15422332 2.15588723,5.12086058 2.15588723,8.7806488 Z" fill="#000000"></path>
                                    <rect id="500x500" x="0" y="0" width="17.2470978" height="17.2337865"></rect>
                                </g>
                                <g id="irc_color" transform="translate(151.774461, 163.720972)">
                                    <g id="Oval-3">
                                        <use fill-opacity="0.5" fill="url(#radialGradient-20)" fill-rule="evenodd" xlink:href="#path-22"></use>
                                        <use fill="#FFFFFF" fill-rule="evenodd" xlink:href="#path-22"></use>
                                        <ellipse stroke="url(#linearGradient-21)" stroke-width="0.5" cx="8.62354892" cy="8.61689327" rx="8.37354892" ry="8.36689327"></ellipse>
                                    </g>
                                    <g id="Group-3" transform="translate(2.155887, 2.154223)">
                                        <path d="M9.92565484,4.8960632 C9.67142027,5.23562253 9.39231379,5.55837591 9.08885108,5.86074008 C9.28715483,6.62979246 9.27622348,7.41833843 9.08522912,8.15744709 C9.45859105,7.88643209 9.81133359,7.59401363 10.1414557,7.28175703 C10.291627,6.5056514 10.2307715,5.68115413 9.92565484,4.8960632 L9.92565484,4.8960632 Z M2.06201762,8.40053885 C2.43722471,9.15246752 3.00698093,9.75029472 3.68224096,10.1593643 C4.1267239,10.1236469 4.57152183,10.0596082 5.01491996,9.96602728 C4.34605967,9.60870301 3.76268678,9.08588346 3.33308248,8.42437618 C2.90706053,8.44734384 2.48228934,8.43884709 2.06201762,8.40053885 L2.06201762,8.40053885 Z M8.84926545,6.0915822 C8.18840167,6.70204419 7.42440643,7.2205494 6.56780908,7.61722845 L7.26161968,9.22185791 C7.77220904,8.98786697 8.25609224,8.71962488 8.71098538,8.41843255 C8.71112406,8.41802926 8.71131271,8.4176516 8.7114514,8.4172486 C8.96412537,7.68196803 9.0210873,6.87878378 8.84926545,6.0915822 L8.84926545,6.0915822 Z M3.66229576,8.40082288 C4.12219199,9.05492835 4.74699435,9.55323824 5.45371641,9.86338649 C5.97387409,9.7302512 6.48995209,9.55527168 6.9989108,9.3381446 L6.3051002,7.73351514 C5.44118398,8.10055034 4.55063395,8.31929462 3.66229576,8.40082288 L3.66229576,8.40082288 Z M10.0115841,7.78670219 C9.67611125,8.07939576 9.32090363,8.35364399 8.94592338,8.606642 C8.70776828,9.25200183 8.3264529,9.84510074 7.82414662,10.3351031 C8.90221605,9.80038566 9.66551987,8.86390682 10.0115841,7.78670219 L10.0115841,7.78670219 Z M4.13974476,10.4008492 C5.14645228,10.8564518 6.32349686,10.9244693 7.42571951,10.5084882 C6.73811799,10.5413258 6.05850437,10.4206948 5.43500103,10.1639416 C5.00479546,10.2700939 4.57233213,10.3485416 4.13974476,10.4008492 L4.13974476,10.4008492 Z M8.5224762,8.87824608 C8.15686527,9.10108491 7.77458654,9.30463177 7.376243,9.48695635 L7.64619724,10.1112999 C8.01117301,9.75096764 8.30607153,9.33260368 8.5224762,8.87824608 L8.5224762,8.87824608 Z M5.91339012,10.0352399 C6.38407128,10.1812765 6.88102386,10.2476226 7.38313144,10.2267607 L7.1131772,9.60241687 C6.71702539,9.77150173 6.3168008,9.91599108 5.91339012,10.0352399 L5.91339012,10.0352399 Z" id="path2862" fill="#339966" transform="translate(6.141092, 7.840441) rotate(-337.000000) translate(-6.141092, -7.840441) "></path>
                                        <path d="M6.46689335,0.00180040233 C4.26227031,0.00180040233 2.31458381,1.11152859 1.14855328,2.80412664 L2.39760497,3.52788838 C3.31102355,2.26461923 4.79344088,1.44212227 6.46689335,1.44212227 C8.14034581,1.44212233 9.62276314,2.26461923 10.5361817,3.52788838 L11.7852334,2.80412664 C10.6192029,1.11152859 8.67151639,0.00180040233 6.46689335,0.00180040233 L6.46689335,0.00180040233 Z" id="path4005" fill="#990000"></path>
                                        <path d="M0.468394384,4.07431048 C0.170644753,4.81919656 0.00628115075,5.63201974 0.00628115075,6.48324881 C0.00628115075,9.81764636 2.52014125,12.5665508 5.74904755,12.9250884 L5.74904755,11.4721637 C3.3151302,11.1222101 1.44197275,9.02131746 1.44197275,6.48324881 C1.44197278,5.89427873 1.54291057,5.32902844 1.72821376,4.80347343 L0.468394384,4.07431048 L0.468394384,4.07431048 Z" id="path4003" fill="#006699"></path>
                                        <path d="M12.4653923,4.07431048 L11.2055729,4.80347343 C11.3908762,5.32902844 11.4918139,5.89427873 11.4918139,6.48324881 C11.4918139,9.02131717 9.61865678,11.1222101 7.18473915,11.4721637 L7.18473915,12.9250884 C10.4136452,12.5665508 12.9275053,9.81764636 12.9275055,6.48324881 C12.9275055,5.63201974 12.7631418,4.81919656 12.4653923,4.07431048 L12.4653923,4.07431048 Z" id="path3918" fill="#006699"></path>
                                        <path d="M4.66354412,3.56156153 L4.66354412,6.40809608 L3.92571922,6.40809608 L3.92571922,3.56156153 L4.66354412,3.56156153 Z M5.10329478,3.56156153 L5.62555564,3.56156153 C5.97373129,3.56156153 6.20944734,3.57504097 6.33271086,3.60200025 C6.45597439,3.62895953 6.5564531,3.69782189 6.63415002,3.80858938 C6.71184693,3.91935688 6.75069481,4.09605476 6.75069481,4.33868831 C6.75069481,4.5602233 6.72323841,4.70908321 6.66832481,4.78527249 C6.6134112,4.86146177 6.50533816,4.90717465 6.34410246,4.92241251 C6.49014929,4.95874894 6.58829129,5.00739213 6.6385314,5.06834356 C6.68877151,5.12929498 6.72002506,5.18526396 6.732293,5.23625217 C6.74456093,5.28724039 6.75069481,5.42760238 6.75069481,5.65734237 L6.75069481,6.40809608 L6.0654465,6.40809608 L6.0654465,5.46218157 C6.0654465,5.309803 6.05347084,5.21544692 6.02951916,5.1791105 C6.00556748,5.14277407 5.94276828,5.12460613 5.84111968,5.12460613 L5.84111968,6.40809608 L5.10329478,6.40809608 L5.10329478,3.56156153 Z M5.84111968,4.04858442 L5.84111968,4.68153837 C5.92407428,4.68153837 5.98220005,4.67011015 6.01549873,4.64725336 C6.04879741,4.62439658 6.0654465,4.55025966 6.0654465,4.42484038 L6.0654465,4.2683601 C6.0654465,4.1781051 6.04938159,4.11891278 6.01725128,4.09078135 C5.98512098,4.06264993 5.92641103,4.04858442 5.84111968,4.04858442 L5.84111968,4.04858442 Z M8.90268996,4.80285454 L8.16486505,4.80285454 L8.16486505,4.30704062 C8.16486505,4.16286705 8.15697864,4.07290644 8.14120558,4.03715609 C8.12543253,4.00140573 8.0906739,3.98353082 8.03692867,3.98353082 C7.97617319,3.98353082 7.9376174,4.00521514 7.92126015,4.04858442 C7.90490291,4.09195371 7.89672441,4.18572372 7.89672441,4.32989729 L7.89672441,5.65206775 C7.89672441,5.7903806 7.90490291,5.88063424 7.92126015,5.92283138 C7.9376174,5.96502853 7.97442065,5.98612678 8.03167101,5.98612678 C8.08658462,5.98612678 8.1225116,5.96502853 8.13945303,5.92283138 C8.15639446,5.88063424 8.16486505,5.78158966 8.16486505,5.62569467 L8.16486505,5.26877897 L8.90268996,5.26877897 L8.90268996,5.37954591 C8.90268996,5.67375376 8.88195162,5.88239204 8.84047432,6.00546704 C8.79899702,6.12854203 8.70728098,6.23637755 8.56532346,6.32897683 C8.42336594,6.42157611 8.24840446,6.46787506 8.04043377,6.46787506 C7.82428446,6.46787506 7.64611,6.42860887 7.50590504,6.3500753 C7.36570008,6.27154173 7.27281569,6.16282712 7.22724908,6.0239282 C7.18168247,5.88502927 7.1588995,5.67609795 7.1588995,5.39712797 L7.1588995,4.56549681 C7.1588995,4.36037182 7.16590965,4.20653039 7.17993014,4.10396789 C7.19395064,4.0014054 7.2357194,3.90265385 7.3052377,3.80771028 C7.37475599,3.71276672 7.47114545,3.63804373 7.59440898,3.58353909 C7.7176725,3.52903445 7.85933581,3.50178254 8.01940313,3.50178254 C8.23672082,3.50178254 8.41606364,3.54397905 8.55743697,3.62837333 C8.69881031,3.71276761 8.7916947,3.81796585 8.83609294,3.9439712 C8.88049117,4.06997655 8.90268996,4.26601449 8.90268996,4.53209091 L8.90268996,4.80285454 Z" id="IRC" fill="#990000"></path>
                                    </g>
                                </g>
                                <g id="slack_color" transform="translate(116.849088, 46.100379)">
                                    <g id="Group-5" stroke="url(#linearGradient-23)" stroke-width="0.5" fill="#FFFFFF">
                                        <ellipse id="Oval-3" transform="translate(10.132561, 10.124741) rotate(10.000000) translate(-10.132561, -10.124741) " cx="10.1325609" cy="10.1247406" rx="8.63080142" ry="8.62414017"></ellipse>
                                    </g>
                                    <g id="Group" transform="translate(4.742952, 4.739291)">
                                        <path d="M6.97473261,0.678336664 C6.81124511,0.175557254 6.27087998,-0.0995748155 5.76773914,0.0638479516 C5.26464234,0.22718284 4.98928896,0.767140099 5.15274122,1.26983031 L7.62960855,8.88438191 C7.79963779,9.35402653 8.30735429,9.61797889 8.79478363,9.47781416 C9.30316203,9.33155279 9.61306752,8.79205408 9.45084102,8.29308979 C9.44467156,8.2741662 6.97473261,0.678336664 6.97473261,0.678336664" id="path22-7" fill="#E7A213"></path>
                                        <path d="M3.13693329,1.92431559 C2.97344579,1.42162472 2.43308093,1.14649265 1.92994009,1.30982753 C1.42684337,1.47316242 1.15148993,2.0131362 1.31494218,2.51588918 L3.79180897,10.1304302 C3.96183848,10.6001065 4.46955517,10.8640232 4.95694946,10.7237885 C5.46532741,10.5776341 5.77528619,10.0380984 5.61303304,9.53913941 C5.60687019,9.52017221 3.13693329,1.92431559 3.13693329,1.92431559" id="path24-8" fill="#4DC088"></path>
                                        <path d="M10.0922537,6.98469275 C10.5954208,6.82133143 10.8706774,6.28138343 10.7072164,5.77863111 C10.5437553,5.2759224 10.0033817,5.00078174 9.50030254,5.16410803 L1.87987022,7.63906306 C1.40982716,7.80896174 1.14570624,8.31628638 1.28597943,8.8033045 C1.43231852,9.31128129 1.97223365,9.62097468 2.47161859,9.4588463 C2.4905568,9.45268821 10.0922537,6.98469275 10.0922537,6.98469275" id="path26-3" fill="#E10D63"></path>
                                        <path d="M3.46810498,9.13536592 C3.96414842,8.97430397 4.6034627,8.76676096 5.28943486,8.54403878 C5.12829255,8.04841386 4.92051894,7.40948702 4.69758069,6.72393838 L2.87615381,7.31546837 L3.46810498,9.13536592" id="path28-4" fill="#3F2543"></path>
                                        <path d="M7.3059396,7.88931629 C7.9945393,7.6657662 8.63450584,7.45797674 9.12726948,7.29798916 C8.96610033,6.80229354 8.75828262,6.16323455 8.5352826,5.47754518 L6.71384692,6.06908375 L7.3059396,7.88931629" id="path30-9" fill="#D01E25"></path>
                                        <path d="M8.8453124,3.14985584 C9.34839155,2.98649453 9.62373613,2.44654652 9.46027508,1.94378495 C9.29681403,1.4410062 8.75642252,1.16596201 8.25328188,1.3292969 L0.632859092,3.80422615 C0.162854814,3.97412417 -0.101300554,4.48148449 0.0390081408,4.96846693 C0.185344369,5.47644372 0.725262208,5.78617213 1.22460661,5.62404441 C1.24358886,5.61788632 8.8453124,3.14985584 8.8453124,3.14985584" id="path32-2" fill="#7CD3DC"></path>
                                        <path d="M2.22079317,5.30062548 C2.71682782,5.1395371 3.35631845,4.93195907 4.0424669,4.70916619 C3.81870863,4.02106313 3.61075866,3.38155484 3.45061273,2.88906579 L1.6288332,3.48073652 L2.22079317,5.30062548" id="path34-0" fill="#36987B"></path>
                                        <path d="M6.05859222,4.05458444 C6.74732404,3.83099933 7.38742282,3.62317419 7.88026601,3.46315225 C7.6564725,2.77488136 7.44845244,2.1352059 7.28830605,1.642664 L5.46649121,2.23437833 L6.05859222,4.05458444" id="path36-4" fill="#5A872D"></path>
                                    </g>
                                    <rect id="500x500" x="1.50175945" y="1.50060039" width="17.2616028" height="17.2482803"></rect>
                                </g>
                                <g id="messenger_color" transform="translate(65.107794, 46.962068)">
                                    <ellipse id="Oval-3" fill="#0084FF" cx="8.62354892" cy="8.61689327" rx="8.62354892" ry="8.61689327"></ellipse>
                                    <polygon id="Messenger-color" fill="#FFFFFF" points="9.30435542 10.7688158 7.61265443 8.95484505 4.31177446 10.7688158 7.94274243 6.89351462 9.67570441 8.7074854 12.9353234 6.89351462"></polygon>
                                    <rect id="500x500" x="0" y="0" width="17.2470978" height="17.2337865"></rect>
                                </g>
                                <g id="email_color" transform="translate(159.104478, 56.871496)">
                                    <path d="M0,8.61689327 C0,3.85791454 3.85984719,0 8.62354892,0 C13.3862035,0 17.2470978,3.85686816 17.2470978,8.61689327 C17.2470978,13.375872 13.3872507,17.2337865 8.62354892,17.2337865 C3.86089437,17.2337865 0,13.3769184 0,8.61689327 L0,8.61689327 Z" id="Shape" fill="#F65756"></path>
                                    <path d="M12.8947112,6.09992791 L8.55850129,8.91874676 L4.33724762,6.14890461 C4.42240383,5.83304229 4.71125145,5.60098063 5.0544771,5.60098063 L12.1926208,5.60098063 C12.5175871,5.60098063 12.7940621,5.80953383 12.8947112,6.09992791 Z M12.9353234,6.53188119 L12.9353234,10.7124402 C12.9353234,11.1222536 12.6028041,11.4536899 12.1926208,11.4536899 L5.0544771,11.4536899 C4.64454383,11.4536899 4.31177446,11.1218211 4.31177446,10.7124402 L4.31177446,6.6163574 L8.55850145,9.45296236 L12.9353234,6.53188119 Z" id="Email-color" fill="#FFFFFF"></path>
                                    <rect id="500x500" x="0" y="0" width="17.2470978" height="17.2337865"></rect>
                                </g>
                                <g id="telegram_color" transform="translate(0.000000, 71.951059)">
                                    <ellipse id="Oval" fill="url(#linearGradient-24)" cx="8.62354892" cy="8.61689327" rx="8.62354892" ry="8.61689327"></ellipse>
                                    <g id="Group-2" transform="translate(4.311774, 5.170136)">
                                        <path d="M3.25883808,6.77304645 C3.00300087,6.77304645 3.04647398,6.67652068 2.95823791,6.43311185 L2.20590171,3.95900347 L7.99705178,0.52606186" id="Shape" fill="#C8DAEA"></path>
                                        <path d="M3.25883808,6.77304645 C3.45626366,6.77304645 3.54349285,6.68282684 3.65368923,6.57577326 L4.7066256,5.55271445 L3.39321909,4.76132014" id="Shape" fill="#A9C9DD"></path>
                                        <path d="M3.39308747,4.76151741 L6.57558767,7.11097544 C6.93875201,7.31120116 7.20086078,7.2075341 7.29132117,6.7740657 L8.58676196,0.674181153 C8.71939246,0.142845522 8.38406512,-0.0981434158 8.03664219,0.0594647176 L0.429834952,2.99035262 C-0.0894008792,3.19845611 -0.0863736871,3.48791507 0.335189134,3.61689229 L2.28726737,4.22569711 L6.8065361,1.37674334 C7.01988075,1.24747022 7.21568744,1.31697022 7.05497644,1.45949287" id="Shape" fill="url(#linearGradient-25)"></path>
                                    </g>
                                    <rect id="500x500" x="0" y="0" width="17.2470978" height="17.2337865"></rect>
                                </g>
                                <g id="flowdock_color" opacity="0.75" transform="translate(28.026534, 160.274215)">
                                    <ellipse id="Oval-3" stroke="url(#linearGradient-26)" stroke-width="0.5" fill="#FFFFFF" transform="translate(12.494802, 12.485158) rotate(-45.000000) translate(-12.494802, -12.485158) " cx="12.4948017" cy="12.4851582" rx="8.6142047" ry="8.60755626"></ellipse>
                                    <path d="M17.6751573,10.3385837 L14.2689023,10.3385837 L14.2689023,12.2313979 L17.3377892,12.2313979 L17.3377892,14.0932669 L14.2491476,14.0932669 C14.2491476,14.0932669 14.2491477,16.104075 14.2491476,17.4288995 C12.8566332,18.161931 6.92927086,17.4288993 7.35149171,11.7084214 C7.35149171,11.7084214 7.61629495,7.45380579 12.6389128,6.89351462 C12.6389128,6.89351462 16.2334848,6.89351462 17.6751573,10.3385837 Z M12.1923878,10.5429264 C9.47906983,11.1058595 9.35215952,13.4654026 9.35215952,13.4654026 C9.35215952,13.4654026 8.77791071,16.3807658 12.1923879,17.1866544 C12.1923879,16.7060274 12.1923878,10.5429264 12.1923878,10.5429264 Z M12.2242171,10.0508172 C12.2242171,10.0508172 12.224217,9.39643292 12.2242171,8.99724725 C7.37813478,9.88569694 8.69228693,14.7728505 8.95149717,14.7728502 C8.95149717,14.7728502 7.98055198,10.981689 12.2242171,10.0508172 Z M15.7787227,8.51585928 C12.9990003,6.39581678 10.3572729,7.97924384 10.3572729,7.97924384 C5.9686981,10.8133171 8.4576859,14.8191855 8.4576859,14.8191855 C8.4576859,14.8191855 6.62419804,9.80074898 12.2273387,8.51585928 C13.18479,8.51585929 15.7787227,8.51585928 15.7787227,8.51585928 Z" id="Flowdock-color" fill="url(#linearGradient-27)"></path>
                                </g>
                                <g id="viber-icon" transform="translate(5.605307, 122.790729)">
                                    <ellipse id="Oval-2" fill="#7B519D" cx="8.62354892" cy="8.61689327" rx="8.62354892" ry="8.61689327"></ellipse>
                                    <path d="M12.1159099,10.5439896 C11.8529349,10.3324449 11.5719151,10.1425717 11.2952933,9.94860553 C10.7436019,9.56142711 10.2389951,9.53133262 9.8273286,10.1542476 C9.59615289,10.5039641 9.27253277,10.5192806 8.93414482,10.3658569 C8.00129274,9.94319843 7.28094639,9.29197695 6.85899628,8.34454986 C6.67233963,7.92538123 6.67479734,7.5495771 7.11151527,7.25311299 C7.34273409,7.09632867 7.57567763,6.91080702 7.55705077,6.568221 C7.53273237,6.12152141 6.4473082,4.62870979 6.01867485,4.47114995 C5.84131006,4.40594163 5.66467828,4.41018545 5.48423058,4.47078373 C4.4791563,4.80852275 4.06285462,5.63447323 4.46154271,6.61244719 C5.65094529,9.53016934 7.74409548,11.5613858 10.6254378,12.8011409 C10.7897163,12.8717348 10.9722121,12.8999551 11.0646134,12.9252888 C11.7206066,12.9318807 12.4890723,12.3003488 12.7109992,11.6735993 C12.9246692,11.0706324 12.4730972,10.8312982 12.1159099,10.5439896 Z M8.8852062,4.7702853 L8.8852062,4.7702853 C8.71068719,4.74346523 8.44473703,4.78133646 8.45786638,4.55083464 C8.47757118,4.20893798 8.79345167,4.33608019 8.94610999,4.31412867 C10.9695173,4.38237444 12.7117969,6.23332556 12.6870905,8.22994522 C12.6846328,8.42595793 12.755044,8.71626096 12.4628352,8.71068153 C12.1832382,8.70525289 12.2562366,8.41059832 12.2313576,8.21477949 C11.9631222,6.09480905 10.9916582,5.09395724 8.8852062,4.7702853 Z M9.29723923,5.35155918 L9.29723923,5.35155918 C10.5971094,5.50752489 11.6587757,6.63435564 11.6482766,7.87238735 C11.628464,8.01889603 11.7140527,8.26971217 11.4770992,8.30577385 C11.1573596,8.3542654 11.2195139,8.06165735 11.1882319,7.87365834 C10.9740231,6.58414071 10.5210282,6.11098726 9.22003693,5.82044726 C9.02848642,5.77759978 8.73037043,5.80754347 8.77980491,5.51269502 C8.82714818,5.2317844 9.09462901,5.32717338 9.29723923,5.35155918 Z M9.4166969,6.36391453 L9.4166969,6.36391453 C9.99339653,6.3496105 10.6692023,7.04016809 10.6596517,7.63762018 C10.6655804,7.80093179 10.6480961,7.97290338 10.4547347,7.99595356 C10.3152057,8.01241182 10.2235374,7.89545908 10.2091361,7.75112616 C10.155821,7.21933478 9.87495213,6.90488291 9.34126243,6.8192741 C9.18140345,6.79361731 9.02434711,6.74215294 9.09900546,6.52629983 C9.14872021,6.38188075 9.28145814,6.36725358 9.4166969,6.36391453 Z" id="Combined-Shape" fill="#FFFFFF"></path>
                                </g>
                                <g id="CALLR_ICON_white_rgb" transform="translate(182.388060, 70.227680)">
                                    <ellipse id="Oval-2-Copy" fill="#659BD5" cx="8.62354892" cy="8.61689327" rx="8.62354892" ry="8.61689327"></ellipse>
                                    <path d="M8.62354892,4.30844664 C9.7373559,4.30844664 10.7524251,4.7303097 11.5171318,5.42298163 C11.1049302,6.0131363 10.8034964,6.68675636 10.6437001,7.41367631 C10.2333144,6.72690139 9.48222669,6.26716137 8.62354892,6.26716137 C7.32497755,6.26716137 6.27222908,7.31864372 6.27222908,8.61643966 C6.27222908,9.3009465 6.5652645,9.9171841 7.03262309,10.3467586 L7.03262309,11.3701168 L7.91899281,10.8586645 C8.14120944,10.9282946 8.37817999,10.9659447 8.62354892,10.9659447 C9.48222669,10.9659447 10.2333144,10.5062047 10.6437001,9.81965662 C10.8034964,10.5465766 11.1047032,11.2201966 11.5173588,11.8108049 C10.7524251,12.5034768 9.7373559,12.9253399 8.62354892,12.9253399 C6.24226729,12.9253399 4.31177446,10.996337 4.31177446,8.61689327 C4.31177446,6.23767632 6.24226729,4.30844664 8.62354892,4.30844664" id="Fill-1" fill="#FFFFFF"></path>
                                </g>
                                <g id="amazon-echo" transform="translate(181.956882, 122.790729)">
                                    <ellipse id="Oval-2-Copy" fill="#2CC0E1" cx="8.62354892" cy="8.61689327" rx="8.62354892" ry="8.61689327"></ellipse>
                                    <g id="Group-7" transform="translate(4.311774, 5.600981)" fill="#FFFFFF">
                                        <path d="M1.92656419,4.57777881 C1.92656419,3.84376015 1.57618865,3.38196199 0.972931205,3.38196199 C0.384210082,3.38196199 0,3.87306079 0,4.57302059 C0,5.22940507 0.350375535,5.78837118 1.1140338,5.78837118 C1.37669014,5.78837118 1.65889532,5.71549522 1.87293016,5.57925975 L1.73658947,5.28274727 C1.57593803,5.37039876 1.38621394,5.43826606 1.1674172,5.43826606 C0.710024241,5.43826606 0.447367904,5.11746159 0.437593479,4.68471364 L1.92631356,4.68471364 L1.92631356,4.57777881 L1.92656419,4.57777881 Z M0.437593479,4.36365873 C0.442606004,4.01355362 0.641853894,3.72204979 0.972680579,3.72204979 C1.31804359,3.72204979 1.47368251,4.04285426 1.48345693,4.36365873 L0.437593479,4.36365873 Z M2.10651385,4.61183768 C2.10651385,3.92640299 2.57368123,3.38196199 3.27418168,3.38196199 C3.52205106,3.38196199 3.72631148,3.45007972 3.8629028,3.52796433 L3.8629028,3.90236143 C3.70701326,3.80018483 3.53207611,3.73707576 3.30826685,3.73707576 C2.83633757,3.73707576 2.54911986,4.10170598 2.54911986,4.58779613 C2.54911986,5.1274789 2.83633757,5.43350784 3.27894358,5.43350784 C3.51252727,5.43350784 3.67794061,5.35587366 3.82881763,5.27298039 L3.95513327,5.57450153 C3.7847074,5.6909528 3.51728916,5.78837118 3.22530955,5.78837118 C2.50049836,5.78812074 2.10651385,5.26296307 2.10651385,4.61183768 Z M4.24034597,2.29783821 L4.66816503,2.29783821 L4.66816503,3.71729156 C4.89698682,3.52295568 5.15463063,3.38196199 5.45137214,3.38196199 C5.8115221,3.38196199 6.15187258,3.59583163 6.15187258,4.19862349 L6.15187258,5.73978721 L5.7238029,5.73978721 L5.7238029,4.33936675 C5.7238029,4.01355362 5.64109623,3.76086688 5.32480587,3.76086688 C5.09122218,3.76086688 4.86741292,3.89710234 4.6679144,4.07190447 L4.6679144,5.73953677 L4.24009535,5.73953677 L4.24009535,2.29783821 L4.24034597,2.29783821 Z M7.53382587,3.38171155 L7.53382587,3.38171155 C8.18570482,3.38171155 8.62354892,3.90686922 8.62354892,4.58729526 C8.62354892,5.26296307 8.19071734,5.78812074 7.52906397,5.78812074 C6.8721725,5.78812074 6.4390903,5.26296307 6.4390903,4.58729526 C6.4390903,3.90661879 6.8721725,3.38171155 7.53382587,3.38171155 Z M7.52906397,5.43325741 C7.9375848,5.43325741 8.18094292,5.0786445 8.18094292,4.58754569 C8.18094292,4.09143823 7.9375848,3.73682532 7.53382587,3.73682532 C7.12505441,3.73682532 6.88194693,4.09168866 6.88194693,4.58754569 C6.88194693,5.0786445 7.12505441,5.43325741 7.52906397,5.43325741 Z" id="Combined-Shape"></path>
                                        <path d="M5.00378569,1.35390061 C4.66978057,1.60027565 4.18542558,1.7311756 3.76852714,1.7311756 C3.18404463,1.7311756 2.65782005,1.51522766 2.25953032,1.15601876 C2.22833959,1.1278103 2.25614692,1.08924817 2.29368152,1.11111765 C2.72337344,1.36097913 3.25467312,1.51142427 3.8035242,1.51142427 C4.17368941,1.51142427 4.58064911,1.43461696 4.9551493,1.27593114 C5.01171553,1.25194867 5.05908315,1.31301418 5.00378569,1.35390061 Z M5.14282232,1.19532044 C5.10000115,1.14069956 4.86041407,1.16943627 4.75277963,1.18232553 C4.7202144,1.18634022 4.71513929,1.15781481 4.74453259,1.13710747 C4.93569474,1.00293238 5.24897653,1.04170581 5.28545382,1.08660692 C5.32214257,1.13193064 5.27583227,1.44581582 5.09661775,1.59562707 C5.06902189,1.6186587 5.04290626,1.60640333 5.05506536,1.57597623 C5.09524325,1.47529208 5.18564349,1.25004697 5.14282232,1.19532044 L5.14282232,1.19532044 Z M4.76028655,0.189112921 L4.76028655,0.0588468699 C4.76049801,0.038879081 4.77530039,0.0256728714 4.79338044,0.0257785211 L5.37828588,0.0256728714 C5.39700032,0.0256728714 5.41201416,0.0393016797 5.41201416,0.0585299208 L5.41201416,0.170412928 C5.4118027,0.189112921 5.39594301,0.213623646 5.36792422,0.252502727 L5.0650041,0.684715554 C5.17739645,0.682074312 5.29644987,0.69897826 5.39858629,0.756240385 C5.42163571,0.769235295 5.42787385,0.788357887 5.42967128,0.807163529 L5.42967128,0.946304153 C5.42967128,0.965426745 5.40863076,0.987718827 5.38653292,0.976097362 C5.20657828,0.881857851 4.96762559,0.871609832 4.76863932,0.977259509 C4.74833892,0.988035776 4.7269812,0.966166293 4.7269812,0.947043701 L4.7269812,0.814770306 C4.7269812,0.793640371 4.72740412,0.757402532 4.74876184,0.72517938 L5.09978969,0.22207562 L4.79412056,0.22207562 C4.77540612,0.22207562 4.76049801,0.208658111 4.76028655,0.189112921 L4.76028655,0.189112921 Z M2.62684078,1.00356628 L2.44900077,1.00356628 C2.43208377,1.00240413 2.41855016,0.98972617 2.41717566,0.97356177 L2.41738712,0.0610655131 C2.41738712,0.042788119 2.43271815,0.0282084637 2.45174978,0.0282084637 L2.61753643,0.028102814 C2.63487636,0.0289480114 2.64872716,0.0420485713 2.64978447,0.0587412202 L2.64978447,0.177808406 L2.65316787,0.177808406 C2.69630624,0.0626502582 2.77771932,0.00887457284 2.88736266,0.00887457284 C2.9986977,0.00887457284 3.06848034,0.0626502582 3.11817404,0.177808406 C3.16141814,0.0626502582 3.2593253,0.00887457284 3.364105,0.00887457284 C3.43885701,0.00887457284 3.52016437,0.0396186287 3.5699638,0.108713517 C3.62653004,0.185626482 3.6148996,0.296875591 3.6148996,0.394812841 L3.61468813,0.970709229 C3.61468813,0.988880973 3.5993571,1.00346063 3.58032547,1.00346063 L3.40259118,1.00346063 C3.38482833,1.00229848 3.37076607,0.988247075 3.37076607,0.970709229 L3.37066034,0.48683371 C3.37066034,0.448482877 3.37404374,0.352447321 3.36569097,0.315998183 C3.35236883,0.254510071 3.31261387,0.237289174 3.26112273,0.237289174 C3.21798437,0.237289174 3.17315431,0.266025886 3.1548628,0.312089145 C3.13657128,0.358258053 3.13826299,0.434959719 3.13826299,0.48683371 L3.13826299,0.970603579 C3.13826299,0.988775323 3.12293195,1.00335498 3.10390032,1.00335498 L2.92627177,1.00335498 C2.90840318,1.00219283 2.89434092,0.988141425 2.89434092,0.970603579 L2.89412946,0.48672806 C2.89412946,0.384987422 2.91062354,0.23528183 2.78448612,0.23528183 C2.65655127,0.23528183 2.66162638,0.381184033 2.66162638,0.48672806 L2.66152064,0.970497929 C2.66120345,0.988986623 2.64587241,1.00356628 2.62684078,1.00356628 L2.62684078,1.00356628 Z M5.91550651,0.00887457284 C6.17962325,0.00887457284 6.32246621,0.235493129 6.32246621,0.523494148 C6.32246621,0.801881045 6.16471514,1.02268887 5.91550651,1.02268887 C5.65646488,1.02268887 5.51520789,0.796070313 5.51520789,0.513880027 C5.51510216,0.229682397 5.65805085,0.00887457284 5.91550651,0.00887457284 L5.91550651,0.00887457284 Z M5.91719822,0.195134953 C5.7859857,0.195134953 5.77763293,0.373682906 5.77763293,0.485037665 C5.77763293,0.596392424 5.77594123,0.834526796 5.91550651,0.834526796 C6.0533801,0.834526796 6.06004117,0.642455683 6.06004117,0.525395842 C6.06004117,0.448588527 6.05665777,0.356462009 6.03339689,0.283458082 C6.01341368,0.220068276 5.97355299,0.195134953 5.91719822,0.195134953 L5.91719822,0.195134953 Z M6.66492983,1.00356628 L6.48761847,1.00356628 C6.46985562,1.00240413 6.45568762,0.988352725 6.45568762,0.970814878 L6.45547616,0.0580016725 C6.4569564,0.0412033739 6.47165305,0.0282084637 6.48962736,0.0282084637 L6.65467389,0.028102814 C6.67021639,0.0289480114 6.68300988,0.0395129791 6.68628755,0.0536700357 L6.68628755,0.193233259 L6.68967095,0.193233259 C6.73947038,0.0683553408 6.80925302,0.00887457284 6.93211277,0.00887457284 C7.01183416,0.00887457284 7.08986384,0.0377169346 7.13976901,0.116425944 C7.18629077,0.18932422 7.18629077,0.312194794 7.18629077,0.400623574 L7.18629077,0.974723916 C7.18428187,0.990888317 7.16979669,1.00346063 7.15213956,1.00346063 L6.9737709,1.00346063 C6.95727682,1.00240413 6.94395467,0.990254419 6.94215724,0.974723916 L6.94215724,0.479332583 C6.94215724,0.379493638 6.95378768,0.233591435 6.83082221,0.233591435 C6.78757811,0.233591435 6.74771742,0.262328147 6.72783994,0.306489712 C6.70299309,0.362167091 6.69960969,0.417844471 6.69960969,0.479332583 L6.69960969,0.970709229 C6.69918676,0.988986623 6.68385573,1.00356628 6.66492983,1.00356628 L6.66492983,1.00356628 Z M4.47343759,1.00124199 C4.46170142,1.01180695 4.44467868,1.0125465 4.43135654,1.00536232 C4.37225275,0.956340873 4.36167963,0.933626192 4.32932585,0.886929035 C4.23173588,0.986345381 4.16258763,1.01613859 4.03602728,1.01613859 C3.88620606,1.01613859 3.76969019,0.923800772 3.76969019,0.739019488 C3.76969019,0.59470203 3.84803707,0.49655348 3.95947784,0.448482877 C4.05601049,0.406117357 4.19092361,0.398404931 4.29411734,0.386889116 L4.29411734,0.363751837 C4.29411734,0.321386316 4.29750074,0.271414019 4.27244242,0.234859231 C4.25076751,0.202107831 4.20921512,0.188584673 4.17252637,0.188584673 C4.10475261,0.188584673 4.04438005,0.223343416 4.02947194,0.295396496 C4.02640574,0.311455247 4.01466956,0.327302698 3.99859841,0.328147896 L3.82615069,0.309447903 C3.81155978,0.306067113 3.79538289,0.294551298 3.79961214,0.272259217 C3.83926137,0.0631785066 4.02820317,0 4.19747895,0 C4.28407287,0 4.39720534,0.0230316295 4.46550774,0.088534429 C4.55210166,0.169356432 4.54374889,0.277119102 4.54374889,0.394495892 L4.54374889,0.671509345 C4.54374889,0.754866939 4.57842875,0.791421727 4.61088825,0.83621719 C4.62230723,0.852381591 4.62484478,0.871609832 4.6103596,0.883442596 C4.57398804,0.913869703 4.50949195,0.969864031 4.47396624,1.00145328 L4.47343759,1.00124199 L4.47343759,1.00124199 Z M4.29411734,0.567761362 L4.29411734,0.52930488 C4.16544237,0.52930488 4.02947194,0.556773796 4.02947194,0.708169782 C4.02947194,0.785188397 4.06943837,0.837168037 4.13763504,0.837168037 C4.18754021,0.837168037 4.232476,0.806423982 4.26081198,0.756346035 C4.29580904,0.694752273 4.29411734,0.63706755 4.29411734,0.567761362 Z M2.14100555,1.00124199 C2.12926938,1.01180695 2.11224664,1.0125465 2.0989245,1.00536232 C2.03982072,0.956340873 2.02924759,0.933626192 1.99689382,0.886929035 C1.89919812,0.986345381 1.83004986,1.01613859 1.70359525,1.01613859 C1.55366829,1.01613859 1.43725815,0.923800772 1.43725815,0.739019488 C1.43725815,0.59470203 1.5154993,0.49655348 1.6270458,0.448482877 C1.72357846,0.406117357 1.85838584,0.398404931 1.96157957,0.386889116 L1.96157957,0.363751837 C1.96157957,0.321386316 1.96496297,0.271414019 1.93990466,0.234859231 C1.91822975,0.202107831 1.87667735,0.188584673 1.84009433,0.188584673 C1.77221485,0.188584673 1.71184229,0.223343416 1.69703991,0.295396496 C1.6939737,0.311455247 1.68223753,0.327302698 1.66616637,0.328147896 L1.49371866,0.309447903 C1.47912774,0.306067113 1.46295085,0.294551298 1.46707437,0.272259217 C1.5067236,0.0631785066 1.6956654,0.000105649677 1.86504691,0.000105649677 C1.95164083,0.000105649677 2.0647733,0.0231372792 2.13307571,0.0886400787 C2.21966963,0.169462081 2.21131685,0.277224751 2.21131685,0.394601542 L2.21131685,0.671614994 C2.21131685,0.754972589 2.24599671,0.791527377 2.27845622,0.83632284 C2.2898752,0.852487241 2.29241275,0.871715482 2.27792756,0.883548246 C2.241556,0.913975352 2.17695419,0.969969681 2.14142848,1.00155893 L2.14100555,1.00124199 L2.14100555,1.00124199 Z M1.96157957,0.567761362 L1.96157957,0.52930488 C1.8329046,0.52930488 1.69693418,0.556773796 1.69693418,0.708169782 C1.69693418,0.785188397 1.7369006,0.837168037 1.80509728,0.837168037 C1.85510817,0.837168037 1.90004397,0.806423982 1.92827422,0.756346035 C1.96327127,0.694752273 1.96157957,0.63706755 1.96157957,0.567761362 Z" id="Combined-Shape"></path>
                                    </g>
                                </g>
                                <g id="google" transform="translate(37.512438, 89.615690)">
                                    <g id="Group-5" stroke="url(#linearGradient-28)" stroke-width="0.5" fill="#FFFFFF">
                                        <ellipse id="Oval-3" transform="translate(12.288448, 12.278964) rotate(10.000000) translate(-12.288448, -12.278964) " cx="12.2884481" cy="12.2789639" rx="8.63080142" ry="8.62414017"></ellipse>
                                    </g>
                                    <g id="Group" transform="translate(8.192371, 8.186049)">
                                        <ellipse id="Oval" fill="#2196F3" cx="2.63200145" cy="2.63732473" rx="2.63200145" ry="2.62997007"></ellipse>
                                        <path d="M8.62354892,2.89389609 C8.62354892,3.18915932 8.38397595,3.42844641 8.08858572,3.42844641 C7.79319548,3.42844641 7.55362251,3.18915932 7.55362251,2.89389609 C7.55362251,2.59864969 7.79319548,2.35934577 8.08858572,2.35934577 C8.38397595,2.35934577 8.62354892,2.59864969 8.62354892,2.89389609 Z" id="Shape" fill="#00C853"></path>
                                        <path d="M7.66062526,4.19819416 C7.66062526,4.78860282 7.18164775,5.26726114 6.59071569,5.26726114 C5.99973311,5.26726114 5.52078928,4.78860282 5.52078928,4.19819416 C5.52078928,3.60775184 5.99974995,3.12909352 6.59071569,3.12909352 C7.18166459,3.12909352 7.66062526,3.60776867 7.66062526,4.19819416 Z" id="Shape" fill="#F44336"></path>
                                        <path d="M7.87459707,6.9564415 C7.87459707,7.66497902 7.29985101,8.23929832 6.59069885,8.23929832 C5.88154669,8.23929832 5.30678379,7.66497902 5.30678379,6.9564415 C5.30678379,6.24793765 5.88152985,5.67355103 6.59069885,5.67355103 C7.29985101,5.67355103 7.87459707,6.24793765 7.87459707,6.9564415 Z" id="Shape" fill="#FFEB3B"></path>
                                    </g>
                                </g>
                            </g>
                        </g>
                    </g>
                </g>
            </g>
        </g>
    </g>
</svg>