<?xml version="1.0" encoding="UTF-8" standalone="no"?>
<svg width="498px" height="496px" viewBox="0 0 498 496" version="1.1" xmlns="http://www.w3.org/2000/svg" xmlns:xlink="http://www.w3.org/1999/xlink">
    <!-- Generator: Sketch 43.1 (39012) - http://www.bohemiancoding.com/sketch -->
    <title>irc_color</title>
    <desc>Created with Sketch.</desc>
    <defs></defs>
    <g id="Page-1" stroke="none" stroke-width="1" fill="none" fill-rule="evenodd">
        <g id="Logos-Couleur" transform="translate(-11254.000000, -497.000000)">
            <g id="irc_color" transform="translate(11254.000000, 497.000000)">
                <g id="Group-3">
                    <path d="M382.13619,187.891711 C372.348199,200.922667 361.602642,213.308676 349.919374,224.912228 C357.554038,254.425443 357.133182,284.686746 349.779929,313.050838 C364.154306,302.650345 377.73484,291.428471 390.444489,279.445287 C396.226062,249.661396 393.883134,218.020423 382.13619,187.891711 L382.13619,187.891711 Z M79.3873624,322.379747 C93.8327778,351.235822 115.768305,374.178086 141.765713,389.876572 C158.878238,388.505878 176.00289,386.048323 193.07365,382.457056 C167.322631,368.744351 144.862864,348.680586 128.323165,323.29453 C111.921385,324.175939 95.5677594,323.849867 79.3873624,322.379747 L79.3873624,322.379747 Z M340.695364,233.771043 C315.25221,257.198181 285.83851,277.096378 252.859643,292.319365 L279.571245,353.898753 C299.228857,344.919098 317.858286,334.625018 335.371602,323.066437 C335.376942,323.05096 335.384205,323.036468 335.389544,323.021002 C345.117453,294.803816 347.310479,263.980753 340.695364,233.771043 L340.695364,233.771043 Z M140.997825,322.390647 C158.70376,347.492651 182.758555,366.615831 209.967246,378.518105 C229.993237,373.408894 249.862161,366.693866 269.456993,358.36138 L242.745391,296.781992 C209.484749,310.867364 175.19871,319.261912 140.997825,322.390647 L140.997825,322.390647 Z M385.444455,298.823103 C372.5288,310.055534 358.853362,320.580106 344.41668,330.289178 C335.247744,355.055558 320.567161,377.816369 301.228446,396.62074 C342.733954,376.10038 372.121034,340.161993 385.444455,298.823103 L385.444455,298.823103 Z M159.379539,399.143817 C198.137624,416.628059 243.45366,419.238303 285.889063,403.27458 C259.41651,404.534759 233.25149,399.905414 209.246707,390.052232 C192.683858,394.125941 176.034087,397.136457 159.379539,399.143817 L159.379539,399.143817 Z M328.114028,340.712278 C314.038063,349.263958 299.320391,357.075289 283.984225,364.072192 L294.377422,388.032048 C308.428933,374.20391 319.782481,358.148741 328.114028,340.712278 L328.114028,340.712278 Z M227.664614,385.113166 C245.785766,390.717476 264.918364,393.26358 284.249429,392.462982 L273.856232,368.503114 C258.604448,374.991928 243.195863,380.536862 227.664614,385.113166 L227.664614,385.113166 Z" id="path2862" fill="#339966" transform="translate(236.431115, 300.885396) rotate(-337.000000) translate(-236.431115, -300.885396) "></path>
                    <path d="M248.974403,0.0690923832 C164.096754,0.0690923832 89.1111219,42.6561096 44.2191253,107.611387 L92.307424,135.386525 C127.473899,86.9072075 184.546739,55.342999 248.974403,55.342999 C313.402066,55.3430012 370.474907,86.9072075 405.641382,135.386525 L453.729681,107.611387 C408.837684,42.6561096 333.852052,0.0690923832 248.974403,0.0690923832 L248.974403,0.0690923832 Z" id="path4005" fill="#990000"></path>
                    <path d="M18.033112,156.356063 C6.56979684,184.941871 0.241823341,216.134837 0.241823341,248.801672 C0.241823341,376.762778 97.0250519,482.254952 221.33745,496.014219 L221.33745,440.256666 C127.632005,426.82682 55.5157299,346.202797 55.5157299,248.801672 C55.515731,226.199309 59.4018205,204.507219 66.535965,184.338478 L18.033112,156.356063 L18.033112,156.356063 Z" id="path4003" fill="#006699"></path>
                    <path d="M479.915694,156.356063 L431.412841,184.338478 C438.546989,204.507219 442.433076,226.199309 442.433076,248.801672 C442.433076,346.202785 370.316812,426.82682 276.611356,440.256666 L276.611356,496.014219 C400.923743,482.254952 497.706972,376.762778 497.706983,248.801672 C497.706983,216.134837 491.379005,184.941871 479.915694,156.356063 L479.915694,156.356063 Z" id="path3918" fill="#006699"></path>
                    <path d="M179.545734,136.678768 L179.545734,245.917605 L151.139588,245.917605 L151.139588,136.678768 L179.545734,136.678768 Z M196.476067,136.678768 L216.58303,136.678768 C229.987739,136.678768 239.062771,137.196056 243.808398,138.230648 C248.554025,139.26524 252.42244,141.907907 255.413759,146.158729 C258.405078,150.409551 259.900716,157.190523 259.900716,166.501848 C259.900716,175.003492 258.843649,180.716152 256.729483,183.639998 C254.615318,186.563844 250.454522,188.318125 244.246973,188.902894 C249.869753,190.297344 253.648205,192.164079 255.582442,194.503156 C257.516678,196.842232 258.719935,198.990102 259.192249,200.94683 C259.664562,202.903558 259.900716,208.290101 259.900716,217.106621 L259.900716,245.917605 L233.518761,245.917605 L233.518761,209.617114 C233.518761,203.769422 233.0577,200.148406 232.135564,198.753956 C231.213428,197.359507 228.795668,196.662293 224.882213,196.662293 L224.882213,245.917605 L196.476067,245.917605 L196.476067,136.678768 Z M224.882213,155.368798 L224.882213,179.659089 C228.075952,179.659089 230.313785,179.220519 231.595779,178.343365 C232.877773,177.466211 233.518761,174.621127 233.518761,169.808026 L233.518761,163.802927 C233.518761,160.339294 232.900264,158.067724 231.663252,156.988151 C230.426241,155.908577 228.165917,155.368798 224.882213,155.368798 L224.882213,155.368798 Z M342.752199,184.314728 L314.346053,184.314728 L314.346053,165.287333 C314.346053,159.754517 314.042428,156.302182 313.435167,154.930223 C312.827907,153.558265 311.489705,152.872296 309.420522,152.872296 C307.081445,152.872296 305.597054,153.704455 304.967302,155.368798 C304.337551,157.033141 304.02268,160.631667 304.02268,166.164483 L304.02268,216.904202 C304.02268,222.212107 304.337551,225.675688 304.967302,227.295048 C305.597054,228.914409 307.013973,229.724077 309.218103,229.724077 C311.332269,229.724077 312.715452,228.914409 313.367694,227.295048 C314.019937,225.675688 314.346053,221.874745 314.346053,215.892106 L314.346053,202.195081 L342.752199,202.195081 L342.752199,206.445882 C342.752199,217.736425 341.953776,225.743145 340.356907,230.466281 C338.760037,235.189417 335.228984,239.327721 329.763641,242.881318 C324.298298,246.434916 317.562308,248.211688 309.555468,248.211688 C301.233753,248.211688 294.374063,246.704805 288.976194,243.690995 C283.578324,240.677184 280.00229,236.505144 278.247982,231.174748 C276.493675,225.844352 275.616534,217.826387 275.616534,207.120612 L275.616534,175.205869 C275.616534,167.333976 275.886423,161.430145 276.42621,157.494198 C276.965997,153.558252 278.574088,149.768555 281.250532,146.124993 C283.926976,142.481431 287.637955,139.613856 292.383582,137.522181 C297.129209,135.430507 302.583224,134.384685 308.745792,134.384685 C317.112489,134.384685 324.017161,136.004022 329.460012,139.242744 C334.902864,142.481465 338.478899,146.518561 340.188224,151.354153 C341.897549,156.189744 342.752199,163.712912 342.752199,173.923881 L342.752199,184.314728 Z" id="IRC" fill="#990000"></path>
                </g>
                <rect id="500x500" x="0" y="1.99203187" width="498.007968" height="498.007968"></rect>
            </g>
        </g>
    </g>
</svg>