<?xml version="1.0" encoding="UTF-8" standalone="no"?>
<svg width="487px" height="494px" viewBox="0 0 487 494" version="1.1" xmlns="http://www.w3.org/2000/svg" xmlns:xlink="http://www.w3.org/1999/xlink">
    <!-- Generator: Sketch 43.1 (39012) - http://www.bohemiancoding.com/sketch -->
    <title>skype-color</title>
    <desc>Created with Sketch.</desc>
    <defs></defs>
    <g id="Page-1" stroke="none" stroke-width="1" fill="none" fill-rule="evenodd">
        <g id="Logos-Couleur" transform="translate(-18762.000000, -501.000000)">
            <g id="skype-color" transform="translate(18755.000000, 498.000000)">
                <path d="M326.42201,492.989583 C319.744927,490.770833 309.744927,488.552083 304.192843,486.322917 C297.526177,483 289.744927,483 265.307427,484.104167 C241.974093,485.208333 229.744927,484.104167 213.088677,481.875 C124.192843,466.333333 53.07826,401.885417 27.5261767,313 C23.07826,296.333333 21.9740934,287.447917 21.9740934,247.447917 C21.9740934,204.104167 20.85951,200.78125 15.3074267,183 C-16.9113233,95.21875 48.64076,3 141.974093,3 C160.85951,3 184.192843,8.5625 197.526177,15.21875 C206.42201,19.6666667 211.974093,20.7708333 246.411593,20.7708333 C277.526177,20.7708333 289.744927,21.8854167 305.29701,26.3333333 C375.307427,44.1145833 431.963677,89.6666667 461.963677,153 C480.849093,191.885417 487.526177,231.895833 483.067843,277.4375 C480.849093,301.895833 480.849093,304.114583 486.401177,318.552083 C504.182427,370.78125 487.51576,430.770833 444.182427,466.333333 C430.838677,477.447917 404.182427,489.666667 387.51576,494.114583 C370.838677,497.447917 344.182427,497.447917 327.505343,493 L326.42201,493 L326.42201,492.989583 Z M296.411593,407.4375 C333.088677,399.666667 365.29701,377.4375 377.526177,350.78125 C393.07826,318.552083 388.630343,280.770833 367.526177,257.4375 C349.744927,237.4375 323.07826,226.333333 259.744927,210.78125 C217.51576,200.78125 207.51576,196.333333 198.630343,186.333333 C190.849093,177.4375 189.73451,170.78125 196.411593,160.78125 C203.07826,149.666667 219.744927,143 241.963677,141.895833 C274.192843,139.677083 288.630343,147.447917 307.51576,177.447917 C321.963677,199.677083 336.401177,205.229167 355.307427,196.333333 C379.744927,184.114583 377.526177,144.114583 350.849093,120.78125 C325.29701,99.6770833 297.526177,90.78125 250.849093,90.78125 C201.963677,90.78125 168.619927,100.78125 146.401177,123 C128.619927,140.78125 125.29701,150.78125 125.29701,178.552083 C125.29701,207.4375 128.630343,216.322917 147.51576,233 C167.51576,251.885417 184.182427,258.5625 244.17201,273 C286.401177,283 297.51576,288.552083 307.505343,299.666667 C311.963677,305.229167 314.182427,309.666667 314.182427,319.666667 C314.182427,330.78125 313.067843,333 304.182427,341.895833 C290.849093,355.21875 270.849093,360.770833 245.29701,359.677083 C215.29701,357.447917 201.963677,348.5625 186.411593,317.447917 C175.29701,296.34375 166.411593,288.5625 151.963677,288.5625 C119.73451,288.5625 108.630343,315.229167 125.29701,349.666667 C139.744927,379.677083 168.630343,399.677083 205.29701,407.447917 C227.51576,411.895833 276.411593,411.895833 297.526177,407.447917 L296.411593,407.447917 L296.411593,407.4375 Z" id="Shape" fill="#00AFF0"></path>
                <rect id="500x500" x="0" y="0" width="500" height="500"></rect>
            </g>
        </g>
    </g>
</svg>