<?xml version="1.0" encoding="UTF-8" standalone="no"?>
<svg width="499px" height="499px" viewBox="0 0 499 499" version="1.1" xmlns="http://www.w3.org/2000/svg" xmlns:xlink="http://www.w3.org/1999/xlink">
    <!-- Generator: Sketch 43.1 (39012) - http://www.bohemiancoding.com/sketch -->
    <title>twilio-color</title>
    <desc>Created with Sketch.</desc>
    <defs></defs>
    <g id="Page-1" stroke="none" stroke-width="1" fill="none" fill-rule="evenodd">
        <g id="Logos-Couleur" transform="translate(-17255.000000, -498.000000)">
            <g id="twilio-color" transform="translate(17254.000000, 498.000000)">
                <path d="M250.22611,432.773126 C148.856584,432.773126 66.6791417,350.595684 66.6791417,249.228106 C66.6791417,147.85858 148.856584,65.683087 250.22611,65.683087 C351.593688,65.683087 433.76918,147.85858 433.76918,249.228106 C433.76918,350.595684 351.593688,432.773126 250.22611,432.773126 L250.22611,432.773126 Z M250.22611,0 C112.581478,-1.14696038e-14 0.998003992,111.585423 0.998003992,249.228106 C0.998003992,386.872739 112.581478,498.454263 250.22611,498.454263 C387.868794,498.454263 499.452267,386.872739 499.452267,249.228106 C499.452267,111.585423 387.868794,2.77001753e-14 250.224161,2.77001753e-14 L250.22611,0 Z M260.471245,187.156936 C260.471245,158.538392 283.672889,135.336748 312.293382,135.336748 C340.913875,135.336748 364.11357,158.538392 364.11357,187.156936 C364.11357,215.779379 340.913875,238.979073 312.293382,238.979073 C283.672889,238.979073 260.471245,215.779379 260.471245,187.156936 Z M260.471245,311.295378 C260.471245,282.676834 283.672889,259.473241 312.293382,259.473241 C340.913875,259.473241 364.11357,282.676834 364.11357,311.295378 C364.11357,339.915871 340.913875,363.117515 312.293382,363.117515 C283.672889,363.117515 260.471245,339.915871 260.471245,311.295378 Z M136.334752,311.295378 C136.334752,282.676834 159.538345,259.473241 188.156889,259.473241 C216.777383,259.473241 239.979026,282.676834 239.979026,311.295378 C239.979026,339.915871 216.777383,363.117515 188.156889,363.117515 C159.538345,363.117515 136.334752,339.915871 136.334752,311.295378 Z M136.334752,187.158885 C136.334752,158.538392 159.538345,135.338698 188.156889,135.338698 C216.777383,135.338698 239.979026,158.538392 239.979026,187.158885 C239.979026,215.781328 216.777383,238.981022 188.156889,238.981022 C159.538345,238.981022 136.334752,215.781328 136.334752,187.158885 Z" id="Combined-Shape" fill="#CF272D"></path>
                <rect id="500x500" x="0" y="0" width="499.001996" height="499.001996"></rect>
            </g>
        </g>
    </g>
</svg>