<?xml version="1.0" encoding="UTF-8" standalone="no"?>
<svg width="500px" height="407px" viewBox="0 0 500 407" version="1.1" xmlns="http://www.w3.org/2000/svg" xmlns:xlink="http://www.w3.org/1999/xlink">
    <!-- Generator: Sketch 43.1 (39012) - http://www.bohemiancoding.com/sketch -->
    <title>twitter_color</title>
    <desc>Created with Sketch.</desc>
    <defs></defs>
    <g id="Page-1" stroke="none" stroke-width="1" fill="none" fill-rule="evenodd">
        <g id="Logos-Couleur" transform="translate(-9754.000000, -544.000000)">
            <g id="twitter_color" transform="translate(9754.000000, 498.000000)">
                <path d="M157.246227,452.353979 C345.938101,452.353979 449.119104,296.03245 449.119104,160.481135 C449.119104,156.041068 449.028668,151.621036 448.829507,147.220986 C468.859687,132.740855 486.269869,114.670674 500,94.1004601 C481.619819,102.270542 461.839639,107.770608 441.089425,110.250641 C462.269638,97.550493 478.529786,77.4603125 486.199869,53.5100656 C466.379671,65.2601807 444.429457,73.8002796 421.059227,78.4103123 C402.339047,58.4701149 375.688783,46 346.178504,46 C289.527945,46 243.587485,91.9404605 243.587485,148.571003 C243.587485,156.621068 244.487484,164.451167 246.247518,171.961216 C160.986696,167.671184 85.3859224,126.850789 34.795446,64.7801808 C25.9853471,79.9403287 20.9053146,97.550493 20.9053146,116.340674 C20.9053146,151.931036 39.0154787,183.351348 66.5557416,201.731529 C49.725594,201.211529 33.9154294,196.591463 20.0952812,188.901397 C20.0801805,189.3318 20.0801805,189.751414 20.0801805,190.211414 C20.0801805,239.89189 55.4405425,281.372302 102.381003,290.772384 C93.7609207,293.122417 84.6908219,294.382416 75.3307399,294.382416 C68.7306741,294.382416 62.3006083,293.732819 56.0505592,292.532417 C69.110674,333.292811 106.981036,362.953091 151.881496,363.783124 C116.771134,391.30337 72.5407069,407.693551 24.4702468,407.693551 C16.2001477,407.693551 8.03008228,407.223149 0,406.273518 C45.4004607,435.373831 99.3109867,452.353979 157.251529,452.353979" id="Twitter-color" fill="#1DA1F2"></path>
                <rect id="500x500" x="0" y="0" width="500" height="500"></rect>
            </g>
        </g>
    </g>
</svg>