<?xml version="1.0" encoding="UTF-8"?>
<svg width="63px" height="34px" viewBox="0 0 63 34" version="1.1" xmlns="http://www.w3.org/2000/svg" xmlns:xlink="http://www.w3.org/1999/xlink">
    <!-- Generator: Sketch 45.2 (43514) - http://www.bohemiancoding.com/sketch -->
    <title>w3c</title>
    <desc>Created with Sketch.</desc>
    <defs></defs>
    <g id="pages_for_valérie" stroke="none" stroke-width="1" fill="none" fill-rule="evenodd">
        <g id="Artboard-4" transform="translate(-902.000000, -195.000000)" fill-rule="nonzero" fill="#AAB8C2">
            <g id="Group-35" transform="translate(308.000000, 72.000000)">
                <g id="Group-4" transform="translate(167.000000, 119.000000)">
                    <g id="Group" transform="translate(311.000000, 0.000000)">
                        <path d="M132.679826,4.1870694 L138.653012,24.4944919 L144.625493,4.1870694 L160.818446,4.1870694 L160.818446,6.20572788 L154.721252,16.7097979 C156.863214,17.3964236 158.483073,18.6467236 159.581181,20.4585841 C160.679993,22.2715015 161.229928,24.3986672 161.229928,26.8425475 C161.229928,29.8645462 160.425635,32.4042511 158.818811,34.4630713 C157.211987,36.5218916 155.132029,37.5520063 152.578585,37.5520063 C150.655751,37.5520063 148.981286,36.9418289 147.554133,35.7197127 C146.125924,34.4975964 145.069034,32.8435647 144.382761,30.7558561 L147.759522,29.3554779 C148.254146,30.6188128 148.906599,31.6144025 149.716881,32.34119 C150.526811,33.0690344 151.481182,33.4333089 152.579289,33.4333089 C153.731651,33.4333089 154.707512,32.7879019 155.503702,31.4977924 C156.300597,30.2069783 156.699044,28.6561695 156.699044,26.8421952 C156.699044,24.8372763 156.273117,23.2854106 155.422674,22.1873026 C154.432369,20.8971931 152.880855,20.2510815 150.766724,20.2510815 L149.120091,20.2510815 L149.120091,18.2743463 L154.886126,8.30541454 L147.926511,8.30541454 L147.530529,8.97970988 L139.064494,37.5467219 L138.65266,37.5467219 L132.473381,16.8700928 L126.295511,37.5467219 L125.884028,37.5467219 L116,4.18566021 L120.324791,4.18566021 L126.297272,24.4930827 L130.334589,10.8186972 L128.357854,4.18636481 L132.681588,4.18636481 L132.681588,4.18495562 L132.679826,4.1870694 Z M177.991487,4 L178.691852,8.2592637 L176.212038,13.0043442 C176.212038,13.0043442 175.260485,10.9909701 173.678674,9.87771345 C172.346642,8.93919579 171.478231,8.73486387 170.12048,9.01493952 C168.376965,9.37463417 166.399878,11.4591721 165.537104,14.0295267 C164.504876,17.1040176 164.494659,18.5928223 164.45802,19.9593801 C164.400244,22.1517207 164.745494,23.4457054 164.745494,23.4457054 C164.745494,23.4457054 163.239427,20.6604499 163.253871,16.5808574 C163.263383,13.6680706 163.721721,11.0272567 165.068902,8.42167235 C166.25438,6.13033645 168.016566,4.75497123 169.580762,4.59326717 C171.197803,4.42663096 172.474877,5.20555835 173.463069,6.04860368 C174.499173,6.93498147 175.547255,8.87049799 175.547255,8.87049799 L177.985146,4 L177.991487,4 Z M178.297985,28.0998934 L178.298337,28.1023595 L178.928948,31.3896374 C178.928948,31.3896374 178.538956,32.1477793 178.29869,32.5222704 C177.971758,33.0341571 177.379196,33.8881236 176.75387,34.5560776 C176.153909,35.198314 175.206936,35.9916855 174.758463,36.2784548 C174.308933,36.5652241 172.493901,37.7521107 169.852383,37.2842611 C167.210864,36.817116 165.472634,34.7480791 164.577449,33.5467484 C163.617441,32.2587526 162.941736,30.7787554 162.722256,30.2943478 C162.338957,29.4534163 161.72878,27.4724535 161.72878,27.4724535 C161.72878,27.4724535 162.824422,29.4484841 163.526196,30.4373802 C164.227618,31.4262762 165.468054,32.4856315 165.953166,32.8456785 C166.438278,33.2057254 167.823156,34.0684994 169.313017,34.2115317 C170.804992,34.3538595 171.59625,34.2294988 173.105136,33.5647155 C174.614021,32.8992275 175.836138,31.5700132 176.51924,30.8143373 C177.201991,30.0597184 178.297985,28.0998934 178.297985,28.0998934 Z" id="w3c"></path>
                    </g>
                </g>
            </g>
        </g>
    </g>
</svg>