<?xml version="1.0" encoding="UTF-8"?>
<svg width="200px" height="145px" viewBox="0 0 200 145" version="1.1" xmlns="http://www.w3.org/2000/svg" xmlns:xlink="http://www.w3.org/1999/xlink">
    <!-- Generator: Sketch 45.2 (43514) - http://www.bohemiancoding.com/sketch -->
    <title>waiting_hero_mobile</title>
    <desc>Created with Sketch.</desc>
    <defs>
        <rect id="path-1" x="0" y="0" width="200" height="200"></rect>
        <rect id="path-3" x="0" y="0" width="200" height="151.851285"></rect>
        <ellipse id="path-5" cx="95.624235" cy="95.4461638" rx="44.369645" ry="44.28702"></ellipse>
        <filter x="-7.9%" y="-7.9%" width="115.8%" height="115.8%" filterUnits="objectBoundingBox" id="filter-6">
            <feGaussianBlur stdDeviation="6.5" in="SourceAlpha" result="shadowBlurInner1"></feGaussianBlur>
            <feOffset dx="0" dy="1" in="shadowBlurInner1" result="shadowOffsetInner1"></feOffset>
            <feComposite in="shadowOffsetInner1" in2="SourceAlpha" operator="arithmetic" k2="-1" k3="1" result="shadowInnerInner1"></feComposite>
            <feColorMatrix values="0 0 0 0 0.22745098   0 0 0 0 0.639215686   0 0 0 0 0.890196078  0 0 0 0.10510077 0" type="matrix" in="shadowInnerInner1"></feColorMatrix>
        </filter>
        <mask id="mask-7" maskContentUnits="userSpaceOnUse" maskUnits="objectBoundingBox" x="0" y="0" width="88.7392901" height="88.57404" fill="white">
            <use xlink:href="#path-5"></use>
        </mask>
        <ellipse id="path-8" cx="95.624235" cy="95.4461638" rx="65.4069767" ry="65.285176"></ellipse>
        <filter x="-5.4%" y="-5.4%" width="110.7%" height="110.7%" filterUnits="objectBoundingBox" id="filter-9">
            <feGaussianBlur stdDeviation="6.5" in="SourceAlpha" result="shadowBlurInner1"></feGaussianBlur>
            <feOffset dx="0" dy="1" in="shadowBlurInner1" result="shadowOffsetInner1"></feOffset>
            <feComposite in="shadowOffsetInner1" in2="SourceAlpha" operator="arithmetic" k2="-1" k3="1" result="shadowInnerInner1"></feComposite>
            <feColorMatrix values="0 0 0 0 0.22745098   0 0 0 0 0.639215686   0 0 0 0 0.890196078  0 0 0 0.10510077 0" type="matrix" in="shadowInnerInner1"></feColorMatrix>
        </filter>
        <mask id="mask-10" maskContentUnits="userSpaceOnUse" maskUnits="objectBoundingBox" x="0" y="0" width="130.813953" height="130.570352" fill="white">
            <use xlink:href="#path-8"></use>
        </mask>
        <ellipse id="path-11" cx="95.4329865" cy="95.2552715" rx="82.8105875" ry="82.6563779"></ellipse>
        <filter x="-4.2%" y="-4.2%" width="108.5%" height="108.5%" filterUnits="objectBoundingBox" id="filter-12">
            <feGaussianBlur stdDeviation="6.5" in="SourceAlpha" result="shadowBlurInner1"></feGaussianBlur>
            <feOffset dx="0" dy="1" in="shadowBlurInner1" result="shadowOffsetInner1"></feOffset>
            <feComposite in="shadowOffsetInner1" in2="SourceAlpha" operator="arithmetic" k2="-1" k3="1" result="shadowInnerInner1"></feComposite>
            <feColorMatrix values="0 0 0 0 0.22745098   0 0 0 0 0.639215686   0 0 0 0 0.890196078  0 0 0 0.10510077 0" type="matrix" in="shadowInnerInner1"></feColorMatrix>
        </filter>
        <mask id="mask-13" maskContentUnits="userSpaceOnUse" maskUnits="objectBoundingBox" x="0" y="0" width="165.621175" height="165.312756" fill="white">
            <use xlink:href="#path-11"></use>
        </mask>
        <linearGradient x1="0%" y1="29.2864197%" x2="100%" y2="67.7630354%" id="linearGradient-14">
            <stop stop-color="#36987B" offset="0%"></stop>
            <stop stop-color="#D01E25" offset="100%"></stop>
        </linearGradient>
        <linearGradient x1="100%" y1="0%" x2="0%" y2="100%" id="linearGradient-15">
            <stop stop-color="#1E96C8" offset="0%"></stop>
            <stop stop-color="#37AEE2" offset="100%"></stop>
        </linearGradient>
        <linearGradient x1="61.2346759%" y1="43.69%" x2="74.7064382%" y2="80.24%" id="linearGradient-16">
            <stop stop-color="#EFF7FC" offset="0%"></stop>
            <stop stop-color="#FFFFFF" offset="100%"></stop>
        </linearGradient>
        <linearGradient x1="10.7979633%" y1="17.5334216%" x2="92.2556459%" y2="81.0413877%" id="linearGradient-17">
            <stop stop-color="#2196F3" offset="0%"></stop>
            <stop stop-color="#FFEB3B" offset="100%"></stop>
        </linearGradient>
        <path d="M2.37373759,0 C2.37373759,0 6.65906396,8.57660558 12.8869486,8.57660558 C19.1148333,8.57660558 24.0605612,0 24.0605612,0 C24.0605612,0 28.901653,1.16392657 28.901653,4.93507335 C28.901653,8.70622013 19.5912496,17.627337 11.383211,16.016679 C3.17517238,14.4060209 1.10348309,5.06118176 0,0.352644396 L2.37373759,0 Z" id="path-18"></path>
        <circle id="path-20" cx="8.03243574" cy="8.03243574" r="8.03243574"></circle>
    </defs>
    <g id="pages_for_valérie" stroke="none" stroke-width="1" fill="none" fill-rule="evenodd">
        <g id="700-card---extra" transform="translate(-60.000000, -96.000000)">
            <g id="Group-3" transform="translate(10.000000, 65.000000)">
                <g id="waiting_hero_mobile" transform="translate(50.000000, 0.000000)">
                    <mask id="mask-2" fill="white">
                        <use xlink:href="#path-1"></use>
                    </mask>
                    <g id="Rectangle-30"></g>
                    <g id="Group" mask="url(#mask-2)">
                        <g transform="translate(0.000000, 24.000000)">
                            <mask id="mask-4" fill="white">
                                <use xlink:href="#path-3"></use>
                            </mask>
                            <g id="Rectangle" stroke="none" fill="none"></g>
                            <g id="Waves" stroke="none" stroke-width="1" fill="none" fill-rule="evenodd" mask="url(#mask-4)" stroke-dasharray="2.400000095367432,3.599999904632568">
                                <g transform="translate(4.544064, 0.000000)">
                                    <g id="Oval-33">
                                        <use fill="black" fill-opacity="1" filter="url(#filter-6)" xlink:href="#path-5"></use>
                                        <use stroke-opacity="0.370782382" stroke="#3AA3E3" mask="url(#mask-7)" stroke-width="1" xlink:href="#path-5"></use>
                                    </g>
                                    <g id="Oval-33-Copy" opacity="0.699999988">
                                        <use fill="black" fill-opacity="1" filter="url(#filter-9)" xlink:href="#path-8"></use>
                                        <use stroke-opacity="0.370782382" stroke="#3AA3E3" mask="url(#mask-10)" stroke-width="1" xlink:href="#path-8"></use>
                                    </g>
                                    <g id="Oval-33-Copy-2" opacity="0.699999988">
                                        <use fill="black" fill-opacity="1" filter="url(#filter-12)" xlink:href="#path-11"></use>
                                        <use stroke-opacity="0.370782382" stroke="#3AA3E3" mask="url(#mask-13)" stroke-width="1" xlink:href="#path-11"></use>
                                    </g>
                                </g>
                            </g>
                            <g id="Integrations" stroke="none" stroke-width="1" fill="none" fill-rule="evenodd" mask="url(#mask-4)">
                                <g transform="translate(10.664015, 7.649939)">
                                    <g id="line-messenger" transform="translate(20.654835, 22.907079)">
                                        <ellipse id="Oval-34-Copy-8" fill="#00B900" cx="7.6499388" cy="7.6356931" rx="7.6499388" ry="7.6356931"></ellipse>
                                        <path d="M3.44303847,9.32740498 L4.92441306,9.32740498 C5.13512948,9.32740498 5.30747601,9.1553265 5.30747601,8.94500248 L5.30747601,8.91310474 C5.30747601,8.70278072 5.13512948,8.53075513 4.92441306,8.53075513 L3.85805866,8.53075513 L3.85805866,6.10911944 C3.85805866,5.89879541 3.68571213,5.72676983 3.47499571,5.72676983 L3.44303847,5.72676983 C3.23232205,5.72676983 3.05997552,5.89879541 3.05997552,6.10911944 L3.05997552,8.94494958 C3.05997552,9.1553265 3.23232205,9.32740498 3.44303847,9.32740498 L3.44303847,9.32740498 Z M12.622399,7.54986017 L12.622399,7.51796243 C12.622399,7.30763841 12.4499995,7.13561282 12.2392831,7.13561282 L11.1729817,7.13561282 L11.1729817,6.53019067 L12.2392831,6.53019067 C12.4499995,6.53019067 12.622399,6.35816509 12.622399,6.14784106 L12.622399,6.11594333 C12.622399,5.90561931 12.4499995,5.73359372 12.2392831,5.73359372 L10.7579085,5.73359372 C10.5471921,5.73359372 10.3748455,5.90561931 10.3748455,6.11594333 L10.3748455,8.95177347 C10.3748455,9.1620975 10.5471921,9.33417598 10.7579085,9.33417598 L12.2392831,9.33417598 C12.4499995,9.33417598 12.622399,9.1620975 12.622399,8.95177347 L12.622399,8.91987574 C12.622399,8.70955171 12.4499995,8.53752613 12.2392831,8.53752613 L11.1729817,8.53752613 L11.1729817,7.93210398 L12.2392831,7.93210398 C12.4499995,7.93220978 12.622399,7.76013129 12.622399,7.54986017 L12.622399,7.54986017 Z M9.77354058,9.21340894 L9.77364657,9.21325024 C9.84453222,9.14191323 9.88433851,9.04552946 9.88441049,8.94505537 L9.88441049,6.10922524 C9.88441049,5.89890121 9.71206396,5.72687563 9.50129454,5.72687563 L9.4693373,5.72687563 C9.25862088,5.72687563 9.08627435,5.89890121 9.08627435,6.10922524 L9.08627435,7.77388488 L7.70167244,5.92021926 C7.63553207,5.80495366 7.51098892,5.72687563 7.36906272,5.72687563 L7.33710547,5.72687563 C7.12638905,5.72687563 6.95398953,5.89890121 6.95398953,6.10922524 L6.95398953,8.94505537 C6.95398953,9.1553794 7.12633605,9.32745788 7.33710547,9.32745788 L7.36906272,9.32745788 C7.57977914,9.32745788 7.75212566,9.1553794 7.75212566,8.94505537 L7.75212566,7.24923858 L9.14669103,9.15045985 C9.15527656,9.16379024 9.16465704,9.17659166 9.17477948,9.18875829 L9.17483248,9.18886408 C9.21314937,9.2410219 9.26556349,9.27678122 9.32396628,9.29862826 C9.36885482,9.3171427 9.41793012,9.32740498 9.4692843,9.32740498 L9.50124154,9.32740498 C9.56366922,9.32743978 9.62514177,9.3121048 9.68021271,9.28275874 C9.7185296,9.26456169 9.75080483,9.2410748 9.77354058,9.21340894 L9.77354058,9.21340894 Z M5.99972397,9.32740498 L6.03168121,9.32740498 C6.24239763,9.32740498 6.41474416,9.1553265 6.41474416,8.94500248 L6.41474416,6.10917234 C6.41474416,5.89884831 6.24239763,5.72682273 6.03168121,5.72682273 L5.99972397,5.72682273 C5.78900755,5.72682273 5.61660802,5.89884831 5.61660802,6.10917234 L5.61660802,8.94500248 C5.61660802,9.1553265 5.78900755,9.32740498 5.99972397,9.32740498 Z" id="Shape" fill="#FFFFFF"></path>
                                    </g>
                                    <g id="kik" transform="translate(142.288862, 22.907079)">
                                        <ellipse id="Oval-3" fill="#82BC23" cx="7.6499388" cy="7.6356931" rx="7.6499388" ry="7.6356931"></ellipse>
                                        <g id="Group-6" transform="translate(3.059976, 4.963201)">
                                            <path d="M9.01087657,2.33618121 C9.31489334,2.33618121 9.56126235,2.58103471 9.56126235,2.88312182 C9.56126235,3.18517484 9.31489334,3.43002834 9.01087657,3.43002834 C8.70685981,3.43002834 8.46052495,3.18517484 8.46052495,2.88312182 C8.4604908,2.58110288 8.70682566,2.33618121 9.01087657,2.33618121 Z" id="Shape" fill="#3DB4E7"></path>
                                            <path d="M7.33801963,4.52138162 L6.51866995,3.4281535 L6.26755388,3.66063309 L6.26751973,4.30751946 L6.26110983,4.30726978 C6.24674839,4.56645285 6.03455981,4.77220593 5.77481586,4.77220593 C5.50566779,4.77220593 5.28767868,4.55145258 5.28767868,4.27922649 C5.28767868,4.27592867 5.28771067,4.27263842 5.28777434,4.26935604 L5.2768868,4.26893194 L5.27695511,0.516397834 L5.27695511,0.516397834 L5.28817262,0.516516673 C5.28798045,0.510774406 5.28788359,0.505007493 5.28788359,0.499217525 C5.28788359,0.22388943 5.50686309,0.000749934144 5.77693325,0.000749934144 C6.04700341,0.000749934144 6.26598291,0.22388943 6.26598291,0.499217525 C6.26598291,0.508495671 6.26573425,0.517714615 6.26524336,0.526867809 L6.27120809,0.526931 L6.27612591,2.35489548 L7.19657747,1.45647437 L7.19683258,1.45671182 C7.28786131,1.35599176 7.4194118,1.29271602 7.56568702,1.29271602 L7.56568702,1.29271602 C7.84043594,1.29271602 8.06313795,1.51575326 8.06313795,1.790945 C8.06313795,1.92434626 8.01079227,2.04552076 7.92554799,2.13496828 L7.93063008,2.13969847 L7.28308325,2.77622211 L8.18816664,3.99408108 L8.18137572,3.99899981 C8.23183248,4.07746885 8.26114842,4.17114982 8.26114842,4.27176124 C8.26114842,4.54811197 8.03984662,4.7722741 7.76673697,4.7722741 C7.58344085,4.7722741 7.42343467,4.67133426 7.33801963,4.52138162 Z M2.06208899,4.52120151 L1.24284184,3.4281535 L0.991725772,3.66063309 L0.99169162,4.30751946 L0.985281725,4.30726977 C0.970920248,4.56645284 0.758730526,4.77220593 0.498953598,4.77220593 C0.229907982,4.77220593 0.0118505748,4.55145258 0.0118505748,4.27922649 C0.0118505748,4.27592823 0.0118825684,4.27263754 0.0119462587,4.26935472 L0.0010928484,4.26893194 L0.00116115143,0.516397834 L0.00116115143,0.516397834 L0.0123103829,0.51651595 C0.0121182034,0.510773922 0.0120213324,0.50500725 0.0120213324,0.499217525 C0.0120213324,0.22388943 0.231034982,0.000749934144 0.501105143,0.000749934144 C0.771209455,0.000749934144 0.990154802,0.22388943 0.990154802,0.499217525 C0.990154802,0.508495548 0.989906115,0.517714372 0.989415164,0.526867447 L0.995414135,0.526931 L1.0003661,2.35489548 L1.92074937,1.45647437 L1.92100181,1.45670931 C2.01203316,1.35599071 2.14360087,1.29271602 2.28989306,1.29271602 L2.28989306,1.29271602 C2.56464198,1.29271602 2.787344,1.51575326 2.787344,1.790945 C2.787344,1.92433801 2.7350048,2.04550576 2.64976987,2.13495167 L2.65487028,2.13969847 L2.00725515,2.77622211 L2.91233853,3.99408108 L2.90556399,3.99898815 C2.9560311,4.07745957 2.98535447,4.17114484 2.98535447,4.27176124 C2.98535447,4.54811197 2.76401851,4.7722741 2.49090887,4.7722741 C2.30753937,4.7722741 2.14747846,4.67125343 2.06208899,4.52120151 Z M4.57396904,1.8068434 L4.57988858,1.80686406 L4.57999104,4.27980599 L4.57999104,4.27980599 L4.57414383,4.27980579 C4.57068732,4.55256108 4.35147942,4.77261498 4.08158387,4.77261498 C3.8116772,4.77261498 3.59236152,4.55254297 3.58892104,4.27977211 L3.58256196,4.2797719 L3.58362066,1.80338709 L3.58900824,1.80340589 C3.5889229,1.79958087 3.58887999,1.79574524 3.58887999,1.79189946 C3.58887999,1.51602596 3.80949877,1.29244332 4.08158387,1.29244332 C4.35366897,1.29244332 4.57418528,1.51602596 4.57418528,1.79189946 C4.57418528,1.79689829 4.57411287,1.80187994 4.57396904,1.8068434 Z" id="Combined-Shape" fill="#FFFFFF"></path>
                                        </g>
                                    </g>
                                    <g id="twillio" transform="translate(24.097307, 48.104867)">
                                        <ellipse id="Oval-34-Copy-5" fill="#EE3248" cx="8.41493268" cy="8.39926241" rx="8.41493268" ry="8.39926241"></ellipse>
                                        <g id="Group-4" transform="translate(3.824969, 3.817847)" fill="#FFFFFF">
                                            <path d="M4.78121175,0 C2.14198286,0 0,2.13799407 0,4.77230819 C0,7.40662231 2.14198286,9.54461638 4.78121175,9.54461638 C7.42044064,9.54461638 9.5624235,7.40662231 9.5624235,4.77230819 C9.5624235,2.13799407 7.42044064,0 4.78121175,0 Z M4.78121175,8.28472702 C2.83525857,8.28472702 1.2622399,6.70986532 1.2622399,4.77230819 C1.2622399,2.82997876 2.84003978,1.25988936 4.78121175,1.25988936 C6.72716493,1.25988936 8.3001836,2.83475107 8.3001836,4.77230819 C8.3001836,6.71463762 6.72716493,8.28472702 4.78121175,8.28472702 Z" id="XMLID_181_"></path>
                                            <ellipse id="XMLID_180_" cx="5.97173348" cy="3.58400345" rx="1" ry="1"></ellipse>
                                            <ellipse id="XMLID_179_" cx="5.97173348" cy="5.96061293" rx="1" ry="1"></ellipse>
                                            <ellipse id="XMLID_178_" cx="3.59069002" cy="5.96061293" rx="1" ry="1"></ellipse>
                                            <ellipse id="XMLID_177_" cx="3.59069002" cy="3.58400345" rx="1" ry="1"></ellipse>
                                        </g>
                                    </g>
                                    <g id="Skype" transform="translate(60.817013, 0.000000)">
                                        <ellipse id="Oval-3" fill="#00AFF0" cx="7.6499388" cy="7.6356931" rx="7.6499388" ry="7.6356931"></ellipse>
                                        <path d="M4.48702084,3.88139642 C5.2446912,3.33568438 6.31616305,3.2888134 7.12302794,3.75566317 C8.03275413,3.59831062 8.99465634,3.74785134 9.80636615,4.18940567 C10.7123655,4.67522702 11.4238228,5.50960473 11.7551405,6.48199142 C11.9828516,7.140045 12.035773,7.85538533 11.9172589,8.5409663 C12.2086992,9.05245509 12.3096971,9.6681016 12.1915557,10.245061 C12.0667059,10.881539 11.6735223,11.4584984 11.1297736,11.8130066 C10.3769482,12.3181715 9.34274494,12.3468149 8.55861388,11.8937288 C7.68541091,12.0436415 6.76450414,11.9138164 5.97441011,11.5113212 C5.05611215,11.0507953 4.32378443,10.2361332 3.96563332,9.27453422 C3.70624396,8.58746528 3.64102393,7.83157785 3.76438295,7.1084257 C3.46660695,6.5880091 3.37008131,5.95897089 3.49716719,5.37345572 C3.62313501,4.77529283 3.98575835,4.23181274 4.48702084,3.88139642 Z M4.89697529,4.36461383 C4.39012251,4.69345462 4.06663118,5.28529365 4.07222147,5.88940841 C4.06476776,6.28557973 4.21421479,6.66426743 4.42552767,6.99310822 C4.28875196,7.62028648 4.29881448,8.28317595 4.5011829,8.89510254 C4.81684783,9.89055272 5.60433305,10.7208385 6.58188807,11.0924584 C7.24415085,11.3524807 7.98132348,11.38596 8.67377381,11.2345593 C8.87576955,11.3517367 9.08111946,11.4704021 9.31032127,11.5258289 C9.88500287,11.6824375 10.5297494,11.5328967 10.9762271,11.1400733 C11.4335126,10.7502259 11.6765038,10.1260236 11.5952583,9.53046462 C11.5620892,9.21427155 11.4208413,8.9241179 11.2568595,8.65591178 C11.3958714,8.01868975 11.3817093,7.34389654 11.1707691,6.72415812 C10.8383333,5.7075044 10.0117161,4.86940676 8.99912857,4.52010642 C8.36295381,4.2928194 7.66528587,4.27198786 7.00786801,4.41520472 C6.839414,4.31885883 6.67170536,4.21656107 6.48536243,4.15741437 C5.96099342,3.97923027 5.35724233,4.05623259 4.89697529,4.36461383 Z M7.29744492,5.3239808 C7.89336962,5.23395878 8.5213453,5.32509678 9.05316802,5.61301847 C9.285724,5.74172765 9.51082626,5.91581983 9.61890516,6.16579835 C9.68934279,6.33021875 9.69716919,6.54485805 9.56710183,6.68249503 C9.42622657,6.82645588 9.19627939,6.8707229 9.00732766,6.81008823 C8.78856106,6.71857824 8.67973679,6.48980325 8.49413923,6.35365424 C8.26083788,6.16170644 7.9466637,6.10999958 7.65261455,6.11520746 C7.43757481,6.12450726 7.20725495,6.17323819 7.0503542,6.33096273 C6.9053794,6.48533935 6.85171263,6.74982555 6.99296058,6.92354575 C7.12638211,7.07717838 7.3324774,7.13446512 7.52142913,7.18691598 C7.88181636,7.276938 8.24630313,7.34947641 8.6081811,7.43466255 C8.98459382,7.52059266 9.3647334,7.68501306 9.61331487,7.99116235 C10.0419036,8.5454302 9.94537798,9.42444694 9.41243719,9.87827699 C8.98608457,10.2551047 8.39314136,10.3592625 7.84082091,10.3626104 C7.25123188,10.3540546 6.62102008,10.2335292 6.16783408,9.83103403 C5.9404957,9.62643851 5.74930785,9.31768528 5.81788205,9.0018642 C5.89279191,8.68790308 6.32473482,8.56886569 6.56958944,8.76192946 C6.75667774,8.91184217 6.85804829,9.13987318 7.03842825,9.29648174 C7.25421336,9.49400941 7.55497086,9.57249969 7.84268434,9.56543185 C8.12480754,9.57287169 8.42444697,9.48656958 8.61787093,9.27230227 C8.74942904,9.12759744 8.8191213,8.90737827 8.73377624,8.72212633 C8.6637113,8.54803415 8.48370402,8.45317622 8.31152316,8.40630525 C7.9939948,8.32335107 7.67423033,8.24783672 7.35670198,8.16413856 C7.00786801,8.07895243 6.64524467,8.00120613 6.34523255,7.79363468 C6.11118583,7.63851408 5.93378735,7.39634739 5.87676642,7.12032943 C5.78098615,6.68733092 5.84956035,6.18774587 6.16485259,5.85704512 C6.45331145,5.53676014 6.88115482,5.3879634 7.29744492,5.3239808 Z" id="Combined-Shape" fill="#FFFFFF"></path>
                                    </g>
                                    <g id="discord_color" transform="translate(82.236842, 15.271386)">
                                        <rect id="500x500" x="0" y="0" width="15.2998776" height="15.2713862"></rect>
                                        <ellipse id="Oval" fill="#7289DA" cx="7.6499388" cy="7.6356931" rx="7.6499388" ry="7.6356931"></ellipse>
                                        <path d="M9.03845512,9.92514789 C9.89645337,9.6832638 10.2239336,9.14719628 10.2239336,9.14719628 C9.95539984,9.3237063 9.69996523,9.44791708 9.47072905,9.53290337 C9.14324878,9.67018895 8.82886774,9.76171267 8.52103628,9.81401195 C7.89227421,9.93168531 7.31590895,9.89899825 6.82468855,9.80747453 C6.45136109,9.73556303 6.13043042,9.63096451 5.86189661,9.52636595 C5.71125569,9.4675293 5.54751556,9.3956178 5.38377543,9.30409408 C5.36412661,9.29101928 5.3444778,9.28448186 5.32482898,9.27140706 C5.31172977,9.26486964 5.30518017,9.25833222 5.29863056,9.2517948 C5.18073767,9.18642072 5.11524162,9.14065886 5.11524162,9.14065886 C5.11524162,9.14065886 5.42962266,9.66365153 6.26142252,9.91207309 C6.06493436,10.1604946 5.82259897,10.454678 5.82259897,10.454678 C4.37513623,10.4089161 3.8249694,9.46099187 3.8249694,9.46099187 C3.8249694,7.35594634 4.76811254,5.64968274 4.76811254,5.64968274 C5.71125569,4.94364262 6.6085516,4.96325485 6.6085516,4.96325485 L6.67404765,5.04170374 C5.49511872,5.38164899 4.95150149,5.89810426 4.95150149,5.89810426 C4.95150149,5.89810426 5.0955928,5.81965535 5.33792819,5.70851941 C6.03873594,5.40126121 6.59545237,5.3162749 6.82468855,5.29666268 C6.86398621,5.29012527 6.89673421,5.28358786 6.93603183,5.28358786 C7.33555776,5.23128859 7.78748051,5.21821377 8.2590521,5.27051304 C8.8812646,5.34242454 9.54932429,5.52547197 10.2304833,5.89810426 C10.2304833,5.89810426 9.71306442,5.40779862 8.59963156,5.06785338 L8.69132604,4.96325485 C8.69132604,4.96325485 9.58862195,4.94364262 10.5317651,5.64968274 C10.5317651,5.64968274 11.4749082,7.35594634 11.4749082,9.46099187 C11.4749082,9.46099187 10.9181918,10.4089161 9.47072905,10.454678 C9.47072905,10.454678 9.23494325,10.1735694 9.03845512,9.92514789 Z M5.75710292,8.12736057 C5.75710292,8.52614247 6.05838476,8.8530129 6.42516266,8.8530129 C6.79849012,8.8530129 7.09322239,8.52614247 7.09322239,8.12736057 C7.09977197,7.72857864 6.79849012,7.4017082 6.42516266,7.4017082 C6.05183515,7.4017082 5.75710292,7.72857864 5.75710292,8.12736057 Z M8.14770882,8.12736057 C8.14770882,8.52614247 8.44899062,8.8530129 8.81576851,8.8530129 C9.18909602,8.8530129 9.48382824,8.52614247 9.48382824,8.12736057 C9.48382824,7.72857864 9.18909602,7.4017082 8.81576851,7.4017082 C8.44244105,7.4017082 8.14770882,7.72857864 8.14770882,8.12736057 Z" id="Discord-color" fill="#FFFFFF"></path>
                                    </g>
                                    <g id="twitter_color" transform="translate(103.656671, 0.000000)">
                                        <ellipse id="Oval-3" fill="#1DA1F2" cx="7.6499388" cy="7.6356931" rx="7.6499388" ry="7.6356931"></ellipse>
                                        <path d="M10.6964367,6.32970148 C10.6964367,6.26189552 10.6950531,6.19439549 10.6920059,6.12720064 C10.9984652,5.90606896 11.2648389,5.63011225 11.4749082,5.31597657 C11.1936937,5.44074505 10.8910593,5.52473868 10.5735836,5.56261222 C10.8976383,5.36866335 11.1464166,5.06185844 11.2637679,4.69610497 C10.9605213,4.87554552 10.6246857,5.00596467 10.267124,5.07636626 C9.98070757,4.7718518 9.5729618,4.58141586 9.12145814,4.58141586 C8.25471152,4.58141586 7.5518281,5.28299038 7.5518281,6.14781726 C7.5518281,6.27075292 7.56559799,6.39032939 7.59252628,6.50501824 C6.28804614,6.4395035 5.13136356,5.81611949 4.35733547,4.86821526 C4.22254203,5.09973173 4.14481815,5.36866335 4.14481815,5.65561546 C4.14481815,6.19912962 4.42190145,6.67896135 4.8432641,6.95965219 C4.5857649,6.95171107 4.34387132,6.88115625 4.13242474,6.76371829 C4.1321937,6.77029114 4.1321937,6.77669922 4.1321937,6.78372406 C4.1321937,7.54241381 4.67320292,8.17587718 5.39138621,8.31942947 C5.25950001,8.35531773 5.12072861,8.37455967 4.9775205,8.37455967 C4.8765403,8.37455967 4.77816108,8.36463942 4.6825361,8.34630761 C4.88235425,8.96877534 5.46176615,9.42172892 6.1487377,9.43440468 C5.61155346,9.85467699 4.93483334,10.1049778 4.19936118,10.1049778 C4.07282968,10.1049778 3.94782868,10.0977941 3.8249694,10.0832919 C4.51959089,10.527694 5.34441534,10.7870044 6.23089854,10.7870044 C9.11778001,10.7870044 10.6964367,8.39975797 10.6964367,6.32970148 Z" id="Twitter-color" fill="#FFFFFF"></path>
                                        <rect id="500x500" x="0" y="0" width="15.2998776" height="15.2713862"></rect>
                                    </g>
                                    <g id="github_color" transform="translate(125.841493, 82.847270)">
                                        <ellipse id="Oval-3" fill="#000000" cx="7.6499388" cy="7.6356931" rx="7.6499388" ry="7.6356931"></ellipse>
                                        <ellipse id="Oval-3" fill="#FFFFFF" cx="7.45869033" cy="7.82658543" rx="5.54620563" ry="5.5358775"></ellipse>
                                        <path d="M1.9124847,7.78080189 C1.9124847,10.375026 3.55628582,12.5756287 5.83619253,13.3520576 C6.12325015,13.4061265 6.22785888,13.2248156 6.22785888,13.0690972 C6.22785888,12.92996 6.22292782,12.5604895 6.22011008,12.0706256 C4.6242106,12.4253173 4.28749026,11.2833829 4.28749026,11.2833829 C4.02649676,10.6049989 3.65032801,10.4244089 3.65032801,10.4244089 C3.12939768,10.0603452 3.68977642,10.0675544 3.68977642,10.0675544 C4.26565274,10.1090072 4.56856017,10.6727652 4.56856017,10.6727652 C5.08033283,11.5699479 5.91156717,11.3107778 6.23842541,11.1604663 C6.29055367,10.7812634 6.43883742,10.5224538 6.60261876,10.3757469 C5.32864648,10.2275982 3.98916166,9.7236764 3.98916166,7.47369075 C3.98916166,6.83279448 4.21282005,6.3083265 4.57983114,5.89812405 C4.52065853,5.74961491 4.3237687,5.15233419 4.63618601,4.34418491 C4.63618601,4.34418491 5.11766794,4.18630382 6.21377016,4.94615159 C6.67130126,4.8156654 7.16229307,4.75078276 7.65011491,4.74825955 C8.13758454,4.75078276 8.62822412,4.8156654 9.08645966,4.94615159 C10.1818574,4.18630382 10.6626349,4.34418491 10.6626349,4.34418491 C10.9757567,5.15233419 10.7788669,5.74961491 10.7200465,5.89812405 C11.087762,6.3083265 11.3096593,6.83279448 11.3096593,7.47369075 C11.3096593,9.72944375 9.96806116,10.2257959 8.69021448,10.3710609 C8.89590976,10.5523719 9.0794153,10.9106682 9.0794153,11.458566 C9.0794153,12.2432855 9.07237094,12.8766121 9.07237094,13.0690972 C9.07237094,13.2262574 9.17592302,13.4090102 9.46685503,13.3516972 C11.7450007,12.573466 13.3873929,10.3743051 13.3873929,7.78080189 C13.3873929,4.53775144 10.8183153,1.90892328 7.64941047,1.90892328 C4.48156234,1.90892328 1.9124847,4.53775144 1.9124847,7.78080189 Z" fill="#000000"></path>
                                        <rect id="500x500" x="0" y="0" width="15.2998776" height="15.2713862"></rect>
                                    </g>
                                    <g id="slack_color" transform="translate(103.656671, 40.850958)">
                                        <g id="Group-5" stroke="url(#linearGradient-14)" stroke-width="0.5" fill="#FFFFFF">
                                            <ellipse id="Oval-3" transform="translate(8.988581, 8.971843) rotate(10.000000) translate(-8.988581, -8.971843) " cx="8.98858129" cy="8.97184278" rx="7.65637248" ry="7.6421148"></ellipse>
                                        </g>
                                        <g id="Group" transform="translate(4.207466, 4.199631)">
                                            <path d="M6.18727604,0.601094899 C6.04224649,0.155566661 5.56288931,-0.0882362945 5.11655373,0.0565776258 C4.67025723,0.201313674 4.42599162,0.679786343 4.57098989,1.12523554 L6.76821561,7.87272297 C6.91904833,8.28888947 7.36944296,8.52278573 7.80184088,8.39858148 C8.25282269,8.26897479 8.52773943,7.79090846 8.38382852,7.34876091 C8.3783556,7.33199214 6.18727604,0.601094899 6.18727604,0.601094899" id="path22-7" fill="#E7A213"></path>
                                            <path d="M2.78276936,1.70519499 C2.63773982,1.25974521 2.15838286,1.01594226 1.71204729,1.1606783 C1.26575086,1.30541435 1.02148519,1.78390166 1.16648347,2.22940648 L3.3637087,8.97688455 C3.51454165,9.39307914 3.96493646,9.62694379 4.39730329,9.50267747 C4.84828469,9.37316564 5.12324871,8.89506652 4.97931416,8.45292366 C4.9738471,8.43611624 2.78276936,1.70519499 2.78276936,1.70519499" id="path24-8" fill="#4DC088"></path>
                                            <path d="M8.95282487,6.18935022 C9.39918373,6.04459075 9.64336352,5.56612628 9.49835745,5.12062205 C9.35335137,4.67515646 8.87398661,4.43134589 8.42770577,4.57607433 L1.66763038,6.7692078 C1.2506558,6.91976022 1.01635448,7.36931613 1.14079064,7.8008778 C1.27060786,8.2510116 1.74956585,8.5254404 2.19256957,8.38177348 C2.20936963,8.3763166 8.95282487,6.18935022 8.95282487,6.18935022" id="path26-3" fill="#E10D63"></path>
                                            <path d="M3.07655132,8.0951276 C3.5165908,7.95240567 4.08372565,7.76849545 4.69225064,7.5711345 C4.54930151,7.13194608 4.36498582,6.56577344 4.16721759,5.95828778 L2.55143222,6.48246063 L3.07655132,8.0951276" id="path28-4" fill="#3F2543"></path>
                                            <path d="M6.48108932,6.99096485 C7.0919452,6.79287027 7.65965867,6.60874166 8.09678864,6.46697176 C7.9538157,6.02772069 7.76946088,5.46143094 7.57163786,4.85382058 L5.95584469,5.37800103 L6.48108932,6.99096485" id="path30-9" fill="#D01E25"></path>
                                            <path d="M7.84666489,2.79118376 C8.29294573,2.64642429 8.53720354,2.16795982 8.39219746,1.72244739 C8.24719139,1.27691974 7.76781079,1.03319465 7.3214754,1.1779307 L0.561408461,3.37104133 C0.144468289,3.52159317 -0.089863587,3.97118069 0.0346040699,4.40271076 C0.164418744,4.85284455 0.643379142,5.12730438 1.0863469,4.98363804 C1.10318603,4.97818117 7.84666489,2.79118376 7.84666489,2.79118376" id="path32-2" fill="#7CD3DC"></path>
                                            <path d="M1.97006267,4.69704662 C2.41009435,4.55430127 2.97738564,4.37036002 3.58606702,4.17293642 C3.38757135,3.56318722 3.20309922,2.99649934 3.06103397,2.5600897 L1.44493577,3.08438726 L1.97006267,4.69704662" id="path34-0" fill="#36987B"></path>
                                            <path d="M5.37456912,3.59289149 C5.9855422,3.39476587 6.55337298,3.21060564 6.99057352,3.0688053 C6.79204659,2.45890738 6.60751228,1.89207136 6.46544662,1.45561489 L4.84931709,1.97995109 L5.37456912,3.59289149" id="path36-4" fill="#5A872D"></path>
                                        </g>
                                        <rect id="500x500" x="1.33220881" y="1.32972798" width="15.312745" height="15.2842296"></rect>
                                    </g>
                                    <g id="messenger_color" transform="translate(57.757038, 41.614527)">
                                        <ellipse id="Oval-3" fill="#0084FF" cx="7.6499388" cy="7.6356931" rx="7.6499388" ry="7.6356931"></ellipse>
                                        <polygon id="Messenger-color" fill="#FFFFFF" points="8.25388134 9.5425776 6.75317564 7.93516252 3.8249694 9.5425776 7.04599626 6.10855448 8.58330454 7.71596956 11.4749082 6.10855448"></polygon>
                                        <rect id="500x500" x="0" y="0" width="15.2998776" height="15.2713862"></rect>
                                    </g>
                                    <g id="email_color" transform="translate(141.141371, 50.395574)">
                                        <path d="M0,7.6356931 C0,3.41861626 3.42406531,0 7.6499388,0 C11.8748833,0 15.2998776,3.41768903 15.2998776,7.6356931 C15.2998776,11.85277 11.8758123,15.2713862 7.6499388,15.2713862 C3.42499427,15.2713862 0,11.8536972 0,7.6356931 L0,7.6356931 Z" id="Shape" fill="#F65756"></path>
                                        <path d="M11.4388812,5.40533299 L7.59223513,7.90317473 L3.8475666,5.44873275 C3.92310857,5.16883747 4.17934491,4.96320052 4.48381993,4.96320052 L10.8160577,4.96320052 C11.1043349,4.96320052 11.3495955,5.1480059 11.4388812,5.40533299 Z M11.4749082,5.78810003 L11.4749082,9.49262142 C11.4749082,9.85576967 11.1799308,10.1494655 10.8160577,10.1494655 L4.48381993,10.1494655 C4.12016867,10.1494655 3.8249694,9.85538636 3.8249694,9.49262142 L3.8249694,5.86295698 L7.59223527,8.37655953 L11.4749082,5.78810003 Z" id="Email-color" fill="#FFFFFF"></path>
                                        <rect id="500x500" x="0" y="0" width="15.2998776" height="15.2713862"></rect>
                                    </g>
                                    <g id="telegram_color" transform="translate(0.000000, 63.758037)">
                                        <ellipse id="Oval" fill="url(#linearGradient-15)" cx="7.6499388" cy="7.6356931" rx="7.6499388" ry="7.6356931"></ellipse>
                                        <g id="Group-2" transform="translate(3.824969, 4.581416)">
                                            <path d="M2.89091094,6.00180395 C2.66395808,6.00180395 2.70252302,5.9162695 2.62424892,5.70057749 L1.95685248,3.50819426 L7.09417402,0.46615953" id="Shape" fill="#C8DAEA"></path>
                                            <path d="M2.89091094,6.00180395 C3.0660469,6.00180395 3.14342781,5.92185759 3.24118286,5.82699413 L4.17524132,4.92043038 L3.01012015,4.21915164" id="Shape" fill="#A9C9DD"></path>
                                            <path d="M3.01000339,4.21932645 L5.83319509,6.30125318 C6.15535769,6.47867932 6.38787403,6.38681676 6.46812133,6.00270714 L7.61730513,0.597412573 C7.73496147,0.126579793 7.43749304,-0.0869678873 7.12929461,0.0526935079 L0.381306015,2.64984306 C-0.0793074013,2.83424994 -0.0766219832,3.0907484 0.297345836,3.20503906 L2.02903184,3.74451966 L6.03806914,1.21997445 C6.2273269,1.10542157 6.40102675,1.16700766 6.25846023,1.29330135" id="Shape" fill="url(#linearGradient-16)"></path>
                                        </g>
                                        <rect id="500x500" x="0" y="0" width="15.2998776" height="15.2713862"></rect>
                                    </g>
                                    <g id="viber-icon" transform="translate(4.972460, 108.808627)">
                                        <ellipse id="Oval-2" fill="#7B519D" cx="7.6499388" cy="7.6356931" rx="7.6499388" ry="7.6356931"></ellipse>
                                        <path d="M10.7480076,9.34335217 C10.5147228,9.15589597 10.2654305,8.98764353 10.0200397,8.81576413 C9.530635,8.47267347 9.08299898,8.44600582 8.71781015,8.99798989 C8.51273449,9.30788438 8.22565151,9.32145682 7.92546801,9.18550336 C7.09793617,8.81097274 6.45891787,8.23390543 6.0846065,7.39436126 C5.91902363,7.0229231 5.92120386,6.68991155 6.30861575,6.42720561 C6.51372967,6.28827423 6.72037357,6.12387781 6.7038497,5.82030185 C6.68227688,5.42446765 5.71939854,4.10164154 5.33915847,3.96202294 C5.1818184,3.90423985 5.02512859,3.90800043 4.86505367,3.96169843 C3.97345361,4.26097931 3.60415294,4.99287934 3.95782862,5.85949203 C5.01294606,8.444975 6.86977682,10.2448981 9.42581174,11.3434831 C9.57154303,11.4060385 9.7334348,11.4310454 9.81540387,11.4534943 C10.3973345,11.4593356 11.0790395,10.8997159 11.2759106,10.3443339 C11.4654569,9.81002648 11.0648679,9.59794518 10.7480076,9.34335217 Z M7.88205462,4.22709594 L7.88205462,4.22709594 C7.72723904,4.20332985 7.49131501,4.23688871 7.50296204,4.03263399 C7.52044214,3.72966888 7.8006593,3.84233349 7.9360823,3.82288157 C9.7310442,3.88335624 11.2766182,5.52354074 11.2547011,7.29280658 C11.2525209,7.46649945 11.3149826,7.72374586 11.0557645,7.71880175 C10.8077345,7.71399126 10.8724912,7.45288883 10.8504211,7.27936776 C10.6124698,5.40079701 9.75068541,4.51391156 7.88205462,4.22709594 Z M8.24756858,4.74218053 L8.24756858,4.74218053 C9.4006817,4.88038653 10.3424845,5.87890577 10.3331707,6.9759636 C10.3155949,7.10578943 10.3915206,7.32804529 10.1813194,7.36000065 C9.89767893,7.4029705 9.95281585,7.14368154 9.9250657,6.97708986 C9.73504129,5.83440878 9.33319014,5.41513302 8.17908252,5.15767663 C8.00915831,5.11970815 7.74470002,5.14624218 7.78855328,4.88496794 C7.83055143,4.63604443 8.06783332,4.72057152 8.24756858,4.74218053 Z M8.35353932,5.63925962 L8.35353932,5.63925962 C8.8651288,5.62658438 9.46463517,6.23850861 9.45616287,6.76792921 C9.4614222,6.91264464 9.44591195,7.06503393 9.27438126,7.0854594 C9.15060529,7.10004357 9.06928647,6.99640816 9.05651108,6.86851035 C9.00921535,6.39727371 8.76005692,6.11862827 8.2866215,6.04276769 C8.14481081,6.02003242 8.00548634,5.97442826 8.07171567,5.78315421 C8.11581755,5.65518004 8.23356919,5.64221845 8.35353932,5.63925962 Z" id="Combined-Shape" fill="#FFFFFF"></path>
                                    </g>
                                    <g id="CALLR_ICON_white_rgb" transform="translate(161.796206, 62.230899)">
                                        <ellipse id="Oval-2-Copy" fill="#659BD5" cx="7.6499388" cy="7.6356931" rx="7.6499388" ry="7.6356931"></ellipse>
                                        <path d="M7.6499388,3.81784655 C8.63799549,3.81784655 9.53846207,4.19167234 10.2168324,4.80547015 C9.85116882,5.32842429 9.5837673,5.92533965 9.44201227,6.56948569 C9.07795959,5.9609134 8.4116707,5.55352369 7.6499388,5.55352369 C6.49797786,5.55352369 5.56408609,6.4852744 5.56408609,7.63529114 C5.56408609,8.24185362 5.82403743,8.78792064 6.2386306,9.1685798 L6.2386306,10.0754088 L7.02492801,9.62219528 C7.22205609,9.68389663 7.43227235,9.71725958 7.6499388,9.71725958 C8.4116707,9.71725958 9.07795959,9.30986987 9.44201227,8.70149855 C9.5837673,9.34564459 9.85096747,9.94255996 10.2170337,10.4659161 C9.53846207,11.0797139 8.63799549,11.4535397 7.6499388,11.4535397 C5.53750703,11.4535397 3.8249694,9.74419111 3.8249694,7.6356931 C3.8249694,5.52739608 5.53750703,3.81784655 7.6499388,3.81784655" id="Fill-1" fill="#FFFFFF"></path>
                                    </g>
                                    <g id="amazon-echo" transform="translate(161.413709, 108.808627)">
                                        <ellipse id="Oval-2-Copy" fill="#2CC0E1" cx="7.6499388" cy="7.6356931" rx="7.6499388" ry="7.6356931"></ellipse>
                                        <g id="Group-7" transform="translate(3.824969, 4.963201)" fill="#FFFFFF">
                                            <path d="M1.70905253,4.05651004 C1.70905253,3.40607362 1.39823486,2.99686012 0.863085981,2.99686012 C0.340832254,2.99686012 0,3.43203782 0,4.05229364 C0,4.63393603 0.310817672,5.12925302 0.988257904,5.12925302 C1.22125999,5.12925302 1.47160384,5.06467541 1.66147386,4.94395298 L1.54052621,4.68120419 C1.39801253,4.75887486 1.22970854,4.81901416 1.03561424,4.81901416 C0.629861562,4.81901416 0.396859473,4.53473949 0.388188594,4.15126827 L1.7088302,4.15126827 L1.7088302,4.05651004 L1.70905253,4.05651004 Z M0.388188594,3.86677168 C0.392635199,3.55653281 0.569387737,3.29822234 0.86286365,3.29822234 C1.16923472,3.29822234 1.30730179,3.58249701 1.31597267,3.86677168 L0.388188594,3.86677168 Z M1.86868564,4.08669065 C1.86868564,3.47930597 2.28310921,2.99686012 2.90452222,2.99686012 C3.12440682,2.99686012 3.30560597,3.05722133 3.42677595,3.12623727 L3.42677595,3.45800201 C3.28848654,3.3674602 3.13330003,3.31153731 2.93475913,3.31153731 C2.51611129,3.31153731 2.26132084,3.63464732 2.26132084,4.06538669 C2.26132084,4.54361613 2.51611129,4.81479775 2.90874649,4.81479775 C3.11595827,4.81479775 3.26269623,4.74600372 3.39653903,4.67254945 L3.50859347,4.93973658 C3.35740891,5.04292762 3.12018255,5.12925302 2.86116782,5.12925302 C2.21818878,5.12903111 1.86868564,4.66367281 1.86868564,4.08669065 Z M3.76160528,2.03618483 L4.141123,2.03618483 L4.141123,3.29400593 C4.3441105,3.12179895 4.57266599,2.99686012 4.83590499,2.99686012 C5.15539354,2.99686012 5.457318,3.18637657 5.457318,3.72052889 L5.457318,5.08620128 L5.07757796,5.08620128 L5.07757796,3.84524581 C5.07757796,3.55653281 5.00420898,3.33261935 4.72362822,3.33261935 C4.51641644,3.33261935 4.31787554,3.45334177 4.14090067,3.60823929 L4.14090067,5.08597936 L3.76138295,5.08597936 L3.76138295,2.03618483 L3.76160528,2.03618483 Z M6.68324693,2.9966382 L6.68324693,2.9966382 C7.26152788,2.9966382 7.6499388,3.46199651 7.6499388,4.06494286 C7.6499388,4.66367281 7.26597448,5.12903111 6.67902265,5.12903111 C6.0962951,5.12903111 5.71210845,4.66367281 5.71210845,4.06494286 C5.71210845,3.46177459 6.0962951,2.9966382 6.68324693,2.9966382 Z M6.67902265,4.81457583 C7.04142094,4.81457583 7.2573036,4.50034247 7.2573036,4.06516478 C7.2573036,3.62554876 7.04142094,3.3113154 6.68324693,3.3113154 C6.32062631,3.3113154 6.10496598,3.62577067 6.10496598,4.06516478 C6.10496598,4.50034247 6.32062631,4.81457583 6.67902265,4.81457583 Z" id="Combined-Shape"></path>
                                            <path d="M4.43885164,1.1997328 C4.14255615,1.41805328 3.71288548,1.53404773 3.34305543,1.53404773 C2.82456176,1.53404773 2.35774864,1.34268965 2.00442635,1.02438364 C1.97675709,0.999387255 2.00142493,0.965216168 2.03472183,0.984595387 C2.41590097,1.2060053 2.88721621,1.33931935 3.37410127,1.33931935 C3.70247433,1.33931935 4.06348774,1.27125804 4.39570637,1.13064167 C4.4458862,1.10939007 4.48790594,1.16350209 4.43885164,1.1997328 Z M4.56219085,1.05921006 C4.52420425,1.01080882 4.31166687,1.0362733 4.2161845,1.04769487 C4.18729592,1.05125241 4.18279381,1.02597517 4.20886856,1.00762576 C4.37844825,0.888729106 4.65636011,0.923087432 4.68871907,0.962875683 C4.72126561,1.00303841 4.6801838,1.28118169 4.52120284,1.41393402 C4.49672259,1.43434306 4.47355545,1.4234832 4.48434177,1.39652081 C4.51998352,1.30730151 4.60017746,1.10770492 4.56219085,1.05921006 L4.56219085,1.05921006 Z M4.22284388,0.167578753 L4.22284388,0.0521460141 C4.22303147,0.0344519447 4.23616264,0.0227495178 4.25220143,0.0228431373 L4.77107027,0.0227495178 C4.78767182,0.0227495178 4.80099058,0.0348264224 4.80099058,0.0518651559 L4.80099058,0.151008116 C4.80080299,0.167578753 4.78673388,0.189298457 4.76187845,0.223750402 L4.49315841,0.606747428 C4.59286152,0.604406943 4.69847365,0.619386049 4.78907873,0.670127772 C4.80952584,0.68164296 4.81505969,0.698588075 4.81665419,0.71525233 L4.81665419,0.8385491 C4.81665419,0.855494214 4.79798917,0.875247911 4.7783862,0.864949775 C4.61874868,0.781441257 4.40677407,0.772360174 4.23025361,0.865979588 C4.21224515,0.875528769 4.19329874,0.85614955 4.19329874,0.839204436 L4.19329874,0.721992928 C4.19329874,0.703269045 4.19367392,0.671157586 4.21262032,0.642603664 L4.52401666,0.19678801 L4.25285798,0.19678801 C4.23625643,0.19678801 4.22303147,0.184898345 4.22284388,0.167578753 L4.22284388,0.167578753 Z M2.33026697,0.889290823 L2.17250533,0.889290823 C2.15749828,0.888261009 2.14549264,0.877026679 2.14427332,0.862702909 L2.1444609,0.0541120219 C2.1444609,0.0379158631 2.15806104,0.0249963838 2.17494398,0.0249963838 L2.32201309,0.0249027644 C2.33739532,0.0256517197 2.34968235,0.0372605272 2.35062029,0.0520523947 L2.35062029,0.157561475 L2.3536217,0.157561475 C2.39188968,0.0555163131 2.46411112,0.00786403086 2.56137558,0.00786403086 C2.66014074,0.00786403086 2.72204484,0.0555163131 2.76612805,0.157561475 C2.80448983,0.0555163131 2.89134315,0.00786403086 2.98429308,0.00786403086 C3.05060549,0.00786403086 3.12273314,0.0351072806 3.16691015,0.096334378 C3.21708998,0.164489312 3.20677263,0.263070556 3.20677263,0.349855754 L3.20658504,0.860175185 C3.20658504,0.876277724 3.1929849,0.889197203 3.17610197,0.889197203 L3.01843412,0.889197203 C3.00267672,0.88816739 2.99020211,0.875716008 2.99020211,0.860175185 L2.99010831,0.431398264 C2.99010831,0.397414417 2.99310972,0.312314368 2.98569999,0.28001567 C2.97388194,0.225529171 2.93861536,0.210269206 2.89293765,0.210269206 C2.85466966,0.210269206 2.81490097,0.235733687 2.7986746,0.276551752 C2.78244822,0.317463436 2.78394893,0.385431131 2.78394893,0.431398264 L2.78394893,0.860081565 C2.78394893,0.876184105 2.77034879,0.889103584 2.75346585,0.889103584 L2.5958918,0.889103584 C2.5800406,0.88807377 2.56756599,0.875622388 2.56756599,0.860081565 L2.5673784,0.431304645 C2.5673784,0.341149148 2.58201028,0.208490437 2.47011394,0.208490437 C2.35662311,0.208490437 2.36112522,0.337778849 2.36112522,0.431304645 L2.36103143,0.859987946 C2.36075005,0.876371344 2.34714991,0.889290823 2.33026697,0.889290823 L2.33026697,0.889290823 Z M5.24763798,0.00786403086 C5.48193558,0.00786403086 5.60865138,0.208677676 5.60865138,0.463884201 C5.60865138,0.71057136 5.46871062,0.906235937 5.24763798,0.906235937 C5.01784248,0.906235937 4.8925336,0.705422292 4.8925336,0.455364834 C4.8924398,0.203528608 5.0192494,0.00786403086 5.24763798,0.00786403086 L5.24763798,0.00786403086 Z M5.24913868,0.172915059 C5.13274023,0.172915059 5.1253305,0.331131871 5.1253305,0.429806734 C5.1253305,0.528481598 5.12382979,0.739499759 5.24763798,0.739499759 C5.36994545,0.739499759 5.37585448,0.569299662 5.37585448,0.465569351 C5.37585448,0.397508036 5.37285307,0.315871906 5.35221837,0.25118089 C5.33449129,0.195009241 5.29913093,0.172915059 5.24913868,0.172915059 L5.24913868,0.172915059 Z M5.9124504,0.889290823 L5.75515773,0.889290823 C5.73940033,0.888261009 5.72683192,0.875809627 5.72683192,0.860268804 L5.72664433,0.0513970588 C5.72795745,0.0365115718 5.74099483,0.0249963838 5.75693982,0.0249963838 L5.90335238,0.0249027644 C5.91714011,0.0256517197 5.92848919,0.0350136612 5.93139681,0.0475586628 L5.93139681,0.17122991 L5.93439822,0.17122991 C5.97857523,0.0605717615 6.04047932,0.00786403086 6.14946804,0.00786403086 C6.22018877,0.00786403086 6.2894088,0.0334221311 6.33367961,0.103168595 C6.374949,0.167765992 6.374949,0.276645371 6.374949,0.355004822 L6.374949,0.863732723 C6.37316691,0.878056493 6.36031712,0.889197203 6.34465351,0.889197203 L6.1864229,0.889197203 C6.17179103,0.888261009 6.15997297,0.877494777 6.15837847,0.863732723 L6.15837847,0.424751286 C6.15837847,0.336280939 6.16869582,0.206992526 6.05961331,0.206992526 C6.02125153,0.206992526 5.98589116,0.232457007 5.96825788,0.271589923 C5.94621627,0.320927355 5.94321486,0.370264786 5.94321486,0.424751286 L5.94321486,0.860175185 C5.94283968,0.876371344 5.92923954,0.889290823 5.9124504,0.889290823 L5.9124504,0.889290823 Z M3.96838055,0.887231196 C3.9579694,0.896593137 3.94286856,0.897248473 3.9310505,0.890882353 C3.87861961,0.847442944 3.86924021,0.82731477 3.84053922,0.785934989 C3.75396728,0.874030858 3.69262596,0.900431533 3.58035444,0.900431533 C3.44744824,0.900431533 3.34408716,0.818608165 3.34408716,0.654867808 C3.34408716,0.526983687 3.41358857,0.44001125 3.51244753,0.397414417 C3.59808153,0.359873031 3.71776277,0.353038814 3.80930579,0.342834298 L3.80930579,0.322331646 C3.80930579,0.28479026 3.8123072,0.240508277 3.790078,0.208115959 C3.77085022,0.179093941 3.73398914,0.167110656 3.7014426,0.167110656 C3.6413206,0.167110656 3.58776418,0.197911443 3.57453921,0.261759884 C3.57181918,0.275990035 3.56140804,0.290032948 3.54715134,0.290781903 L3.3941732,0.274211266 C3.38122962,0.271215445 3.36687912,0.261010929 3.37063089,0.241257232 C3.40580367,0.0559844102 3.57341368,0 3.723578,0 C3.80039535,0 3.90075502,0.0204090325 3.96134599,0.0784530697 C4.03816334,0.150071922 4.03075361,0.245563725 4.03075361,0.349574895 L4.03075361,0.595045002 C4.03075361,0.66891072 4.06151807,0.701303038 4.09031285,0.740997669 C4.10044261,0.75532144 4.10269367,0.772360174 4.08984388,0.782845548 C4.05757871,0.809807939 4.00036433,0.859426229 3.96884952,0.887418435 L3.96838055,0.887231196 L3.96838055,0.887231196 Z M3.80930579,0.503110736 L3.80930579,0.469033269 C3.6951584,0.469033269 3.57453921,0.493374317 3.57453921,0.627530939 C3.57453921,0.695779492 3.60999337,0.741840244 3.67049055,0.741840244 C3.71476136,0.741840244 3.75462384,0.714596994 3.77976065,0.670221392 C3.81080649,0.615641273 3.80930579,0.564525072 3.80930579,0.503110736 Z M1.89928318,0.887231196 C1.88887204,0.896593137 1.87377119,0.897248473 1.86195314,0.890882353 C1.80952225,0.847442944 1.80014284,0.82731477 1.77144186,0.785934989 C1.68477613,0.874030858 1.6234348,0.900431533 1.51125708,0.900431533 C1.37825708,0.900431533 1.2749898,0.818608165 1.2749898,0.654867808 C1.2749898,0.526983687 1.34439742,0.44001125 1.44335017,0.397414417 C1.52898416,0.359873031 1.64857161,0.353038814 1.74011463,0.342834298 L1.74011463,0.322331646 C1.74011463,0.28479026 1.74311604,0.240508277 1.72088685,0.208115959 C1.70165906,0.179093941 1.66479799,0.167110656 1.63234524,0.167110656 C1.57212944,0.167110656 1.51857302,0.197911443 1.50544185,0.261759884 C1.50272182,0.275990035 1.49231068,0.290032948 1.47805398,0.290781903 L1.32507584,0.274211266 C1.31213225,0.271215445 1.29778176,0.261010929 1.30143973,0.241257232 C1.33661251,0.0559844102 1.50422253,9.3619415e-05 1.65448064,9.3619415e-05 C1.73129799,9.3619415e-05 1.83165765,0.0205026519 1.89224863,0.0785466892 C1.96906598,0.150165542 1.96165625,0.245657345 1.96165625,0.349668515 L1.96165625,0.595138621 C1.96165625,0.669004339 1.9924207,0.701396657 2.02121549,0.741091289 C2.03134525,0.755415059 2.0335963,0.772453793 2.02074651,0.782939167 C1.98848135,0.809901559 1.93117317,0.859519849 1.89965836,0.887512054 L1.89928318,0.887231196 L1.89928318,0.887231196 Z M1.74011463,0.503110736 L1.74011463,0.469033269 C1.62596724,0.469033269 1.50534806,0.493374317 1.50534806,0.627530939 C1.50534806,0.695779492 1.54080222,0.741840244 1.6012994,0.741840244 C1.645664,0.741840244 1.68552648,0.714596994 1.7105695,0.670221392 C1.74161534,0.615641273 1.74011463,0.564525072 1.74011463,0.503110736 Z" id="Combined-Shape"></path>
                                        </g>
                                    </g>
                                    <g id="google" transform="translate(33.277234, 79.411208)">
                                        <g id="Group-5" stroke="url(#linearGradient-17)" stroke-width="0.5" fill="#FFFFFF">
                                            <ellipse id="Oval-3" transform="translate(10.901066, 10.880766) rotate(10.000000) translate(-10.901066, -10.880766) " cx="10.901066" cy="10.8807661" rx="7.65637248" ry="7.6421148"></ellipse>
                                        </g>
                                        <g id="Group" transform="translate(7.267442, 7.253908)">
                                            <ellipse id="Oval" fill="#2196F3" cx="2.33484499" cy="2.33701423" rx="2.33484499" ry="2.33049705"></ellipse>
                                            <path d="M7.6499388,2.56436998 C7.6499388,2.82601178 7.43741394,3.03805139 7.17537365,3.03805139 C6.91333337,3.03805139 6.7008085,2.82601178 6.7008085,2.56436998 C6.7008085,2.3027431 6.91333337,2.09068856 7.17537365,2.09068856 C7.43741394,2.09068856 7.6499388,2.3027431 7.6499388,2.56436998 Z" id="Shape" fill="#00C853"></path>
                                            <path d="M6.7957305,3.72014846 C6.7957305,4.24332765 6.37083019,4.66748146 5.84661514,4.66748146 C5.32235527,4.66748146 4.89748484,4.24332765 4.89748484,3.72014846 C4.89748484,3.19693943 5.32237021,2.77278563 5.84661514,2.77278563 C6.37084513,2.77278563 6.7957305,3.19695434 6.7957305,3.72014846 Z" id="Shape" fill="#F44336"></path>
                                            <path d="M6.9855446,6.16431592 C6.9855446,6.79217272 6.47568814,7.30109465 5.8466002,7.30109465 C5.21751226,7.30109465 4.70764085,6.79217272 4.70764085,6.16431592 C4.70764085,5.53648895 5.21749732,5.02750737 5.8466002,5.02750737 C6.47568814,5.02750737 6.9855446,5.53648895 6.9855446,6.16431592 Z" id="Shape" fill="#FFEB3B"></path>
                                        </g>
                                    </g>
                                </g>
                            </g>
                            <g id="Group-13" stroke="none" stroke-width="1" fill="none" fill-rule="evenodd" mask="url(#mask-4)">
                                <g transform="translate(-31.410649, 67.701958)">
                                    <g id="Group-2" stroke="none" stroke-width="1" fill="none" fill-rule="evenodd" transform="translate(0.000000, 63.494492)">
                                        <path d="M31.5789474,15.8264325 C31.5789474,10.3449783 36.022544,5.90138161 41.5039983,5.90138161 C41.5616227,5.90138161 41.6191324,5.9018727 41.6765235,5.90285091 C42.4127541,2.52740243 45.4186476,0 49.0148476,0 C52.2698195,0 55.0411936,2.07052863 56.0837297,4.96634569 C56.7157051,4.70460384 57.4085664,4.56015852 58.1351646,4.56015852 C61.0981129,4.56015852 63.500057,6.96210265 63.500057,9.92505089 C68.4980103,10.1902938 72.7684918,13.2023891 74.8149348,17.4814352 C75.5461218,17.2769779 76.3170298,17.1676556 77.1134714,17.1676556 C79.9358154,17.1676556 82.4375147,18.5404988 83.9872198,20.6548356 L32.8305435,20.6548356 C32.0332588,19.2257042 31.5789474,17.5791234 31.5789474,15.8264325 Z" id="Combined-Shape" fill="#E5ECE0"></path>
                                        <path d="M47.5337271,20.6548377 C46.7364412,19.2257042 46.2821297,17.5791234 46.2821297,15.8264325 C46.2821297,10.3449783 50.7257264,5.90138161 56.2071806,5.90138161 C56.2648051,5.90138161 56.3223148,5.9018727 56.3797059,5.90285091 C57.1159365,2.52740243 60.12183,0 63.71803,0 C66.9730019,0 69.744376,2.07052863 70.786912,4.96634569 C71.4188875,4.70460384 72.1117487,4.56015852 72.838347,4.56015852 C75.8012952,4.56015852 78.2032394,6.96210265 78.2032394,9.92505089 C78.2032394,9.93059936 78.2032309,9.93614586 78.2032141,9.94169038 C83.2011927,10.1902938 87.4716741,13.2023891 89.5181172,17.4814352 C90.2493042,17.2769779 91.0202122,17.1676556 91.8166538,17.1676556 C94.6389978,17.1676556 97.140697,18.5404988 98.6904022,20.6548356 L47.5337259,20.6548356 L47.5337271,20.6548377 Z" id="Combined-Shape-Copy-2" fill="#E5ECE0" opacity="0.600000024"></path>
                                        <path d="M93.4333599,20.6548377 C92.636074,19.2257042 92.1817625,17.5791234 92.1817625,15.8264325 C92.1817625,10.3449783 96.6253592,5.90138161 102.106813,5.90138161 C102.164438,5.90138161 102.221948,5.9018727 102.279339,5.90285091 C103.015569,2.52740243 106.021463,0 109.617663,0 C112.872635,0 115.644009,2.07052863 116.686545,4.96634569 C117.31852,4.70460384 118.011382,4.56015852 118.73798,4.56015852 C121.700928,4.56015852 124.102872,6.96210265 124.102872,9.92505089 C124.102872,9.93059936 124.102864,9.93614586 124.102847,9.94169038 C129.100826,10.1902938 133.371307,13.2023891 135.41775,17.4814352 C136.148937,17.2769779 136.919845,17.1676556 137.716287,17.1676556 C140.538631,17.1676556 143.04033,18.5404988 144.590035,20.6548356 L93.4333587,20.6548356 L93.4333599,20.6548377 Z" id="Combined-Shape-Copy-3" fill="#E5ECE0" opacity="0.600000024"></path>
                                        <path d="M6.3549174,18.3598531 C6.53393498,18.3598531 6.7118478,18.3645832 6.88853769,18.3739251 C8.77990706,13.6578872 13.3940511,10.3274174 18.7860679,10.3274174 C24.4953728,10.3274174 29.8020198,15.495756 31.4582578,20.6548348 C32.5647113,20.3433531 33.2623911,18.7423501 34.4684425,18.7423501 C34.7335468,18.7423501 34.9967708,18.7504008 35.2578833,18.7662712 C37.5837947,16.3911886 40.8264657,14.9173807 44.4133629,14.9173807 C48.8743216,14.9173807 52.8028503,17.1969847 55.0975908,20.6548348 L0,20.6548348 C1.72325316,19.2217231 3.93843502,18.3598531 6.3549174,18.3598531 Z" id="Combined-Shape" fill="#EFF4EC"></path>
                                    </g>
                                    <g id="Group-2" stroke="none" stroke-width="1" fill="none" fill-rule="evenodd" transform="translate(161.765606, 74.020808) scale(-1, 1) translate(-161.765606, -74.020808) translate(92.028764, 63.494492)">
                                        <path d="M4.4033721,20.6548377 C3.60608626,19.2257042 3.15177479,17.5791234 3.15177479,15.8264325 C3.15177479,10.3449783 7.59537143,5.90138161 13.0768257,5.90138161 C13.1344501,5.90138161 13.1919598,5.9018727 13.2493509,5.90285091 C13.9855816,2.52740243 16.991475,0 20.587675,0 C23.842647,0 26.6140211,2.07052863 27.6565571,4.96634569 C28.2885325,4.70460384 28.9813938,4.56015852 29.707992,4.56015852 C32.6709403,4.56015852 35.0728844,6.96210265 35.0728844,9.92505089 C35.0728844,9.93059936 35.072876,9.93614586 35.0728592,9.94169038 C40.0708377,10.1902938 44.3413192,13.2023891 46.3877622,17.4814352 C47.1189493,17.2769779 47.8898572,17.1676556 48.6862988,17.1676556 C51.5086428,17.1676556 54.0103421,18.5404988 55.5600472,20.6548356 L4.40337095,20.6548356 L4.4033721,20.6548377 Z" id="Combined-Shape" fill="#E5ECE0"></path>
                                        <path d="M42.2705692,20.6548377 C41.4732833,19.2257042 41.0189718,17.5791234 41.0189718,15.8264325 C41.0189718,10.3449783 45.4625685,5.90138161 50.9440227,5.90138161 C51.0016472,5.90138161 51.0591569,5.9018727 51.116548,5.90285091 C51.8527786,2.52740243 54.8586721,0 58.4548721,0 C61.709844,0 64.4812181,2.07052863 65.5237541,4.96634569 C66.1557296,4.70460384 66.8485908,4.56015852 67.5751891,4.56015852 C70.5381373,4.56015852 72.9400815,6.96210265 72.9400815,9.92505089 C72.9400815,9.93059936 72.9400731,9.93614586 72.9400562,9.94169038 C77.9380348,10.1902938 82.2085162,13.2023891 84.2549593,17.4814352 C84.9861463,17.2769779 85.7570543,17.1676556 86.5534959,17.1676556 C89.3758399,17.1676556 91.8775391,18.5404988 93.4272443,20.6548356 L42.270568,20.6548356 L42.2705692,20.6548377 Z" id="Combined-Shape-Copy-2" fill="#E5ECE0" opacity="0.600000024"></path>
                                        <path d="M88.170202,20.6548377 C87.3729161,19.2257042 86.9186047,17.5791234 86.9186047,15.8264325 C86.9186047,10.3449783 91.3622013,5.90138161 96.8436555,5.90138161 C96.90128,5.90138161 96.9587897,5.9018727 97.0161808,5.90285091 C97.7524114,2.52740243 100.758305,0 104.354505,0 C107.609477,0 110.380851,2.07052863 111.423387,4.96634569 C112.055362,4.70460384 112.748224,4.56015852 113.474822,4.56015852 C116.43777,4.56015852 118.839714,6.96210265 118.839714,9.92505089 C118.839714,9.93059936 118.839706,9.93614586 118.839689,9.94169038 C123.837668,10.1902938 128.108149,13.2023891 130.154592,17.4814352 C130.885779,17.2769779 131.656687,17.1676556 132.453129,17.1676556 C135.275473,17.1676556 137.777172,18.5404988 139.326877,20.6548356 L88.1702008,20.6548356 L88.170202,20.6548377 Z" id="Combined-Shape-Copy-3" fill="#E5ECE0" opacity="0.600000024"></path>
                                        <path d="M1.6253798,18.3739251 C3.51674916,13.6578872 8.13089316,10.3274174 13.5229101,10.3274174 C19.2322149,10.3274174 24.0694071,14.0613758 25.7256451,19.2204546 C26.8320986,18.9089729 27.9992332,18.7423501 29.2052846,18.7423501 C29.4703889,18.7423501 29.7336129,18.7504008 29.9947254,18.7662712 C32.3206368,16.3911886 35.5633078,14.9173807 39.150205,14.9173807 C43.6111638,14.9173807 47.5396924,17.1969847 49.8344329,20.6548348 L0.19898287,20.6548348 C0.329111399,19.8583312 1.6253798,18.3739251 1.6253798,18.3739251 Z" id="Combined-Shape" fill="#EFF4EC"></path>
                                    </g>
                                    <path d="M96.3892289,31.7552262 L96.5204198,31.6507235 L96.5204198,31.6507235 C96.7818806,31.4424519 97.162674,31.4855702 97.3709457,31.747031 C97.5691783,31.9958889 97.5408972,32.35574 97.3062225,32.5705753 L97.3062225,32.5705753 L96.3892289,31.7552262 Z" id="Path-25" stroke="none" fill="#38475B" fill-rule="evenodd"></path>
                                    <path d="M52.8648742,39.7796818 L55.7889892,39.7796818 L55.7889892,39.7796818 C56.8870708,39.7796818 57.7772418,40.6698527 57.7772418,41.7679343 L57.7772418,41.7679343 L57.7772418,41.7679343 C57.7772418,42.8660158 56.8870708,43.7561868 55.7889892,43.7561868 L52.2063815,43.7561868 L52.2063815,43.7561868 C51.2625024,43.7561868 50.4973373,42.9910216 50.4973373,42.0471426 C50.4973373,41.9536016 50.5050169,41.8602185 50.5202988,41.7679343 L50.5202988,41.7679343 L50.5202988,41.7679343 C50.7102445,40.6208901 51.7022092,39.7796818 52.8648742,39.7796818 Z" id="Rectangle-17-Copy" stroke="none" fill="#54C6AC" fill-rule="evenodd"></path>
                                    <path d="M55.5086899,34.8072215 L62.8417293,34.8072215 L62.8417293,34.8072215 C63.9462988,34.8072215 64.8417293,35.702652 64.8417293,36.8072215 L64.8417293,44.2821297 L64.8417293,44.2821297 C64.8417293,45.3866992 63.9462988,46.2821297 62.8417293,46.2821297 L54.9947619,46.2821297 L54.9947619,46.2821297 C53.2274507,46.2821297 51.7947619,44.8494409 51.7947619,43.0821297 C51.7947619,42.9744542 51.8001966,42.8668474 51.8110453,42.7597198 L52.3249732,37.6848116 L52.3249732,37.6848116 C52.4904569,36.0507028 53.8662234,34.8072215 55.5086899,34.8072215 Z" id="Rectangle-17" stroke="none" fill="#2D6154" fill-rule="evenodd"></path>
                                    <rect id="Rectangle-16" stroke="none" fill="#E5ECE0" fill-rule="evenodd" transform="translate(60.612639, 51.406373) rotate(11.000000) translate(-60.612639, -51.406373) " x="58.3176578" y="46.2426641" width="4.58996328" height="10.3274174" rx="2"></rect>
                                    <polygon id="Path-24" stroke="none" fill="#35AE92" fill-rule="evenodd" points="89.504284 37.2060478 96.8411642 30.9822521 98.5421743 32.9108245 96.4633757 36.2979662 96.4633757 40.3069412 91.1978467 44.4611165"></polygon>
                                    <path d="M62.3498783,30.8854639 C57.3570062,35.5759776 56.3165882,49.1684569 57.3570062,49.9054787 C57.9694306,50.339314 60.2553913,50.6468556 64.2148882,50.8281035 L64.2148882,50.8281035 C65.2854112,50.8771072 66.3308288,50.4945022 67.1168153,49.7660478 C71.484009,45.7185212 73.9251386,42.6166107 74.440204,40.4603164 C75.0021003,38.1079674 74.9430651,35.3124034 74.2630984,32.0736243 C69.6495331,28.1545083 65.6784597,27.7584549 62.3498783,30.8854639 Z" id="Path-21" stroke="none" fill="#54C6AC" fill-rule="evenodd"></path>
                                    <path d="M65.5262253,39.0146879 C65.5262253,39.0146879 64.7253075,43.4785844 67.2747841,48.9006478 C67.2747841,48.9006478 68.9837914,47.8873002 69.6437272,46.7629533 C70.3036631,45.6386063 65.5262253,39.0146879 65.5262253,39.0146879 Z" id="Path-41" stroke="none" fill="#35AE92" fill-rule="evenodd"></path>
                                    <path d="M67.7807143,37.1022032 C67.7807143,37.1022032 72.0660407,45.6788088 78.2939254,45.6788088 C84.5218101,45.6788088 89.4675379,37.1022032 89.4675379,37.1022032 C89.4675379,37.1022032 94.3086297,38.2661298 94.3086297,42.0372765 C94.3086297,45.8084233 84.9982264,54.7295402 76.7901878,53.1188821 C68.5821491,51.5082241 66.5104598,42.1633849 65.4069767,37.4548476 L67.7807143,37.1022032 Z" id="Path-23" stroke="none" fill="#E5ECE0" fill-rule="evenodd"></path>
                                    <g id="Group-8" stroke="none" stroke-width="1" fill="none" fill-rule="evenodd" transform="translate(65.406977, 37.102203)">
                                        <mask id="mask-19" fill="white">
                                            <use xlink:href="#path-18"></use>
                                        </mask>
                                        <use id="Path-23" fill="#E5ECE0" xlink:href="#path-18"></use>
                                        <path d="M28.2838791,2.7804804 C28.6596584,3.37910304 28.901653,4.09192386 28.901653,4.93507335 C28.901653,8.70622013 19.5912496,17.627337 11.383211,16.016679 C3.17517238,14.4060209 1.10348309,5.06118176 0,0.352644396 L0.0861479738,0.339846182 C1.39273799,5.26682449 3.96928185,11.995288 10.8179635,13.3392004 C18.66712,14.8794352 27.5243506,6.78872829 28.2838791,2.7804804 L28.2838791,2.7804804 Z" id="Combined-Shape" fill="#CDD7D3" mask="url(#mask-19)"></path>
                                        <path d="M19.8898409,3.8249694 C19.8898409,3.8249694 22.0789428,10.9675298 25.3566267,10.9675298" id="Path-40" stroke="#54C6AB" stroke-width="0.5" mask="url(#mask-19)"></path>
                                        <path d="M11.6840817,8.51516209 C11.6840817,8.51516209 13.8731835,15.6577225 17.1508674,15.6577225" id="Path-40-Copy" stroke="#54C6AB" stroke-width="0.5" mask="url(#mask-19)" transform="translate(14.417475, 12.086442) rotate(28.000000) translate(-14.417475, -12.086442) "></path>
                                        <path d="M5.24218752,6.80193251 C3.65638884,9.06231002 6.90112866,12.2146945 9.38501702,12.2146945" id="Path-40-Copy-2" stroke="#54C6AB" stroke-width="0.5" mask="url(#mask-19)" transform="translate(7.103819, 9.508313) rotate(72.000000) translate(-7.103819, -9.508313) "></path>
                                    </g>
                                    <path d="M74.8738585,34.1021269 C74.7295096,32.8925379 74.5575824,32.0736243 74.5575824,32.0736243 C74.5575824,32.0736243 67.6372344,26.1949503 62.6443623,30.8854639 C61.7969384,31.6815696 61.0633734,32.7341157 60.4345165,33.9367226 C60.9607658,34.0451605 61.5058145,34.1021269 62.0641681,34.1021269 L74.8738585,34.1021269 L74.8738585,34.1021269 Z" id="Combined-Shape" stroke="none" fill="#35AE92" fill-rule="evenodd"></path>
                                    <path d="M69.0406977,3.05997552 L69.8056916,3.05997552 L69.8056916,3.05997552 C77.9387098,3.05997552 84.5318237,9.65308948 84.5318237,17.7861077 L84.5318237,24.1122399 L84.5318237,24.1122399 C84.5318237,28.7514318 80.7710156,32.5122399 76.1318237,32.5122399 L62.7145655,32.5122399 L62.7145655,32.5122399 C58.0753736,32.5122399 54.3145655,28.7514318 54.3145655,24.1122399 L54.3145655,17.7861077 L54.3145655,17.7861077 C54.3145655,9.65308948 60.9076794,3.05997552 69.0406977,3.05997552 Z" id="Rectangle-12" stroke="none" fill="#54C6AC" fill-rule="evenodd"></path>
                                    <circle id="Oval-Copy" stroke="none" fill="#319A81" fill-rule="evenodd" cx="65.0244798" cy="19.124847" r="6.88494492"></circle>
                                    <circle id="Oval" stroke="none" fill="#35AE92" fill-rule="evenodd" cx="65.4069767" cy="18.7423501" r="5.7374541"></circle>
                                    <path d="M81.3466482,8.71681497 C79.3017134,6.10880696 76.3958637,4.208246 73.0569155,3.44247246 L74.4487146,32.5221934 L76.4441057,32.5221934 C80.8773782,32.5221934 84.4773013,28.925533 84.4773013,24.4888277 L84.4773013,17.7960612 C84.4773013,17.182628 84.4398081,16.5779717 84.3669885,15.9842568 L77.5383826,15.9842568 C76.4823908,15.9842568 75.6263403,15.1292183 75.6263403,14.074822 L75.6263403,10.6262498 C75.6263403,9.57169804 76.4819422,8.71681497 77.5383826,8.71681497 L81.3466482,8.71681497 L81.3466482,8.71681497 Z" id="Combined-Shape" stroke="none" fill="#35AE92" fill-rule="evenodd"></path>
                                    <polygon id="Path-20" stroke="none" fill="#38475B" fill-rule="evenodd" points="86.2481391 6.58098841 86.2481391 19.9305028 77.9010222 17.5180964 76.499388 12.1084833 78.6280732 3.44247246"></polygon>
                                    <polygon id="Rectangle-23" stroke="none" fill="#608596" fill-rule="evenodd" opacity="0.200000003" points="77.2643819 5.35495716 79.9418605 5.35495716 84.1603804 19.5073439 81.4829018 19.5073439"></polygon>
                                    <polygon id="Rectangle-23-Copy" stroke="none" fill="#608596" fill-rule="evenodd" opacity="0.200000003" points="81.4718482 5.35495716 82.619339 5.35495716 86.837859 19.5073439 85.6903682 19.5073439"></polygon>
                                    <path d="M87.1638947,8.32436456 L87.1638947,2.82938075 C87.1638947,2.75324238 87.1607891,2.67713569 87.1545857,2.60125046 C87.0285929,1.05999435 85.6770205,-0.0873031876 84.1357644,0.038689693 L84.1357644,0.038689693 L76.0721911,0.697861661 L76.0721911,0.697861661 C75.4273575,0.750574798 74.9404031,1.30499541 74.9713333,1.95124025 L74.9713333,1.95124025 L76.517567,34.257659 C76.5481843,34.8973656 77.075756,35.4002908 77.7161949,35.4002908 L77.7161949,35.4002908 L84.3638947,35.4002908 C85.910292,35.4002908 87.1638947,34.1466881 87.1638947,32.6002908 L87.1638947,15.5918064 L79.5933475,15.5918064 C78.488778,15.5918064 77.5933475,14.6963759 77.5933475,13.5918064 L77.5933475,10.3243646 C77.5933475,9.21979506 78.488778,8.32436456 79.5933475,8.32436456 L79.5933475,8.32436456 L87.1638947,8.32436456 Z" id="Combined-Shape" stroke="none" fill="#DBDBDB" fill-rule="evenodd"></path>
                                    <path d="M49.7573397,75.6055516 L67.3497345,75.6055516 L67.3497345,75.6055516 C68.852627,75.6055516 70.1530122,74.5596918 70.4752931,73.091761 C72.1153572,65.6215676 71.9150456,60.2492831 69.8743582,56.9749074 C66.4801558,51.5287555 56.7817003,50.8080385 49.6759157,58.3134867 C45.6565314,62.5589406 44.4004713,67.3518056 45.9077355,72.6920817 L45.9077355,72.6920817 C46.3941434,74.4154376 47.9666559,75.6055516 49.7573397,75.6055516 Z" id="Path-22" stroke="none" fill="#54C6AC" fill-rule="evenodd"></path>
                                    <path d="M58.3511183,53.1425167 C55.4089454,53.819866 52.3577739,55.4807879 49.6759157,58.3134867 C42.5701311,65.818935 45.9268387,71.9379771 45.9268387,71.9379771 C46.5082933,73.9635226 48.6911161,75.6055516 50.8052671,75.6055516 L61.8707896,75.6055516 L56.9252181,75.6055516 C54.8110671,75.6055516 52.6670751,73.9530955 52.1335206,71.9146876 C52.1335206,71.9146876 48.6900822,64.3728371 55.7958667,55.7583629 C56.6175356,54.7622386 57.4738715,53.8923607 58.3511183,53.1425167 L58.3511183,53.1425167 Z" id="Combined-Shape" stroke="none" fill="#35AE92" fill-rule="evenodd" opacity="0.5"></path>
                                    <path d="M56.0020808,62.5970012 C54.1519269,62.5970012 52.6520808,64.0968473 52.6520808,65.9470012 L52.6520808,72.6044064 C52.6520808,73.3499908 53.2564964,73.9544064 54.0020808,73.9544064 L64.5719706,73.9544064 C65.317555,73.9544064 65.9219706,73.3499908 65.9219706,72.6044064 L65.9219706,65.9470012 C65.9219706,64.0968473 64.4221245,62.5970012 62.5719706,62.5970012 L56.0020808,62.5970012 Z" id="Rectangle-24" stroke="#319A81" stroke-width="0.5" fill="none"></path>
                                    <circle id="Oval-9" stroke="none" fill="#608596" fill-rule="evenodd" cx="58.9045288" cy="76.1168911" r="8.03243574"></circle>
                                    <g id="Group-7" stroke="none" stroke-width="1" fill="none" fill-rule="evenodd" transform="translate(50.872093, 68.084455)">
                                        <mask id="mask-21" fill="white">
                                            <use xlink:href="#path-20"></use>
                                        </mask>
                                        <use id="Oval-9" fill="#608596" xlink:href="#path-20"></use>
                                        <rect id="Rectangle-26" fill="#769BAD" mask="url(#mask-21)" x="10.3274174" y="2.67747858" width="4.20746634" height="1.9124847" rx="0.95624235"></rect>
                                        <rect id="Rectangle-26-Copy" fill="#769BAD" mask="url(#mask-21)" x="0" y="9.5624235" width="4.20746634" height="1.9124847" rx="0.95624235"></rect>
                                        <rect id="Rectangle-26-Copy-2" fill="#769BAD" mask="url(#mask-21)" x="8.03243574" y="14.1523868" width="4.20746634" height="1.9124847" rx="0.95624235"></rect>
                                    </g>
                                    <rect id="Rectangle-19" stroke="#FF8B8B" stroke-width="1.2" fill="none" x="117.644064" y="2.5124847" width="6.06744186" height="20.2198286" rx="3.03372093"></rect>
                                    <rect id="Rectangle-19-Copy" stroke="#44B8FF" stroke-width="1.2" fill="none" x="112.289106" y="9.39742962" width="14.8648715" height="20.2198286" rx="6"></rect>
                                    <rect id="Rectangle-19-Copy-2" stroke="#54C6AC" stroke-width="1.2" fill="none" x="112.289106" y="13.222399" width="14.8648715" height="16.3948592" rx="6"></rect>
                                    <circle id="Oval-9-Copy-2" stroke="none" fill="#A5C9DA" fill-rule="evenodd" cx="59.0957772" cy="76.3081395" r="2.10373317"></circle>
                                    <path d="M110.159119,84.1493268 C111.882372,82.7162151 114.097554,81.8543452 116.514036,81.8543452 C116.693054,81.8543452 116.870967,81.8590752 117.047656,81.8684172 C118.939026,77.1523792 123.55317,73.8219094 128.945187,73.8219094 C134.654492,73.8219094 139.491684,77.5558679 141.147922,82.7149466 C142.254375,82.403465 143.42151,82.2368421 144.627561,82.2368421 C144.892666,82.2368421 145.15589,82.2448929 145.417002,82.2607632 C147.742913,79.8856806 150.985584,78.4118727 154.572482,78.4118727 C159.03344,78.4118727 162.961969,80.6914768 165.25671,84.1493268 L110.159119,84.1493268 L110.159119,84.1493268 Z" id="Combined-Shape-Copy-4" stroke="none" fill="#EFF4EC" fill-rule="evenodd"></path>
                                    <path d="M134.638923,33.6597307 L134.638923,45.5171359 L130.431457,45.5171359 L130.431457,52.0195838 L110.541616,52.0195838 L110.541616,26.4798042 L110.541616,26.4798042 C110.541616,25.3752347 111.437046,24.4798042 112.541616,24.4798042 L114.749082,24.4798042 L114.749082,19.9773562 L114.749082,19.9773562 C114.749082,18.8727867 115.644513,17.9773562 116.749082,17.9773562 L120.486536,17.9773562 L120.486536,8.11995104 L120.486536,8.11995104 C120.486536,7.01538154 121.381967,6.11995104 122.486536,6.11995104 L140.376377,6.11995104 L140.376377,33.6597307 L134.638923,33.6597307 Z" id="Combined-Shape" stroke="none" fill="#38475B" fill-rule="evenodd"></path>
                                    <rect id="Rectangle-21" stroke="none" fill="#43576A" fill-rule="evenodd" x="123.164015" y="9.5624235" width="9.94492044" height="3.8249694" rx="1.6"></rect>
                                    <rect id="Rectangle-21-Copy" stroke="none" fill="#43576A" fill-rule="evenodd" x="117.044064" y="20.6548348" width="9.94492044" height="3.8249694" rx="1.6"></rect>
                                    <rect id="Rectangle-21-Copy-2" stroke="none" fill="#43576A" fill-rule="evenodd" x="109.394125" y="27.1572827" width="6.50244798" height="3.8249694" rx="1.6"></rect>
                                    <rect id="Rectangle-21-Copy-3" stroke="none" fill="#43576A" fill-rule="evenodd" x="114.366585" y="33.6597307" width="6.50244798" height="6.50244798" rx="1.6"></rect>
                                    <path d="M66.2594859,35.5722154 L68.379437,35.5722154 L68.379437,35.5722154 C69.4840065,35.5722154 70.379437,36.4676459 70.379437,37.5722154 L70.379437,39.3971848 L64.2594859,39.3971848 L64.2594859,37.5722154 L64.2594859,37.5722154 C64.2594859,36.4676459 65.1549164,35.5722154 66.2594859,35.5722154 Z" id="Rectangle-18" stroke="none" fill="#319A81" fill-rule="evenodd"></path>
                                    <path d="M129.686747,1.9124847 L147.538879,1.9124847 L147.538879,1.9124847 C148.864363,1.9124847 149.938879,2.9870013 149.938879,4.3124847 L149.938879,72.0078268 L152.792829,72.0078268 L152.792829,72.0078268 C153.676485,72.0078268 154.392829,72.7241712 154.392829,73.6078268 L154.392829,83.9448466 L102.126683,83.9448466 L102.126683,73.6078268 L102.126683,73.6078268 C102.126683,72.7241712 102.843027,72.0078268 103.726683,72.0078268 L106.90773,72.0078268 L106.90773,41.2480055 L106.90773,41.2480055 C106.90773,40.047204 107.795202,39.0312096 108.985104,38.8697891 L118.757385,37.5440955 L118.757385,37.5440955 C119.947288,37.382675 120.83476,36.3666806 120.83476,35.1658792 L120.83476,29.2361444 L125.789187,25.3146377 L127.292776,4.14247143 L127.292776,4.14247143 C127.381998,2.88612473 128.427236,1.9124847 129.686747,1.9124847 Z" id="Path-32" stroke="none" fill="#3390D5" fill-rule="evenodd"></path>
                                    <rect id="Rectangle-20" stroke="none" fill="#44B8FF" fill-rule="evenodd" x="111.30661" y="42.8396573" width="34.8072215" height="23.7148103" rx="1.6"></rect>
                                    <rect id="Rectangle-27" stroke="none" fill="#38475B" fill-rule="evenodd" x="139.99388" y="17.2123623" width="5.7374541" height="17.2123623" rx="1.6"></rect>
                                    <rect id="Rectangle-20-Copy" stroke="none" fill="#38475B" fill-rule="evenodd" x="114.366585" y="45.8996328" width="28.6872705" height="17.5948592" rx="1.6"></rect>
                                    <circle id="Oval-8" stroke="none" fill="#FFD19B" fill-rule="evenodd" cx="106.334149" cy="11.8574051" r="1"></circle>
                                    <circle id="Oval-8-Copy" stroke="none" fill="#FFD19B" fill-rule="evenodd" cx="100.787944" cy="17.0211138" r="1.33873929"></circle>
                                    <circle id="Oval-8-Copy-2" stroke="none" fill="#FFD19B" fill-rule="evenodd" cx="109.776622" cy="17.9773562" r="1"></circle>
                                    <circle id="Oval-8-Copy-3" stroke="none" fill="#FFD19B" fill-rule="evenodd" cx="105.951652" cy="22.5673195" r="1"></circle>
                                    <circle id="Oval-8-Copy-4" stroke="none" fill="#FFD19B" fill-rule="evenodd" cx="105.569155" cy="35.5722154" r="1"></circle>
                                    <rect id="Rectangle-22" stroke="none" fill="#2576B2" fill-rule="evenodd" x="107.099143" y="69.2319461" width="29.4522644" height="2.67747858"></rect>
                                    <rect id="Rectangle-22-Copy-2" stroke="none" fill="#2576B2" fill-rule="evenodd" opacity="0.200000003" x="102.126683" y="79.7903248" width="46.6646267" height="3.97650505"></rect>
                                    <rect id="Rectangle-22-Copy" stroke="none" fill="#2576B2" fill-rule="evenodd" x="140.758874" y="69.2319461" width="9.17992656" height="2.67747858"></rect>
                                    <rect id="Rectangle-25" stroke="none" fill="#35AE92" fill-rule="evenodd" x="55.8445532" y="64.2594859" width="6.11995104" height="1.14749082"></rect>
                                    <rect id="Rectangle-25-Copy" stroke="none" fill="#35AE92" fill-rule="evenodd" x="55.8445532" y="66.1719706" width="6.11995104" height="1.14749082"></rect>
                                    <path d="M100.02295,22.5673195 L100.02295,25.4849312" id="Path-33" stroke="#FFD19B" stroke-width="1.2" fill="none" stroke-linecap="round"></path>
                                    <path d="M101.256954,23.9549435 L98.875459,23.9549435" id="Path-33-Copy" stroke="#FFD19B" stroke-width="1.2" fill="none" stroke-linecap="round"></path>
                                    <rect id="Rectangle-28" stroke="none" fill="#9EBBD7" fill-rule="evenodd" x="141.523868" y="17.9773562" width="2.29498164" height="9.5624235"></rect>
                                    <rect id="Rectangle-28-Copy-2" stroke="none" fill="#43576A" fill-rule="evenodd" opacity="0.300000012" x="141.523868" y="23.7148103" width="2.29498164" height="3.8249694"></rect>
                                    <rect id="Rectangle-28-Copy" stroke="none" fill="#43576A" fill-rule="evenodd" opacity="0.5" x="141.523868" y="25.627295" width="2.29498164" height="1.9124847"></rect>
                                    <circle id="Oval-10" stroke="none" fill="#D26363" fill-rule="evenodd" cx="142.671359" cy="18.7423501" r="2.29498164"></circle>
                                    <circle id="Oval-10-Copy" stroke="none" fill="#FF8B8B" fill-rule="evenodd" cx="142.288862" cy="17.9773562" r="1.14749082"></circle>
                                    <rect id="Rectangle-29" stroke="none" fill="#53ABED" fill-rule="evenodd" x="141.523868" y="11.0924113" width="3.44247246" height="3.44247246" rx="1.6"></rect>
                                    <rect id="Rectangle-29-Copy" stroke="none" fill="#53ABED" fill-rule="evenodd" x="141.523868" y="5.35495716" width="3.44247246" height="3.44247246" rx="1.6"></rect>
                                    <rect id="Rectangle-29-Copy-2" stroke="none" fill="#53ABED" fill-rule="evenodd" x="129.666463" y="29.8347613" width="3.44247246" height="3.44247246" rx="1.6"></rect>
                                    <g id="Group-2" stroke="none" stroke-width="1" fill="none" fill-rule="evenodd" transform="translate(99.066707, 63.494492)" opacity="0.600000024">
                                        <path d="M1.25159731,20.6548377 C0.454311478,19.2257042 1.13686838e-13,17.5791234 1.13686838e-13,15.8264325 C1.13686838e-13,10.3449783 4.44359664,5.90138161 9.92505089,5.90138161 C9.98267532,5.90138161 10.040185,5.9018727 10.0975761,5.90285091 C10.8338068,2.52740243 13.8397003,0 17.4359002,0 C20.6908722,0 23.4622463,2.07052863 24.5047823,4.96634569 C25.1367577,4.70460384 25.829619,4.56015852 26.5562173,4.56015852 C29.5191655,4.56015852 31.9211096,6.96210265 31.9211096,9.92505089 C31.9211096,9.93059936 31.9211012,9.93614586 31.9210844,9.94169038 C36.919063,10.1902938 41.1895444,13.2023891 43.2359874,17.4814352 C43.9671745,17.2769779 44.7380824,17.1676556 45.534524,17.1676556 C48.356868,17.1676556 50.8585673,18.5404988 52.4082724,20.6548356 L1.25159616,20.6548356 L1.25159731,20.6548377 Z" id="Combined-Shape" fill="#E5ECE0"></path>
                                    </g>
                                </g>
                            </g>
                            <path d="M96.351323,116.906836 L96.351323,115.969208 C96.351323,115.71725 96.5592303,115.514076 96.8086095,115.514076 C97.0604249,115.514076 97.265896,115.717168 97.265896,115.969208 L97.265896,116.800461 C97.3405147,116.79765 97.4154982,116.796231 97.4908201,116.796231 C100.65879,116.796231 103.228274,119.306114 103.228274,122.403904 C103.228274,123.614179 102.836071,124.734717 102.169205,125.650902 C102.191425,125.890219 102.265173,126.014966 102.421285,126.13009 C102.437774,126.14225 102.482831,126.172857 102.542022,126.2123 C102.577914,126.236167 102.577914,126.236167 102.605947,126.254694 C102.617552,126.26235 102.617552,126.26235 102.630258,126.270697 C102.629514,126.27022 102.633654,126.272937 102.633654,126.272937 C103.026662,126.540953 103.182022,126.859187 103.096707,127.300088 C102.954798,128.033466 102.249146,128.270863 101.233672,128.065905 C100.725946,127.963428 100.200027,127.759208 99.8284591,127.526527 C99.1144135,127.838269 98.3232795,128.011577 97.4908201,128.011577 C94.3228504,128.011577 91.753366,125.501693 91.753366,122.403904 C91.753366,120.088894 93.1883521,118.102214 95.2357238,117.246005 C95.2235721,117.205874 95.2170412,117.163196 95.2170412,117.118887 L95.2170412,116.720247 C95.2170412,116.483801 95.4105335,116.289503 95.6446016,116.289503 C95.8819695,116.289503 96.072162,116.481136 96.072162,116.720247 L96.072162,116.968984 C96.1643456,116.946067 96.2574197,116.925331 96.351323,116.906836 Z M101.086381,125.274594 C101.742343,124.492704 102.135869,123.493032 102.135869,122.403899 C102.135869,119.900598 100.056948,117.869901 97.4908201,117.869901 C94.9246917,117.869901 92.8457712,119.900598 92.8457712,122.403899 C92.8457712,124.9072 94.9246917,126.937897 97.4908201,126.937897 C98.3622712,126.937897 99.1775342,126.703704 99.8742705,126.296339 C100.081618,126.461399 100.081618,126.461399 100.081618,126.461399 C100.390371,126.649953 101.070326,126.936858 101.453439,127.014183 C101.611028,127.04599 101.753336,127.061183 101.868324,127.060308 C101.823536,127.030002 101.787765,127.005209 101.765647,126.988899 C101.374305,126.700305 101.143639,126.235361 101.086638,125.648037 C101.086638,125.648037 101.086638,125.648037 101.086638,125.283116 C101.086638,125.280168 101.086552,125.277328 101.086381,125.274594 Z M98.7016141,120.759577 C98.7016141,121.592924 98.0021349,122.266697 97.1415067,122.266697 C96.2808785,122.266697 95.5813993,121.592924 95.5813993,120.759577 C95.5813993,119.92623 96.2808785,119.252456 97.1415067,119.252456 C98.0021349,119.252456 98.7016141,119.92623 98.7016141,120.759577 Z M98.0442998,123.680907 C97.7457382,123.680907 97.5037062,123.444489 97.5037062,123.152853 C97.5037062,122.861217 97.7457382,122.6248 98.0442998,122.6248 C98.3428614,122.6248 98.5848934,122.861217 98.5848934,123.152853 C98.5848934,123.444489 98.3428614,123.680907 98.0442998,123.680907 Z M96.9797068,123.530205 C96.9797068,124.074316 96.5225716,124.514651 95.9596036,124.514651 C95.3966356,124.514651 94.9395005,124.074316 94.9395005,123.530205 C94.9395005,122.986094 95.3966356,122.545759 95.9596036,122.545759 C96.5225716,122.545759 96.9797068,122.986094 96.9797068,123.530205 Z" id="Combined-Shape" stroke="none" fill="#53ABED" fill-rule="nonzero" mask="url(#mask-4)"></path>
                            <rect id="Rectangle-43" stroke="none" fill="none" mask="url(#mask-4)" x="0" y="0" width="200" height="200"></rect>
                        </g>
                    </g>
                </g>
            </g>
        </g>
    </g>
</svg>