<?xml version="1.0" encoding="UTF-8"?>
<svg width="200px" height="199px" viewBox="0 0 200 199" version="1.1" xmlns="http://www.w3.org/2000/svg" xmlns:xlink="http://www.w3.org/1999/xlink">
    <!-- Generator: Sketch 45.2 (43514) - http://www.bohemiancoding.com/sketch -->
    <title>about_hero_mobile</title>
    <desc>Created with Sketch.</desc>
    <defs>
        <rect id="path-1" x="0" y="0" width="199.848115" height="200"></rect>
        <linearGradient x1="50%" y1="2.60262688%" x2="50%" y2="90.5813363%" id="linearGradient-3">
            <stop stop-color="#D5F2FE" offset="0%"></stop>
            <stop stop-color="#C4E1FF" stop-opacity="0.661118659" offset="100%"></stop>
        </linearGradient>
        <linearGradient x1="50%" y1="2.60262688%" x2="50%" y2="72.3897883%" id="linearGradient-4">
            <stop stop-color="#D5F2FE" offset="0%"></stop>
            <stop stop-color="#C4E1FF" stop-opacity="0.116536458" offset="100%"></stop>
        </linearGradient>
        <linearGradient x1="50%" y1="2.60262688%" x2="50%" y2="90.5813363%" id="linearGradient-5">
            <stop stop-color="#D5F2FE" offset="0%"></stop>
            <stop stop-color="#C4E1FF" stop-opacity="0.116536458" offset="100%"></stop>
        </linearGradient>
        <ellipse id="path-6" cx="2.45038357" cy="2.44680299" rx="2.45038357" ry="2.44680299"></ellipse>
        <ellipse id="path-7" cx="64.2226479" cy="60" rx="11.966953" ry="2.8"></ellipse>
        <filter x="-29.2%" y="-125.0%" width="158.5%" height="350.0%" filterUnits="objectBoundingBox" id="filter-8">
            <feGaussianBlur stdDeviation="6.5" in="SourceAlpha" result="shadowBlurInner1"></feGaussianBlur>
            <feOffset dx="0" dy="1" in="shadowBlurInner1" result="shadowOffsetInner1"></feOffset>
            <feComposite in="shadowOffsetInner1" in2="SourceAlpha" operator="arithmetic" k2="-1" k3="1" result="shadowInnerInner1"></feComposite>
            <feColorMatrix values="0 0 0 0 0.22745098   0 0 0 0 0.639215686   0 0 0 0 0.890196078  0 0 0 0.10510077 0" type="matrix" in="shadowInnerInner1"></feColorMatrix>
        </filter>
        <ellipse id="path-9" cx="64.2226479" cy="64.4" rx="16.7537342" ry="4"></ellipse>
        <filter x="-20.9%" y="-87.5%" width="141.8%" height="275.0%" filterUnits="objectBoundingBox" id="filter-10">
            <feGaussianBlur stdDeviation="6.5" in="SourceAlpha" result="shadowBlurInner1"></feGaussianBlur>
            <feOffset dx="0" dy="1" in="shadowBlurInner1" result="shadowOffsetInner1"></feOffset>
            <feComposite in="shadowOffsetInner1" in2="SourceAlpha" operator="arithmetic" k2="-1" k3="1" result="shadowInnerInner1"></feComposite>
            <feColorMatrix values="0 0 0 0 0.22745098   0 0 0 0 0.639215686   0 0 0 0 0.890196078  0 0 0 0.10510077 0" type="matrix" in="shadowInnerInner1"></feColorMatrix>
        </filter>
        <ellipse id="path-11" cx="64.4220971" cy="68.2952381" rx="21.3410662" ry="5.0952381"></ellipse>
        <filter x="-16.4%" y="-68.7%" width="132.8%" height="237.4%" filterUnits="objectBoundingBox" id="filter-12">
            <feGaussianBlur stdDeviation="6.5" in="SourceAlpha" result="shadowBlurInner1"></feGaussianBlur>
            <feOffset dx="0" dy="1" in="shadowBlurInner1" result="shadowOffsetInner1"></feOffset>
            <feComposite in="shadowOffsetInner1" in2="SourceAlpha" operator="arithmetic" k2="-1" k3="1" result="shadowInnerInner1"></feComposite>
            <feColorMatrix values="0 0 0 0 0.22745098   0 0 0 0 0.639215686   0 0 0 0 0.890196078  0 0 0 0.10510077 0" type="matrix" in="shadowInnerInner1"></feColorMatrix>
        </filter>
        <path d="M38.2752434,13.6 L38.2830537,13.6 L38.2830537,13.6 C41.5865121,13.6 44.2675493,16.2721933 44.2784644,19.5756336 L44.3218269,32.6992187 L32.3548739,32.6992187 L32.3115372,19.5834438 L32.3115372,19.5834438 C32.3006544,16.2897798 34.9618744,13.6109154 38.2555384,13.6000326 C38.2621067,13.6000109 38.2686751,13.6 38.2752434,13.6 Z" id="path-13"></path>
    </defs>
    <g id="pages_for_valérie" stroke="none" stroke-width="1" fill="none" fill-rule="evenodd">
        <g id="700-card---extra" transform="translate(-60.000000, -20.000000)">
            <g id="Group-10" transform="translate(10.000000, 20.000000)">
                <g id="about_hero_mobile" transform="translate(50.000000, 0.000000)">
                    <mask id="mask-2" fill="white">
                        <use xlink:href="#path-1"></use>
                    </mask>
                    <g id="Rectangle-43"></g>
                    <g id="header-illustration" mask="url(#mask-2)">
                        <g transform="translate(-0.500000, 0.000000)">
                            <g id="Group" transform="translate(0.398898, 0.000000)">
                                <g id="Group-4" transform="translate(3.292289, 0.000000)" stroke="url(#linearGradient-3)" stroke-width="1.19908869">
                                    <ellipse id="Oval-2" cx="19.7454725" cy="19.8" rx="19.7454725" ry="19.8"></ellipse>
                                    <ellipse id="Oval-2-Copy" cx="15.3575897" cy="11.4" rx="3.39063669" ry="3.4"></ellipse>
                                    <ellipse id="Oval-2-Copy-2" cx="23.5350076" cy="17.2" rx="1.99449217" ry="2"></ellipse>
                                    <ellipse id="Oval-2-Copy-3" cx="9.57356242" cy="26.8" rx="1.1966953" ry="1.2"></ellipse>
                                </g>
                                <path d="M81.1999569,95.2 L81.1999569,86 L108.819345,86 L108.819345,95.2 L112.596356,95.2 L112.596356,139.40142 L77.4229466,139.815955 L77.4229466,95.2 L81.1999569,95.2 Z" id="Combined-Shape" stroke="url(#linearGradient-4)" stroke-width="1.19908869"></path>
                                <path d="M98.4259683,149.6 C99.7391383,144.341427 104.491471,140.446154 110.152905,140.446154 C112.994441,140.446154 115.606961,141.42743 117.670567,143.069843 C117.839372,136.536593 123.18445,131.292308 129.753472,131.292308 C131.751115,131.292308 133.635571,131.777284 135.295691,132.636004 C136.184589,129.774179 138.851716,127.696154 142.003826,127.696154 C141.968104,126.867418 141.840488,125.989008 141.840488,125.080769 C141.840488,119.844685 146.081966,115.6 151.314095,115.6 C155.208458,115.6 158.553993,117.951589 160.010196,121.313251 C161.086032,120.999184 162.223919,120.830769 163.401111,120.830769 C170.076586,120.830769 175.488127,126.246402 175.488127,132.926923 C175.488127,133.505883 175.447483,134.075342 175.368895,134.632599 C175.368895,134.632599 194.305046,132.926923 199.671092,147.868329" id="Combined-Shape-Copy-2" stroke="url(#linearGradient-4)" stroke-width="1.19908869"></path>
                                <polyline id="Path-7" stroke="url(#linearGradient-4)" stroke-width="1.19908869" points="59.3430149 128.881839 59.3430149 51.190625 36.2641392 51.190625 13.6900284 133.990625"></polyline>
                                <g id="Group-38" transform="translate(95.003834, 49.160900) rotate(-8.000000) translate(-95.003834, -49.160900) translate(34.003834, 10.910900)" stroke="url(#linearGradient-4)" stroke-width="1.19908869">
                                    <polyline id="Path-51-Copy-6" points="47.5640417 12.8 47.5640417 0.324728656 107.119018 0.324728656 107.119018 10.8735598"></polyline>
                                    <rect id="Rectangle-60-Copy-9" transform="translate(101.249639, 10.006172) rotate(-1.000000) translate(-101.249639, -10.006172) " x="99.0192577" y="5.49590925" width="4.46076268" height="9.02052484" rx="2.23038134"></rect>
                                    <rect id="Rectangle-60-Copy-8" transform="translate(70.060080, 10.481915) rotate(-1.000000) translate(-70.060080, -10.481915) " x="67.8296984" y="5.97165291" width="4.46076268" height="9.02052484" rx="2.23038134"></rect>
                                    <polyline id="Path-51-Copy-5" points="38.7706895 23.6752713 38.7706895 11.2 112.528466 11.2 112.528466 21.7488311"></polyline>
                                    <rect id="Rectangle-60-Copy-6" transform="translate(61.602175, 18.998850) rotate(-1.000000) translate(-61.602175, -18.998850) " x="59.3717933" y="14.4885876" width="4.46076268" height="9.02052484" rx="2.23038134"></rect>
                                    <rect id="Rectangle-60-Copy-7" transform="translate(79.781441, 19.103233) rotate(-1.000000) translate(-79.781441, -19.103233) " x="77.5510593" y="14.5929701" width="4.46076268" height="9.02052484" rx="2.23038134"></rect>
                                    <polyline id="Path-51-Copy-4" points="28.3785459 33.2752713 28.3785459 20.8 121.721516 20.8 121.721516 31.3488311"></polyline>
                                    <rect id="Rectangle-60-Copy-3" transform="translate(84.267621, 28.223802) rotate(-1.000000) translate(-84.267621, -28.223802) " x="82.03724" y="23.7135394" width="4.46076268" height="9.02052484" rx="2.23038134"></rect>
                                    <rect id="Rectangle-60-Copy-4" transform="translate(38.860379, 28.704271) rotate(-1.000000) translate(-38.860379, -28.704271) " x="36.6299972" y="24.1940081" width="4.46076268" height="9.02052484" rx="2.23038134"></rect>
                                    <polyline id="Path-51-Copy-3" points="21.5836828 42.4752713 21.5836828 30 114.926653 30 114.926653 40.5488311"></polyline>
                                    <rect id="Rectangle-60-Copy-2" transform="translate(59.351457, 37.823802) rotate(-1.000000) translate(-59.351457, -37.823802) " x="57.1210754" y="33.3135394" width="4.46076268" height="9.02052484" rx="2.23038134"></rect>
                                    <polyline id="Path-51-Copy-2" points="14.7888197 51.6752713 14.7888197 39.2 121.321819 39.2 121.321819 49.7488311"></polyline>
                                    <rect id="Rectangle-60" transform="translate(23.184121, 48.333598) rotate(-1.000000) translate(-23.184121, -48.333598) " x="20.9537393" y="43.8233358" width="4.46076268" height="9.02052484" rx="2.23038134"></rect>
                                    <rect id="Rectangle-60-Copy" transform="translate(79.650227, 48.333598) rotate(-1.000000) translate(-79.650227, -48.333598) " x="77.4198458" y="43.8233358" width="4.46076268" height="9.02052484" rx="2.23038134"></rect>
                                    <polyline id="Path-51-Copy" points="8.39365442 62.4752713 8.39365442 50 114.926653 50 114.926653 60.5488311"></polyline>
                                    <rect id="Rectangle-60-Copy-5" transform="translate(47.230279, 60.303384) rotate(-1.000000) translate(-47.230279, -60.303384) " x="44.9998973" y="55.7931219" width="4.46076268" height="9.02052484" rx="2.23038134"></rect>
                                </g>
                                <path d="M0.778124881,138.8 C2.09129496,133.541427 6.84362717,129.646154 12.5050618,129.646154 L12.5050618,129.646154 C15.3465979,129.646154 17.9591178,130.62743 20.0227241,132.269843 C20.1915282,125.736593 25.5366068,120.492308 32.1056285,120.492308 C34.1032712,120.492308 35.9877272,120.977284 37.6478478,121.836004 C38.5367453,118.974179 41.2038729,116.896154 44.3559826,116.896154 C44.3202602,116.067418 44.1926446,115.189008 44.1926446,114.280769 C44.1926446,109.044685 48.434123,104.8 53.6662518,104.8 C57.5606147,104.8 60.9061495,107.151589 62.3623525,110.513251 C63.4381884,110.199184 64.5760753,110.030769 65.7532679,110.030769 C72.4287425,110.030769 77.840284,115.446402 77.840284,122.126923 C77.840284,122.705883 77.79964,123.275342 77.7210516,123.832599 L102.023249,137.068329 L100.501116,138.8" id="Combined-Shape" stroke="url(#linearGradient-5)" stroke-width="1.19908869"></path>
                                <path d="M179.30024,44.2 L179.30024,35.3672131 L176.860082,35.9571026 L176.860082,13.4 L174.271032,13.4 L174.271032,36.5829853 L167.081067,38.321104 L167.081067,30.7770492 L164.492017,30.7770492 L164.492017,38.9469867 L156.31496,40.9237274 L156.31496,44.2 L150.801397,44.2 L150.801397,133.215955 L179.325897,132.388891 L179.325897,44.2 L179.30024,44.2 Z" id="Combined-Shape" stroke="url(#linearGradient-5)" stroke-width="1.19908869"></path>
                                <path d="M20.1459798,71.8 C17.4229241,98.4027059 11.6390337,124.511537 0.37876414,143.716776 L43.0816543,144.080263 C33.4230202,136.097624 28.094423,101.42545 25.2533936,71.8 L30.5542644,71.8 C31.7692908,71.8 32.7542644,70.8150264 32.7542644,69.6 C32.7542644,68.3849736 31.7692908,67.4 30.5542644,67.4 L24.8458445,67.4 C22.8457123,45.0328172 22.2665047,26.6 22.2665047,26.6 C22.2665047,39.6357971 21.8140159,53.5369619 20.5685502,67.4 L14.569699,67.4 C13.3546726,67.4 12.369699,68.3849736 12.369699,69.6 C12.369699,70.8150264 13.3546726,71.8 14.569699,71.8 L20.1459798,71.8 Z" id="Combined-Shape" stroke="url(#linearGradient-5)" stroke-width="1.19908869"></path>
                                <path d="M151.532561,13.9755597 C151.321646,13.9354562 151.104086,13.9144828 150.881698,13.9144828 C148.942277,13.9144828 147.370067,15.5095841 147.370067,17.4772414 C147.370067,19.4448986 148.942277,21.04 150.881698,21.04 C150.937754,21.04 150.993504,21.0386674 151.048918,21.0360317 L151.048918,21.04 L160.747708,21.04 L160.747708,21.00392 C162.449492,20.7569549 163.757678,19.272094 163.757678,17.4772414 C163.757678,15.5095841 162.185467,13.9144828 160.246047,13.9144828 C160.242149,13.9144828 160.238252,13.9144892 160.234356,13.9145021 C159.437318,12.3046998 157.794972,11.2 155.898313,11.2 C153.977769,11.2 152.317984,12.3326988 151.532561,13.9755597 Z" id="Combined-Shape" stroke="url(#linearGradient-3)" stroke-width="1.19908869"></path>
                                <path d="M55.0244212,19.5755597 C54.8135061,19.5354562 54.5959459,19.5144828 54.3735575,19.5144828 C52.4341373,19.5144828 50.8619265,21.1095841 50.8619265,23.0772414 C50.8619265,25.0448986 52.4341373,26.64 54.3735575,26.64 C54.4296141,26.64 54.485364,26.6386674 54.540778,26.6360317 L54.540778,26.64 L64.2395682,26.64 L64.2395682,26.60392 C65.9413518,26.3569549 67.2495376,24.872094 67.2495376,23.0772414 C67.2495376,21.1095841 65.6773268,19.5144828 63.7379066,19.5144828 C63.7340083,19.5144828 63.7301115,19.5144892 63.7262161,19.5145021 C62.9291773,17.9046998 61.2868321,16.8 59.3901731,16.8 C57.4696287,16.8 55.8098438,17.9326988 55.0244212,19.5755597 Z" id="Combined-Shape-Copy" stroke="url(#linearGradient-3)" stroke-width="1.19908869"></path>
                                <g id="Group-3" transform="translate(149.986908, 70.400000)" stroke="url(#linearGradient-3)" stroke-width="1.19908869">
                                    <ellipse id="Oval-5" fill="#FFFFFF" cx="13.6684487" cy="20.1826087" rx="6.49811494" ry="5.91207729"></ellipse>
                                    <ellipse id="Oval-5-Copy" cx="13.8925216" cy="38.7342995" rx="3.58516686" ry="3.26183575"></ellipse>
                                </g>
                                <g id="Group-2" transform="translate(117.211686, 76.800000)" stroke-width="1.19908869">
                                    <path d="M0,76.1972764 L0,19.8134188 L0,19.8134188 C0,8.87076977 8.94510959,0 19.9848819,0 L19.9848819,0 C31.0222274,0 39.9697638,8.87107755 39.9697638,19.8134188 L39.9697638,76.1972764" id="Rectangle-18" stroke="url(#linearGradient-5)"></path>
                                    <path d="M6.82871581,73.4033616 L7.04012885,22.7642858 C7.04012885,14.9303439 12.9357693,8.57967914 20.2119828,8.57967914 C27.4865969,8.57967914 33.3838368,14.9305642 33.3838368,22.7642858 L33.1724238,73.4033616" id="Rectangle-18-Copy" stroke="url(#linearGradient-5)"></path>
                                    <path d="M7.94853257,27.5775401 L20.2119828,27.5775401" id="Line-Copy-7" stroke="url(#linearGradient-3)"></path>
                                    <path d="M7.94853257,37.3828877 L20.2119828,37.3828877" id="Line-Copy-8" stroke="url(#linearGradient-3)"></path>
                                </g>
                            </g>
                            <g id="Group-12" transform="translate(108.601476, 55.600000)">
                                <g id="Group-5" transform="translate(0.000000, 4.800000)">
                                    <g id="Group-9">
                                        <rect id="Rectangle-21-Copy" fill="#1DA1F2" transform="translate(18.748226, 9.272727) scale(-1, 1) translate(-18.748226, -9.272727) " x="4.26325641e-14" y="0" width="37.4964528" height="18.5454545" rx="9.27272727"></rect>
                                        <polygon id="Path-17-Copy" fill="#1DA1F2" transform="translate(33.964790, 15.631040) scale(1, -1) rotate(90.000000) translate(-33.964790, -15.631040) " points="31.0796051 10.6 31.0796051 20.6620806 36.8499758 14.88277"></polygon>
                                        <ellipse id="Oval-9-Copy" fill="#FFFFFF" transform="translate(9.258383, 9.272727) scale(-1, 1) translate(-9.258383, -9.272727) " cx="9.25838341" cy="9.27272727" rx="2.31459585" ry="2.31818182"></ellipse>
                                        <ellipse id="Oval-9-Copy-2" fill="#FFFFFF" transform="translate(28.700989, 9.272727) scale(-1, 1) translate(-28.700989, -9.272727) " cx="28.7009886" cy="9.27272727" rx="2.31459585" ry="2.31818182"></ellipse>
                                        <rect id="Rectangle-25-Copy" fill="#FFFFFF" transform="translate(18.979686, 9.272727) scale(-1, 1) translate(-18.979686, -9.272727) " x="13.8875751" y="6.95454545" width="10.1842217" height="4.63636364" rx="2.31818182"></rect>
                                    </g>
                                </g>
                                <rect id="Rectangle-52" fill="#35AE92" x="53.8512886" y="42" width="17.5515311" height="12.8" rx="3.19756985"></rect>
                                <path d="M36.8070834,39.7795497 C36.8070834,39.7795497 45.6555565,40.1472525 51.1153704,50.0290339" id="Path-42-Copy" stroke="#CAD5C4" stroke-width="3.43738774" stroke-linecap="round" stroke-linejoin="round" transform="translate(43.961227, 44.904292) scale(-1, 1) rotate(12.000000) translate(-43.961227, -44.904292) "></path>
                                <rect id="Rectangle-54" fill="#E5ECE0" x="53.6518394" y="42.0240602" width="11.7360118" height="10.3759398" rx="5.18796992"></rect>
                                <path d="M48.4721432,35.2 L52.6965826,35.2 L52.6965826,40.7737068 L52.6965826,40.7737068 C52.6965826,42.4293028 51.3544569,43.7714286 49.6988609,43.7714286 L48.4721432,43.7714286 L48.4721432,43.7714286 C46.8165472,43.7714286 45.4744215,42.4293028 45.4744215,40.7737068 L45.4744215,38.1977217 L45.4744215,38.1977217 C45.4744215,36.5421257 46.8165472,35.2 48.4721432,35.2 Z" id="Rectangle-55-Copy" fill="#35AE92"></path>
                                <path d="M54.2602932,32.8 L62.5258747,32.8 L62.5258747,32.8 C65.9695143,32.8 68.7611359,35.5916215 68.7611359,39.0352612 C68.7611359,39.3773755 68.7329794,39.7189095 68.6769516,40.0564048 L68.0907867,43.5872946 L68.0907867,43.5872946 C67.5130198,47.0675972 64.4969104,49.6155046 60.9689964,49.6035428 L56.7736068,49.5893178 L56.7736068,49.5893178 C52.2572118,49.5740044 48.5158621,46.0803473 48.1917064,41.5755741 L48.0411127,39.4827828 L48.0411127,39.4827828 C47.7939533,36.0480242 50.3780131,33.06324 53.8127717,32.8160807 C53.9617049,32.8053637 54.110975,32.8 54.2602932,32.8 Z" id="Path-34" fill="#54C6AB" transform="translate(58.467681, 41.199991) rotate(-360.000000) translate(-58.467681, -41.199991) "></path>
                                <rect id="Rectangle-53" fill="#E5ECE0" x="55.4468823" y="25.2" width="6.77077605" height="11.2781955" rx="3.19756985"></rect>
                                <rect id="Rectangle-53-Copy" fill="#CAD5C4" x="55.4468823" y="23.6" width="6.77077605" height="11.2781955" rx="3.19756985"></rect>
                                <path d="M41.9861086,16.2990264 L43.1170152,16.2990264 L43.1170152,16.2990264 C45.4839498,16.2990264 47.4027295,18.2178061 47.4027295,20.5847407 L47.4027295,21.473037 L47.4027295,21.473037 C47.4027295,23.3493792 45.8816536,24.870455 44.0053115,24.870455 L41.9861086,24.870455 L41.9861086,16.2990264 Z" id="Rectangle-56-Copy" fill="#35AE92" transform="translate(44.694419, 20.584741) scale(-1, 1) rotate(-7.000000) translate(-44.694419, -20.584741) "></path>
                                <path d="M58.0092223,4.82613855 L58.0092223,4.82613855 L58.0092223,4.82613855 C64.8664772,4.82613855 70.4337895,10.3691002 70.4638476,17.2262892 L70.5169816,29.3477628 L70.5169816,29.3477628 C70.5251096,31.2020125 69.0285323,32.7117679 67.1742826,32.7198959 C67.1693769,32.7199174 67.1644712,32.7199282 67.1595655,32.7199282 L49.0739871,32.7199282 L49.0739871,32.7199282 C47.2254644,32.7199282 45.7246738,31.2257019 45.716571,29.3771969 L45.663308,17.2262892 L45.663308,17.2262892 C45.6334196,10.407829 51.1366444,4.85614558 57.9551046,4.82625716 C57.9731437,4.82617809 57.991183,4.82613855 58.0092223,4.82613855 Z" id="Rectangle-12" fill="#54C6AB" transform="translate(58.090281, 18.773033) rotate(6.000000) translate(-58.090281, -18.773033) "></path>
                                <g id="Group-33" transform="translate(58.239171, 24.000000)">
                                    <path d="M0.28224756,0.631691614 C1.04072084,0.106335367 1.11702771,0.631691614 2.69311318,0.631691614 C4.26919864,0.631691614 4.58153403,-0.310273099 5.61796618,0.106335367 C6.65439832,0.522943832 5.6314547,3.44814062 2.94357822,3.44814062 C0.255701743,3.44814062 -0.476225717,1.15704786 0.28224756,0.631691614 Z" id="Path-33" fill="#2D6154"></path>
                                    <path d="M5.26337338,2.31221888 C4.75022793,2.93601059 3.91858836,3.44524988 2.79710531,3.44524988 C2.21938386,3.44524988 1.73202235,3.33940715 1.3303981,3.16800399 C1.64166037,2.68984225 2.20521817,2.12981347 3.17341211,1.9997704 C3.97205524,1.89250056 4.70293123,2.07768072 5.26337338,2.31221888 L5.26337338,2.31221888 Z" id="Combined-Shape" fill="#4D8A7B"></path>
                                </g>
                                <path d="M61.470789,0.585121275 L61.470789,0.585121275 L61.470789,0.585121275 C61.6392556,0.113871228 62.1578484,-0.131583237 62.6290985,0.0368833832 C62.6867706,0.0575005099 62.7422039,0.0839114998 62.794548,0.11571123 L65.5015173,1.76022827 L65.5015173,1.76022827 C65.8114554,1.94851945 65.955813,2.32185883 65.8531714,2.66968046 L65.8447505,2.69821648 L65.8447505,2.69821648 C65.7504432,3.01779598 65.4149216,3.20041515 65.0953421,3.10610781 C65.0824813,3.10231261 65.0697506,3.0980897 65.0571712,3.09344613 L62.1391826,2.01629688 L62.1391826,2.01629688 C61.5617222,1.80313256 61.2635799,1.16474524 61.470789,0.585121275 Z" id="Path-38" fill="#319A81"></path>
                                <path d="M46.7060549,2.42279652 L46.9044822,1.86773758 L46.9044822,1.86773758 C47.1274084,1.24414828 47.8136448,0.919346669 48.4372341,1.14227287 C48.5135496,1.16955481 48.5869026,1.20450359 48.6561679,1.2465831 L52.9837366,3.87563418 L52.9837366,3.87563418 C53.2936747,4.06392535 53.4380323,4.43726474 53.3353908,4.78508637 L53.2180353,5.18276909 L53.2180353,5.18276909 C53.093079,5.60620897 52.648516,5.84817768 52.2250761,5.72322134 C52.2080356,5.71819273 52.1911676,5.71259742 52.1745,5.70644473 L47.4199188,3.95133378 L47.4199188,3.95133378 C46.8031742,3.72366808 46.4847495,3.04185181 46.7060549,2.42279652 Z" id="Path-38-Copy" fill="#319A81" transform="translate(49.979970, 3.359437) scale(-1, 1) rotate(-10.000000) translate(-49.979970, -3.359437) "></path>
                                <ellipse id="Oval-27-Copy" fill="#35AE92" cx="55.7827968" cy="16.7157895" rx="6.31939098" ry="6.31578947"></ellipse>
                                <ellipse id="Oval-27" fill="#EEEEEE" cx="54.5861015" cy="15.9157895" rx="6.31939098" ry="6.31578947"></ellipse>
                                <g id="Group-31" transform="translate(49.463406, 15.200000)">
                                    <g id="Oval-24-Copy">
                                        <use fill="#319A81" fill-rule="evenodd" xlink:href="#path-6"></use>
                                        <ellipse stroke="#2D6154" stroke-width="0.5" cx="2.45038357" cy="2.44680299" rx="2.20038357" ry="2.19680299"></ellipse>
                                    </g>
                                    <ellipse id="Oval-24-Copy-2" fill="#EEEEEE" cx="3.35315646" cy="1.03023284" rx="1.03174045" ry="1.03023284"></ellipse>
                                </g>
                                <rect id="Rectangle-55" fill="#35AE92" x="65.0204447" y="35.2" width="7.22216112" height="8.57142857" rx="3.61108056"></rect>
                                <ellipse id="Oval-28" fill="#35AE92" cx="59.8190191" cy="42.3789474" rx="1.57984775" ry="1.57894737"></ellipse>
                                <path d="M71.0498149,41.2588826 C71.0498149,41.2588826 81.9652739,47.2239255 89.7375242,36.6796628" id="Path-42" stroke="#E5ECE0" stroke-width="3.43738774" stroke-linecap="round" stroke-linejoin="round" transform="translate(80.393670, 39.809693) rotate(12.000000) translate(-80.393670, -39.809693) "></path>
                                <path d="M69.4413381,18.6603997 L70.5722447,18.6603997 L70.5722447,18.6603997 C72.9391793,18.6603997 74.8579589,20.5791794 74.8579589,22.946114 L74.8579589,23.8344103 L74.8579589,23.8344103 C74.8579589,25.7107524 73.3368831,27.2318283 71.460541,27.2318283 L69.4413381,27.2318283 L69.4413381,18.6603997 Z" id="Rectangle-56" fill="#35AE92" transform="translate(72.149649, 22.946114) rotate(6.000000) translate(-72.149649, -22.946114) "></path>
                                <g id="Oval-31">
                                    <use fill="black" fill-opacity="1" filter="url(#filter-8)" xlink:href="#path-7"></use>
                                    <ellipse stroke-opacity="0.370782382" stroke="#3AA3E3" stroke-width="0.5" cx="64.2226479" cy="60" rx="11.716953" ry="2.55"></ellipse>
                                </g>
                                <g id="Oval-31-Copy" opacity="0.5">
                                    <use fill="black" fill-opacity="1" filter="url(#filter-10)" xlink:href="#path-9"></use>
                                    <ellipse stroke-opacity="0.370782382" stroke="#3AA3E3" stroke-width="0.5" cx="64.2226479" cy="64.4" rx="16.5037342" ry="3.75"></ellipse>
                                </g>
                                <g id="Oval-31-Copy-2" opacity="0.300000012">
                                    <use fill="black" fill-opacity="1" filter="url(#filter-12)" xlink:href="#path-11"></use>
                                    <ellipse stroke-opacity="0.370782382" stroke="#3AA3E3" stroke-width="0.5" cx="64.4220971" cy="68.2952381" rx="21.0910662" ry="4.8452381"></ellipse>
                                </g>
                            </g>
                            <g id="Group-30" transform="translate(82.673077, 112.800000)">
                                <g id="Group-8" transform="translate(40.287944, 9.600000)">
                                    <rect id="Rectangle-24" fill="#FFD29B" x="33.1093678" y="60.8" width="3.19118747" height="6.4" rx="1.59559374"></rect>
                                    <g id="Rectangle-23">
                                        <use fill="#2980B4" fill-rule="evenodd" xlink:href="#path-13"></use>
                                        <path stroke="#2980B4" stroke-width="0.799392462" d="M32.7532516,32.2995225 L43.9208078,32.2995225 L43.8787704,19.5769543 C43.8685829,16.4937433 41.3662815,13.9996962 38.2830537,13.9996962 L38.2752434,13.9996962 C38.2660512,13.9997013 38.2660512,13.9997013 38.256859,13.9997266 C35.1839399,14.00988 32.7010778,16.5092041 32.7112313,19.5821232 L32.7532516,32.2995225 Z"></path>
                                    </g>
                                    <ellipse id="Oval" fill="#1DA1F2" cx="31.9126725" cy="23.6" rx="10.7702577" ry="10.8"></ellipse>
                                    <ellipse id="Oval-Copy" fill="#2980B4" cx="37.0983522" cy="20" rx="3.19118747" ry="3.2"></ellipse>
                                    <path d="M16.3556336,20.8 C22.7154147,20.8 26.0071059,23.2625 26.0071059,31.7609375" id="Path-14-Copy" stroke="#2980B4" stroke-width="0.799392462" transform="translate(21.181370, 26.280469) scale(-1, 1) translate(-21.181370, -26.280469) "></path>
                                    <path d="M0.52836633,26.0969388 C0.52836633,24.4485747 0.684631297,22.3325878 0.997161231,19.7489783 L0.997186289,19.7489813 C2.36060263,8.47794738 11.9258998,2.08554868e-15 23.279098,0 L37.7195903,0 L37.7195903,8.8817842e-16 C40.2907074,4.15871876e-16 42.5309628,1.75208694 43.1504732,4.24745263 L44.6446943,10.2661225 L44.6440448,10.2662837 C44.9631143,11.5514846 44.1801253,12.852056 42.8950135,13.1714842 L32.9234299,15.6507168 L32.9234299,15.6507168 C32.1392729,15.8456273 31.4579822,16.3301853 31.0165445,17.0069608 L25.7971261,25.0089383 L25.7971261,25.0089383 C25.3544028,25.6876849 24.5988429,26.0969388 23.788472,26.0969388 C16.0351035,26.0969388 8.2817349,26.0969388 0.52836633,26.0969388 Z" id="Path-12" fill="#1DA1F2"></path>
                                    <path d="M2.10099757,5.7239685 L5.01597952,6.33220586 L5.01597952,6.33220586 C5.5690297,6.44760479 5.95726845,6.94636857 5.93342019,7.51082643 L5.93342019,7.51082643 L5.93342019,7.51082643 C5.9108347,8.04539606 5.45917124,8.46044122 4.9246016,8.43785573 C4.92107517,8.43770674 4.91754958,8.43753848 4.91402499,8.43735095 L1.76587425,8.26985451 L1.76587425,8.26985451 C1.10457118,8.23467007 0.597001743,7.67005539 0.632186181,7.00875231 C0.634253847,6.96988985 0.638212258,6.93115108 0.644047357,6.89267358 L0.670537957,6.71799067 L0.670537957,6.71799067 C0.769830908,6.06323834 1.38110538,5.61294955 2.0358577,5.7122425 C2.05767475,5.71555105 2.07939631,5.7194612 2.10099757,5.7239685 Z" id="Path-22-Copy" fill="#38475B" transform="translate(3.277231, 7.056174) scale(-1, 1) rotate(11.000000) translate(-3.277231, -7.056174) "></path>
                                    <path d="M20.0514271,2.9239685 L22.966409,3.53220586 L22.966409,3.53220586 C23.5194592,3.64760479 23.907698,4.14636857 23.8838497,4.71082643 L23.8838497,4.71082643 L23.8838497,4.71082643 C23.8612642,5.24539606 23.4096008,5.66044122 22.8750311,5.63785573 C22.8715047,5.63770674 22.8679791,5.63753848 22.8644545,5.63735095 L19.7163038,5.46985451 L19.7163038,5.46985451 C19.0550007,5.43467007 18.5474313,4.87005539 18.5826157,4.20875231 C18.5846834,4.16988985 18.5886418,4.13115108 18.5944769,4.09267358 L18.6209675,3.91799067 L18.6209675,3.91799067 C18.7202604,3.26323834 19.3315349,2.81294955 19.9862872,2.9122425 C20.0081043,2.91555105 20.0298258,2.9194612 20.0514271,2.9239685 Z" id="Path-22-Copy-3" fill="#38475B" transform="translate(21.227661, 4.256174) rotate(11.000000) translate(-21.227661, -4.256174) "></path>
                                    <ellipse id="Oval-3" fill="#FF8B8B" cx="40.8878873" cy="74.6" rx="1.79504295" ry="1.8"></ellipse>
                                    <path d="M7.35299659,15.1700474 L16.3954252,15.1700474 L16.3954252,15.1700474 C18.6028866,15.1700474 20.3923876,16.9595484 20.3923876,19.1670097 C20.3923876,19.1914262 20.3921638,19.2158421 20.3917164,19.2402544 L20.3368506,22.2337785 L20.3368506,22.2337785 C20.324872,22.8873417 19.7916363,23.4108938 19.1379633,23.4108938 L4.49884762,23.4108938 L4.49884762,23.4108938 C3.83660922,23.4108938 3.29975892,22.8740436 3.29975892,22.2118052 C3.29975892,22.2044802 3.29982604,22.1971555 3.29996027,22.1898318 L3.35670545,19.0937651 L3.35670545,19.0937651 C3.39663413,16.9152211 5.17408669,15.1700474 7.35299659,15.1700474 Z" id="Rectangle-2" fill="#F1F1F1"></path>
                                    <g id="Group-31" transform="translate(3.989782, 16.000000)">
                                        <ellipse id="Oval-24-Copy" stroke="#3390D5" stroke-width="0.5" fill="#3AA3E3" cx="1.87002957" cy="1.88215615" rx="1.87002957" ry="1.88215615"></ellipse>
                                        <ellipse id="Oval-24-Copy-2" fill="#EEEEEE" cx="2.55898783" cy="0.792486799" rx="1" ry="1"></ellipse>
                                    </g>
                                    <g id="Group-31-Copy" transform="translate(13.195938, 16.000000)">
                                        <ellipse id="Oval-24-Copy" stroke="#3390D5" stroke-width="0.5" fill="#3AA3E3" cx="1.87002957" cy="1.88215615" rx="1.87002957" ry="1.88215615"></ellipse>
                                        <ellipse id="Oval-24-Copy-2" fill="#EEEEEE" cx="2.55898783" cy="0.792486799" rx="1" ry="1"></ellipse>
                                    </g>
                                    <path d="M30.381889,0 L39.4521984,0 C40.917866,0 42.3461683,0.967290967 42.6417207,2.15776558 L45.0026743,11.667603 C45.1296461,12.1790412 44.7434362,12.7152249 44.1434057,12.8643688 L36.4275255,14.7822328 C33.8239933,15.4293683 30.6651027,17.561158 29.3715804,19.5442788 L26.3594286,24.1622589 C25.8437275,24.952889 24.7500761,25.6307176 23.6227133,25.9279356 C23.6171252,25.7284275 23.6143027,25.5257558 23.6143027,25.3198767 C23.6143027,7.27261248 33.0366034,1.329481 34.3205692,0.150127551 L30.381889,0 Z" id="Combined-Shape" fill="#2980B4"></path>
                                    <path d="M25.929196,20.45 C25.929196,20.45 27.9279732,19.4375 31.6805012,20.45 C31.6805012,20.45 32.96056,27.4789062 36.298218,28.0980469 C39.635876,28.7171875 40.2910978,27.2145466 42.4908825,25.6769531" id="Path-13" stroke="#2980B4" stroke-width="0.799392462"></path>
                                    <path d="M37.896149,20.8 C44.2559301,20.8 47.5476213,23.2625 47.5476213,31.7609375" id="Path-14" stroke="#2980B4" stroke-width="0.799392462"></path>
                                    <path d="M14.781904,34.3162109 C14.781904,34.3162109 14.471628,31.2 16.1887611,31.2 C17.9058942,31.2 18.3125836,32.4333984 18.3125836,33.3748047" id="Path-15" stroke="#2980B4" stroke-width="0.799392462"></path>
                                    <path d="M45.9010429,33.6203125 C45.9010429,33.6203125 45.5183108,32 47.6388222,32 C49.7593335,32 49.1307958,34.2392578 49.1307958,35.1791016" id="Path-16" stroke="#2980B4" stroke-width="0.799392462"></path>
                                    <path d="M32.311571,56.555115 L32.5067351,42.8065328 C32.5067351,39.9310442 34.8342706,37.6 37.6924148,37.6 C40.5563866,37.6 42.8780944,39.9307275 42.8780944,42.8065328 L42.6829302,60.555115 C42.6829302,61.6606833 41.7976453,62.5569235 40.6884381,62.5569235 C39.5869105,62.5569235 38.6939459,61.6599403 38.6939459,60.555115 L38.6939459,50.5563159 L38.6939459,50.5563159 C38.6939459,50.1148237 38.3360457,49.7569235 37.8945534,49.7569235 L37.0999478,49.7569235 L37.0999478,49.7569235 C36.6584555,49.7569235 36.3005553,50.1148237 36.3005553,50.5563159 L36.3005553,56.555115 C36.3005553,57.6606833 35.4152704,58.5569235 34.3060631,58.5569235 C33.2045355,58.5569235 32.311571,57.6599403 32.311571,56.555115 Z" id="Combined-Shape" fill="#FF8B8B"></path>
                                    <ellipse id="Oval-8" fill="#FFD29B" cx="37.896149" cy="43.2" rx="3.19118747" ry="3.2"></ellipse>
                                </g>
                                <g id="Group-5">
                                    <rect id="Rectangle-21-Copy" fill="#FF8B8B" transform="translate(18.748226, 9.272727) scale(-1, 1) translate(-18.748226, -9.272727) " x="4.26325641e-14" y="0" width="37.4964528" height="18.5454545" rx="9.27272727"></rect>
                                    <polygon id="Path-17-Copy" fill="#FF8B8B" transform="translate(34.363689, 15.231040) scale(-1, 1) translate(-34.363689, -15.231040) " points="31.4785036 10.2 31.4785036 20.2620806 37.2488742 14.48277"></polygon>
                                    <ellipse id="Oval-9-Copy" fill="#FFFFFF" transform="translate(9.258383, 9.272727) scale(-1, 1) translate(-9.258383, -9.272727) " cx="9.25838341" cy="9.27272727" rx="2.31459585" ry="2.31818182"></ellipse>
                                    <rect id="Rectangle-41" fill="#FFFFFF" x="21.141617" y="6.4" width="12.3658515" height="5.2" rx="2.6"></rect>
                                    <path d="M16.6713293,7.83473503 L17.7728682,10.0438966 L17.7728682,10.0438966 C17.9698742,10.4389967 17.8092872,10.9189935 17.4141871,11.1159995 C17.3033924,11.1712443 17.1812803,11.2 17.0574762,11.2 L14.8543985,11.2 L14.8543985,11.2 C14.4129062,11.2 14.055006,10.8420998 14.055006,10.4006075 C14.055006,10.2768034 14.0837617,10.1546913 14.1390065,10.0438966 L15.2405454,7.83473503 L15.2405454,7.83473503 C15.4375514,7.43963497 15.9175482,7.279048 16.3126483,7.47605399 C16.4679773,7.55350464 16.5938787,7.67940597 16.6713293,7.83473503 Z" id="Triangle" fill="#FFFFFF"></path>
                                </g>
                            </g>
                            <g id="Group-7" transform="translate(0.500000, 84.800000)">
                                <g id="Group-32" transform="translate(57.042476, 0.000000)">
                                    <g id="Group-15">
                                        <rect id="Rectangle-21" fill="#4057A6" x="0" y="0" width="32.3107732" height="17.8181818" rx="8.90909091"></rect>
                                        <polygon id="Path-17" fill="#4057A6" points="-7.99360578e-15 9.8 -7.38241785e-15 19.4674892 5.50509144 13.9148182"></polygon>
                                        <ellipse id="Oval-9" fill="#8197E7" cx="6.59607053" cy="9.02727273" rx="2.20818776" ry="2.22727273"></ellipse>
                                        <ellipse id="Oval-9-Copy-3" fill="#8197E7" cx="25.2018332" cy="9.02727273" rx="2.20818776" ry="2.22727273"></ellipse>
                                        <rect id="Rectangle-25" fill="#8197E7" x="11.0409388" y="6.68181818" width="9.71602614" height="4.45454545" rx="2.22727273"></rect>
                                    </g>
                                </g>
                                <path d="M25.9719186,15.6 L17.6789717,15.6 L17.6789717,15.6 C16.1320439,15.6 14.8780111,16.8540327 14.8780111,18.4009605 C14.8780111,19.1957479 15.2156637,19.9531142 15.8068346,20.4843431 L15.8068346,20.4843431 L25.9719186,15.6 Z" id="Path-48" fill="#FF8B8B"></path>
                                <path d="M14.9973445,19.6536556 L13.5243491,18.4496018 C13.5243491,18.4496018 17.3552979,15.8927857 24.2744113,15.8927857 L16.2362856,19.7991313 L14.9973445,19.6536556 Z" id="Path-46" fill="#923535" opacity="0.300000012"></path>
                                <path d="M25.3300506,15.6 L25.3300506,15.6 L25.3300506,15.6 C34.0321187,15.6 41.0865387,22.65442 41.0865387,31.3564881 L41.0865387,52.4051641 L41.0865387,52.4051641 C41.0865387,56.1578483 38.044387,59.2 34.2917028,59.2 L19.166272,59.2 L19.166272,59.2 C13.8683648,59.2 9.57356242,54.9051976 9.57356242,49.6072905 L9.57356242,31.3564881 L9.57356242,31.3564881 C9.57356242,22.65442 16.6279824,15.6 25.3300506,15.6 Z" id="Rectangle-58" fill="#FF8B8B"></path>
                                <rect id="Rectangle-57-Copy-2" fill="#714673" x="32.7096716" y="36.4" width="2.69060904" height="18.1565217" rx="1.34530452"></rect>
                                <rect id="Rectangle-57-Copy-3" fill="#714673" x="41.7044402" y="36.4" width="2.69060904" height="18.1565217" rx="1.34530452"></rect>
                                <rect id="Rectangle-57-Copy-4" fill="#8197E7" x="8.37686711" y="50.4" width="34.7041638" height="16.8" rx="8.4"></rect>
                                <path d="M32.7455803,41.4434783 L43.6979781,41.4434783 L43.6979781,41.4434783 C46.1261856,41.4434783 48.0946367,43.4119293 48.0946367,45.8401368 L48.0946367,51.4062273 L48.0946367,51.4062273 C48.0946367,55.931523 44.4261597,59.6 39.9008639,59.6 L32.7455803,59.6 L32.7455803,59.6 C28.2202845,59.6 24.5518075,55.931523 24.5518075,51.4062273 L24.5518075,49.637251 L24.5518075,49.637251 C24.5518075,45.1119553 28.2202845,41.4434783 32.7455803,41.4434783 Z" id="Rectangle-57-Copy" fill="#8197E7"></path>
                                <ellipse id="Oval-30-Copy-3" fill="#923535" opacity="0.300000012" cx="22.7372107" cy="31.6" rx="3.59008591" ry="3.6"></ellipse>
                                <ellipse id="Oval-30-Copy-4" fill="#923535" opacity="0.300000012" cx="32.3107732" cy="31.6" rx="3.59008591" ry="3.6"></ellipse>
                                <path d="M40.7202741,28.0001456 C40.9601273,29.0959874 41.0865387,30.2343635 41.0865387,31.4022458 L41.0865387,35.1780285 C40.9555668,35.1925467 40.8224716,35.2 40.6876403,35.2 C38.7048906,35.2 37.0975544,33.5882251 37.0975544,31.6 C37.0975544,29.6117749 38.7048906,28 40.6876403,28 C40.6985296,28 40.7094076,28.0000486 40.7202741,28.0001456 L40.7202741,28.0001456 Z" id="Combined-Shape" fill="#923535" opacity="0.300000012"></path>
                                <rect id="Rectangle-57" fill="#4057A6" x="0" y="45.8144928" width="51.457898" height="13.7855072" rx="6.89275362"></rect>
                                <ellipse id="Oval-29" fill="#8197E7" transform="translate(43.878828, 52.400000) scale(-1, 1) translate(-43.878828, -52.400000) " cx="43.8788277" cy="52.4" rx="2.3933906" ry="2.4"></ellipse>
                                <ellipse id="Oval-29-Copy" fill="#8197E7" transform="translate(27.523992, 52.400000) scale(-1, 1) translate(-27.523992, -52.400000) " cx="27.5239919" cy="52.4" rx="2.3933906" ry="2.4"></ellipse>
                                <ellipse id="Oval-29-Copy-2" fill="#8197E7" transform="translate(9.573562, 52.400000) scale(-1, 1) translate(-9.573562, -52.400000) " cx="9.57356242" cy="52.4" rx="2.3933906" ry="2.4"></ellipse>
                                <ellipse id="Oval-30" fill="#EEEEEE" cx="23.5350076" cy="30.8" rx="3.59008591" ry="3.6"></ellipse>
                                <g id="Group-36" transform="translate(23.136109, 28.800000)">
                                    <ellipse id="Oval-24-Copy" stroke="#783333" stroke-width="0.5" fill="#D26363" cx="1.6525867" cy="2.44680299" rx="1.64921287" ry="1.64680299"></ellipse>
                                    <ellipse id="Oval-24-Copy-2" fill="#EEEEEE" cx="2.5553596" cy="1.03023284" rx="1.03174045" ry="1.03023284"></ellipse>
                                </g>
                                <ellipse id="Oval-30-Copy" fill="#EEEEEE" cx="32.7096716" cy="30.8" rx="3.59008591" ry="3.6"></ellipse>
                                <ellipse id="Oval-30-Copy-2" fill="#EEEEEE" cx="41.0865387" cy="30.8" rx="3.59008591" ry="3.6"></ellipse>
                                <g id="Group-36-Copy" transform="translate(32.709672, 28.800000)">
                                    <ellipse id="Oval-24-Copy" stroke="#783333" stroke-width="0.5" fill="#D26363" cx="1.6525867" cy="2.44680299" rx="1.64921287" ry="1.64680299"></ellipse>
                                    <ellipse id="Oval-24-Copy-2" fill="#EEEEEE" cx="2.5553596" cy="1.03023284" rx="1.03174045" ry="1.03023284"></ellipse>
                                </g>
                                <g id="Group-36-Copy-2" transform="translate(40.687640, 28.800000)">
                                    <ellipse id="Oval-24-Copy" stroke="#783333" stroke-width="0.5" fill="#D26363" cx="1.6525867" cy="2.44680299" rx="1.64921287" ry="1.64680299"></ellipse>
                                    <ellipse id="Oval-24-Copy-2" fill="#EEEEEE" cx="2.5553596" cy="1.03023284" rx="1.03174045" ry="1.03023284"></ellipse>
                                </g>
                                <g id="Group-35" transform="translate(14.360344, 33.600000)">
                                    <path d="M0.912108673,3.08166059 C0.912108673,3.08166059 0.955914761,1.58796129 2.03443334,1.58796129 C3.11295192,1.58796129 3.01597813,4.39309141 3.01597813,4.39309141 L0.912108673,3.08166059 Z" id="Path-44" fill="#FFFFFF"></path>
                                    <path d="M3.59008591,4.65018697 C3.59008591,4.65018697 4.15207357,3.6 4.86922367,3.6 C5.58637377,3.6 5.48454049,5.2 5.48454049,5.2 L3.59008591,4.65018697 Z" id="Path-45" fill="#FFFFFF"></path>
                                    <path d="M0.398898434,2.5010174 C0.398898434,2.5010174 5.63588996,1.56219932 8.37686711,5.40862167" id="Path-43" stroke="#923535" stroke-width="0.5" transform="translate(4.387883, 3.904311) scale(1, -1) rotate(-40.000000) translate(-4.387883, -3.904311) "></path>
                                </g>
                                <path d="M21.9973177,19.6355916 L25.3321385,20.594337 L25.3321385,20.594337 C25.6746884,20.6928185 25.9106562,21.0061842 25.9106562,21.3626095 L25.9106562,21.4802681 L25.9106562,21.4802681 C25.9106562,21.8519188 25.6093739,22.1532011 25.2377233,22.1532011 C25.22269,22.1532011 25.2076609,22.1526973 25.1926614,22.1516907 L21.533454,21.9061068 L21.533454,21.9061068 C21.0929527,21.876543 20.7598221,21.4954799 20.7893858,21.0549786 C20.7928796,21.0029214 20.8014614,20.9513312 20.8150085,20.9009463 L21.0044674,20.1963018 L21.0044674,20.1963018 C21.1191009,19.7699515 21.5576549,19.5172551 21.9840052,19.6318886 C21.9884533,19.6330845 21.9928909,19.6343189 21.9973177,19.6355916 Z" id="Path-47" fill="#923535"></path>
                                <path d="M37.953255,23.0872905 L41.2880759,24.046036 L41.2880759,24.046036 C41.6306258,24.1445175 41.8665936,24.4578831 41.8665936,24.8143085 L41.8665936,24.9319671 L41.8665936,24.9319671 C41.8665936,25.3036177 41.5653112,25.6049 41.1936606,25.6049 C41.1786273,25.6049 41.1635983,25.6043963 41.1485988,25.6033896 L37.4893914,25.3578057 L37.4893914,25.3578057 C37.0488901,25.3282419 36.7157594,24.9471789 36.7453232,24.5066776 C36.748817,24.4546203 36.7573988,24.4030301 36.7709459,24.3526452 L36.9604048,23.6480007 L36.9604048,23.6480007 C37.0750383,23.2216504 37.5135923,22.968954 37.9399426,23.0835875 C37.9443907,23.0847835 37.9488283,23.0860179 37.953255,23.0872905 Z" id="Path-47-Copy" fill="#923535" transform="translate(39.282625, 24.325849) scale(-1, 1) translate(-39.282625, -24.325849) "></path>
                                <path d="M11.9395461,27.2808941 L12.8671119,28.8323934 L12.8671119,28.8323934 C13.0936588,29.2113286 13.584499,29.3348638 13.9634343,29.1083169 C13.9675798,29.1058385 13.9717028,29.1033225 13.9758028,29.1007693 L15.6978186,28.0284218 L15.6978186,28.0284218 C16.0725854,27.7950439 16.1872039,27.3020452 15.953826,26.9272784 C15.923416,26.8784449 15.8878235,26.8330367 15.8476669,26.7918429 L15.2419772,26.1705085 L15.2419772,26.1705085 C15.1272684,26.0528369 14.9790816,25.9733763 14.8175926,25.9429454 L13.340994,25.6646958 L13.340994,25.6646958 C13.1221068,25.6234489 12.8959361,25.6753968 12.7169846,25.8080214 L12.1496915,26.2284535 L12.1496915,26.2284535 C11.8195638,26.4731177 11.7286936,26.9282101 11.9395461,27.2808941 Z" id="Path-49" fill="#923535" opacity="0.300000012"></path>
                                <path d="M15.9559374,25.1162869 C15.9559374,25.1162869 16.1165769,26.4971896 16.8208512,26.4971896 C17.5251255,26.4971896 18.048828,26.0546552 18.048828,25.4569599 C18.048828,24.8592645 17.6665709,24.4 17.0787898,24.4 C16.4910087,24.4 15.9559374,25.1162869 15.9559374,25.1162869 Z" id="Path-50" fill="#923535" opacity="0.300000012"></path>
                                <path d="M13.1636483,23.9162869 C13.1636483,23.9162869 13.3242878,25.2971896 14.0285621,25.2971896 C14.7328364,25.2971896 16.1087753,24.2843004 16.1087753,23.686605 C16.1087753,23.0889097 14.8742819,23.2 14.2865008,23.2 C13.6987196,23.2 13.1636483,23.9162869 13.1636483,23.9162869 Z" id="Path-50-Copy" fill="#923535" opacity="0.300000012"></path>
                            </g>
                        </g>
                    </g>
                </g>
            </g>
        </g>
    </g>
</svg>