<?xml version="1.0" encoding="UTF-8"?>
<svg width="400px" height="398px" viewBox="0 0 400 398" version="1.1" xmlns="http://www.w3.org/2000/svg" xmlns:xlink="http://www.w3.org/1999/xlink">
    <!-- Generator: Sketch 45.2 (43514) - http://www.bohemiancoding.com/sketch -->
    <title>about_hero</title>
    <desc>Created with Sketch.</desc>
    <defs>
        <rect id="path-1" x="0" y="0" width="399.696231" height="400"></rect>
        <linearGradient x1="50%" y1="2.60262688%" x2="50%" y2="90.5813363%" id="linearGradient-3">
            <stop stop-color="#D5F2FE" offset="0%"></stop>
            <stop stop-color="#C4E1FF" stop-opacity="0.661118659" offset="100%"></stop>
        </linearGradient>
        <linearGradient x1="50%" y1="2.60262688%" x2="50%" y2="72.3897883%" id="linearGradient-4">
            <stop stop-color="#D5F2FE" offset="0%"></stop>
            <stop stop-color="#C4E1FF" stop-opacity="0.116536458" offset="100%"></stop>
        </linearGradient>
        <linearGradient x1="50%" y1="2.60262688%" x2="50%" y2="90.5813363%" id="linearGradient-5">
            <stop stop-color="#D5F2FE" offset="0%"></stop>
            <stop stop-color="#C4E1FF" stop-opacity="0.116536458" offset="100%"></stop>
        </linearGradient>
        <ellipse id="path-6" cx="4.90076714" cy="4.89360598" rx="4.90076714" ry="4.89360598"></ellipse>
        <ellipse id="path-7" cx="128.445296" cy="120" rx="23.933906" ry="5.6"></ellipse>
        <filter x="-27.2%" y="-116.1%" width="154.3%" height="332.1%" filterUnits="objectBoundingBox" id="filter-8">
            <feGaussianBlur stdDeviation="12.5" in="SourceAlpha" result="shadowBlurInner1"></feGaussianBlur>
            <feOffset dx="0" dy="1" in="shadowBlurInner1" result="shadowOffsetInner1"></feOffset>
            <feComposite in="shadowOffsetInner1" in2="SourceAlpha" operator="arithmetic" k2="-1" k3="1" result="shadowInnerInner1"></feComposite>
            <feColorMatrix values="0 0 0 0 0.22745098   0 0 0 0 0.639215686   0 0 0 0 0.890196078  0 0 0 0.10510077 0" type="matrix" in="shadowInnerInner1"></feColorMatrix>
        </filter>
        <ellipse id="path-9" cx="128.445296" cy="128.8" rx="33.5074685" ry="8"></ellipse>
        <filter x="-19.4%" y="-81.2%" width="138.8%" height="262.5%" filterUnits="objectBoundingBox" id="filter-10">
            <feGaussianBlur stdDeviation="12.5" in="SourceAlpha" result="shadowBlurInner1"></feGaussianBlur>
            <feOffset dx="0" dy="1" in="shadowBlurInner1" result="shadowOffsetInner1"></feOffset>
            <feComposite in="shadowOffsetInner1" in2="SourceAlpha" operator="arithmetic" k2="-1" k3="1" result="shadowInnerInner1"></feComposite>
            <feColorMatrix values="0 0 0 0 0.22745098   0 0 0 0 0.639215686   0 0 0 0 0.890196078  0 0 0 0.10510077 0" type="matrix" in="shadowInnerInner1"></feColorMatrix>
        </filter>
        <ellipse id="path-11" cx="128.844194" cy="136.590476" rx="42.6821324" ry="10.1904762"></ellipse>
        <filter x="-15.2%" y="-63.8%" width="130.5%" height="227.6%" filterUnits="objectBoundingBox" id="filter-12">
            <feGaussianBlur stdDeviation="12.5" in="SourceAlpha" result="shadowBlurInner1"></feGaussianBlur>
            <feOffset dx="0" dy="1" in="shadowBlurInner1" result="shadowOffsetInner1"></feOffset>
            <feComposite in="shadowOffsetInner1" in2="SourceAlpha" operator="arithmetic" k2="-1" k3="1" result="shadowInnerInner1"></feComposite>
            <feColorMatrix values="0 0 0 0 0.22745098   0 0 0 0 0.639215686   0 0 0 0 0.890196078  0 0 0 0.10510077 0" type="matrix" in="shadowInnerInner1"></feColorMatrix>
        </filter>
        <path d="M76.5504869,27.2 L76.5661074,27.2 L76.5661074,27.2 C83.1730242,27.2 88.5350986,32.5443865 88.5569288,39.1512673 L88.6436538,65.3984375 L64.7097478,65.3984375 L64.6230744,39.1668877 L64.6230744,39.1668877 C64.6013088,32.5795597 69.9237487,27.2218307 76.5110767,27.2000651 C76.5242134,27.2000217 76.5373501,27.2 76.5504869,27.2 Z" id="path-13"></path>
    </defs>
    <g id="pages_for_valérie" stroke="none" stroke-width="1" fill="none" fill-rule="evenodd">
        <g id="700-card---extra" transform="translate(-851.000000, -150.000000)">
            <g id="about_hero" transform="translate(851.000000, 150.000000)">
                <mask id="mask-2" fill="white">
                    <use xlink:href="#path-1"></use>
                </mask>
                <g id="Rectangle-43"></g>
                <g id="header-illustration" mask="url(#mask-2)">
                    <g transform="translate(-1.000000, 0.000000)">
                        <g id="Group" transform="translate(0.797797, 0.000000)">
                            <g id="Group-4" transform="translate(6.584578, 0.000000)" stroke="url(#linearGradient-3)" stroke-width="2.39817739">
                                <ellipse id="Oval-2" cx="39.490945" cy="39.6" rx="39.490945" ry="39.6"></ellipse>
                                <ellipse id="Oval-2-Copy" cx="30.7151794" cy="22.8" rx="6.78127338" ry="6.8"></ellipse>
                                <ellipse id="Oval-2-Copy-2" cx="47.0700152" cy="34.4" rx="3.98898434" ry="4"></ellipse>
                                <ellipse id="Oval-2-Copy-3" cx="19.1471248" cy="53.6" rx="2.3933906" ry="2.4"></ellipse>
                            </g>
                            <path d="M162.399914,190.4 L162.399914,172 L217.63869,172 L217.63869,190.4 L225.192711,190.4 L225.192711,278.80284 L154.845893,279.63191 L154.845893,190.4 L162.399914,190.4 Z" id="Combined-Shape" stroke="url(#linearGradient-4)" stroke-width="2.39817739"></path>
                            <path d="M196.851937,299.2 C199.478277,288.682853 208.982941,280.892308 220.30581,280.892308 C225.988883,280.892308 231.213922,282.85486 235.341135,286.139686 C235.678743,273.073185 246.3689,262.584615 259.506944,262.584615 C263.502229,262.584615 267.271141,263.554568 270.591382,265.272008 C272.369177,259.548358 277.703433,255.392308 284.007652,255.392308 C283.936207,253.734836 283.680976,251.978016 283.680976,250.161538 C283.680976,239.68937 292.163933,231.2 302.62819,231.2 C310.416916,231.2 317.107986,235.903178 320.020392,242.626501 C322.172063,241.998368 324.447837,241.661538 326.802223,241.661538 C340.153172,241.661538 350.976255,252.492804 350.976255,265.853846 C350.976255,267.011765 350.894967,268.150684 350.73779,269.265199 C350.73779,269.265199 388.610093,265.853846 399.342184,295.736659" id="Combined-Shape-Copy-2" stroke="url(#linearGradient-4)" stroke-width="2.39817739"></path>
                            <polyline id="Path-7" stroke="url(#linearGradient-4)" stroke-width="2.39817739" points="118.68603 257.763678 118.68603 102.38125 72.5282785 102.38125 27.3800568 267.98125"></polyline>
                            <g id="Group-38" transform="translate(190.007668, 98.321799) rotate(-8.000000) translate(-190.007668, -98.321799) translate(68.007668, 21.821799)" stroke="url(#linearGradient-4)" stroke-width="2.39817739">
                                <polyline id="Path-51-Copy-6" points="95.1280835 25.6 95.1280835 0.649457312 214.238037 0.649457312 214.238037 21.7471195"></polyline>
                                <rect id="Rectangle-60-Copy-9" transform="translate(202.499278, 20.012343) rotate(-1.000000) translate(-202.499278, -20.012343) " x="198.038515" y="10.9918185" width="8.92152536" height="18.0410497" rx="4.46076268"></rect>
                                <rect id="Rectangle-60-Copy-8" transform="translate(140.120159, 20.963831) rotate(-1.000000) translate(-140.120159, -20.963831) " x="135.659397" y="11.9433058" width="8.92152536" height="18.0410497" rx="4.46076268"></rect>
                                <polyline id="Path-51-Copy-5" points="77.541379 47.3505427 77.541379 22.4 225.056933 22.4 225.056933 43.4976622"></polyline>
                                <rect id="Rectangle-60-Copy-6" transform="translate(123.204349, 37.997700) rotate(-1.000000) translate(-123.204349, -37.997700) " x="118.743587" y="28.9771753" width="8.92152536" height="18.0410497" rx="4.46076268"></rect>
                                <rect id="Rectangle-60-Copy-7" transform="translate(159.562881, 38.206465) rotate(-1.000000) translate(-159.562881, -38.206465) " x="155.102119" y="29.1859402" width="8.92152536" height="18.0410497" rx="4.46076268"></rect>
                                <polyline id="Path-51-Copy-4" points="56.7570918 66.5505427 56.7570918 41.6 243.443033 41.6 243.443033 62.6976622"></polyline>
                                <rect id="Rectangle-60-Copy-3" transform="translate(168.535243, 56.447604) rotate(-1.000000) translate(-168.535243, -56.447604) " x="164.07448" y="47.4270787" width="8.92152536" height="18.0410497" rx="4.46076268"></rect>
                                <rect id="Rectangle-60-Copy-4" transform="translate(77.720757, 57.408541) rotate(-1.000000) translate(-77.720757, -57.408541) " x="73.2599944" y="48.3880163" width="8.92152536" height="18.0410497" rx="4.46076268"></rect>
                                <polyline id="Path-51-Copy-3" points="43.1673656 84.9505427 43.1673656 60 229.853307 60 229.853307 81.0976622"></polyline>
                                <rect id="Rectangle-60-Copy-2" transform="translate(118.702914, 75.647604) rotate(-1.000000) translate(-118.702914, -75.647604) " x="114.242151" y="66.6270787" width="8.92152536" height="18.0410497" rx="4.46076268"></rect>
                                <polyline id="Path-51-Copy-2" points="29.5776394 103.350543 29.5776394 78.4 242.643637 78.4 242.643637 99.4976622"></polyline>
                                <rect id="Rectangle-60" transform="translate(46.368241, 96.667196) rotate(-1.000000) translate(-46.368241, -96.667196) " x="41.9074786" y="87.6466715" width="8.92152536" height="18.0410497" rx="4.46076268"></rect>
                                <rect id="Rectangle-60-Copy" transform="translate(159.300454, 96.667196) rotate(-1.000000) translate(-159.300454, -96.667196) " x="154.839692" y="87.6466715" width="8.92152536" height="18.0410497" rx="4.46076268"></rect>
                                <polyline id="Path-51-Copy" points="16.7873088 124.950543 16.7873088 100 229.853307 100 229.853307 121.097662"></polyline>
                                <rect id="Rectangle-60-Copy-5" transform="translate(94.460557, 120.606769) rotate(-1.000000) translate(-94.460557, -120.606769) " x="89.9997945" y="111.586244" width="8.92152536" height="18.0410497" rx="4.46076268"></rect>
                            </g>
                            <path d="M1.55624976,277.6 C4.18258991,267.082853 13.6872543,259.292308 25.0101237,259.292308 L25.0101237,259.292308 C30.6931958,259.292308 35.9182356,261.25486 40.0454481,264.539686 C40.3830564,251.473185 51.0732136,240.984615 64.211257,240.984615 C68.2065424,240.984615 71.9754545,241.954568 75.2956955,243.672008 C77.0734906,237.948358 82.4077458,233.792308 88.7119653,233.792308 C88.6405205,232.134836 88.3852892,230.378016 88.3852892,228.561538 C88.3852892,218.08937 96.868246,209.6 107.332504,209.6 C115.121229,209.6 121.812299,214.303178 124.724705,221.026501 C126.876377,220.398368 129.152151,220.061538 131.506536,220.061538 C144.857485,220.061538 155.680568,230.892804 155.680568,244.253846 C155.680568,245.411765 155.59928,246.550684 155.442103,247.665199 L204.046497,274.136659 L201.002233,277.6" id="Combined-Shape" stroke="url(#linearGradient-5)" stroke-width="2.39817739"></path>
                            <path d="M358.60048,88.4 L358.60048,70.7344262 L353.720163,71.9142051 L353.720163,26.8 L348.542064,26.8 L348.542064,73.1659705 L334.162133,76.642208 L334.162133,61.5540984 L328.984035,61.5540984 L328.984035,77.8939734 L312.629919,81.8474547 L312.629919,88.4 L301.602793,88.4 L301.602793,266.43191 L358.651795,264.777782 L358.651795,88.4 L358.60048,88.4 Z" id="Combined-Shape" stroke="url(#linearGradient-5)" stroke-width="2.39817739"></path>
                            <path d="M40.2919597,143.6 C34.8458482,196.805412 23.2780675,249.023073 0.757528281,287.433553 L86.1633085,288.160526 C66.8460404,272.195249 56.188846,202.8509 50.5067872,143.6 L61.1085287,143.6 C63.5385816,143.6 65.5085287,141.630053 65.5085287,139.2 C65.5085287,136.769947 63.5385816,134.8 61.1085287,134.8 L49.691689,134.8 C45.6914247,90.0656344 44.5330095,53.2 44.5330095,53.2 C44.5330095,79.2715942 43.6280317,107.073924 41.1371004,134.8 L29.1393981,134.8 C26.7093452,134.8 24.7393981,136.769947 24.7393981,139.2 C24.7393981,141.630053 26.7093452,143.6 29.1393981,143.6 L40.2919597,143.6 Z" id="Combined-Shape" stroke="url(#linearGradient-5)" stroke-width="2.39817739"></path>
                            <path d="M303.065123,27.9511195 C302.643293,27.8709123 302.208172,27.8289655 301.763395,27.8289655 C297.884555,27.8289655 294.740134,31.0191683 294.740134,34.9544828 C294.740134,38.8897973 297.884555,42.08 301.763395,42.08 C301.875509,42.08 301.987008,42.0773348 302.097836,42.0720635 L302.097836,42.08 L321.495417,42.08 L321.495417,42.00784 C324.898984,41.5139097 327.515356,38.544188 327.515356,34.9544828 C327.515356,31.0191683 324.370934,27.8289655 320.492094,27.8289655 C320.484297,27.8289655 320.476503,27.8289784 320.468713,27.8290042 C318.874635,24.6093996 315.589945,22.4 311.796627,22.4 C307.955538,22.4 304.635968,24.6653976 303.065123,27.9511195 Z" id="Combined-Shape" stroke="url(#linearGradient-3)" stroke-width="2.39817739"></path>
                            <path d="M110.048842,39.1511195 C109.627012,39.0709123 109.191892,39.0289655 108.747115,39.0289655 C104.868275,39.0289655 101.723853,42.2191683 101.723853,46.1544828 C101.723853,50.0897973 104.868275,53.28 108.747115,53.28 C108.859228,53.28 108.970728,53.2773348 109.081556,53.2720635 L109.081556,53.28 L128.479136,53.28 L128.479136,53.20784 C131.882704,52.7139097 134.499075,49.744188 134.499075,46.1544828 C134.499075,42.2191683 131.354654,39.0289655 127.475813,39.0289655 C127.468017,39.0289655 127.460223,39.0289784 127.452432,39.0290042 C125.858355,35.8093996 122.573664,33.6 118.780346,33.6 C114.939257,33.6 111.619688,35.8653976 110.048842,39.1511195 Z" id="Combined-Shape-Copy" stroke="url(#linearGradient-3)" stroke-width="2.39817739"></path>
                            <g id="Group-3" transform="translate(299.973817, 140.800000)" stroke="url(#linearGradient-3)" stroke-width="2.39817739">
                                <ellipse id="Oval-5" fill="#FFFFFF" cx="27.3368973" cy="40.3652174" rx="12.9962299" ry="11.8241546"></ellipse>
                                <ellipse id="Oval-5-Copy" cx="27.7850432" cy="77.468599" rx="7.17033372" ry="6.5236715"></ellipse>
                            </g>
                            <g id="Group-2" transform="translate(234.423373, 153.600000)" stroke-width="2.39817739">
                                <path d="M0,152.394553 L0,39.6268376 L0,39.6268376 C0,17.7415395 17.8902192,0 39.9697638,0 L39.9697638,0 C62.0444548,0 79.9395276,17.7421551 79.9395276,39.6268376 L79.9395276,152.394553" id="Rectangle-18" stroke="url(#linearGradient-5)"></path>
                                <path d="M13.6574316,146.806723 L14.0802577,45.5285716 C14.0802577,29.8606877 25.8715385,17.1593583 40.4239656,17.1593583 C54.9731938,17.1593583 66.7676736,29.8611284 66.7676736,45.5285716 L66.3448475,146.806723" id="Rectangle-18-Copy" stroke="url(#linearGradient-5)"></path>
                                <path d="M15.8970651,55.1550802 L40.4239656,55.1550802" id="Line-Copy-7" stroke="url(#linearGradient-3)"></path>
                                <path d="M15.8970651,74.7657754 L40.4239656,74.7657754" id="Line-Copy-8" stroke="url(#linearGradient-3)"></path>
                            </g>
                        </g>
                        <g id="Group-12" transform="translate(217.202951, 111.200000)">
                            <g id="Group-5" transform="translate(0.000000, 9.600000)">
                                <g id="Group-9">
                                    <rect id="Rectangle-21-Copy" fill="#1DA1F2" transform="translate(37.496453, 18.545455) scale(-1, 1) translate(-37.496453, -18.545455) " x="4.26325641e-14" y="0" width="74.9929056" height="37.0909091" rx="18.5454545"></rect>
                                    <polygon id="Path-17-Copy" fill="#1DA1F2" transform="translate(67.929581, 31.262081) scale(1, -1) rotate(90.000000) translate(-67.929581, -31.262081) " points="62.1592103 21.2 62.1592103 41.3241611 73.6999516 29.7655399"></polygon>
                                    <ellipse id="Oval-9-Copy" fill="#FFFFFF" transform="translate(18.516767, 18.545455) scale(-1, 1) translate(-18.516767, -18.545455) " cx="18.5167668" cy="18.5454545" rx="4.6291917" ry="4.63636364"></ellipse>
                                    <ellipse id="Oval-9-Copy-2" fill="#FFFFFF" transform="translate(57.401977, 18.545455) scale(-1, 1) translate(-57.401977, -18.545455) " cx="57.4019771" cy="18.5454545" rx="4.6291917" ry="4.63636364"></ellipse>
                                    <rect id="Rectangle-25-Copy" fill="#FFFFFF" transform="translate(37.959372, 18.545455) scale(-1, 1) translate(-37.959372, -18.545455) " x="27.7751502" y="13.9090909" width="20.3684435" height="9.27272727" rx="4.63636364"></rect>
                                </g>
                            </g>
                            <rect id="Rectangle-52" fill="#35AE92" x="107.702577" y="84" width="35.1030622" height="25.6" rx="6.39513969"></rect>
                            <path d="M73.6141667,79.5590995 C73.6141667,79.5590995 91.3111131,80.294505 102.230741,100.058068" id="Path-42-Copy" stroke="#CAD5C4" stroke-width="6.87477548" stroke-linecap="round" stroke-linejoin="round" transform="translate(87.922454, 89.808584) scale(-1, 1) rotate(12.000000) translate(-87.922454, -89.808584) "></path>
                            <rect id="Rectangle-54" fill="#E5ECE0" x="107.303679" y="84.0481203" width="23.4720236" height="20.7518797" rx="10.3759398"></rect>
                            <path d="M96.9442864,70.4 L105.393165,70.4 L105.393165,81.5474137 L105.393165,81.5474137 C105.393165,84.8586057 102.708914,87.5428571 99.3977217,87.5428571 L96.9442864,87.5428571 L96.9442864,87.5428571 C93.6330944,87.5428571 90.948843,84.8586057 90.948843,81.5474137 L90.948843,76.3954435 L90.948843,76.3954435 C90.948843,73.0842515 93.6330944,70.4 96.9442864,70.4 Z" id="Rectangle-55-Copy" fill="#35AE92"></path>
                            <path d="M108.520586,65.6 L125.051749,65.6 L125.051749,65.6 C131.939029,65.6 137.522272,71.1832431 137.522272,78.0705224 C137.522272,78.754751 137.465959,79.437819 137.353903,80.1128096 L136.181573,87.1745893 L136.181573,87.1745893 C135.02604,94.1351943 128.993821,99.2310093 121.937993,99.2070856 L113.547214,99.1786356 L113.547214,99.1786356 C104.514424,99.1480088 97.0317242,92.1606946 96.3834127,83.1511482 L96.0822254,78.9655655 L96.0822254,78.9655655 C95.5879067,72.0960484 100.756026,66.12648 107.625543,65.6321613 C107.92341,65.6107274 108.22195,65.6 108.520586,65.6 Z" id="Path-34" fill="#54C6AB" transform="translate(116.935362, 82.399982) rotate(-360.000000) translate(-116.935362, -82.399982) "></path>
                            <rect id="Rectangle-53" fill="#E5ECE0" x="110.893765" y="50.4" width="13.5415521" height="22.556391" rx="6.39513969"></rect>
                            <rect id="Rectangle-53-Copy" fill="#CAD5C4" x="110.893765" y="47.2" width="13.5415521" height="22.556391" rx="6.39513969"></rect>
                            <path d="M83.9722172,32.5980528 L86.2340304,32.5980528 L86.2340304,32.5980528 C90.9678996,32.5980528 94.8054589,36.4356121 94.8054589,41.1694814 L94.8054589,42.946074 L94.8054589,42.946074 C94.8054589,46.6987583 91.7633073,49.74091 88.010623,49.74091 L83.9722172,49.74091 L83.9722172,32.5980528 Z" id="Rectangle-56-Copy" fill="#35AE92" transform="translate(89.388838, 41.169481) scale(-1, 1) rotate(-7.000000) translate(-89.388838, -41.169481) "></path>
                            <path d="M116.018445,9.65227711 L116.018445,9.65227711 L116.018445,9.65227711 C129.732954,9.65227711 140.867579,20.7382004 140.927695,34.4525784 L141.033963,58.6955255 L141.033963,58.6955255 C141.050219,62.4040249 138.057065,65.4235358 134.348565,65.4397919 C134.338754,65.4398349 134.328942,65.4398564 134.319131,65.4398564 L98.1479742,65.4398564 L98.1479742,65.4398564 C94.4509287,65.4398564 91.4493477,62.4514038 91.433142,58.7543939 L91.3266161,34.4525784 L91.3266161,34.4525784 C91.2668393,20.8156581 102.273289,9.71229115 115.910209,9.65251433 C115.946287,9.65235618 115.982366,9.65227711 116.018445,9.65227711 Z" id="Rectangle-12" fill="#54C6AB" transform="translate(116.180562, 37.546067) rotate(6.000000) translate(-116.180562, -37.546067) "></path>
                            <g id="Group-33" transform="translate(116.478343, 48.000000)">
                                <path d="M0.56449512,1.26338323 C2.08144168,0.212670733 2.23405543,1.26338323 5.38622636,1.26338323 C8.53839729,1.26338323 9.16306807,-0.620546197 11.2359324,0.212670733 C13.3087966,1.04588766 11.2629094,6.89628125 5.88715644,6.89628125 C0.511403486,6.89628125 -0.952451435,2.31409572 0.56449512,1.26338323 Z" id="Path-33" fill="#2D6154"></path>
                                <path d="M10.5267468,4.62443775 C9.50045587,5.87202117 7.83717672,6.89049976 5.59421061,6.89049976 C4.43876772,6.89049976 3.46404469,6.6788143 2.6607962,6.33600797 C3.28332073,5.37968451 4.41043634,4.25962695 6.34682422,3.9995408 C7.94411048,3.78500112 9.40586245,4.15536145 10.5267468,4.62443775 L10.5267468,4.62443775 Z" id="Combined-Shape" fill="#4D8A7B"></path>
                            </g>
                            <path d="M122.941578,1.17024255 L122.941578,1.17024255 L122.941578,1.17024255 C123.278511,0.227742457 124.315697,-0.263166473 125.258197,0.0737667665 C125.373541,0.11500102 125.484408,0.167823 125.589096,0.23142246 L131.003035,3.52045654 L131.003035,3.52045654 C131.622911,3.8970389 131.911626,4.64371766 131.706343,5.33936093 L131.689501,5.39643295 L131.689501,5.39643295 C131.500886,6.03559195 130.829843,6.40083029 130.190684,6.21221562 C130.164963,6.20462522 130.139501,6.19617941 130.114342,6.18689227 L124.278365,4.03259375 L124.278365,4.03259375 C123.123444,3.60626511 122.52716,2.32949047 122.941578,1.17024255 Z" id="Path-38" fill="#319A81"></path>
                            <path d="M93.4121097,4.84559304 L93.8089644,3.73547516 L93.8089644,3.73547516 C94.2548168,2.48829657 95.6272896,1.83869334 96.8744682,2.28454573 C97.0270993,2.33910963 97.1738053,2.40900717 97.3123358,2.49316619 L105.967473,7.75126835 L105.967473,7.75126835 C106.587349,8.12785071 106.876065,8.87452947 106.670782,9.57017274 L106.436071,10.3655382 L106.436071,10.3655382 C106.186158,11.2124179 105.297032,11.6963554 104.450152,11.4464427 C104.416071,11.4363855 104.382335,11.4251948 104.349,11.4128895 L94.8398375,7.90266757 L94.8398375,7.90266757 C93.6063484,7.44733616 92.969499,6.08370362 93.4121097,4.84559304 Z" id="Path-38-Copy" fill="#319A81" transform="translate(99.959940, 6.718874) scale(-1, 1) rotate(-10.000000) translate(-99.959940, -6.718874) "></path>
                            <ellipse id="Oval-27-Copy" fill="#35AE92" cx="111.565594" cy="33.4315789" rx="12.638782" ry="12.6315789"></ellipse>
                            <ellipse id="Oval-27" fill="#EEEEEE" cx="109.172203" cy="31.8315789" rx="12.638782" ry="12.6315789"></ellipse>
                            <g id="Group-31" transform="translate(98.926812, 30.400000)">
                                <g id="Oval-24-Copy">
                                    <use fill="#319A81" fill-rule="evenodd" xlink:href="#path-6"></use>
                                    <ellipse stroke="#2D6154" stroke-width="0.959270954" cx="4.90076714" cy="4.89360598" rx="4.42113166" ry="4.41397051"></ellipse>
                                </g>
                                <ellipse id="Oval-24-Copy-2" fill="#EEEEEE" cx="6.70631293" cy="2.06046568" rx="2.0634809" ry="2.06046568"></ellipse>
                            </g>
                            <rect id="Rectangle-55" fill="#35AE92" x="130.040889" y="70.4" width="14.4443222" height="17.1428571" rx="7.22216112"></rect>
                            <ellipse id="Oval-28" fill="#35AE92" cx="119.638038" cy="84.7578947" rx="3.15969549" ry="3.15789474"></ellipse>
                            <path d="M142.09963,82.5177651 C142.09963,82.5177651 163.930548,94.4478511 179.475048,73.3593255" id="Path-42" stroke="#E5ECE0" stroke-width="6.87477548" stroke-linecap="round" stroke-linejoin="round" transform="translate(160.787339, 79.619386) rotate(12.000000) translate(-160.787339, -79.619386) "></path>
                            <path d="M138.882676,37.3207994 L141.144489,37.3207994 L141.144489,37.3207994 C145.878359,37.3207994 149.715918,41.1583587 149.715918,45.892228 L149.715918,47.6688206 L149.715918,47.6688206 C149.715918,51.4215049 146.673766,54.4636566 142.921082,54.4636566 L138.882676,54.4636566 L138.882676,37.3207994 Z" id="Rectangle-56" fill="#35AE92" transform="translate(144.299297, 45.892228) rotate(6.000000) translate(-144.299297, -45.892228) "></path>
                            <g id="Oval-31">
                                <use fill="black" fill-opacity="1" filter="url(#filter-8)" xlink:href="#path-7"></use>
                                <ellipse stroke-opacity="0.370782382" stroke="#3AA3E3" stroke-width="0.799392462" cx="128.445296" cy="120" rx="23.5342098" ry="5.20030377"></ellipse>
                            </g>
                            <g id="Oval-31-Copy" opacity="0.5">
                                <use fill="black" fill-opacity="1" filter="url(#filter-10)" xlink:href="#path-9"></use>
                                <ellipse stroke-opacity="0.370782382" stroke="#3AA3E3" stroke-width="0.799392462" cx="128.445296" cy="128.8" rx="33.1077722" ry="7.60030377"></ellipse>
                            </g>
                            <g id="Oval-31-Copy-2" opacity="0.300000012">
                                <use fill="black" fill-opacity="1" filter="url(#filter-12)" xlink:href="#path-11"></use>
                                <ellipse stroke-opacity="0.370782382" stroke="#3AA3E3" stroke-width="0.799392462" cx="128.844194" cy="136.590476" rx="42.2824362" ry="9.79077996"></ellipse>
                            </g>
                        </g>
                        <g id="Group-30" transform="translate(165.346155, 225.600000)">
                            <g id="Group-8" transform="translate(80.575888, 19.200000)">
                                <rect id="Rectangle-24" fill="#FFD29B" x="66.2187356" y="121.6" width="6.38237494" height="12.8" rx="3.19118747"></rect>
                                <g id="Rectangle-23">
                                    <use fill="#2980B4" fill-rule="evenodd" xlink:href="#path-13"></use>
                                    <path stroke="#2980B4" stroke-width="1.59878492" d="M65.5065033,64.599045 L87.8416157,64.599045 L87.7575407,39.1539086 C87.7371659,32.9874866 82.7325631,27.9993925 76.5661074,27.9993925 L76.5504869,27.9993925 C76.5321024,27.9994026 76.5321024,27.9994026 76.513718,27.9994532 C70.3678799,28.0197601 65.4021556,33.0184082 65.4224625,39.1642464 L65.5065033,64.599045 Z"></path>
                                </g>
                                <ellipse id="Oval" fill="#1DA1F2" cx="63.825345" cy="47.2" rx="21.5405154" ry="21.6"></ellipse>
                                <ellipse id="Oval-Copy" fill="#2980B4" cx="74.1967043" cy="40" rx="6.38237494" ry="6.4"></ellipse>
                                <path d="M32.7112672,41.6 C45.4308294,41.6 52.0142117,46.525 52.0142117,63.521875" id="Path-14-Copy" stroke="#2980B4" stroke-width="1.59878492" transform="translate(42.362739, 52.560937) scale(-1, 1) translate(-42.362739, -52.560937) "></path>
                                <path d="M1.05673266,52.1938776 C1.05673266,48.8971582 1.36926091,44.6651984 1.99431742,39.4979982 L1.9943387,39.4980008 C4.7211692,16.9559123 23.8517794,-2.93432628e-15 46.5581961,-7.10542736e-15 L75.4391806,0 L75.4391806,1.77635684e-15 C80.5814148,8.31743751e-16 85.0619257,3.50417387 86.3009464,8.49490526 L89.2893887,20.532245 L89.2880895,20.5325675 C89.9262286,23.1029692 88.3602506,25.704112 85.7900271,26.3429684 L65.8468599,31.3014336 L65.8468599,31.3014336 C64.2785459,31.6912547 62.9159644,32.6603705 62.033089,34.0139216 L51.5942522,50.0178766 L51.5942522,50.0178766 C50.7088055,51.3753698 49.1976858,52.1938776 47.5769441,52.1938776 C32.0702069,52.1938776 16.5634698,52.1938776 1.05673266,52.1938776 Z" id="Path-12" fill="#1DA1F2"></path>
                                <path d="M4.20199513,11.447937 L10.031959,12.6644117 L10.031959,12.6644117 C11.1380594,12.8952096 11.9145369,13.8927371 11.8668404,15.0216529 L11.8668404,15.0216529 L11.8668404,15.0216529 C11.8216694,16.0907921 10.9183425,16.9208824 9.84920321,16.8757115 C9.84215034,16.8754135 9.83509916,16.875077 9.82804998,16.8747019 L3.53174851,16.539709 L3.53174851,16.539709 C2.20914236,16.4693401 1.19400349,15.3401108 1.26437236,14.0175046 C1.26850769,13.9397797 1.27642452,13.8623022 1.28809471,13.7853472 L1.34107591,13.4359813 L1.34107591,13.4359813 C1.53966182,12.1264767 2.76221076,11.2258991 4.07171541,11.424485 C4.1153495,11.4311021 4.15879262,11.4389224 4.20199513,11.447937 Z" id="Path-22-Copy" fill="#38475B" transform="translate(6.554463, 14.112348) scale(-1, 1) rotate(11.000000) translate(-6.554463, -14.112348) "></path>
                                <path d="M40.1028542,5.847937 L45.9328181,7.06441173 L45.9328181,7.06441173 C47.0389185,7.29520958 47.815396,8.29273713 47.7676994,9.42165286 L47.7676994,9.42165286 L47.7676994,9.42165286 C47.7225285,10.4907921 46.8192015,11.3208824 45.7500623,11.2757115 C45.7430094,11.2754135 45.7359582,11.275077 45.728909,11.2747019 L39.4326076,10.939709 L39.4326076,10.939709 C38.1100014,10.8693401 37.0948625,9.74011077 37.1652314,8.41750463 C37.1693668,8.3397797 37.1772836,8.26230217 37.1889538,8.18534717 L37.241935,7.83598134 L37.241935,7.83598134 C37.4405209,6.52647669 38.6630698,5.6258991 39.9725745,5.824485 C40.0162086,5.8311021 40.0596517,5.83892241 40.1028542,5.847937 Z" id="Path-22-Copy-3" fill="#38475B" transform="translate(42.455322, 8.512348) rotate(11.000000) translate(-42.455322, -8.512348) "></path>
                                <ellipse id="Oval-3" fill="#FF8B8B" cx="81.7757746" cy="149.2" rx="3.59008591" ry="3.6"></ellipse>
                                <path d="M14.7059932,30.3400949 L32.7908505,30.3400949 L32.7908505,30.3400949 C37.2057732,30.3400949 40.7847751,33.9190968 40.7847751,38.3340195 C40.7847751,38.3828523 40.7843277,38.4316841 40.7834328,38.4805087 L40.6737013,44.4675571 L40.6737013,44.4675571 C40.6497441,45.7746835 39.5832725,46.8217877 38.2759266,46.8217877 L8.99769523,46.8217877 L8.99769523,46.8217877 C7.67321844,46.8217877 6.59951785,45.7480871 6.59951785,44.4236103 C6.59951785,44.4089605 6.59965209,44.3943109 6.59992055,44.3796635 L6.71341089,38.1875302 L6.71341089,38.1875302 C6.79326826,33.8304422 10.3481734,30.3400949 14.7059932,30.3400949 Z" id="Rectangle-2" fill="#F1F1F1"></path>
                                <g id="Group-31" transform="translate(7.979564, 32.000000)">
                                    <ellipse id="Oval-24-Copy" stroke="#3390D5" stroke-width="0.799392462" fill="#3AA3E3" cx="3.74005913" cy="3.7643123" rx="3.74005913" ry="3.7643123"></ellipse>
                                    <ellipse id="Oval-24-Copy-2" fill="#EEEEEE" cx="5.11797566" cy="1.5849736" rx="1.57476174" ry="1.5849736"></ellipse>
                                </g>
                                <g id="Group-31-Copy" transform="translate(26.391876, 32.000000)">
                                    <ellipse id="Oval-24-Copy" stroke="#3390D5" stroke-width="0.799392462" fill="#3AA3E3" cx="3.74005913" cy="3.7643123" rx="3.74005913" ry="3.7643123"></ellipse>
                                    <ellipse id="Oval-24-Copy-2" fill="#EEEEEE" cx="5.11797566" cy="1.5849736" rx="1.57476174" ry="1.5849736"></ellipse>
                                </g>
                                <path d="M60.7637781,0 L78.9043967,0 C81.835732,0 84.6923365,1.93458193 85.2834413,4.31553116 L90.0053485,23.335206 C90.2592923,24.3580823 89.4868723,25.4304498 88.2868115,25.7287376 L72.855051,29.5644655 C67.6479866,30.8587366 61.3302054,35.1223161 58.7431607,39.0885575 L52.7188573,48.3245177 C51.6874549,49.9057779 49.5001522,51.2614351 47.2454266,51.8558711 C47.2342504,51.456855 47.2286054,51.0515116 47.2286054,50.6397534 C47.2286054,14.545225 66.0732067,2.658962 68.6411385,0.300255102 L60.7637781,0 Z" id="Combined-Shape" fill="#2980B4"></path>
                                <path d="M51.858392,40.9 C51.858392,40.9 55.8559464,38.875 63.3610023,40.9 C63.3610023,40.9 65.92112,54.9578125 72.596436,56.1960937 C79.271752,57.434375 80.5821957,54.4290932 84.9817649,51.3539062" id="Path-13" stroke="#2980B4" stroke-width="1.59878492"></path>
                                <path d="M75.7922981,41.6 C88.5118602,41.6 95.0952426,46.525 95.0952426,63.521875" id="Path-14" stroke="#2980B4" stroke-width="1.59878492"></path>
                                <path d="M29.563808,68.6324219 C29.563808,68.6324219 28.943256,62.4 32.3775222,62.4 C35.8117884,62.4 36.6251673,64.8667969 36.6251673,66.7496094" id="Path-15" stroke="#2980B4" stroke-width="1.59878492"></path>
                                <path d="M91.8020859,67.240625 C91.8020859,67.240625 91.0366216,64 95.2776443,64 C99.518667,64 98.2615916,68.4785156 98.2615916,70.3582031" id="Path-16" stroke="#2980B4" stroke-width="1.59878492"></path>
                                <path d="M64.6231419,113.11023 L65.0134703,85.6130657 C65.0134703,79.8620883 69.6685412,75.2 75.3848295,75.2 C81.1127731,75.2 85.7561888,79.8614549 85.7561888,85.6130657 L85.3658605,121.11023 C85.3658605,123.321367 83.5952906,125.113847 81.3768761,125.113847 C79.1738209,125.113847 77.3878918,123.319881 77.3878918,121.11023 L77.3878918,101.112632 L77.3878918,101.112632 C77.3878918,100.229647 76.6720914,99.5138469 75.7891069,99.5138469 L74.1998955,99.5138469 L74.1998955,99.5138469 C73.316911,99.5138469 72.6011106,100.229647 72.6011106,101.112632 L72.6011106,113.11023 C72.6011106,115.321367 70.8305408,117.113847 68.6121262,117.113847 C66.409071,117.113847 64.6231419,115.319881 64.6231419,113.11023 Z" id="Combined-Shape" fill="#FF8B8B"></path>
                                <ellipse id="Oval-8" fill="#FFD29B" cx="75.7922981" cy="86.4" rx="6.38237494" ry="6.4"></ellipse>
                            </g>
                            <g id="Group-5">
                                <rect id="Rectangle-21-Copy" fill="#FF8B8B" transform="translate(37.496453, 18.545455) scale(-1, 1) translate(-37.496453, -18.545455) " x="4.26325641e-14" y="0" width="74.9929056" height="37.0909091" rx="18.5454545"></rect>
                                <polygon id="Path-17-Copy" fill="#FF8B8B" transform="translate(68.727378, 30.462081) scale(-1, 1) translate(-68.727378, -30.462081) " points="62.9570072 20.4 62.9570072 40.5241611 74.4977484 28.9655399"></polygon>
                                <ellipse id="Oval-9-Copy" fill="#FFFFFF" transform="translate(18.516767, 18.545455) scale(-1, 1) translate(-18.516767, -18.545455) " cx="18.5167668" cy="18.5454545" rx="4.6291917" ry="4.63636364"></ellipse>
                                <rect id="Rectangle-41" fill="#FFFFFF" x="42.283234" y="12.8" width="24.7317029" height="10.4" rx="5.2"></rect>
                                <path d="M33.3426586,15.6694701 L35.5457364,20.0877933 L35.5457364,20.0877933 C35.9397484,20.8779934 35.6185744,21.837987 34.8283743,22.231999 C34.6067849,22.3424886 34.3625607,22.4 34.1149525,22.4 L29.708797,22.4 L29.708797,22.4 C28.8258124,22.4 28.110012,21.6841996 28.110012,20.8012151 C28.110012,20.5536069 28.1675235,20.3093827 28.2780131,20.0877933 L30.4810908,15.6694701 L30.4810908,15.6694701 C30.8751028,14.8792699 31.8350964,14.558096 32.6252965,14.952108 C32.9359546,15.1070093 33.1877573,15.3588119 33.3426586,15.6694701 Z" id="Triangle" fill="#FFFFFF"></path>
                            </g>
                        </g>
                        <g id="Group-7" transform="translate(1.000000, 169.600000)">
                            <g id="Group-32" transform="translate(114.084952, 0.000000)">
                                <g id="Group-15">
                                    <rect id="Rectangle-21" fill="#4057A6" x="0" y="0" width="64.6215463" height="35.6363636" rx="17.8181818"></rect>
                                    <polygon id="Path-17" fill="#4057A6" points="-7.99360578e-15 19.6 -6.77122992e-15 38.9349783 11.0101829 27.8296364"></polygon>
                                    <ellipse id="Oval-9" fill="#8197E7" cx="13.1921411" cy="18.0545455" rx="4.41637552" ry="4.45454545"></ellipse>
                                    <ellipse id="Oval-9-Copy-3" fill="#8197E7" cx="50.4036664" cy="18.0545455" rx="4.41637552" ry="4.45454545"></ellipse>
                                    <rect id="Rectangle-25" fill="#8197E7" x="22.0818776" y="13.3636364" width="19.4320523" height="8.90909091" rx="4.45454545"></rect>
                                </g>
                            </g>
                            <path d="M51.9438371,31.2 L35.3579433,31.2 L35.3579433,31.2 C32.2640877,31.2 29.7560222,33.7080655 29.7560222,36.8019211 C29.7560222,38.3914959 30.4313275,39.9062285 31.6136691,40.9686861 L31.6136691,40.9686861 L51.9438371,31.2 Z" id="Path-48" fill="#FF8B8B"></path>
                            <path d="M29.9946891,39.3073113 L27.0486981,36.8992037 C27.0486981,36.8992037 34.7105958,31.7855715 48.5488227,31.7855715 L32.4725712,39.5982627 L29.9946891,39.3073113 Z" id="Path-46" fill="#923535" opacity="0.300000012"></path>
                            <path d="M50.6601011,31.2 L50.6601011,31.2 L50.6601011,31.2 C68.0642373,31.2 82.1730774,45.3088401 82.1730774,62.7129763 L82.1730774,104.810328 L82.1730774,104.810328 C82.1730774,112.315697 76.0887741,118.4 68.5834056,118.4 L38.3325439,118.4 L38.3325439,118.4 C27.7367295,118.4 19.1471248,109.810395 19.1471248,99.2145809 L19.1471248,62.7129763 L19.1471248,62.7129763 C19.1471248,45.3088401 33.2559649,31.2 50.6601011,31.2 Z" id="Rectangle-58" fill="#FF8B8B"></path>
                            <rect id="Rectangle-57-Copy-2" fill="#714673" x="65.4193432" y="72.8" width="5.38121809" height="36.3130435" rx="2.69060904"></rect>
                            <rect id="Rectangle-57-Copy-3" fill="#714673" x="83.4088804" y="72.8" width="5.38121809" height="36.3130435" rx="2.69060904"></rect>
                            <rect id="Rectangle-57-Copy-4" fill="#8197E7" x="16.7537342" y="100.8" width="69.4083275" height="33.6" rx="16.8"></rect>
                            <path d="M65.4911605,82.8869565 L87.3959563,82.8869565 L87.3959563,82.8869565 C92.2523712,82.8869565 96.1892734,86.8238587 96.1892734,91.6802736 L96.1892734,102.812455 L96.1892734,102.812455 C96.1892734,111.863046 88.8523193,119.2 79.8017279,119.2 L65.4911605,119.2 L65.4911605,119.2 C56.4405691,119.2 49.1036151,111.863046 49.1036151,102.812455 L49.1036151,99.274502 L49.1036151,99.274502 C49.1036151,90.2239105 56.4405691,82.8869565 65.4911605,82.8869565 Z" id="Rectangle-57-Copy" fill="#8197E7"></path>
                            <ellipse id="Oval-30-Copy-3" fill="#923535" opacity="0.300000012" cx="45.4744215" cy="63.2" rx="7.18017181" ry="7.2"></ellipse>
                            <ellipse id="Oval-30-Copy-4" fill="#923535" opacity="0.300000012" cx="64.6215463" cy="63.2" rx="7.18017181" ry="7.2"></ellipse>
                            <path d="M81.4405482,56.0002913 C81.9202546,58.1919749 82.1730774,60.4687271 82.1730774,62.8044915 L82.1730774,70.356057 C81.9111337,70.3850934 81.6449431,70.4 81.3752805,70.4 C77.4097811,70.4 74.1951087,67.1764502 74.1951087,63.2 C74.1951087,59.2235498 77.4097811,56 81.3752805,56 C81.3970592,56 81.4188152,56.0000972 81.4405482,56.0002913 L81.4405482,56.0002913 Z" id="Combined-Shape" fill="#923535" opacity="0.300000012"></path>
                            <rect id="Rectangle-57" fill="#4057A6" x="0" y="91.6289855" width="102.915796" height="27.5710145" rx="13.7855072"></rect>
                            <ellipse id="Oval-29" fill="#8197E7" transform="translate(87.757655, 104.800000) scale(-1, 1) translate(-87.757655, -104.800000) " cx="87.7576555" cy="104.8" rx="4.78678121" ry="4.8"></ellipse>
                            <ellipse id="Oval-29-Copy" fill="#8197E7" transform="translate(55.047984, 104.800000) scale(-1, 1) translate(-55.047984, -104.800000) " cx="55.0479839" cy="104.8" rx="4.78678121" ry="4.8"></ellipse>
                            <ellipse id="Oval-29-Copy-2" fill="#8197E7" transform="translate(19.147125, 104.800000) scale(-1, 1) translate(-19.147125, -104.800000) " cx="19.1471248" cy="104.8" rx="4.78678121" ry="4.8"></ellipse>
                            <ellipse id="Oval-30" fill="#EEEEEE" cx="47.0700152" cy="61.6" rx="7.18017181" ry="7.2"></ellipse>
                            <g id="Group-36" transform="translate(46.272218, 57.600000)">
                                <ellipse id="Oval-24-Copy" stroke="#783333" stroke-width="0.799392462" fill="#D26363" cx="3.3051734" cy="4.89360598" rx="3.29842575" ry="3.29360598"></ellipse>
                                <ellipse id="Oval-24-Copy-2" fill="#EEEEEE" cx="5.11071919" cy="2.06046568" rx="2.0634809" ry="2.06046568"></ellipse>
                            </g>
                            <ellipse id="Oval-30-Copy" fill="#EEEEEE" cx="65.4193432" cy="61.6" rx="7.18017181" ry="7.2"></ellipse>
                            <ellipse id="Oval-30-Copy-2" fill="#EEEEEE" cx="82.1730774" cy="61.6" rx="7.18017181" ry="7.2"></ellipse>
                            <g id="Group-36-Copy" transform="translate(65.419343, 57.600000)">
                                <ellipse id="Oval-24-Copy" stroke="#783333" stroke-width="0.799392462" fill="#D26363" cx="3.3051734" cy="4.89360598" rx="3.29842575" ry="3.29360598"></ellipse>
                                <ellipse id="Oval-24-Copy-2" fill="#EEEEEE" cx="5.11071919" cy="2.06046568" rx="2.0634809" ry="2.06046568"></ellipse>
                            </g>
                            <g id="Group-36-Copy-2" transform="translate(81.375281, 57.600000)">
                                <ellipse id="Oval-24-Copy" stroke="#783333" stroke-width="0.799392462" fill="#D26363" cx="3.3051734" cy="4.89360598" rx="3.29842575" ry="3.29360598"></ellipse>
                                <ellipse id="Oval-24-Copy-2" fill="#EEEEEE" cx="5.11071919" cy="2.06046568" rx="2.0634809" ry="2.06046568"></ellipse>
                            </g>
                            <g id="Group-35" transform="translate(28.720687, 67.200000)">
                                <path d="M1.82421735,6.16332117 C1.82421735,6.16332117 1.91182952,3.17592258 4.06886669,3.17592258 C6.22590385,3.17592258 6.03195626,8.78618282 6.03195626,8.78618282 L1.82421735,6.16332117 Z" id="Path-44" fill="#FFFFFF"></path>
                                <path d="M7.18017181,9.30037394 C7.18017181,9.30037394 8.30414715,7.2 9.73844735,7.2 C11.1727475,7.2 10.969081,10.4 10.969081,10.4 L7.18017181,9.30037394 Z" id="Path-45" fill="#FFFFFF"></path>
                                <path d="M0.797796868,5.00203481 C0.797796868,5.00203481 11.2717799,3.12439864 16.7537342,10.8172433" id="Path-43" stroke="#923535" stroke-width="0.799392462" transform="translate(8.775766, 7.808622) scale(1, -1) rotate(-40.000000) translate(-8.775766, -7.808622) "></path>
                            </g>
                            <path d="M43.9946354,39.2711832 L50.664277,41.188674 L50.664277,41.188674 C51.3493768,41.385637 51.8213124,42.0123683 51.8213124,42.7252191 L51.8213124,42.9605363 L51.8213124,42.9605363 C51.8213124,43.7038375 51.2187477,44.3064022 50.4754465,44.3064022 C50.44538,44.3064022 50.4153219,44.3053947 50.3853229,44.3033813 L43.0669081,43.8122135 L43.0669081,43.8122135 C42.1859055,43.7530859 41.5196441,42.9909598 41.5787717,42.1099572 C41.5857592,42.0058427 41.6029229,41.9026624 41.630017,41.8018926 L42.0089348,40.3926036 L42.0089348,40.3926036 C42.2382018,39.539903 43.1153098,39.0345102 43.9680104,39.2637771 C43.9769066,39.2661691 43.9857819,39.2686378 43.9946354,39.2711832 Z" id="Path-47" fill="#923535"></path>
                            <path d="M75.9065101,46.1745811 L82.5761517,48.0920719 L82.5761517,48.0920719 C83.2612515,48.2890349 83.7331871,48.9157662 83.7331871,49.628617 L83.7331871,49.8639342 L83.7331871,49.8639342 C83.7331871,50.6072354 83.1306224,51.2098001 82.3873212,51.2098001 C82.3572547,51.2098001 82.3271966,51.2087926 82.2971976,51.2067792 L74.9787828,50.7156114 L74.9787828,50.7156114 C74.0977802,50.6564838 73.4315188,49.8943577 73.4906464,49.0133551 C73.4976339,48.9092406 73.5147976,48.8060603 73.5418917,48.7052905 L73.9208095,47.2960015 L73.9208095,47.2960015 C74.1500765,46.4433009 75.0271846,45.9379081 75.8798852,46.167175 C75.8887813,46.169567 75.8976566,46.1720357 75.9065101,46.1745811 Z" id="Path-47-Copy" fill="#923535" transform="translate(78.565249, 48.651699) scale(-1, 1) translate(-78.565249, -48.651699) "></path>
                            <path d="M23.8790923,54.5617881 L25.7342237,57.6647867 L25.7342237,57.6647867 C26.1873175,58.4226572 27.1689981,58.6697276 27.9268685,58.2166338 C27.9351597,58.2116769 27.9434057,58.206645 27.9516056,58.2015387 L31.3956371,56.0568436 L31.3956371,56.0568436 C32.1451708,55.5900879 32.3744077,54.6040905 31.907652,53.8545568 C31.8468321,53.7568898 31.775647,53.6660734 31.6953339,53.5836858 L30.4839543,52.3410171 L30.4839543,52.3410171 C30.2545367,52.1056738 29.9581631,51.9467525 29.6351852,51.8858907 L26.681988,51.3293917 L26.681988,51.3293917 C26.2442137,51.2468977 25.7918723,51.3507937 25.4339692,51.6160427 L24.299383,52.456907 L24.299383,52.456907 C23.6391277,52.9462353 23.4573871,53.8564202 23.8790923,54.5617881 Z" id="Path-49" fill="#923535" opacity="0.300000012"></path>
                            <path d="M31.9118747,50.2325737 C31.9118747,50.2325737 32.2331537,52.9943793 33.6417023,52.9943793 C35.050251,52.9943793 36.097656,52.1093105 36.097656,50.9139198 C36.097656,49.7185291 35.3331419,48.8 34.1575796,48.8 C32.9820173,48.8 31.9118747,50.2325737 31.9118747,50.2325737 Z" id="Path-50" fill="#923535" opacity="0.300000012"></path>
                            <path d="M26.3272966,47.8325737 C26.3272966,47.8325737 26.6485757,50.5943793 28.0571243,50.5943793 C29.4656729,50.5943793 32.2175507,48.5686007 32.2175507,47.37321 C32.2175507,46.1778193 29.7485638,46.4 28.5730015,46.4 C27.3974392,46.4 26.3272966,47.8325737 26.3272966,47.8325737 Z" id="Path-50-Copy" fill="#923535" opacity="0.300000012"></path>
                        </g>
                    </g>
                </g>
            </g>
        </g>
    </g>
</svg>