<?xml version="1.0" encoding="UTF-8" standalone="no"?>
<svg width="500px" height="500px" viewBox="0 0 500 500" version="1.1" xmlns="http://www.w3.org/2000/svg" xmlns:xlink="http://www.w3.org/1999/xlink">
    <!-- Generator: Sketch 43.1 (39012) - http://www.bohemiancoding.com/sketch -->
    <title>Alexa</title>
    <desc>Created with Sketch.</desc>
    <defs></defs>
    <g id="Page-1" stroke="none" stroke-width="1" fill="none" fill-rule="evenodd">
        <g id="Logos-Couleur" transform="translate(-31426.000000, -381.000000)" fill-rule="nonzero" fill="#0099D6">
            <path d="M31926,806 C31926,847.423333 31892.4217,881 31851,881 L31501,881 C31459.5767,881 31426,847.423333 31426,806 L31426,456 C31426,414.578333 31459.5783,381 31501,381 L31851,381 C31892.4217,381 31926,414.578333 31926,456 L31926,806 Z M31713.2315,541.103715 L31713.2321,541.103131 C31716.3987,538.766976 31713.7325,535.262743 31710.399,536.597856 C31688.9843,545.691924 31665.6529,550.114265 31644.4878,550.114265 C31613.1572,550.114265 31582.743,541.519551 31558.1616,527.169718 C31556.0787,525.918123 31554.4123,528.170761 31556.2461,529.75701 C31579.0759,550.364818 31609.1576,562.713149 31642.5723,562.713149 C31666.403,562.713149 31694.1505,555.204163 31713.2315,541.103715 Z M31721.2318,532.009647 L31721.2324,532.009647 C31723.6495,535.17981 31718.4816,548.028663 31716.0668,553.784949 C31715.3995,555.537065 31716.8992,556.288723 31718.4816,554.953026 C31728.7311,546.360064 31731.3967,528.33838 31729.3144,525.751088 C31727.2309,523.165549 31709.3159,520.997013 31698.4003,528.671282 C31696.7338,529.839359 31697.0669,531.50971 31698.9002,531.258574 C31705.0655,530.5075 31718.8153,528.922419 31721.2318,532.009647 Z M31699.3166,474.355677 L31699.3172,474.355093 C31699.3172,475.441405 31700.1507,476.191311 31701.1505,476.10721 L31718.649,476.10721 L31698.5683,504.976245 C31697.3183,506.895981 31697.3183,508.897482 31697.3183,510.149077 L31697.3183,517.741581 C31697.3183,518.826141 31698.5689,520.161253 31699.7354,519.493697 C31711.0669,513.403341 31724.7327,513.987379 31735.065,519.410179 C31736.3984,519.994218 31737.565,518.742623 31737.565,517.658063 L31737.565,509.732657 C31737.4816,508.647513 31737.1479,507.562953 31735.8151,506.812463 C31729.9823,503.557615 31723.1485,502.556573 31716.7324,502.724192 L31734.0647,477.943427 C31735.6477,475.774307 31736.5635,474.355677 31736.5635,473.271117 L31736.5635,466.846691 C31736.5635,465.678613 31735.7305,464.928708 31734.6474,464.928708 L31701.2333,464.928708 C31700.1507,464.928708 31699.3166,465.679197 31699.3166,466.847275 L31699.3166,474.355677 Z M31577.2444,520.997013 L31577.2444,520.996429 C31578.4109,520.996429 31579.2433,520.161837 31579.3267,519.161379 L31579.3267,491.46042 C31579.3267,485.370064 31578.9942,477.026487 31586.3261,477.026487 C31593.4924,477.026487 31592.5754,485.619449 31592.5754,491.459836 L31592.5754,519.160795 C31592.5754,520.161837 31593.4089,520.912911 31594.4081,520.997013 L31604.5748,520.997013 C31605.6585,520.997013 31606.5743,520.162421 31606.5743,519.161963 L31606.5743,491.461004 C31606.5743,488.457293 31606.4075,484.118469 31607.4912,481.448828 C31608.5749,478.779187 31611.0743,477.110588 31613.5737,477.110588 C31616.4901,477.110588 31618.8233,478.111631 31619.5734,481.615863 C31619.9898,483.701466 31619.8242,489.208367 31619.8242,491.376903 L31619.8242,519.077861 C31619.8242,520.07832 31620.6565,520.829978 31621.6557,520.913495 L31631.8224,520.913495 C31632.9055,520.913495 31633.823,520.078904 31633.823,519.077861 L31633.823,486.037037 C31633.823,480.447786 31634.488,474.106877 31631.2391,469.683951 C31628.4061,465.679197 31623.7398,463.927081 31619.49,463.927081 C31613.4897,463.927081 31607.9077,467.01431 31605.4077,473.606356 C31602.4913,467.014894 31598.4917,463.927665 31592.159,463.927665 C31585.9097,463.927665 31581.2434,467.014894 31578.7434,473.606356 L31578.5772,473.606356 L31578.5772,466.763757 C31578.5772,465.846817 31577.7442,465.095743 31576.7433,465.011641 L31567.2451,465.011641 C31566.1614,465.011641 31565.2444,465.846233 31565.2444,466.930793 L31565.2444,519.244896 C31565.3279,520.245355 31566.078,520.912911 31567.0777,520.997013 L31577.2444,520.997013 Z M31765.3947,464.010599 L31765.3947,464.010015 C31750.6457,464.010015 31742.4797,476.691248 31742.4797,492.962568 C31742.4797,509.148034 31750.5617,522.164506 31765.3947,522.164506 C31779.6437,522.164506 31788.6427,509.48152 31788.6427,493.546607 C31788.6427,477.026487 31780.4767,464.010599 31765.3947,464.010599 Z M31765.4781,474.689747 L31765.4781,474.690916 C31768.7276,474.690916 31770.9767,476.108962 31772.1433,479.780229 C31773.4767,483.952018 31773.6435,489.208367 31773.6435,493.62954 C31773.6435,500.304519 31773.3093,511.317738 31765.3941,511.317738 C31757.3949,511.317738 31757.4789,497.717228 31757.4789,491.292801 C31757.4789,484.951308 31757.9788,474.689747 31765.4781,474.689747 Z M31808.307,520.997013 L31808.3075,520.996429 C31809.3913,520.996429 31810.2242,520.162421 31810.1408,519.244312 L31810.1408,491.044001 C31810.1408,487.456251 31810.3076,484.285504 31811.725,481.115342 C31812.8916,478.612152 31815.1407,476.943553 31817.6395,476.943553 C31824.7229,476.943553 31824.0557,485.287131 31824.0557,491.044585 L31824.0557,519.411347 C31824.2225,520.329456 31824.9726,520.996429 31825.8883,521.079362 L31836.055,521.079362 C31837.0548,521.079362 31837.8883,520.328872 31837.9723,519.410763 L31837.9723,486.538726 C31837.9723,481.531762 31837.9723,474.439779 31835.3055,470.267406 C31832.4725,465.762715 31828.057,464.094116 31823.4724,464.094116 C31816.473,464.094116 31812.4739,467.514831 31809.6403,474.689747 L31809.4729,474.689747 L31809.4729,466.680824 C31809.3073,465.846233 31808.5572,465.262194 31807.6414,465.178676 L31798.2255,465.178676 C31797.2245,465.178676 31796.3922,465.930334 31796.3088,466.847275 L31796.3088,519.160795 C31796.3088,520.161837 31797.1423,520.912911 31798.142,520.997013 L31808.307,520.997013 Z M31690.8176,511.484773 C31688.9843,508.897482 31686.9842,506.812463 31686.9842,502.056636 L31686.9842,486.204072 C31686.9842,479.529677 31687.4019,473.355219 31682.4853,468.682909 C31678.5692,464.928708 31672.0696,463.593595 31667.1531,463.593595 C31657.4881,463.593595 31646.6565,467.181345 31644.405,479.195606 C31644.1559,480.447202 31645.0723,481.114758 31645.9058,481.281793 L31655.7371,482.365769 C31656.6528,482.365769 31657.3201,481.44766 31657.4869,480.530135 C31658.321,476.441864 31661.7367,474.438611 31665.6529,474.438611 C31667.7352,474.438611 31670.1524,475.190269 31671.4023,477.10942 C31672.8197,479.111505 31672.6523,482.031699 31672.6523,484.450787 L31672.6523,485.786484 C31666.7361,486.45404 31658.986,486.871044 31653.4873,489.290716 C31647.1546,492.043875 31642.6546,497.717228 31642.6546,505.976704 C31642.6546,516.489401 31649.3215,521.829852 31657.904,521.829852 C31665.0702,521.829852 31669.0698,520.077736 31674.653,514.404383 C31676.4845,517.07344 31677.0678,518.325619 31680.4858,521.161712 C31681.2348,521.579883 31682.2357,521.496366 31682.9006,520.912327 C31684.9847,519.076693 31688.6518,515.905947 31690.8176,514.15383 C31691.6505,513.486274 31691.4843,512.401714 31690.8176,511.484773 L31690.8176,511.484773 Z M31670.7351,506.812463 C31669.1526,509.64914 31666.5692,511.484773 31663.6528,511.484773 C31659.7372,511.484773 31657.4875,508.481062 31657.4875,504.059305 C31657.4875,495.380489 31665.237,493.795991 31672.6529,493.795991 L31672.6529,496.048629 C31672.6529,500.053383 31672.7363,503.308231 31670.7362,506.812463 L31670.7351,506.812463 Z M31557.4127,511.401256 C31555.5788,508.813964 31553.5787,506.728946 31553.5787,501.973118 L31553.5787,486.120554 C31553.5787,479.446159 31553.9952,473.271701 31549.0793,468.599391 C31545.1637,464.84519 31538.6636,463.510078 31533.747,463.510078 C31524.082,463.510078 31513.2486,467.097828 31510.9989,479.112089 C31510.7493,480.363684 31511.6656,481.03124 31512.4991,481.198275 L31522.331,482.366353 C31523.2467,482.366353 31523.914,481.448244 31524.0808,480.530719 C31524.9138,476.442448 31528.3301,474.439195 31532.2468,474.439195 C31534.4132,474.439195 31536.7463,475.190853 31537.9963,477.110004 C31539.4125,479.112089 31539.2463,482.032283 31539.2463,484.451371 L31539.2463,485.787068 C31533.33,486.454624 31525.5799,486.871628 31520.0813,489.2913 C31513.7468,492.044459 31509.2479,497.717812 31509.2479,505.977288 C31509.2479,516.489986 31515.9148,521.830436 31524.4967,521.830436 C31531.663,521.830436 31535.6625,520.07832 31541.2452,514.404967 C31543.0784,517.074024 31543.6617,518.326203 31547.078,521.162296 C31547.8281,521.580467 31548.8279,521.49695 31549.4946,520.912911 C31551.5781,519.077277 31555.244,515.906531 31557.4109,514.070897 C31558.1599,513.405093 31558.0759,512.318781 31557.4109,511.40184 L31557.4127,511.401256 Z M31537.3302,506.812463 C31535.7471,509.64914 31533.1638,511.484773 31530.2473,511.484773 C31526.3312,511.484773 31524.082,508.481062 31524.082,504.059305 C31524.082,495.380489 31531.8304,493.795991 31539.2474,493.795991 L31539.2474,496.048629 C31539.2474,500.053383 31539.3302,503.308231 31537.3302,506.812463 L31537.3302,506.812463 Z M31560.9222,759.599476 L31563.6949,768.684519 L31577.18,768.684519 C31576.0455,764.394188 31575.5427,756.823172 31575.5427,742.43727 L31575.5427,711.897924 C31575.5427,691.707665 31563.5696,682.621739 31544.5408,682.621739 C31534.5835,682.621739 31523.8711,685.146294 31514.167,690.949768 L31519.7124,701.802353 C31525.6354,698.269035 31532.9453,695.240982 31542.5232,695.240982 C31552.6058,695.240982 31559.9147,700.414642 31559.9147,712.275989 L31559.9147,716.692636 L31544.2876,717.198783 C31535.8441,717.575965 31529.0372,718.586494 31523.2412,721.489114 C31514.6725,725.526813 31509,732.972396 31509,744.203046 C31509,760.355606 31520.5946,770.450294 31535.9685,770.450294 C31546.4295,770.450294 31554.4945,765.655583 31560.9222,759.599476 Z M31589.1522,643 L31589.154,643.000883 L31589.154,752.280209 C31589.154,763.384543 31594.8256,769.820481 31606.5446,769.820481 C31610.7041,769.820481 31615.6179,768.937151 31619.526,767.296809 L31616.3748,755.056513 C31614.9889,755.560895 31612.4694,756.067042 31611.2078,756.067042 C31606.6707,756.067042 31604.7793,754.173184 31604.7793,747.737246 L31604.7793,643 L31589.1522,643 Z M31620.2803,726.032077 L31620.2812,726.033844 C31620.2812,750.007403 31633.1355,770.451178 31660.988,770.323978 C31670.566,770.323978 31680.7738,767.67399 31688.5865,762.753846 L31683.6718,751.900378 C31677.7488,755.056513 31670.8165,757.580185 31662.8768,757.580185 C31646.2414,757.580185 31636.6634,745.844272 31636.2858,730.070659 L31690.477,730.070659 L31690.477,726.156627 C31690.477,699.404997 31677.6226,682.495423 31655.694,682.495423 C31634.2692,682.495423 31620.2803,700.415526 31620.2803,726.032077 Z M31722.6152,726.663658 L31722.616,726.663658 L31691.8656,768.683636 L31708.7542,768.683636 L31730.9324,737.26361 L31752.8637,768.683636 L31769.7488,768.683636 L31740.0066,726.283826 L31770.0011,684.767346 L31753.3656,684.767346 L31731.5632,715.683874 L31710.2645,684.767346 L31693.1236,684.767346 L31722.6152,726.663658 Z M31823.1839,759.599476 L31823.1839,759.599476 L31825.9566,768.684519 L31839.44,768.684519 C31838.3064,764.394188 31837.8018,756.823172 31837.8018,742.43727 L31837.8018,711.898807 C31837.8018,691.708548 31825.8296,682.622622 31806.7981,682.622622 C31796.8426,682.622622 31786.1302,685.147177 31776.4261,690.950651 L31781.9724,701.803236 C31787.8954,698.269918 31795.2053,695.241865 31804.7832,695.240099 C31814.8648,695.240099 31822.1747,700.414642 31822.1747,712.275989 L31822.1747,716.692636 L31806.5476,717.198783 C31798.1032,717.575965 31791.298,718.586494 31785.502,721.489114 C31776.9316,725.526813 31771.2617,732.972396 31771.2617,744.203046 C31771.2617,760.355606 31782.8555,770.450294 31798.2303,770.450294 C31808.6895,770.450294 31816.7563,765.655583 31823.1839,759.599476 Z M31546.1772,728.430316 L31546.1772,728.430316 L31559.7868,727.924169 L31559.7868,748.117078 C31556.258,751.902144 31549.2005,757.707385 31539.6226,757.707385 C31530.5501,757.707385 31524.8776,752.02846 31524.8776,743.321483 C31524.8776,738.147823 31527.1449,733.984691 31531.4323,731.458369 C31534.9611,729.691711 31539.4973,728.556632 31546.1772,728.430316 Z M31674.347,718.460178 L31674.3462,718.460178 L31636.1597,718.460178 C31636.412,705.590069 31643.5957,694.990117 31655.694,694.990117 C31668.2952,694.990117 31673.9677,706.724264 31674.347,718.460178 Z M31808.4399,728.430316 L31808.439,728.430316 L31822.0494,727.924169 L31822.0494,748.117078 C31818.5206,751.902144 31811.4631,757.707385 31801.8852,757.707385 C31792.811,757.707385 31787.1403,752.02846 31787.1403,743.321483 C31787.1403,738.147823 31789.4084,733.984691 31793.6932,731.458369 C31797.2219,729.691711 31801.759,728.556632 31808.4399,728.430316 Z" id="Alexa"></path>
        </g>
    </g>
</svg>