<?xml version="1.0" encoding="UTF-8"?>
<svg width="96px" height="38px" viewBox="0 0 96 38" version="1.1" xmlns="http://www.w3.org/2000/svg" xmlns:xlink="http://www.w3.org/1999/xlink">
    <!-- Generator: Sketch 45.2 (43514) - http://www.bohemiancoding.com/sketch -->
    <title>callr</title>
    <desc>Created with Sketch.</desc>
    <defs></defs>
    <g id="pages_for_valérie" stroke="none" stroke-width="1" fill="none" fill-rule="evenodd">
        <g id="Artboard-4" transform="translate(-786.000000, -191.000000)" fill="#AAB8C2">
            <g id="Group-35" transform="translate(308.000000, 72.000000)">
                <g id="Group-4" transform="translate(167.000000, 119.000000)">
                    <g id="Group" transform="translate(311.000000, 0.000000)">
                        <path d="M15.0302151,7.73573989 C18.9119921,7.73573989 22.4511662,9.21740771 25.1168219,11.6502107 C23.6799473,13.7229524 22.6291931,16.0888414 22.0721668,18.6419303 C20.641622,16.2298388 18.0234402,14.6143429 15.0302151,14.6143429 C10.5035853,14.6143429 6.83385807,18.3081567 6.83385807,22.8662768 C6.83385807,25.2704023 7.85533669,27.4347525 9.48448034,28.9435046 L9.48448034,32.5369474 L12.5742356,30.7414209 C13.3488502,30.9859757 14.1748949,31.1182106 15.0302151,31.1182106 C18.0234402,31.1182106 20.641622,29.5035113 22.0721668,27.0922164 C22.6291931,29.6453053 23.679156,32.0111943 25.1176131,34.0855292 C22.4511662,36.5183322 18.9127833,38 15.0302151,38 C6.72941564,38 0,31.2249544 0,22.8678699 C0,14.5115821 6.72941564,7.73573989 15.0302151,7.73573989 Z M84.1924668,19.3835608 C84.1924668,12.819613 89.478678,7.49516802 96,7.49516802 L96,14.2853489 C93.278167,14.2853489 91.0263249,16.6432719 91.0263249,19.3835608 L91.0255337,19.3835608 L91.0255337,38 L84.1924668,38 L84.1924668,19.3835608 Z M72.5621693,37.9992034 L79.3960274,37.9992034 L79.3960274,0 L72.5621693,0 L72.5621693,37.9992034 Z M60.9318718,37.9992034 L67.7657298,37.9992034 L67.7657298,0.000796595602 L60.9318718,0.000796595602 L60.9318718,37.9992034 Z M41.1052172,7.73494329 C49.4044342,7.73494329 56.1354323,14.5099889 56.1354323,22.8654802 L56.1354323,37.9992034 L49.3023654,37.9992034 L49.3023654,35.5520617 C46.9444985,37.0990504 44.1300915,37.9992034 41.1052172,37.9992034 C32.8044177,37.9992034 26.0750021,31.2241578 26.0750021,22.8670733 C26.0750021,14.5099889 32.8044177,7.73494329 41.1052172,7.73494329 Z M46.6509519,28.942708 L46.6509519,32.5369474 L43.561988,30.7414209 C42.786582,30.9851791 41.9613286,31.117414 41.1052172,31.117414 C36.5777961,31.117414 32.9088601,27.4236002 32.9088601,22.8654802 C32.9088601,18.3081567 36.5777961,14.6135463 41.1052172,14.6135463 C45.6326383,14.6135463 49.3023654,18.3081567 49.3023654,22.8654802 C49.3023654,25.2704023 48.2808868,27.4339559 46.6509519,28.942708 L46.6509519,28.942708 Z" id="callr"></path>
                    </g>
                </g>
            </g>
        </g>
    </g>
</svg>