<?xml version="1.0" encoding="UTF-8"?>
<svg width="100px" height="87px" viewBox="0 0 100 87" version="1.1" xmlns="http://www.w3.org/2000/svg" xmlns:xlink="http://www.w3.org/1999/xlink">
    <!-- Generator: Sketch 45.2 (43514) - http://www.bohemiancoding.com/sketch -->
    <title>chat_section1_1_mobile</title>
    <desc>Created with Sketch.</desc>
    <defs>
        <rect id="path-1" x="0" y="0" width="100" height="100"></rect>
        <path d="M6.13496933,0 L48.7791424,0 L48.7791424,8.8817842e-16 C52.1673924,-2.74360354e-15 54.9141117,2.74671933 54.9141117,6.13496933 L54.9141117,79.1620989 L0,79.1620989 L0,6.13496933 L8.8817842e-16,6.13496933 C4.73237468e-16,2.74671933 2.74671933,2.39876827e-15 6.13496933,1.77635684e-15 Z" id="path-3"></path>
        <rect id="path-5" x="4.7369657" y="12.6415252" width="44.9134526" height="67.1797465"></rect>
    </defs>
    <g id="pages_for_valérie" stroke="none" stroke-width="1" fill="none" fill-rule="evenodd">
        <g id="700-card---extra" transform="translate(-110.000000, -13.000000)">
            <g id="Group-5" transform="translate(10.000000, 0.000000)">
                <g id="chat_section1_1_mobile" transform="translate(100.000000, 0.000000)">
                    <mask id="mask-2" fill="white">
                        <use xlink:href="#path-1"></use>
                    </mask>
                    <g id="Rectangle"></g>
                    <g id="Group-24" mask="url(#mask-2)">
                        <g transform="translate(0.000000, 13.500000)">
                            <path d="M16.6908989,71.3226306 C18.1404514,71.6431806 19.6471494,71.8122136 21.193431,71.8122136 C32.6302239,71.8122136 41.9015764,62.5651741 41.9015764,51.1583728 C41.9015764,39.7515715 32.6302239,30.504532 21.193431,30.504532 C9.75663815,30.504532 0.48528566,39.7515715 0.48528566,51.1583728 C0.48528566,57.7465491 3.57804247,63.6142677 8.39449178,67.3960544 L8.39449178,75.8239106 L16.6908968,71.3226302 Z" id="Combined-Shape" stroke="#35A1E2" stroke-width="0.613496933" stroke-dasharray="1.840490818023682,3.067484617233276"></path>
                            <g id="Group-11" stroke="none" stroke-width="1" fill-rule="evenodd" transform="translate(30.061350, 6.500000)">
                                <g id="Group-2">
                                    <mask id="mask-4" fill="white">
                                        <use xlink:href="#path-3"></use>
                                    </mask>
                                    <use id="Mask" fill="#39434D" xlink:href="#path-3"></use>
                                    <g id="Rectangle-7" mask="url(#mask-4)">
                                        <use fill="#FFFFFF" fill-rule="evenodd" xlink:href="#path-5"></use>
                                        <rect stroke="#000000" stroke-width="0.613496933" x="4.43021723" y="12.3347767" width="45.5269495" height="67.7932434"></rect>
                                    </g>
                                </g>
                                <g id="Group-12" transform="translate(7.852753, 27.461275)">
                                    <g id="Group-16" transform="translate(0.000000, 0.000000)">
                                        <rect id="Rectangle-21" fill="#F3F3F3" x="5.37452623" y="0.097581282" width="28.8370457" height="10.558334" rx="1.22699387"></rect>
                                        <rect id="Rectangle-21" fill="#B2C5D0" x="7.399861" y="2.41165454" width="17.0766023" height="1.14988636" rx="0.574943181"></rect>
                                        <rect id="Rectangle-21" fill="#B2C5D0" x="7.399861" y="4.682564" width="23.9072432" height="1.14988636" rx="0.574943181"></rect>
                                        <rect id="Rectangle-21" fill="#B2C5D0" x="7.399861" y="6.95347347" width="23.9072432" height="1.14988636" rx="0.574943181"></rect>
                                        <rect id="Rectangle-20" fill="#54C6AB" x="0" y="6.96152178" width="3.41532046" height="3.4063642" rx="1.7031821"></rect>
                                    </g>
                                    <g id="Group-16-Copy-2" transform="translate(0.000000, 20.578930)">
                                        <rect id="Rectangle-20" fill="#54C6AB" x="0" y="6.82077672" width="3.41532046" height="3.4063642" rx="1.7031821"></rect>
                                        <g id="Wow" transform="translate(6.261421, 0.000000)">
                                            <ellipse id="Wow-Oval" fill="#FFDA69" cx="5.63362377" cy="5.61885028" rx="5.63362377" ry="5.61885028"></ellipse>
                                            <ellipse id="mouth" fill="#252B37" cx="5.63362377" cy="7.78752934" rx="1.68020358" ry="2.16867906"></ellipse>
                                            <path d="M8.49903478,5.30589897 C8.01523017,5.39120677 7.53489523,4.96053072 7.42617666,4.34395708 C7.31745809,3.72738344 7.62152541,3.1583961 8.10533002,3.07308829 C8.58913463,2.98778049 9.06946957,3.41845654 9.17818814,4.03503018 C9.28690671,4.65160383 8.98283939,5.22059116 8.49903478,5.30589897 Z M2.85323342,5.34415868 C2.3694288,5.25885088 2.06536149,4.68986354 2.17408006,4.0732899 C2.28279862,3.45671626 2.76313357,3.0260402 3.24693818,3.11134801 C3.73074279,3.19665581 4.03481011,3.76564315 3.92609154,4.38221679 C3.81737297,4.99879043 3.33703803,5.42946649 2.85323342,5.34415868 Z M9.14750869,1.47020294 C9.24078107,1.56955352 9.23564196,1.725507 9.13603016,1.81853479 C9.03641836,1.91156257 8.88005484,1.90643693 8.78678246,1.80708635 C8.62787607,1.63782465 8.4107339,1.53521085 8.17381502,1.52282702 C7.95828277,1.51156107 7.75107397,1.5761469 7.58236646,1.7029719 C7.47339075,1.78489383 7.31846302,1.76319407 7.23632569,1.65450413 C7.15418836,1.54581419 7.17594518,1.39129274 7.28492089,1.3093708 C7.54557991,1.11342174 7.86701429,1.01323243 8.19967827,1.03062089 C8.56543937,1.04973935 8.90215311,1.2088585 9.14750869,1.47020294 Z M3.08337485,1.56622389 C2.84645597,1.57860773 2.6293138,1.68122153 2.47040741,1.85048323 C2.37713503,1.94983381 2.22077151,1.95495945 2.12115971,1.86193166 C2.02154792,1.76890388 2.0164088,1.6129504 2.10968118,1.51359982 C2.35503676,1.25225537 2.6917505,1.09313623 3.0575116,1.07401777 C3.39017558,1.05662931 3.71160996,1.15681861 3.97226898,1.35276768 C4.08124469,1.43468961 4.10300151,1.58921107 4.02086418,1.69790101 C3.93872685,1.80659095 3.78379912,1.82829071 3.67482341,1.74636877 C3.5061159,1.61954378 3.2989071,1.55495795 3.08337485,1.56622389 Z" id="eyes" fill="#252B37"></path>
                                        </g>
                                    </g>
                                    <g id="Group-16-Copy" transform="translate(3.984541, 13.766202)">
                                        <rect id="Rectangle-21" fill="#C1E0F4" x="0.133966835" y="0" width="30.0346973" height="4.5311847" rx="1.22699387"></rect>
                                        <rect id="Rectangle-20" fill="#35A1E2" x="31.3071042" y="1.13545473" width="3.41532046" height="3.4063642" rx="1.7031821"></rect>
                                    </g>
                                    <g id="Group-16-Copy-3" transform="translate(4.412645, 34.204387)">
                                        <rect id="Rectangle-21" fill="#C1E0F4" x="0.105538869" y="0" width="29.6350203" height="10.2784324" rx="1.22699387"></rect>
                                        <rect id="Rectangle-20" fill="#35A1E2" x="30.8789993" y="6.81272841" width="3.41532046" height="3.4063642" rx="1.7031821"></rect>
                                    </g>
                                </g>
                                <rect id="Rectangle-7" fill="#C1E0F4" x="4.7369657" y="12.6415252" width="44.9134526" height="8.69269585"></rect>
                                <rect id="Rectangle-8" fill="#FFFFFF" x="19.6319018" y="4.8951049" width="15.7558784" height="2.7500481" rx="1.37502405"></rect>
                            </g>
                            <g id="Group-25" stroke="none" stroke-width="1" fill-rule="evenodd" transform="translate(3.680982, 33.423077)">
                                <path d="M12.3404069,34.6411508 C14.0582499,35.1920165 15.8899974,35.4895105 17.791411,35.4895105 C27.617336,35.4895105 35.5828221,27.544913 35.5828221,17.7447552 C35.5828221,7.94459753 27.617336,0 17.791411,0 C7.96548605,0 0,7.94459753 0,17.7447552 C0,23.4049895 2.6571432,28.4462421 6.79519747,31.6953656 L6.79519747,38.9361615 L12.3404069,34.6411508 Z" id="Combined-Shape" fill="#35A1E2"></path>
                                <g id="Group-26" transform="translate(8.829803, 15.870388)" fill="#FFFFFF">
                                    <ellipse id="Oval-3" cx="2.16664147" cy="2.16095972" rx="2.16664147" ry="2.16095972"></ellipse>
                                    <ellipse id="Oval-3" cx="9.38877972" cy="2.16095972" rx="2.16664147" ry="2.16095972"></ellipse>
                                    <ellipse id="Oval-3" cx="16.610918" cy="2.16095972" rx="2.16664147" ry="2.16095972"></ellipse>
                                </g>
                            </g>
                            <g id="Love" stroke="none" stroke-width="1" fill-rule="evenodd" transform="translate(71.165644, 0.241259)">
                                <ellipse id="Love-Oval" fill="#F55065" cx="14.3368288" cy="14.2992322" rx="14.3368288" ry="14.2992322"></ellipse>
                                <path d="M5.90827586,12.5905724 C5.82769724,12.2533839 5.78503619,11.9015266 5.78503619,11.5397313 C5.78503619,9.04586352 7.81203099,7.02418425 10.3124558,7.02418425 C12.0645327,7.02418425 13.5841569,8.01682241 14.3368288,9.46900072 C15.0895007,8.01682241 16.6091249,7.02418425 18.3612018,7.02418425 C20.8616266,7.02418425 22.8886214,9.04586352 22.8886214,11.5397313 C22.8886214,11.8647693 22.8541885,12.1817861 22.7887622,12.4873512 C22.7835081,12.5464259 22.7749039,12.606839 22.7628598,12.668618 C21.8825282,17.1841651 14.4625905,22.3268714 14.4625905,22.3268714 C14.4625905,22.3268714 6.16232115,16.9333014 5.91079784,12.668618 C5.90924849,12.6423481 5.90841089,12.6163337 5.90827586,12.5905724 Z" fill="#FFFFFF"></path>
                            </g>
                        </g>
                    </g>
                </g>
            </g>
        </g>
    </g>
</svg>