<?xml version="1.0" encoding="UTF-8"?>
<svg width="200px" height="153px" viewBox="0 0 200 153" version="1.1" xmlns="http://www.w3.org/2000/svg" xmlns:xlink="http://www.w3.org/1999/xlink">
    <!-- Generator: Sketch 45.2 (43514) - http://www.bohemiancoding.com/sketch -->
    <title>chat_section3_mobile</title>
    <desc>Created with Sketch.</desc>
    <defs>
        <rect id="path-1" x="0" y="0" width="200" height="200"></rect>
        <rect id="path-3" x="0" y="0.0862745116" width="144.672131" height="131.002686" rx="8.19672131"></rect>
        <rect id="path-5" x="8.62284225" y="108.990966" width="94.8512648" height="16.324638" rx="1.63934426"></rect>
        <path d="M8.46443466,40.7715476 C2.11182469,37.4109676 -0.721523038,16.3560996 0.174929474,11.5188482 C1.07138199,6.68159676 4.61334887,3.88397417 7.53122601,3.12552996 C10.4491031,2.36708575 33.8372951,-3.46631044 42.1104851,3.12552996 C47.3393352,7.3219864 45.9041532,28.6474997 42.1104851,35.2121014 C38.3168171,41.776703 14.8170446,44.1321276 8.46443466,40.7715476 Z" id="path-6"></path>
    </defs>
    <g id="pages_for_valérie" stroke="none" stroke-width="1" fill="none" fill-rule="evenodd">
        <g id="700-card---extra" transform="translate(-60.000000, -131.000000)">
            <g id="Group-4" transform="translate(10.000000, 108.000000)">
                <g id="chat_section3_mobile" transform="translate(50.000000, 0.000000)">
                    <mask id="mask-2" fill="white">
                        <use xlink:href="#path-1"></use>
                    </mask>
                    <g id="Rectangle"></g>
                    <g id="Group-25" mask="url(#mask-2)">
                        <g transform="translate(41.803279, 24.000000)">
                            <g id="Rectangle-15" stroke-width="1" fill="none" fill-rule="evenodd">
                                <mask id="mask-4" fill="white">
                                    <use xlink:href="#path-3"></use>
                                </mask>
                                <g id="Mask">
                                    <use fill="#FFFFFF" fill-rule="evenodd" xlink:href="#path-3"></use>
                                    <rect stroke="#54C6AB" stroke-width="0.819672131" x="-0.409836066" y="-0.323561554" width="145.491803" height="131.822358" rx="8.19672131"></rect>
                                </g>
                                <path d="M0,103.241048 L144.672131,103.241048 L144.672131,122.892239 L144.672131,122.892239 C144.672131,127.419163 141.002334,131.08896 136.47541,131.08896 L8.19672131,131.08896 L8.19672131,131.08896 C3.66979713,131.08896 -8.32739588e-15,127.419163 -8.8817842e-15,122.892239 L0,103.241048 Z" fill="#EBF1F5" mask="url(#mask-4)"></path>
                                <g id="Rectangle-9" mask="url(#mask-4)">
                                    <use fill="#FFFFFF" fill-rule="evenodd" xlink:href="#path-5"></use>
                                    <rect stroke="#C7CFD6" stroke-width="0.5" x="8.87284225" y="109.240966" width="94.3512648" height="15.824638" rx="1.63934426"></rect>
                                </g>
                                <rect id="Rectangle-9-Copy" fill="#54C6AB" mask="url(#mask-4)" x="106.604753" y="108.990966" width="27.0493023" height="16.324638" rx="1.63934426"></rect>
                                <text id="SEND" mask="url(#mask-4)" font-family="Avenir-Black, Avenir" font-size="4.50819672" font-weight="700" letter-spacing="0.409836054" fill="#FFFFFF">
                                    <tspan x="112.575996" y="118.839446">SEN</tspan>
                                    <tspan x="122.907553" y="118.839446">D</tspan>
                                </text>
                            </g>
                            <g id="Group-30" stroke-width="1" fill="none" fill-rule="evenodd" transform="translate(14.850451, 42.732141)">
                                <path d="M0,0 L110.288899,0 L110.288899,-8.8817842e-16 C113.684092,4.51920926e-15 116.43644,2.75234785 116.43644,6.14754098 L116.43644,40.3678282 L116.43644,40.3678282 C116.43644,43.7630213 113.684092,46.5153692 110.288899,46.5153692 L6.14754098,46.5153692 L6.14754098,46.5153692 C2.75234785,46.5153692 -1.3605656e-15,43.7630213 -1.77635684e-15,40.3678282 L0,0 Z" id="Rectangle-11" fill="#EBF1F5"></path>
                                <text id="I-really-like-that-I" font-family="Avenir-Book, Avenir" font-size="5.73770492" font-weight="normal" line-spacing="8.19672131" fill="#23272A">
                                    <tspan x="12.0399522" y="16.6610626">I really like that I can change colors </tspan>
                                    <tspan x="12.0399522" y="24.8577839">and fonts for my interactive chat! </tspan>
                                    <tspan x="12.0399522" y="33.0545052">It's amazing!</tspan>
                                </text>
                            </g>
                            <path d="M8.19672131,9.02056208e-17 L136.47541,9.02056208e-17 L136.47541,1.77635684e-15 C141.002334,-1.51380644e-14 144.672131,3.66979713 144.672131,8.19672131 L144.672131,27.8479119 L0,27.8479119 L0,8.19672131 L1.77635684e-15,8.19672131 C1.22196852e-15,3.66979713 3.66979713,-9.44773773e-16 8.19672131,-1.77635684e-15 Z" id="Rectangle-15-Copy" fill="#54C6AB" fill-rule="evenodd"></path>
                            <text id="Say-Hi-To-Broid-Robo" fill="none" font-family="Avenir-Black, Avenir" font-size="6.55737705" font-weight="700">
                                <tspan x="12.4552166" y="16.4157592" fill="#FFFFFF">Say Hi To Broid Robot!</tspan>
                            </text>
                        </g>
                    </g>
                    <g id="Group-26" mask="url(#mask-2)">
                        <g transform="translate(171.311475, 141.213115)">
                            <circle id="Oval-12" fill="#35AE92" cx="14.3442623" cy="14.3442623" r="14.3442623"></circle>
                            <g id="Broid-Logo" stroke-width="1" fill="none" transform="translate(6.615075, 5.582110)">
                                <path d="M12.3078805,12.6236843 C13.1993559,11.5580468 13.7341572,10.19618 13.7341572,8.71220963 C13.7341572,5.2974184 10.9023068,2.52918316 7.40904222,2.52918316 C3.91577768,2.52918316 1.08392726,5.2974184 1.08392726,8.71220963 C1.08392726,12.1270009 3.91577768,14.8952361 7.40904222,14.8952361 C8.54297486,14.8952361 9.60721516,14.6035508 10.5275272,14.0927485 C10.7922584,14.3361111 11.9427015,14.8592311 12.6007939,14.992157 C12.9462734,15.0619392 13.240991,15.0749823 13.4335389,15.0329024 C13.5534618,15.0066941 13.575205,14.9883577 13.5823641,14.9513322 C13.5947229,14.8874152 13.6100088,14.9131756 13.4844658,14.827496 C13.5111834,14.8457301 13.2513664,14.6747051 13.1666283,14.6121686 C12.6166331,14.2062732 12.3308484,13.503047 12.3308484,12.6050825 L12.3078805,12.6236843 Z M13.3853277,12.9434134 C13.412922,13.3839639 13.5454731,13.6014273 13.801376,13.7902831 C13.8592393,13.8329861 14.0932812,13.9870445 14.0875227,13.9831145 C14.519106,14.277658 14.719462,14.6153061 14.6175078,15.1425923 C14.4451099,16.0341992 13.5366225,16.2327427 12.3876199,16.0006595 C11.7055019,15.8628809 10.9829194,15.5757543 10.5113365,15.2584496 C9.56823184,15.6862562 8.51716366,15.9250428 7.40904222,15.9250428 C3.33396111,15.9250428 0.0304551626,12.6957474 0.0304551626,8.71220963 C0.0304551626,4.72867186 3.33396111,1.49937645 7.40904222,1.49937645 C11.4841233,1.49937645 14.7876293,4.72867186 14.7876293,8.71220963 C14.7876293,10.2929215 14.2674625,11.7548711 13.3853277,12.9434134 Z" id="Shape-v2" stroke="#FFFFFF" stroke-width="0.5" fill="#FFFFFF" fill-rule="nonzero" stroke-linejoin="round"></path>
                                <path d="M9.00715014,6.54026758 C9.00715014,5.4395215 8.08391856,4.549552 6.94798901,4.549552 C5.81205946,4.549552 4.88882788,5.4395215 4.88882788,6.54026758 C4.88882788,7.64101367 5.81205946,8.53098316 6.94798901,8.53098316 C8.08391856,8.53098316 9.00715014,7.64101367 9.00715014,6.54026758 Z" id="Oval-26" fill="#FFFFFF" fill-rule="nonzero"></path>
                                <path d="M6.73443181,10.1999173 C6.73443181,9.48121585 6.13106631,8.89958833 5.38801374,8.89958833 C4.64496117,8.89958833 4.04159567,9.48121585 4.04159567,10.1999173 C4.04159567,10.9186187 4.64496117,11.5002463 5.38801374,11.5002463 C6.13106631,11.5002463 6.73443181,10.9186187 6.73443181,10.1999173 Z" id="Oval-26-Copy" fill="#FFFFFF" fill-rule="nonzero"></path>
                                <ellipse id="Oval" fill="#FFFFFF" cx="8.1395714" cy="9.70148371" rx="1" ry="1"></ellipse>
                                <rect id="Rectangle-48" stroke="#FFFFFF" stroke-width="0.5" fill="#FFFFFF" x="4.68532908" y="0.913276353" width="1" height="1.10964683" rx="0.5"></rect>
                            </g>
                        </g>
                    </g>
                    <g id="Group-3" mask="url(#mask-2)">
                        <g transform="translate(0.000000, 94.081967)">
                            <g id="Group" stroke-width="1" fill="none" fill-rule="evenodd">
                                <path d="M34.8772365,48.848105 C43.1572657,59.3663354 46.3187776,67.068946 44.3617721,71.9559367 C53.8223249,72.5275245 58.5526013,72.8133183 58.5526013,72.8133183 C64.5748511,64.9036271 64.6250742,55.2312112 58.7032704,43.7960705 C52.7814666,32.3609298 44.8394553,34.0449413 34.8772365,48.848105 Z" id="Path-6" fill="#54C6AB"></path>
                                <path d="M53.3446801,50.838842 C58.7211772,55.8742399 61.2987794,61.8858885 61.0774869,68.8737877 C62.6927102,66.2238222 63.4144744,62.6258329 63.2427796,58.0798197 C63.0710847,53.5338066 60.8201652,50.3031075 56.490021,48.3877224 L53.3446801,50.838842 Z" id="Path-38" fill="#35AE92"></path>
                                <path d="M41.7843418,49.1794926 C49.9105818,52.7287306 55.0424615,52.1672664 57.1799809,47.4950999 C59.3175003,42.8229335 54.1856206,43.3843977 41.7843418,49.1794926 Z" id="Path-37" fill="#35AE92"></path>
                                <path d="M59.9167936,44.7706708 C75.4108692,58.9079225 81.3970874,68.9651218 77.8754482,74.9422687 C74.3538089,80.9194155 62.3265499,81.4164283 41.7936713,76.4333069 C41.9062607,70.3828127 41.2218416,66.6328056 39.740414,65.1832857 C37.5182726,63.0090058 62.2639204,73.5745621 64.6928409,67.9378726 C66.3121213,64.1800795 63.2163428,56.8998741 55.4055055,46.0972563 L59.9167936,44.7706708 Z" id="Path-5" fill="#CAD5C4"></path>
                                <path d="M30.4377436,46.0328117 C28.551639,52.3032609 26.2115039,55.5910054 23.4173383,55.896045 C20.6231728,56.2010846 22.1024798,60.0949944 27.8552593,67.5777745 C34.0000211,57.5971111 36.2691722,50.9968956 34.6627127,47.7771282 C33.0562532,44.5573607 31.6479301,43.9759219 30.4377436,46.0328117 Z" id="Path-36" fill="#CAD5C4" transform="translate(28.604631, 56.203947) rotate(10.000000) translate(-28.604631, -56.203947) "></path>
                                <path d="M41.7218257,2.11120412 C43.0984206,3.48088566 44.2124599,4.4117607 45.0639435,4.90382924 C46.6051646,5.79449396 44.9200614,6.08777774 43.5227224,5.79449396 C42.1253835,5.50121017 39.4869001,5.22244621 39.4869001,3.68453248 C39.4869001,3.24646522 39.5689092,2.84472333 39.7329276,2.4793068 L39.7329276,2.4793068 C40.0109901,1.85981129 40.7386046,1.58302515 41.3581002,1.86108766 C41.4934381,1.92183451 41.6166655,2.00657207 41.7218257,2.11120412 Z" id="Path-2" fill="#315890" transform="translate(42.581906, 3.828639) scale(1, -1) rotate(-52.000000) translate(-42.581906, -3.828639) "></path>
                                <path d="M22.449532,6.9616484 C23.1882272,4.93331077 24.2517286,3.22008485 25.785674,3.15746617 C27.3196194,3.09484749 27.632599,4.56472794 27.0809416,5.040705 C26.5292842,5.51668207 24.6875802,6.40339496 23.6584139,8.11042762 C22.6292476,9.81746028 21.7108368,8.98998603 22.449532,6.9616484 Z" id="Path-3" fill="#315890"></path>
                                <g id="Path-32" transform="translate(18.996524, 8.029615)">
                                    <mask id="mask-7" fill="white">
                                        <use xlink:href="#path-6"></use>
                                    </mask>
                                    <use id="Mask" fill="#54C6AB" xlink:href="#path-6"></use>
                                    <path d="M-1.44489834,16.157649 C-0.926951588,14.0562552 -0.0771042704,13.0055583 1.10464361,13.0055583 C2.87726543,13.0055583 4.07919679,14.566958 12.0137302,13.5794154 C19.9482637,12.5918728 28.2381204,9.15416801 33.3751932,11.6189579 C38.5122661,14.0837477 38.7056057,32.715864 34.2690337,40.4793458 C31.3113191,45.6550003 23.6939052,48.9363277 11.4167922,50.3233279 L2.71837228,44.9882963 L-3.52859965,22.5341305 L-1.44489834,16.157649 Z" fill="#35AE92" mask="url(#mask-7)"></path>
                                    <rect id="Rectangle-4" fill="#FFFFFF" mask="url(#mask-7)" transform="translate(22.513357, 28.189962) rotate(-6.000000) translate(-22.513357, -28.189962) " x="21.0054869" y="25.9283627" width="3.01574043" height="4.52319945" rx="1.50787022"></rect>
                                    <rect id="Rectangle-4-Copy" fill="#FFFFFF" mask="url(#mask-7)" transform="translate(6.932032, 29.195118) rotate(-6.000000) translate(-6.932032, -29.195118) " x="5.42416131" y="26.9335182" width="3.01574043" height="4.52319945" rx="1.50787022"></rect>
                                </g>
                                <path d="M61.5863125,23.561283 C59.1423927,27.5899659 58.9387497,32.5789443 60.9753835,38.5282182 C65.8073522,38.5924831 68.1068161,35.8885975 67.8737752,30.4165613 C67.6407343,24.9445252 65.5449134,22.6594324 61.5863125,23.561283 Z" id="Path-20" fill="#35AE92"></path>
                                <path d="M4.30187726,54.3099125 L23.5541078,54.3099125 L23.5541078,54.3099125 C24.1882473,54.3099125 24.7655116,54.6756464 25.0363785,55.2490258 C26.7549158,58.8868791 28.1922134,62.6762634 29.3482713,66.6171786 C30.4545295,70.3883302 31.6072285,74.733409 32.8063685,79.6524151 L32.8063684,79.6524151 C33.0208007,80.5320403 32.4815553,81.4189491 31.6019302,81.6333813 C31.4748334,81.6643646 31.3444849,81.6800233 31.2136662,81.6800233 L12.1383719,81.6800233 L12.1383719,81.6800233 C11.4283626,81.6800233 10.7990546,81.2229616 10.5794287,80.5477744 L2.74293407,56.4563522 L2.74293407,56.4563522 C2.46287301,55.5953717 2.93380129,54.6703747 3.79478184,54.3903136 C3.95854159,54.3370456 4.12967174,54.3099125 4.30187726,54.3099125 Z" id="Path-33-Copy" fill="#35AE92"></path>
                                <path d="M1.78876023,54.3099125 L20.873092,54.3099125 L20.873092,54.3099125 C21.5869497,54.3099125 22.2187428,54.7718586 22.4352323,55.4520976 L30.1024517,79.5435198 L30.1024517,79.5435198 C30.3770252,80.4062661 29.9002169,81.3282459 29.0374706,81.6028193 C28.8767106,81.653982 28.7090165,81.6800233 28.5403114,81.6800233 L9.62525488,81.6800233 L9.62525488,81.6800233 C8.91524559,81.6800233 8.2859376,81.2229616 8.06631169,80.5477744 L0.229817048,56.4563522 L0.229817048,56.4563522 C-0.0502440192,55.5953717 0.420684264,54.6703747 1.28166481,54.3903136 C1.44542457,54.3370456 1.61655471,54.3099125 1.78876023,54.3099125 Z" id="Path-33" fill="#54C6AB"></path>
                                <path d="M30.462424,62.7893192 C31.4929114,60.2838209 32.4063647,58.3618905 37.0723974,59.5946804 C41.73843,60.8274703 45.6358776,71.5585457 45.1671638,75.4591562 C44.8776888,77.8681514 43.5615811,79.1613101 41.2188409,79.3386324 L41.2188409,79.3386324 C40.8774463,79.3644726 40.5559538,79.175402 40.4126074,78.8644843 L39.3166422,76.4873403 L39.3166422,76.4873403 C39.0838769,75.9824731 39.2188546,75.3842284 39.6458534,75.0282192 C40.3092537,74.4751107 40.6409538,73.527242 40.6409538,72.1846131 C40.6409538,69.4772236 36.6319059,65.3887733 33.7878832,67.5805561 C30.9438606,69.772339 29.4319365,65.2948175 30.462424,62.7893192 Z" id="Path-34" fill="#35AE92"></path>
                                <path d="M1.40710377,64.1778228 C3.63166817,62.2840243 4.93094151,61.7737354 5.30492379,62.646956 C5.90727977,64.0534122 6.27455339,69.3635958 5.30492379,70.8980975 C4.33529419,72.4325992 6.29788695,75.6050995 4.33529419,75.8711712 C3.06475801,76.0434197 1.94810639,72.5117615 0.985339312,65.2761965 L0.985339358,65.2761965 C0.930253047,64.8622017 1.08909065,64.4485512 1.40710377,64.1778228 Z" id="Path-35" fill="#35AE92" transform="translate(3.438420, 69.055388) rotate(-8.000000) translate(-3.438420, -69.055388) "></path>
                                <path d="M64.0819878,61.0149561 C66.6840437,56.8001063 69.7705811,55.3951564 73.3416,56.8001063" id="Path-41" stroke="#FFFFFF" stroke-width="0.819672131"></path>
                                <path d="M60.4020719,53.5589949 C61.4043803,50.7838884 63.2289854,49.6568773 65.8758872,50.1779615" id="Path-42" stroke="#FFFFFF" stroke-width="0.819672131"></path>
                                <path d="M30.0282374,39.4734132 C30.4513187,40.9911231 31.4393146,41.8168455 32.9922251,41.9505804 C34.5562885,42.0852759 35.687618,41.2733035 36.3862136,39.5146634 L36.3862136,39.5146634 C36.469775,39.3043064 36.3669869,39.0660384 36.1566298,38.9824769 C36.1084794,38.9633498 36.0571388,38.953526 36.0053285,38.953526 L30.4230213,38.953526 L30.4230213,38.953526 C30.1966751,38.953526 30.0131853,39.1370158 30.0131853,39.363362 C30.0131853,39.4005588 30.0182491,39.4375825 30.0282374,39.4734132 Z" id="Path-45" fill="#FFFFFF" transform="translate(33.214228, 40.459240) rotate(-3.000000) translate(-33.214228, -40.459240) "></path>
                                <path d="M55.4085095,79.6742144 C57.3202918,75.112864 57.3202918,71.2760954 55.4085095,68.1639085" id="Path-39" stroke="#FFFFFF" stroke-width="0.819672131"></path>
                                <path d="M63.851534,67.1364105 C72.3738563,67.7866621 76.9601728,70.8773894 77.6104836,76.4085923" id="Path-40" stroke="#FFFFFF" stroke-width="0.819672131"></path>
                                <path d="M27.3401854,52.5894126 C30.6430514,52.8774053 32.9107326,54.6298062 34.1432291,57.8466153" id="Path-44" stroke="#FFFFFF" stroke-width="0.819672131"></path>
                            </g>
                            <path d="M48.3561021,54.4057866 L48.3561021,53.7107011 C48.3561021,53.5373503 48.5188768,53.3975637 48.7141206,53.3975637 C48.9112718,53.3975637 49.0721391,53.5372938 49.0721391,53.7107011 L49.0721391,54.3188447 C49.1289403,54.316655 49.1860278,54.3155498 49.2433803,54.3155498 C51.5884663,54.3155498 53.4905242,56.1633466 53.4905242,58.4439643 C53.4905242,59.2829476 53.2331143,60.0633562 52.7909328,60.7147449 C52.8035861,60.9126196 52.8575732,61.010445 52.9800968,61.1003063 C52.992303,61.1092586 53.0256557,61.1317918 53.0694725,61.1608299 C53.0960413,61.1784011 53.0960413,61.1784011 53.1167923,61.1920411 C53.1253831,61.1976772 53.1253831,61.1976772 53.1347885,61.2038222 C53.1342382,61.2034715 53.1373026,61.2054714 53.1373026,61.2054714 C53.4282265,61.4027873 53.5432317,61.6370742 53.4800774,61.9616693 C53.375029,62.5015888 52.8526713,62.6763624 52.1009672,62.52547 C51.7450618,62.4540278 51.3770794,62.3154175 51.1054786,62.1554521 C50.5431802,62.4225084 49.9112467,62.5723788 49.2433803,62.5723788 C46.8982944,62.5723788 44.9962364,60.724582 44.9962364,58.4439643 C44.9962364,56.7756943 46.0140106,55.3390229 47.4784675,54.6877981 C47.4732967,54.6642595 47.4705727,54.6397663 47.4705727,54.6145966 L47.4705727,54.3046142 C47.4705727,54.1207544 47.621802,53.9696682 47.8047446,53.9696682 C47.9902662,53.9696682 48.1389165,54.1186822 48.1389165,54.3046142 L48.1389165,54.4565339 C48.2105815,54.4378237 48.2829944,54.4208904 48.3561021,54.4057856 Z M51.9889187,60.4538135 C52.4239376,59.8946545 52.6818725,59.1984677 52.6818725,58.4439643 C52.6818725,56.6010123 51.142954,55.1059954 49.2433803,55.1059954 C47.3438067,55.1059954 45.8048882,56.6010123 45.8048882,58.4439643 C45.8048882,60.2869163 47.3438067,61.7819332 49.2433803,61.7819332 C49.935487,61.7819332 50.5797168,61.58347 51.1190804,61.2420248 C51.2481608,61.3442192 51.2481608,61.3442192 51.2481608,61.3442192 C51.4767148,61.4830342 51.9800509,61.6942558 52.26365,61.7511837 C52.3803047,61.7746002 52.4856479,61.7857854 52.5707682,61.785141 C52.537614,61.7628296 52.5111342,61.7445768 52.4947615,61.7325687 C52.2050711,61.5201038 52.0343207,61.177808 51.9921257,60.7454148 C51.9921257,60.7454148 51.9921257,60.7454148 51.9921257,60.4767564 C51.9921257,60.4677715 51.9910313,60.4601501 51.9889187,60.4538135 Z M50.1396692,57.2333998 C50.1396692,57.8469171 49.6218805,58.342955 48.9848015,58.342955 C48.3477225,58.342955 47.8299338,57.8469171 47.8299338,57.2333998 C47.8299338,56.6198825 48.3477225,56.1238446 48.9848015,56.1238446 C49.6218805,56.1238446 50.1396692,56.6198825 50.1396692,57.2333998 Z M49.6530931,59.3841088 C49.4320832,59.3841088 49.2529193,59.210056 49.2529193,58.995351 C49.2529193,58.780646 49.4320832,58.6065932 49.6530931,58.6065932 C49.874103,58.6065932 50.0532669,58.780646 50.0532669,58.995351 C50.0532669,59.210056 49.874103,59.3841088 49.6530931,59.3841088 Z M48.8650293,59.2731605 C48.8650293,59.6737395 48.5266355,59.9979183 48.1098991,59.9979183 C47.6931627,59.9979183 47.3547689,59.6737395 47.3547689,59.2731605 C47.3547689,58.8725814 47.6931627,58.5484026 48.1098991,58.5484026 C48.5266355,58.5484026 48.8650293,58.8725814 48.8650293,59.2731605 Z" id="Combined-Shape-Copy" fill="#FFFFFF" fill-rule="nonzero"></path>
                            <ellipse id="Oval-17" fill="#FFFFFF" fill-rule="evenodd" transform="translate(14.146504, 68.562703) rotate(-11.000000) translate(-14.146504, -68.562703) " cx="14.1465038" cy="68.562703" rx="2.82930076" ry="4.32677252"></ellipse>
                        </g>
                    </g>
                </g>
            </g>
        </g>
    </g>
</svg>