<?xml version="1.0" encoding="UTF-8"?>
<svg width="400px" height="306px" viewBox="0 0 400 306" version="1.1" xmlns="http://www.w3.org/2000/svg" xmlns:xlink="http://www.w3.org/1999/xlink">
    <!-- Generator: Sketch 45.2 (43514) - http://www.bohemiancoding.com/sketch -->
    <title>chat_section3</title>
    <desc>Created with Sketch.</desc>
    <defs>
        <rect id="path-1" x="0" y="0" width="400" height="400"></rect>
        <rect id="path-3" x="0" y="0.172549023" width="289.344262" height="262.005371" rx="16.3934426"></rect>
        <rect id="path-5" x="17.2456845" y="217.981931" width="189.70253" height="32.6492761" rx="3.27868852"></rect>
        <path d="M16.9288693,81.5430951 C4.22364939,74.8219351 -1.44304608,32.7121993 0.349858948,23.0376964 C2.14276397,13.3631935 9.22669775,7.76794835 15.062452,6.25105993 C20.8982063,4.73417151 67.6745902,-6.93262088 84.2209703,6.25105993 C94.6786703,14.6439728 91.8083063,57.2949994 84.2209703,70.4242027 C76.6336342,83.553406 29.6340893,88.2642552 16.9288693,81.5430951 Z" id="path-6"></path>
    </defs>
    <g id="pages_for_valérie" stroke="none" stroke-width="1" fill="none" fill-rule="evenodd">
        <g id="700-card---extra" transform="translate(-790.000000, -197.000000)">
            <g id="chat_section3" transform="translate(790.000000, 151.000000)">
                <mask id="mask-2" fill="white">
                    <use xlink:href="#path-1"></use>
                </mask>
                <g id="Rectangle"></g>
                <g id="Group-25" mask="url(#mask-2)">
                    <g transform="translate(83.606557, 48.000000)">
                        <g id="Rectangle-15" stroke-width="1" fill="none" fill-rule="evenodd">
                            <mask id="mask-4" fill="white">
                                <use xlink:href="#path-3"></use>
                            </mask>
                            <g id="Mask">
                                <use fill="#FFFFFF" fill-rule="evenodd" xlink:href="#path-3"></use>
                                <rect stroke="#54C6AB" stroke-width="1.63934426" x="-0.819672131" y="-0.647123108" width="290.983607" height="263.644716" rx="16.3934426"></rect>
                            </g>
                            <path d="M0,206.482097 L289.344262,206.482097 L289.344262,245.784478 L289.344262,245.784478 C289.344262,254.838326 282.004668,262.17792 272.95082,262.17792 L16.3934426,262.17792 L16.3934426,262.17792 C7.33959427,262.17792 -1.31020781e-14,254.838326 -1.42108547e-14,245.784478 L0,206.482097 Z" fill="#EBF1F5" mask="url(#mask-4)"></path>
                            <g id="Rectangle-9" mask="url(#mask-4)">
                                <use fill="#FFFFFF" fill-rule="evenodd" xlink:href="#path-5"></use>
                                <rect stroke="#C7CFD6" stroke-width="0.819672131" x="17.6555206" y="218.391767" width="188.882857" height="31.8296039" rx="3.27868852"></rect>
                            </g>
                            <rect id="Rectangle-9-Copy" fill="#54C6AB" mask="url(#mask-4)" x="213.209505" y="217.981931" width="54.0986045" height="32.6492761" rx="3.27868852"></rect>
                            <text id="SEND" mask="url(#mask-4)" font-family="Avenir-Black, Avenir" font-size="9.01639344" font-weight="700" letter-spacing="0.819672131" fill="#FFFFFF">
                                <tspan x="225.151992" y="236.678892">SEN</tspan>
                                <tspan x="245.815107" y="236.678892">D</tspan>
                            </text>
                        </g>
                        <g id="Group-30" stroke-width="1" fill="none" fill-rule="evenodd" transform="translate(29.700901, 85.464281)">
                            <path d="M0,0 L220.577797,0 L220.577797,-1.77635684e-15 C227.368183,9.03841853e-15 232.872879,5.5046957 232.872879,12.295082 L232.872879,80.7356564 L232.872879,80.7356564 C232.872879,87.5260427 227.368183,93.0307384 220.577797,93.0307384 L12.295082,93.0307384 L12.295082,93.0307384 C5.5046957,93.0307384 -2.7211312e-15,87.5260427 -3.55271368e-15,80.7356564 L0,0 Z" id="Rectangle-11" fill="#EBF1F5"></path>
                            <text id="I-really-like-that-I" font-family="Avenir-Book, Avenir" font-size="11.4754098" font-weight="normal" line-spacing="16.3934426" fill="#23272A">
                                <tspan x="24.0799045" y="32.3221252">I really like that I can change colors </tspan>
                                <tspan x="24.0799045" y="48.7155678">and fonts for my interactive chat! </tspan>
                                <tspan x="24.0799045" y="65.1090104">It's amazing!</tspan>
                            </text>
                        </g>
                        <path d="M16.3934426,1.80411242e-16 L272.95082,1.80411242e-16 L272.95082,0 C282.004668,-1.66316613e-15 289.344262,7.33959427 289.344262,16.3934426 L289.344262,55.6958239 L0,55.6958239 L0,16.3934426 L0,16.3934426 C-1.10877664e-15,7.33959427 7.33959427,-1.88954755e-15 16.3934426,-3.55271368e-15 Z" id="Rectangle-15-Copy" fill="#54C6AB" fill-rule="evenodd"></path>
                        <text id="Say-Hi-To-Broid-Robo" fill="none" font-family="Avenir-Black, Avenir" font-size="13.1147541" font-weight="700">
                            <tspan x="24.9104332" y="31.8315185" fill="#FFFFFF">Say Hi To Broid Robot!</tspan>
                        </text>
                    </g>
                </g>
                <g id="Group-26" mask="url(#mask-2)">
                    <g transform="translate(342.622951, 282.426230)">
                        <circle id="Oval-12" fill="#35AE92" cx="28.6885246" cy="28.6885246" r="28.6885246"></circle>
                        <g id="Broid-Logo" stroke-width="1" fill="none" transform="translate(13.230150, 11.164219)">
                            <path d="M24.615761,25.2473687 C26.3987118,23.1160936 27.4683144,20.39236 27.4683144,17.4244193 C27.4683144,10.5948368 21.8046135,5.05836632 14.8180844,5.05836632 C7.83155537,5.05836632 2.16785451,10.5948368 2.16785451,17.4244193 C2.16785451,24.2540017 7.83155537,29.7904722 14.8180844,29.7904722 C17.0859497,29.7904722 19.2144303,29.2071016 21.0550543,28.185497 C21.5845169,28.6722221 23.885403,29.7184622 25.2015878,29.9843139 C25.8925467,30.1238784 26.481982,30.1499646 26.8670778,30.0658047 C27.1069236,30.0133881 27.15041,29.9767154 27.1647283,29.9026644 C27.1894458,29.7748303 27.2200177,29.8263513 26.9689316,29.6549921 C27.0223668,29.6914601 26.5027327,29.3494103 26.3332566,29.2243372 C25.2332663,28.4125465 24.6616967,27.0060941 24.6616967,25.2101651 L24.615761,25.2473687 Z M26.7706553,25.8868268 C26.8258439,26.7679277 27.0909462,27.2028546 27.602752,27.5805663 C27.7184786,27.6659723 28.1865623,27.974089 28.1750453,27.966229 C29.0382119,28.5553161 29.4389239,29.2306121 29.2350156,30.2851847 C28.8902198,32.0683985 27.073245,32.4654853 24.7752398,32.0013191 C23.4110039,31.7257617 21.9658388,31.1515087 21.022673,30.5168991 C19.1364637,31.3725124 17.0343273,31.8500856 14.8180844,31.8500856 C6.66792223,31.8500856 0.0609103252,25.3914948 0.0609103252,17.4244193 C0.0609103252,9.45734373 6.66792223,2.9987529 14.8180844,2.9987529 C22.9682467,2.9987529 29.5752586,9.45734373 29.5752586,17.4244193 C29.5752586,20.585843 28.534925,23.5097421 26.7706553,25.8868268 Z" id="Shape-v2" stroke="#FFFFFF" stroke-width="0.573770492" fill="#FFFFFF" fill-rule="nonzero" stroke-linejoin="round"></path>
                            <path d="M18.0143003,13.0805352 C18.0143003,10.879043 16.1678371,9.09910401 13.895978,9.09910401 C11.6241189,9.09910401 9.77765577,10.879043 9.77765577,13.0805352 C9.77765577,15.2820273 11.6241189,17.0619663 13.895978,17.0619663 C16.1678371,17.0619663 18.0143003,15.2820273 18.0143003,13.0805352 Z" id="Oval-26" fill="#FFFFFF" fill-rule="nonzero"></path>
                            <path d="M13.4688636,20.3998346 C13.4688636,18.9624317 12.2621326,17.7991767 10.7760275,17.7991767 C9.28992235,17.7991767 8.08319134,18.9624317 8.08319134,20.3998346 C8.08319134,21.8372375 9.28992235,23.0004925 10.7760275,23.0004925 C12.2621326,23.0004925 13.4688636,21.8372375 13.4688636,20.3998346 Z" id="Oval-26-Copy" fill="#FFFFFF" fill-rule="nonzero"></path>
                            <ellipse id="Oval" fill="#FFFFFF" cx="16.2791428" cy="19.4029674" rx="1.42704191" ry="1.39498459"></ellipse>
                            <rect id="Rectangle-48" stroke="#FFFFFF" stroke-width="0.819672131" fill="#FFFFFF" x="9.37065815" y="1.82655271" width="1.14767391" height="2.21929366" rx="0.573836957"></rect>
                            <rect id="Rectangle-48" stroke="#FFFFFF" stroke-width="1.14754098" fill="#FFFFFF" x="12.5868288" y="0" width="1" height="4.43858732" rx="0.5"></rect>
                        </g>
                    </g>
                </g>
                <g id="Group-3" mask="url(#mask-2)">
                    <g transform="translate(0.000000, 188.163934)">
                        <g id="Group" stroke-width="1" fill="none" fill-rule="evenodd">
                            <path d="M69.754473,97.69621 C86.3145315,118.732671 92.6375553,134.137892 88.7235443,143.911873 C107.64465,145.055049 117.105203,145.626637 117.105203,145.626637 C129.149702,129.807254 129.250148,110.462422 117.406541,87.5921409 C105.562933,64.7218596 89.6789106,68.0898826 69.754473,97.69621 Z" id="Path-6" fill="#54C6AB"></path>
                            <path d="M106.68936,101.677684 C117.442354,111.74848 122.597559,123.771777 122.154974,137.747575 C125.38542,132.447644 126.828949,125.251666 126.485559,116.159639 C126.142169,107.067613 121.64033,100.606215 112.980042,96.7754448 L106.68936,101.677684 Z" id="Path-38" fill="#35AE92"></path>
                            <path d="M83.5686837,98.3589852 C99.8211636,105.457461 110.084923,104.334533 114.359962,94.9901999 C118.635001,85.645867 108.371241,86.7687954 83.5686837,98.3589852 Z" id="Path-37" fill="#35AE92"></path>
                            <path d="M119.833587,89.5413416 C150.821738,117.815845 162.794175,137.930244 155.750896,149.884537 C148.707618,161.838831 124.6531,162.832857 83.5873425,152.866614 C83.8125214,140.765625 82.4436832,133.265611 79.480828,130.366571 C75.0365453,126.018012 124.527841,147.149124 129.385682,135.875745 C132.624243,128.360159 126.432686,113.799748 110.811011,92.1945126 L119.833587,89.5413416 Z" id="Path-5" fill="#CAD5C4"></path>
                            <path d="M60.8754871,92.0656234 C57.1032779,104.606522 52.4230078,111.182011 46.8346767,111.79209 C41.2463455,112.402169 44.2049595,120.189989 55.7105186,135.155549 C68.0000422,115.194222 72.5383444,101.993791 69.3254254,95.5542563 C66.1125063,89.1147215 63.2958602,87.9518438 60.8754871,92.0656234 Z" id="Path-36" fill="#CAD5C4" transform="translate(57.209263, 112.407894) rotate(10.000000) translate(-57.209263, -112.407894) "></path>
                            <path d="M83.4436514,4.22240824 C86.1968413,6.96177132 88.4249198,8.8235214 90.127887,9.80765848 C93.2103291,11.5889879 89.8401228,12.1755555 87.0454449,11.5889879 C84.250767,11.0024203 78.9738001,10.4448924 78.9738001,7.36906497 C78.9738001,6.49293045 79.1378185,5.68944666 79.4658552,4.95861361 L79.4658552,4.95861361 C80.0219802,3.71962257 81.4772093,3.1660503 82.7162003,3.72217532 C82.9868761,3.84366902 83.2333311,4.01314413 83.4436514,4.22240824 Z" id="Path-2" fill="#315890" transform="translate(85.163812, 7.657278) scale(1, -1) rotate(-52.000000) translate(-85.163812, -7.657278) "></path>
                            <path d="M44.899064,13.9232968 C46.3764545,9.86662155 48.5034572,6.4401697 51.571348,6.31493234 C54.6392387,6.18969497 55.265198,9.12945587 54.1618832,10.08141 C53.0585683,11.0333641 49.3751604,12.8067899 47.3168278,16.2208552 C45.2584953,19.6349206 43.4216736,17.9799721 44.899064,13.9232968 Z" id="Path-3" fill="#315890"></path>
                            <g id="Path-32" transform="translate(37.993048, 16.059230)">
                                <mask id="mask-7" fill="white">
                                    <use xlink:href="#path-6"></use>
                                </mask>
                                <use id="Mask" fill="#54C6AB" xlink:href="#path-6"></use>
                                <path d="M-2.88979669,32.315298 C-1.85390318,28.1125105 -0.154208541,26.0111167 2.20928722,26.0111167 C5.75453086,26.0111167 8.15839357,29.133916 24.0274605,27.1588308 C39.8965274,25.1837456 56.4762407,18.308336 66.7503864,23.2379157 C77.0245321,28.1674954 77.4112113,65.431728 68.5380674,80.9586916 C62.6226381,91.3100006 47.3878105,97.8726554 22.8335845,100.646656 L5.43674456,89.9765927 L-7.0571993,45.0682611 L-2.88979669,32.315298 Z" fill="#35AE92" mask="url(#mask-7)"></path>
                                <rect id="Rectangle-4" fill="#FFFFFF" mask="url(#mask-7)" transform="translate(45.026714, 56.379925) rotate(-6.000000) translate(-45.026714, -56.379925) " x="42.0109737" y="51.8567255" width="6.03148086" height="9.04639889" rx="3.01574043"></rect>
                                <rect id="Rectangle-4-Copy" fill="#FFFFFF" mask="url(#mask-7)" transform="translate(13.864063, 58.390236) rotate(-6.000000) translate(-13.864063, -58.390236) " x="10.8483226" y="53.8670363" width="6.03148086" height="9.04639889" rx="3.01574043"></rect>
                            </g>
                            <path d="M123.172625,47.122566 C118.284785,55.1799318 117.877499,65.1578886 121.950767,77.0564364 C131.614704,77.1849662 136.213632,71.7771949 135.74755,60.8331227 C135.281469,49.8890504 131.089827,45.3188648 123.172625,47.122566 Z" id="Path-20" fill="#35AE92"></path>
                            <path d="M8.60375451,108.619825 L47.1082157,108.619825 L47.1082157,108.619825 C48.3764946,108.619825 49.5310232,109.351293 50.0727569,110.498052 C53.5098316,117.773758 56.3844269,125.352527 58.6965426,133.234357 C60.909059,140.77666 63.2144571,149.466818 65.612737,159.30483 L65.6127369,159.30483 C66.0416015,161.064081 64.9631107,162.837898 63.2038603,163.266763 C62.9496668,163.328729 62.6889698,163.360047 62.4273324,163.360047 L24.2767438,163.360047 L24.2767438,163.360047 C22.8567252,163.360047 21.5981092,162.445923 21.1588574,161.095549 L5.48586815,112.912704 L5.48586815,112.912704 C4.92574601,111.190743 5.86760258,109.340749 7.58956367,108.780627 C7.91708319,108.674091 8.25934347,108.619825 8.60375451,108.619825 Z" id="Path-33-Copy" fill="#35AE92"></path>
                            <path d="M3.57752046,108.619825 L41.746184,108.619825 L41.746184,108.619825 C43.1738994,108.619825 44.4374855,109.543717 44.8704646,110.904195 L60.2049034,159.08704 L60.2049034,159.08704 C60.7540503,160.812532 59.8004338,162.656492 58.0749413,163.205639 C57.7534213,163.307964 57.4180329,163.360047 57.0806228,163.360047 L19.2505098,163.360047 L19.2505098,163.360047 C17.8304912,163.360047 16.5718752,162.445923 16.1326234,161.095549 L0.459634097,112.912704 L0.459634097,112.912704 C-0.100488038,111.190743 0.841368529,109.340749 2.56332962,108.780627 C2.89084914,108.674091 3.23310942,108.619825 3.57752046,108.619825 Z" id="Path-33" fill="#54C6AB"></path>
                            <path d="M60.9248479,125.578638 C62.9858228,120.567642 64.8127294,116.723781 74.1447947,119.189361 C83.47686,121.654941 91.2717551,143.117091 90.3343275,150.918312 C89.7553775,155.736303 87.1231623,158.32262 82.4376817,158.677265 L82.4376817,158.677265 C81.7548925,158.728945 81.1119076,158.350804 80.8252148,157.728969 L78.6332845,152.974681 L78.6332845,152.974681 C78.1677537,151.964946 78.4377091,150.768457 79.2917068,150.056438 C80.6185073,148.950221 81.2819076,147.054484 81.2819076,144.369226 C81.2819076,138.954447 73.2638118,130.777547 67.5757665,135.161112 C61.8877211,139.544678 58.863873,130.589635 60.9248479,125.578638 Z" id="Path-34" fill="#35AE92"></path>
                            <path d="M2.81420754,128.355646 C7.26333635,124.568049 9.86188302,123.547471 10.6098476,125.293912 C11.8145595,128.106824 12.5491068,138.727192 10.6098476,141.796195 C8.67058837,144.865198 12.5957739,151.210199 8.67058837,151.742342 C6.12951603,152.086839 3.89621278,145.023523 1.97067862,130.552393 L1.97067872,130.552393 C1.86050609,129.724403 2.1781813,128.897102 2.81420754,128.355646 Z" id="Path-35" fill="#35AE92" transform="translate(6.876840, 138.110776) rotate(-8.000000) translate(-6.876840, -138.110776) "></path>
                            <path d="M128.163976,122.029912 C133.368087,113.600213 139.541162,110.790313 146.6832,113.600213" id="Path-41" stroke="#FFFFFF" stroke-width="1.63934426"></path>
                            <path d="M120.804144,107.11799 C122.808761,101.567777 126.457971,99.3137545 131.751774,100.355923" id="Path-42" stroke="#FFFFFF" stroke-width="1.63934426"></path>
                            <path d="M60.0564748,78.9468264 C60.9026374,81.9822461 62.8786292,83.6336909 65.9844502,83.9011609 C69.112577,84.1705518 71.375236,82.5466071 72.7724272,79.0293269 L72.7724272,79.0293268 C72.9395501,78.6086127 72.7339738,78.1320767 72.3132597,77.9649538 C72.2169588,77.9266996 72.1142777,77.907052 72.0106569,77.907052 L60.8460426,77.907052 L60.8460426,77.907052 C60.3933502,77.907052 60.0263705,78.2740317 60.0263705,78.7267241 C60.0263705,78.8011177 60.0364983,78.875165 60.0564748,78.9468264 Z" id="Path-45" fill="#FFFFFF" transform="translate(66.428455, 80.918480) rotate(-3.000000) translate(-66.428455, -80.918480) "></path>
                            <path d="" id="Path-22" stroke="#979797" stroke-width="0.819672131"></path>
                            <path d="M110.817019,159.348429 C114.640584,150.225728 114.640584,142.552191 110.817019,136.327817" id="Path-39" stroke="#FFFFFF" stroke-width="1.63934426"></path>
                            <path d="M127.703068,134.272821 C144.747713,135.573324 153.920346,141.754779 155.220967,152.817185" id="Path-40" stroke="#FFFFFF" stroke-width="1.63934426"></path>
                            <path d="M54.6803709,105.178825 C61.2861029,105.754811 65.8214653,109.259612 68.2864581,115.693231" id="Path-44" stroke="#FFFFFF" stroke-width="1.63934426"></path>
                        </g>
                        <path d="M96.7122042,108.811573 L96.7122042,107.421402 C96.7122042,107.074701 97.0377536,106.795127 97.4282412,106.795127 C97.8225435,106.795127 98.1442781,107.074588 98.1442781,107.421402 L98.1442781,108.637689 C98.2578805,108.63331 98.3720556,108.6311 98.4867607,108.6311 C103.176933,108.6311 106.981048,112.326693 106.981048,116.887929 C106.981048,118.565895 106.466229,120.126712 105.581866,121.42949 C105.607172,121.825239 105.715146,122.02089 105.960194,122.200613 C105.984606,122.218517 106.051311,122.263584 106.138945,122.32166 C106.192083,122.356802 106.192083,122.356802 106.233585,122.384082 C106.250766,122.395354 106.250766,122.395354 106.269577,122.407644 C106.268476,122.406943 106.274605,122.410943 106.274605,122.410943 C106.856453,122.805575 107.086463,123.274148 106.960155,123.923339 C106.750058,125.003178 105.705343,125.352725 104.201934,125.05094 C103.490124,124.908056 102.754159,124.630835 102.210957,124.310904 C101.08636,124.845017 99.8224934,125.144758 98.4867607,125.144758 C93.7965888,125.144758 89.9924728,121.449164 89.9924728,116.887929 C89.9924728,113.551389 92.0280213,110.678046 94.956935,109.375596 C94.9465934,109.328519 94.9411453,109.279533 94.9411453,109.229193 L94.9411453,108.609228 C94.9411453,108.241509 95.2436041,107.939336 95.6094892,107.939336 C95.9805324,107.939336 96.2778331,108.237364 96.2778331,108.609228 L96.2778331,108.913068 C96.4211631,108.875647 96.5659889,108.841781 96.7122042,108.811571 Z M103.977837,120.907627 C104.847875,119.789309 105.363745,118.396935 105.363745,116.887929 C105.363745,113.202025 102.285908,110.211991 98.4867607,110.211991 C94.6876134,110.211991 91.6097764,113.202025 91.6097764,116.887929 C91.6097764,120.573833 94.6876134,123.563866 98.4867607,123.563866 C99.870974,123.563866 101.159434,123.16694 102.238161,122.48405 C102.496322,122.688438 102.496322,122.688438 102.496322,122.688438 C102.95343,122.966068 103.960102,123.388512 104.5273,123.502367 C104.760609,123.5492 104.971296,123.571571 105.141536,123.570282 C105.075228,123.525659 105.022268,123.489154 104.989523,123.465137 C104.410142,123.040208 104.068641,122.355616 103.984251,121.49083 C103.984251,121.49083 103.984251,121.49083 103.984251,120.953513 C103.984251,120.935543 103.982063,120.9203 103.977837,120.907627 Z M100.279338,114.4668 C100.279338,115.693834 99.2437611,116.68591 97.969603,116.68591 C96.695445,116.68591 95.6598676,115.693834 95.6598676,114.4668 C95.6598676,113.239765 96.695445,112.247689 97.969603,112.247689 C99.2437611,112.247689 100.279338,113.239765 100.279338,114.4668 Z M99.3061862,118.768218 C98.8641664,118.768218 98.5058386,118.420112 98.5058386,117.990702 C98.5058386,117.561292 98.8641664,117.213186 99.3061862,117.213186 C99.7482059,117.213186 100.106534,117.561292 100.106534,117.990702 C100.106534,118.420112 99.7482059,118.768218 99.3061862,118.768218 Z M97.7300586,118.546321 C97.7300586,119.347479 97.053271,119.995837 96.2197982,119.995837 C95.3863253,119.995837 94.7095378,119.347479 94.7095378,118.546321 C94.7095378,117.745163 95.3863253,117.096805 96.2197982,117.096805 C97.053271,117.096805 97.7300586,117.745163 97.7300586,118.546321 Z" id="Combined-Shape-Copy" fill="#FFFFFF" fill-rule="nonzero"></path>
                        <ellipse id="Oval-17" fill="#FFFFFF" fill-rule="evenodd" transform="translate(28.293008, 137.125406) rotate(-11.000000) translate(-28.293008, -137.125406) " cx="28.2930076" cy="137.125406" rx="5.65860151" ry="8.65354504"></ellipse>
                    </g>
                </g>
            </g>
        </g>
    </g>
</svg>