<?xml version="1.0" encoding="UTF-8" standalone="no"?>
<svg width="480px" height="500px" viewBox="0 0 480 500" version="1.1" xmlns="http://www.w3.org/2000/svg" xmlns:xlink="http://www.w3.org/1999/xlink">
    <!-- Generator: Sketch 43.1 (39012) - http://www.bohemiancoding.com/sketch -->
    <title>flowdock_color</title>
    <desc>Created with Sketch.</desc>
    <defs>
        <linearGradient x1="50%" y1="0%" x2="50%" y2="100%" id="linearGradient-1">
            <stop stop-color="#FFBD0E" offset="0%"></stop>
            <stop stop-color="#F78200" offset="100%"></stop>
        </linearGradient>
    </defs>
    <g id="Page-1" stroke="none" stroke-width="1" fill="none" fill-rule="evenodd">
        <g id="Logos-Couleur" transform="translate(-8264.000000, -498.000000)">
            <g id="flowdock_color" transform="translate(8254.000000, 498.000000)">
                <path d="M489.855372,159.921633 L331.857546,159.921633 L331.857546,247.786906 L474.206686,247.786906 L474.206686,334.215688 L330.941229,334.215688 C330.941229,334.215688 330.941236,427.558289 330.941229,489.057231 C266.349987,523.084879 -8.58843648,489.057221 10.9961155,223.510105 C10.9961155,223.510105 23.2789121,26.0089641 256.25111,0 C256.25111,0 422.983949,0 489.855372,159.921633 Z M235.539221,169.407311 C109.683008,195.538912 103.796322,305.069949 103.796322,305.069949 C103.796322,305.069949 77.160012,440.402398 235.539224,477.812103 C235.539224,455.501187 235.539221,169.407311 235.539221,169.407311 Z M237.015609,146.563385 C237.015609,146.563385 237.015603,116.186575 237.015609,97.6562 C12.2319439,138.898428 73.188386,365.76226 85.2117532,365.762247 C85.2117532,365.762247 40.174834,189.774864 237.015609,146.563385 Z M401.889983,75.3099575 C272.953631,-23.1033539 150.41812,50.4000311 150.41812,50.4000311 C-53.1442344,181.958964 62.3065075,367.913151 62.3065075,367.913151 C62.3065075,367.913151 -22.7391216,134.955106 237.160401,75.3099575 C281.571413,75.3099579 401.889983,75.3099575 401.889983,75.3099575 Z" id="Flowdock-color" fill="url(#linearGradient-1)"></path>
                <rect id="500x500" x="0" y="0" width="500" height="500"></rect>
            </g>
        </g>
    </g>
</svg>