<?xml version="1.0" encoding="UTF-8"?>
<svg width="132px" height="36px" viewBox="0 0 132 36" version="1.1" xmlns="http://www.w3.org/2000/svg" xmlns:xlink="http://www.w3.org/1999/xlink">
    <!-- Generator: Sketch 45.2 (43514) - http://www.bohemiancoding.com/sketch -->
    <title>github</title>
    <desc>Created with Sketch.</desc>
    <defs></defs>
    <g id="pages_for_valérie" stroke="none" stroke-width="1" fill="none" fill-rule="evenodd">
        <g id="Artboard-4" transform="translate(-634.000000, -194.000000)" fill="#AAB8C2">
            <g id="Group-35" transform="translate(308.000000, 72.000000)">
                <g id="Group-4" transform="translate(167.000000, 119.000000)">
                    <g id="Group-3" transform="translate(0.000000, 3.000000)">
                        <path d="M184.449219,15.1678053 C184.735725,15.1678053 184.967939,15.3981001 184.967939,15.6826033 L184.967939,32.4737505 C184.967939,32.5701614 184.951431,32.7804464 184.799557,32.86376 C184.799557,32.86376 181.114954,35.4377501 175.041082,35.4377501 C167.705259,35.4377501 159,33.1973782 159,18.1623654 C159,3.12735253 166.60362,0 174.015747,0 C180.450229,0 182.997242,1.41342073 183.414712,1.70883839 C183.56732,1.81725522 183.612809,1.97769757 183.612809,2.11085381 L182.374337,7.31231484 C182.374337,7.59681806 182.075724,7.91551988 181.752532,7.81765368 C180.724263,7.50186239 179.109039,6.84735945 175.358771,6.84735945 C171.026684,6.84735945 166.412127,8.1192562 166.412127,17.7854532 C166.412127,27.4498311 170.843628,28.5991222 174.015747,28.5991222 C176.704729,28.5991222 177.677239,28.2702336 177.677239,28.2702336 L177.677239,21.5814974 L173.345886,21.5814974 C173.059379,21.5814974 172.827165,21.3501112 172.827165,21.0663356 L172.827165,15.6826033 C172.827165,15.3981001 173.059379,15.1678053 173.345886,15.1678053 L184.449219,15.1678053 Z M241.174483,2.39878728 L241.174483,34.8430687 C241.173749,35.129391 240.944837,35.3622326 240.65833,35.3622326 L234.391864,35.3622326 C234.105724,35.3622326 233.873878,35.129391 233.873878,34.8430687 C233.873878,34.8419773 233.891119,20.9657148 233.891119,20.9657148 L224.145851,20.9657148 L224.145851,34.8430687 C224.145851,35.129391 223.916205,35.3622326 223.630065,35.3622326 L217.37864,35.3622326 C217.094334,35.3622326 216.862121,35.129391 216.862121,34.8430687 L216.862121,2.39878728 C216.862121,2.11246499 217.094334,1.88144255 217.37864,1.88144255 L223.630065,1.88144255 C223.916205,1.88144255 224.145851,2.11246499 224.145851,2.39878728 L224.145851,14.3810297 L233.891119,14.3810297 C233.891119,14.3810297 233.889285,2.40024254 233.889285,2.39878728 C233.889285,2.11246499 234.121499,1.88144255 234.406905,1.88144255 L240.658697,1.88144255 C240.945571,1.88144255 241.174483,2.11246499 241.174483,2.39878728 Z M196.467518,6.8590535 C196.467518,9.08923859 194.663002,10.8981261 192.436246,10.8981261 C190.21169,10.8981261 188.40534,9.08923859 188.40534,6.8590535 C188.40534,4.62632172 190.21169,2.82216383 192.436246,2.82216383 C194.663002,2.82216383 196.467518,4.62632172 196.467518,6.8590535 Z M195.696407,27.7227962 C195.696407,28.5970433 195.696407,33.1025265 195.696407,34.2525453 C195.696407,34.7808044 195.545267,35.0809517 194.928965,35.0809517 C191.974386,35.0809517 189.314018,35.0809517 189.314018,35.0809517 C188.801534,35.0809517 188.40534,34.8932232 188.40534,34.2627321 C188.40534,30.8275922 188.40534,12.806387 188.40534,12.806387 C188.40534,12.5218838 188.661032,12.2293766 188.946805,12.2293766 L195.179154,12.2293766 C195.464927,12.2293766 195.696407,12.4618543 195.696407,12.7463575 C195.696407,12.7463575 195.696407,26.8911154 195.696407,27.7227962 Z M265.0634,12.2293766 C265.34954,12.2293766 265.58102,12.4618543 265.58102,12.7478128 L265.583221,34.5272255 C265.583221,34.8120925 265.350274,35.044934 265.066335,35.044934 L261.060742,35.062761 C260.860444,35.062761 260.675186,34.9216008 260.604385,34.7818959 C260.533217,34.6418272 260.376207,33.4601565 260.376207,33.4601565 C260.376207,33.4601565 257.076792,35.7023475 252.984257,35.7023475 C247.996249,35.7023475 244.370342,34.1237548 244.370342,27.6714983 C244.370342,21.2196056 244.370342,12.7478128 244.370342,12.7478128 C244.370342,12.4618543 244.603289,12.2293766 244.887228,12.2293766 L251.183776,12.2293766 C251.468815,12.2293766 251.699928,12.4618543 251.699928,12.7478128 C251.699928,12.7478128 251.699928,24.4462796 251.699928,26.6211648 C251.699928,28.7931395 252.293485,29.7998152 254.530146,29.7998152 C256.767174,29.7998152 258.343512,28.6563451 258.343512,28.6563451 L258.343512,12.7478128 C258.343512,12.4618543 258.575359,12.2293766 258.859665,12.2293766 L265.0634,12.2293766 Z M282.255121,11.8259579 C285.781247,11.8259579 291,13.1327809 291,23.1336875 C291,33.1338665 287.732501,36 282.034647,36 C277.181639,36 274.618118,33.590818 274.618118,33.590818 C274.618118,33.590818 274.462208,34.9125574 274.353989,35.0868247 C274.244302,35.2621835 274.096096,35.3622326 273.9002,35.3622326 C273.898733,35.3622326 269.550872,35.3622326 269.550138,35.3622326 C269.264365,35.3622326 269.032885,35.129391 269.032885,34.8430687 L269.032885,2.39878728 C269.032885,2.11246499 269.264365,1.88144255 269.549405,1.88144255 L275.819172,1.88144255 C276.103845,1.88144255 276.334958,2.11246499 276.334958,2.39878728 L276.334958,13.3852684 C276.334958,13.3852684 278.731564,11.8259579 282.255121,11.8259579 Z M279.808257,30.1058355 C282.818597,30.1960616 283.790006,29.0958854 283.790006,23.5226056 C283.790006,18.2371033 281.637352,17.5680478 279.403259,17.7663269 C277.636528,17.9227673 276.196657,18.7981059 276.196657,18.7981059 L276.196657,29.0726013 C276.196657,29.0726013 277.656338,30.0410764 279.808257,30.1058355 Z M213.545727,12.1373314 C213.8315,12.1373314 214.06298,12.3679901 214.06298,12.6543124 L214.06298,17.6520371 C214.06298,17.939087 213.8315,18.1704732 213.545727,18.1704732 L208.855598,18.1704732 C208.855598,18.1704732 208.855965,25.9186383 208.855965,27.2924032 C208.855965,28.6672596 209.636247,29.7295989 211.940041,29.7295989 C212.659793,29.7295989 213.358635,29.619363 213.632302,29.619363 C213.906703,29.619363 214.150656,29.8511131 214.150656,30.1374354 L214.145153,34.5264978 C214.145153,34.7331447 214.0373,34.9241475 213.851676,34.9918171 C213.544626,35.1042358 211.684716,35.5993879 210.129655,35.5993879 C206.727157,35.5993879 201.68449,34.8990443 201.68449,27.7693645 C201.68449,22.3437935 201.68449,18.1704732 201.68449,18.1704732 L198.40782,18.1704732 C198.122047,18.1704732 197.890934,17.939087 197.890934,17.6520371 L197.890934,13.6620795 C197.890934,13.4266913 198.049778,13.2295037 198.265117,13.1676551 C198.481923,13.1058066 201.68449,12.3388849 201.68449,12.3388849 L201.68449,5.98958797 C201.68449,5.75274449 201.817655,5.64432766 202.066377,5.64432766 L208.456837,5.64432766 C208.727936,5.64432766 208.848995,5.7603846 208.848995,5.99322611 C208.848995,5.99431756 208.855965,12.1373314 208.855965,12.1373314 L213.545727,12.1373314 Z" id="github"></path>
                    </g>
                </g>
            </g>
        </g>
    </g>
</svg>