<?xml version="1.0" encoding="UTF-8"?>
<svg width="139px" height="46px" viewBox="0 0 139 46" version="1.1" xmlns="http://www.w3.org/2000/svg" xmlns:xlink="http://www.w3.org/1999/xlink">
    <!-- Generator: Sketch 45.2 (43514) - http://www.bohemiancoding.com/sketch -->
    <title>google</title>
    <desc>Created with Sketch.</desc>
    <defs></defs>
    <g id="pages_for_valérie" stroke="none" stroke-width="1" fill="none" fill-rule="evenodd">
        <g id="Artboard-4" transform="translate(-475.000000, -194.000000)" fill-rule="nonzero" fill="#AAB8C2">
            <g id="Group-35" transform="translate(308.000000, 72.000000)">
                <g id="Group-4" transform="translate(167.000000, 119.000000)">
                    <g id="Group-3" transform="translate(0.000000, 3.000000)">
                        <path d="M59.4837932,24.2075259 C59.4837932,30.8255971 54.3339267,35.7023434 48.0138703,35.7023434 C41.693814,35.7023434 36.5439475,30.8255971 36.5439475,24.2075259 C36.5439475,17.5428121 41.693814,12.7127084 48.0138703,12.7127084 C54.3339267,12.7127084 59.4837932,17.5428121 59.4837932,24.2075259 Z M84.2278965,24.2075259 C84.2278965,30.8255971 79.07803,35.7023434 72.7579736,35.7023434 C66.4379172,35.7023434 61.2880507,30.8255971 61.2880507,24.2075259 C61.2880507,17.5479946 66.4379172,12.7127084 72.7579736,12.7127084 C79.07803,12.7127084 84.2278965,17.5428121 84.2278965,24.2075259 Z M107.940995,13.4071654 L107.940995,34.0439387 C107.940995,42.5328977 102.961245,46 97.0742101,46 C91.5325619,46 88.197263,42.273772 86.9394378,39.2264534 L91.310896,37.3970257 C92.0893043,39.2679135 93.9966622,41.4756647 97.069055,41.4756647 C100.837376,41.4756647 103.172601,39.1383506 103.172601,34.7383957 L103.172601,33.0851735 L102.99733,33.0851735 C101.873535,34.4792699 99.708426,35.6971609 96.9762646,35.6971609 C91.2593458,35.6971609 86.0218439,30.6908517 86.0218439,24.248986 C86.0218439,17.7604777 91.2593458,12.7127084 96.9762646,12.7127084 C99.703271,12.7127084 101.86838,13.9305994 102.99733,15.2832357 L103.172601,15.2832357 L103.172601,13.4123479 L107.940995,13.4123479 L107.940995,13.4071654 Z M103.528297,24.248986 C103.528297,20.2014421 100.842531,17.2422262 97.4247515,17.2422262 C93.9605771,17.2422262 91.0583,20.2014421 91.0583,24.248986 C91.0583,28.2550699 93.9605771,31.1728256 97.4247515,31.1728256 C100.842531,31.1728256 103.528297,28.2550699 103.528297,24.248986 Z M115.802403,1.31117621 L115.802403,34.9975214 L110.905133,34.9975214 L110.905133,1.31117621 L115.802403,1.31117621 Z M134.886293,27.9907616 L138.783489,30.602749 C137.525664,32.4736368 134.494511,35.6971609 129.257009,35.6971609 C122.761682,35.6971609 117.910807,30.6493916 117.910807,24.2023434 C117.910807,17.3666066 122.802922,12.7075259 128.695112,12.7075259 C134.628542,12.7075259 137.530819,17.4547093 138.479343,20.0200541 L139,21.3260478 L123.715361,27.6901758 C124.885551,29.9963948 126.705274,31.1728256 129.257009,31.1728256 C131.8139,31.1728256 133.587227,29.908292 134.886293,27.9907616 Z M54.4628023,24.2075259 C54.4628023,20.0718792 51.4780448,17.2422262 48.0138703,17.2422262 C44.5496959,17.2422262 41.5649384,20.0718792 41.5649384,24.2075259 C41.5649384,28.3017125 44.5496959,31.1728256 48.0138703,31.1728256 C51.4780448,31.1728256 54.4628023,28.29653 54.4628023,24.2075259 Z M79.2069055,24.2075259 C79.2069055,20.0718792 76.222148,17.2422262 72.7579736,17.2422262 C69.2937991,17.2422262 66.3090417,20.0718792 66.3090417,24.2075259 C66.3090417,28.3017125 69.2937991,31.1728256 72.7579736,31.1728256 C76.222148,31.1728256 79.2069055,28.29653 79.2069055,24.2075259 Z M122.890558,23.8551149 L133.10781,19.5899054 C132.545913,18.1543488 130.855066,17.1541235 128.865228,17.1541235 C126.313492,17.1541235 122.761682,19.4188824 122.890558,23.8551149 L122.890558,23.8551149 Z M18.0064901,21.217215 L18.0064901,16.3404687 L34.3530633,16.3404687 C34.512869,17.1904011 34.5953494,18.1958089 34.5953494,19.284137 C34.5953494,22.9429923 33.6004302,27.4673276 30.3940068,30.6908517 C27.2752188,33.955836 23.2903872,35.6971609 18.0116452,35.6971609 C8.22741433,35.6971609 1.42108547e-14,27.6849932 1.42108547e-14,17.8485804 C1.42108547e-14,8.01216764 8.22741433,3.55271368e-15 18.0116452,3.55271368e-15 C23.4244177,3.55271368e-15 27.2803738,2.13519603 30.1774959,4.9182064 L26.7545616,8.35939612 C24.677088,6.40040559 21.8624462,4.87674628 18.0064901,4.87674628 C10.8616303,4.87674628 5.273587,10.6656151 5.273587,17.8485804 C5.273587,25.0315457 10.8616303,30.8204146 18.0064901,30.8204146 C22.6408545,30.8204146 25.2802255,28.9495268 26.9710725,27.249662 C28.3423083,25.8711131 29.244437,23.9017575 29.6001335,21.2120324 L18.0064901,21.217215 Z" id="google"></path>
                    </g>
                </g>
            </g>
        </g>
    </g>
</svg>