<?xml version="1.0" encoding="UTF-8"?>
<svg width="1440px" height="700px" viewBox="0 0 1440 700" version="1.1" xmlns="http://www.w3.org/2000/svg" xmlns:xlink="http://www.w3.org/1999/xlink">
    <!-- Generator: Sketch 45.2 (43514) - http://www.bohemiancoding.com/sketch -->
    <title>home_background</title>
    <desc>Created with Sketch.</desc>
    <defs>
        <rect id="path-1" x="0" y="0" width="1440" height="700"></rect>
    </defs>
    <g id="pages_for_valérie" stroke="none" stroke-width="1" fill="none" fill-rule="evenodd">
        <g id="700-card---extra">
            <g id="home_background">
                <mask id="mask-2" fill="white">
                    <use xlink:href="#path-1"></use>
                </mask>
                <use id="Rectangle-61" fill="#F1FAFF" xlink:href="#path-1"></use>
                <g id="Group-2" mask="url(#mask-2)" fill="#C1E0F4">
                    <g transform="translate(69.000000, 7.000000)">
                        <path d="M613.268369,596.559834 C613.270866,596.558873 613.273354,596.55791 613.275833,596.556947 C614.773394,595.974802 615.97209,594.790645 616.577157,593.300319 C616.578884,593.296065 616.580608,593.291787 616.582327,593.287483 L616.582316,593.287479 C616.675969,593.053145 616.941854,592.9391 617.176189,593.032752 C617.291976,593.079027 617.383823,593.170611 617.430429,593.286266 C617.430429,593.286266 617.430429,593.286266 617.430429,593.286266 C618.031311,594.777388 619.225851,595.96373 620.719953,596.550117 C620.722623,596.551165 620.725303,596.552212 620.727993,596.553257 L620.728013,596.553207 C620.947442,596.638454 621.056218,596.885443 620.970972,597.104872 C620.927757,597.216107 620.839892,597.304133 620.728735,597.347549 C620.728735,597.347549 620.728735,597.347549 620.728735,597.347549 C619.193697,597.947117 617.973758,599.179582 617.387107,600.725588 C617.385412,600.730053 617.383722,600.734546 617.382036,600.739068 L617.381962,600.73904 C617.30464,600.946343 617.073906,601.051714 616.866603,600.974392 C616.758126,600.933931 616.672458,600.84852 616.631672,600.740165 C616.631672,600.740165 616.631672,600.740165 616.631672,600.740165 C616.045042,599.181671 614.815473,597.939979 613.267688,597.340999 C613.267688,597.340999 613.267688,597.340999 613.267688,597.340999 L613.267688,597.340999 C613.052029,597.257541 612.94486,597.01506 613.028317,596.799401 C613.070947,596.689246 613.15812,596.60222 613.268347,596.559777 Z" id="Combined-Shape"></path>
                        <path d="M623.268369,136.559834 C623.270866,136.558873 623.273354,136.55791 623.275833,136.556947 C624.773394,135.974802 625.97209,134.790645 626.577157,133.300319 C626.578884,133.296065 626.580608,133.291787 626.582327,133.287483 L626.582316,133.287479 C626.675969,133.053145 626.941854,132.9391 627.176189,133.032752 C627.291976,133.079027 627.383823,133.170611 627.430429,133.286266 C627.430429,133.286266 627.430429,133.286266 627.430429,133.286266 C628.031311,134.777388 629.225851,135.96373 630.719953,136.550117 C630.722623,136.551165 630.725303,136.552212 630.727993,136.553257 L630.728013,136.553207 C630.947442,136.638454 631.056218,136.885443 630.970972,137.104872 C630.927757,137.216107 630.839892,137.304133 630.728735,137.347549 C630.728735,137.347549 630.728735,137.347549 630.728735,137.347549 C629.193697,137.947117 627.973758,139.179582 627.387107,140.725588 C627.385412,140.730053 627.383722,140.734546 627.382036,140.739068 L627.381962,140.73904 C627.30464,140.946343 627.073906,141.051714 626.866603,140.974392 C626.758126,140.933931 626.672458,140.84852 626.631672,140.740165 C626.631672,140.740165 626.631672,140.740165 626.631672,140.740165 C626.045042,139.181671 624.815473,137.939979 623.267688,137.340999 C623.267688,137.340999 623.267688,137.340999 623.267688,137.340999 L623.267688,137.340999 C623.052029,137.257541 622.94486,137.01506 623.028317,136.799401 C623.070947,136.689246 623.15812,136.60222 623.268347,136.559777 Z" id="Combined-Shape"></path>
                        <path d="M1293.26837,3.55983397 C1293.27087,3.55887272 1293.27335,3.55791023 1293.27583,3.55694651 C1294.77339,2.97480169 1295.97209,1.7906446 1296.57716,0.300319056 C1296.57888,0.296065202 1296.58061,0.291786664 1296.58233,0.287483443 L1296.58232,0.287478998 C1296.67597,0.0531447608 1296.94185,-0.0609003995 1297.17619,0.0327520029 C1297.29198,0.0790269467 1297.38382,0.17061144 1297.43043,0.286266424 C1297.43043,0.286266424 1297.43043,0.286266424 1297.43043,0.286266424 C1298.03131,1.77738772 1299.22585,2.96372976 1300.71995,3.55011718 C1300.72262,3.55116516 1300.7253,3.55221169 1300.72799,3.55325679 L1300.72801,3.55320693 C1300.94744,3.63845377 1301.05622,3.88544253 1300.97097,4.10487178 C1300.92776,4.21610709 1300.83989,4.30413273 1300.72874,4.34754915 C1300.72874,4.34754915 1300.72874,4.34754915 1300.72874,4.34754915 C1299.1937,4.94711672 1297.97376,6.17958181 1297.38711,7.72558835 C1297.38541,7.7300533 1297.38372,7.73454637 1297.38204,7.73906757 L1297.38196,7.7390399 C1297.30464,7.94634296 1297.07391,8.05171369 1296.8666,7.97439203 C1296.75813,7.93393144 1296.67246,7.84851975 1296.63167,7.74016482 C1296.63167,7.74016482 1296.63167,7.74016482 1296.63167,7.74016482 C1296.04504,6.18167111 1294.81547,4.93997856 1293.26769,4.3409991 C1293.26769,4.3409991 1293.26769,4.3409991 1293.26769,4.3409991 L1293.26769,4.3409991 C1293.05203,4.25754124 1292.94486,4.0150597 1293.02832,3.79940142 C1293.07095,3.68924577 1293.15812,3.6022198 1293.26835,3.55977666 Z" id="Combined-Shape-Copy-10"></path>
                        <path d="M1293.26837,627.559834 C1293.27087,627.558873 1293.27335,627.55791 1293.27583,627.556947 C1294.77339,626.974802 1295.97209,625.790645 1296.57716,624.300319 C1296.57888,624.296065 1296.58061,624.291787 1296.58233,624.287483 L1296.58232,624.287479 C1296.67597,624.053145 1296.94185,623.9391 1297.17619,624.032752 C1297.29198,624.079027 1297.38382,624.170611 1297.43043,624.286266 C1297.43043,624.286266 1297.43043,624.286266 1297.43043,624.286266 C1298.03131,625.777388 1299.22585,626.96373 1300.71995,627.550117 C1300.72262,627.551165 1300.7253,627.552212 1300.72799,627.553257 L1300.72801,627.553207 C1300.94744,627.638454 1301.05622,627.885443 1300.97097,628.104872 C1300.92776,628.216107 1300.83989,628.304133 1300.72874,628.347549 C1300.72874,628.347549 1300.72874,628.347549 1300.72874,628.347549 C1299.1937,628.947117 1297.97376,630.179582 1297.38711,631.725588 C1297.38541,631.730053 1297.38372,631.734546 1297.38204,631.739068 L1297.38196,631.73904 C1297.30464,631.946343 1297.07391,632.051714 1296.8666,631.974392 C1296.75813,631.933931 1296.67246,631.84852 1296.63167,631.740165 C1296.63167,631.740165 1296.63167,631.740165 1296.63167,631.740165 C1296.04504,630.181671 1294.81547,628.939979 1293.26769,628.340999 C1293.26769,628.340999 1293.26769,628.340999 1293.26769,628.340999 L1293.26769,628.340999 C1293.05203,628.257541 1292.94486,628.01506 1293.02832,627.799401 C1293.07095,627.689246 1293.15812,627.60222 1293.26835,627.559777 Z" id="Combined-Shape-Copy-12"></path>
                        <path d="M1028.26837,49.559834 C1028.27087,49.5588727 1028.27335,49.5579102 1028.27583,49.5569465 C1029.77339,48.9748017 1030.97209,47.7906446 1031.57716,46.3003191 C1031.57888,46.2960652 1031.58061,46.2917867 1031.58233,46.2874834 L1031.58232,46.287479 C1031.67597,46.0531448 1031.94185,45.9390996 1032.17619,46.032752 C1032.29198,46.0790269 1032.38382,46.1706114 1032.43043,46.2862664 C1032.43043,46.2862664 1032.43043,46.2862664 1032.43043,46.2862664 C1033.03131,47.7773877 1034.22585,48.9637298 1035.71995,49.5501172 C1035.72262,49.5511652 1035.7253,49.5522117 1035.72799,49.5532568 L1035.72801,49.5532069 C1035.94744,49.6384538 1036.05622,49.8854425 1035.97097,50.1048718 C1035.92776,50.2161071 1035.83989,50.3041327 1035.72874,50.3475492 C1035.72874,50.3475492 1035.72874,50.3475492 1035.72874,50.3475492 C1034.1937,50.9471167 1032.97376,52.1795818 1032.38711,53.7255883 C1032.38541,53.7300533 1032.38372,53.7345464 1032.38204,53.7390676 L1032.38196,53.7390399 C1032.30464,53.946343 1032.07391,54.0517137 1031.8666,53.974392 C1031.75813,53.9339314 1031.67246,53.8485198 1031.63167,53.7401648 C1031.63167,53.7401648 1031.63167,53.7401648 1031.63167,53.7401648 C1031.04504,52.1816711 1029.81547,50.9399786 1028.26769,50.3409991 C1028.26769,50.3409991 1028.26769,50.3409991 1028.26769,50.3409991 L1028.26769,50.3409991 C1028.05203,50.2575412 1027.94486,50.0150597 1028.02832,49.7994014 C1028.07095,49.6892458 1028.15812,49.6022198 1028.26835,49.5597767 Z" id="Combined-Shape-Copy-11"></path>
                        <path d="M409.268369,203.559834 C409.270866,203.558873 409.273354,203.55791 409.275833,203.556947 C410.773394,202.974802 411.97209,201.790645 412.577157,200.300319 C412.578884,200.296065 412.580608,200.291787 412.582327,200.287483 L412.582316,200.287479 C412.675969,200.053145 412.941854,199.9391 413.176189,200.032752 C413.291976,200.079027 413.383823,200.170611 413.430429,200.286266 C413.430429,200.286266 413.430429,200.286266 413.430429,200.286266 C414.031311,201.777388 415.225851,202.96373 416.719953,203.550117 C416.722623,203.551165 416.725303,203.552212 416.727993,203.553257 L416.728013,203.553207 C416.947442,203.638454 417.056218,203.885443 416.970972,204.104872 C416.927757,204.216107 416.839892,204.304133 416.728735,204.347549 C416.728735,204.347549 416.728735,204.347549 416.728735,204.347549 C415.193697,204.947117 413.973758,206.179582 413.387107,207.725588 C413.385412,207.730053 413.383722,207.734546 413.382036,207.739068 L413.381962,207.73904 C413.30464,207.946343 413.073906,208.051714 412.866603,207.974392 C412.758126,207.933931 412.672458,207.84852 412.631672,207.740165 C412.631672,207.740165 412.631672,207.740165 412.631672,207.740165 C412.045042,206.181671 410.815473,204.939979 409.267688,204.340999 C409.267688,204.340999 409.267688,204.340999 409.267688,204.340999 L409.267688,204.340999 C409.052029,204.257541 408.94486,204.01506 409.028317,203.799401 C409.070947,203.689246 409.15812,203.60222 409.268347,203.559777 Z" id="Combined-Shape-Copy-9"></path>
                        <path d="M0.268369396,283.559834 C0.270865821,283.558873 0.273353619,283.55791 0.275832789,283.556947 C1.77339381,282.974802 2.97208993,281.790645 3.57715705,280.300319 C3.5788841,280.296065 3.58060752,280.291787 3.58232732,280.287483 L3.5823162,280.287479 C3.6759686,280.053145 3.9418543,279.9391 4.17618854,280.032752 C4.29197632,280.079027 4.38382307,280.170611 4.43042892,280.286266 C4.43042892,280.286266 4.43042892,280.286266 4.43042892,280.286266 C5.03131065,281.777388 6.22585136,282.96373 7.71995293,283.550117 C7.72262315,283.551165 7.72530332,283.552212 7.72799346,283.553257 L7.72801283,283.553207 C7.94744208,283.638454 8.05621841,283.885443 7.97097157,284.104872 C7.92775738,284.216107 7.83989168,284.304133 7.72873515,284.347549 C7.72873515,284.347549 7.72873515,284.347549 7.72873515,284.347549 C6.19369729,284.947117 4.97375762,286.179582 4.38710669,287.725588 C4.38541241,287.730053 4.3837221,287.734546 4.38203574,287.739068 L4.38196155,287.73904 C4.30463989,287.946343 4.07390596,288.051714 3.86660291,287.974392 C3.75812616,287.933931 3.67245797,287.84852 3.63167229,287.740165 C3.63167229,287.740165 3.63167229,287.740165 3.63167229,287.740165 C3.0450425,286.181671 1.81547341,284.939979 0.267687539,284.340999 C0.267687539,284.340999 0.267687539,284.340999 0.267687539,284.340999 L0.267687539,284.340999 C0.0520292529,284.257541 -0.0551403739,284.01506 0.0283174781,283.799401 C0.0709467396,283.689246 0.158119837,283.60222 0.268347331,283.559777 Z" id="Combined-Shape-Copy-5"></path>
                        <path d="M183.268369,116.559834 C183.270866,116.558873 183.273354,116.55791 183.275833,116.556947 C184.773394,115.974802 185.97209,114.790645 186.577157,113.300319 C186.578884,113.296065 186.580608,113.291787 186.582327,113.287483 L186.582316,113.287479 C186.675969,113.053145 186.941854,112.9391 187.176189,113.032752 C187.291976,113.079027 187.383823,113.170611 187.430429,113.286266 C187.430429,113.286266 187.430429,113.286266 187.430429,113.286266 C188.031311,114.777388 189.225851,115.96373 190.719953,116.550117 C190.722623,116.551165 190.725303,116.552212 190.727993,116.553257 L190.728013,116.553207 C190.947442,116.638454 191.056218,116.885443 190.970972,117.104872 C190.927757,117.216107 190.839892,117.304133 190.728735,117.347549 C190.728735,117.347549 190.728735,117.347549 190.728735,117.347549 C189.193697,117.947117 187.973758,119.179582 187.387107,120.725588 C187.385412,120.730053 187.383722,120.734546 187.382036,120.739068 L187.381962,120.73904 C187.30464,120.946343 187.073906,121.051714 186.866603,120.974392 C186.758126,120.933931 186.672458,120.84852 186.631672,120.740165 C186.631672,120.740165 186.631672,120.740165 186.631672,120.740165 C186.045042,119.181671 184.815473,117.939979 183.267688,117.340999 C183.267688,117.340999 183.267688,117.340999 183.267688,117.340999 L183.267688,117.340999 C183.052029,117.257541 182.94486,117.01506 183.028317,116.799401 C183.070947,116.689246 183.15812,116.60222 183.268347,116.559777 Z" id="Combined-Shape-Copy-6"></path>
                        <path d="M105.268369,619.559834 C105.270866,619.558873 105.273354,619.55791 105.275833,619.556947 C106.773394,618.974802 107.97209,617.790645 108.577157,616.300319 C108.578884,616.296065 108.580608,616.291787 108.582327,616.287483 L108.582316,616.287479 C108.675969,616.053145 108.941854,615.9391 109.176189,616.032752 C109.291976,616.079027 109.383823,616.170611 109.430429,616.286266 C109.430429,616.286266 109.430429,616.286266 109.430429,616.286266 C110.031311,617.777388 111.225851,618.96373 112.719953,619.550117 C112.722623,619.551165 112.725303,619.552212 112.727993,619.553257 L112.728013,619.553207 C112.947442,619.638454 113.056218,619.885443 112.970972,620.104872 C112.927757,620.216107 112.839892,620.304133 112.728735,620.347549 C112.728735,620.347549 112.728735,620.347549 112.728735,620.347549 C111.193697,620.947117 109.973758,622.179582 109.387107,623.725588 C109.385412,623.730053 109.383722,623.734546 109.382036,623.739068 L109.381962,623.73904 C109.30464,623.946343 109.073906,624.051714 108.866603,623.974392 C108.758126,623.933931 108.672458,623.84852 108.631672,623.740165 C108.631672,623.740165 108.631672,623.740165 108.631672,623.740165 C108.045042,622.181671 106.815473,620.939979 105.267688,620.340999 C105.267688,620.340999 105.267688,620.340999 105.267688,620.340999 L105.267688,620.340999 C105.052029,620.257541 104.94486,620.01506 105.028317,619.799401 C105.070947,619.689246 105.15812,619.60222 105.268347,619.559777 Z" id="Combined-Shape-Copy-8"></path>
                        <path d="M456.268369,465.559834 C456.270866,465.558873 456.273354,465.55791 456.275833,465.556947 C457.773394,464.974802 458.97209,463.790645 459.577157,462.300319 C459.578884,462.296065 459.580608,462.291787 459.582327,462.287483 L459.582316,462.287479 C459.675969,462.053145 459.941854,461.9391 460.176189,462.032752 C460.291976,462.079027 460.383823,462.170611 460.430429,462.286266 C460.430429,462.286266 460.430429,462.286266 460.430429,462.286266 C461.031311,463.777388 462.225851,464.96373 463.719953,465.550117 C463.722623,465.551165 463.725303,465.552212 463.727993,465.553257 L463.728013,465.553207 C463.947442,465.638454 464.056218,465.885443 463.970972,466.104872 C463.927757,466.216107 463.839892,466.304133 463.728735,466.347549 C463.728735,466.347549 463.728735,466.347549 463.728735,466.347549 C462.193697,466.947117 460.973758,468.179582 460.387107,469.725588 C460.385412,469.730053 460.383722,469.734546 460.382036,469.739068 L460.381962,469.73904 C460.30464,469.946343 460.073906,470.051714 459.866603,469.974392 C459.758126,469.933931 459.672458,469.84852 459.631672,469.740165 C459.631672,469.740165 459.631672,469.740165 459.631672,469.740165 C459.045042,468.181671 457.815473,466.939979 456.267688,466.340999 C456.267688,466.340999 456.267688,466.340999 456.267688,466.340999 L456.267688,466.340999 C456.052029,466.257541 455.94486,466.01506 456.028317,465.799401 C456.070947,465.689246 456.15812,465.60222 456.268347,465.559777 Z" id="Combined-Shape-Copy-7"></path>
                        <path d="M1238.26837,186.559834 C1238.27087,186.558873 1238.27335,186.55791 1238.27583,186.556947 C1239.77339,185.974802 1240.97209,184.790645 1241.57716,183.300319 C1241.57888,183.296065 1241.58061,183.291787 1241.58233,183.287483 L1241.58232,183.287479 C1241.67597,183.053145 1241.94185,182.9391 1242.17619,183.032752 C1242.29198,183.079027 1242.38382,183.170611 1242.43043,183.286266 C1242.43043,183.286266 1242.43043,183.286266 1242.43043,183.286266 C1243.03131,184.777388 1244.22585,185.96373 1245.71995,186.550117 C1245.72262,186.551165 1245.7253,186.552212 1245.72799,186.553257 L1245.72801,186.553207 C1245.94744,186.638454 1246.05622,186.885443 1245.97097,187.104872 C1245.92776,187.216107 1245.83989,187.304133 1245.72874,187.347549 C1245.72874,187.347549 1245.72874,187.347549 1245.72874,187.347549 C1244.1937,187.947117 1242.97376,189.179582 1242.38711,190.725588 C1242.38541,190.730053 1242.38372,190.734546 1242.38204,190.739068 L1242.38196,190.73904 C1242.30464,190.946343 1242.07391,191.051714 1241.8666,190.974392 C1241.75813,190.933931 1241.67246,190.84852 1241.63167,190.740165 C1241.63167,190.740165 1241.63167,190.740165 1241.63167,190.740165 C1241.04504,189.181671 1239.81547,187.939979 1238.26769,187.340999 C1238.26769,187.340999 1238.26769,187.340999 1238.26769,187.340999 L1238.26769,187.340999 C1238.05203,187.257541 1237.94486,187.01506 1238.02832,186.799401 C1238.07095,186.689246 1238.15812,186.60222 1238.26835,186.559777 Z" id="Combined-Shape"></path>
                        <path d="M918.268369,226.559834 C918.270866,226.558873 918.273354,226.55791 918.275833,226.556947 C919.773394,225.974802 920.97209,224.790645 921.577157,223.300319 C921.578884,223.296065 921.580608,223.291787 921.582327,223.287483 L921.582316,223.287479 C921.675969,223.053145 921.941854,222.9391 922.176189,223.032752 C922.291976,223.079027 922.383823,223.170611 922.430429,223.286266 C922.430429,223.286266 922.430429,223.286266 922.430429,223.286266 C923.031311,224.777388 924.225851,225.96373 925.719953,226.550117 C925.722623,226.551165 925.725303,226.552212 925.727993,226.553257 L925.728013,226.553207 C925.947442,226.638454 926.056218,226.885443 925.970972,227.104872 C925.927757,227.216107 925.839892,227.304133 925.728735,227.347549 C925.728735,227.347549 925.728735,227.347549 925.728735,227.347549 C924.193697,227.947117 922.973758,229.179582 922.387107,230.725588 C922.385412,230.730053 922.383722,230.734546 922.382036,230.739068 L922.381962,230.73904 C922.30464,230.946343 922.073906,231.051714 921.866603,230.974392 C921.758126,230.933931 921.672458,230.84852 921.631672,230.740165 C921.631672,230.740165 921.631672,230.740165 921.631672,230.740165 C921.045042,229.181671 919.815473,227.939979 918.267688,227.340999 C918.267688,227.340999 918.267688,227.340999 918.267688,227.340999 L918.267688,227.340999 C918.052029,227.257541 917.94486,227.01506 918.028317,226.799401 C918.070947,226.689246 918.15812,226.60222 918.268347,226.559777 Z" id="Combined-Shape"></path>
                    </g>
                </g>
                <g id="Group" mask="url(#mask-2)" fill="#C1E0F4">
                    <g transform="translate(719.500000, 323.000000) scale(-1, -1) translate(-719.500000, -323.000000) translate(69.000000, 7.000000)">
                        <path d="M613.268369,596.559834 C613.270866,596.558873 613.273354,596.55791 613.275833,596.556947 C614.773394,595.974802 615.97209,594.790645 616.577157,593.300319 C616.578884,593.296065 616.580608,593.291787 616.582327,593.287483 L616.582316,593.287479 C616.675969,593.053145 616.941854,592.9391 617.176189,593.032752 C617.291976,593.079027 617.383823,593.170611 617.430429,593.286266 C617.430429,593.286266 617.430429,593.286266 617.430429,593.286266 C618.031311,594.777388 619.225851,595.96373 620.719953,596.550117 C620.722623,596.551165 620.725303,596.552212 620.727993,596.553257 L620.728013,596.553207 C620.947442,596.638454 621.056218,596.885443 620.970972,597.104872 C620.927757,597.216107 620.839892,597.304133 620.728735,597.347549 C620.728735,597.347549 620.728735,597.347549 620.728735,597.347549 C619.193697,597.947117 617.973758,599.179582 617.387107,600.725588 C617.385412,600.730053 617.383722,600.734546 617.382036,600.739068 L617.381962,600.73904 C617.30464,600.946343 617.073906,601.051714 616.866603,600.974392 C616.758126,600.933931 616.672458,600.84852 616.631672,600.740165 C616.631672,600.740165 616.631672,600.740165 616.631672,600.740165 C616.045042,599.181671 614.815473,597.939979 613.267688,597.340999 C613.267688,597.340999 613.267688,597.340999 613.267688,597.340999 L613.267688,597.340999 C613.052029,597.257541 612.94486,597.01506 613.028317,596.799401 C613.070947,596.689246 613.15812,596.60222 613.268347,596.559777 Z" id="Combined-Shape"></path>
                        <path d="M623.268369,136.559834 C623.270866,136.558873 623.273354,136.55791 623.275833,136.556947 C624.773394,135.974802 625.97209,134.790645 626.577157,133.300319 C626.578884,133.296065 626.580608,133.291787 626.582327,133.287483 L626.582316,133.287479 C626.675969,133.053145 626.941854,132.9391 627.176189,133.032752 C627.291976,133.079027 627.383823,133.170611 627.430429,133.286266 C627.430429,133.286266 627.430429,133.286266 627.430429,133.286266 C628.031311,134.777388 629.225851,135.96373 630.719953,136.550117 C630.722623,136.551165 630.725303,136.552212 630.727993,136.553257 L630.728013,136.553207 C630.947442,136.638454 631.056218,136.885443 630.970972,137.104872 C630.927757,137.216107 630.839892,137.304133 630.728735,137.347549 C630.728735,137.347549 630.728735,137.347549 630.728735,137.347549 C629.193697,137.947117 627.973758,139.179582 627.387107,140.725588 C627.385412,140.730053 627.383722,140.734546 627.382036,140.739068 L627.381962,140.73904 C627.30464,140.946343 627.073906,141.051714 626.866603,140.974392 C626.758126,140.933931 626.672458,140.84852 626.631672,140.740165 C626.631672,140.740165 626.631672,140.740165 626.631672,140.740165 C626.045042,139.181671 624.815473,137.939979 623.267688,137.340999 C623.267688,137.340999 623.267688,137.340999 623.267688,137.340999 L623.267688,137.340999 C623.052029,137.257541 622.94486,137.01506 623.028317,136.799401 C623.070947,136.689246 623.15812,136.60222 623.268347,136.559777 Z" id="Combined-Shape"></path>
                        <path d="M1293.26837,3.55983397 C1293.27087,3.55887272 1293.27335,3.55791023 1293.27583,3.55694651 C1294.77339,2.97480169 1295.97209,1.7906446 1296.57716,0.300319056 C1296.57888,0.296065202 1296.58061,0.291786664 1296.58233,0.287483443 L1296.58232,0.287478998 C1296.67597,0.0531447608 1296.94185,-0.0609003995 1297.17619,0.0327520029 C1297.29198,0.0790269467 1297.38382,0.17061144 1297.43043,0.286266424 C1297.43043,0.286266424 1297.43043,0.286266424 1297.43043,0.286266424 C1298.03131,1.77738772 1299.22585,2.96372976 1300.71995,3.55011718 C1300.72262,3.55116516 1300.7253,3.55221169 1300.72799,3.55325679 L1300.72801,3.55320693 C1300.94744,3.63845377 1301.05622,3.88544253 1300.97097,4.10487178 C1300.92776,4.21610709 1300.83989,4.30413273 1300.72874,4.34754915 C1300.72874,4.34754915 1300.72874,4.34754915 1300.72874,4.34754915 C1299.1937,4.94711672 1297.97376,6.17958181 1297.38711,7.72558835 C1297.38541,7.7300533 1297.38372,7.73454637 1297.38204,7.73906757 L1297.38196,7.7390399 C1297.30464,7.94634296 1297.07391,8.05171369 1296.8666,7.97439203 C1296.75813,7.93393144 1296.67246,7.84851975 1296.63167,7.74016482 C1296.63167,7.74016482 1296.63167,7.74016482 1296.63167,7.74016482 C1296.04504,6.18167111 1294.81547,4.93997856 1293.26769,4.3409991 C1293.26769,4.3409991 1293.26769,4.3409991 1293.26769,4.3409991 L1293.26769,4.3409991 C1293.05203,4.25754124 1292.94486,4.0150597 1293.02832,3.79940142 C1293.07095,3.68924577 1293.15812,3.6022198 1293.26835,3.55977666 Z" id="Combined-Shape-Copy-10"></path>
                        <path d="M1293.26837,627.559834 C1293.27087,627.558873 1293.27335,627.55791 1293.27583,627.556947 C1294.77339,626.974802 1295.97209,625.790645 1296.57716,624.300319 C1296.57888,624.296065 1296.58061,624.291787 1296.58233,624.287483 L1296.58232,624.287479 C1296.67597,624.053145 1296.94185,623.9391 1297.17619,624.032752 C1297.29198,624.079027 1297.38382,624.170611 1297.43043,624.286266 C1297.43043,624.286266 1297.43043,624.286266 1297.43043,624.286266 C1298.03131,625.777388 1299.22585,626.96373 1300.71995,627.550117 C1300.72262,627.551165 1300.7253,627.552212 1300.72799,627.553257 L1300.72801,627.553207 C1300.94744,627.638454 1301.05622,627.885443 1300.97097,628.104872 C1300.92776,628.216107 1300.83989,628.304133 1300.72874,628.347549 C1300.72874,628.347549 1300.72874,628.347549 1300.72874,628.347549 C1299.1937,628.947117 1297.97376,630.179582 1297.38711,631.725588 C1297.38541,631.730053 1297.38372,631.734546 1297.38204,631.739068 L1297.38196,631.73904 C1297.30464,631.946343 1297.07391,632.051714 1296.8666,631.974392 C1296.75813,631.933931 1296.67246,631.84852 1296.63167,631.740165 C1296.63167,631.740165 1296.63167,631.740165 1296.63167,631.740165 C1296.04504,630.181671 1294.81547,628.939979 1293.26769,628.340999 C1293.26769,628.340999 1293.26769,628.340999 1293.26769,628.340999 L1293.26769,628.340999 C1293.05203,628.257541 1292.94486,628.01506 1293.02832,627.799401 C1293.07095,627.689246 1293.15812,627.60222 1293.26835,627.559777 Z" id="Combined-Shape-Copy-12"></path>
                        <path d="M1028.26837,49.559834 C1028.27087,49.5588727 1028.27335,49.5579102 1028.27583,49.5569465 C1029.77339,48.9748017 1030.97209,47.7906446 1031.57716,46.3003191 C1031.57888,46.2960652 1031.58061,46.2917867 1031.58233,46.2874834 L1031.58232,46.287479 C1031.67597,46.0531448 1031.94185,45.9390996 1032.17619,46.032752 C1032.29198,46.0790269 1032.38382,46.1706114 1032.43043,46.2862664 C1032.43043,46.2862664 1032.43043,46.2862664 1032.43043,46.2862664 C1033.03131,47.7773877 1034.22585,48.9637298 1035.71995,49.5501172 C1035.72262,49.5511652 1035.7253,49.5522117 1035.72799,49.5532568 L1035.72801,49.5532069 C1035.94744,49.6384538 1036.05622,49.8854425 1035.97097,50.1048718 C1035.92776,50.2161071 1035.83989,50.3041327 1035.72874,50.3475492 C1035.72874,50.3475492 1035.72874,50.3475492 1035.72874,50.3475492 C1034.1937,50.9471167 1032.97376,52.1795818 1032.38711,53.7255883 C1032.38541,53.7300533 1032.38372,53.7345464 1032.38204,53.7390676 L1032.38196,53.7390399 C1032.30464,53.946343 1032.07391,54.0517137 1031.8666,53.974392 C1031.75813,53.9339314 1031.67246,53.8485198 1031.63167,53.7401648 C1031.63167,53.7401648 1031.63167,53.7401648 1031.63167,53.7401648 C1031.04504,52.1816711 1029.81547,50.9399786 1028.26769,50.3409991 C1028.26769,50.3409991 1028.26769,50.3409991 1028.26769,50.3409991 L1028.26769,50.3409991 C1028.05203,50.2575412 1027.94486,50.0150597 1028.02832,49.7994014 C1028.07095,49.6892458 1028.15812,49.6022198 1028.26835,49.5597767 Z" id="Combined-Shape-Copy-11"></path>
                        <path d="M409.268369,203.559834 C409.270866,203.558873 409.273354,203.55791 409.275833,203.556947 C410.773394,202.974802 411.97209,201.790645 412.577157,200.300319 C412.578884,200.296065 412.580608,200.291787 412.582327,200.287483 L412.582316,200.287479 C412.675969,200.053145 412.941854,199.9391 413.176189,200.032752 C413.291976,200.079027 413.383823,200.170611 413.430429,200.286266 C413.430429,200.286266 413.430429,200.286266 413.430429,200.286266 C414.031311,201.777388 415.225851,202.96373 416.719953,203.550117 C416.722623,203.551165 416.725303,203.552212 416.727993,203.553257 L416.728013,203.553207 C416.947442,203.638454 417.056218,203.885443 416.970972,204.104872 C416.927757,204.216107 416.839892,204.304133 416.728735,204.347549 C416.728735,204.347549 416.728735,204.347549 416.728735,204.347549 C415.193697,204.947117 413.973758,206.179582 413.387107,207.725588 C413.385412,207.730053 413.383722,207.734546 413.382036,207.739068 L413.381962,207.73904 C413.30464,207.946343 413.073906,208.051714 412.866603,207.974392 C412.758126,207.933931 412.672458,207.84852 412.631672,207.740165 C412.631672,207.740165 412.631672,207.740165 412.631672,207.740165 C412.045042,206.181671 410.815473,204.939979 409.267688,204.340999 C409.267688,204.340999 409.267688,204.340999 409.267688,204.340999 L409.267688,204.340999 C409.052029,204.257541 408.94486,204.01506 409.028317,203.799401 C409.070947,203.689246 409.15812,203.60222 409.268347,203.559777 Z" id="Combined-Shape-Copy-9"></path>
                        <path d="M0.268369396,283.559834 C0.270865821,283.558873 0.273353619,283.55791 0.275832789,283.556947 C1.77339381,282.974802 2.97208993,281.790645 3.57715705,280.300319 C3.5788841,280.296065 3.58060752,280.291787 3.58232732,280.287483 L3.5823162,280.287479 C3.6759686,280.053145 3.9418543,279.9391 4.17618854,280.032752 C4.29197632,280.079027 4.38382307,280.170611 4.43042892,280.286266 C4.43042892,280.286266 4.43042892,280.286266 4.43042892,280.286266 C5.03131065,281.777388 6.22585136,282.96373 7.71995293,283.550117 C7.72262315,283.551165 7.72530332,283.552212 7.72799346,283.553257 L7.72801283,283.553207 C7.94744208,283.638454 8.05621841,283.885443 7.97097157,284.104872 C7.92775738,284.216107 7.83989168,284.304133 7.72873515,284.347549 C7.72873515,284.347549 7.72873515,284.347549 7.72873515,284.347549 C6.19369729,284.947117 4.97375762,286.179582 4.38710669,287.725588 C4.38541241,287.730053 4.3837221,287.734546 4.38203574,287.739068 L4.38196155,287.73904 C4.30463989,287.946343 4.07390596,288.051714 3.86660291,287.974392 C3.75812616,287.933931 3.67245797,287.84852 3.63167229,287.740165 C3.63167229,287.740165 3.63167229,287.740165 3.63167229,287.740165 C3.0450425,286.181671 1.81547341,284.939979 0.267687539,284.340999 C0.267687539,284.340999 0.267687539,284.340999 0.267687539,284.340999 L0.267687539,284.340999 C0.0520292529,284.257541 -0.0551403739,284.01506 0.0283174781,283.799401 C0.0709467396,283.689246 0.158119837,283.60222 0.268347331,283.559777 Z" id="Combined-Shape-Copy-5"></path>
                        <path d="M183.268369,116.559834 C183.270866,116.558873 183.273354,116.55791 183.275833,116.556947 C184.773394,115.974802 185.97209,114.790645 186.577157,113.300319 C186.578884,113.296065 186.580608,113.291787 186.582327,113.287483 L186.582316,113.287479 C186.675969,113.053145 186.941854,112.9391 187.176189,113.032752 C187.291976,113.079027 187.383823,113.170611 187.430429,113.286266 C187.430429,113.286266 187.430429,113.286266 187.430429,113.286266 C188.031311,114.777388 189.225851,115.96373 190.719953,116.550117 C190.722623,116.551165 190.725303,116.552212 190.727993,116.553257 L190.728013,116.553207 C190.947442,116.638454 191.056218,116.885443 190.970972,117.104872 C190.927757,117.216107 190.839892,117.304133 190.728735,117.347549 C190.728735,117.347549 190.728735,117.347549 190.728735,117.347549 C189.193697,117.947117 187.973758,119.179582 187.387107,120.725588 C187.385412,120.730053 187.383722,120.734546 187.382036,120.739068 L187.381962,120.73904 C187.30464,120.946343 187.073906,121.051714 186.866603,120.974392 C186.758126,120.933931 186.672458,120.84852 186.631672,120.740165 C186.631672,120.740165 186.631672,120.740165 186.631672,120.740165 C186.045042,119.181671 184.815473,117.939979 183.267688,117.340999 C183.267688,117.340999 183.267688,117.340999 183.267688,117.340999 L183.267688,117.340999 C183.052029,117.257541 182.94486,117.01506 183.028317,116.799401 C183.070947,116.689246 183.15812,116.60222 183.268347,116.559777 Z" id="Combined-Shape-Copy-6"></path>
                        <path d="M105.268369,619.559834 C105.270866,619.558873 105.273354,619.55791 105.275833,619.556947 C106.773394,618.974802 107.97209,617.790645 108.577157,616.300319 C108.578884,616.296065 108.580608,616.291787 108.582327,616.287483 L108.582316,616.287479 C108.675969,616.053145 108.941854,615.9391 109.176189,616.032752 C109.291976,616.079027 109.383823,616.170611 109.430429,616.286266 C109.430429,616.286266 109.430429,616.286266 109.430429,616.286266 C110.031311,617.777388 111.225851,618.96373 112.719953,619.550117 C112.722623,619.551165 112.725303,619.552212 112.727993,619.553257 L112.728013,619.553207 C112.947442,619.638454 113.056218,619.885443 112.970972,620.104872 C112.927757,620.216107 112.839892,620.304133 112.728735,620.347549 C112.728735,620.347549 112.728735,620.347549 112.728735,620.347549 C111.193697,620.947117 109.973758,622.179582 109.387107,623.725588 C109.385412,623.730053 109.383722,623.734546 109.382036,623.739068 L109.381962,623.73904 C109.30464,623.946343 109.073906,624.051714 108.866603,623.974392 C108.758126,623.933931 108.672458,623.84852 108.631672,623.740165 C108.631672,623.740165 108.631672,623.740165 108.631672,623.740165 C108.045042,622.181671 106.815473,620.939979 105.267688,620.340999 C105.267688,620.340999 105.267688,620.340999 105.267688,620.340999 L105.267688,620.340999 C105.052029,620.257541 104.94486,620.01506 105.028317,619.799401 C105.070947,619.689246 105.15812,619.60222 105.268347,619.559777 Z" id="Combined-Shape-Copy-8"></path>
                        <path d="M456.268369,465.559834 C456.270866,465.558873 456.273354,465.55791 456.275833,465.556947 C457.773394,464.974802 458.97209,463.790645 459.577157,462.300319 C459.578884,462.296065 459.580608,462.291787 459.582327,462.287483 L459.582316,462.287479 C459.675969,462.053145 459.941854,461.9391 460.176189,462.032752 C460.291976,462.079027 460.383823,462.170611 460.430429,462.286266 C460.430429,462.286266 460.430429,462.286266 460.430429,462.286266 C461.031311,463.777388 462.225851,464.96373 463.719953,465.550117 C463.722623,465.551165 463.725303,465.552212 463.727993,465.553257 L463.728013,465.553207 C463.947442,465.638454 464.056218,465.885443 463.970972,466.104872 C463.927757,466.216107 463.839892,466.304133 463.728735,466.347549 C463.728735,466.347549 463.728735,466.347549 463.728735,466.347549 C462.193697,466.947117 460.973758,468.179582 460.387107,469.725588 C460.385412,469.730053 460.383722,469.734546 460.382036,469.739068 L460.381962,469.73904 C460.30464,469.946343 460.073906,470.051714 459.866603,469.974392 C459.758126,469.933931 459.672458,469.84852 459.631672,469.740165 C459.631672,469.740165 459.631672,469.740165 459.631672,469.740165 C459.045042,468.181671 457.815473,466.939979 456.267688,466.340999 C456.267688,466.340999 456.267688,466.340999 456.267688,466.340999 L456.267688,466.340999 C456.052029,466.257541 455.94486,466.01506 456.028317,465.799401 C456.070947,465.689246 456.15812,465.60222 456.268347,465.559777 Z" id="Combined-Shape-Copy-7"></path>
                        <path d="M1238.26837,186.559834 C1238.27087,186.558873 1238.27335,186.55791 1238.27583,186.556947 C1239.77339,185.974802 1240.97209,184.790645 1241.57716,183.300319 C1241.57888,183.296065 1241.58061,183.291787 1241.58233,183.287483 L1241.58232,183.287479 C1241.67597,183.053145 1241.94185,182.9391 1242.17619,183.032752 C1242.29198,183.079027 1242.38382,183.170611 1242.43043,183.286266 C1242.43043,183.286266 1242.43043,183.286266 1242.43043,183.286266 C1243.03131,184.777388 1244.22585,185.96373 1245.71995,186.550117 C1245.72262,186.551165 1245.7253,186.552212 1245.72799,186.553257 L1245.72801,186.553207 C1245.94744,186.638454 1246.05622,186.885443 1245.97097,187.104872 C1245.92776,187.216107 1245.83989,187.304133 1245.72874,187.347549 C1245.72874,187.347549 1245.72874,187.347549 1245.72874,187.347549 C1244.1937,187.947117 1242.97376,189.179582 1242.38711,190.725588 C1242.38541,190.730053 1242.38372,190.734546 1242.38204,190.739068 L1242.38196,190.73904 C1242.30464,190.946343 1242.07391,191.051714 1241.8666,190.974392 C1241.75813,190.933931 1241.67246,190.84852 1241.63167,190.740165 C1241.63167,190.740165 1241.63167,190.740165 1241.63167,190.740165 C1241.04504,189.181671 1239.81547,187.939979 1238.26769,187.340999 C1238.26769,187.340999 1238.26769,187.340999 1238.26769,187.340999 L1238.26769,187.340999 C1238.05203,187.257541 1237.94486,187.01506 1238.02832,186.799401 C1238.07095,186.689246 1238.15812,186.60222 1238.26835,186.559777 Z" id="Combined-Shape"></path>
                        <path d="M918.268369,226.559834 C918.270866,226.558873 918.273354,226.55791 918.275833,226.556947 C919.773394,225.974802 920.97209,224.790645 921.577157,223.300319 C921.578884,223.296065 921.580608,223.291787 921.582327,223.287483 L921.582316,223.287479 C921.675969,223.053145 921.941854,222.9391 922.176189,223.032752 C922.291976,223.079027 922.383823,223.170611 922.430429,223.286266 C922.430429,223.286266 922.430429,223.286266 922.430429,223.286266 C923.031311,224.777388 924.225851,225.96373 925.719953,226.550117 C925.722623,226.551165 925.725303,226.552212 925.727993,226.553257 L925.728013,226.553207 C925.947442,226.638454 926.056218,226.885443 925.970972,227.104872 C925.927757,227.216107 925.839892,227.304133 925.728735,227.347549 C925.728735,227.347549 925.728735,227.347549 925.728735,227.347549 C924.193697,227.947117 922.973758,229.179582 922.387107,230.725588 C922.385412,230.730053 922.383722,230.734546 922.382036,230.739068 L922.381962,230.73904 C922.30464,230.946343 922.073906,231.051714 921.866603,230.974392 C921.758126,230.933931 921.672458,230.84852 921.631672,230.740165 C921.631672,230.740165 921.631672,230.740165 921.631672,230.740165 C921.045042,229.181671 919.815473,227.939979 918.267688,227.340999 C918.267688,227.340999 918.267688,227.340999 918.267688,227.340999 L918.267688,227.340999 C918.052029,227.257541 917.94486,227.01506 918.028317,226.799401 C918.070947,226.689246 918.15812,226.60222 918.268347,226.559777 Z" id="Combined-Shape"></path>
                    </g>
                </g>
                <g id="Group-2" mask="url(#mask-2)" fill="#C1E0F4">
                    <g transform="translate(719.500000, 323.000000) rotate(90.000000) translate(-719.500000, -323.000000) translate(69.000000, 7.000000)">
                        <path d="M613.268369,596.559834 C613.270866,596.558873 613.273354,596.55791 613.275833,596.556947 C614.773394,595.974802 615.97209,594.790645 616.577157,593.300319 C616.578884,593.296065 616.580608,593.291787 616.582327,593.287483 L616.582316,593.287479 C616.675969,593.053145 616.941854,592.9391 617.176189,593.032752 C617.291976,593.079027 617.383823,593.170611 617.430429,593.286266 C617.430429,593.286266 617.430429,593.286266 617.430429,593.286266 C618.031311,594.777388 619.225851,595.96373 620.719953,596.550117 C620.722623,596.551165 620.725303,596.552212 620.727993,596.553257 L620.728013,596.553207 C620.947442,596.638454 621.056218,596.885443 620.970972,597.104872 C620.927757,597.216107 620.839892,597.304133 620.728735,597.347549 C620.728735,597.347549 620.728735,597.347549 620.728735,597.347549 C619.193697,597.947117 617.973758,599.179582 617.387107,600.725588 C617.385412,600.730053 617.383722,600.734546 617.382036,600.739068 L617.381962,600.73904 C617.30464,600.946343 617.073906,601.051714 616.866603,600.974392 C616.758126,600.933931 616.672458,600.84852 616.631672,600.740165 C616.631672,600.740165 616.631672,600.740165 616.631672,600.740165 C616.045042,599.181671 614.815473,597.939979 613.267688,597.340999 C613.267688,597.340999 613.267688,597.340999 613.267688,597.340999 L613.267688,597.340999 C613.052029,597.257541 612.94486,597.01506 613.028317,596.799401 C613.070947,596.689246 613.15812,596.60222 613.268347,596.559777 Z" id="Combined-Shape"></path>
                        <path d="M623.268369,136.559834 C623.270866,136.558873 623.273354,136.55791 623.275833,136.556947 C624.773394,135.974802 625.97209,134.790645 626.577157,133.300319 C626.578884,133.296065 626.580608,133.291787 626.582327,133.287483 L626.582316,133.287479 C626.675969,133.053145 626.941854,132.9391 627.176189,133.032752 C627.291976,133.079027 627.383823,133.170611 627.430429,133.286266 C627.430429,133.286266 627.430429,133.286266 627.430429,133.286266 C628.031311,134.777388 629.225851,135.96373 630.719953,136.550117 C630.722623,136.551165 630.725303,136.552212 630.727993,136.553257 L630.728013,136.553207 C630.947442,136.638454 631.056218,136.885443 630.970972,137.104872 C630.927757,137.216107 630.839892,137.304133 630.728735,137.347549 C630.728735,137.347549 630.728735,137.347549 630.728735,137.347549 C629.193697,137.947117 627.973758,139.179582 627.387107,140.725588 C627.385412,140.730053 627.383722,140.734546 627.382036,140.739068 L627.381962,140.73904 C627.30464,140.946343 627.073906,141.051714 626.866603,140.974392 C626.758126,140.933931 626.672458,140.84852 626.631672,140.740165 C626.631672,140.740165 626.631672,140.740165 626.631672,140.740165 C626.045042,139.181671 624.815473,137.939979 623.267688,137.340999 C623.267688,137.340999 623.267688,137.340999 623.267688,137.340999 L623.267688,137.340999 C623.052029,137.257541 622.94486,137.01506 623.028317,136.799401 C623.070947,136.689246 623.15812,136.60222 623.268347,136.559777 Z" id="Combined-Shape"></path>
                        <path d="M409.268369,203.559834 C409.270866,203.558873 409.273354,203.55791 409.275833,203.556947 C410.773394,202.974802 411.97209,201.790645 412.577157,200.300319 C412.578884,200.296065 412.580608,200.291787 412.582327,200.287483 L412.582316,200.287479 C412.675969,200.053145 412.941854,199.9391 413.176189,200.032752 C413.291976,200.079027 413.383823,200.170611 413.430429,200.286266 C413.430429,200.286266 413.430429,200.286266 413.430429,200.286266 C414.031311,201.777388 415.225851,202.96373 416.719953,203.550117 C416.722623,203.551165 416.725303,203.552212 416.727993,203.553257 L416.728013,203.553207 C416.947442,203.638454 417.056218,203.885443 416.970972,204.104872 C416.927757,204.216107 416.839892,204.304133 416.728735,204.347549 C416.728735,204.347549 416.728735,204.347549 416.728735,204.347549 C415.193697,204.947117 413.973758,206.179582 413.387107,207.725588 C413.385412,207.730053 413.383722,207.734546 413.382036,207.739068 L413.381962,207.73904 C413.30464,207.946343 413.073906,208.051714 412.866603,207.974392 C412.758126,207.933931 412.672458,207.84852 412.631672,207.740165 C412.631672,207.740165 412.631672,207.740165 412.631672,207.740165 C412.045042,206.181671 410.815473,204.939979 409.267688,204.340999 C409.267688,204.340999 409.267688,204.340999 409.267688,204.340999 L409.267688,204.340999 C409.052029,204.257541 408.94486,204.01506 409.028317,203.799401 C409.070947,203.689246 409.15812,203.60222 409.268347,203.559777 Z" id="Combined-Shape-Copy-9"></path>
                        <path d="M456.268369,465.559834 C456.270866,465.558873 456.273354,465.55791 456.275833,465.556947 C457.773394,464.974802 458.97209,463.790645 459.577157,462.300319 C459.578884,462.296065 459.580608,462.291787 459.582327,462.287483 L459.582316,462.287479 C459.675969,462.053145 459.941854,461.9391 460.176189,462.032752 C460.291976,462.079027 460.383823,462.170611 460.430429,462.286266 C460.430429,462.286266 460.430429,462.286266 460.430429,462.286266 C461.031311,463.777388 462.225851,464.96373 463.719953,465.550117 C463.722623,465.551165 463.725303,465.552212 463.727993,465.553257 L463.728013,465.553207 C463.947442,465.638454 464.056218,465.885443 463.970972,466.104872 C463.927757,466.216107 463.839892,466.304133 463.728735,466.347549 C463.728735,466.347549 463.728735,466.347549 463.728735,466.347549 C462.193697,466.947117 460.973758,468.179582 460.387107,469.725588 C460.385412,469.730053 460.383722,469.734546 460.382036,469.739068 L460.381962,469.73904 C460.30464,469.946343 460.073906,470.051714 459.866603,469.974392 C459.758126,469.933931 459.672458,469.84852 459.631672,469.740165 C459.631672,469.740165 459.631672,469.740165 459.631672,469.740165 C459.045042,468.181671 457.815473,466.939979 456.267688,466.340999 C456.267688,466.340999 456.267688,466.340999 456.267688,466.340999 L456.267688,466.340999 C456.052029,466.257541 455.94486,466.01506 456.028317,465.799401 C456.070947,465.689246 456.15812,465.60222 456.268347,465.559777 Z" id="Combined-Shape-Copy-7"></path>
                        <path d="M918.268369,226.559834 C918.270866,226.558873 918.273354,226.55791 918.275833,226.556947 C919.773394,225.974802 920.97209,224.790645 921.577157,223.300319 C921.578884,223.296065 921.580608,223.291787 921.582327,223.287483 L921.582316,223.287479 C921.675969,223.053145 921.941854,222.9391 922.176189,223.032752 C922.291976,223.079027 922.383823,223.170611 922.430429,223.286266 C922.430429,223.286266 922.430429,223.286266 922.430429,223.286266 C923.031311,224.777388 924.225851,225.96373 925.719953,226.550117 C925.722623,226.551165 925.725303,226.552212 925.727993,226.553257 L925.728013,226.553207 C925.947442,226.638454 926.056218,226.885443 925.970972,227.104872 C925.927757,227.216107 925.839892,227.304133 925.728735,227.347549 C925.728735,227.347549 925.728735,227.347549 925.728735,227.347549 C924.193697,227.947117 922.973758,229.179582 922.387107,230.725588 C922.385412,230.730053 922.383722,230.734546 922.382036,230.739068 L922.381962,230.73904 C922.30464,230.946343 922.073906,231.051714 921.866603,230.974392 C921.758126,230.933931 921.672458,230.84852 921.631672,230.740165 C921.631672,230.740165 921.631672,230.740165 921.631672,230.740165 C921.045042,229.181671 919.815473,227.939979 918.267688,227.340999 C918.267688,227.340999 918.267688,227.340999 918.267688,227.340999 L918.267688,227.340999 C918.052029,227.257541 917.94486,227.01506 918.028317,226.799401 C918.070947,226.689246 918.15812,226.60222 918.268347,226.559777 Z" id="Combined-Shape"></path>
                    </g>
                </g>
                <g id="Group" mask="url(#mask-2)" fill="#C1E0F4">
                    <g transform="translate(719.500000, 323.000000) scale(-1, -1) rotate(90.000000) translate(-719.500000, -323.000000) translate(69.000000, 7.000000)">
                        <path d="M613.268369,596.559834 C613.270866,596.558873 613.273354,596.55791 613.275833,596.556947 C614.773394,595.974802 615.97209,594.790645 616.577157,593.300319 C616.578884,593.296065 616.580608,593.291787 616.582327,593.287483 L616.582316,593.287479 C616.675969,593.053145 616.941854,592.9391 617.176189,593.032752 C617.291976,593.079027 617.383823,593.170611 617.430429,593.286266 C617.430429,593.286266 617.430429,593.286266 617.430429,593.286266 C618.031311,594.777388 619.225851,595.96373 620.719953,596.550117 C620.722623,596.551165 620.725303,596.552212 620.727993,596.553257 L620.728013,596.553207 C620.947442,596.638454 621.056218,596.885443 620.970972,597.104872 C620.927757,597.216107 620.839892,597.304133 620.728735,597.347549 C620.728735,597.347549 620.728735,597.347549 620.728735,597.347549 C619.193697,597.947117 617.973758,599.179582 617.387107,600.725588 C617.385412,600.730053 617.383722,600.734546 617.382036,600.739068 L617.381962,600.73904 C617.30464,600.946343 617.073906,601.051714 616.866603,600.974392 C616.758126,600.933931 616.672458,600.84852 616.631672,600.740165 C616.631672,600.740165 616.631672,600.740165 616.631672,600.740165 C616.045042,599.181671 614.815473,597.939979 613.267688,597.340999 C613.267688,597.340999 613.267688,597.340999 613.267688,597.340999 L613.267688,597.340999 C613.052029,597.257541 612.94486,597.01506 613.028317,596.799401 C613.070947,596.689246 613.15812,596.60222 613.268347,596.559777 Z" id="Combined-Shape"></path>
                        <path d="M623.268369,136.559834 C623.270866,136.558873 623.273354,136.55791 623.275833,136.556947 C624.773394,135.974802 625.97209,134.790645 626.577157,133.300319 C626.578884,133.296065 626.580608,133.291787 626.582327,133.287483 L626.582316,133.287479 C626.675969,133.053145 626.941854,132.9391 627.176189,133.032752 C627.291976,133.079027 627.383823,133.170611 627.430429,133.286266 C627.430429,133.286266 627.430429,133.286266 627.430429,133.286266 C628.031311,134.777388 629.225851,135.96373 630.719953,136.550117 C630.722623,136.551165 630.725303,136.552212 630.727993,136.553257 L630.728013,136.553207 C630.947442,136.638454 631.056218,136.885443 630.970972,137.104872 C630.927757,137.216107 630.839892,137.304133 630.728735,137.347549 C630.728735,137.347549 630.728735,137.347549 630.728735,137.347549 C629.193697,137.947117 627.973758,139.179582 627.387107,140.725588 C627.385412,140.730053 627.383722,140.734546 627.382036,140.739068 L627.381962,140.73904 C627.30464,140.946343 627.073906,141.051714 626.866603,140.974392 C626.758126,140.933931 626.672458,140.84852 626.631672,140.740165 C626.631672,140.740165 626.631672,140.740165 626.631672,140.740165 C626.045042,139.181671 624.815473,137.939979 623.267688,137.340999 C623.267688,137.340999 623.267688,137.340999 623.267688,137.340999 L623.267688,137.340999 C623.052029,137.257541 622.94486,137.01506 623.028317,136.799401 C623.070947,136.689246 623.15812,136.60222 623.268347,136.559777 Z" id="Combined-Shape"></path>
                        <path d="M409.268369,203.559834 C409.270866,203.558873 409.273354,203.55791 409.275833,203.556947 C410.773394,202.974802 411.97209,201.790645 412.577157,200.300319 C412.578884,200.296065 412.580608,200.291787 412.582327,200.287483 L412.582316,200.287479 C412.675969,200.053145 412.941854,199.9391 413.176189,200.032752 C413.291976,200.079027 413.383823,200.170611 413.430429,200.286266 C413.430429,200.286266 413.430429,200.286266 413.430429,200.286266 C414.031311,201.777388 415.225851,202.96373 416.719953,203.550117 C416.722623,203.551165 416.725303,203.552212 416.727993,203.553257 L416.728013,203.553207 C416.947442,203.638454 417.056218,203.885443 416.970972,204.104872 C416.927757,204.216107 416.839892,204.304133 416.728735,204.347549 C416.728735,204.347549 416.728735,204.347549 416.728735,204.347549 C415.193697,204.947117 413.973758,206.179582 413.387107,207.725588 C413.385412,207.730053 413.383722,207.734546 413.382036,207.739068 L413.381962,207.73904 C413.30464,207.946343 413.073906,208.051714 412.866603,207.974392 C412.758126,207.933931 412.672458,207.84852 412.631672,207.740165 C412.631672,207.740165 412.631672,207.740165 412.631672,207.740165 C412.045042,206.181671 410.815473,204.939979 409.267688,204.340999 C409.267688,204.340999 409.267688,204.340999 409.267688,204.340999 L409.267688,204.340999 C409.052029,204.257541 408.94486,204.01506 409.028317,203.799401 C409.070947,203.689246 409.15812,203.60222 409.268347,203.559777 Z" id="Combined-Shape-Copy-9"></path>
                        <path d="M456.268369,465.559834 C456.270866,465.558873 456.273354,465.55791 456.275833,465.556947 C457.773394,464.974802 458.97209,463.790645 459.577157,462.300319 C459.578884,462.296065 459.580608,462.291787 459.582327,462.287483 L459.582316,462.287479 C459.675969,462.053145 459.941854,461.9391 460.176189,462.032752 C460.291976,462.079027 460.383823,462.170611 460.430429,462.286266 C460.430429,462.286266 460.430429,462.286266 460.430429,462.286266 C461.031311,463.777388 462.225851,464.96373 463.719953,465.550117 C463.722623,465.551165 463.725303,465.552212 463.727993,465.553257 L463.728013,465.553207 C463.947442,465.638454 464.056218,465.885443 463.970972,466.104872 C463.927757,466.216107 463.839892,466.304133 463.728735,466.347549 C463.728735,466.347549 463.728735,466.347549 463.728735,466.347549 C462.193697,466.947117 460.973758,468.179582 460.387107,469.725588 C460.385412,469.730053 460.383722,469.734546 460.382036,469.739068 L460.381962,469.73904 C460.30464,469.946343 460.073906,470.051714 459.866603,469.974392 C459.758126,469.933931 459.672458,469.84852 459.631672,469.740165 C459.631672,469.740165 459.631672,469.740165 459.631672,469.740165 C459.045042,468.181671 457.815473,466.939979 456.267688,466.340999 C456.267688,466.340999 456.267688,466.340999 456.267688,466.340999 L456.267688,466.340999 C456.052029,466.257541 455.94486,466.01506 456.028317,465.799401 C456.070947,465.689246 456.15812,465.60222 456.268347,465.559777 Z" id="Combined-Shape-Copy-7"></path>
                        <path d="M918.268369,226.559834 C918.270866,226.558873 918.273354,226.55791 918.275833,226.556947 C919.773394,225.974802 920.97209,224.790645 921.577157,223.300319 C921.578884,223.296065 921.580608,223.291787 921.582327,223.287483 L921.582316,223.287479 C921.675969,223.053145 921.941854,222.9391 922.176189,223.032752 C922.291976,223.079027 922.383823,223.170611 922.430429,223.286266 C922.430429,223.286266 922.430429,223.286266 922.430429,223.286266 C923.031311,224.777388 924.225851,225.96373 925.719953,226.550117 C925.722623,226.551165 925.725303,226.552212 925.727993,226.553257 L925.728013,226.553207 C925.947442,226.638454 926.056218,226.885443 925.970972,227.104872 C925.927757,227.216107 925.839892,227.304133 925.728735,227.347549 C925.728735,227.347549 925.728735,227.347549 925.728735,227.347549 C924.193697,227.947117 922.973758,229.179582 922.387107,230.725588 C922.385412,230.730053 922.383722,230.734546 922.382036,230.739068 L922.381962,230.73904 C922.30464,230.946343 922.073906,231.051714 921.866603,230.974392 C921.758126,230.933931 921.672458,230.84852 921.631672,230.740165 C921.631672,230.740165 921.631672,230.740165 921.631672,230.740165 C921.045042,229.181671 919.815473,227.939979 918.267688,227.340999 C918.267688,227.340999 918.267688,227.340999 918.267688,227.340999 L918.267688,227.340999 C918.052029,227.257541 917.94486,227.01506 918.028317,226.799401 C918.070947,226.689246 918.15812,226.60222 918.268347,226.559777 Z" id="Combined-Shape"></path>
                    </g>
                </g>
            </g>
        </g>
    </g>
</svg>