
<svg width="208px" height="130px" viewBox="0 0 208 130" version="1.1" xmlns="http://www.w3.org/2000/svg" xmlns:xlink="http://www.w3.org/1999/xlink">
    <!-- Generator: Sketch 46.1 (44463) - http://www.bohemiancoding.com/sketch -->
    <desc>Created with Sketch.</desc>
    <defs>
        <path d="M10,0 L79.5100021,0 L79.5100021,0 C85.0328496,-1.08250786e-14 89.5100021,4.4771525 89.5100021,10 L89.5100021,129.373487 L0,129.373487 L0,10 L1.77635684e-15,10 C1.10000309e-15,4.4771525 4.4771525,1.01453063e-15 10,0 Z" id="path-1"></path>
        <rect id="path-3" x="7.72125409" y="20.659864" width="73.2089277" height="109.7909"></rect>
    </defs>
    <g id="Symbols" stroke="none" stroke-width="1" fill="none" fill-rule="evenodd">
        <g id="Interactive_04">
            <g>
                <g id="Group-27" transform="translate(0.000000, 31.263543)">
                    <path d="M5,0 L171.071937,0 L171.071937,98.7076306 L5,98.7076306 L5,98.7076306 C2.23857625,98.7076306 3.38176876e-16,96.4690543 0,93.7076306 L0,5 L0,5 C-3.38176876e-16,2.23857625 2.23857625,5.07265313e-16 5,0 Z" id="Mask" fill="#39434D"></path>
                    <rect id="Rectangle" fill="#FFFFFF" x="9.47380088" y="10.421181" width="152.007028" height="77.5586454"></rect>
                    <rect id="Rectangle-21" fill="#FF8B8B" x="64.421846" y="44.5268641" width="31.7246934" height="2.14186095" rx="1.07093047"></rect>
                    <rect id="Rectangle-21" fill="#FF8B8B" x="57.7901853" y="48.3163845" width="44.4145708" height="2.14186095" rx="1.07093047"></rect>
                    <rect id="Rectangle-21" fill="#B2C5D0" x="57.7901853" y="53.0532849" width="44.4145708" height="2.14186095" rx="1.07093047"></rect>
                    <rect id="Rectangle-22" fill="#C1E0F4" x="15.1580814" y="17.0528416" width="32.210923" height="64.421846"></rect>
                    <circle id="Oval-5" fill="#35A1E2" cx="30.7898528" cy="32.684613" r="9.00011083"></circle>
                </g>
                <circle id="Oval-9" stroke="#35A1E2" stroke-dasharray="3,5" cx="176" cy="94" r="31"></circle>
                <g id="Group-11" transform="translate(81.892429, 0.622988)">
                    <g id="Rectangle-7" transform="translate(0.000000, 0.000000)">
                        <mask id="mask-2" fill="white">
                            <use xlink:href="#path-1"></use>
                        </mask>
                        <use id="Mask" fill="#39434D" xlink:href="#path-1"></use>
                        <g mask="url(#mask-2)">
                            <use fill="#FFFFFF" fill-rule="evenodd" xlink:href="#path-3"></use>
                            <rect stroke="#000000" stroke-width="1" x="7.22125409" y="20.159864" width="74.2089277" height="110.7909"></rect>
                        </g>
                    </g>
                    <g id="Group-12" transform="translate(12.799987, 44.879570)">
                        <g id="Group-16" transform="translate(0.000000, 0.000000)">
                            <rect id="Rectangle-21" fill="#F3F3F3" x="8.76047775" y="0.159475695" width="47.0043845" height="17.2553345" rx="2"></rect>
                            <rect id="Rectangle-21" fill="#B2C5D0" x="12.0617734" y="3.94133256" width="27.8348618" height="1.87924285" rx="0.939621427"></rect>
                            <rect id="Rectangle-21" fill="#B2C5D0" x="12.0617734" y="7.65264746" width="38.9688065" height="1.87924285" rx="0.939621427"></rect>
                            <rect id="Rectangle-21" fill="#B2C5D0" x="12.0617734" y="11.3639624" width="38.9688065" height="1.87924285" rx="0.939621427"></rect>
                            <rect id="Rectangle-20" fill="#54C6AB" x="0" y="11.3771156" width="5.56697235" height="5.56697235" rx="2.78348618"></rect>
                        </g>
                        <g id="Group-16-Copy-2" transform="translate(0.000000, 33.631852)">
                            <rect id="Rectangle-20" fill="#54C6AB" x="0" y="11.1470979" width="5.56697235" height="5.56697235" rx="2.78348618"></rect>
                            <g id="Wow" transform="translate(10.206116, 0.000000)">
                                <circle id="Wow-Oval" fill="#FFDA69" cx="9.18280675" cy="9.18280675" r="9.18280675"></circle>
                                <ellipse id="mouth" fill="#252B37" cx="9.18280675" cy="12.7270479" rx="2.73873184" ry="3.5442412"></ellipse>
                                <path d="M13.8542703,8.67135489 C13.0656688,8.81040661 12.2823452,8.10626251 12.104668,7.09860501 C11.9269907,6.09094752 12.4222428,5.16135602 13.2108443,5.0223043 C13.9994458,4.88325257 14.7827695,5.58739668 14.9604467,6.59505417 C15.1381239,7.60271167 14.6428719,8.53230316 13.8542703,8.67135489 Z M4.64992681,8.73388219 C3.8613253,8.59483046 3.36607329,7.66523897 3.54375049,6.65758148 C3.72142769,5.64992398 4.50475137,4.94577988 5.29335289,5.0848316 C6.08195441,5.22388333 6.57720641,6.15347482 6.39952921,7.16113232 C6.22185201,8.16878981 5.43852833,8.87293391 4.64992681,8.73388219 Z M14.9104392,2.40273167 C15.0624731,2.5650989 15.0540964,2.81997144 14.8917292,2.97200542 C14.7293619,3.1240394 14.4744894,3.11566264 14.3224554,2.95329541 C14.063438,2.67667343 13.7094963,2.50897316 13.3233185,2.48873444 C12.9720009,2.47032267 12.6342506,2.57587436 12.3592573,2.78314265 C12.1816269,2.91702649 11.9290947,2.88156288 11.7952109,2.70393246 C11.661327,2.52630205 11.6967906,2.27376984 11.8744211,2.139886 C12.2992952,1.81964924 12.8232333,1.65591129 13.3654756,1.684329 C13.9616662,1.71557402 14.5105096,1.97562017 14.9104392,2.40273167 Z M5.025901,2.55965734 C4.63972323,2.57989606 4.2857815,2.74759632 4.02676408,3.02421831 C3.87473011,3.18658554 3.61985757,3.1949623 3.45749033,3.04292832 C3.2951231,2.89089434 3.28674634,2.6360218 3.43878032,2.47365457 C3.83870991,2.04654307 4.38755331,1.78649692 4.9837439,1.7552519 C5.52598619,1.72683418 6.04992424,1.89057213 6.47479843,2.21080889 C6.65242885,2.34469274 6.68789246,2.59722494 6.55400862,2.77485536 C6.42012477,2.95248578 6.16759257,2.98794938 5.98996215,2.85406554 C5.71496891,2.64679726 5.37721857,2.54124556 5.025901,2.55965734 Z" id="eyes" fill="#252B37"></path>
                            </g>
                        </g>
                        <g id="Group-16-Copy" transform="translate(6.494801, 22.497907)">
                            <rect id="Rectangle-21" fill="#C1E0F4" x="0.21836594" y="0" width="48.9565565" height="7.40525042" rx="2"></rect>
                            <rect id="Rectangle-20" fill="#35A1E2" x="51.0305799" y="1.85565745" width="5.56697235" height="5.56697235" rx="2.78348618"></rect>
                        </g>
                        <g id="Group-16-Copy-3" transform="translate(7.192612, 55.899741)">
                            <rect id="Rectangle-21" fill="#C1E0F4" x="0.172028357" y="0" width="48.305083" height="16.7978952" rx="2"></rect>
                            <rect id="Rectangle-20" fill="#35A1E2" x="50.3327688" y="11.1339447" width="5.56697235" height="5.56697235" rx="2.78348618"></rect>
                        </g>
                    </g>
                    <rect id="Rectangle-7" fill="#C1E0F4" x="7.72125409" y="20.659864" width="73.2089277" height="14.2063487"></rect>
                    <rect id="Rectangle-8" fill="#FFFFFF" x="32" y="8" width="25.6820819" height="4.49436433" rx="2.24718216"></rect>
                </g>
                <circle id="Oval-8" fill="#35A1E2" cx="174.5" cy="92.5" r="26.5"></circle>
                <g id="synchronization-arrows" transform="translate(175.500000, 93.000000) rotate(-45.000000) translate(-175.500000, -93.000000) translate(161.000000, 73.000000)" fill-rule="nonzero" fill="#FFFFFF">
                    <path d="M14.1369398,5.32289091 L14.1369398,0 L7.08575223,7.09718788 L14.1369398,14.1943758 L14.1369398,8.87148485 C19.9541696,8.87148485 24.7137212,13.6620867 24.7137212,19.5172667 C24.7137212,21.2915636 24.1848821,23.0658606 23.4797634,24.4852982 L26.1239587,27.1467436 C27.3579165,24.8401576 28.239315,22.3561418 28.239315,19.5172667 C28.239315,11.71036 21.8932462,5.32289091 14.1369398,5.32289091 Z M14.1369398,30.1630485 C8.31971006,30.1630485 3.56015844,25.3724467 3.56015844,19.5172667 C3.56015844,17.7429697 4.08899751,15.9686727 4.79411626,14.5492351 L2.14992092,11.8877897 C0.915963093,14.1943758 0.034564645,16.6783915 0.034564645,19.5172667 C0.034564645,27.3241733 6.38063347,33.7116424 14.1369398,33.7116424 L14.1369398,39.0345333 L21.1881274,31.9373454 L14.1369398,24.8401576 L14.1369398,30.1630485 Z" id="Shape"></path>
                </g>
            </g>
        </g>
    </g>
</svg>