<?xml version="1.0" encoding="UTF-8" standalone="no"?>

<svg width="88px" height="100px" viewBox="0 0 88 100" version="1.1" xmlns="http://www.w3.org/2000/svg" xmlns:xlink="http://www.w3.org/1999/xlink">
    <!-- Generator: Sketch 46.1 (44463) - http://www.bohemiancoding.com/sketch -->
    <desc>Created with Sketch.</desc>
    <defs></defs>
    <g id="pages_for_valérie" stroke="none" stroke-width="1" fill="none" fill-rule="evenodd">
        <g id="700-card---regular" transform="translate(-993.000000, -189.000000)">
            <g id="card" transform="translate(890.000000, 169.000000)">
                <g id="discord_color" transform="translate(100.000000, 20.000000)">
                    <rect id="500x500" x="0" y="0" width="100" height="100"></rect>
                    <path d="M13.35,3.55271368e-15 L80.35,3.55271368e-15 C85.9999998,3.55271368e-15 90.5999999,4.59999999 90.5999999,10.3 L90.5999999,100 L77.3045426,88.1999999 L13.35,88.1999999 C7.69999999,88.1999999 3.1,83.5999998 3.1,77.8999999 L3.1,10.3 C3.1,4.59999999 7.69999999,3.55271368e-15 13.35,3.55271368e-15 Z M42.2713,46.0537886 C42.2713,38.8358279 36.1801297,33 28.68565,33 C21.1911703,33 15.1,38.8358279 15.1,46.0537886 C15.1,53.2717492 21.1911703,59.1075771 28.68565,59.1075771 C36.1801297,59.1075771 42.2713,53.2717492 42.2713,46.0537886 Z M73.8075704,51.147381 C76.4074897,51.147381 78.5151408,49.09967 78.5151408,46.5736905 C78.5151408,44.047711 76.4074897,42 73.8075704,42 C71.2076511,42 69.1,44.047711 69.1,46.5736905 C69.1,49.09967 71.2076511,51.147381 73.8075704,51.147381 Z M63.8664238,46.5266924 C63.8664238,41.8139264 59.8856219,38 54.9832119,38 C50.0808019,38 46.1,41.8139264 46.1,46.5266924 C46.1,51.2394584 50.0808019,55.0533848 54.9832119,55.0533848 C59.8856219,55.0533848 63.8664238,51.2394584 63.8664238,46.5266924 Z" id="Combined-Shape" fill="#1DA1F2" fill-rule="nonzero"></path>
                </g>
            </g>
        </g>
    </g>
</svg>