<?xml version="1.0" encoding="UTF-8" standalone="no"?>
<svg width="500px" height="231px" viewBox="0 0 500 231" version="1.1" xmlns="http://www.w3.org/2000/svg" xmlns:xlink="http://www.w3.org/1999/xlink">
    <!-- Generator: Sketch 43.1 (39012) - http://www.bohemiancoding.com/sketch -->
    <title>kik-color</title>
    <desc>Created with Sketch.</desc>
    <defs></defs>
    <g id="Page-1" stroke="none" stroke-width="1" fill="none" fill-rule="evenodd">
        <g id="Logos-Couleur" transform="translate(-20515.000000, -634.000000)">
            <g id="kik-color" transform="translate(20515.000000, 634.000000)">
                <path d="M473.42138,111.712367 C488.099825,111.712367 499.994939,123.556366 499.994939,138.168855 C499.994939,152.779696 488.099825,164.623694 473.42138,164.623694 C458.742935,164.623694 446.84947,152.779696 446.84947,138.168855 C446.847821,123.559664 458.741286,111.712367 473.42138,111.712367 Z" id="Shape" fill="#3DB4E7"></path>
                <path d="M354.239276,218.670978 L314.679683,165.789594 L302.555373,177.035044 L302.553724,208.326086 L302.244243,208.314008 C301.550849,220.851153 291.306024,230.803795 278.765145,230.803795 C265.770219,230.803795 255.245335,220.125564 255.245335,206.957505 C255.245335,206.797983 255.24688,206.638828 255.249954,206.480053 L254.724285,206.459539 L254.727583,24.9428041 L254.727583,24.9428041 L255.269184,24.9485526 C255.259906,24.6707889 255.255229,24.3918331 255.255229,24.111762 C255.255229,10.7936534 265.827931,0 278.867376,0 C291.906822,0 302.479524,10.7936534 302.479524,24.111762 C302.479524,24.5605624 302.467518,25.0064991 302.443817,25.4492554 L302.731804,25.452312 L302.969245,113.874198 L347.410209,70.4159747 L347.422526,70.4274605 C351.817547,65.5554525 358.169028,62.4946928 365.231444,62.4946928 L365.231444,62.4946928 C378.496788,62.4946928 389.249219,73.2833996 389.249219,86.5949126 C389.249219,93.0477685 386.721881,98.9091938 382.606142,103.235929 L382.851514,103.464737 L351.586854,134.254515 L395.285816,193.164515 L394.957939,193.402442 C397.394077,197.198129 398.809501,201.729644 398.809501,206.596397 C398.809501,219.963972 388.124674,230.807093 374.938477,230.807093 C366.088629,230.807093 358.363259,225.924453 354.239276,218.670978 Z M99.5083911,218.662266 L59.9537487,165.789594 L47.8294387,177.035044 L47.8277898,208.326086 L47.5183092,208.314008 C46.8249127,220.851153 36.5800328,230.803795 24.0375619,230.803795 C11.047583,230.803795 0.519401289,220.125564 0.519401289,206.957505 C0.519401289,206.797962 0.520945993,206.638785 0.524021066,206.47999 L0,206.459539 L0.00329778596,24.9428041 L0.00329778596,24.9428041 L0.541601602,24.9485176 C0.532322907,24.6707691 0.527645753,24.3918231 0.527645753,24.111762 C0.527645753,10.7936534 11.1019964,0 24.1414421,0 C37.1825367,0 47.7535896,10.7936534 47.7535896,24.111762 C47.7535896,24.5605565 47.7415825,25.0064874 47.7178786,25.4492378 L48.0075191,25.452312 L48.2466086,113.874198 L92.6842744,70.4159747 L92.6964627,70.4273392 C97.0916108,65.5554017 103.443923,62.4946928 110.507159,62.4946928 L110.507159,62.4946928 C123.772503,62.4946928 134.524934,73.2833996 134.524934,86.5949126 C134.524934,93.047369 131.997908,98.9084682 127.882621,103.235126 L128.128878,103.464737 L96.8609203,134.254515 L140.559882,193.164515 L140.232796,193.401879 C142.669433,197.19768 144.085215,201.729403 144.085215,206.596397 C144.085215,219.963972 133.39874,230.807093 120.212543,230.807093 C111.359152,230.807093 103.63114,225.920543 99.5083911,218.662266 Z M220.786223,87.3639463 L221.072028,87.3649456 L221.076975,206.985536 L221.076975,206.985536 L220.794662,206.985526 C220.627776,220.179184 210.044047,230.823582 197.013031,230.823582 C183.981479,230.823582 173.392546,220.178308 173.226434,206.983897 L172.919407,206.983887 L172.970522,87.1967585 L173.230644,87.1976681 C173.226523,87.0126451 173.224452,86.8271088 173.224452,86.6410816 C173.224452,73.2965907 183.876301,62.4815017 197.013031,62.4815017 C210.149761,62.4815017 220.796663,73.2965907 220.796663,86.6410816 C220.796663,86.882884 220.793167,87.1238553 220.786223,87.3639463 Z" id="Combined-Shape" fill="#82BC23"></path>
            </g>
        </g>
    </g>
</svg>