<?xml version="1.0" encoding="UTF-8" standalone="no"?>
<svg width="500px" height="499px" viewBox="0 0 500 499" version="1.1" xmlns="http://www.w3.org/2000/svg" xmlns:xlink="http://www.w3.org/1999/xlink">
    <!-- Generator: Sketch 43.1 (39012) - http://www.bohemiancoding.com/sketch -->
    <title>line-color</title>
    <desc>Created with Sketch.</desc>
    <defs></defs>
    <g id="Page-1" stroke="none" stroke-width="1" fill="none" fill-rule="evenodd">
        <g id="Logos-Couleur" transform="translate(-23833.000000, -498.000000)">
            <g id="line-color" transform="translate(23833.000000, 498.000000)">
                <path d="M103.058279,0 L397.606871,0 C453.739714,0 499.667186,45.9274719 499.667186,102.060315 L499.667186,396.608907 C499.667186,452.74175 453.739714,498.669222 397.606871,498.669222 L103.058279,498.669222 C46.9254361,498.670542 0.997964152,452.74307 0.997964152,396.608907 L0.997964152,102.060315 C0.997964152,45.9274719 46.9254361,0 103.058279,0 Z M249.848774,82.6039745 L249.848774,82.6039745 C148.807543,82.6039745 66.8965996,148.193716 66.8992397,229.102736 C66.8992397,301.221487 131.979439,361.166659 217.67895,373.341557 L217.67895,373.344197 L217.717232,373.346837 C219.730321,373.63197 221.760571,373.882781 223.796101,374.116432 C252.974672,380.19398 227.683673,416.713396 237.238256,424.179646 C248.229062,432.769266 331.503626,377.094483 382.096185,330.331414 C389.418549,324.199743 396.078243,317.557209 401.992105,310.481696 L402.09903,310.365531 C403.510172,308.810502 404.629581,307.40332 405.486299,306.129464 C422.798865,283.750514 432.799628,257.363866 432.799628,229.102736 C432.799628,148.193716 350.890004,82.6039745 249.848774,82.6039745 Z M143.700238,275.831483 L143.700238,275.831483 C138.451685,275.831483 134.158855,271.537333 134.158855,266.287461 L134.158855,195.52045 C134.158855,190.271898 138.451685,185.979068 143.700238,185.979068 L144.496233,185.979068 C149.744785,185.979068 154.037615,190.271898 154.037615,195.52045 L154.037615,255.951404 L180.59851,255.951404 C185.847062,255.951404 190.139892,260.244234 190.139892,265.492786 L190.139892,266.288781 C190.139892,271.537333 185.847062,275.831483 180.59851,275.831483 L143.700238,275.831483 Z M372.340953,231.473561 L372.340953,231.473561 C372.340953,236.720793 368.046803,241.014943 362.798251,241.012303 L336.238676,241.012303 L336.238676,256.120371 L362.798251,256.120371 C368.046803,256.120371 372.340953,260.413201 372.340953,265.661753 L372.340953,266.457749 C372.340953,271.706301 368.046803,276.000451 362.798251,276.000451 L325.899978,276.000451 C320.651426,276.000451 316.358596,271.706301 316.358596,266.457749 L316.358596,195.690738 C316.358596,190.442185 320.651426,186.149356 325.899978,186.149356 L362.798251,186.149356 C368.046803,186.149356 372.340953,190.442185 372.340953,195.690738 L372.340953,196.486733 C372.340953,201.735285 368.046803,206.028115 362.798251,206.028115 L336.238676,206.028115 L336.238676,221.136183 L362.798251,221.136183 C368.046803,221.136183 372.340953,225.429013 372.340953,230.677566 L372.340953,231.473561 Z M301.381214,272.986757 L301.381214,272.986757 C300.814909,273.677148 300.010993,274.263254 299.056591,274.717354 C297.684877,275.449673 296.15371,275.832352 294.598754,275.831483 L293.802758,275.831483 C292.523622,275.831483 291.301248,275.575392 290.183158,275.113371 C288.728454,274.568187 287.422916,273.675828 286.468514,272.37425 L286.467194,272.37161 C286.215063,272.067997 285.981412,271.748543 285.767563,271.415888 L251.031546,223.971669 L251.031546,266.290101 C251.031546,271.538653 246.738716,275.832803 241.490164,275.832803 L240.694169,275.832803 C235.444296,275.832803 231.151467,271.538653 231.151467,266.290101 L231.151467,195.52309 C231.151467,190.274538 235.445616,185.981708 240.694169,185.981708 L241.490164,185.981708 C245.02528,185.981708 248.127418,187.930114 249.77485,190.806522 L284.262696,237.064008 L284.262696,195.52309 C284.262696,190.274538 288.555526,185.981708 293.804078,185.981708 L294.600074,185.981708 C299.849946,185.981708 304.142776,190.274538 304.142776,195.52309 L304.142776,266.290101 C304.140983,268.797392 303.149483,271.20261 301.383854,272.982797 L301.381214,272.986757 Z M207.382495,275.831483 C202.133943,275.831483 197.839793,271.537333 197.839793,266.288781 L197.839793,195.52177 C197.839793,190.273218 202.133943,185.980388 207.382495,185.980388 L208.17849,185.980388 C213.427042,185.980388 217.719872,190.273218 217.719872,195.52177 L217.719872,266.288781 C217.719872,271.537333 213.427042,275.831483 208.17849,275.831483 L207.382495,275.831483 Z" id="Combined-Shape" fill="#3ACE01"></path>
                <rect id="500x500" x="0" y="0" width="498.982076" height="498.982076"></rect>
            </g>
        </g>
    </g>
</svg>