<?xml version="1.0" encoding="UTF-8" standalone="no"?>
<svg width="500px" height="500px" viewBox="0 0 500 500" version="1.1" xmlns="http://www.w3.org/2000/svg" xmlns:xlink="http://www.w3.org/1999/xlink">
    <!-- Generator: Sketch 43.1 (39012) - http://www.bohemiancoding.com/sketch -->
    <title>MS Teams</title>
    <desc>Created with Sketch.</desc>
    <defs></defs>
    <g id="Page-1" stroke="none" stroke-width="1" fill="none" fill-rule="evenodd">
        <g id="Logos-Couleur" transform="translate(-31996.000000, -381.000000)" fill="#0070A1">
            <path d="M32496,806 C32496,847.423333 32462.4217,881 32421,881 L32071,881 C32029.5767,881 31996,847.423333 31996,806 L31996,456 C31996,414.578333 32029.5783,381 32071,381 L32421,381 C32462.4217,381 32496,414.578333 32496,456 L32496,806 Z M32057.0454,460.119496 L32057.0454,770.710867 L32290.1333,811.784575 L32290.1333,420.079956 L32057.0454,460.119496 Z M32118.3225,545.116038 L32228.6828,536.339517 L32228.6828,568.534022 L32186.5139,569.736853 L32186.5139,686.414222 L32157.9159,685.951458 L32157.9159,569.637795 L32118.8971,572.228156 L32118.3225,545.116038 Z M32295.3636,582.133936 L32294.3086,738.427325 C32294.3086,738.427325 32311.2718,747.916378 32338.9108,743.24153 C32361.43,740.048469 32370.1034,711.896872 32370.1034,711.896872 L32370.1034,582.133936 L32295.3636,582.133936 Z M32323,561 C32343.4345,561 32360,544.434536 32360,524 C32360,503.565464 32343.4345,487 32323,487 C32311.0702,487 32300.4591,492.646004 32293.693,501.411701 C32293.693,501.411701 32293.9327,516.766733 32293.9327,525.271458 C32293.9327,533.916179 32293.9327,546.895602 32293.9327,546.895602 C32300.7083,555.48573 32311.2102,561 32323,561 Z M32418,582 C32438.4345,582 32455,565.434536 32455,545 C32455,524.565464 32438.4345,508 32418,508 C32397.5655,508 32381,524.565464 32381,545 C32381,565.434536 32397.5655,582 32418,582 Z M32382.7454,603.307238 L32382.9745,711.691946 C32382.9745,711.691946 32409.4031,715.207608 32435.4163,704.482166 C32450.6526,698.200135 32454.7774,679.404804 32454.7774,679.404804 L32454.7774,603.307238 L32382.7454,603.307238 Z" id="MS-Teams"></path>
        </g>
    </g>
</svg>