<?xml version="1.0" encoding="UTF-8"?>
<svg width="8px" height="544px" viewBox="0 0 8 544" version="1.1" xmlns="http://www.w3.org/2000/svg" xmlns:xlink="http://www.w3.org/1999/xlink">
    <!-- Generator: Sketch 45.2 (43514) - http://www.bohemiancoding.com/sketch -->
    <title>Group 29</title>
    <desc>Created with Sketch.</desc>
    <defs>
        <linearGradient x1="50%" y1="31.7528558%" x2="50%" y2="100%" id="linearGradient-1">
            <stop stop-color="#2E97D5" offset="0%"></stop>
            <stop stop-color="#35A1E2" offset="100%"></stop>
        </linearGradient>
    </defs>
    <g id="Phase-II" stroke="none" stroke-width="1" fill="none" fill-rule="evenodd">
        <g id="Website-Review" transform="translate(0.000000, -3352.000000)">
            <path d="M-9.86361156,3613.94151 C118.314485,3613.94151 189.202403,3613.94151 202.800144,3613.94151 C223.196754,3613.94151 234.949619,3580.17627 259.508907,3581.30469 C284.068194,3582.4331 288.136495,3613.94151 325.668705,3613.94151 C363.200915,3613.94151 381.484756,3549 415.991951,3549 C450.499147,3549 462.998941,3641.32945 491.273711,3641.32945 C510.123558,3641.32945 539.032321,3617.64988 578,3570.29073 L578,3673 L-15,3673" id="Path-47-Copy" fill="url(#linearGradient-1)"></path>
            <g id="Group-29" transform="translate(-33.000000, 3549.000000)" stroke="#FFFFFF">
                <path d="M0.900952746,65.3404103 C122.448284,65.3404103 202.962952,65.3404103 242.444959,65.3404103 C301.667969,65.3404103 313.13367,30.9017254 354.899762,30.9017254 C396.665854,30.9017254 424.317885,87.2953623 460.235722,87.2953623 C496.153558,87.2953623 506.476645,30.9017254 579.923123,30.9017254" id="Path-31" opacity="0.300000012"></path>
                <path d="M23.0397545,65.1042476 C151.122047,65.1042476 221.956983,65.1042476 235.54456,65.1042476 C255.925926,65.1042476 267.670006,31.3660683 292.210938,32.493581 C316.751869,33.6210938 320.817129,65.1042476 358.321286,65.1042476 C395.825444,65.1042476 414.095619,0.21478461 448.577023,0.21478461 C483.058427,0.21478461 495.548879,92.4702356 523.802516,92.4702356 C542.638273,92.4702356 571.525429,68.809642 610.463983,21.4884546" id="Path-47"></path>
            </g>
        </g>
    </g>
</svg>