<?xml version="1.0" encoding="UTF-8" standalone="no"?>
<svg width="499px" height="500px" viewBox="0 0 499 500" version="1.1" xmlns="http://www.w3.org/2000/svg" xmlns:xlink="http://www.w3.org/1999/xlink">
    <!-- Generator: Sketch 43.1 (39012) - http://www.bohemiancoding.com/sketch -->
    <title>slack_color</title>
    <desc>Created with Sketch.</desc>
    <defs></defs>
    <g id="Page-1" stroke="none" stroke-width="1" fill="none" fill-rule="evenodd">
        <g id="Logos-Couleur" transform="translate(-2000.000000, -500.000000)">
            <g id="slack_color" transform="translate(2000.000000, 500.000000)">
                <g id="Group" transform="translate(-0.000000, 0.000000)">
                    <path d="M323.520289,31.4886882 C315.936985,8.14944545 290.872356,-4.62230701 267.534362,2.96385017 C244.19841,10.545928 231.42625,35.610983 239.007919,58.946085 L353.896458,412.416941 C361.783199,434.218052 385.333434,446.470837 407.942656,439.964329 C431.523593,433.174811 445.898439,408.131042 438.373626,384.968899 C438.087458,384.090457 323.520289,31.4886882 323.520289,31.4886882" id="path22-7" fill="#E7A213"></path>
                    <path d="M145.505444,89.3275813 C137.92214,65.9924486 112.857523,53.2206961 89.5195288,60.802774 C66.1835811,68.3848518 53.4114176,93.4506736 60.9930875,116.788689 L175.881601,470.259054 C183.768354,492.061638 207.318598,504.312767 229.926194,497.803007 C253.50711,491.018458 267.884429,465.972972 260.358379,442.811074 C260.072517,441.930608 145.505444,89.3275813 145.505444,89.3275813" id="path24-8" fill="#4DC088"></path>
                    <path d="M468.125307,324.232529 C491.464519,316.649225 504.232192,291.584599 496.650114,268.246614 C489.068036,244.910653 464.003012,232.138502 440.667879,239.720181 L87.1970573,354.608689 C65.3942904,362.495461 53.1431433,386.045695 59.6496611,408.653292 C66.4375439,432.233799 91.4812994,446.609903 114.645078,439.083832 C115.523519,438.797971 468.125307,324.232529 468.125307,324.232529" id="path26-3" fill="#E10D63"></path>
                    <path d="M160.866716,424.06773 C183.8755,416.591163 213.529847,406.956924 245.348401,396.618062 C237.873877,373.610934 228.236379,343.951667 217.895473,312.128196 L133.409288,339.58728 L160.866716,424.06773" id="path28-4" fill="#3F2543"></path>
                    <path d="M338.883199,366.225555 C370.823631,355.84826 400.508232,346.202581 423.364884,338.775887 C415.889115,315.765477 406.249571,286.100076 395.905801,254.270072 L311.419207,281.729554 L338.883199,366.225555" id="path30-9" fill="#D01E25"></path>
                    <path d="M410.286414,146.217703 C433.621546,138.634398 446.393299,113.569772 438.811221,90.2313577 C431.229143,66.8921456 406.163291,54.1244724 382.825305,61.7065503 L29.3549256,176.593862 C7.55395789,184.480603 -4.69878724,208.032494 1.80937761,230.638434 C8.59712728,254.218942 33.6410086,268.596671 56.8029068,261.070631 C57.6833909,260.78477 410.286414,146.217703 410.286414,146.217703" id="path32-2" fill="#7CD3DC"></path>
                    <path d="M103.010637,246.057381 C126.019013,238.579587 155.68154,228.943723 187.508272,218.601579 C177.129331,186.65953 167.483652,156.973273 160.055344,134.111713 L75.5528016,161.57733 L103.010637,246.057381" id="path34-0" fill="#36987B"></path>
                    <path d="M281.02547,188.215605 C312.97203,177.836685 342.662766,168.18935 365.523108,160.76106 C355.142532,128.811221 345.493602,99.1172032 338.065273,76.2531899 L253.561092,103.720831 L281.02547,188.215605" id="path36-4" fill="#5A872D"></path>
                </g>
                <rect id="500x500" x="-4.54747351e-13" y="0" width="500" height="500"></rect>
            </g>
        </g>
    </g>
</svg>