<?xml version="1.0" encoding="UTF-8" standalone="no"?>
<svg width="500px" height="500px" viewBox="0 0 500 500" version="1.1" xmlns="http://www.w3.org/2000/svg" xmlns:xlink="http://www.w3.org/1999/xlink">
    <!-- Generator: Sketch 43.1 (39012) - http://www.bohemiancoding.com/sketch -->
    <title>viber-color</title>
    <desc>Created with Sketch.</desc>
    <defs></defs>
    <g id="Page-1" stroke="none" stroke-width="1" fill="none" fill-rule="evenodd">
        <g id="Logos-Couleur" transform="translate(-15754.000000, -498.000000)">
            <g id="viber-color" transform="translate(15754.000000, 498.000000)">
                <path d="M0,63.9922418 C0,28.6503026 28.6552552,0 63.9922418,0 L436.007758,0 C471.349697,0 500,28.6552552 500,63.9922418 L500,436.007758 C500,471.349697 471.344745,500 436.007758,500 L63.9922418,500 C28.6503026,500 0,471.344745 0,436.007758 L0,63.9922418 Z M412.026367,337.360352 C400.114258,327.770508 387.384766,319.163086 374.854492,310.370117 C349.864258,292.818359 327.006836,291.454102 308.359375,319.692383 C297.887695,335.545898 283.228516,336.240234 267.900391,329.285156 C225.644531,310.125 193.014648,280.603516 173.901367,237.654297 C165.446289,218.652344 165.557617,201.616211 185.339844,188.176758 C195.813477,181.069336 206.365234,172.65918 205.521484,157.128906 C204.419922,136.878906 155.25293,69.2060547 135.836914,62.0634766 C127.802734,59.1074219 119.801758,59.2998047 111.62793,62.046875 C66.1005859,77.3574219 47.2431641,114.799805 65.3027344,159.133789 C119.179688,291.401367 213.994141,383.481445 344.511719,439.682617 C351.953125,442.882812 360.219727,444.162109 364.405273,445.310547 C394.120117,445.609375 428.929688,416.980469 438.982422,388.568359 C448.661133,361.234375 428.206055,350.384766 412.026367,337.360352 Z M265.683594,75.6240234 C361.100586,90.296875 405.105469,135.667969 417.255859,231.771484 C418.382813,240.648437 415.076172,254.005859 427.741211,254.251953 C440.977539,254.504883 437.788086,241.344727 437.899414,232.458984 C439.018555,141.947266 360.097656,58.0390625 268.442383,54.9453125 C261.527344,55.9404297 247.21875,50.1767578 246.326172,65.6757812 C245.731445,76.125 257.77832,74.4082031 265.683594,75.6240234 L265.683594,75.6240234 Z M284.347656,101.974609 C275.169922,100.869141 263.053711,96.5449219 260.90918,109.279297 C258.669922,122.645508 272.173828,121.288086 280.850586,123.230469 C339.782227,136.401367 360.301758,157.850586 370.004883,216.307617 C371.421875,224.830078 368.606445,238.094727 383.089844,235.896484 C393.823242,234.261719 389.946289,222.891602 390.84375,216.25 C391.319336,160.126953 343.228516,109.044922 284.347656,101.974609 L284.347656,101.974609 Z M289.758789,147.867188 C283.632812,148.018555 277.620117,148.681641 275.368164,155.228516 C271.986328,165.013672 279.100586,167.34668 286.341797,168.509766 C310.516602,172.390625 323.239258,186.645508 325.654297,210.75293 C326.306641,217.295898 330.458984,222.597656 336.779297,221.851563 C345.538086,220.806641 346.330078,213.010742 346.061523,205.607422 C346.494141,178.523438 315.881836,147.21875 289.758789,147.867188 L289.758789,147.867188 Z" id="Combined-Shape" fill="#7B519D"></path>
                <rect id="500x500" x="0" y="0" width="500" height="500"></rect>
            </g>
        </g>
    </g>
</svg>