<?xml version="1.0" encoding="UTF-8"?>
<svg width="400px" height="289px" viewBox="0 0 400 289" version="1.1" xmlns="http://www.w3.org/2000/svg" xmlns:xlink="http://www.w3.org/1999/xlink">
    <!-- Generator: Sketch 45.2 (43514) - http://www.bohemiancoding.com/sketch -->
    <title>waiting_hero</title>
    <desc>Created with Sketch.</desc>
    <defs>
        <rect id="path-1" x="0" y="0" width="400" height="400"></rect>
        <rect id="path-3" x="0" y="0" width="400" height="303.70257"></rect>
        <ellipse id="path-5" cx="191.24847" cy="190.892328" rx="88.7392901" ry="88.57404"></ellipse>
        <filter x="-7.6%" y="-7.6%" width="115.2%" height="115.2%" filterUnits="objectBoundingBox" id="filter-6">
            <feGaussianBlur stdDeviation="13" in="SourceAlpha" result="shadowBlurInner1"></feGaussianBlur>
            <feOffset dx="0" dy="1" in="shadowBlurInner1" result="shadowOffsetInner1"></feOffset>
            <feComposite in="shadowOffsetInner1" in2="SourceAlpha" operator="arithmetic" k2="-1" k3="1" result="shadowInnerInner1"></feComposite>
            <feColorMatrix values="0 0 0 0 0.22745098   0 0 0 0 0.639215686   0 0 0 0 0.890196078  0 0 0 0.10510077 0" type="matrix" in="shadowInnerInner1"></feColorMatrix>
        </filter>
        <mask id="mask-7" maskContentUnits="userSpaceOnUse" maskUnits="objectBoundingBox" x="0" y="0" width="177.47858" height="177.14808" fill="white">
            <use xlink:href="#path-5"></use>
        </mask>
        <ellipse id="path-8" cx="191.24847" cy="190.892328" rx="130.813953" ry="130.570352"></ellipse>
        <filter x="-5.2%" y="-5.2%" width="110.3%" height="110.3%" filterUnits="objectBoundingBox" id="filter-9">
            <feGaussianBlur stdDeviation="13" in="SourceAlpha" result="shadowBlurInner1"></feGaussianBlur>
            <feOffset dx="0" dy="1" in="shadowBlurInner1" result="shadowOffsetInner1"></feOffset>
            <feComposite in="shadowOffsetInner1" in2="SourceAlpha" operator="arithmetic" k2="-1" k3="1" result="shadowInnerInner1"></feComposite>
            <feColorMatrix values="0 0 0 0 0.22745098   0 0 0 0 0.639215686   0 0 0 0 0.890196078  0 0 0 0.10510077 0" type="matrix" in="shadowInnerInner1"></feColorMatrix>
        </filter>
        <mask id="mask-10" maskContentUnits="userSpaceOnUse" maskUnits="objectBoundingBox" x="0" y="0" width="261.627907" height="261.140704" fill="white">
            <use xlink:href="#path-8"></use>
        </mask>
        <ellipse id="path-11" cx="190.865973" cy="190.510543" rx="165.621175" ry="165.312756"></ellipse>
        <filter x="-4.1%" y="-4.1%" width="108.2%" height="108.2%" filterUnits="objectBoundingBox" id="filter-12">
            <feGaussianBlur stdDeviation="13" in="SourceAlpha" result="shadowBlurInner1"></feGaussianBlur>
            <feOffset dx="0" dy="1" in="shadowBlurInner1" result="shadowOffsetInner1"></feOffset>
            <feComposite in="shadowOffsetInner1" in2="SourceAlpha" operator="arithmetic" k2="-1" k3="1" result="shadowInnerInner1"></feComposite>
            <feColorMatrix values="0 0 0 0 0.22745098   0 0 0 0 0.639215686   0 0 0 0 0.890196078  0 0 0 0.10510077 0" type="matrix" in="shadowInnerInner1"></feColorMatrix>
        </filter>
        <mask id="mask-13" maskContentUnits="userSpaceOnUse" maskUnits="objectBoundingBox" x="0" y="0" width="331.24235" height="330.625511" fill="white">
            <use xlink:href="#path-11"></use>
        </mask>
        <linearGradient x1="0%" y1="29.2864197%" x2="100%" y2="67.7630354%" id="linearGradient-14">
            <stop stop-color="#36987B" offset="0%"></stop>
            <stop stop-color="#D01E25" offset="100%"></stop>
        </linearGradient>
        <linearGradient x1="100%" y1="0%" x2="0%" y2="100%" id="linearGradient-15">
            <stop stop-color="#1E96C8" offset="0%"></stop>
            <stop stop-color="#37AEE2" offset="100%"></stop>
        </linearGradient>
        <linearGradient x1="61.2346759%" y1="43.69%" x2="74.7064382%" y2="80.24%" id="linearGradient-16">
            <stop stop-color="#EFF7FC" offset="0%"></stop>
            <stop stop-color="#FFFFFF" offset="100%"></stop>
        </linearGradient>
        <linearGradient x1="10.7979633%" y1="17.5334216%" x2="92.2556459%" y2="81.0413877%" id="linearGradient-17">
            <stop stop-color="#2196F3" offset="0%"></stop>
            <stop stop-color="#FFEB3B" offset="100%"></stop>
        </linearGradient>
        <path d="M4.74747518,0 C4.74747518,0 13.3181279,17.1532112 25.7738973,17.1532112 C38.2296666,17.1532112 48.1211223,0 48.1211223,0 C48.1211223,0 57.803306,2.32785315 57.803306,9.8701467 C57.803306,17.4124403 39.1824993,35.254674 22.766422,32.0333579 C6.35034476,28.8120418 2.20696618,10.1223635 0,0.705288792 L4.74747518,0 Z" id="path-18"></path>
        <circle id="path-20" cx="16.0648715" cy="16.0648715" r="16.0648715"></circle>
    </defs>
    <g id="pages_for_valérie" stroke="none" stroke-width="1" fill="none" fill-rule="evenodd">
        <g id="700-card---extra" transform="translate(-790.000000, -213.000000)">
            <g id="waiting_hero" transform="translate(790.000000, 150.000000)">
                <mask id="mask-2" fill="white">
                    <use xlink:href="#path-1"></use>
                </mask>
                <g id="Rectangle-30"></g>
                <g id="Group" mask="url(#mask-2)">
                    <g transform="translate(0.000000, 48.000000)">
                        <mask id="mask-4" fill="white">
                            <use xlink:href="#path-3"></use>
                        </mask>
                        <g id="Rectangle" stroke="none" fill="none"></g>
                        <g id="Waves" stroke="none" stroke-width="1" fill="none" fill-rule="evenodd" mask="url(#mask-4)" stroke-dasharray="4.800000000000001,7.2">
                            <g transform="translate(9.088127, 0.000000)">
                                <g id="Oval-33">
                                    <use fill="black" fill-opacity="1" filter="url(#filter-6)" xlink:href="#path-5"></use>
                                    <use stroke-opacity="0.370782382" stroke="#3AA3E3" mask="url(#mask-7)" stroke-width="1.6" xlink:href="#path-5"></use>
                                </g>
                                <g id="Oval-33-Copy" opacity="0.699999988">
                                    <use fill="black" fill-opacity="1" filter="url(#filter-9)" xlink:href="#path-8"></use>
                                    <use stroke-opacity="0.370782382" stroke="#3AA3E3" mask="url(#mask-10)" stroke-width="1.6" xlink:href="#path-8"></use>
                                </g>
                                <g id="Oval-33-Copy-2" opacity="0.699999988">
                                    <use fill="black" fill-opacity="1" filter="url(#filter-12)" xlink:href="#path-11"></use>
                                    <use stroke-opacity="0.370782382" stroke="#3AA3E3" mask="url(#mask-13)" stroke-width="1.6" xlink:href="#path-11"></use>
                                </g>
                            </g>
                        </g>
                        <g id="Integrations" stroke="none" stroke-width="1" fill="none" fill-rule="evenodd" mask="url(#mask-4)">
                            <g transform="translate(21.328029, 15.299878)">
                                <g id="line-messenger" transform="translate(41.309670, 45.814159)">
                                    <ellipse id="Oval-34-Copy-8" fill="#00B900" cx="15.2998776" cy="15.2713862" rx="15.2998776" ry="15.2713862"></ellipse>
                                    <path d="M6.88607694,18.65481 L9.84882612,18.65481 C10.270259,18.65481 10.614952,18.310653 10.614952,17.890005 L10.614952,17.8262095 C10.614952,17.4055614 10.270259,17.0615103 9.84882612,17.0615103 L7.71611732,17.0615103 L7.71611732,12.2182389 C7.71611732,11.7975908 7.37142427,11.4535397 6.94999143,11.4535397 L6.88607694,11.4535397 C6.4646441,11.4535397 6.11995104,11.7975908 6.11995104,12.2182389 L6.11995104,17.8898992 C6.11995104,18.310653 6.4646441,18.65481 6.88607694,18.65481 L6.88607694,18.65481 Z M25.244798,15.0997203 L25.244798,15.0359249 C25.244798,14.6152768 24.899999,14.2712256 24.4785661,14.2712256 L22.3459633,14.2712256 L22.3459633,13.0603813 L24.4785661,13.0603813 C24.899999,13.0603813 25.244798,12.7163302 25.244798,12.2956821 L25.244798,12.2318867 C25.244798,11.8112386 24.899999,11.4671874 24.4785661,11.4671874 L21.515817,11.4671874 C21.0943841,11.4671874 20.7496911,11.8112386 20.7496911,12.2318867 L20.7496911,17.9035469 C20.7496911,18.324195 21.0943841,18.668352 21.515817,18.668352 L24.4785661,18.668352 C24.899999,18.668352 25.244798,18.324195 25.244798,17.9035469 L25.244798,17.8397515 C25.244798,17.4191034 24.899999,17.0750523 24.4785661,17.0750523 L22.3459633,17.0750523 L22.3459633,15.864208 L24.4785661,15.864208 C24.899999,15.8644196 25.244798,15.5202626 25.244798,15.0997203 L25.244798,15.0997203 Z M19.5470812,18.4268179 L19.5472931,18.4265005 C19.6890644,18.2838265 19.768677,18.0910589 19.768821,17.8901107 L19.768821,12.2184505 C19.768821,11.7978024 19.4241279,11.4537513 19.0025891,11.4537513 L18.9386746,11.4537513 C18.5172418,11.4537513 18.1725487,11.7978024 18.1725487,12.2184505 L18.1725487,15.5477698 L15.4033449,11.8404385 C15.2710641,11.6099073 15.0219778,11.4537513 14.7381254,11.4537513 L14.6742109,11.4537513 C14.2527781,11.4537513 13.9079791,11.7978024 13.9079791,12.2184505 L13.9079791,17.8901107 C13.9079791,18.3107588 14.2526721,18.6549158 14.6742109,18.6549158 L14.7381254,18.6549158 C15.1595583,18.6549158 15.5042513,18.3107588 15.5042513,17.8901107 L15.5042513,14.4984772 L18.2933821,18.3009197 C18.3105531,18.3275805 18.3293141,18.3531833 18.349559,18.3775166 L18.349665,18.3777282 C18.4262987,18.4820438 18.531127,18.5535624 18.6479326,18.5972565 C18.7377096,18.6342854 18.8358602,18.65481 18.9385686,18.65481 L19.0024831,18.65481 C19.1273384,18.6548796 19.2502835,18.6242096 19.3604254,18.5655175 C19.4370592,18.5291234 19.5016097,18.4821496 19.5470812,18.4268179 L19.5470812,18.4268179 Z M11.9994479,18.65481 L12.0633624,18.65481 C12.4847953,18.65481 12.8294883,18.310653 12.8294883,17.890005 L12.8294883,12.2183447 C12.8294883,11.7976966 12.4847953,11.4536455 12.0633624,11.4536455 L11.9994479,11.4536455 C11.5780151,11.4536455 11.233216,11.7976966 11.233216,12.2183447 L11.233216,17.890005 C11.233216,18.310653 11.5780151,18.65481 11.9994479,18.65481 Z" id="Shape" fill="#FFFFFF"></path>
                                </g>
                                <g id="kik" transform="translate(284.577723, 45.814159)">
                                    <ellipse id="Oval-3" fill="#82BC23" cx="15.2998776" cy="15.2713862" rx="15.2998776" ry="15.2713862"></ellipse>
                                    <g id="Group-6" transform="translate(6.119951, 9.926401)">
                                        <path d="M18.0217531,4.67236242 C18.6297867,4.67236242 19.1225247,5.16206942 19.1225247,5.76624363 C19.1225247,6.37034968 18.6297867,6.86005667 18.0217531,6.86005667 C17.4137196,6.86005667 16.9210499,6.37034968 16.9210499,5.76624363 C16.9209816,5.16220577 17.4136513,4.67236242 18.0217531,4.67236242 Z" id="Shape" fill="#3DB4E7"></path>
                                        <path d="M14.6760393,9.04276323 L13.0373399,6.856307 L12.5351078,7.32126617 L12.5350395,8.61503892 L12.5222197,8.61453956 C12.4934968,9.13290569 12.0691196,9.54441185 11.5496317,9.54441185 C11.0113356,9.54441185 10.5753574,9.10290517 10.5753574,8.55845298 C10.5753574,8.55185735 10.5754213,8.54527684 10.5755487,8.53871207 L10.5537736,8.53786388 L10.5539102,1.03279567 L10.5539102,1.03279567 L10.5763452,1.03303335 C10.5759609,1.02154881 10.5757672,1.01001499 10.5757672,0.998435049 C10.5757672,0.44777886 11.0137262,0.00149986829 11.5538665,0.00149986829 C12.0940068,0.00149986829 12.5319658,0.44777886 12.5319658,0.998435049 C12.5319658,1.01699134 12.5314685,1.03542923 12.5304867,1.05373562 L12.5424162,1.053862 L12.5522518,4.70979095 L14.3931549,2.91294874 L14.3936652,2.91342364 C14.5757226,2.71198352 14.8388236,2.58543205 15.131374,2.58543205 L15.131374,2.58543205 C15.6808719,2.58543205 16.1262759,3.03150651 16.1262759,3.58189 C16.1262759,3.84869253 16.0215845,4.09104152 15.851096,4.26993656 L15.8612602,4.27939693 L14.5661665,5.55244423 L16.3763333,7.98816215 L16.3627514,7.99799961 C16.463665,8.15493769 16.5222968,8.34229964 16.5222968,8.54352247 C16.5222968,9.09622394 16.0796932,9.5445482 15.5334739,9.5445482 C15.1668817,9.5445482 14.8468693,9.34266853 14.6760393,9.04276323 Z M4.12417797,9.04240302 L2.48568369,6.856307 L1.98345154,7.32126617 L1.98338324,8.61503892 L1.97056345,8.61453954 C1.9418405,9.13290568 1.51746105,9.54441185 0.997907195,9.54441185 C0.459815964,9.54441185 0.0237011497,9.10290517 0.0237011497,8.55845298 C0.0237011497,8.55185647 0.0237651368,8.54527509 0.0238925173,8.53870944 L0.0021856968,8.53786388 L0.00232230285,1.03279567 L0.00232230285,1.03279567 L0.0246207658,1.0330319 C0.0242364067,1.02154784 0.0240426648,1.0100145 0.0240426648,0.998435049 C0.0240426648,0.44777886 0.462069964,0.00149986829 1.00221029,0.00149986829 C1.54241891,0.00149986829 1.9803096,0.44777886 1.9803096,0.998435049 C1.9803096,1.0169911 1.97981223,1.03542874 1.97883033,1.05373489 L1.99082827,1.053862 L2.00073221,4.70979095 L3.84149873,2.91294874 L3.84200362,2.91341862 C4.02406632,2.71198142 4.28720175,2.58543205 4.57978613,2.58543205 L4.57978613,2.58543205 C5.12928397,2.58543205 5.57468799,3.03150651 5.57468799,3.58189 C5.57468799,3.84867601 5.4700096,4.09101151 5.29953974,4.26990334 L5.30974056,4.27939693 L4.01451029,5.55244423 L5.82467706,7.98816215 L5.81112798,7.9979763 C5.91206219,8.15491914 5.97070893,8.34228968 5.97070893,8.54352247 C5.97070893,9.09622394 5.52803703,9.5445482 4.98181773,9.5445482 C4.61507874,9.5445482 4.29495692,9.34250686 4.12417797,9.04240302 Z M9.14793809,3.6136868 L9.15977717,3.61372811 L9.15998208,8.55961197 L9.15998208,8.55961197 L9.14828767,8.55961157 C9.14137464,9.10512217 8.70295885,9.54522996 8.16316773,9.54522996 C7.6233544,9.54522996 7.18472305,9.10508595 7.17784207,8.55954423 L7.16512393,8.55954379 L7.16724132,3.60677418 L7.17801648,3.60681178 C7.17784579,3.59916174 7.17775999,3.59149048 7.17775999,3.58379892 C7.17775999,3.03205192 7.61899753,2.58488664 8.16316773,2.58488664 C8.70733793,2.58488664 9.14837056,3.03205192 9.14837056,3.58379892 C9.14837056,3.59379659 9.14822573,3.60375989 9.14793809,3.6136868 Z" id="Combined-Shape" fill="#FFFFFF"></path>
                                    </g>
                                </g>
                                <g id="twillio" transform="translate(48.194614, 96.209733)">
                                    <ellipse id="Oval-34-Copy-5" fill="#EE3248" cx="16.8298654" cy="16.7985248" rx="16.8298654" ry="16.7985248"></ellipse>
                                    <g id="Group-4" transform="translate(7.649939, 7.635693)" fill="#FFFFFF">
                                        <path d="M9.5624235,0 C4.28396573,0 0,4.27598814 0,9.54461638 C0,14.8132446 4.28396573,19.0892328 9.5624235,19.0892328 C14.8408813,19.0892328 19.124847,14.8132446 19.124847,9.54461638 C19.124847,4.27598814 14.8408813,0 9.5624235,0 Z M9.5624235,16.569454 C5.67051714,16.569454 2.5244798,13.4197306 2.5244798,9.54461638 C2.5244798,5.65995751 5.68007956,2.51977872 9.5624235,2.51977872 C13.4543299,2.51977872 16.6003672,5.66950213 16.6003672,9.54461638 C16.6003672,13.4292752 13.4543299,16.569454 9.5624235,16.569454 Z" id="XMLID_181_"></path>
                                        <ellipse id="XMLID_180_" cx="11.943467" cy="7.1680069" rx="1.98898409" ry="1.98528021"></ellipse>
                                        <ellipse id="XMLID_179_" cx="11.943467" cy="11.9212259" rx="1.98898409" ry="1.98528021"></ellipse>
                                        <ellipse id="XMLID_178_" cx="7.18138005" cy="11.9212259" rx="1.98898409" ry="1.98528021"></ellipse>
                                        <ellipse id="XMLID_177_" cx="7.18138005" cy="7.1680069" rx="1.98898409" ry="1.98528021"></ellipse>
                                    </g>
                                </g>
                                <g id="Skype" transform="translate(121.634027, 0.000000)">
                                    <ellipse id="Oval-3" fill="#00AFF0" cx="15.2998776" cy="15.2713862" rx="15.2998776" ry="15.2713862"></ellipse>
                                    <path d="M8.97404167,7.76279283 C10.4893824,6.67136875 12.6323261,6.57762681 14.2460559,7.51132635 C16.0655083,7.19662124 17.9893127,7.49570269 19.6127323,8.37881133 C21.424731,9.35045404 22.8476456,11.0192095 23.510281,12.9639828 C23.9657032,14.28009 24.071546,15.7107707 23.8345177,17.0819326 C24.4173984,18.1049102 24.6193942,19.3362032 24.3831113,20.4901219 C24.1334118,21.763078 23.3470446,22.9169967 22.2595473,23.6260132 C20.7538964,24.636343 18.6854899,24.6936298 17.1172278,23.7874576 C15.3708218,24.0872831 13.5290083,23.8276328 11.9488202,23.0226424 C10.1122243,22.1015906 8.64756886,20.4722663 7.93126663,18.5490684 C7.41248791,17.1749306 7.28204786,15.6631557 7.5287659,14.2168514 C6.93321389,13.1760182 6.74016262,11.9179418 6.99433437,10.7469114 C7.24627002,9.55058565 7.9715167,8.46362548 8.97404167,7.76279283 Z M9.79395057,8.72922765 C8.78024503,9.38690924 8.13326237,10.5705873 8.14444295,11.7788168 C8.12953551,12.5711595 8.42842957,13.3285349 8.85105534,13.9862164 C8.57750392,15.240573 8.59762895,16.5663519 9.0023658,17.7902051 C9.63369565,19.7811054 11.2086661,21.4416771 13.1637761,22.1849168 C14.4883017,22.7049614 15.962647,22.7719199 17.3475476,22.4691185 C17.7515391,22.7034734 18.1622389,22.9408042 18.6206425,23.0516578 C19.7700057,23.3648749 21.0594988,23.0657935 21.9524541,22.2801467 C22.8670252,21.5004518 23.3530076,20.2520471 23.1905166,19.0609292 C23.1241785,18.4285431 22.8416826,17.8482358 22.5137191,17.3118236 C22.7917427,16.0373795 22.7634186,14.6877931 22.3415382,13.4483162 C21.6766666,11.4150088 20.0234321,9.73881353 17.9982571,9.04021284 C16.7259076,8.5856388 15.3305717,8.54397571 14.015736,8.83040944 C13.678828,8.63771766 13.3434107,8.43312214 12.9707249,8.31482874 C11.9219868,7.95846055 10.7144847,8.11246517 9.79395057,8.72922765 Z M14.5948898,10.6479616 C15.7867392,10.4679176 17.0426906,10.6501936 18.106336,11.2260369 C18.571448,11.4834553 19.0216525,11.8316397 19.2378103,12.3315967 C19.3786856,12.6604375 19.3943384,13.0897161 19.1342037,13.3649901 C18.8524531,13.6529118 18.3925588,13.7414458 18.0146553,13.6201765 C17.5771221,13.4371565 17.3594736,12.9796065 16.9882785,12.7073085 C16.5216758,12.3234129 15.8933274,12.2199992 15.3052291,12.2304149 C14.8751496,12.2490145 14.4145099,12.3464764 14.1007084,12.6619255 C13.8107588,12.9706787 13.7034253,13.4996511 13.9859212,13.8470915 C14.2527642,14.1543568 14.6649548,14.2689302 15.0428583,14.373832 C15.7636327,14.553876 16.4926063,14.6989528 17.2163622,14.8693251 C17.9691876,15.0411853 18.7294668,15.3700261 19.2266297,15.9823247 C20.0838072,17.0908604 19.890756,18.8488939 18.8248744,19.756554 C17.9721691,20.5102095 16.7862827,20.7185249 15.6816418,20.7252208 C14.5024638,20.7081091 13.2420402,20.4670584 12.3356682,19.6620681 C11.8809914,19.252877 11.4986157,18.6353706 11.6357641,18.0037284 C11.7855838,17.3758062 12.6494696,17.1377314 13.1391789,17.5238589 C13.5133555,17.8236843 13.7160966,18.2797464 14.0768565,18.5929635 C14.5084267,18.9880188 15.1099417,19.1449994 15.6853687,19.1308637 C16.2496151,19.1457434 16.8488939,18.9731392 17.2357419,18.5446045 C17.4988581,18.2551949 17.6382426,17.8147565 17.4675525,17.4442527 C17.3274226,17.0960683 16.967408,16.9063524 16.6230463,16.8126105 C15.9879896,16.6467021 15.3484607,16.4956734 14.713404,16.3282771 C14.015736,16.1579049 13.2904893,16.0024123 12.6904651,15.5872694 C12.2223717,15.2770282 11.8675747,14.7926948 11.7535328,14.2406589 C11.5619723,13.3746618 11.6991207,12.3754917 12.3297052,11.7140902 C12.9066229,11.0735203 13.7623096,10.7759268 14.5948898,10.6479616 Z" id="Combined-Shape" fill="#FFFFFF"></path>
                                </g>
                                <g id="discord_color" transform="translate(164.473684, 30.542772)">
                                    <rect id="500x500" x="0" y="0" width="30.5997552" height="30.5427724"></rect>
                                    <ellipse id="Oval" fill="#7289DA" cx="15.2998776" cy="15.2713862" rx="15.2998776" ry="15.2713862"></ellipse>
                                    <path d="M18.0769102,19.8502958 C19.7929067,19.3665276 20.4478673,18.2943926 20.4478673,18.2943926 C19.9107997,18.6474126 19.3999305,18.8958342 18.9414581,19.0658067 C18.2864976,19.3403779 17.6577355,19.5234253 17.0420726,19.6280239 C15.7845484,19.8633706 14.6318179,19.7979965 13.6493771,19.6149491 C12.9027222,19.4711261 12.2608608,19.261929 11.7237932,19.0527319 C11.4225114,18.9350586 11.0950311,18.7912356 10.7675509,18.6081882 C10.7282532,18.5820386 10.6889556,18.5689637 10.649658,18.5428141 C10.6234595,18.5297393 10.6103603,18.5166644 10.5972611,18.5035896 C10.3614753,18.3728414 10.2304832,18.2813177 10.2304832,18.2813177 C10.2304832,18.2813177 10.8592453,19.3273031 12.522845,19.8241462 C12.1298687,20.3209892 11.6451979,20.909356 11.6451979,20.909356 C8.75027247,20.8178323 7.6499388,18.9219837 7.6499388,18.9219837 C7.6499388,14.7118927 9.53622509,11.2993655 9.53622509,11.2993655 C11.4225114,9.88728523 13.2171032,9.92650969 13.2171032,9.92650969 L13.3480953,10.0834075 C10.9902374,10.763298 9.90300298,11.7962085 9.90300298,11.7962085 C9.90300298,11.7962085 10.1911856,11.6393107 10.6758564,11.4170388 C12.0774719,10.8025224 13.1909047,10.6325498 13.6493771,10.5933254 C13.7279724,10.5802505 13.7934684,10.5671757 13.8720637,10.5671757 C14.6711155,10.4625772 15.574961,10.4364275 16.5181042,10.5410261 C17.7625292,10.6848491 19.0986486,11.0509439 20.4609665,11.7962085 C20.4609665,11.7962085 19.4261288,10.8155972 17.1992631,10.1357068 L17.3826521,9.92650969 C17.3826521,9.92650969 19.1772439,9.88728523 21.0635302,11.2993655 C21.0635302,11.2993655 22.9498164,14.7118927 22.9498164,18.9219837 C22.9498164,18.9219837 21.8363836,20.8178323 18.9414581,20.909356 C18.9414581,20.909356 18.4698865,20.3471388 18.0769102,19.8502958 Z M11.5142058,16.2547211 C11.5142058,17.0522849 12.1167695,17.7060258 12.8503253,17.7060258 C13.5969802,17.7060258 14.1864448,17.0522849 14.1864448,16.2547211 C14.1995439,15.4571573 13.5969802,14.8034164 12.8503253,14.8034164 C12.1036703,14.8034164 11.5142058,15.4571573 11.5142058,16.2547211 Z M16.2954176,16.2547211 C16.2954176,17.0522849 16.8979812,17.7060258 17.631537,17.7060258 C18.378192,17.7060258 18.9676565,17.0522849 18.9676565,16.2547211 C18.9676565,15.4571573 18.378192,14.8034164 17.631537,14.8034164 C16.8848821,14.8034164 16.2954176,15.4571573 16.2954176,16.2547211 Z" id="Discord-color" fill="#FFFFFF"></path>
                                </g>
                                <g id="twitter_color" transform="translate(207.313341, 0.000000)">
                                    <ellipse id="Oval-3" fill="#1DA1F2" cx="15.2998776" cy="15.2713862" rx="15.2998776" ry="15.2713862"></ellipse>
                                    <path d="M21.3928734,12.659403 C21.3928734,12.523791 21.3901061,12.388791 21.3840118,12.2544013 C21.9969305,11.8121379 22.5296777,11.2602245 22.9498164,10.6319531 C22.3873874,10.8814901 21.7821187,11.0494774 21.1471672,11.1252244 C21.7952766,10.7373267 22.2928331,10.1237169 22.5275358,9.39220995 C21.9210426,9.75109104 21.2493714,10.0119293 20.5342481,10.1527325 C19.9614151,9.54370361 19.1459236,9.16283173 18.2429163,9.16283173 C16.509423,9.16283173 15.1036562,10.5659808 15.1036562,12.2956345 C15.1036562,12.5415058 15.131196,12.7806588 15.1850526,13.0100365 C12.5760923,12.879007 10.2627271,11.632239 8.71467093,9.73643051 C8.44508406,10.1994635 8.28963631,10.7373267 8.28963631,11.3112309 C8.28963631,12.3982592 8.8438029,13.3579227 9.6865282,13.9193044 C9.1715298,13.9034221 8.68774264,13.7623125 8.26484949,13.5274366 C8.26438741,13.5405823 8.26438741,13.5533984 8.26438741,13.5674481 C8.26438741,15.0848276 9.34640583,16.3517544 10.7827724,16.6388589 C10.519,16.7106355 10.2414572,16.7491193 9.955041,16.7491193 C9.7530806,16.7491193 9.55632216,16.7292788 9.36507219,16.6926152 C9.76470851,17.9375507 10.9235323,18.8434578 12.2974754,18.8688094 C11.2231069,19.709354 9.86966667,20.2099555 8.39872236,20.2099555 C8.14565936,20.2099555 7.89565735,20.1955881 7.6499388,20.1665838 C9.03918178,21.055388 10.6888307,21.5740088 12.4617971,21.5740088 C18.23556,21.5740088 21.3928734,16.7995159 21.3928734,12.659403 Z" id="Twitter-color" fill="#FFFFFF"></path>
                                    <rect id="500x500" x="0" y="0" width="30.5997552" height="30.5427724"></rect>
                                </g>
                                <g id="github_color" transform="translate(251.682987, 165.694540)">
                                    <ellipse id="Oval-3" fill="#000000" cx="15.2998776" cy="15.2713862" rx="15.2998776" ry="15.2713862"></ellipse>
                                    <ellipse id="Oval-3" fill="#FFFFFF" cx="14.9173807" cy="15.6531709" rx="11.0924113" ry="11.071755"></ellipse>
                                    <path d="M3.8249694,15.5616038 C3.8249694,20.750052 7.11257163,25.1512575 11.6723851,26.7041153 C12.2465003,26.812253 12.4557178,26.4496311 12.4557178,26.1381945 C12.4557178,25.8599201 12.4458556,25.1209789 12.4402202,24.1412511 C9.24842121,24.8506346 8.57498051,22.5667658 8.57498051,22.5667658 C8.05299353,21.2099978 7.30065601,20.8488178 7.30065601,20.8488178 C6.25879535,20.1206904 7.37955283,20.1351088 7.37955283,20.1351088 C8.53130549,20.2180143 9.13712034,21.3455304 9.13712034,21.3455304 C10.1606657,23.1398958 11.8231343,22.6215556 12.4768508,22.3209327 C12.5811073,21.5625268 12.8776748,21.0449075 13.2052375,20.7514938 C10.657293,20.4551964 7.97832332,19.4473528 7.97832332,14.9473815 C7.97832332,13.665589 8.42564011,12.616653 9.15966229,11.7962481 C9.04131706,11.4992298 8.64753741,10.3046684 9.27237203,8.68836981 C9.27237203,8.68836981 10.2353359,8.37260765 12.4275403,9.89230318 C13.3426025,9.6313308 14.3245861,9.50156552 15.3002298,9.4965191 C16.2751691,9.50156552 17.2564482,9.6313308 18.1729193,9.89230318 C20.3637149,8.37260765 21.3252699,8.68836981 21.3252699,8.68836981 C21.9515134,10.3046684 21.5577337,11.4992298 21.4400929,11.7962481 C22.175524,12.616653 22.6193186,13.665589 22.6193186,14.9473815 C22.6193186,19.4588875 19.9361223,20.4515918 17.380429,20.7421219 C17.7918195,21.1047437 18.1588306,21.8213364 18.1588306,22.917132 C18.1588306,24.4865709 18.1447419,25.7532242 18.1447419,26.1381945 C18.1447419,26.4525148 18.351846,26.8180203 18.9337101,26.7033943 C23.4900013,25.146932 26.7747858,20.7486101 26.7747858,15.5616038 C26.7747858,9.07550288 21.6366305,3.81784655 15.2988209,3.81784655 C8.96312468,3.81784655 3.8249694,9.07550288 3.8249694,15.5616038 Z" fill="#000000"></path>
                                    <rect id="500x500" x="0" y="0" width="30.5997552" height="30.5427724"></rect>
                                </g>
                                <g id="slack_color" transform="translate(207.313341, 81.701916)">
                                    <g id="Group-5" stroke="url(#linearGradient-14)" stroke-width="0.8" fill="#FFFFFF">
                                        <ellipse id="Oval-3" transform="translate(17.977163, 17.943686) rotate(10.000000) translate(-17.977163, -17.943686) " cx="17.9771626" cy="17.9436856" rx="15.312745" ry="15.2842296"></ellipse>
                                    </g>
                                    <g id="Group" transform="translate(8.414933, 8.399262)">
                                        <path d="M12.3745521,1.2021898 C12.084493,0.311133322 11.1257786,-0.176472589 10.2331075,0.113155252 C9.34051446,0.402627349 8.85198323,1.35957269 9.14197978,2.25047108 L13.5364312,15.7454459 C13.8380967,16.5777789 14.7388859,17.0455715 15.6036818,16.797163 C16.5056454,16.5379496 17.0554789,15.5818169 16.767657,14.6975218 C16.7567112,14.6639843 12.3745521,1.2021898 12.3745521,1.2021898" id="path22-7" fill="#E7A213"></path>
                                        <path d="M5.56553872,3.41038998 C5.27547963,2.51949042 4.31676573,2.03188451 3.42409458,2.32135661 C2.53150172,2.61082871 2.04297038,3.56780332 2.33296693,4.45881295 L6.7274174,17.9537691 C7.02908331,18.7861583 7.92987292,19.2538876 8.79460658,19.0053549 C9.69656937,18.7463313 10.2464974,17.790133 9.95862833,16.9058473 C9.94769421,16.8722325 5.56553872,3.41038998 5.56553872,3.41038998" id="path24-8" fill="#4DC088"></path>
                                        <path d="M17.9056497,12.3787004 C18.7983675,12.0891815 19.286727,11.1322526 18.9967149,10.2412441 C18.7067027,9.35031292 17.7479732,8.86269179 16.8554115,9.15214866 L3.33526076,13.5384156 C2.5013116,13.8395204 2.03270897,14.7386323 2.28158128,15.6017556 C2.54121572,16.5020232 3.49913171,17.0508808 4.38513914,16.763547 C4.41873926,16.7526332 17.9056497,12.3787004 17.9056497,12.3787004" id="path26-3" fill="#E10D63"></path>
                                        <path d="M6.15310264,16.1902552 C7.03318161,15.9048113 8.1674513,15.5369909 9.38450128,15.142269 C9.09860302,14.2638922 8.72997164,13.1315469 8.33443518,11.9165756 L5.10286444,12.9649213 L6.15310264,16.1902552" id="path28-4" fill="#3F2543"></path>
                                        <path d="M12.9621786,13.9819297 C14.1838904,13.5857405 15.3193173,13.2174833 16.1935773,12.9339435 C15.9076314,12.0554414 15.5389218,10.9228619 15.1432757,9.70764116 L11.9116894,10.7560021 L12.9621786,13.9819297" id="path30-9" fill="#D01E25"></path>
                                        <path d="M15.6933298,5.58236752 C16.5858915,5.29284858 17.0744071,4.33591964 16.7843949,3.44489478 C16.4943828,2.55383947 15.5356216,2.06638931 14.6429508,2.3558614 L1.12281692,6.74208267 C0.288936578,7.04318635 -0.179727174,7.94236139 0.0692081398,8.80542151 C0.328837488,9.7056891 1.28675828,10.2546088 2.1726938,9.96727609 C2.20637205,9.95636233 15.6933298,5.58236752 15.6933298,5.58236752" id="path32-2" fill="#7CD3DC"></path>
                                        <path d="M3.94012534,9.39409323 C4.8201887,9.10860255 5.95477128,8.74072005 7.17213403,8.34587285 C6.7751427,7.12637444 6.40619844,5.99299867 6.12206794,5.12017941 L2.88987154,6.16877452 L3.94012534,9.39409323" id="path34-0" fill="#36987B"></path>
                                        <path d="M10.7491382,7.18578297 C11.9710844,6.78953174 13.106746,6.42121128 13.981147,6.1376106 C13.5840932,4.91781476 13.2150246,3.78414273 12.9308932,2.91122978 L9.69863419,3.95990217 L10.7491382,7.18578297" id="path36-4" fill="#5A872D"></path>
                                    </g>
                                    <rect id="500x500" x="2.66441762" y="2.65945595" width="30.6254899" height="30.5684592"></rect>
                                </g>
                                <g id="messenger_color" transform="translate(115.514076, 83.229055)">
                                    <ellipse id="Oval-3" fill="#0084FF" cx="15.2998776" cy="15.2713862" rx="15.2998776" ry="15.2713862"></ellipse>
                                    <polygon id="Messenger-color" fill="#FFFFFF" points="16.5077627 19.0851552 13.5063513 15.870325 7.6499388 19.0851552 14.0919925 12.217109 17.1666091 15.4319391 22.9498164 12.217109"></polygon>
                                    <rect id="500x500" x="0" y="0" width="30.5997552" height="30.5427724"></rect>
                                </g>
                                <g id="email_color" transform="translate(282.282742, 100.791149)">
                                    <path d="M0,15.2713862 C0,6.83723251 6.84813063,0 15.2998776,0 C23.7497667,0 30.5997552,6.83537806 30.5997552,15.2713862 C30.5997552,23.7055399 23.7516246,30.5427724 15.2998776,30.5427724 C6.84998854,30.5427724 0,23.7073944 0,15.2713862 L0,15.2713862 Z" id="Shape" fill="#F65756"></path>
                                    <path d="M22.8777624,10.810666 L15.1844703,15.8063495 L7.6951332,10.8974655 C7.84621714,10.3376749 8.35868981,9.92640104 8.96763985,9.92640104 L21.6321154,9.92640104 C22.2086698,9.92640104 22.6991909,10.2960118 22.8777624,10.810666 Z M22.9498164,11.5762001 L22.9498164,18.9852428 C22.9498164,19.7115393 22.3598616,20.2989309 21.6321154,20.2989309 L8.96763985,20.2989309 C8.24033734,20.2989309 7.6499388,19.7107727 7.6499388,18.9852428 L7.6499388,11.725914 L15.1844705,16.7531191 L22.9498164,11.5762001 Z" id="Email-color" fill="#FFFFFF"></path>
                                    <rect id="500x500" x="0" y="0" width="30.5997552" height="30.5427724"></rect>
                                </g>
                                <g id="telegram_color" transform="translate(0.000000, 127.516075)">
                                    <ellipse id="Oval" fill="url(#linearGradient-15)" cx="15.2998776" cy="15.2713862" rx="15.2998776" ry="15.2713862"></ellipse>
                                    <g id="Group-2" transform="translate(7.649939, 9.162832)">
                                        <path d="M5.78182188,12.0036079 C5.32791617,12.0036079 5.40504605,11.832539 5.24849785,11.401155 L3.91370495,7.01638851 L14.188348,0.93231906" id="Shape" fill="#C8DAEA"></path>
                                        <path d="M5.78182188,12.0036079 C6.1320938,12.0036079 6.28685561,11.8437152 6.48236572,11.6539883 L8.35048265,9.84086076 L6.0202403,8.43830328" id="Shape" fill="#A9C9DD"></path>
                                        <path d="M6.02000679,8.4386529 L11.6663902,12.6025064 C12.3107154,12.9573586 12.7757481,12.7736335 12.9362427,12.0054143 L15.2346103,1.19482515 C15.4699229,0.253159587 14.8749861,-0.173935775 14.2585892,0.105387016 L0.762612031,5.29968612 C-0.158614803,5.66849989 -0.153243966,6.1814968 0.594691671,6.41007812 L4.05806369,7.48903932 L12.0761383,2.4399489 C12.4546538,2.21084315 12.8020535,2.33401532 12.5169205,2.58660269" id="Shape" fill="url(#linearGradient-16)"></path>
                                    </g>
                                    <rect id="500x500" x="0" y="0" width="30.5997552" height="30.5427724"></rect>
                                </g>
                                <g id="viber-icon" transform="translate(9.944920, 217.617253)">
                                    <ellipse id="Oval-2" fill="#7B519D" cx="15.2998776" cy="15.2713862" rx="15.2998776" ry="15.2713862"></ellipse>
                                    <path d="M21.4960152,18.6867043 C21.0294456,18.3117919 20.530861,17.9752871 20.0400793,17.6315283 C19.06127,16.9453469 18.165998,16.8920116 17.4356203,17.9959798 C17.025469,18.6157688 16.451303,18.6429136 15.850936,18.3710067 C14.1958723,17.6219455 12.9178357,16.4678109 12.169213,14.7887225 C11.8380473,14.0458462 11.8424077,13.3798231 12.6172315,12.8544112 C13.0274593,12.5765485 13.4407471,12.2477556 13.4076994,11.6406037 C13.3645538,10.8489353 11.4387971,8.20328309 10.6783169,7.92404588 C10.3636368,7.80847971 10.0502572,7.81600086 9.73010734,7.92339685 C7.94690722,8.52195863 7.20830588,9.98575867 7.91565723,11.7189841 C10.0258921,16.88995 13.7395536,20.4897963 18.8516235,22.6869662 C19.1430861,22.812077 19.4668696,22.8620908 19.6308077,22.9069886 C20.794669,22.9186712 22.1580789,21.7994317 22.5518211,20.6886678 C22.9309137,19.620053 22.1297359,19.1958904 21.4960152,18.6867043 Z M15.7641092,8.45419187 L15.7641092,8.45419187 C15.4544781,8.4066597 14.98263,8.47377742 15.0059241,8.06526798 C15.0408843,7.45933776 15.6013186,7.68466699 15.8721646,7.64576314 C19.4620884,7.76671248 22.5532364,11.0470815 22.5094022,14.5856132 C22.5050418,14.9329989 22.6299652,15.4474917 22.111529,15.4376035 C21.6154689,15.4279825 21.7449823,14.9057777 21.7008422,14.5587355 C21.2249397,10.801594 19.5013708,9.02782312 15.7641092,8.45419187 Z M16.4951372,9.48436106 L16.4951372,9.48436106 C18.8013634,9.76077305 20.6849689,11.7578115 20.6663413,13.9519272 C20.6311899,14.2115789 20.7830411,14.6560906 20.3626389,14.7200013 C19.7953579,14.805941 19.9056317,14.2873631 19.8501314,13.9541797 C19.4700826,11.6688176 18.6663803,10.830266 16.358165,10.3153533 C16.0183166,10.2394163 15.4894,10.2924844 15.5771066,9.76993588 C15.6611029,9.27208886 16.1356666,9.44114305 16.4951372,9.48436106 Z M16.7070786,11.2785192 L16.7070786,11.2785192 C17.7302576,11.2531688 18.9292703,12.4770172 18.9123257,13.5358584 C18.9228444,13.8252893 18.8918239,14.1300679 18.5487625,14.1709188 C18.3012106,14.2000871 18.1385729,13.9928163 18.1130222,13.7370207 C18.0184307,12.7945474 17.5201138,12.2372565 16.573243,12.0855354 C16.2896216,12.0400648 16.0109727,11.9488565 16.1434313,11.5663084 C16.2316351,11.3103601 16.4671384,11.2844369 16.7070786,11.2785192 Z" id="Combined-Shape" fill="#FFFFFF"></path>
                                </g>
                                <g id="CALLR_ICON_white_rgb" transform="translate(323.592411, 124.461798)">
                                    <ellipse id="Oval-2-Copy" fill="#659BD5" cx="15.2998776" cy="15.2713862" rx="15.2998776" ry="15.2713862"></ellipse>
                                    <path d="M15.2998776,7.6356931 C17.275991,7.6356931 19.0769241,8.38334467 20.4336647,9.61094031 C19.7023376,10.6568486 19.1675346,11.8506793 18.8840245,13.1389714 C18.1559192,11.9218268 16.8233414,11.1070474 15.2998776,11.1070474 C12.9959557,11.1070474 11.1281722,12.9705488 11.1281722,15.2705823 C11.1281722,16.4837072 11.6480749,17.5758413 12.4772612,18.3371596 L12.4772612,20.1508176 L14.049856,19.2443906 C14.4441122,19.3677933 14.8645447,19.4345192 15.2998776,19.4345192 C16.8233414,19.4345192 18.1559192,18.6197397 18.8840245,17.4029971 C19.1675346,18.6912892 19.7019349,19.8851199 20.4340674,20.9318321 C19.0769241,22.1594277 17.275991,22.9070793 15.2998776,22.9070793 C11.0750141,22.9070793 7.6499388,19.4883822 7.6499388,15.2713862 C7.6499388,11.0547922 11.0750141,7.6356931 15.2998776,7.6356931" id="Fill-1" fill="#FFFFFF"></path>
                                </g>
                                <g id="amazon-echo" transform="translate(322.827417, 217.617253)">
                                    <ellipse id="Oval-2-Copy" fill="#2CC0E1" cx="15.2998776" cy="15.2713862" rx="15.2998776" ry="15.2713862"></ellipse>
                                    <g id="Group-7" transform="translate(7.649939, 9.926401)" fill="#FFFFFF">
                                        <path d="M3.41810507,8.11302009 C3.41810507,6.81214724 2.79646972,5.99372024 1.72617196,5.99372024 C0.681664507,5.99372024 0,6.86407563 0,8.10458727 C0,9.26787207 0.621635343,10.258506 1.97651581,10.258506 C2.44251999,10.258506 2.94320768,10.1293508 3.32294772,9.88790597 L3.08105243,9.36240837 C2.79602506,9.51774972 2.45941708,9.63802831 2.07122849,9.63802831 C1.25972312,9.63802831 0.793718947,9.06947897 0.776377188,8.30253653 L3.41766041,8.30253653 L3.41766041,8.11302009 L3.41810507,8.11302009 Z M0.776377188,7.73354336 C0.785270398,7.11306563 1.13877547,6.59644468 1.7257273,6.59644468 C2.33846943,6.59644468 2.61460359,7.16499402 2.63194535,7.73354336 L0.776377188,7.73354336 L0.776377188,7.73354336 Z M3.73737129,8.1733813 C3.73737129,6.95861194 4.56621841,5.99372024 5.80904444,5.99372024 C6.24881365,5.99372024 6.61121193,6.11444266 6.85355189,6.25247455 L6.85355189,6.91600403 C6.57697308,6.7349204 6.26660006,6.62307462 5.86951826,6.62307462 C5.03222259,6.62307462 4.52264168,7.26929464 4.52264168,8.13077338 C4.52264168,9.08723227 5.03222259,9.6295955 5.81749299,9.6295955 C6.23191655,9.6295955 6.52539246,9.49200744 6.79307807,9.34509891 L7.01718695,9.87947315 C6.71481782,10.0858552 6.2403651,10.258506 5.72233564,10.258506 C4.43637755,10.2580622 3.73737129,9.32734561 3.73737129,8.1733813 Z M7.52321057,4.07236966 L8.28224599,4.07236966 L8.28224599,6.58801186 C8.68822101,6.2435979 9.14533198,5.99372024 9.67180998,5.99372024 C10.3107871,5.99372024 10.914636,6.37275313 10.914636,7.44105779 L10.914636,10.1724026 L10.1551559,10.1724026 L10.1551559,7.69049161 C10.1551559,7.11306563 10.008418,6.6652387 9.44725644,6.6652387 C9.03283288,6.6652387 8.63575107,6.90668355 8.28180133,7.21647858 L8.28180133,10.1719587 L7.5227659,10.1719587 L7.5227659,4.07236966 L7.52321057,4.07236966 Z M13.3664939,5.99327641 L13.3664939,5.99327641 C14.5230558,5.99327641 15.2998776,6.92399301 15.2998776,8.12988572 C15.2998776,9.32734561 14.531949,10.2580622 13.3580453,10.2580622 C12.1925902,10.2580622 11.4242169,9.32734561 11.4242169,8.12988572 C11.4242169,6.92354918 12.1925902,5.99327641 13.3664939,5.99327641 Z M13.3580453,9.62915166 C14.0828419,9.62915166 14.5146072,9.00068494 14.5146072,8.13032955 C14.5146072,7.25109751 14.0828419,6.62263079 13.3664939,6.62263079 C12.6412526,6.62263079 12.209932,7.25154134 12.209932,8.13032955 C12.209932,9.00068494 12.6412526,9.62915166 13.3580453,9.62915166 Z" id="Combined-Shape"></path>
                                        <path d="M8.87770328,2.39946561 C8.2851123,2.83610656 7.42577095,3.06809547 6.68611085,3.06809547 C5.64912353,3.06809547 4.71549727,2.6853793 4.00885269,2.04876728 C3.95351418,1.99877451 4.00284987,1.93043234 4.06944366,1.96919077 C4.83180193,2.41201061 5.77443242,2.6786387 6.74820253,2.6786387 C7.40494867,2.6786387 8.12697548,2.54251607 8.79141273,2.26128335 C8.89177239,2.21878013 8.97581189,2.32700418 8.87770328,2.39946561 Z M9.12438171,2.11842012 C9.0484085,2.02161765 8.62333374,2.07254661 8.432369,2.09538975 C8.37459185,2.10250482 8.36558762,2.05195034 8.41773712,2.01525153 C8.75689651,1.77745821 9.31272022,1.84617486 9.37743813,1.92575137 C9.44253122,2.00607682 9.36036761,2.56236339 9.04240568,2.82786805 C8.99344517,2.86868611 8.9471109,2.84696641 8.96868354,2.79304163 C9.03996704,2.61460302 9.20035491,2.21540984 9.12438171,2.11842012 L9.12438171,2.11842012 Z M8.44568776,0.335157506 L8.44568776,0.104292028 C8.44606294,0.0689038894 8.47232528,0.0454990357 8.50440285,0.0456862745 L9.54214053,0.0454990357 C9.57534363,0.0454990357 9.60198115,0.0696528447 9.60198115,0.103730312 L9.60198115,0.302016233 C9.60160598,0.335157506 9.57346775,0.378596914 9.52375689,0.447500804 L8.98631682,1.21349486 C9.18572303,1.20881389 9.3969473,1.2387721 9.57815746,1.34025554 C9.61905168,1.36328592 9.63011938,1.39717615 9.63330838,1.43050466 L9.63330838,1.6770982 C9.63330838,1.71098843 9.59597833,1.75049582 9.55677241,1.72989955 C9.23749737,1.56288251 8.81354813,1.54472035 8.46050722,1.73195918 C8.4244903,1.75105754 8.38659749,1.7122991 8.38659749,1.67840887 L8.38659749,1.44398586 C8.38659749,1.40653809 8.38734784,1.34231517 8.42524065,1.28520733 L9.04803333,0.393576021 L8.50571597,0.393576021 C8.47251287,0.393576021 8.44606294,0.369796689 8.44568776,0.335157506 L8.44568776,0.335157506 Z M4.66053394,1.77858165 L4.34501067,1.77858165 C4.31499656,1.77652202 4.29098528,1.75405336 4.28854663,1.72540582 L4.28892181,0.108224044 C4.28892181,0.0758317261 4.31612209,0.0499927676 4.34988796,0.0499927676 L4.64402619,0.0498055288 C4.67479064,0.0513034394 4.69936469,0.0745210543 4.70124057,0.104104789 L4.70124057,0.315122951 L4.7072434,0.315122951 C4.78377936,0.111032626 4.92822224,0.0157280617 5.12275116,0.0157280617 C5.32028149,0.0157280617 5.44408967,0.111032626 5.53225611,0.315122951 C5.60897966,0.111032626 5.78268629,0.0157280617 5.96858616,0.0157280617 C6.10121098,0.0157280617 6.24546628,0.0702145612 6.3338203,0.192668756 C6.43417996,0.328978624 6.41354526,0.526141112 6.41354526,0.699711507 L6.41317009,1.72035037 C6.41317009,1.75255545 6.3859698,1.77839441 6.35220394,1.77839441 L6.03686825,1.77839441 C6.00535344,1.77633478 5.98040421,1.75143202 5.98040421,1.72035037 L5.98021662,0.862796528 C5.98021662,0.794828833 5.98621944,0.624628737 5.97139998,0.56003134 C5.94776387,0.451058341 5.87723073,0.420538412 5.78587529,0.420538412 C5.70933933,0.420538412 5.62980195,0.471467374 5.5973492,0.553103504 C5.56489645,0.634926872 5.56789786,0.770862263 5.56789786,0.862796528 L5.56789786,1.72016313 C5.56789786,1.75236821 5.54069757,1.77820717 5.50693171,1.77820717 L5.1917836,1.77820717 C5.1600812,1.77614754 5.13513198,1.75124478 5.13513198,1.72016313 L5.1347568,0.86260929 C5.1347568,0.682298296 5.16402056,0.416980874 4.94022789,0.416980874 C4.71324622,0.416980874 4.72225045,0.675557698 4.72225045,0.86260929 L4.72206286,1.71997589 C4.7215001,1.75274269 4.69429981,1.77858165 4.66053394,1.77858165 L4.66053394,1.77858165 Z M10.495276,0.0157280617 C10.9638712,0.0157280617 11.2173028,0.417355352 11.2173028,0.927768402 C11.2173028,1.42114272 10.9374212,1.81247187 10.495276,1.81247187 C10.035685,1.81247187 9.78506719,1.41084458 9.78506719,0.910729669 C9.78487961,0.407057216 10.0384988,0.0157280617 10.495276,0.0157280617 L10.495276,0.0157280617 Z M10.4982774,0.345830119 C10.2654805,0.345830119 10.250661,0.662263742 10.250661,0.859613468 C10.250661,1.0569632 10.2476596,1.47899952 10.495276,1.47899952 C10.7398909,1.47899952 10.751709,1.13859932 10.751709,0.931138701 C10.751709,0.795016072 10.7457061,0.631743812 10.7044367,0.502361781 C10.6689826,0.390018483 10.5982619,0.345830119 10.4982774,0.345830119 L10.4982774,0.345830119 Z M11.8249008,1.77858165 L11.5103155,1.77858165 C11.4788007,1.77652202 11.4536638,1.75161925 11.4536638,1.72053761 L11.4532887,0.102794118 C11.4559149,0.0730231437 11.4819897,0.0499927676 11.5138796,0.0499927676 L11.8067048,0.0498055288 C11.8342802,0.0513034394 11.8569784,0.0700273224 11.8627936,0.0951173256 L11.8627936,0.34245982 L11.8687964,0.34245982 C11.9571505,0.121143523 12.0809586,0.0157280617 12.2989361,0.0157280617 C12.4403775,0.0157280617 12.5788176,0.0668442623 12.6673592,0.206337191 C12.749898,0.335531983 12.749898,0.553290742 12.749898,0.710009643 L12.749898,1.72746545 C12.7463338,1.75611299 12.7206342,1.77839441 12.689307,1.77839441 L12.3728458,1.77839441 C12.3435821,1.77652202 12.3199459,1.75498955 12.3167569,1.72746545 L12.3167569,0.849502571 C12.3167569,0.672561877 12.3373916,0.413985053 12.1192266,0.413985053 C12.0425031,0.413985053 11.9717823,0.464914015 11.9365158,0.543179846 C11.8924325,0.641854709 11.8864297,0.740529572 11.8864297,0.849502571 L11.8864297,1.72035037 C11.8856794,1.75274269 11.8584791,1.77858165 11.8249008,1.77858165 L11.8249008,1.77858165 Z M7.93676109,1.77446239 C7.91593881,1.79318627 7.88573711,1.79449695 7.86210101,1.78176471 C7.75723923,1.69488589 7.73848041,1.65462954 7.68107843,1.57186998 C7.50793457,1.74806172 7.38525191,1.80086307 7.16070889,1.80086307 C6.89489647,1.80086307 6.68817432,1.63721633 6.68817432,1.30973562 C6.68817432,1.05396737 6.82717715,0.880022501 7.02489506,0.794828833 C7.19616305,0.719746062 7.43552554,0.706077628 7.61861158,0.685668595 L7.61861158,0.644663291 C7.61861158,0.569580521 7.6246144,0.481016554 7.58015601,0.416231919 C7.54170043,0.358187882 7.46797829,0.334221311 7.4028852,0.334221311 C7.28264119,0.334221311 7.17552835,0.395822886 7.14907842,0.523519769 C7.14363837,0.551980071 7.12281608,0.580065895 7.09430268,0.581563806 L6.7883464,0.548422533 C6.76245923,0.54243089 6.73375825,0.522021858 6.74126177,0.482514465 C6.81160733,0.11196882 7.14682737,0 7.447156,0 C7.6007907,0 7.80151003,0.0408180649 7.92269198,0.156906139 C8.07632668,0.300143844 8.06150722,0.491127451 8.06150722,0.699149791 L8.06150722,1.19009 C8.06150722,1.33782144 8.12303613,1.40260608 8.18062569,1.48199534 C8.20088522,1.51064288 8.20538733,1.54472035 8.17968775,1.5656911 C8.11515743,1.61961588 8.00072865,1.71885246 7.93769903,1.77483687 L7.93676109,1.77446239 L7.93676109,1.77446239 Z M7.61861158,1.00622147 L7.61861158,0.938066538 C7.39031679,0.938066538 7.14907842,0.986748634 7.14907842,1.25506188 C7.14907842,1.39155898 7.21998675,1.48368049 7.34098111,1.48368049 C7.42952272,1.48368049 7.50924768,1.42919399 7.55952131,1.34044278 C7.62161299,1.23128255 7.61861158,1.12905014 7.61861158,1.00622147 Z M3.79856637,1.77446239 C3.77774408,1.79318627 3.74754239,1.79449695 3.72390628,1.78176471 C3.6190445,1.69488589 3.60028569,1.65462954 3.54288371,1.57186998 C3.36955225,1.74806172 3.2468696,1.80086307 3.02251417,1.80086307 C2.75651416,1.80086307 2.5499796,1.63721633 2.5499796,1.30973562 C2.5499796,1.05396737 2.68879484,0.880022501 2.88670034,0.794828833 C3.05796833,0.719746062 3.29714323,0.706077628 3.48022927,0.685668595 L3.48022927,0.644663291 C3.48022927,0.569580521 3.48623209,0.481016554 3.44177369,0.416231919 C3.40331812,0.358187882 3.32959598,0.334221311 3.26469047,0.334221311 C3.14425888,0.334221311 3.03714604,0.395822886 3.0108837,0.523519769 C3.00544364,0.551980071 2.98462136,0.580065895 2.95610796,0.581563806 L2.65015168,0.548422533 C2.62426451,0.54243089 2.59556352,0.522021858 2.60287946,0.482514465 C2.67322502,0.11196882 3.00844505,0.00018723883 3.30896128,0.00018723883 C3.46259598,0.00018723883 3.66331531,0.0410053038 3.78449726,0.157093378 C3.93813196,0.300331083 3.92331249,0.49131469 3.92331249,0.69933703 L3.92331249,1.19027724 C3.92331249,1.33800868 3.98484141,1.40279331 4.04243097,1.48218258 C4.06269049,1.51083012 4.06719261,1.54490759 4.04149303,1.56587833 C3.9769627,1.61980312 3.86234634,1.7190397 3.79931672,1.77502411 L3.79856637,1.77446239 L3.79856637,1.77446239 Z M3.48022927,1.00622147 L3.48022927,0.938066538 C3.25193448,0.938066538 3.01069611,0.986748634 3.01069611,1.25506188 C3.01069611,1.39155898 3.08160443,1.48368049 3.2025988,1.48368049 C3.29132799,1.48368049 3.37105296,1.42919399 3.421139,1.34044278 C3.48323068,1.23128255 3.48022927,1.12905014 3.48022927,1.00622147 Z" id="Combined-Shape"></path>
                                    </g>
                                </g>
                                <g id="google" transform="translate(66.554468, 158.822417)">
                                    <g id="Group-5" stroke="url(#linearGradient-17)" stroke-width="0.8" fill="#FFFFFF">
                                        <ellipse id="Oval-3" transform="translate(21.802132, 21.761532) rotate(10.000000) translate(-21.802132, -21.761532) " cx="21.802132" cy="21.7615321" rx="15.312745" ry="15.2842296"></ellipse>
                                    </g>
                                    <g id="Group" transform="translate(14.534884, 14.507817)">
                                        <ellipse id="Oval" fill="#2196F3" cx="4.66968999" cy="4.67402847" rx="4.66968999" ry="4.6609941"></ellipse>
                                        <path d="M15.2998776,5.12873996 C15.2998776,5.65202355 14.8748279,6.07610279 14.3507473,6.07610279 C13.8266667,6.07610279 13.401617,5.65202355 13.401617,5.12873996 C13.401617,4.60548619 13.8266667,4.18137713 14.3507473,4.18137713 C14.8748279,4.18137713 15.2998776,4.60548619 15.2998776,5.12873996 Z" id="Shape" fill="#00C853"></path>
                                        <path d="M13.591461,7.44029691 C13.591461,8.48665531 12.7416604,9.33496292 11.6932303,9.33496292 C10.6447105,9.33496292 9.79496969,8.48665531 9.79496969,7.44029691 C9.79496969,6.39387886 10.6447404,5.54557125 11.6932303,5.54557125 C12.7416903,5.54557125 13.591461,6.39390869 13.591461,7.44029691 Z" id="Shape" fill="#F44336"></path>
                                        <path d="M13.9710892,12.3286318 C13.9710892,13.5843454 12.9513763,14.6021893 11.6932004,14.6021893 C10.4350245,14.6021893 9.41528171,13.5843454 9.41528171,12.3286318 C9.41528171,11.0729779 10.4349946,10.0550147 11.6932004,10.0550147 C12.9513763,10.0550147 13.9710892,11.0729779 13.9710892,12.3286318 Z" id="Shape" fill="#FFEB3B"></path>
                                    </g>
                                </g>
                            </g>
                        </g>
                        <g id="Group-13" stroke="none" stroke-width="1" fill="none" fill-rule="evenodd" mask="url(#mask-4)">
                            <g transform="translate(-62.821297, 135.403917)">
                                <g id="Group-2" stroke="none" stroke-width="1" fill="none" fill-rule="evenodd" transform="translate(0.000000, 126.988984)">
                                    <path d="M63.1578947,31.652865 C63.1578947,20.6899565 72.045088,11.8027632 83.0079965,11.8027632 C83.1232454,11.8027632 83.2382648,11.8037454 83.353047,11.8057018 C84.8255083,5.05480485 90.8372953,0 98.0296952,0 C104.539639,0 110.082387,4.14105725 112.167459,9.93269138 C113.43141,9.40920768 114.817133,9.12031704 116.270329,9.12031704 C122.196226,9.12031704 127.000114,13.9242053 127.000114,19.8501018 C136.996021,20.3805875 145.536984,26.4047782 149.62987,34.9628705 C151.092244,34.5539559 152.63406,34.3353112 154.226943,34.3353112 C159.871631,34.3353112 164.875029,37.0809975 167.97444,41.3096713 L65.6610871,41.3096713 C64.0665177,38.4514084 63.1578947,35.1582468 63.1578947,31.652865 Z" id="Combined-Shape" fill="#E5ECE0"></path>
                                    <path d="M95.0674541,41.3096754 C93.4728824,38.4514084 92.5642595,35.1582468 92.5642595,31.652865 C92.5642595,20.6899565 101.451453,11.8027632 112.414361,11.8027632 C112.52961,11.8027632 112.64463,11.8037454 112.759412,11.8057018 C114.231873,5.05480485 120.24366,0 127.43606,0 C133.946004,0 139.488752,4.14105725 141.573824,9.93269138 C142.837775,9.40920768 144.223497,9.12031704 145.676694,9.12031704 C151.60259,9.12031704 156.406479,13.9242053 156.406479,19.8501018 C156.406479,19.8611987 156.406462,19.8722917 156.406428,19.8833808 C166.402385,20.3805875 174.943348,26.4047782 179.036234,34.9628705 C180.498608,34.5539559 182.040424,34.3353112 183.633308,34.3353112 C189.277996,34.3353112 194.281394,37.0809975 197.380804,41.3096713 L95.0674518,41.3096713 L95.0674541,41.3096754 Z" id="Combined-Shape-Copy-2" fill="#E5ECE0" opacity="0.600000024"></path>
                                    <path d="M186.86672,41.3096754 C185.272148,38.4514084 184.363525,35.1582468 184.363525,31.652865 C184.363525,20.6899565 193.250718,11.8027632 204.213627,11.8027632 C204.328876,11.8027632 204.443895,11.8037454 204.558677,11.8057018 C206.031139,5.05480485 212.042926,0 219.235326,0 C225.745269,0 231.288018,4.14105725 233.37309,9.93269138 C234.637041,9.40920768 236.022763,9.12031704 237.47596,9.12031704 C243.401856,9.12031704 248.205744,13.9242053 248.205744,19.8501018 C248.205744,19.8611987 248.205728,19.8722917 248.205694,19.8833808 C258.201651,20.3805875 266.742614,26.4047782 270.8355,34.9628705 C272.297874,34.5539559 273.83969,34.3353112 275.432573,34.3353112 C281.077261,34.3353112 286.08066,37.0809975 289.18007,41.3096713 L186.866717,41.3096713 L186.86672,41.3096754 Z" id="Combined-Shape-Copy-3" fill="#E5ECE0" opacity="0.600000024"></path>
                                    <path d="M12.7098348,36.7197062 C13.06787,36.7197062 13.4236956,36.7291663 13.7770754,36.7478502 C17.5598141,27.3157744 26.7881021,20.6548348 37.5721359,20.6548348 C48.9907456,20.6548348 59.6040395,30.991512 62.9165156,41.3096695 C65.1294227,40.6867062 66.5247822,37.4847001 68.936885,37.4847001 C69.4670936,37.4847001 69.9935416,37.5008016 70.5157665,37.5325424 C75.1675893,32.7823772 81.6529313,29.8347613 88.8267259,29.8347613 C97.7486433,29.8347613 105.605701,34.3939694 110.195182,41.3096695 L0,41.3096695 C3.44650632,38.4434461 7.87687005,36.7197062 12.7098348,36.7197062 Z" id="Combined-Shape" fill="#EFF4EC"></path>
                                </g>
                                <g id="Group-2" stroke="none" stroke-width="1" fill="none" fill-rule="evenodd" transform="translate(323.531212, 148.041616) scale(-1, 1) translate(-323.531212, -148.041616) translate(184.057528, 126.988984)">
                                    <path d="M8.8067442,41.3096754 C7.21217253,38.4514084 6.30354957,35.1582468 6.30354957,31.652865 C6.30354957,20.6899565 15.1907429,11.8027632 26.1536514,11.8027632 C26.2689002,11.8027632 26.3839197,11.8037454 26.4987018,11.8057018 C27.9711631,5.05480485 33.9829501,0 41.17535,0 C47.6852939,0 53.2280421,4.14105725 55.3131142,9.93269138 C56.5770651,9.40920768 57.9627876,9.12031704 59.4159841,9.12031704 C65.3418806,9.12031704 70.1457688,13.9242053 70.1457688,19.8501018 C70.1457688,19.8611987 70.145752,19.8722917 70.1457183,19.8833808 C80.1416755,20.3805875 88.6826384,26.4047782 92.7755245,34.9628705 C94.2378985,34.5539559 95.7797145,34.3353112 97.3725976,34.3353112 C103.017286,34.3353112 108.020684,37.0809975 111.120094,41.3096713 L8.80674189,41.3096713 L8.8067442,41.3096754 Z" id="Combined-Shape" fill="#E5ECE0"></path>
                                    <path d="M84.5411383,41.3096754 C82.9465667,38.4514084 82.0379437,35.1582468 82.0379437,31.652865 C82.0379437,20.6899565 90.925137,11.8027632 101.888045,11.8027632 C102.003294,11.8027632 102.118314,11.8037454 102.233096,11.8057018 C103.705557,5.05480485 109.717344,0 116.909744,0 C123.419688,0 128.962436,4.14105725 131.047508,9.93269138 C132.311459,9.40920768 133.697182,9.12031704 135.150378,9.12031704 C141.076275,9.12031704 145.880163,13.9242053 145.880163,19.8501018 C145.880163,19.8611987 145.880146,19.8722917 145.880112,19.8833808 C155.87607,20.3805875 164.417032,26.4047782 168.509919,34.9628705 C169.972293,34.5539559 171.514109,34.3353112 173.106992,34.3353112 C178.75168,34.3353112 183.755078,37.0809975 186.854489,41.3096713 L84.541136,41.3096713 L84.5411383,41.3096754 Z" id="Combined-Shape-Copy-2" fill="#E5ECE0" opacity="0.600000024"></path>
                                    <path d="M176.340404,41.3096754 C174.745832,38.4514084 173.837209,35.1582468 173.837209,31.652865 C173.837209,20.6899565 182.724403,11.8027632 193.687311,11.8027632 C193.80256,11.8027632 193.917579,11.8037454 194.032362,11.8057018 C195.504823,5.05480485 201.51661,0 208.70901,0 C215.218954,0 220.761702,4.14105725 222.846774,9.93269138 C224.110725,9.40920768 225.496447,9.12031704 226.949644,9.12031704 C232.87554,9.12031704 237.679429,13.9242053 237.679429,19.8501018 C237.679429,19.8611987 237.679412,19.8722917 237.679378,19.8833808 C247.675335,20.3805875 256.216298,26.4047782 260.309184,34.9628705 C261.771558,34.5539559 263.313374,34.3353112 264.906257,34.3353112 C270.550945,34.3353112 275.554344,37.0809975 278.653754,41.3096713 L176.340402,41.3096713 L176.340404,41.3096754 Z" id="Combined-Shape-Copy-3" fill="#E5ECE0" opacity="0.600000024"></path>
                                    <path d="M3.25075959,36.7478502 C7.03349832,27.3157744 16.2617863,20.6548348 27.0458201,20.6548348 C38.4644299,20.6548348 48.1388142,28.1227517 51.4512902,38.4409092 C53.6641973,37.8179459 55.9984664,37.4847001 58.4105692,37.4847001 C58.9407779,37.4847001 59.4672258,37.5008016 59.9894507,37.5325424 C64.6412736,32.7823772 71.1266155,29.8347613 78.3004101,29.8347613 C87.2223275,29.8347613 95.0793848,34.3939694 99.6688659,41.3096695 L0.397965739,41.3096695 C0.658222797,39.7166625 3.25075959,36.7478502 3.25075959,36.7478502 Z" id="Combined-Shape" fill="#EFF4EC"></path>
                                </g>
                                <path d="M192.778458,63.5104524 L193.04084,63.3014471 L193.04084,63.3014471 C193.563761,62.8849037 194.325348,62.9711404 194.741891,63.494062 C195.138357,63.9917778 195.081794,64.71148 194.612445,65.1411506 L194.612445,65.1411506 L192.778458,63.5104524 Z" id="Path-25" stroke="none" fill="#38475B" fill-rule="evenodd"></path>
                                <path d="M105.729748,79.5593635 L111.577978,79.5593635 L111.577978,79.5593635 C113.774142,79.5593635 115.554484,81.3397055 115.554484,83.5358686 L115.554484,83.5358686 L115.554484,83.5358686 C115.554484,85.7320317 113.774142,87.5123736 111.577978,87.5123736 L104.412763,87.5123736 L104.412763,87.5123736 C102.525005,87.5123736 100.994675,85.9820433 100.994675,84.0942851 C100.994675,83.9072032 101.010034,83.720437 101.040598,83.5358686 L101.040598,83.5358686 L101.040598,83.5358686 C101.420489,81.2417801 103.404418,79.5593635 105.729748,79.5593635 Z" id="Rectangle-17-Copy" stroke="none" fill="#54C6AC" fill-rule="evenodd"></path>
                                <path d="M111.01738,69.6144431 L125.683459,69.6144431 L125.683459,69.6144431 C127.892598,69.6144431 129.683459,71.4053041 129.683459,73.6144431 L129.683459,88.5642595 L129.683459,88.5642595 C129.683459,90.7733985 127.892598,92.5642595 125.683459,92.5642595 L109.989524,92.5642595 L109.989524,92.5642595 C106.454901,92.5642595 103.589524,89.6988819 103.589524,86.1642595 C103.589524,85.9489085 103.600393,85.7336947 103.622091,85.5194395 L104.649946,75.3696231 L104.649946,75.3696231 C104.980914,72.1014056 107.732447,69.6144431 111.01738,69.6144431 Z" id="Rectangle-17" stroke="none" fill="#2D6154" fill-rule="evenodd"></path>
                                <rect id="Rectangle-16" stroke="none" fill="#E5ECE0" fill-rule="evenodd" transform="translate(121.225279, 102.812746) rotate(11.000000) translate(-121.225279, -102.812746) " x="116.635316" y="92.4853281" width="9.17992656" height="20.6548348" rx="4"></rect>
                                <polygon id="Path-24" stroke="none" fill="#35AE92" fill-rule="evenodd" points="179.008568 74.4120956 193.682328 61.9645043 197.084349 65.8216491 192.926751 72.5959323 192.926751 80.6138824 182.395693 88.922233"></polygon>
                                <path d="M124.699757,61.7709279 C114.714012,71.1519551 112.633176,98.3369139 114.714012,99.8109574 C115.938861,100.678628 120.510783,101.293711 128.429776,101.656207 L128.429776,101.656207 C130.570822,101.754214 132.661658,100.989004 134.233631,99.5320957 C142.968018,91.4370423 147.850277,85.2332214 148.880408,80.9206328 C150.004201,76.2159349 149.88613,70.6248068 148.526197,64.1472485 C139.299066,56.3090166 131.356919,55.5169097 124.699757,61.7709279 Z" id="Path-21" stroke="none" fill="#54C6AC" fill-rule="evenodd"></path>
                                <path d="M131.052451,78.0293758 C131.052451,78.0293758 129.450615,86.9571688 134.549568,97.8012955 C134.549568,97.8012955 137.967583,95.7746004 139.287454,93.5259065 C140.607326,91.2772127 131.052451,78.0293758 131.052451,78.0293758 Z" id="Path-41" stroke="none" fill="#35AE92" fill-rule="evenodd"></path>
                                <path d="M135.561429,74.2044064 C135.561429,74.2044064 144.132081,91.3576175 156.587851,91.3576175 C169.04362,91.3576175 178.935076,74.2044064 178.935076,74.2044064 C178.935076,74.2044064 188.617259,76.5322595 188.617259,84.0745531 C188.617259,91.6168466 169.996453,109.45908 153.580376,106.237764 C137.164298,103.016448 133.02092,84.3267699 130.813953,74.9096952 L135.561429,74.2044064 Z" id="Path-23" stroke="none" fill="#E5ECE0" fill-rule="evenodd"></path>
                                <g id="Group-8" stroke="none" stroke-width="1" fill="none" fill-rule="evenodd" transform="translate(130.813953, 74.204406)">
                                    <mask id="mask-19" fill="white">
                                        <use xlink:href="#path-18"></use>
                                    </mask>
                                    <use id="Path-23" fill="#E5ECE0" xlink:href="#path-18"></use>
                                    <path d="M56.5677583,5.56096081 C57.3193169,6.75820609 57.803306,8.18384771 57.803306,9.8701467 C57.803306,17.4124403 39.1824993,35.254674 22.766422,32.0333579 C6.35034476,28.8120418 2.20696618,10.1223635 0,0.705288792 L0.172295948,0.679692365 C2.78547597,10.533649 7.93856371,23.9905761 21.635927,26.6784007 C37.3342399,29.7588704 55.0487012,13.5774566 56.5677583,5.56096081 L56.5677583,5.56096081 Z" id="Combined-Shape" fill="#CDD7D3" mask="url(#mask-19)"></path>
                                    <path d="M39.7796818,7.6499388 C39.7796818,7.6499388 44.1578855,21.9350597 50.7132533,21.9350597" id="Path-40" stroke="#54C6AB" stroke-width="0.8" mask="url(#mask-19)"></path>
                                    <path d="M23.3681633,17.0303242 C23.3681633,17.0303242 27.7463671,31.315445 34.3017349,31.315445" id="Path-40-Copy" stroke="#54C6AB" stroke-width="0.8" mask="url(#mask-19)" transform="translate(28.834949, 24.172885) rotate(28.000000) translate(-28.834949, -24.172885) "></path>
                                    <path d="M10.484375,13.603865 C7.31277769,18.12462 13.8022573,24.4293889 18.770034,24.4293889" id="Path-40-Copy-2" stroke="#54C6AB" stroke-width="0.8" mask="url(#mask-19)" transform="translate(14.207639, 19.016627) rotate(72.000000) translate(-14.207639, -19.016627) "></path>
                                </g>
                                <path d="M149.747717,68.2042538 C149.459019,65.7850758 149.115165,64.1472485 149.115165,64.1472485 C149.115165,64.1472485 135.274469,52.3899007 125.288725,61.7709279 C123.593877,63.3631392 122.126747,65.4682313 120.869033,67.8734451 C121.921532,68.0903209 123.011629,68.2042538 124.128336,68.2042538 L149.747717,68.2042538 L149.747717,68.2042538 Z" id="Combined-Shape" stroke="none" fill="#35AE92" fill-rule="evenodd"></path>
                                <path d="M138.081395,6.11995104 L139.611383,6.11995104 L139.611383,6.11995104 C155.87742,6.11995104 169.063647,19.306179 169.063647,35.5722154 L169.063647,48.2244798 L169.063647,48.2244798 C169.063647,57.5028636 161.542031,65.0244798 152.263647,65.0244798 L125.429131,65.0244798 L125.429131,65.0244798 C116.150747,65.0244798 108.629131,57.5028636 108.629131,48.2244798 L108.629131,35.5722154 L108.629131,35.5722154 C108.629131,19.306179 121.815359,6.11995104 138.081395,6.11995104 Z" id="Rectangle-12" stroke="none" fill="#54C6AC" fill-rule="evenodd"></path>
                                <circle id="Oval-Copy" stroke="none" fill="#319A81" fill-rule="evenodd" cx="130.04896" cy="38.249694" r="13.7698898"></circle>
                                <circle id="Oval" stroke="none" fill="#35AE92" fill-rule="evenodd" cx="130.813953" cy="37.4847001" r="11.4749082"></circle>
                                <path d="M162.693296,17.4336299 C158.603427,12.2176139 152.791727,8.416492 146.113831,6.88494492 L148.897429,65.0443867 L152.888211,65.0443867 C161.754756,65.0443867 168.954603,57.8510661 168.954603,48.9776553 L168.954603,35.5921224 C168.954603,34.365256 168.879616,33.1559434 168.733977,31.9685137 L155.076765,31.9685137 C152.964782,31.9685137 151.252681,30.2584366 151.252681,28.1496441 L151.252681,21.2524995 C151.252681,19.1433961 152.963884,17.4336299 155.076765,17.4336299 L162.693296,17.4336299 L162.693296,17.4336299 Z" id="Combined-Shape" stroke="none" fill="#35AE92" fill-rule="evenodd"></path>
                                <polygon id="Path-20" stroke="none" fill="#38475B" fill-rule="evenodd" points="172.496278 13.1619768 172.496278 39.8610055 155.802044 35.0361929 152.998776 24.2169666 157.256146 6.88494492"></polygon>
                                <polygon id="Rectangle-23" stroke="none" fill="#608596" fill-rule="evenodd" opacity="0.200000003" points="154.528764 10.7099143 159.883721 10.7099143 168.320761 39.0146879 162.965804 39.0146879"></polygon>
                                <polygon id="Rectangle-23-Copy" stroke="none" fill="#608596" fill-rule="evenodd" opacity="0.200000003" points="162.943696 10.7099143 165.238678 10.7099143 173.675718 39.0146879 171.380736 39.0146879"></polygon>
                                <path d="M174.327789,16.6487291 L174.327789,5.6587615 C174.327789,5.50648476 174.321578,5.35427139 174.309171,5.20250092 C174.057186,2.11998869 171.354041,-0.174606375 168.271529,0.0773793859 L168.271529,0.0773793859 L152.144382,1.39572332 L152.144382,1.39572332 C150.854715,1.5011496 149.880806,2.60999082 149.942667,3.90248049 L149.942667,3.90248049 L153.035134,68.5153179 C153.096369,69.7947312 154.151512,70.8005817 155.43239,70.8005817 L155.43239,70.8005817 L168.727789,70.8005817 C171.820584,70.8005817 174.327789,68.2933763 174.327789,65.2005817 L174.327789,31.1836128 L159.186695,31.1836128 C156.977556,31.1836128 155.186695,29.3927518 155.186695,27.1836128 L155.186695,20.6487291 C155.186695,18.4395901 156.977556,16.6487291 159.186695,16.6487291 L159.186695,16.6487291 L174.327789,16.6487291 Z" id="Combined-Shape" stroke="none" fill="#DBDBDB" fill-rule="evenodd"></path>
                                <path d="M99.5146793,151.211103 L134.699469,151.211103 L134.699469,151.211103 C137.705254,151.211103 140.306024,149.119384 140.950586,146.183522 C144.230714,131.243135 143.830091,120.498566 139.748716,113.949815 C132.960312,103.057511 113.563401,101.616077 99.3518314,116.626973 C91.3130628,125.117881 88.8009427,134.703611 91.8154709,145.384163 L91.815471,145.384163 C92.7882868,148.830875 95.9333118,151.211103 99.5146793,151.211103 Z" id="Path-22" stroke="none" fill="#54C6AC" fill-rule="evenodd"></path>
                                <path d="M116.702237,106.285033 C110.817891,107.639732 104.715548,110.961576 99.3518314,116.626973 C85.1402623,131.63787 91.8536775,143.875954 91.8536775,143.875954 C93.0165867,147.927045 97.3822322,151.211103 101.610534,151.211103 L123.741579,151.211103 L113.850436,151.211103 C109.622134,151.211103 105.33415,147.906191 104.267041,143.829375 C104.267041,143.829375 97.3801643,128.745674 111.591733,111.516726 C113.235071,109.524477 114.947743,107.784721 116.702237,106.285033 L116.702237,106.285033 Z" id="Combined-Shape" stroke="none" fill="#35AE92" fill-rule="evenodd" opacity="0.5"></path>
                                <path d="M112.004162,125.094002 C108.248625,125.094002 105.204162,128.138466 105.204162,131.894002 L105.204162,145.208813 C105.204162,146.75521 106.457764,148.008813 108.004162,148.008813 L129.143941,148.008813 C130.690339,148.008813 131.943941,146.75521 131.943941,145.208813 L131.943941,131.894002 C131.943941,128.138466 128.899478,125.094002 125.143941,125.094002 L112.004162,125.094002 Z" id="Rectangle-24" stroke="#319A81" stroke-width="0.8" fill="none"></path>
                                <circle id="Oval-9" stroke="none" fill="#608596" fill-rule="evenodd" cx="117.809058" cy="152.233782" r="16.0648715"></circle>
                                <g id="Group-7" stroke="none" stroke-width="1" fill="none" fill-rule="evenodd" transform="translate(101.744186, 136.168911)">
                                    <mask id="mask-21" fill="white">
                                        <use xlink:href="#path-20"></use>
                                    </mask>
                                    <use id="Oval-9" fill="#608596" xlink:href="#path-20"></use>
                                    <rect id="Rectangle-26" fill="#769BAD" mask="url(#mask-21)" x="20.6548348" y="5.35495716" width="8.41493268" height="3.8249694" rx="1.9124847"></rect>
                                    <rect id="Rectangle-26-Copy" fill="#769BAD" mask="url(#mask-21)" x="0" y="19.124847" width="8.41493268" height="3.8249694" rx="1.9124847"></rect>
                                    <rect id="Rectangle-26-Copy-2" fill="#769BAD" mask="url(#mask-21)" x="16.0648715" y="28.3047736" width="8.41493268" height="3.8249694" rx="1.9124847"></rect>
                                </g>
                                <rect id="Rectangle-19" stroke="#FF8B8B" stroke-width="2.4" fill="none" x="235.288127" y="5.0249694" width="12.1348837" height="40.4396573" rx="6.06744186"></rect>
                                <rect id="Rectangle-19-Copy" stroke="#44B8FF" stroke-width="2.4" fill="none" x="224.578213" y="18.7948592" width="29.729743" height="40.4396573" rx="12"></rect>
                                <rect id="Rectangle-19-Copy-2" stroke="#54C6AC" stroke-width="2.4" fill="none" x="224.578213" y="26.444798" width="29.729743" height="32.7897185" rx="12"></rect>
                                <circle id="Oval-9-Copy-2" stroke="none" fill="#A5C9DA" fill-rule="evenodd" cx="118.191554" cy="152.616279" r="4.20746634"></circle>
                                <path d="M220.318237,168.298654 C223.764744,165.43243 228.195108,163.70869 233.028072,163.70869 C233.386107,163.70869 233.741933,163.71815 234.095313,163.736834 C237.878052,154.304758 247.10634,147.643819 257.890373,147.643819 C269.308983,147.643819 278.983367,155.111736 282.295843,165.429893 C284.508751,164.80693 286.84302,164.473684 289.255122,164.473684 C289.785331,164.473684 290.311779,164.489786 290.834004,164.521526 C295.485827,159.771361 301.971169,156.823745 309.144963,156.823745 C318.066881,156.823745 325.923938,161.382954 330.513419,168.298654 L220.318237,168.298654 L220.318237,168.298654 Z" id="Combined-Shape-Copy-4" stroke="none" fill="#EFF4EC" fill-rule="evenodd"></path>
                                <path d="M269.277846,67.3194614 L269.277846,91.0342717 L260.862913,91.0342717 L260.862913,104.039168 L221.083231,104.039168 L221.083231,52.9596083 L221.083231,52.9596083 C221.083231,50.7504693 222.874092,48.9596083 225.083231,48.9596083 L229.498164,48.9596083 L229.498164,39.9547124 L229.498164,39.9547124 C229.498164,37.7455734 231.289025,35.9547124 233.498164,35.9547124 L240.973072,35.9547124 L240.973072,16.2399021 L240.973072,16.2399021 C240.973072,14.0307631 242.763933,12.2399021 244.973072,12.2399021 L280.752754,12.2399021 L280.752754,67.3194614 L269.277846,67.3194614 Z" id="Combined-Shape" stroke="none" fill="#38475B" fill-rule="evenodd"></path>
                                <rect id="Rectangle-21" stroke="none" fill="#43576A" fill-rule="evenodd" x="246.328029" y="19.124847" width="19.8898409" height="7.6499388" rx="3.2"></rect>
                                <rect id="Rectangle-21-Copy" stroke="none" fill="#43576A" fill-rule="evenodd" x="234.088127" y="41.3096695" width="19.8898409" height="7.6499388" rx="3.2"></rect>
                                <rect id="Rectangle-21-Copy-2" stroke="none" fill="#43576A" fill-rule="evenodd" x="218.78825" y="54.3145655" width="13.004896" height="7.6499388" rx="3.2"></rect>
                                <rect id="Rectangle-21-Copy-3" stroke="none" fill="#43576A" fill-rule="evenodd" x="228.73317" y="67.3194614" width="13.004896" height="13.004896" rx="3.2"></rect>
                                <path d="M132.518972,71.1444308 L136.758874,71.1444308 L136.758874,71.1444308 C138.968013,71.1444308 140.758874,72.9352918 140.758874,75.1444308 L140.758874,78.7943696 L128.518972,78.7943696 L128.518972,75.1444308 L128.518972,75.1444308 C128.518972,72.9352918 130.309833,71.1444308 132.518972,71.1444308 Z" id="Rectangle-18" stroke="none" fill="#319A81" fill-rule="evenodd"></path>
                                <path d="M259.373494,3.8249694 L295.077759,3.8249694 L295.077759,3.8249694 C297.728725,3.8249694 299.877759,5.9740026 299.877759,8.6249694 L299.877759,144.015654 L305.585658,144.015654 L305.585658,144.015654 C307.352969,144.015654 308.785658,145.448342 308.785658,147.215654 L308.785658,167.889693 L204.253366,167.889693 L204.253366,147.215654 L204.253366,147.215654 C204.253366,145.448342 205.686055,144.015654 207.453366,144.015654 L213.815459,144.015654 L213.815459,82.4960109 L213.815459,82.4960109 C213.815459,80.0944081 215.590404,78.0624192 217.970208,77.7395783 L237.514771,75.0881909 L237.514771,75.0881909 C239.894575,74.76535 241.66952,72.7333611 241.66952,70.3317583 L241.66952,58.4722887 L251.578373,50.6292755 L254.585552,8.28494286 L254.585552,8.28494286 C254.763997,5.77224946 256.854472,3.8249694 259.373494,3.8249694 Z" id="Path-32" stroke="none" fill="#3390D5" fill-rule="evenodd"></path>
                                <rect id="Rectangle-20" stroke="none" fill="#44B8FF" fill-rule="evenodd" x="222.613219" y="85.6793146" width="69.6144431" height="47.4296206" rx="3.2"></rect>
                                <rect id="Rectangle-27" stroke="none" fill="#38475B" fill-rule="evenodd" x="279.98776" y="34.4247246" width="11.4749082" height="34.4247246" rx="3.2"></rect>
                                <rect id="Rectangle-20-Copy" stroke="none" fill="#38475B" fill-rule="evenodd" x="228.73317" y="91.7992656" width="57.374541" height="35.1897185" rx="3.2"></rect>
                                <circle id="Oval-8" stroke="none" fill="#FFD19B" fill-rule="evenodd" cx="212.668299" cy="23.7148103" r="1.52998776"></circle>
                                <circle id="Oval-8-Copy" stroke="none" fill="#FFD19B" fill-rule="evenodd" cx="201.575887" cy="34.0422277" r="2.67747858"></circle>
                                <circle id="Oval-8-Copy-2" stroke="none" fill="#FFD19B" fill-rule="evenodd" cx="219.553244" cy="35.9547124" r="1.52998776"></circle>
                                <circle id="Oval-8-Copy-3" stroke="none" fill="#FFD19B" fill-rule="evenodd" cx="211.903305" cy="45.1346389" r="1.52998776"></circle>
                                <circle id="Oval-8-Copy-4" stroke="none" fill="#FFD19B" fill-rule="evenodd" cx="211.138311" cy="71.1444308" r="1"></circle>
                                <rect id="Rectangle-22" stroke="none" fill="#2576B2" fill-rule="evenodd" x="214.198286" y="138.463892" width="58.9045288" height="5.35495716"></rect>
                                <rect id="Rectangle-22-Copy-2" stroke="none" fill="#2576B2" fill-rule="evenodd" opacity="0.200000003" x="204.253366" y="159.58065" width="93.3292534" height="7.95301011"></rect>
                                <rect id="Rectangle-22-Copy" stroke="none" fill="#2576B2" fill-rule="evenodd" x="281.517748" y="138.463892" width="18.3598531" height="5.35495716"></rect>
                                <rect id="Rectangle-25" stroke="none" fill="#35AE92" fill-rule="evenodd" x="111.689106" y="128.518972" width="12.2399021" height="2.29498164"></rect>
                                <rect id="Rectangle-25-Copy" stroke="none" fill="#35AE92" fill-rule="evenodd" x="111.689106" y="132.343941" width="12.2399021" height="2.29498164"></rect>
                                <path d="M200.0459,45.1346389 L200.0459,50.9698625" id="Path-33" stroke="#FFD19B" stroke-width="2.4" fill="none" stroke-linecap="round"></path>
                                <path d="M202.513909,47.9098869 L197.750918,47.9098869" id="Path-33-Copy" stroke="#FFD19B" stroke-width="2.4" fill="none" stroke-linecap="round"></path>
                                <rect id="Rectangle-28" stroke="none" fill="#9EBBD7" fill-rule="evenodd" x="283.047736" y="35.9547124" width="4.58996328" height="19.124847"></rect>
                                <rect id="Rectangle-28-Copy-2" stroke="none" fill="#43576A" fill-rule="evenodd" opacity="0.300000012" x="283.047736" y="47.4296206" width="4.58996328" height="7.6499388"></rect>
                                <rect id="Rectangle-28-Copy" stroke="none" fill="#43576A" fill-rule="evenodd" opacity="0.5" x="283.047736" y="51.25459" width="4.58996328" height="3.8249694"></rect>
                                <circle id="Oval-10" stroke="none" fill="#D26363" fill-rule="evenodd" cx="285.342717" cy="37.4847001" r="4.58996328"></circle>
                                <circle id="Oval-10-Copy" stroke="none" fill="#FF8B8B" fill-rule="evenodd" cx="284.577723" cy="35.9547124" r="2.29498164"></circle>
                                <rect id="Rectangle-29" stroke="none" fill="#53ABED" fill-rule="evenodd" x="283.047736" y="22.1848225" width="6.88494492" height="6.88494492" rx="3.2"></rect>
                                <rect id="Rectangle-29-Copy" stroke="none" fill="#53ABED" fill-rule="evenodd" x="283.047736" y="10.7099143" width="6.88494492" height="6.88494492" rx="3.2"></rect>
                                <rect id="Rectangle-29-Copy-2" stroke="none" fill="#53ABED" fill-rule="evenodd" x="259.332925" y="59.6695226" width="6.88494492" height="6.88494492" rx="3.2"></rect>
                                <g id="Group-2" stroke="none" stroke-width="1" fill="none" fill-rule="evenodd" transform="translate(198.133415, 126.988984)" opacity="0.600000024">
                                    <path d="M2.50319463,41.3096754 C0.908622956,38.4514084 1.13686838e-13,35.1582468 1.13686838e-13,31.652865 C1.13686838e-13,20.6899565 8.88719329,11.8027632 19.8501018,11.8027632 C19.9653506,11.8027632 20.0803701,11.8037454 20.1951522,11.8057018 C21.6676135,5.05480485 27.6794005,0 34.8718004,0 C41.3817444,0 46.9244925,4.14105725 49.0095646,9.93269138 C50.2735155,9.40920768 51.659238,9.12031704 53.1124345,9.12031704 C59.038331,9.12031704 63.8422193,13.9242053 63.8422193,19.8501018 C63.8422193,19.8611987 63.8422024,19.8722917 63.8421687,19.8833808 C73.8381259,20.3805875 82.3790888,26.4047782 86.4719749,34.9628705 C87.9343489,34.5539559 89.4761649,34.3353112 91.0690481,34.3353112 C96.713736,34.3353112 101.717135,37.0809975 104.816545,41.3096713 L2.50319232,41.3096713 L2.50319463,41.3096754 Z" id="Combined-Shape" fill="#E5ECE0"></path>
                                </g>
                            </g>
                        </g>
                        <path d="M192.702646,233.813673 L192.702646,231.938415 C192.702646,231.4345 193.118461,231.028152 193.617219,231.028152 C194.12085,231.028152 194.531792,231.434335 194.531792,231.938415 L194.531792,233.600923 C194.681029,233.595299 194.830996,233.592462 194.98164,233.592462 C201.317579,233.592462 206.456548,238.612229 206.456548,244.807807 C206.456548,247.228358 205.672143,249.469434 204.338411,251.301804 C204.382849,251.780438 204.530347,252.029932 204.84257,252.26018 C204.875549,252.2845 204.965661,252.345714 205.084045,252.4246 C205.155828,252.472334 205.155828,252.472334 205.211893,252.509389 C205.235104,252.5247 205.235104,252.5247 205.260515,252.541393 C205.259029,252.540441 205.267308,252.545874 205.267308,252.545874 C206.053324,253.081906 206.364045,253.718375 206.193415,254.600177 C205.909596,256.066933 204.498293,256.541727 202.467343,256.131809 C201.451893,255.926856 200.400055,255.518415 199.656918,255.053054 C198.228827,255.676538 196.646559,256.023153 194.98164,256.023153 C188.645701,256.023153 183.506732,251.003386 183.506732,244.807807 C183.506732,240.177789 186.376704,236.204429 190.471448,234.492009 C190.447144,234.411748 190.434082,234.326391 190.434082,234.237774 L190.434082,233.440494 C190.434082,232.967602 190.821067,232.579006 191.289203,232.579006 C191.763939,232.579006 192.144324,232.962273 192.144324,233.440494 L192.144324,233.937969 C192.328691,233.892133 192.514839,233.850661 192.702646,233.813671 Z M202.172761,250.549188 C203.484686,248.985407 204.271738,246.986064 204.271738,244.807798 C204.271738,239.801196 200.113897,235.739803 194.98164,235.739803 C189.849383,235.739803 185.691542,239.801196 185.691542,244.807798 C185.691542,249.8144 189.849383,253.875794 194.98164,253.875794 C196.724542,253.875794 198.355068,253.407407 199.748541,252.592678 C200.163236,252.922799 200.163236,252.922799 200.163236,252.922799 C200.780742,253.299906 202.140652,253.873715 202.906879,254.028367 C203.222055,254.091981 203.506671,254.122367 203.736649,254.120616 C203.647073,254.060005 203.57553,254.010418 203.531294,253.977797 C202.74861,253.400611 202.287278,252.470723 202.173276,251.296074 C202.173276,251.296074 202.173276,251.296074 202.173276,250.566231 C202.173276,250.560335 202.173103,250.554655 202.172761,250.549188 Z M197.403228,241.519154 C197.403228,243.185848 196.00427,244.533394 194.283013,244.533394 C192.561757,244.533394 191.162799,243.185848 191.162799,241.519154 C191.162799,239.85246 192.561757,238.504913 194.283013,238.504913 C196.00427,238.504913 197.403228,239.85246 197.403228,241.519154 Z M196.0886,247.361814 C195.491476,247.361814 195.007412,246.888979 195.007412,246.305707 C195.007412,245.722435 195.491476,245.249599 196.0886,245.249599 C196.685723,245.249599 197.169787,245.722435 197.169787,246.305707 C197.169787,246.888979 196.685723,247.361814 196.0886,247.361814 Z M193.959414,247.06041 C193.959414,248.148631 193.045143,249.029302 191.919207,249.029302 C190.793271,249.029302 189.879001,248.148631 189.879001,247.06041 C189.879001,245.972188 190.793271,245.091518 191.919207,245.091518 C193.045143,245.091518 193.959414,245.972188 193.959414,247.06041 Z" id="Combined-Shape" stroke="none" fill="#53ABED" fill-rule="nonzero" mask="url(#mask-4)"></path>
                        <rect id="Rectangle-43" stroke="none" fill="none" mask="url(#mask-4)" x="0" y="0" width="400" height="400"></rect>
                    </g>
                </g>
            </g>
        </g>
    </g>
</svg>