
<svg width="350px" height="500px" viewBox="0 0 350 500" version="1.1" xmlns="http://www.w3.org/2000/svg" xmlns:xlink="http://www.w3.org/1999/xlink">
    <!-- Generator: Sketch 46.1 (44463) - http://www.bohemiancoding.com/sketch -->
    <desc>Created with Sketch.</desc>
    <defs>
        <linearGradient x1="50%" y1="0%" x2="50%" y2="100%" id="linearGradient-1">
            <stop stop-color="#54C6AC" stop-opacity="0.447831748" offset="0%"></stop>
            <stop stop-color="#54C6AC" stop-opacity="0.203804348" offset="100%"></stop>
        </linearGradient>
        <rect id="path-2" x="208.532934" y="61.7905405" width="102.694611" height="120.439189"></rect>
        <filter x="-21.7%" y="-18.5%" width="143.3%" height="136.9%" filterUnits="objectBoundingBox" id="filter-3">
            <feMorphology radius="1.24113475" operator="dilate" in="SourceAlpha" result="shadowSpreadOuter1"></feMorphology>
            <feOffset dx="0" dy="0" in="shadowSpreadOuter1" result="shadowOffsetOuter1"></feOffset>
            <feMorphology radius="1.24113475" operator="erode" in="SourceAlpha" result="shadowInner"></feMorphology>
            <feOffset dx="0" dy="0" in="shadowInner" result="shadowInner"></feOffset>
            <feComposite in="shadowOffsetOuter1" in2="shadowInner" operator="out" result="shadowOffsetOuter1"></feComposite>
            <feGaussianBlur stdDeviation="7" in="shadowOffsetOuter1" result="shadowBlurOuter1"></feGaussianBlur>
            <feColorMatrix values="0 0 0 0 0.22745098   0 0 0 0 0.639215686   0 0 0 0 0.890196078  0 0 0 0.528277853 0" type="matrix" in="shadowBlurOuter1"></feColorMatrix>
        </filter>
        <rect id="path-4" x="32.4850299" y="32.4662162" width="302.844311" height="172.804054" rx="3.72340426"></rect>
        <filter x="-6.8%" y="-11.9%" width="113.5%" height="123.7%" filterUnits="objectBoundingBox" id="filter-5">
            <feGaussianBlur stdDeviation="20" in="SourceAlpha" result="shadowBlurInner1"></feGaussianBlur>
            <feOffset dx="0" dy="1" in="shadowBlurInner1" result="shadowOffsetInner1"></feOffset>
            <feComposite in="shadowOffsetInner1" in2="SourceAlpha" operator="arithmetic" k2="-1" k3="1" result="shadowInnerInner1"></feComposite>
            <feColorMatrix values="0 0 0 0 0.22745098   0 0 0 0 0.639215686   0 0 0 0 0.890196078  0 0 0 0.10510077 0" type="matrix" in="shadowInnerInner1"></feColorMatrix>
        </filter>
        <mask id="mask-6" maskContentUnits="userSpaceOnUse" maskUnits="objectBoundingBox" x="0" y="0" width="302.844311" height="172.804054" fill="white">
            <use xlink:href="#path-4"></use>
        </mask>
        <ellipse id="path-7" cx="33.008982" cy="32.9898649" rx="33.008982" ry="32.9898649"></ellipse>
        <filter x="-31.1%" y="-31.1%" width="162.1%" height="162.1%" filterUnits="objectBoundingBox" id="filter-8">
            <feGaussianBlur stdDeviation="20" in="SourceAlpha" result="shadowBlurInner1"></feGaussianBlur>
            <feOffset dx="0" dy="1" in="shadowBlurInner1" result="shadowOffsetInner1"></feOffset>
            <feComposite in="shadowOffsetInner1" in2="SourceAlpha" operator="arithmetic" k2="-1" k3="1" result="shadowInnerInner1"></feComposite>
            <feColorMatrix values="0 0 0 0 0.22745098   0 0 0 0 0.639215686   0 0 0 0 0.890196078  0 0 0 0.10510077 0" type="matrix" in="shadowInnerInner1"></feColorMatrix>
        </filter>
        <mask id="mask-9" maskContentUnits="userSpaceOnUse" maskUnits="objectBoundingBox" x="0" y="0" width="66.0179641" height="65.9797297" fill="white">
            <use xlink:href="#path-7"></use>
        </mask>
        <ellipse id="path-10" cx="68.1137725" cy="72.2635135" rx="12.5748503" ry="12.5675676"></ellipse>
        <filter x="-88.4%" y="-88.5%" width="276.9%" height="277.0%" filterUnits="objectBoundingBox" id="filter-11">
            <feMorphology radius="1.24113475" operator="dilate" in="SourceAlpha" result="shadowSpreadOuter1"></feMorphology>
            <feOffset dx="0" dy="0" in="shadowSpreadOuter1" result="shadowOffsetOuter1"></feOffset>
            <feMorphology radius="1.24113475" operator="erode" in="SourceAlpha" result="shadowInner"></feMorphology>
            <feOffset dx="0" dy="0" in="shadowInner" result="shadowInner"></feOffset>
            <feComposite in="shadowOffsetOuter1" in2="shadowInner" operator="out" result="shadowOffsetOuter1"></feComposite>
            <feGaussianBlur stdDeviation="7" in="shadowOffsetOuter1" result="shadowBlurOuter1"></feGaussianBlur>
            <feColorMatrix values="0 0 0 0 0.22745098   0 0 0 0 0.639215686   0 0 0 0 0.890196078  0 0 0 0.528277853 0" type="matrix" in="shadowBlurOuter1"></feColorMatrix>
        </filter>
        <rect id="path-12" x="273.502994" y="41.8918919" width="76.497006" height="43.9864865" rx="3.72340426"></rect>
        <filter x="-26.8%" y="-46.6%" width="153.6%" height="193.2%" filterUnits="objectBoundingBox" id="filter-13">
            <feGaussianBlur stdDeviation="20" in="SourceAlpha" result="shadowBlurInner1"></feGaussianBlur>
            <feOffset dx="0" dy="1" in="shadowBlurInner1" result="shadowOffsetInner1"></feOffset>
            <feComposite in="shadowOffsetInner1" in2="SourceAlpha" operator="arithmetic" k2="-1" k3="1" result="shadowInnerInner1"></feComposite>
            <feColorMatrix values="0 0 0 0 0.22745098   0 0 0 0 0.639215686   0 0 0 0 0.890196078  0 0 0 0.10510077 0" type="matrix" in="shadowInnerInner1"></feColorMatrix>
        </filter>
        <rect id="path-14" x="132.035928" y="9.42567568" width="158.233533" height="45.0337838" rx="3.72340426"></rect>
        <filter x="-13.0%" y="-45.5%" width="125.9%" height="191.0%" filterUnits="objectBoundingBox" id="filter-15">
            <feGaussianBlur stdDeviation="20" in="SourceAlpha" result="shadowBlurInner1"></feGaussianBlur>
            <feOffset dx="0" dy="1" in="shadowBlurInner1" result="shadowOffsetInner1"></feOffset>
            <feComposite in="shadowOffsetInner1" in2="SourceAlpha" operator="arithmetic" k2="-1" k3="1" result="shadowInnerInner1"></feComposite>
            <feColorMatrix values="0 0 0 0 0.22745098   0 0 0 0 0.639215686   0 0 0 0 0.890196078  0 0 0 0.10510077 0" type="matrix" in="shadowInnerInner1"></feColorMatrix>
        </filter>
        <path d="M57.8206917,138.136032 L78.8775465,138.136032 L78.8775465,138.136032 C79.5630063,138.136032 80.1186812,137.580357 80.1186812,136.894897 C80.1186812,136.655595 80.0495006,136.421394 79.9194708,136.220502 L69.3910434,119.954342 L69.3910434,119.954342 C69.0185851,119.378903 68.2501625,119.214355 67.6747236,119.586813 C67.5276472,119.68201 67.4023914,119.807265 67.3071948,119.954342 L56.7787674,136.220502 L56.7787674,136.220502 C56.4063091,136.79594 56.5708573,137.564363 57.1462962,137.936821 C57.3471891,138.066851 57.5813892,138.136032 57.8206917,138.136032 Z" id="path-16"></path>
        <filter x="-90.3%" y="-115.9%" width="280.7%" height="331.9%" filterUnits="objectBoundingBox" id="filter-17">
            <feMorphology radius="1.24113475" operator="dilate" in="SourceAlpha" result="shadowSpreadOuter1"></feMorphology>
            <feOffset dx="0" dy="0" in="shadowSpreadOuter1" result="shadowOffsetOuter1"></feOffset>
            <feMorphology radius="1.24113475" operator="erode" in="SourceAlpha" result="shadowInner"></feMorphology>
            <feOffset dx="0" dy="0" in="shadowInner" result="shadowInner"></feOffset>
            <feComposite in="shadowOffsetOuter1" in2="shadowInner" operator="out" result="shadowOffsetOuter1"></feComposite>
            <feGaussianBlur stdDeviation="7" in="shadowOffsetOuter1" result="shadowBlurOuter1"></feGaussianBlur>
            <feColorMatrix values="0 0 0 0 0.22745098   0 0 0 0 0.639215686   0 0 0 0 0.890196078  0 0 0 0.528277853 0" type="matrix" in="shadowBlurOuter1"></feColorMatrix>
        </filter>
        <linearGradient x1="50%" y1="0%" x2="50%" y2="100%" id="linearGradient-18">
            <stop stop-color="#EEEEEE" stop-opacity="0" offset="0%"></stop>
            <stop stop-color="#54C6AC" stop-opacity="0.203804348" offset="100%"></stop>
        </linearGradient>
    </defs>
    <g id="Symbols" stroke="none" stroke-width="1" fill="none" fill-rule="evenodd">
        <g id="Waiting_02" transform="translate(-75.000000, 0.000000)">
            <g>
                <rect id="Rectangle-43" x="0" y="0" width="500" height="500"></rect>
                <path d="M263.000098,455.770418 C343.000033,457.256806 383,465 383,479 C383,500 303.059939,500 263,500 C222.940061,500 143,500 143,479 C143,465 183.000033,457.256806 263.000098,455.770418 Z" id="Triangle-2" fill="url(#linearGradient-1)"></path>
                <g id="Group" transform="translate(75.000000, 190.000000)">
                    <g id="Group-25">
                        <g id="Rectangle-35">
                            <use fill="black" fill-opacity="1" filter="url(#filter-3)" xlink:href="#path-2"></use>
                            <use stroke="#3390D5" stroke-width="2.4822695" xlink:href="#path-2"></use>
                        </g>
                        <rect id="Rectangle-34-Copy-2" fill="#C5E6FF" x="93.2634731" y="115.91074" width="41.9161677" height="7.33108108" rx="3.66554054"></rect>
                        <rect id="Rectangle-34-Copy-3" fill="#C5E6FF" x="93.2634731" y="130.572902" width="96.4071856" height="7.33108108" rx="3.66554054"></rect>
                        <rect id="Rectangle-33" stroke-opacity="0.370782382" stroke="#478AB3" stroke-width="1.24113475" opacity="0.699999988" x="26.8181722" y="26.8029998" width="314.178027" height="184.130487" rx="9.92907801"></rect>
                        <g id="Rectangle-33-Copy" opacity="0.699999988" stroke-dasharray="7.446808510638297,11.17021276595745">
                            <use fill="black" fill-opacity="1" filter="url(#filter-5)" xlink:href="#path-4"></use>
                            <use stroke-opacity="0.370782382" stroke="#3AA3E3" mask="url(#mask-6)" stroke-width="2.4822695" xlink:href="#path-4"></use>
                        </g>
                        <path d="M174.91239,211.194737 C174.91239,211.194737 145.57387,242.442889 101.957006,250.298661 L95.3592814,236.350468 C95.3592814,236.350468 132.215053,235.135249 169.868993,204.222973 L174.91239,211.194737 Z" id="Path-10" fill="#C1E0F4"></path>
                        <path d="M100.854789,236.087143 C100.854789,236.087143 88.1400763,230.310182 85.5658003,231.892639 C82.9915243,233.475097 86.4858974,240.556107 95.690005,240.556107 C104.894113,240.556107 100.854789,236.087143 100.854789,236.087143 Z" id="Path-11" fill="#44B8FF"></path>
                        <path d="M95.8483754,236.237009 L74.1295816,241.189986 L74.129579,241.189975 C72.1246673,241.647196 70.8700158,243.643148 71.3272365,245.64806 C71.4021761,245.97667 71.5213868,246.293583 71.6816021,246.590116 C75.4451502,253.555834 79.952601,257.038692 85.2039543,257.038692 C91.4575669,257.038692 98.1195651,254.080794 105.189949,248.164998 L95.8483754,236.237009 Z" id="Path-12" fill="#44B8FF"></path>
                        <rect id="Rectangle-13" fill="#3390D5" x="98.502994" y="234.594595" width="7.33532934" height="16.7567568" rx="3.66766467"></rect>
                        <path d="M152.994012,213.648649 C152.994012,213.648649 162.531049,216.36154 162.531049,222.960565" id="Path-13" stroke="#3390D5" stroke-width="1.24113475"></path>
                        <path d="M139.371257,223.074324 C139.371257,223.074324 144.613789,229.297073 144.613789,235.567935" id="Path-14" stroke="#3390D5" stroke-width="1.24113475"></path>
                        <path d="M122.17743,229.679034 C122.17743,229.679034 126.747208,239.364759 123.371102,245.551731" id="Path-15" stroke="#3390D5" stroke-width="1.24113475"></path>
                        <path d="M178.288773,203.431946 C178.288773,203.431946 165.273545,198.634528 162.30845,203.985321 C159.343356,209.336114 165.122126,216.744557 165.122126,216.744557 L178.288773,203.431946 Z" id="Path-9" fill="#3390D5"></path>
                        <path d="M187.050898,266.013514 C197.302011,266.013514 205.61218,263.669059 205.61218,260.777027 C205.61218,259.889821 206.006324,256.272802 204.626045,255.540541 C203.245767,254.808279 194.157216,255.540541 187.050898,255.540541 C180.298576,255.540541 173.84585,253.163371 170.598039,254.684241 C167.350228,256.205111 168.489617,259.789952 168.489617,260.777027 C168.489617,263.669059 176.799785,266.013514 187.050898,266.013514 Z" id="Oval-14-Copy" fill="#44B8FF"></path>
                        <ellipse id="Oval-14" fill="#3390D5" cx="187.050898" cy="256.587838" rx="18.5612817" ry="5.23648649"></ellipse>
                        <path d="M279.790419,211.194737 C279.790419,211.194737 250.451899,242.442889 206.835035,250.298661 L200.237311,236.350468 C200.237311,236.350468 237.093082,235.135249 274.747022,204.222973 L279.790419,211.194737 Z" id="Path-10" fill="#C1E0F4" transform="translate(240.013865, 227.260817) scale(-1, 1) translate(-240.013865, -227.260817) "></path>
                        <path d="M289.523757,236.087143 C289.523757,236.087143 276.809044,230.310182 274.234768,231.892639 C271.660492,233.475097 275.154865,240.556107 284.358973,240.556107 C293.563081,240.556107 289.523757,236.087143 289.523757,236.087143 Z" id="Path-11" fill="#44B8FF" transform="translate(281.909334, 236.087143) scale(-1, 1) translate(-281.909334, -236.087143) "></path>
                        <path d="M294.919094,236.237009 L273.200301,241.189986 L273.200298,241.189975 C271.195386,241.647196 269.940735,243.643148 270.397955,245.64806 C270.472895,245.97667 270.592106,246.293583 270.752321,246.590116 C274.515869,253.555834 279.02332,257.038692 284.274673,257.038692 C290.528286,257.038692 297.190284,254.080794 304.260668,248.164998 L294.919094,236.237009 Z" id="Path-12" fill="#44B8FF" transform="translate(287.110210, 246.637851) scale(-1, 1) translate(-287.110210, -246.637851) "></path>
                        <rect id="Rectangle-13" fill="#3390D5" transform="translate(272.979042, 242.972973) scale(-1, 1) translate(-272.979042, -242.972973) " x="269.311377" y="234.594595" width="7.33532934" height="16.7567568" rx="3.66766467"></rect>
                        <path d="M212.618652,213.648649 C212.618652,213.648649 222.155689,216.36154 222.155689,222.960565" id="Path-13" stroke="#3390D5" stroke-width="1.24113475" transform="translate(217.387170, 218.304607) scale(-1, 1) translate(-217.387170, -218.304607) "></path>
                        <path d="M230.535912,223.074324 C230.535912,223.074324 235.778443,229.297073 235.778443,235.567935" id="Path-14" stroke="#3390D5" stroke-width="1.24113475" transform="translate(233.157178, 229.321130) scale(-1, 1) translate(-233.157178, -229.321130) "></path>
                        <path d="M250.535371,229.679034 C250.535371,229.679034 255.105149,239.364759 251.729043,245.551731" id="Path-15" stroke="#3390D5" stroke-width="1.24113475" transform="translate(251.753821, 237.615382) scale(-1, 1) translate(-251.753821, -237.615382) "></path>
                        <path d="M213.687527,203.431946 C213.687527,203.431946 200.672299,198.634528 197.707205,203.985321 C194.74211,209.336114 200.52088,216.744557 200.52088,216.744557 L213.687527,203.431946 Z" id="Path-9" fill="#3390D5" transform="translate(205.274227, 209.099643) scale(-1, 1) translate(-205.274227, -209.099643) "></path>
                        <path d="M187.570727,202.128378 L187.570727,202.128378 L187.570727,202.128378 C200.188328,202.128378 210.416914,212.356965 210.416914,224.974565 C210.416914,225.705131 210.381872,226.435277 210.311907,227.162484 L209.387652,236.76917 L209.387652,236.76917 C208.306272,248.009015 198.862471,256.587838 187.570727,256.587838 L187.570727,256.587838 L187.570727,256.587838 C176.278983,256.587838 166.835183,248.009015 165.753802,236.76917 L164.829547,227.162484 L164.829547,227.162484 C163.621193,214.602878 172.823201,203.44174 185.382808,202.233385 C186.110016,202.163421 186.840161,202.128378 187.570727,202.128378 Z" id="Rectangle-3" fill="#44B8FF"></path>
                        <path d="M180.765092,213.648649 L193.824076,213.648649 L193.824076,213.648649 C199.297532,213.648649 203.734646,218.085762 203.734646,223.559219 C203.734646,224.098472 203.690633,224.636826 203.603046,225.168919 L203.603046,225.168919 L203.603046,225.168919 C202.509284,231.813549 196.76546,236.689189 190.03141,236.689189 L184.557758,236.689189 L184.557758,236.689189 C177.823708,236.689189 172.079884,231.813549 170.986122,225.168919 L170.986122,225.168919 L170.986122,225.168919 C170.097109,219.768143 173.754616,214.669261 179.155392,213.780248 C179.687485,213.692661 180.225839,213.648649 180.765092,213.648649 Z" id="Rectangle-3-Copy" fill="#3390D5"></path>
                        <rect id="Rectangle-2" fill="#3390D5" x="135.179641" y="147.668919" width="32.4850299" height="27.2297297" rx="13.6148649"></rect>
                        <rect id="Rectangle-31" fill="#F8F8F8" x="181.287425" y="191.074631" width="11.5269461" height="18.9370393" rx="5.76347305"></rect>
                        <rect id="Rectangle-31-Copy" fill="#EAEAEA" x="181.287425" y="187.466216" width="11.5269461" height="18.9370393" rx="5.76347305"></rect>
                        <rect id="Rectangle-2-Copy" fill="#3390D5" x="205.389222" y="147.668919" width="32.4850299" height="27.2297297" rx="13.6148649"></rect>
                        <rect id="Rectangle" fill="#44B8FF" x="145.658683" y="121.486486" width="82.7844311" height="78.5472973" rx="23.5815603"></rect>
                        <path d="M228.443114,156.047297 L228.443114,180.136843 C228.443114,191.12562 219.524764,200.033784 208.535185,200.033784 L165.566612,200.033784 C154.571766,200.033784 145.658683,191.118961 145.658683,180.136843 L145.658683,156.047297 L145.658683,170.711167 C145.658683,181.693285 154.571766,190.608108 165.566612,190.608108 L208.535185,190.608108 C219.524764,190.608108 228.443114,181.699944 228.443114,170.711167 L228.443114,156.047297 Z" id="Combined-Shape" fill="#3390D5"></path>
                        <path d="M177.4917,171.004733 C179.719506,178.634469 183.561821,182.449337 189.018646,182.449337 C194.475472,182.449337 198.317787,178.634469 200.545593,171.004733 C194.11804,172.04482 190.275725,172.564863 189.018646,172.564863 C187.761568,172.564863 183.919253,172.04482 177.4917,171.004733 Z" id="Combined-Shape" fill="#38475B"></path>
                        <path d="M197.000138,179.218495 C195.679172,180.841775 193.34794,182.449337 189.295338,182.449337 C187.274996,182.449337 185.683062,182.050818 184.431138,181.450512 C185.698832,178.813597 188.396313,176.993243 191.519207,176.993243 C193.650878,176.993243 195.584334,177.841411 197.000138,179.218495 Z" id="Combined-Shape" fill="#FFACAF"></path>
                        <ellipse id="Oval-2" fill="#3AA3E3" cx="190.718563" cy="153.952703" rx="15.7185629" ry="15.7094595"></ellipse>
                        <ellipse id="Oval-2-Copy" fill="#FFFFFF" cx="187.57485" cy="150.810811" rx="15.7185629" ry="15.7094595"></ellipse>
                        <ellipse id="Oval-12" stroke="#3390D5" stroke-width="1.24113475" fill="#3AA3E3" cx="187.050898" cy="145.050676" rx="6.81137725" ry="6.80743243"></ellipse>
                        <ellipse id="Oval-13" fill="#FFFFFF" cx="190.718563" cy="141.385135" rx="3.14371257" ry="3.14189189"></ellipse>
                        <path d="M164.081599,121.260155 L170.782908,117.895124 L170.782908,117.895124 C172.008043,117.279928 172.502496,115.788046 171.8873,114.562911 C171.862885,114.514289 171.836877,114.466482 171.80932,114.419569 L171.406592,113.733973 L171.406592,113.733973 C170.712231,112.551906 169.191085,112.156542 168.009018,112.850904 C167.873996,112.930217 167.746783,113.022129 167.629078,113.125411 L161.915849,118.138583 L161.915849,118.138583 C161.194369,118.771659 161.063625,119.8457 161.612157,120.633374 L161.612157,120.633374 L161.612157,120.633374 C162.164983,121.427213 163.217105,121.694257 164.081599,121.260155 Z" id="Path-4" fill="#38475B"></path>
                        <path d="M202.62323,116.986941 L209.79281,113.353114 L209.79281,113.353114 C211.015634,112.733339 211.504501,111.239617 210.884725,110.016792 C210.831271,109.911326 210.770349,109.809813 210.702425,109.71303 L210.286556,109.120471 L210.286556,109.120471 C209.499017,107.998328 207.950915,107.727079 206.828773,108.514618 C206.755419,108.566099 206.684907,108.621514 206.617546,108.680621 L200.435653,114.105031 L200.435653,114.105031 C199.920423,114.557129 199.869244,115.341303 200.321342,115.856534 C200.333493,115.870381 200.34595,115.883957 200.358705,115.89725 L201.166585,116.739193 L201.166585,116.739193 C201.544731,117.133284 202.13606,117.233858 202.62323,116.986941 Z" id="Path-4-Copy-2" fill="#38475B" transform="translate(205.665259, 112.458957) scale(-1, 1) rotate(10.000000) translate(-205.665259, -112.458957) "></path>
                        <ellipse id="Oval-3" fill="#FFFFFF" cx="198.053892" cy="240.878378" rx="3.14371257" ry="3.14189189"></ellipse>
                        <path d="M189.721401,278.966473 C199.215994,275.67902 206.407144,271.022124 205.791202,269.22334 C205.175261,267.424556 196.65736,268.206835 187.162767,271.494288 C177.668174,274.781741 170.477024,279.438637 171.092965,281.237421 C171.708907,283.036206 180.226808,282.253926 189.721401,278.966473 Z M189.967785,279.686007 C179.990943,283.140436 171.220036,283.945952 170.377415,281.485177 C169.534794,279.024402 176.939542,274.229182 186.916383,270.774754 C196.893224,267.320325 205.664132,266.51481 206.506753,268.975584 C207.349374,271.436359 199.944626,276.231579 189.967785,279.686007 Z" id="Oval-5" fill-opacity="0.370782382" fill="#3AA3E3" fill-rule="nonzero" transform="translate(188.442084, 275.230381) rotate(22.000000) translate(-188.442084, -275.230381) "></path>
                        <path d="M189.778713,285.420531 C201.533536,281.350486 210.397119,275.600183 209.586544,273.232996 C208.775969,270.865809 198.270733,271.821858 186.51591,275.891903 C174.761087,279.961949 165.897504,285.712251 166.708079,288.079438 C167.518654,290.446625 178.02389,289.490577 189.778713,285.420531 Z M190.025097,286.140065 C177.789348,290.376629 167.029601,291.35584 165.992529,288.327194 C164.955457,285.298548 174.033777,279.408932 186.269526,275.172369 C198.505275,270.935805 209.265022,269.956595 210.302094,272.985241 C211.339166,276.013886 202.260846,281.903502 190.025097,286.140065 Z" id="Oval-5-Copy" fill-opacity="0.370782382" fill="#3AA3E3" fill-rule="nonzero" transform="translate(188.147312, 280.656217) rotate(22.000000) translate(-188.147312, -280.656217) "></path>
                        <path d="M190.215389,294.044129 C204.799545,288.994441 215.737059,281.842094 214.666415,278.715406 C213.595771,275.588717 200.597849,276.723889 186.013692,281.773576 C171.429536,286.823264 160.492022,293.97561 161.562666,297.102299 C162.63331,300.228987 175.631232,299.093816 190.215389,294.044129 Z M190.461772,294.763663 C175.40239,299.977895 162.143456,301.135862 160.847116,297.350054 C159.550775,293.564247 170.707926,286.268274 185.767309,281.054042 C200.826692,275.83981 214.085625,274.681843 215.381965,278.46765 C216.678306,282.253458 205.521155,289.549431 190.461772,294.763663 Z" id="Oval-5-Copy-2" fill-opacity="0.370782382" fill="#3AA3E3" fill-rule="nonzero" transform="translate(188.114541, 287.908852) rotate(22.000000) translate(-188.114541, -287.908852) "></path>
                        <g id="Oval-15" opacity="0.699999988" stroke-dasharray="7.446808510638297,11.17021276595745">
                            <use fill="black" fill-opacity="1" filter="url(#filter-8)" xlink:href="#path-7"></use>
                            <use stroke-opacity="0.370782382" stroke="#3AA3E3" mask="url(#mask-9)" stroke-width="2.4822695" xlink:href="#path-7"></use>
                        </g>
                        <g id="Oval-16">
                            <use fill="black" fill-opacity="1" filter="url(#filter-11)" xlink:href="#path-10"></use>
                            <use stroke="#3390D5" stroke-width="2.4822695" xlink:href="#path-10"></use>
                        </g>
                        <rect id="Rectangle-34" fill="#C5E6FF" x="93.2634731" y="61.7905405" width="41.9161677" height="7.33108108" rx="3.66554054"></rect>
                        <rect id="Rectangle-34-Copy" fill="#C5E6FF" x="93.2634731" y="76.4527027" width="96.4071856" height="7.33108108" rx="3.66554054"></rect>
                        <rect id="Rectangle-34-Copy-4" fill="#C5E6FF" x="215.868263" y="99.4932432" width="88.0239521" height="7.33108108" rx="3.66554054"></rect>
                        <rect id="Rectangle-34-Copy-5" fill="#C5E6FF" x="215.868263" y="112.060811" width="88.0239521" height="7.33108108" rx="3.66554054"></rect>
                        <rect id="Rectangle-34-Copy-6" fill="#C5E6FF" x="273.502994" y="166.52027" width="30.3892216" height="7.33108108" rx="3.66554054"></rect>
                        <g id="Rectangle-36" opacity="0.699999988">
                            <use fill="black" fill-opacity="1" filter="url(#filter-13)" xlink:href="#path-12"></use>
                            <rect stroke-opacity="0.370782382" stroke="#3AA3E3" stroke-width="1.24113475" x="274.123561" y="42.5124593" width="75.2558712" height="42.7453517" rx="3.72340426"></rect>
                        </g>
                        <g id="Rectangle-36-Copy" opacity="0.699999988">
                            <use fill="black" fill-opacity="1" filter="url(#filter-15)" xlink:href="#path-14"></use>
                            <rect stroke-opacity="0.370782382" stroke="#3AA3E3" stroke-width="1.24113475" x="132.656496" y="10.0462431" width="156.992398" height="43.792649" rx="3.72340426"></rect>
                        </g>
                        <g id="Path-43">
                            <use fill="black" fill-opacity="1" filter="url(#filter-17)" xlink:href="#path-16"></use>
                            <use stroke="#54C6AC" stroke-width="2.4822695" xlink:href="#path-16"></use>
                        </g>
                    </g>
                </g>
                <path d="M263,0 C342.945662,319.333333 382.945662,479 383,479 C383.144573,500 303.059939,500 263,500 C222.940061,500 143,500 143,479 C143,465 183,305.333333 263,0 Z" id="Triangle-2" fill="url(#linearGradient-18)"></path>
            </g>
        </g>
    </g>
</svg>