<?xml version="1.0" encoding="UTF-8" standalone="no"?>
<svg width="500px" height="500px" viewBox="0 0 500 500" version="1.1" xmlns="http://www.w3.org/2000/svg" xmlns:xlink="http://www.w3.org/1999/xlink">
    <!-- Generator: Sketch 43.1 (39012) - http://www.bohemiancoding.com/sketch -->
    <title>Wechat</title>
    <desc>Created with Sketch.</desc>
    <defs></defs>
    <g id="Page-1" stroke="none" stroke-width="1" fill="none" fill-rule="evenodd">
        <g id="Logos-Couleur" transform="translate(-30453.000000, -381.000000)" fill-rule="nonzero" fill="#2DC100">
            <path d="M30953,806 C30953,847.423333 30919.4217,881 30878,881 L30528,881 C30486.5767,881 30453,847.423333 30453,806 L30453,456 C30453,414.578333 30486.5783,381 30528,381 L30878,381 C30919.4217,381 30953,414.578333 30953,456 L30953,806 Z M30787.6717,567.466667 C30785.38,542.953333 30776.7083,522.226667 30762.5667,503.76 C30723.4117,452.636667 30651.0467,431.181667 30586.655,452.215 C30539.4783,467.626667 30504.7583,497.191667 30490.62,545.941667 C30475.3383,598.638333 30495.7583,649.823333 30544.2017,684.025 C30551.7467,689.358333 30552.8883,693.916667 30550.4233,702.106667 C30547.0717,713.25 30545.1783,724.835 30542.2533,738.065 C30558.195,728.1 30571.645,719.161667 30585.675,711.245 C30589.9017,708.86 30595.8233,708.263333 30600.8133,708.683333 C30615.2617,709.9 30629.6283,712.05 30645.4017,714.003333 C30641.81,671.586667 30654.95,637.37 30683.735,609.446667 C30712.225,581.808333 30747.3167,569.575 30787.6717,567.466667 Z M30601.9433,551.046667 C30601.5683,560.923333 30593.0667,568.695 30582.925,568.438333 C30572.695,568.178333 30564.9367,560.05 30565.2367,549.906667 C30565.5333,539.898333 30573.8867,532.136667 30584.0433,532.435 C30593.9633,532.725 30602.315,541.408333 30601.9433,551.046667 Z M30698.845,532.428333 C30708.9767,532.243333 30717.1933,540.173333 30717.2783,550.226667 C30717.375,560.468333 30709.59,568.398333 30699.325,568.521667 C30689.0867,568.645 30680.8333,560.798333 30680.6517,550.768333 C30680.475,541.091667 30688.8883,532.611667 30698.845,532.428333 Z M30878.335,819.05 L30878.335,819.05 C30877.48,815.656667 30877.3117,812.255 30875.8383,809.568333 C30867.8567,795.016667 30872.3333,785.933333 30884.7733,774.895 C30927.7633,736.755 30931.9017,676.488333 30896.6867,631.088333 C30856.3333,579.06 30772.395,566.56 30715.16,604.056667 C30650.7617,646.246667 30642.8083,725.186667 30698.47,776.67 C30727.7367,803.735 30763.23,814.776667 30802.8483,810.723333 C30815.855,809.393333 30828.9233,802.221667 30841.355,803.52 C30853.835,804.823333 30865.5567,813.36 30878.335,819.05 Z M30732.8783,678.218333 C30724.8017,678.208333 30718.0567,671.731667 30717.78,663.725 C30717.4867,655.345 30724.5517,648.11 30732.985,648.148333 C30741.5033,648.183333 30748.345,655.318333 30748.02,663.825 C30747.7117,671.86 30741.0133,678.226667 30732.8783,678.218333 Z M30826.6467,648.181667 C30835.0467,648.24 30841.6783,655.298333 30841.3617,663.846667 C30841.065,671.97 30834.615,678.143333 30826.4517,678.116667 C30818.0117,678.095 30811.3833,671.091667 30811.725,662.563333 C30812.0467,654.588333 30818.7533,648.126667 30826.6467,648.181667 Z" id="Wechat"></path>
        </g>
    </g>
</svg>