<?xml version="1.0" encoding="UTF-8"?><!DOCTYPE svg PUBLIC "-//W3C//DTD SVG 1.1//EN" "http://www.w3.org/Graphics/SVG/1.1/DTD/svg11.dtd"><svg xmlns="http://www.w3.org/2000/svg" class="showtix-to-hide"><symbol id="icon-calendar" viewBox="0 0 58 58"><path d="M46 33.5c-6.617 0-12 5.383-12 12s5.383 12 12 12 12-5.383 12-12-5.383-12-12-12zm0 22c-5.514 0-10-4.486-10-10s4.486-10 10-10 10 4.486 10 10-4.486 10-10 10z"/><path d="M52 44.5h-5v-5a1 1 0 1 0-2 0v6a1 1 0 0 0 1 1h6a1 1 0 1 0 0-2zM18.058 40.578V17.5h-2L11 20.5v2l5.058-3v21.078zM36.058 32.184v-7.345c0-2.042-.712-3.773-2.134-5.196-1.423-1.423-3.149-2.134-5.18-2.134s-3.757.711-5.179 2.134c-1.423 1.423-2.134 3.148-2.134 5.179s.711 3.757 2.134 5.18c1.422 1.423 3.183 2.134 5.282 2.134s3.871-.78 5.316-2.341v2.148c0 2.157-.631 3.791-1.893 4.904-1.262 1.112-2.753 1.669-4.474 1.669h-.74v1.893h.603c1.537 0 2.879-.27 4.026-.809s2.019-1.233 2.615-2.082c1.173-1.652 1.758-3.43 1.758-5.334zm-3.459-3.508c-1.044 1.044-2.323 1.565-3.837 1.565-1.515 0-2.8-.521-3.854-1.565-1.056-1.044-1.583-2.323-1.583-3.837 0-1.515.527-2.799 1.583-3.854 1.055-1.055 2.334-1.583 3.837-1.583s2.782.511 3.837 1.531c1.056 1.021 1.583 2.306 1.583 3.854s-.522 2.845-1.566 3.889z"/><path d="M28 45.5H2v-33h47v16a1 1 0 1 0 2 0V.5H0v46a1 1 0 0 0 1 1h27a1 1 0 1 0 0-2zm7-43h14v8H35v-8zm-16 0h14v8H19v-8zm-17 0h15v8H2v-8z"/></symbol><symbol id="icon-call-center" viewBox="0 0 480.542 480.542"><path d="M89.104 219.999h26.626c17.666 51.873 66.863 89.289 124.637 89.289 41.424 0 78.433-19.241 102.577-49.248h34.228c6.352 0 11.5-5.148 11.5-11.5v-28.541h5.184c12.474 0 22.621-10.148 22.621-22.622V139.54c0-11.022-7.926-20.224-18.376-22.217-7.547-34.184-26.132-63.235-54.028-84.307C315.476 11.417 279.615 0 240.366 0 160.701 0 97.864 47.184 82.511 117.9c-9.268 2.83-16.029 11.459-16.029 21.64v57.837c0 12.474 10.148 22.622 22.622 22.622zm.378-23v-57.081h24.789a131.198 131.198 0 0 0-5.525 37.748c0 6.567.49 13.021 1.423 19.333H89.482zm150.884 89.289c-59.894 0-108.621-48.728-108.621-108.622s48.727-108.62 108.621-108.62c59.895 0 108.622 48.727 108.622 108.62 0 21.898-6.52 42.297-17.709 59.374h-97.586c-6.351 0-11.5 5.149-11.5 11.5 0 6.352 5.149 11.5 11.5 11.5h77.398c-19.018 16.351-43.736 26.248-70.725 26.248zm125.305-49.248h-7.857a130.924 130.924 0 0 0 7.189-17.041h.667v17.041zm27.805-40.041h-22.91a132.128 132.128 0 0 0 1.423-19.333c0-13.115-1.938-25.785-5.525-37.748h27.013v57.081zM240.366 23c66.29 0 118.756 37.303 133.954 93.918h-17.217c-21.988-42.08-66.06-70.872-116.737-70.872-50.676 0-94.748 28.792-116.736 70.872h-17.22C121.593 60.338 174.166 23 240.366 23zM358.477 314.352H122.065c-36.506 0-66.206 29.699-66.206 66.205v88.484c0 6.352 5.149 11.5 11.5 11.5s11.5-5.148 11.5-11.5v-88.484c0-23.823 19.382-43.205 43.206-43.205h236.412c23.824 0 43.207 19.382 43.207 43.206v88.484c0 6.352 5.148 11.5 11.5 11.5s11.5-5.148 11.5-11.5v-88.484c0-36.506-29.7-66.206-66.207-66.206z"/></symbol><symbol id="icon-canada" viewBox="0 0 445 445"><g><path d="M117.8 70h-7.5v263.8c39-1.5 77.3 9.7 114.8 21 36.8 11.2 73.5 21.7 110.3 19.5v-263c-77.3 1.4-145.5-39.8-217.6-41.3zm162.1 179.7l-24.8 9.7v20.2l-27.8-12.7v33h-15v-33l-27 12.7v-20.2l-25.5-9.7 12.8-17.2-17.3-27.7h30v-32.2h17.3l17.3-27.7 18 27.7h17.3v32.2h30l-17.3 27.7 12 17.2zM0 368.2c6-3 13.5-6.7 30-14.2 20.3-8.2 45-17.2 65.3-20.2V70C60 76.7 30.8 91.7 0 105.9v262.3zM350.4 111.2V375c34.6-6.8 63.8-22.5 94.6-36V76.7c-30 15-60 27-94.6 34.5z"/></g></symbol><symbol id="icon-check-sign-in-a-rounded-black-square" viewBox="0 0 438.536 438.536"><path d="M414.41 24.123C398.333 8.042 378.963 0 356.315 0H82.228C59.58 0 40.21 8.042 24.126 24.123 8.045 40.207.003 59.576.003 82.225v274.084c0 22.647 8.042 42.018 24.123 58.102 16.084 16.084 35.454 24.126 58.102 24.126h274.084c22.648 0 42.018-8.042 58.095-24.126 16.084-16.084 24.126-35.454 24.126-58.102V82.225c-.001-22.649-8.043-42.021-24.123-58.102zm-43.53 134.901l-175.307 175.3c-3.615 3.614-7.898 5.428-12.85 5.428-4.95 0-9.233-1.807-12.85-5.421L67.663 232.118c-3.616-3.62-5.424-7.898-5.424-12.848 0-4.949 1.809-9.233 5.424-12.847l29.124-29.124c3.617-3.616 7.895-5.424 12.847-5.424s9.235 1.809 12.851 5.424l60.242 60.24 133.334-133.333c3.606-3.617 7.898-5.424 12.847-5.424 4.945 0 9.227 1.807 12.847 5.424l29.126 29.125c3.61 3.615 5.421 7.898 5.421 12.847s-1.812 9.233-5.422 12.846z"/></symbol><symbol id="icon-coin" viewBox="0 0 212.755 212.755"><g><path d="M106.377 0C47.721 0 0 47.721 0 106.377s47.721 106.377 106.377 106.377 106.377-47.721 106.377-106.377S165.034 0 106.377 0zm0 198.755C55.44 198.755 14 157.314 14 106.377S55.44 14 106.377 14s92.377 41.44 92.377 92.377-41.44 92.378-92.377 92.378z"/><path d="M113.377 100.096V60.352a20.136 20.136 0 0 1 9.82 7.82 7 7 0 0 0 11.692-7.699 34.073 34.073 0 0 0-21.512-14.647v-11.12a7 7 0 1 0-14 0v11.099c-15.493 3.23-27.168 16.989-27.168 33.426s11.676 30.198 27.168 33.428v39.744a20.136 20.136 0 0 1-9.82-7.82 7 7 0 1 0-11.692 7.699 34.073 34.073 0 0 0 21.512 14.647v11.119a7 7 0 1 0 14 0V166.95c15.493-3.23 27.168-16.989 27.168-33.426s-11.675-30.198-27.168-33.428zM86.209 79.231c0-8.653 5.494-16.027 13.168-18.874v37.748c-7.674-2.847-13.168-10.221-13.168-18.874zm27.168 73.166v-37.748c7.674 2.847 13.168 10.221 13.168 18.874s-5.493 16.027-13.168 18.874z"/></g></symbol><symbol id="icon-computer-mouse-cursor" viewBox="0 0 463.721 463.721"><path d="M407.453 224.871c.85-6.517-1.983-13.317-7.65-16.717L82.186 2.737c-5.1-3.4-11.9-3.683-17.283-.567-5.383 3.117-8.783 8.783-8.783 15.017V380.42c0 6.517 3.683 12.183 9.35 15.3 5.667 2.833 12.75 2.267 17.85-1.7l90.1-67.433 82.45 129.2c3.117 5.1 8.783 7.933 14.45 7.933 2.833 0 5.95-.85 8.5-2.267l84.15-48.733c3.967-2.267 6.8-6.233 7.933-10.767 1.133-4.533.283-9.35-2.267-13.033l-76.783-120.983 103.7-29.183c6.233-1.983 11.05-7.367 11.9-13.883zm-147.05 16.433c-5.1 1.417-9.35 5.383-11.333 10.2a17.14 17.14 0 0 0 1.417 15.3l79.333 125.233-54.683 31.733-83.017-130.9c-2.55-3.967-6.517-6.8-11.333-7.65-1.133-.283-1.983-.283-3.117-.283-3.683 0-7.083 1.133-10.2 3.4L89.837 346.42V48.354l260.1 168.017-89.534 24.933z"/></symbol><symbol id="icon-credit-card" viewBox="0 0 469.334 469.334"><path d="M467.073 366.761c-.313-.396-30.948-39.802-40.906-71.302-2.365-7.5-5.313-18.063-8.698-30.156-16.198-57.917-30.927-107.177-47.26-123.51-17.697-17.697-86.094-29.505-114.208-33.71V42.667C256 19.136 236.865 0 213.333 0H42.667C19.135 0 0 19.136 0 42.667v298.667C0 364.865 19.135 384 42.667 384h170.667c4.608 0 9.057-1.023 13.411-2.522 9.288 8.617 19.809 15.174 30.839 21.855 21.74 13.188 44.229 26.823 63.854 60.688a10.663 10.663 0 0 0 9.229 5.313c101.5 0 137.604-91.26 137.958-92.188a10.662 10.662 0 0 0-1.552-10.385zm-424.406-4.094c-11.76 0-21.333-9.573-21.333-21.333V42.667c0-11.76 9.573-21.333 21.333-21.333v341.333zM256 197.088l33.802 13.527c1.656 5.792 4.458 15.167 7.271 22.479-1.292 2.292-2.406 4.833-3.594 7.542-1.938 4.417-4.052 9.24-7.01 12.99-10.676-7.609-21.514-23.741-30.469-40.88v-15.658zM85.333 362.667H64V21.334h21.333v341.333zm21.334 0V21.334h106.667c11.76 0 21.333 9.573 21.333 21.333v127.898c-13.313-19.535-35.758-42.634-56.104-46.773-10.208-2.125-19.229.448-26.104 7.333-25.688 25.688-10.979 69.344 9.427 98.927 16.333 23.677 28.448 51.656 30.167 69.625.281 2.99.406 5.823.542 8.615.664 14.244 1.563 29.073 18.513 54.375H106.667zm229.958 85.208c-21.698-34.719-47.25-50.208-67.979-62.781-14.542-8.813-27.094-16.427-36.021-28.698-17.563-24.156-18.073-35.156-18.719-49.094-.146-3.135-.302-6.313-.625-9.646-2.052-21.604-15.333-52.896-33.833-79.708-16.448-23.844-27.177-56.458-11.906-71.74 1.24-1.25 2.896-2.271 6.76-1.521 16.719 3.406 43.688 34.49 50.469 51.302 8.167 20.219 30.271 68.542 59.135 80.531 3.281 1.333 7.042.99 10.01-.979 10.667-7.104 15.531-18.219 19.094-26.333 1.031-2.333 2.427-5.542 2.396-5.771a10.666 10.666 0 0 0 3.469-13.542c-3.25-6.49-8.25-23.854-9.906-30a10.679 10.679 0 0 0-6.344-7.135L256 174.111v-44.413c38.766 6 89.074 17.135 99.125 27.177 13.708 13.708 31.292 76.594 41.802 114.167 3.458 12.375 6.479 23.177 8.906 30.833 8.938 28.333 31.375 60.458 40.51 72.833-8.405 17.042-40.166 70.271-109.718 73.167z"/></symbol><symbol id="icon-cursor" viewBox="0 0 297 297"><g><path d="M294.077 251.199l-59.104-59.106 42.166-24.357a9.93 9.93 0 0 0 4.938-9.316 9.926 9.926 0 0 0-6.225-8.51L87.82 74.905a9.93 9.93 0 0 0-12.905 12.903l74.994 188.053a9.933 9.933 0 0 0 17.827 1.287l24.353-42.166 59.102 59.107a9.926 9.926 0 0 0 14.045 0l28.841-28.844c3.879-3.879 3.879-10.167 0-14.046zm-35.863 21.823l-61.229-61.235a9.931 9.931 0 0 0-15.624 2.056l-20.584 35.642-58.849-147.564 147.549 58.857-35.645 20.588a9.93 9.93 0 0 0-2.056 15.624l61.232 61.235-14.794 14.797zM43.611 29.552c-3.88-3.876-10.166-3.876-14.048 0-3.879 3.88-3.879 10.168 0 14.048l22.069 22.069a9.908 9.908 0 0 0 7.024 2.909 9.91 9.91 0 0 0 7.023-2.909c3.878-3.879 3.878-10.168 0-14.047l-22.068-22.07zM51.089 98.215c0-5.485-4.448-9.931-9.933-9.931H9.946c-5.484 0-9.933 4.445-9.933 9.931 0 5.484 4.448 9.932 9.933 9.932h31.21c5.485-.001 9.933-4.448 9.933-9.932zM47.063 128.87l-22.071 22.071c-3.88 3.877-3.88 10.166 0 14.045a9.898 9.898 0 0 0 7.023 2.909c2.541 0 5.082-.97 7.021-2.909l22.072-22.07c3.879-3.878 3.879-10.168 0-14.046-3.877-3.878-10.165-3.878-14.045 0zM98.222 51.078c5.484 0 9.932-4.448 9.932-9.933V9.932c0-5.484-4.447-9.932-9.932-9.932s-9.931 4.447-9.931 9.932v31.214c0 5.484 4.445 9.932 9.931 9.932zM135.893 64.005a9.895 9.895 0 0 0 7.024-2.908l22.068-22.069c3.88-3.879 3.88-10.168 0-14.046-3.878-3.879-10.169-3.879-14.045 0l-22.069 22.069c-3.879 3.878-3.879 10.168 0 14.046a9.896 9.896 0 0 0 7.022 2.908z"/></g></symbol><symbol id="icon-decision-making" viewBox="0 0 297 297"><g><path d="M291.34 125.044l-23.281-23.281a8.611 8.611 0 0 0-12.177 12.177l8.677 8.677h-39.633c-3.976-35.54-32.276-63.816-67.815-67.795V29.397l8.583 8.583a8.585 8.585 0 0 0 6.089 2.521 8.611 8.611 0 0 0 6.089-14.698L154.589 2.521a8.613 8.613 0 0 0-12.177 0L119.13 25.802a8.611 8.611 0 0 0 12.177 12.177l8.583-8.583v25.425c-35.539 3.979-63.839 32.255-67.815 67.795H32.442l8.677-8.677a8.611 8.611 0 0 0-12.177-12.177L5.66 125.044a8.611 8.611 0 0 0 0 12.177l23.281 23.281c1.682 1.681 3.885 2.522 6.089 2.522s4.407-.841 6.089-2.522a8.611 8.611 0 0 0 0-12.177l-8.489-8.489h47.577a8.61 8.61 0 0 0 8.61-8.61c0-32.91 26.774-59.683 59.683-59.683s59.683 26.774 59.683 59.683a8.61 8.61 0 0 0 8.61 8.61h47.577l-8.489 8.489a8.611 8.611 0 0 0 12.178 12.177l23.281-23.281a8.611 8.611 0 0 0 0-12.177z"/><path d="M189.453 130.449c0-22.578-18.368-40.946-40.946-40.946s-40.946 18.368-40.946 40.946 18.368 40.946 40.946 40.946 40.946-18.368 40.946-40.946zM203.451 191.238l-.068-.022-21.657-3.586a3.63 3.63 0 0 0-4.476 2.227l-24.574 67.425c-1.417 3.89-6.919 3.89-8.336 0l-24.574-67.425a3.628 3.628 0 0 0-3.406-2.389c-.352 0-22.727 3.743-22.727 3.743-14.929 4.974-24.903 18.813-24.903 34.463v56.103c0 8.407 6.816 15.223 15.223 15.223H213.05c8.407 0 15.223-6.816 15.223-15.223v-56.289c-.002-15.582-10.015-29.399-24.822-34.25z"/><path d="M158.563 185.791c-1.063-1.159-2.618-1.742-4.191-1.742h-11.73c-1.573 0-3.127.583-4.191 1.742a5.442 5.442 0 0 0-.717 6.41l6.27 9.453-2.935 24.762 5.78 15.376c.564 1.546 2.75 1.546 3.314 0l5.78-15.376-2.935-24.762 6.27-9.453a5.439 5.439 0 0 0-.715-6.41z"/></g></symbol><symbol id="icon-donation" viewBox="0 0 300.346 300.346"><g><path d="M296.725 153.904a24.132 24.132 0 0 0-16.298-11.03c-6.753-1.189-13.704.559-19.14 4.835l-21.379 17.125a24.129 24.129 0 0 0-13.359-7.218 24.14 24.14 0 0 0-19.1 4.805l-12.552 9.921h-32.236a32.93 32.93 0 0 1-14.892-3.579l-11.486-5.861a63.82 63.82 0 0 0-31.385-6.908 63.748 63.748 0 0 0-40.554 16.666L2.455 229.328a7.56 7.56 0 0 0-.873 10.203l32.406 41.867a7.554 7.554 0 0 0 9.986 1.782l38.971-24.37a17.425 17.425 0 0 1 9.249-2.654h90.429c12.842 0 25.445-4.407 35.489-12.409l73.145-58.281c9.56-7.611 11.908-21.18 5.468-31.562zm-79.913 20.39a8.871 8.871 0 0 1 7.112-1.787 8.91 8.91 0 0 1 4.087 1.856l-12.645 10.129a23.048 23.048 0 0 0-4.282-5.672l5.728-4.526zm65.026-.654l-73.147 58.282a41.988 41.988 0 0 1-26.067 9.116h-90.43a32.536 32.536 0 0 0-17.266 4.954l-33.17 20.743-23.959-30.955 56.755-51.969a48.612 48.612 0 0 1 30.924-12.708 48.67 48.67 0 0 1 23.932 5.268l11.486 5.861a48.114 48.114 0 0 0 21.763 5.231h32.504c4.278 0 7.757 3.48 7.757 7.758a7.765 7.765 0 0 1-7.308 7.745l-90.45 5.252a7.56 7.56 0 0 0-7.11 7.985 7.552 7.552 0 0 0 7.986 7.109l90.45-5.252c9.461-.549 17.317-6.817 20.283-15.321l53.916-43.189a8.876 8.876 0 0 1 7.114-1.787 8.871 8.871 0 0 1 6.074 4.111 8.985 8.985 0 0 1-2.037 11.766zM148.558 131.669c31.886 0 57.827-25.941 57.827-57.827s-25.941-57.827-57.827-57.827-57.827 25.94-57.827 57.827 25.941 57.827 57.827 57.827zm0-100.534c23.549 0 42.707 19.159 42.707 42.707 0 23.549-19.159 42.707-42.707 42.707-23.549 0-42.707-19.159-42.707-42.707 0-23.549 19.159-42.707 42.707-42.707z"/><path d="M147.213 87.744c-2.24 0-4.618-.546-6.698-1.538a5.052 5.052 0 0 0-4.098-.105 5.156 5.156 0 0 0-2.884 3.02l-.204.569c-.87 2.434.204 5.131 2.501 6.274 2.129 1.06 4.734 1.826 7.398 2.182v2.162c0 2.813 2.289 5.101 5.171 5.101a5.107 5.107 0 0 0 5.102-5.101v-2.759c6.712-2.027 11.018-7.542 11.018-14.188 0-9.156-6.754-13.085-12.625-15.479-6.355-2.63-6.832-3.78-6.832-5.234 0-1.914 1.664-3.058 4.453-3.058 2.043 0 3.883.366 5.63 1.121a5.002 5.002 0 0 0 3.966.009 5.144 5.144 0 0 0 2.79-2.901l.204-.541c.97-2.56-.228-5.41-2.726-6.487-1.676-.723-3.51-1.229-5.46-1.508v-1.908a5.108 5.108 0 0 0-5.102-5.102 5.107 5.107 0 0 0-5.101 5.102v2.549c-6.511 1.969-10.53 7.12-10.53 13.561 0 8.421 6.76 12.208 13.342 14.789 5.579 2.262 6.045 4.063 6.045 5.574-.001 2.876-2.887 3.896-5.36 3.896z"/></g></symbol><symbol id="icon-exclamation" viewBox="0 0 401.999 401.998"><path d="M237.543 301.499h-73.091c-4.95 0-9.233 1.811-12.851 5.425-3.615 3.617-5.424 7.897-5.424 12.847v63.953c0 4.948 1.809 9.232 5.424 12.854 3.621 3.61 7.9 5.421 12.851 5.421h73.097c4.942 0 9.227-1.811 12.848-5.421 3.61-3.621 5.42-7.905 5.42-12.854v-63.953c0-4.949-1.813-9.229-5.427-12.847-3.617-3.617-7.902-5.425-12.847-5.425zM259.383 5.424C255.862 1.812 251.628 0 246.676 0h-91.359c-4.948 0-9.18 1.812-12.703 5.424-3.521 3.617-5.186 7.902-4.996 12.85l7.992 219.265c.19 4.948 2.139 9.236 5.852 12.847 3.711 3.621 8.041 5.431 12.991 5.431h73.097c4.942 0 9.271-1.81 12.991-5.431 3.71-3.61 5.653-7.898 5.852-12.847l7.987-219.265c.198-4.948-1.475-9.229-4.997-12.85z"/></symbol><symbol id="icon-facebook" viewBox="0 0 96.124 96.123"><path d="M72.089.02L59.624 0C45.62 0 36.57 9.285 36.57 23.656v10.907H24.037a1.96 1.96 0 0 0-1.96 1.961v15.803a1.96 1.96 0 0 0 1.96 1.96H36.57v39.876a1.96 1.96 0 0 0 1.96 1.96h16.352a1.96 1.96 0 0 0 1.96-1.96V54.287h14.654a1.96 1.96 0 0 0 1.96-1.96l.006-15.803a1.963 1.963 0 0 0-1.961-1.961H56.842v-9.246c0-4.444 1.059-6.7 6.848-6.7l8.397-.003a1.96 1.96 0 0 0 1.959-1.96V1.98A1.96 1.96 0 0 0 72.089.02z"/></symbol><symbol id="icon-file" viewBox="0 0 60 60"><g><path d="M42.5 22h-25a1 1 0 1 0 0 2h25a1 1 0 1 0 0-2zM17.5 16h10a1 1 0 1 0 0-2h-10a1 1 0 1 0 0 2zM42.5 30h-25a1 1 0 1 0 0 2h25a1 1 0 1 0 0-2zM42.5 38h-25a1 1 0 1 0 0 2h25a1 1 0 1 0 0-2zM42.5 46h-25a1 1 0 1 0 0 2h25a1 1 0 1 0 0-2z"/><path d="M38.914 0H6.5v60h47V14.586L38.914 0zm.586 3.414L50.086 14H39.5V3.414zM8.5 58V2h29v14h14v42h-43z"/></g></symbol><symbol id="icon-free" viewBox="0 0 469.333 469.333"><g><path d="M451.125 222.708L250.292 21.875C236.396 7.979 217.167 0 197.5 0H42.667C19.146 0 0 19.135 0 42.667V197.49c0 19.927 7.771 38.688 21.875 52.802l200.833 200.833c11.75 11.74 27.375 18.208 43.958 18.208s32.208-6.469 43.958-18.208l140.5-140.5c11.75-11.729 18.208-27.344 18.208-43.958s-6.457-32.23-18.207-43.959zm-335.624-92.119l-22.626 22.63a10.634 10.634 0 0 1-7.542 3.125 10.636 10.636 0 0 1-7.542-3.125c-4.167-4.167-4.167-10.917 0-15.083l30.156-30.161s.005-.01.01-.016c.005-.005.01-.005.01-.005l30.156-30.161c4-4 11.083-4 15.083 0l30.167 30.167c4.167 4.167 4.167 10.917 0 15.083-4.167 4.167-10.917 4.167-15.083 0l-22.625-22.625-15.083 15.086 15.083 15.091c4.167 4.167 4.167 10.917 0 15.083a10.634 10.634 0 0 1-7.542 3.125 10.636 10.636 0 0 1-7.542-3.125l-15.08-15.089zm60.332 116.265a10.636 10.636 0 0 1-7.542-3.125c-4.167-4.167-4.167-10.927 0-15.083l15.104-15.094c4.146-4.156 4.146-10.927 0-15.094l-7.563-7.531-22.625 22.625c-4.167 4.167-10.917 4.167-15.083 0-4.167-4.167-4.167-10.917 0-15.083l29.896-29.875c.083-.104.167-.198.271-.292.083-.094.188-.188.292-.281l29.896-29.885c4.167-4.167 10.917-4.167 15.083 0l15.083 15.083c12.479 12.479 12.479 32.771 0 45.25-5.625 5.625-12.979 8.906-20.875 9.323-.417 7.594-3.521 15.063-9.292 20.844l-15.104 15.094a10.633 10.633 0 0 1-7.541 3.124zm67.896 42.125c4.167 4.167 4.167 10.917 0 15.083a10.634 10.634 0 0 1-7.542 3.125 10.636 10.636 0 0 1-7.542-3.125l-30.167-30.167c-4.167-4.167-4.167-10.917 0-15.083l60.333-60.344c2-2 4.708-3.125 7.542-3.125s5.542 1.125 7.542 3.125l30.167 30.177c4.167 4.167 4.167 10.917 0 15.083-4.167 4.167-10.917 4.167-15.083 0l-22.625-22.635-15.087 15.09 15.087 15.087c4.167 4.167 4.167 10.917 0 15.083a10.634 10.634 0 0 1-7.542 3.125 10.636 10.636 0 0 1-7.542-3.125l-15.085-15.085-15.082 15.085 22.626 22.626zm120.667 15.083c-4.167 4.167-10.917 4.167-15.083 0l-22.625-22.625-15.083 15.083 15.083 15.083c4.167 4.167 4.167 10.917 0 15.083-2.083 2.083-4.813 3.125-7.542 3.125s-5.458-1.042-7.542-3.125l-15.083-15.083-15.083 15.083 22.625 22.635c4.167 4.167 4.167 10.917 0 15.083a10.634 10.634 0 0 1-7.542 3.125 10.636 10.636 0 0 1-7.542-3.125l-30.167-30.177c-4.167-4.167-4.167-10.917 0-15.083l60.333-60.333c4.167-4.167 10.917-4.167 15.083 0l30.167 30.167c4.168 4.168 4.168 10.918.001 15.084z"/><path d="M206 186.51h.021c2.854 0 5.521-1.115 7.542-3.125 4.167-4.156 4.167-10.927 0-15.083l-7.542-7.542-15.083 15.083 7.542 7.531a10.522 10.522 0 0 0 7.52 3.136z"/></g></symbol><symbol id="icon-instagram" viewBox="0 0 169.063 169.063"><g><path d="M122.406 0H46.654C20.929 0 0 20.93 0 46.655v75.752c0 25.726 20.929 46.655 46.654 46.655h75.752c25.727 0 46.656-20.93 46.656-46.655V46.655C169.063 20.93 148.133 0 122.406 0zm31.657 122.407c0 17.455-14.201 31.655-31.656 31.655H46.654C29.2 154.063 15 139.862 15 122.407V46.655C15 29.201 29.2 15 46.654 15h75.752c17.455 0 31.656 14.201 31.656 31.655v75.752z"/><path d="M84.531 40.97c-24.021 0-43.563 19.542-43.563 43.563 0 24.02 19.542 43.561 43.563 43.561s43.563-19.541 43.563-43.561c0-24.021-19.542-43.563-43.563-43.563zm0 72.123c-15.749 0-28.563-12.812-28.563-28.561 0-15.75 12.813-28.563 28.563-28.563s28.563 12.813 28.563 28.563c0 15.749-12.814 28.561-28.563 28.561zM129.921 28.251c-2.89 0-5.729 1.17-7.77 3.22a11.053 11.053 0 0 0-3.23 7.78c0 2.891 1.18 5.73 3.23 7.78 2.04 2.04 4.88 3.22 7.77 3.22 2.9 0 5.73-1.18 7.78-3.22 2.05-2.05 3.22-4.89 3.22-7.78 0-2.9-1.17-5.74-3.22-7.78-2.04-2.05-4.88-3.22-7.78-3.22z"/></g></symbol><symbol id="icon-linkedin" viewBox="0 0 430.117 430.117"><path d="M430.117 261.543V420.56h-92.188V272.193c0-37.271-13.334-62.707-46.703-62.707-25.473 0-40.632 17.142-47.301 33.724-2.432 5.928-3.058 14.179-3.058 22.477V420.56h-92.219s1.242-251.285 0-277.32h92.21v39.309c-.187.294-.43.611-.606.896h.606v-.896c12.251-18.869 34.13-45.824 83.102-45.824 60.673-.001 106.157 39.636 106.157 124.818zM52.183 9.558C20.635 9.558 0 30.251 0 57.463c0 26.619 20.038 47.94 50.959 47.94h.616c32.159 0 52.159-21.317 52.159-47.94-.606-27.212-20-47.905-51.551-47.905zM5.477 420.56h92.184V143.24H5.477v277.32z"/></symbol><symbol id="icon-locked-padlock" viewBox="0 0 486.733 486.733"><path d="M403.88 196.563h-9.484v-44.388c0-82.099-65.151-150.681-146.582-152.145-2.225-.04-6.671-.04-8.895 0C157.486 1.494 92.336 70.076 92.336 152.175v44.388h-9.485c-14.616 0-26.538 15.082-26.538 33.709v222.632c0 18.606 11.922 33.829 26.539 33.829H403.88c14.616 0 26.539-15.223 26.539-33.829V230.272c0-18.626-11.922-33.709-26.539-33.709zM273.442 341.362v67.271c0 7.703-6.449 14.222-14.158 14.222H227.45c-7.71 0-14.159-6.519-14.159-14.222v-67.271c-7.477-7.36-11.83-17.537-11.83-28.795 0-21.334 16.491-39.666 37.459-40.513 2.222-.09 6.673-.09 8.895 0 20.968.847 37.459 19.179 37.459 40.513-.002 11.258-4.355 21.435-11.832 28.795zm58.444-144.799H154.847v-44.388c0-48.905 39.744-89.342 88.519-89.342 48.775 0 88.521 40.437 88.521 89.342v44.388z"/></symbol><symbol id="icon-message" viewBox="0 0 512 512"><path d="M510.576 264.536l-58.431-157.94a22.747 22.747 0 0 0-11.913-12.863 22.754 22.754 0 0 0-17.519-.672L137.796 198.467a22.76 22.76 0 0 0-12.864 11.912 22.759 22.759 0 0 0-.672 17.519l58.431 157.94a22.752 22.752 0 0 0 11.913 12.864 22.83 22.83 0 0 0 9.559 2.107c2.682 0 5.37-.476 7.961-1.435l284.918-105.406h.001c11.843-4.383 17.915-17.586 13.533-29.432zM407.052 123.279l-88.377 126.344-149.327-38.405 237.704-87.939zM200.044 366.731l-50.683-137 117.382 30.192-66.699 106.808zm24.819 3.506l65.152-104.33 30.642 7.882c.951.241 1.913.367 2.852.367 3.688 0 7.216-1.787 9.392-4.891l18.133-25.944 117.369 36.818-243.54 90.098zm139.951-146.599l69.463-99.324 50.703 137.019-120.166-37.695zM133.44 388.976c-2.194-5.933-8.786-8.961-14.715-6.768l-43.162 15.968c-5.933 2.196-8.962 8.784-6.768 14.716 1.71 4.623 6.086 7.482 10.743 7.482 1.319 0 2.663-.23 3.973-.715l43.16-15.968c5.935-2.193 8.964-8.782 6.769-14.715zM75.023 282.646c-2.196-5.933-8.785-8.96-14.716-6.768l-26.643 9.857c-5.933 2.196-8.962 8.783-6.768 14.716 1.71 4.622 6.087 7.482 10.743 7.482 1.319 0 2.663-.23 3.973-.715l26.643-9.857c5.933-2.193 8.963-8.782 6.768-14.715zM41.995 369.408c-2.196-5.933-8.785-8.962-14.716-6.768l-19.797 7.324C1.549 372.16-1.48 378.748.714 384.68c1.71 4.622 6.086 7.482 10.743 7.482 1.319 0 2.663-.23 3.973-.715l19.797-7.324c5.934-2.194 8.963-8.782 6.768-14.715z"/></symbol><symbol id="icon-people-trading" viewBox="0 0 490.04 490.04"><g><path d="M96.701 148.775c-2.826-5.265-6.854-9.759-11.663-13.326-5.681-4.215-12.458-7.089-20.002-7.838-.064-.006-.122-.031-.187-.037-1.885-.194-3.715-.071-5.553-.004 10.867 3.044 20.445 10.424 25.667 21.414l15.442 32.474 10.362 21.79 31.86-3.004 6.982-11.334-14.651 3.842-38.257-43.977zM222.552 175.65l-24.998-15.404a9.614 9.614 0 0 0-7.256-1.17 9.628 9.628 0 0 0-5.95 4.307l-22.897 37.169c16.68 3.655 29.927 17.637 31.622 35.573.184 1.945.054 3.836-.036 5.733l32.653-53.002c2.781-4.513 1.374-10.425-3.138-13.206zM78.328 316.453c6.371-6.415 10.739-14.896 11.654-24.602l.51-5.403-.305.028c-1.28.127-2.553.182-3.817.182-15.491 0-29.78-8.891-36.529-23.085l-32.1-67.494-8.325 88.168c-.936 9.913 1.937 19.221 7.212 26.798l26.25 76.933-9.5 69.92c-2.11 15.506 8.749 29.779 24.247 31.881 1.296.182 2.584.261 3.857.261 13.949 0 26.096-10.306 28.024-24.508l10.401-76.551a28.285 28.285 0 0 0-1.256-12.961l-20.323-59.567zM99.016 117.447c26.76-6.971 42.804-34.324 35.832-61.085-6.969-26.76-34.314-42.804-61.075-35.832-26.76 6.97-42.804 34.324-35.834 61.084 6.971 26.759 34.318 42.802 61.077 35.833z"/><path d="M150.506 215.759l-49.49 4.671-30.672-64.49c-5.762-12.116-20.272-17.261-32.348-11.5-12.116 5.754-17.261 20.24-11.499 32.348l37.967 79.83a24.27 24.27 0 0 0 24.208 13.744l66.403-6.268c13.349-1.256 23.148-13.104 21.884-26.452-1.258-13.356-13.2-23.282-26.453-21.883zM480.624 284.248l-11.349-120.192c-2.103-22.255-21.995-38.75-44.084-36.481-15.57 1.471-28.083 11.66-33.567 25.222l3.551-3.243c16.502-15.056 42.101-13.918 57.164 2.584 15.071 16.502 13.918 42.093-2.585 57.164l-52.925 48.343 3.229 34.207c.915 9.706 5.284 18.187 11.655 24.602l-20.324 59.567a28.273 28.273 0 0 0-1.257 12.961l10.401 76.551c1.928 14.202 14.076 24.508 28.025 24.508 1.272 0 2.561-.079 3.856-.261 15.499-2.102 26.357-16.375 24.248-31.881l-9.5-69.92 26.251-76.933c5.275-7.577 8.147-16.885 7.211-26.798zM391.025 117.447c26.76 6.97 54.106-9.074 61.075-35.834 6.972-26.76-9.072-54.114-35.831-61.084-26.763-6.972-54.106 9.072-61.078 35.832-6.969 26.762 9.073 54.115 35.834 61.086z"/><path d="M440.388 163.052c-9.042-9.887-24.413-10.598-34.3-1.549l-51.829 47.341h-65.55c-13.412 0-24.278 10.866-24.278 24.278s10.867 24.279 24.278 24.279h74.97a24.28 24.28 0 0 0 16.375-6.354l58.784-53.695c9.904-9.041 10.592-24.397 1.55-34.3zM283.478 89.441c0-15.223-8.118-24.509-28.248-31.612-14.366-5.415-20.287-8.964-20.287-14.544 0-4.742 3.549-9.467 14.551-9.467 6.139 0 11.166.988 15.205 2.205a9.32 9.32 0 0 0 7.287-.807 9.355 9.355 0 0 0 4.458-5.816l.159-.608c1.303-5.09-1.732-10.282-6.807-11.649-4.25-1.146-9.349-1.985-15.577-2.262V8.282A8.281 8.281 0 0 0 245.936 0a8.282 8.282 0 0 0-8.29 8.282v7.777c-18.092 3.548-28.57 15.221-28.57 30.096 0 16.398 12.337 24.855 30.428 30.949 12.519 4.22 17.932 8.282 17.932 14.7 0 6.764-6.598 10.496-16.234 10.496-6.843 0-13.291-1.383-18.903-3.359a9.059 9.059 0 0 0-7.303.561 9.082 9.082 0 0 0-4.529 5.753l-.157.625c-1.392 5.437 1.722 11.009 7.082 12.685 5.697 1.778 12.494 3.035 19.409 3.342v7.786a8.28 8.28 0 0 0 8.282 8.283 8.283 8.283 0 0 0 8.291-8.283v-8.97c19.442-3.375 30.104-16.234 30.104-31.282z"/></g></symbol><symbol id="icon-percent" viewBox="0 0 263.285 263.285"><g><path d="M193.882 8.561c-7.383-3.756-16.414-.813-20.169 6.573L62.153 234.556c-3.755 7.385-.812 16.414 6.573 20.169a14.94 14.94 0 0 0 6.786 1.632c5.466 0 10.735-2.998 13.383-8.205L200.455 28.73c3.755-7.385.812-16.414-6.573-20.169zM113.778 80.818c0-31.369-25.521-56.89-56.89-56.89C25.521 23.928 0 49.449 0 80.818c0 31.368 25.521 56.889 56.889 56.889 31.369 0 56.889-25.521 56.889-56.889zm-56.889 26.889C42.063 107.707 30 95.644 30 80.818c0-14.827 12.063-26.89 26.889-26.89 14.827 0 26.89 12.062 26.89 26.89-.001 14.826-12.063 26.889-26.89 26.889zM206.396 125.58c-31.369 0-56.89 25.521-56.89 56.889 0 31.368 25.52 56.889 56.89 56.889 31.368 0 56.889-25.52 56.889-56.889 0-31.369-25.52-56.889-56.889-56.889zm0 83.777c-14.827 0-26.89-12.063-26.89-26.889 0-14.826 12.063-26.889 26.89-26.889 14.826 0 26.889 12.063 26.889 26.889 0 14.826-12.062 26.889-26.889 26.889z"/></g></symbol><symbol id="icon-presentation" viewBox="0 0 512.001 512.001"><path d="M479.381 48.414H142.637c-17.986 0-32.619 14.634-32.619 32.619v100.128c-8.955 1.794-17.254 6.341-23.571 13.083-8.304 8.863-12.613 20.898-11.824 33.018l1.387 21.264 3.238 49.657c1.231 18.871 11.858 35.577 28.426 44.689 8.313 4.572 17.432 6.859 26.552 6.859 9.118 0 18.239-2.287 26.551-6.858a55.383 55.383 0 0 0 12.498-9.413H479.38c17.986 0 32.619-14.634 32.619-32.619V81.034c.001-17.986-14.631-32.62-32.618-32.62zM95.683 236.736l-.704-10.8c-.431-6.609 1.825-12.911 6.353-17.744 4.529-4.833 10.669-7.495 17.293-7.495h26.289l-5.684 15.157c-1.56 2.371-12.207 16.661-43.547 20.882zm73.163 60.121c-.773 11.884-7.465 22.405-17.9 28.144-10.471 5.759-22.971 5.759-33.442-.001-10.434-5.738-17.127-16.259-17.901-28.143l-2.592-39.734c24.805-3.113 40.262-11.846 49.333-19.427 2.027 1.639 4.411 3.168 7.147 4.583 4.092 2.114 10.188 4.219 18.498 6.386l-3.143 48.192zm4.628-70.921l-.128 1.957c-6.077-1.733-9.077-3.008-10.49-3.738-2.062-1.066-3.287-1.957-3.991-2.569l5.858-15.621a24.146 24.146 0 0 1 2.397 2.228c4.528 4.832 6.785 11.134 6.354 17.743zm318.129 74.906c0 6.739-5.482 12.221-12.221 12.221H186.133a55.398 55.398 0 0 0 3.072-14.879l.05-.772h262.431c5.633 0 10.199-4.567 10.199-10.199s-4.566-10.199-10.199-10.199h-11.079V108.896c0-5.632-4.566-10.199-10.199-10.199h-49.246c-5.633 0-10.199 4.567-10.199 10.199v168.117h-12.681V204.04c0-5.632-4.566-10.199-10.199-10.199h-49.246c-5.633 0-10.199 4.567-10.199 10.199v72.973h-11.949V148.986c0-5.632-4.566-10.199-10.199-10.199h-49.246c-5.633 0-10.199 4.567-10.199 10.199v128.027h-16.458l2.32-35.573.924-14.177c.738-11.325-2.978-22.574-10.243-31.232V95.173c0-5.632-4.566-10.199-10.199-10.199s-10.199 4.567-10.199 10.199v87.213a43.967 43.967 0 0 0-13.36-2.087h-19.411V81.034c0-6.739 5.482-12.221 12.221-12.221h336.745c6.739 0 12.221 5.482 12.221 12.221v219.808zm-264.162-23.829V159.185h28.848v117.828h-28.848zm81.594 0V214.24h28.848v62.773h-28.848zm82.325 0V119.095h28.848v157.918H391.36zM267.897 423.043c-6.178-34.096-33.19-61.31-67.216-67.717a84.608 84.608 0 0 0-15.618-1.458H169.5a10.203 10.203 0 0 0-7.212 2.987l-28.062 28.062-28.061-28.062a10.2 10.2 0 0 0-7.212-2.987H83.39c-5.228 0-10.483.491-15.617 1.458-34.027 6.406-61.04 33.621-67.217 67.718a34.318 34.318 0 0 0 7.448 28.19 34.321 34.321 0 0 0 26.411 12.352H234.04a34.324 34.324 0 0 0 26.411-12.352 34.331 34.331 0 0 0 7.446-28.191zm-23.104 15.115a13.975 13.975 0 0 1-10.753 5.03H34.414a13.975 13.975 0 0 1-10.753-5.03 13.972 13.972 0 0 1-3.032-11.478c4.68-25.835 25.143-46.454 50.922-51.307a64.05 64.05 0 0 1 11.84-1.106H94.73l32.286 32.286c3.984 3.982 10.442 3.983 14.424 0l32.287-32.286h11.339c3.964 0 7.948.371 11.841 1.106 25.777 4.854 46.239 25.473 50.921 51.308v-.001a13.985 13.985 0 0 1-3.035 11.478z"/><path d="M472.223 78.401c-5.633 0-10.199 4.567-10.199 10.199v38.752c0 5.632 4.566 10.199 10.199 10.199s10.199-4.567 10.199-10.199V88.6c.001-5.633-4.566-10.199-10.199-10.199zM472.223 149.795c-5.633 0-10.199 4.567-10.199 10.199v5.101c0 5.632 4.566 10.199 10.199 10.199s10.199-4.567 10.199-10.199v-5.101c.001-5.633-4.566-10.199-10.199-10.199z"/></symbol><symbol id="icon-printer" viewBox="0 0 485.212 485.212"><g><path d="M151.636 363.906h151.618v30.331H151.636zM121.312 30.327h242.595v60.651h30.321V30.327C394.229 13.595 380.666 0 363.907 0H121.312c-16.748 0-30.327 13.595-30.327 30.327v60.651h30.327V30.327zM151.636 303.257h181.939v30.327H151.636z"/><path d="M454.882 121.304H30.334c-16.748 0-30.327 13.591-30.327 30.324v181.956c0 16.759 13.579 30.321 30.327 30.321h60.651v90.98c0 16.764 13.579 30.326 30.327 30.326h242.595c16.759 0 30.321-13.562 30.321-30.326v-90.98h60.653c16.76 0 30.322-13.562 30.322-30.321V151.628c.001-16.733-13.561-30.324-30.321-30.324zm-90.975 333.582H121.312V272.93h242.595v181.956zm60.644-242.604c-16.76 0-30.322-13.564-30.322-30.327 0-16.731 13.562-30.327 30.322-30.327 16.765 0 30.331 13.595 30.331 30.327 0 16.762-13.567 30.327-30.331 30.327z"/></g></symbol><symbol id="icon-promotional-ad" viewBox="0 0 390 390"><g><path d="M152.704 235.807h10.367l-5.215-13.84z"/><path d="M317.78 80.194h-33.14V42.63a10 10 0 0 0-12.288-9.734l-38.593 9.069V10a9.999 9.999 0 0 0-14.678-8.839L67.53 81.364l-.124.065-.092.049.016-.003a9.993 9.993 0 0 0-5.111 8.719V380c0 5.523 4.477 10 10 10H317.78c5.523 0 10-4.477 10-10V90.194c0-5.522-4.477-10-10-10zM213.76 26.606v20.058l-68.173 16.019 68.173-36.077zm-27.77 245.491h-6.368a4.157 4.157 0 0 1-3.887-2.689l-7.295-19.356h-21.037l-7.197 19.339a4.157 4.157 0 0 1-3.895 2.706h-6.336a4.155 4.155 0 0 1-3.892-5.604l24.338-65.392a4.158 4.158 0 0 1 3.886-2.707l7.003-.014h.008a4.154 4.154 0 0 1 3.887 2.689l24.496 65.004a4.156 4.156 0 0 1-3.711 6.024zm40.662-.396h-26.32a4.154 4.154 0 0 1-4.154-4.155v-65.293a4.153 4.153 0 0 1 4.154-4.155h26.32c20.693 0 37.527 16.527 37.527 36.845 0 20.269-16.834 36.758-37.527 36.758zm37.989-191.507H158.495l67.552-15.872 38.593-9.069v24.941z"/><path d="M226.652 212.343h-16.229v45.112h16.229c12.836 0 23.279-10.101 23.279-22.513.001-12.461-10.443-22.599-23.279-22.599z"/></g></symbol><symbol id="icon-quote" viewBox="0 0 16 16"><path d="M7 7v7H0V6.9c0-4.8 4.5-5.4 4.5-5.4l.6 1.4s-2 .3-2.4 1.9C2.3 6 3.1 7 3.1 7H7zM16 7v7H9V6.9c0-4.8 4.5-5.4 4.5-5.4l.6 1.4s-2 .3-2.4 1.9c-.4 1.2.4 2.2.4 2.2H16z"/></symbol><symbol id="icon-right-chevron" viewBox="0 0 407.436 407.436"><path d="M112.814 0L91.566 21.178l181.946 182.54-181.946 182.54 21.248 21.178 203.055-203.718z"/></symbol><symbol id="icon-right-quote" viewBox="0 0 16 16"><path d="M9 9V2h7v7.1c0 4.8-4.5 5.4-4.5 5.4l-.6-1.4s2-.3 2.4-1.9c.4-1.2-.4-2.2-.4-2.2H9zM0 9V2h7v7.1c0 4.8-4.5 5.4-4.5 5.4l-.6-1.4s2-.3 2.4-1.9C4.7 10 3.9 9 3.9 9H0z"/></symbol><symbol id="icon-sale-report" viewBox="0 0 512 512"><path d="M442.462 85.713L364.359 7.61C359.452 2.703 352.925 0 345.985 0H87.914c-14.33 0-25.987 11.658-25.987 25.987v460.026c0 14.329 11.658 25.987 25.987 25.987h336.173c14.329 0 25.987-11.658 25.987-25.987V104.089c-.001-6.942-2.703-13.468-7.612-18.376zm-8.977 400.301c.001 5.182-4.215 9.398-9.398 9.398H87.914c-5.183 0-9.4-4.217-9.4-9.4V25.987c0-5.183 4.217-9.4 9.4-9.4h248.259v71.326c0 14.329 11.658 25.987 25.987 25.987h44.233a8.294 8.294 0 0 0 0-16.588H362.16c-5.183 0-9.4-4.217-9.4-9.4V19.469l77.972 77.973a9.339 9.339 0 0 1 2.752 6.647v381.925z"/><path d="M256 221.166c-63.11 0-114.454 51.344-114.454 114.454S192.89 450.073 256 450.073 370.454 398.73 370.454 335.62 319.11 221.166 256 221.166zm-97.866 114.453c0-26.063 10.243-49.779 26.914-67.336l56.397 63.446-80.582 26.861a97.8 97.8 0 0 1-2.729-22.971zm7.985 38.704l71.233-23.744-38.615 64.357c-14.218-10.296-25.572-24.313-32.618-40.613zM256 433.486c-15.44 0-30.052-3.599-43.051-9.993l46.93-78.218L347.9 369.28c-13.752 37.432-49.758 64.206-91.9 64.206zm4.56-105.219l-63.122-71.012c16.341-12.243 36.618-19.501 58.562-19.501 53.964 0 97.866 43.903 97.866 97.866 0 6.028-.552 11.929-1.6 17.658l-91.706-25.011zM175.827 121.51V88.054c11.685 2 18.799 7.953 18.799 12.3a8.294 8.294 0 0 0 16.588 0c0-14.661-14.993-26.507-35.387-29.062V70.22a8.294 8.294 0 0 0-16.588 0v1.072c-20.394 2.556-35.387 14.402-35.387 29.062 0 20.768 19.479 28.748 35.387 33.583v33.456c-11.685-2-18.799-7.953-18.799-12.3a8.294 8.294 0 0 0-16.588 0c0 14.661 14.993 26.507 35.387 29.062v1.072a8.294 8.294 0 0 0 16.588 0v-1.072c20.394-2.556 35.387-14.402 35.387-29.062 0-20.768-19.479-28.748-35.387-33.583zm-16.587-5.067c-13.991-4.876-18.799-9.272-18.799-16.089 0-2.623 2.313-5.519 6.346-7.945 3.408-2.05 7.731-3.533 12.453-4.343v28.377zm29.04 46.595c-3.408 2.05-7.731 3.533-12.453 4.343v-28.377c13.991 4.876 18.799 9.272 18.799 16.089 0 2.623-2.313 5.519-6.346 7.945zM309.08 79.62h-70.773a8.294 8.294 0 0 0 0 16.588h70.773a8.294 8.294 0 0 0 0-16.588zM264.847 115.006h-26.54a8.294 8.294 0 0 0 0 16.588h26.54a8.294 8.294 0 0 0 0-16.588zM317.927 115.006h-17.693a8.294 8.294 0 0 0 0 16.588h17.693a8.294 8.294 0 0 0 0-16.588zM353.313 150.393H238.307a8.294 8.294 0 0 0 0 16.588h115.006a8.294 8.294 0 0 0 0-16.588z"/></symbol><symbol id="icon-shield" viewBox="0 0 300 300"><path d="M121.631 143.635l-13.639 11.998 32.726 36.476.064-.064.044.064 58.688-59.642-10.475-13.769-47.699 39.254z"/><path d="M149.997 0C67.158 0 .003 67.161.003 149.997S67.158 300 149.997 300s150-67.163 150-150.003S232.837 0 149.997 0zM150 232.886c-77.185 0-82.683-130.592-82.683-130.592l82.681-35.187H150l82.681 35.187S227.183 232.886 150 232.886z"/></symbol><symbol id="icon-sitting-down" viewBox="0 0 61.525 61.525"><g><circle cx="28.718" cy="5.415" r="5.415"/><path d="M44.683 40.592c-1.964-1.867-6.904-2.65-11.592-2.955-.002-.008-.002-.016-.005-.023-1.425-5.311-1.816-10.849-2.305-16.383l9.923 5.305a2.808 2.808 0 0 0 3.807-1.154 2.815 2.815 0 0 0-1.153-3.81L29.17 13.987a2.812 2.812 0 0 0-1.14-.322 4.346 4.346 0 0 0-1.176-.474 2.778 2.778 0 0 0-1.408-.265c-6.841.558-8.332 5.122-9.423 8.455-.411 1.258-.799 2.446-1.414 3.499a2.814 2.814 0 1 0 4.863 2.837c.917-1.571 1.44-3.172 1.902-4.584l.005-.015c.496 5.711 1.001 11.545 2.459 16.977.694 2.584 2.826 3.58 4.887 3.396.306.108.626.188.968.194 4.566.121 9.458.777 10.722 1.432.521.926 1.164 5.031.085 12.893a3.095 3.095 0 1 0 6.135.839c1.327-9.623.669-15.766-1.952-18.257z"/><path d="M19.193 31.223h-4.739l-.009 28.293h22.962l1.408-12.952-16.246-1.406z"/></g></symbol><symbol id="icon-spotlight" viewBox="0 0 429.568 429.568"><path d="M66.56 153.76l-.512-.512-5.632.512-3.584-4.096s-.512-.512-.512 0l-.512.512-1.024 5.632-5.12 2.048-.512.512s0 .512.512.512l4.608 2.56.512 5.632s0 .512.512.512h.512L59.904 164l5.632 1.024h.512v-.512l-2.56-5.12 2.56-4.608c.512-.512.512-.512.512-1.024zM221.696 175.776l-.512-.512-9.216 1.024-6.144-6.656s-.512-.512-.512 0l-.512.512-1.536 8.704-7.68 2.56-.512.512s0 .512.512.512l7.68 4.608 1.024 9.216s0 .512.512.512h.512l6.656-6.144 8.704 2.048h.512v-.512l-4.096-8.192 4.608-7.68v-.512zM347.648 178.336l.512-5.632s0-.512-.512-.512h-.512l-4.608 3.072-5.12-2.048h-.512s-.512.512 0 .512l1.536 5.12-3.584 4.096c-1.024 0-1.536 0-1.024.512l.512.512 5.632.512 2.56 4.608.512.512s.512 0 .512-.512l2.048-5.12 5.632-1.024s.512 0 .512-.512v-.512l-4.096-3.584zM329.728 89.248l-.512-.512-5.632.512L320 85.152s-.512-.512-.512 0-.512.512-.512.512l-1.024 5.632-5.12 2.048-.512.512s0 .512.512.512l5.12 2.048.512 5.632s0 .512.512.512h.512l4.096-3.584 5.632 1.024h.512v-.512l-2.56-5.12 2.56-4.608v-.512zM140.288 76.96l-4.608-3.072v-5.632s0-.512-.512-.512h-.512l-4.096 3.584-5.12-1.536h-.512v.512l2.048 5.12-3.072 4.608v.512l.512.512h4.608l3.584 4.608h.512s.512 0 .512-.512l1.536-5.12 5.12-2.048.512-.512s0-.512-.512-.512zM242.176 158.88l-4.608-3.072v-5.632s0-.512-.512-.512h-.512l-4.096 3.584-5.12-1.536h-.512v.512l2.048 5.12-3.072 4.608v.512l.512.512h4.608l3.584 4.608h.512s.512 0 .512-.512l1.536-5.12 5.12-2.048.512-.512s0-.512-.512-.512z"/><path d="M423.936 415.904h-32.768v-17.408l11.776-8.704c22.016-15.36 27.136-46.08 11.776-68.096l-24.576-34.816 1.024-.512c2.56-1.536 3.072-4.608 1.024-7.168-1.536-2.56-4.608-3.072-7.168-1.024l-26.112 18.432-53.248-136.192 108.544-94.72c2.048-2.048 2.56-5.12.512-7.168s-5.12-2.56-7.168-.512l-105.984 92.672-56.32-143.872c-1.024-2.56-4.096-4.096-6.656-3.072-2.56 1.024-4.096 4.096-3.072 6.656l57.344 147.456-78.336 69.12-79.36-69.12L192.512 10.4c1.024-2.56-.512-5.632-3.072-6.656s-5.632.512-6.656 3.072l-55.808 143.872L21.504 58.016c-2.048-2.048-5.12-1.536-7.168.512s-1.536 5.12.512 7.168l108.544 94.72-53.248 136.192-20.992-14.848-5.12-3.584c-2.56-1.536-5.632-1.024-7.168 1.024-1.536 2.56-1.024 5.632 1.024 7.168l1.024.512-24.576 34.816c-15.36 22.016-10.24 52.736 11.776 68.096l11.776 8.704v17.408H5.12c-3.072 0-5.12 2.048-5.12 5.12s2.048 5.12 5.12 5.12h76.288c3.072 0 5.12-2.048 5.12-5.12s-2.048-5.12-5.12-5.12H48.64V404.64c6.656 3.072 13.312 4.608 20.48 4.608 2.56 0 5.632 0 8.192-.512 12.8-2.048 24.064-9.216 31.744-19.968l24.576-34.816 1.024.512c1.024.512 2.048 1.024 3.072 1.024 1.536 0 3.072-.512 4.096-2.048 1.536-2.56 1.024-5.632-1.024-7.168l-5.12-3.584-20.992-14.848 99.84-87.552 99.84 87.552-20.992 14.848-5.12 3.584c-2.56 1.536-3.072 4.608-1.024 7.168 1.024 1.536 2.56 2.048 4.096 2.048 1.024 0 2.048-.512 3.072-1.024l1.024-.512L320 388.768c9.728 13.312 24.576 20.48 39.936 20.48a50.083 50.083 0 0 0 20.992-4.608v10.752H348.16c-3.072 0-5.12 2.048-5.12 5.12s2.048 5.12 5.12 5.12h76.288c3.072 0 5.12-2.048 5.12-5.12s-3.072-4.608-5.632-4.608zM125.44 348.32l-24.576 34.816c-6.144 8.704-14.848 14.336-25.088 15.872-10.24 1.536-20.48-.512-29.184-6.656l-14.848-10.24c-8.704-6.144-14.336-14.848-15.872-25.088-1.536-10.24.512-20.48 6.656-29.184l24.576-34.816 78.336 55.296zm-19.456-26.624l-27.136-18.944 52.736-134.656 75.264 66.048-100.864 87.552zm116.224-88.064l75.264-66.048 52.736 134.656-13.824 9.728-13.824 9.728-100.352-88.064zm105.984 149.504l-24.576-34.816 77.824-55.296 24.576 34.816c6.144 8.704 8.192 18.944 6.656 29.184-1.536 10.24-7.168 18.944-15.872 25.088l-14.848 10.24c-17.408 12.288-41.472 8.192-53.76-9.216z"/></symbol><symbol id="icon-stage" viewBox="0 0 418.304 418.304"><path d="M396.288 342.272h-10.24c0-7.68-4.096-14.336-10.24-17.92V96.512c0-40.96-33.28-74.24-74.24-74.24H121.856c-40.96 0-74.24 33.28-74.24 74.24V324.352c-6.144 3.584-10.24 10.752-10.24 17.92h-15.36C9.728 342.272 0 352 0 364.288v4.608c0 3.072 2.048 5.12 5.12 5.12s5.12-2.048 5.12-5.12v-4.608c0-6.656 5.12-11.776 11.776-11.776H38.4c6.656 0 11.776 5.12 11.776 11.776v1.536c-7.68 3.584-13.312 11.264-13.312 19.968v4.608c0 3.072 2.048 5.12 5.12 5.12s5.12-2.048 5.12-5.12v-4.096c0-6.656 5.12-11.776 11.776-11.776h16.896c6.656 0 11.776 5.12 11.776 11.776v4.608c0 3.072 2.048 5.12 5.12 5.12s5.12-2.048 5.12-5.12v-4.608c0-10.752-8.192-19.968-18.432-21.504 0-6.656 5.12-11.776 11.776-11.776h16.896c6.656 0 11.776 5.12 11.776 11.776v2.56c-6.656 4.096-10.752 10.752-10.752 18.944v4.608c0 3.072 2.048 5.12 5.12 5.12s5.12-2.048 5.12-5.12v-4.608c0-6.656 5.12-11.776 11.776-11.776h16.896c6.656 0 11.776 5.12 11.776 11.776v4.608c0 3.072 2.048 5.12 5.12 5.12s5.12-2.048 5.12-5.12v-4.608c0-10.752-8.192-19.968-18.432-21.504 0-6.656 5.12-11.776 11.776-11.776h16.896c6.656 0 11.776 5.12 11.776 11.776v2.56c-6.656 4.096-10.752 10.752-10.752 18.944v4.608c0 3.072 2.048 5.12 5.12 5.12s5.12-2.048 5.12-5.12v-4.608c0-6.656 5.12-11.776 11.776-11.776h16.896c6.656 0 11.776 5.12 11.776 11.776v4.608c0 3.072 2.048 5.12 5.12 5.12s5.12-2.048 5.12-5.12v-4.608c0-10.752-8.192-19.968-18.432-21.504 0-6.656 5.12-11.776 11.776-11.776h16.896c6.656 0 11.776 5.12 11.776 11.776v2.56c-6.656 4.096-10.752 10.752-10.752 18.944v4.608c0 3.072 2.048 5.12 5.12 5.12s5.12-2.048 5.12-5.12v-4.608c0-6.656 5.12-11.776 11.776-11.776h16.896c6.656 0 11.776 5.12 11.776 11.776v4.608c0 3.072 2.048 5.12 5.12 5.12s5.12-2.048 5.12-5.12v-4.608c0-10.752-8.192-19.968-18.432-21.504 0-6.656 5.12-11.776 11.776-11.776h16.896c6.656 0 11.776 5.12 11.776 11.776v2.56c-6.656 3.584-11.264 10.752-11.264 18.944v4.608c0 3.072 2.048 5.12 5.12 5.12s5.12-2.048 5.12-5.12v-4.608c0-6.656 5.12-11.776 11.776-11.776h16.896c6.656 0 11.776 5.12 11.776 11.776v4.608c0 3.072 2.048 5.12 5.12 5.12s5.12-2.048 5.12-5.12v-4.608c0-10.752-8.192-19.968-18.432-21.504 0-6.656 5.12-11.776 11.776-11.776h16.896c6.656 0 11.776 5.12 11.776 11.776v4.608c0 3.072 2.048 5.12 5.12 5.12s5.12-2.048 5.12-5.12V364.8c0-12.288-9.728-22.528-22.016-22.528zm-30.72-245.76v73.216C343.552 142.592 326.144 68.864 320 35.072c26.624 8.192 45.568 32.768 45.568 61.44zm-279.552 79.36c25.088-26.112 44.544-82.944 50.688-101.888 18.944 10.752 45.568 17.408 75.264 17.408 33.28 0 61.952-8.192 81.408-20.992 3.584 14.848 20.992 77.312 43.52 105.472h-.512c-3.072 0-5.12 2.048-5.12 5.12s2.048 5.12 5.12 5.12h2.56c-4.096 6.144-9.728 14.848-15.872 27.648h-220.16c-7.168-12.288-13.824-21.504-18.432-27.648 3.072 0 5.12-2.048 5.12-5.12-.512-2.56-2.048-4.096-3.584-5.12zm31.232 96.256H97.792c-13.312-49.664-26.624-74.752-34.816-86.016h7.168c6.144 6.144 29.696 33.28 47.104 86.016zm-9.216-48.64H317.44c-5.632 13.312-11.776 29.184-16.896 48.64H128c-6.144-19.456-13.312-35.328-19.968-48.64zm243.2-37.376h7.68c-8.192 11.776-21.504 36.864-34.816 86.528h-12.8c14.336-52.224 34.304-79.872 39.936-86.528zm14.336 8.192v77.824h-30.72c11.776-43.52 23.552-66.56 30.72-77.824zm-8.192-18.432h-6.656c-26.624-20.992-48.128-110.08-48.64-111.104 0-.512-.512-1.024-.512-1.536 4.608-4.608 8.704-9.216 11.264-14.336 6.144 31.744 22.016 97.792 44.544 126.976zM294.4 32.512c-67.584 41.984-139.776 13.312-165.888 0H294.4zm-77.824 31.744c28.16 0 59.392-7.168 89.6-27.648-4.608 24.576-46.08 44.032-94.72 44.032-47.616 0-88.576-18.944-94.72-43.008 12.8 7.168 52.224 26.624 99.84 26.624zm-89.088 3.584c-5.12 16.896-28.672 89.088-56.832 107.52h-6.144c23.04-29.184 38.912-97.792 45.056-128 3.584 7.68 9.728 14.848 17.92 20.48zM57.344 96.512c0-28.16 18.432-52.224 44.032-60.928-6.144 33.28-22.528 104.448-44.032 132.608v-71.68zm0 99.84c7.168 11.776 18.432 34.816 29.696 75.776H57.344v-75.776zM69.12 364.288h-8.704c0-8.704-5.632-16.384-13.312-19.968v-1.536c0-6.656 5.12-11.776 11.776-11.776h16.896c6.656 0 11.776 5.12 11.776 11.776-10.24 1.536-18.432 10.24-18.432 21.504zm72.192 0h-11.264c0-7.68-4.608-14.848-10.752-18.432v-2.56c0-6.656 5.12-11.776 11.776-11.776h16.896c6.656 0 11.776 5.12 11.776 11.776-10.24 1.024-18.432 9.728-18.432 20.992zm71.68 0h-11.264c0-7.68-4.608-14.848-10.752-18.432v-2.56c0-6.656 5.12-11.776 11.776-11.776h16.896c6.656 0 11.776 5.12 11.776 11.776-10.24 1.024-17.92 9.728-18.432 20.992zm72.192 0H273.92c0-7.68-4.608-14.848-10.752-18.432v-2.56c0-6.656 5.12-11.776 11.776-11.776h16.896c6.656 0 11.776 5.12 11.776 11.776-10.24 1.024-17.92 9.728-18.432 20.992zm39.936-21.504h-11.264c0-11.776-10.24-21.504-22.016-21.504h-16.896c-12.288 0-22.016 9.728-22.016 21.504h-11.264c0-11.776-10.24-21.504-22.016-21.504h-16.896c-12.288 0-22.016 9.728-22.016 21.504h-11.264c0-11.776-10.24-21.504-22.016-21.504H130.56c-12.288 0-22.016 9.728-22.016 21.504H97.28c0-11.776-10.24-21.504-22.016-21.504h-17.92v-38.4h308.224v38.4H347.136c-11.776-.512-21.504 9.216-22.016 21.504zm32.256 21.504h-11.264c0-7.68-4.608-14.848-10.752-18.432v-2.56c0-6.656 5.12-11.776 11.776-11.776h16.896c6.656 0 11.776 5.12 11.776 11.776-10.24 1.024-18.432 9.728-18.432 20.992z"/></symbol><symbol id="icon-ticket" viewBox="0 0 594.394 594.395"><path d="M178.058 371.443l10.263-10.213c1.436-1.581 3.557-4.852.168-8.432l-1.031-1.026c-4.525-4.525-9.259.718-9.259.718l-30.206 30.074c-5.424 5.406-1.858 8.613-1.858 8.613l1.317 1.326s4.302 5.179 9.345.154l9.922-9.895 39.41 39.597c1.785 1.581 5.306 3.779 8.718.363l3.053-3.025c1.467-1.917 2.789-5.461-1.913-10.167l-37.929-38.087zM209.85 335.026c-6.864-6.896-11.871-2.244-11.871-2.244l-1.758 1.735c-4.688 4.688 1.036 10.612 1.036 10.612l41.654 41.813c1.227 1.163 6.242 5.597 10.104 1.763l2.453-2.472c1.508-1.726 3.798-5.605-.736-10.157l-40.882-41.05zM297.869 323.578c-3.07-3.08-6.332 2.562-6.332 2.562s-.164-.055-.191-.055c-2.48 4.271-4.988 8.051-7.596 10.631-8.986 8.949-19.417 7.423-31.31-4.524-5.715-5.743-9.013-11.376-9.876-16.918-.854-5.561.872-10.467 5.151-14.715 1.936-1.963 4.289-3.58 7.023-4.884.327-.164.682-.272 1.018-.427l-.027-.036s7.904-2.199 5.07-8.786l-.645-1.513c-1.663-3.843-5.125-3.834-7.005-3.521-5.651 2.535-10.776 5.643-14.865 9.695-5.106 5.088-8.45 10.644-10.021 16.664-1.563 6.023-1.281 12.139.863 18.335 2.135 6.233 5.997 12.111 11.539 17.69 8.804 8.85 17.645 13.584 26.476 14.165 8.85.636 17.154-2.935 24.95-10.694 4.425-4.425 7.659-9.149 10.167-14.128.536-1.781.728-4.652-2.48-7.623l-1.909-1.918zM354.042 276.064l-42.062-9.626-4.062-34.89v-.023c-.854-7.469-6.006-2.281-6.006-2.281l-4.262 4.243c-3.207 3.212-2.717 7.446-2.717 7.446l3.162 28.403 1.809 10.758-18.263-18.345c-5.133-5.138-9.031-3.048-10.676-1.681l-2.607 2.625c-4.262 4.234 1.626 10.104 1.626 10.104l41.922 42.077c1.681 1.6 6.138 5.07 10.081 1.108l2.835-2.762c1.436-2.054 2.489-5.615-2.145-10.258l-12.889-12.934 1.372-8.223 31.196 7.346s5.288 1.267 8.687-2.081l5.434-5.406c3.381-3.388-.181-4.987-2.435-5.6zM391.549 233.433c-2.907-2.885-7.342 1.908-7.342 1.908l-10.794 10.744c-3.034 3.035-5.888 1.845-7.614.486l-5.796-5.815c-.964-.986-3.943-4.884 1.362-10.181l8.468-8.418c1.236-1.495 2.89-4.588-.781-8.6l-1.326-1.317c-3.362-3.362-7.741 1.154-7.741 1.154l-8.777 8.754c-4.961 4.965-9.34.399-9.34.399l-3.234-3.221s-4.18-3.925.018-8.123l10.939-10.885c4.997-4.965.091-8.922.091-8.922l-1.617-1.599c-3.507-3.516-7.723 1.218-7.723 1.218l-20.099 19.993c-5.401 5.406-.254 12.312-.254 12.312l41.45 41.618c1.398 1.367 6.396 5.433 11.757.1l20.534-20.461c1.472-1.681 3.562-5.243-.346-9.281l-1.835-1.863zM391.604 169.786c-5.07-5.083-2.309-8.69-1.454-9.567l6.287-6.26c1.291-1.472 3.38-4.829-.236-8.636l-.999-1.036c-3.253-3.262-7.068-.722-8.959.972l-31.237 31.133c-4.27 4.234-.708 7.759-.708 7.759l1.617 1.613s3.961 4.611 8.214.368l6.087-6.074c1.327-1.222 5.07-3.929 9.449.445l33.618 33.763c1.417 1.376 5.778 5.043 9.322 1.545l1.763-1.768c4.706-4.634 2.107-8.986.309-11.044l-33.073-33.213z"/><path d="M544.792 221.317l-25.768 25.645-4.888 4.875L257.7 507.272l-12.52 12.466-28.293 28.185c-13.475 13.411-23.214 2.962-23.214 2.962l-10.572-10.594s-7.991-9.032-4.343-21.661c0-.019 0-.055.027-.072 6.392-18.045 13.37-52.626-13.625-79.175l-6.415-6.433c-32.846-33.005-70.756-23.946-87.365-17.559h-.009c-9.145 2.989-15.583-3.135-15.583-3.135l-14.601-14.665s-7.301-8.504 2.521-18.28l30.938-30.819 6.755-6.724 248.544-247.55 18.554-18.49 25.131-25.036c3.054-2.939 14.684-12.793 24.859-2.566l4.925 4.952c2.525 2.88 7.269 10.271 5.487 23.278-4.397 18.549-6.523 53.457 25.459 85.566l1.926 1.962c25.786 27.653 57.188 26.658 75.668 22.751l.018.036s16.01-4.67 27.222 6.615l2.489 2.48c11.395 11.886 6.889 21.031 3.109 25.551zm39.905-30.392l-33-33.132c-13.302-13.343-33.745-2.458-33.745-2.458l-.054-.036c-21.315 8.895-46.811 4.679-64.129-12.693-17.336-17.404-21.424-42.944-12.411-64.242.073-.205.073-.336.182-.55 7.705-20.366-3.271-33.745-6.487-37.121L401.889 7.385c-14.483-14.542-30.202-1.313-34.054 2.371L9.847 366.337c-19.894 19.789-3.489 35.58-3.489 35.58l38.406 38.574s9.481 10.249 27.853 2.816c.595-.236 1.036-.327 1.554-.49 21.856-10.54 48.814-6.905 66.909 11.248 17.227 17.3 21.388 42.613 12.598 63.855h.018s-11.158 20.734 2.28 34.218l33.623 33.781c2.408 2.362 20.066 18.244 42.145-3.726l355.68-354.25c5.396-6.245 13.755-20.468-2.727-37.018z"/></symbol><symbol id="icon-ticket_2" viewBox="0 0 64.828 64.828"><path d="M57.414 17l-.707.707c-1.324 1.324-2.287 1.707-4.293 1.707-4.056 0-7-2.944-7-7 0-2.006.383-2.969 1.707-4.293l.707-.707L40.414 0 0 40.414l7.414 7.414.707-.707c1.324-1.324 2.287-1.707 4.293-1.707 4.056 0 7 2.944 7 7 0 2.006-.383 2.969-1.707 4.293l-.707.707 7.414 7.414 40.414-40.414L57.414 17zM19.8 57.385c1.192-1.421 1.614-2.79 1.614-4.971 0-5.131-3.869-9-9-9-2.181 0-3.55.422-4.972 1.614l-4.614-4.614 23.586-23.586 3.293 3.293 1.414-1.414-3.293-3.293L40.414 2.828l4.614 4.615c-1.192 1.421-1.614 2.79-1.614 4.971 0 5.131 3.869 9 9 9 2.181 0 3.55-.422 4.972-1.614L62 24.414 49.414 37l-3.293-3.293-1.414 1.414L48 38.414 24.414 62 19.8 57.385z"/><path d="M35.707 26.122l-4-4 1.414-1.414 4 4-1.414 1.414zM42.707 33.122l-4-4 1.414-1.414 4 4-1.414 1.414z"/></symbol><symbol id="icon-twitter" viewBox="0 0 612 612"><path d="M612 116.258a250.714 250.714 0 0 1-72.088 19.772c25.929-15.527 45.777-40.155 55.184-69.411-24.322 14.379-51.169 24.82-79.775 30.48-22.907-24.437-55.49-39.658-91.63-39.658-69.334 0-125.551 56.217-125.551 125.513 0 9.828 1.109 19.427 3.251 28.606-104.326-5.24-196.835-55.223-258.75-131.174-10.823 18.51-16.98 40.078-16.98 63.101 0 43.559 22.181 81.993 55.835 104.479a125.556 125.556 0 0 1-56.867-15.756v1.568c0 60.806 43.291 111.554 100.693 123.104-10.517 2.83-21.607 4.398-33.08 4.398-8.107 0-15.947-.803-23.634-2.333 15.985 49.907 62.336 86.199 117.253 87.194-42.947 33.654-97.099 53.655-155.916 53.655-10.134 0-20.116-.612-29.944-1.721 55.567 35.681 121.536 56.485 192.438 56.485 230.948 0 357.188-191.291 357.188-357.188l-.421-16.253c24.666-17.593 46.005-39.697 62.794-64.861z"/></symbol><symbol id="icon-usa-flag" viewBox="0 0 124.237 124.237"><g><path d="M18.891 10.163v72.578c34.557 11.924 66.804-11.925 101.357 0V10.163c-34.555-11.924-66.8 11.926-101.357 0zm37.634 21.585c.323-1.054.484-1.582.809-2.638.322.93.481 1.396.805 2.325 1.046-.209 1.569-.319 2.613-.543-.846.796-1.269 1.192-2.112 1.979.322.928.481 1.39.805 2.317a170.05 170.05 0 0 1-2.11-1.108 497.4 497.4 0 0 1-2.112 1.93c.323-1.051.482-1.577.805-2.63-.846-.457-1.267-.688-2.112-1.161a121.23 121.23 0 0 0 2.609-.471zm-8.574-6.941l.807-2.574c.322.956.484 1.433.808 2.386a84.021 84.021 0 0 0 2.612-.364c-.847.743-1.268 1.11-2.114 1.835l.808 2.375c-.846-.496-1.268-.748-2.113-1.263-.846.712-1.267 1.063-2.113 1.754l.807-2.562a99.7 99.7 0 0 1-2.112-1.349 64.523 64.523 0 0 0 2.61-.238zm0 16.023l.807-2.574c.322.956.484 1.432.808 2.385a81.11 81.11 0 0 0 2.612-.364c-.847.743-1.268 1.111-2.114 1.834l.808 2.374c-.846-.496-1.268-.748-2.113-1.263-.846.713-1.267 1.064-2.113 1.755l.807-2.561a99.64 99.64 0 0 1-2.112-1.348 66.386 66.386 0 0 0 2.61-.238zm-7.544-7.351c.322-.994.485-1.491.81-2.489.322.988.484 1.481.807 2.467a58.573 58.573 0 0 0 2.612-.12c-.847.668-1.268.997-2.113 1.64l.807 2.45a95.684 95.684 0 0 1-2.112-1.469c-.847.626-1.268.933-2.113 1.53l.807-2.474c-.846-.62-1.27-.936-2.115-1.586 1.045.044 1.565.052 2.61.051zm-9.221-8.983l.808-2.353c.322 1.043.481 1.563.807 2.601 1.045.143 1.566.201 2.612.291-.846.541-1.27.802-2.113 1.309.322 1.034.483 1.551.808 2.581a86.403 86.403 0 0 1-2.113-1.814 61.76 61.76 0 0 1-2.111 1.163l.805-2.33a97.248 97.248 0 0 1-2.113-1.966c1.043.237 1.566.34 2.61.518zm0 16.022l.808-2.353c.322 1.043.481 1.563.807 2.601 1.045.143 1.566.201 2.612.291a73.25 73.25 0 0 1-2.113 1.312c.322 1.034.483 1.549.808 2.578a84.21 84.21 0 0 1-2.113-1.813c-.847.484-1.268.718-2.111 1.164.322-.929.482-1.396.805-2.331a97.248 97.248 0 0 1-2.113-1.966c1.043.236 1.566.339 2.61.517zm83.728 34.75C83.823 68.4 55.318 86.409 24.226 79.543v-5.767c31.091 6.87 59.598-11.142 90.688-4.274v5.766zm0-11.099c-31.091-6.871-59.596 11.142-90.688 4.274V62.9c31.091 6.869 59.598-11.143 90.688-4.273v5.542zm0-10.877c-31.091-6.87-59.598 11.144-90.688 4.273V51.92c31.093 6.866 59.598-11.144 90.688-4.274v5.646zm0-10.982c-16.323-3.762-30.235-1.358-46.349 2.375v-6.096c16.109-3.732 30.027-6.139 46.349-2.375v6.096zm0-11.431c-16.323-3.762-30.237-1.358-46.349 2.375V27.73c16.109-3.734 30.027-6.138 46.349-2.375v5.524zm0-10.859c-16.323-3.762-30.235-1.357-46.349 2.374v-6.658c16.109-3.733 30.027-6.139 46.349-2.374v6.658zM12.828 0H9.476a5.493 5.493 0 0 0-5.487 5.487 5.448 5.448 0 0 0 2.976 4.873v113.877h8.616V10.232a5.454 5.454 0 0 0 2.734-4.745A5.495 5.495 0 0 0 12.828 0z"/></g></symbol><symbol id="icon-vip" viewBox="0 0 512 512"><path d="M422 71v15c0 22.056-17.944 40-40 40s-40-17.944-40-40V71H0v370h342v-15c0-22.056 17.944-40 40-40s40 17.944 40 40v15h90V71h-90zm60 340h-31.618c-5.826-26.58-26.802-47.551-53.382-53.377V332h-30v25.623c-26.58 5.826-47.556 26.798-53.382 53.377H30V101h283.618c5.826 26.58 26.802 47.551 53.382 53.377V180h30v-25.623c26.58-5.826 47.556-26.798 53.382-53.377H482v310z"/><path d="M367 211h30v30h-30zM367 272h30v30h-30zM144.266 206l-23.238 70.986L97.506 206H73l38.309 100h19.437l37.887-100zM184.97 206h23.098v100H184.97zM276.939 206h-42.675v100h23.098v-32.253h20.282c21.689 0 31.971-18.872 31.971-33.944 0-15.678-13.241-33.803-32.676-33.803zm-.702 47.606h-18.875v-27.324h18.029c9.921 0 10.845 11.175 10.845 13.521 0 4.507-1.673 13.803-9.999 13.803z"/></symbol><symbol id="icon-wallet" viewBox="0 0 463 463"><g><path d="M447.5 176h-.5V95.5c0-17.369-14.131-31.5-31.5-31.5h-384C14.131 64 0 78.131 0 95.5v272C0 384.869 14.131 399 31.5 399h384c17.369 0 31.5-14.131 31.5-31.5V287h.5c8.547 0 15.5-6.953 15.5-15.5v-80c0-8.547-6.953-15.5-15.5-15.5zM432 367.5c0 9.098-7.402 16.5-16.5 16.5h-384c-9.098 0-16.5-7.402-16.5-16.5v-.499h16.506c4.142 0 7.5-3.357 7.5-7.5s-3.358-7.5-7.5-7.5H15V111h16.5c4.142 0 7.5-3.357 7.5-7.5S35.642 96 31.5 96H15v-.5C15 86.402 22.402 79 31.5 79h384c9.098 0 16.5 7.402 16.5 16.5V176h-96.5c-30.603 0-55.5 24.897-55.5 55.5s24.897 55.5 55.5 55.5H432v80.5zm16-96a.5.5 0 0 1-.5.5h-7.981l-.019-.001-.019.001H335.5c-22.332 0-40.5-18.168-40.5-40.5s18.168-40.5 40.5-40.5h103.961l.039.002.039-.002h7.961a.5.5 0 0 1 .5.5v80z"/><path d="M335.5 208c-12.958 0-23.5 10.542-23.5 23.5s10.542 23.5 23.5 23.5 23.5-10.542 23.5-23.5-10.542-23.5-23.5-23.5zm0 32c-4.687 0-8.5-3.813-8.5-8.5s3.813-8.5 8.5-8.5 8.5 3.813 8.5 8.5-3.813 8.5-8.5 8.5zM63.5 111h24c4.142 0 7.5-3.357 7.5-7.5S91.642 96 87.5 96h-24c-4.142 0-7.5 3.357-7.5 7.5s3.358 7.5 7.5 7.5zM119.5 111h24c4.142 0 7.5-3.357 7.5-7.5s-3.358-7.5-7.5-7.5h-24c-4.142 0-7.5 3.357-7.5 7.5s3.358 7.5 7.5 7.5zM175.5 111h24c4.142 0 7.5-3.357 7.5-7.5s-3.358-7.5-7.5-7.5h-24c-4.142 0-7.5 3.357-7.5 7.5s3.358 7.5 7.5 7.5zM231.5 111h24c4.142 0 7.5-3.357 7.5-7.5s-3.358-7.5-7.5-7.5h-24c-4.142 0-7.5 3.357-7.5 7.5s3.358 7.5 7.5 7.5zM287.5 111h24c4.142 0 7.5-3.357 7.5-7.5s-3.358-7.5-7.5-7.5h-24c-4.142 0-7.5 3.357-7.5 7.5s3.358 7.5 7.5 7.5zM343.5 111h24c4.142 0 7.5-3.357 7.5-7.5s-3.358-7.5-7.5-7.5h-24c-4.142 0-7.5 3.357-7.5 7.5s3.358 7.5 7.5 7.5zM399.5 111h.5v.5a7.5 7.5 0 0 0 7.5 7.5 7.5 7.5 0 0 0 7.5-7.5v-8a7.5 7.5 0 0 0-7.5-7.5h-8c-4.142 0-7.5 3.357-7.5 7.5s3.358 7.5 7.5 7.5zM407.5 136a7.5 7.5 0 0 0-7.5 7.5v16a7.5 7.5 0 0 0 7.5 7.5 7.5 7.5 0 0 0 7.5-7.5v-16a7.5 7.5 0 0 0-7.5-7.5zM87.506 352.001h-24c-4.142 0-7.5 3.357-7.5 7.5s3.358 7.5 7.5 7.5h24c4.142 0 7.5-3.357 7.5-7.5s-3.358-7.5-7.5-7.5zM143.506 352.001h-24c-4.142 0-7.5 3.357-7.5 7.5s3.358 7.5 7.5 7.5h24c4.142 0 7.5-3.357 7.5-7.5s-3.358-7.5-7.5-7.5zM199.506 352.001h-24c-4.142 0-7.5 3.357-7.5 7.5s3.358 7.5 7.5 7.5h24c4.142 0 7.5-3.357 7.5-7.5s-3.358-7.5-7.5-7.5zM255.506 352.001h-24c-4.142 0-7.5 3.357-7.5 7.5s3.358 7.5 7.5 7.5h24c4.142 0 7.5-3.357 7.5-7.5s-3.358-7.5-7.5-7.5zM311.506 352.001h-24c-4.142 0-7.5 3.357-7.5 7.5s3.358 7.5 7.5 7.5h24c4.142 0 7.5-3.357 7.5-7.5s-3.358-7.5-7.5-7.5zM343.506 367.001h24c4.142 0 7.5-3.357 7.5-7.5s-3.358-7.5-7.5-7.5h-24c-4.142 0-7.5 3.357-7.5 7.5s3.358 7.5 7.5 7.5zM399.506 367.001h8a7.5 7.5 0 0 0 7.5-7.5v-8a7.5 7.5 0 0 0-7.5-7.5 7.5 7.5 0 0 0-7.5 7.5v.5h-.5c-4.142 0-7.5 3.357-7.5 7.5s3.358 7.5 7.5 7.5zM407.506 327.001a7.5 7.5 0 0 0 7.5-7.5v-16a7.5 7.5 0 0 0-7.5-7.5 7.5 7.5 0 0 0-7.5 7.5v16a7.5 7.5 0 0 0 7.5 7.5z"/></g></symbol><symbol id="icon-youtube" viewBox="0 0 90 90"><path d="M70.939 65.832H66l.023-2.869a2.329 2.329 0 0 1 2.326-2.318h.315a2.332 2.332 0 0 1 2.332 2.318l-.057 2.869zm-18.526-6.148c-1.253 0-2.278.842-2.278 1.873V75.51c0 1.029 1.025 1.869 2.278 1.869 1.258 0 2.284-.84 2.284-1.869V61.557c0-1.032-1.026-1.873-2.284-1.873zM82.5 51.879v26.544C82.5 84.79 76.979 90 70.23 90H19.771C13.02 90 7.5 84.79 7.5 78.423V51.879c0-6.367 5.52-11.578 12.271-11.578H70.23c6.749 0 12.27 5.211 12.27 11.578zM23.137 81.305l-.004-27.961 6.255.002v-4.143l-16.674-.025v4.073l5.205.015v28.039h5.218zm18.75-23.796h-5.215V72.44c0 2.16.131 3.24-.008 3.621-.424 1.158-2.33 2.388-3.073.125-.126-.396-.015-1.591-.017-3.643l-.021-15.034h-5.186l.016 14.798c.004 2.268-.051 3.959.018 4.729.127 1.357.082 2.939 1.341 3.843 2.346 1.69 6.843-.252 7.968-2.668l-.01 3.083 4.188.005-.001-23.79zM58.57 74.607l-.011-12.427c-.004-4.736-3.547-7.572-8.356-3.74l.021-9.239-5.209.008-.025 31.89 4.284-.062.39-1.986c5.473 5.021 8.914 1.58 8.906-4.444zm16.321-1.647l-3.91.021c-.002.155-.008.334-.01.529v2.182c0 1.168-.965 2.119-2.137 2.119h-.766c-1.174 0-2.139-.951-2.139-2.119v-5.739h8.954v-3.37c0-2.463-.063-4.925-.267-6.333-.641-4.454-6.893-5.161-10.051-2.881a5.887 5.887 0 0 0-2.188 2.945c-.444 1.281-.665 3.031-.665 5.254v7.41c.002 12.318 14.964 10.577 13.179-.018zM54.833 32.732a3.55 3.55 0 0 0 1.254 1.584c.56.394 1.276.592 2.134.592.752 0 1.418-.203 1.998-.622.578-.417 1.065-1.04 1.463-1.871l-.099 2.046h5.813V9.74H62.82v19.24a1.907 1.907 0 0 1-3.811 0V9.74h-4.776v16.674c0 2.124.039 3.54.102 4.258.065.713.229 1.397.498 2.06zM37.217 18.77c0-2.373.198-4.226.591-5.562.396-1.331 1.107-2.401 2.137-3.208 1.027-.811 2.342-1.217 3.941-1.217 1.345 0 2.497.264 3.459.781.967.52 1.713 1.195 2.23 2.028a8 8 0 0 1 1.076 2.574c.195.891.291 2.235.291 4.048v6.252c0 2.293-.092 3.98-.271 5.051a8.006 8.006 0 0 1-1.146 3.004c-.58.924-1.329 1.615-2.237 2.056-.918.445-1.968.663-3.154.663-1.325 0-2.441-.183-3.361-.565-.923-.38-1.636-.953-2.144-1.714-.513-.762-.874-1.69-1.092-2.772-.219-1.081-.323-2.707-.323-4.874l.003-6.545zm4.553 9.82c0 1.4 1.042 2.543 2.311 2.543 1.27 0 2.308-1.143 2.308-2.543V15.43c0-1.398-1.038-2.541-2.308-2.541-1.269 0-2.311 1.143-2.311 2.541v13.16zm-16.088 6.645h5.484l.006-18.96L37.652.033h-5.998l-3.445 12.064L24.715 0h-5.936l6.894 16.284.009 18.951z"/></symbol></svg>