<?xml version="1.0" encoding="UTF-8"?><!DOCTYPE svg PUBLIC "-//W3C//DTD SVG 1.1//EN" "http://www.w3.org/Graphics/SVG/1.1/DTD/svg11.dtd"><svg xmlns="http://www.w3.org/2000/svg" class="showtix-to-hide"><symbol id="icon-call-center" viewBox="0 0 480.542 480.542"><path d="M89.104 219.999h26.626c17.666 51.873 66.863 89.289 124.637 89.289 41.424 0 78.433-19.241 102.577-49.248h34.228c6.352 0 11.5-5.148 11.5-11.5v-28.541h5.184c12.474 0 22.621-10.148 22.621-22.622V139.54c0-11.022-7.926-20.224-18.376-22.217-7.547-34.184-26.132-63.235-54.028-84.307C315.476 11.417 279.615 0 240.366 0 160.701 0 97.864 47.184 82.511 117.9c-9.268 2.83-16.029 11.459-16.029 21.64v57.837c0 12.474 10.148 22.622 22.622 22.622zm.378-23v-57.081h24.789a131.198 131.198 0 0 0-5.525 37.748c0 6.567.49 13.021 1.423 19.333H89.482zm150.884 89.289c-59.894 0-108.621-48.728-108.621-108.622s48.727-108.62 108.621-108.62c59.895 0 108.622 48.727 108.622 108.62 0 21.898-6.52 42.297-17.709 59.374h-97.586c-6.351 0-11.5 5.149-11.5 11.5 0 6.352 5.149 11.5 11.5 11.5h77.398c-19.018 16.351-43.736 26.248-70.725 26.248zm125.305-49.248h-7.857a130.924 130.924 0 0 0 7.189-17.041h.667v17.041zm27.805-40.041h-22.91a132.128 132.128 0 0 0 1.423-19.333c0-13.115-1.938-25.785-5.525-37.748h27.013v57.081zM240.366 23c66.29 0 118.756 37.303 133.954 93.918h-17.217c-21.988-42.08-66.06-70.872-116.737-70.872-50.676 0-94.748 28.792-116.736 70.872h-17.22C121.593 60.338 174.166 23 240.366 23zM358.477 314.352H122.065c-36.506 0-66.206 29.699-66.206 66.205v88.484c0 6.352 5.149 11.5 11.5 11.5s11.5-5.148 11.5-11.5v-88.484c0-23.823 19.382-43.205 43.206-43.205h236.412c23.824 0 43.207 19.382 43.207 43.206v88.484c0 6.352 5.148 11.5 11.5 11.5s11.5-5.148 11.5-11.5v-88.484c0-36.506-29.7-66.206-66.207-66.206z"/></symbol><symbol id="icon-cursor" viewBox="0 0 297 297"><g><path d="M294.077 251.199l-59.104-59.106 42.166-24.357a9.93 9.93 0 0 0 4.938-9.316 9.926 9.926 0 0 0-6.225-8.51L87.82 74.905a9.93 9.93 0 0 0-12.905 12.903l74.994 188.053a9.933 9.933 0 0 0 17.827 1.287l24.353-42.166 59.102 59.107a9.926 9.926 0 0 0 14.045 0l28.841-28.844c3.879-3.879 3.879-10.167 0-14.046zm-35.863 21.823l-61.229-61.235a9.931 9.931 0 0 0-15.624 2.056l-20.584 35.642-58.849-147.564 147.549 58.857-35.645 20.588a9.93 9.93 0 0 0-2.056 15.624l61.232 61.235-14.794 14.797zM43.611 29.552c-3.88-3.876-10.166-3.876-14.048 0-3.879 3.88-3.879 10.168 0 14.048l22.069 22.069a9.908 9.908 0 0 0 7.024 2.909 9.91 9.91 0 0 0 7.023-2.909c3.878-3.879 3.878-10.168 0-14.047l-22.068-22.07zM51.089 98.215c0-5.485-4.448-9.931-9.933-9.931H9.946c-5.484 0-9.933 4.445-9.933 9.931 0 5.484 4.448 9.932 9.933 9.932h31.21c5.485-.001 9.933-4.448 9.933-9.932zM47.063 128.87l-22.071 22.071c-3.88 3.877-3.88 10.166 0 14.045a9.898 9.898 0 0 0 7.023 2.909c2.541 0 5.082-.97 7.021-2.909l22.072-22.07c3.879-3.878 3.879-10.168 0-14.046-3.877-3.878-10.165-3.878-14.045 0zM98.222 51.078c5.484 0 9.932-4.448 9.932-9.933V9.932c0-5.484-4.447-9.932-9.932-9.932s-9.931 4.447-9.931 9.932v31.214c0 5.484 4.445 9.932 9.931 9.932zM135.893 64.005a9.895 9.895 0 0 0 7.024-2.908l22.068-22.069c3.88-3.879 3.88-10.168 0-14.046-3.878-3.879-10.169-3.879-14.045 0l-22.069 22.069c-3.879 3.878-3.879 10.168 0 14.046a9.896 9.896 0 0 0 7.022 2.908z"/></g></symbol><symbol id="icon-donation" viewBox="0 0 300.346 300.346"><path d="M296.725 153.904a24.132 24.132 0 0 0-16.298-11.03c-6.753-1.189-13.704.559-19.14 4.835l-21.379 17.125a24.129 24.129 0 0 0-13.359-7.218 24.14 24.14 0 0 0-19.1 4.805l-12.552 9.921h-32.236a32.93 32.93 0 0 1-14.892-3.579l-11.486-5.861a63.82 63.82 0 0 0-31.385-6.908 63.748 63.748 0 0 0-40.554 16.666L2.455 229.328a7.56 7.56 0 0 0-.873 10.203l32.406 41.867a7.554 7.554 0 0 0 9.986 1.782l38.971-24.37a17.425 17.425 0 0 1 9.249-2.654h90.429c12.842 0 25.445-4.407 35.489-12.409l73.145-58.281c9.56-7.611 11.908-21.18 5.468-31.562zm-79.913 20.39a8.871 8.871 0 0 1 7.112-1.787 8.91 8.91 0 0 1 4.087 1.856l-12.645 10.129a23.048 23.048 0 0 0-4.282-5.672l5.728-4.526zm65.026-.654l-73.147 58.282a41.988 41.988 0 0 1-26.067 9.116h-90.43a32.536 32.536 0 0 0-17.266 4.954l-33.17 20.743-23.959-30.955 56.755-51.969a48.612 48.612 0 0 1 30.924-12.708 48.67 48.67 0 0 1 23.932 5.268l11.486 5.861a48.114 48.114 0 0 0 21.763 5.231h32.504c4.278 0 7.757 3.48 7.757 7.758a7.765 7.765 0 0 1-7.308 7.745l-90.45 5.252a7.56 7.56 0 0 0-7.11 7.985 7.552 7.552 0 0 0 7.986 7.109l90.45-5.252c9.461-.549 17.317-6.817 20.283-15.321l53.916-43.189a8.876 8.876 0 0 1 7.114-1.787 8.871 8.871 0 0 1 6.074 4.111 8.985 8.985 0 0 1-2.037 11.766zM148.558 131.669c31.886 0 57.827-25.941 57.827-57.827s-25.941-57.827-57.827-57.827-57.827 25.94-57.827 57.827 25.941 57.827 57.827 57.827zm0-100.534c23.549 0 42.707 19.159 42.707 42.707 0 23.549-19.159 42.707-42.707 42.707-23.549 0-42.707-19.159-42.707-42.707 0-23.549 19.159-42.707 42.707-42.707z"/><path d="M147.213 87.744c-2.24 0-4.618-.546-6.698-1.538a5.052 5.052 0 0 0-4.098-.105 5.156 5.156 0 0 0-2.884 3.02l-.204.569c-.87 2.434.204 5.131 2.501 6.274 2.129 1.06 4.734 1.826 7.398 2.182v2.162c0 2.813 2.289 5.101 5.171 5.101a5.107 5.107 0 0 0 5.102-5.101v-2.759c6.712-2.027 11.018-7.542 11.018-14.188 0-9.156-6.754-13.085-12.625-15.479-6.355-2.63-6.832-3.78-6.832-5.234 0-1.914 1.664-3.058 4.453-3.058 2.043 0 3.883.366 5.63 1.121a5.002 5.002 0 0 0 3.966.009 5.144 5.144 0 0 0 2.79-2.901l.204-.541c.97-2.56-.228-5.41-2.726-6.487-1.676-.723-3.51-1.229-5.46-1.508v-1.908a5.108 5.108 0 0 0-5.102-5.102 5.107 5.107 0 0 0-5.101 5.102v2.549c-6.511 1.969-10.53 7.12-10.53 13.561 0 8.421 6.76 12.208 13.342 14.789 5.579 2.262 6.045 4.063 6.045 5.574-.001 2.876-2.887 3.896-5.36 3.896z"/></symbol><symbol id="icon-exclamation" viewBox="0 0 401.999 401.998"><path d="M237.543 301.499h-73.091c-4.95 0-9.233 1.811-12.851 5.425-3.615 3.617-5.424 7.897-5.424 12.847v63.953c0 4.948 1.809 9.232 5.424 12.854 3.621 3.61 7.9 5.421 12.851 5.421h73.097c4.942 0 9.227-1.811 12.848-5.421 3.61-3.621 5.42-7.905 5.42-12.854v-63.953c0-4.949-1.813-9.229-5.427-12.847-3.617-3.617-7.902-5.425-12.847-5.425zM259.383 5.424C255.862 1.812 251.628 0 246.676 0h-91.359c-4.948 0-9.18 1.812-12.703 5.424-3.521 3.617-5.186 7.902-4.996 12.85l7.992 219.265c.19 4.948 2.139 9.236 5.852 12.847 3.711 3.621 8.041 5.431 12.991 5.431h73.097c4.942 0 9.271-1.81 12.991-5.431 3.71-3.61 5.653-7.898 5.852-12.847l7.987-219.265c.198-4.948-1.475-9.229-4.997-12.85z"/></symbol><symbol id="icon-facebook" viewBox="0 0 96.124 96.123"><path d="M72.089.02L59.624 0C45.62 0 36.57 9.285 36.57 23.656v10.907H24.037a1.96 1.96 0 0 0-1.96 1.961v15.803a1.96 1.96 0 0 0 1.96 1.96H36.57v39.876a1.96 1.96 0 0 0 1.96 1.96h16.352a1.96 1.96 0 0 0 1.96-1.96V54.287h14.654a1.96 1.96 0 0 0 1.96-1.96l.006-15.803a1.963 1.963 0 0 0-1.961-1.961H56.842v-9.246c0-4.444 1.059-6.7 6.848-6.7l8.397-.003a1.96 1.96 0 0 0 1.959-1.96V1.98A1.96 1.96 0 0 0 72.089.02z"/></symbol><symbol id="icon-instagram" viewBox="0 0 169.063 169.063"><g><path d="M122.406 0H46.654C20.929 0 0 20.93 0 46.655v75.752c0 25.726 20.929 46.655 46.654 46.655h75.752c25.727 0 46.656-20.93 46.656-46.655V46.655C169.063 20.93 148.133 0 122.406 0zm31.657 122.407c0 17.455-14.201 31.655-31.656 31.655H46.654C29.2 154.063 15 139.862 15 122.407V46.655C15 29.201 29.2 15 46.654 15h75.752c17.455 0 31.656 14.201 31.656 31.655v75.752z"/><path d="M84.531 40.97c-24.021 0-43.563 19.542-43.563 43.563 0 24.02 19.542 43.561 43.563 43.561s43.563-19.541 43.563-43.561c0-24.021-19.542-43.563-43.563-43.563zm0 72.123c-15.749 0-28.563-12.812-28.563-28.561 0-15.75 12.813-28.563 28.563-28.563s28.563 12.813 28.563 28.563c0 15.749-12.814 28.561-28.563 28.561zM129.921 28.251c-2.89 0-5.729 1.17-7.77 3.22a11.053 11.053 0 0 0-3.23 7.78c0 2.891 1.18 5.73 3.23 7.78 2.04 2.04 4.88 3.22 7.77 3.22 2.9 0 5.73-1.18 7.78-3.22 2.05-2.05 3.22-4.89 3.22-7.78 0-2.9-1.17-5.74-3.22-7.78-2.04-2.05-4.88-3.22-7.78-3.22z"/></g></symbol><symbol id="icon-linkedin" viewBox="0 0 430.117 430.117"><path d="M430.117 261.543V420.56h-92.188V272.193c0-37.271-13.334-62.707-46.703-62.707-25.473 0-40.632 17.142-47.301 33.724-2.432 5.928-3.058 14.179-3.058 22.477V420.56h-92.219s1.242-251.285 0-277.32h92.21v39.309c-.187.294-.43.611-.606.896h.606v-.896c12.251-18.869 34.13-45.824 83.102-45.824 60.673-.001 106.157 39.636 106.157 124.818zM52.183 9.558C20.635 9.558 0 30.251 0 57.463c0 26.619 20.038 47.94 50.959 47.94h.616c32.159 0 52.159-21.317 52.159-47.94-.606-27.212-20-47.905-51.551-47.905zM5.477 420.56h92.184V143.24H5.477v277.32z"/></symbol><symbol id="icon-locked-padlock" viewBox="0 0 486.733 486.733"><path d="M403.88 196.563h-9.484v-44.388c0-82.099-65.151-150.681-146.582-152.145-2.225-.04-6.671-.04-8.895 0C157.486 1.494 92.336 70.076 92.336 152.175v44.388h-9.485c-14.616 0-26.538 15.082-26.538 33.709v222.632c0 18.606 11.922 33.829 26.539 33.829H403.88c14.616 0 26.539-15.223 26.539-33.829V230.272c0-18.626-11.922-33.709-26.539-33.709zM273.442 341.362v67.271c0 7.703-6.449 14.222-14.158 14.222H227.45c-7.71 0-14.159-6.519-14.159-14.222v-67.271c-7.477-7.36-11.83-17.537-11.83-28.795 0-21.334 16.491-39.666 37.459-40.513 2.222-.09 6.673-.09 8.895 0 20.968.847 37.459 19.179 37.459 40.513-.002 11.258-4.355 21.435-11.832 28.795zm58.444-144.799H154.847v-44.388c0-48.905 39.744-89.342 88.519-89.342 48.775 0 88.521 40.437 88.521 89.342v44.388z"/></symbol><symbol id="icon-message" viewBox="0 0 512 512"><path d="M510.576 264.536l-58.431-157.94a22.747 22.747 0 0 0-11.913-12.863 22.754 22.754 0 0 0-17.519-.672L137.796 198.467a22.76 22.76 0 0 0-12.864 11.912 22.759 22.759 0 0 0-.672 17.519l58.431 157.94a22.752 22.752 0 0 0 11.913 12.864 22.83 22.83 0 0 0 9.559 2.107c2.682 0 5.37-.476 7.961-1.435l284.918-105.406h.001c11.843-4.383 17.915-17.586 13.533-29.432zM407.052 123.279l-88.377 126.344-149.327-38.405 237.704-87.939zM200.044 366.731l-50.683-137 117.382 30.192-66.699 106.808zm24.819 3.506l65.152-104.33 30.642 7.882c.951.241 1.913.367 2.852.367 3.688 0 7.216-1.787 9.392-4.891l18.133-25.944 117.369 36.818-243.54 90.098zm139.951-146.599l69.463-99.324 50.703 137.019-120.166-37.695zM133.44 388.976c-2.194-5.933-8.786-8.961-14.715-6.768l-43.162 15.968c-5.933 2.196-8.962 8.784-6.768 14.716 1.71 4.623 6.086 7.482 10.743 7.482 1.319 0 2.663-.23 3.973-.715l43.16-15.968c5.935-2.193 8.964-8.782 6.769-14.715zM75.023 282.646c-2.196-5.933-8.785-8.96-14.716-6.768l-26.643 9.857c-5.933 2.196-8.962 8.783-6.768 14.716 1.71 4.622 6.087 7.482 10.743 7.482 1.319 0 2.663-.23 3.973-.715l26.643-9.857c5.933-2.193 8.963-8.782 6.768-14.715zM41.995 369.408c-2.196-5.933-8.785-8.962-14.716-6.768l-19.797 7.324C1.549 372.16-1.48 378.748.714 384.68c1.71 4.622 6.086 7.482 10.743 7.482 1.319 0 2.663-.23 3.973-.715l19.797-7.324c5.934-2.194 8.963-8.782 6.768-14.715z"/></symbol><symbol id="icon-presentation" viewBox="0 0 512.001 512.001"><path d="M479.381 48.414H142.637c-17.986 0-32.619 14.634-32.619 32.619v100.128c-8.955 1.794-17.254 6.341-23.571 13.083-8.304 8.863-12.613 20.898-11.824 33.018l1.387 21.264 3.238 49.657c1.231 18.871 11.858 35.577 28.426 44.689 8.313 4.572 17.432 6.859 26.552 6.859 9.118 0 18.239-2.287 26.551-6.858a55.383 55.383 0 0 0 12.498-9.413H479.38c17.986 0 32.619-14.634 32.619-32.619V81.034c.001-17.986-14.631-32.62-32.618-32.62zM95.683 236.736l-.704-10.8c-.431-6.609 1.825-12.911 6.353-17.744 4.529-4.833 10.669-7.495 17.293-7.495h26.289l-5.684 15.157c-1.56 2.371-12.207 16.661-43.547 20.882zm73.163 60.121c-.773 11.884-7.465 22.405-17.9 28.144-10.471 5.759-22.971 5.759-33.442-.001-10.434-5.738-17.127-16.259-17.901-28.143l-2.592-39.734c24.805-3.113 40.262-11.846 49.333-19.427 2.027 1.639 4.411 3.168 7.147 4.583 4.092 2.114 10.188 4.219 18.498 6.386l-3.143 48.192zm4.628-70.921l-.128 1.957c-6.077-1.733-9.077-3.008-10.49-3.738-2.062-1.066-3.287-1.957-3.991-2.569l5.858-15.621a24.146 24.146 0 0 1 2.397 2.228c4.528 4.832 6.785 11.134 6.354 17.743zm318.129 74.906c0 6.739-5.482 12.221-12.221 12.221H186.133a55.398 55.398 0 0 0 3.072-14.879l.05-.772h262.431c5.633 0 10.199-4.567 10.199-10.199s-4.566-10.199-10.199-10.199h-11.079V108.896c0-5.632-4.566-10.199-10.199-10.199h-49.246c-5.633 0-10.199 4.567-10.199 10.199v168.117h-12.681V204.04c0-5.632-4.566-10.199-10.199-10.199h-49.246c-5.633 0-10.199 4.567-10.199 10.199v72.973h-11.949V148.986c0-5.632-4.566-10.199-10.199-10.199h-49.246c-5.633 0-10.199 4.567-10.199 10.199v128.027h-16.458l2.32-35.573.924-14.177c.738-11.325-2.978-22.574-10.243-31.232V95.173c0-5.632-4.566-10.199-10.199-10.199s-10.199 4.567-10.199 10.199v87.213a43.967 43.967 0 0 0-13.36-2.087h-19.411V81.034c0-6.739 5.482-12.221 12.221-12.221h336.745c6.739 0 12.221 5.482 12.221 12.221v219.808zm-264.162-23.829V159.185h28.848v117.828h-28.848zm81.594 0V214.24h28.848v62.773h-28.848zm82.325 0V119.095h28.848v157.918H391.36zM267.897 423.043c-6.178-34.096-33.19-61.31-67.216-67.717a84.608 84.608 0 0 0-15.618-1.458H169.5a10.203 10.203 0 0 0-7.212 2.987l-28.062 28.062-28.061-28.062a10.2 10.2 0 0 0-7.212-2.987H83.39c-5.228 0-10.483.491-15.617 1.458-34.027 6.406-61.04 33.621-67.217 67.718a34.318 34.318 0 0 0 7.448 28.19 34.321 34.321 0 0 0 26.411 12.352H234.04a34.324 34.324 0 0 0 26.411-12.352 34.331 34.331 0 0 0 7.446-28.191zm-23.104 15.115a13.975 13.975 0 0 1-10.753 5.03H34.414a13.975 13.975 0 0 1-10.753-5.03 13.972 13.972 0 0 1-3.032-11.478c4.68-25.835 25.143-46.454 50.922-51.307a64.05 64.05 0 0 1 11.84-1.106H94.73l32.286 32.286c3.984 3.982 10.442 3.983 14.424 0l32.287-32.286h11.339c3.964 0 7.948.371 11.841 1.106 25.777 4.854 46.239 25.473 50.921 51.308v-.001a13.985 13.985 0 0 1-3.035 11.478z"/><path d="M472.223 78.401c-5.633 0-10.199 4.567-10.199 10.199v38.752c0 5.632 4.566 10.199 10.199 10.199s10.199-4.567 10.199-10.199V88.6c.001-5.633-4.566-10.199-10.199-10.199zM472.223 149.795c-5.633 0-10.199 4.567-10.199 10.199v5.101c0 5.632 4.566 10.199 10.199 10.199s10.199-4.567 10.199-10.199v-5.101c.001-5.633-4.566-10.199-10.199-10.199z"/></symbol><symbol id="icon-quote" viewBox="0 0 16 16"><path d="M7 7v7H0V6.9c0-4.8 4.5-5.4 4.5-5.4l.6 1.4s-2 .3-2.4 1.9C2.3 6 3.1 7 3.1 7H7zM16 7v7H9V6.9c0-4.8 4.5-5.4 4.5-5.4l.6 1.4s-2 .3-2.4 1.9c-.4 1.2.4 2.2.4 2.2H16z"/></symbol><symbol id="icon-shield" viewBox="0 0 300 300"><path d="M121.631 143.635l-13.639 11.998 32.726 36.476.064-.064.044.064 58.688-59.642-10.475-13.769-47.699 39.254z"/><path d="M149.997 0C67.158 0 .003 67.161.003 149.997S67.158 300 149.997 300s150-67.163 150-150.003S232.837 0 149.997 0zM150 232.886c-77.185 0-82.683-130.592-82.683-130.592l82.681-35.187H150l82.681 35.187S227.183 232.886 150 232.886z"/></symbol><symbol id="icon-ticket" viewBox="0 0 64.828 64.828"><path d="M57.414 17l-.707.707c-1.324 1.324-2.287 1.707-4.293 1.707-4.056 0-7-2.944-7-7 0-2.006.383-2.969 1.707-4.293l.707-.707L40.414 0 0 40.414l7.414 7.414.707-.707c1.324-1.324 2.287-1.707 4.293-1.707 4.056 0 7 2.944 7 7 0 2.006-.383 2.969-1.707 4.293l-.707.707 7.414 7.414 40.414-40.414L57.414 17zM19.8 57.385c1.192-1.421 1.614-2.79 1.614-4.971 0-5.131-3.869-9-9-9-2.181 0-3.55.422-4.972 1.614l-4.614-4.614 23.586-23.586 3.293 3.293 1.414-1.414-3.293-3.293L40.414 2.828l4.614 4.615c-1.192 1.421-1.614 2.79-1.614 4.971 0 5.131 3.869 9 9 9 2.181 0 3.55-.422 4.972-1.614L62 24.414 49.414 37l-3.293-3.293-1.414 1.414L48 38.414 24.414 62 19.8 57.385z"/><path d="M35.707 26.122l-4-4 1.414-1.414 4 4-1.414 1.414zM42.707 33.122l-4-4 1.414-1.414 4 4-1.414 1.414z"/></symbol><symbol id="icon-twitter" viewBox="0 0 612 612"><path d="M612 116.258a250.714 250.714 0 0 1-72.088 19.772c25.929-15.527 45.777-40.155 55.184-69.411-24.322 14.379-51.169 24.82-79.775 30.48-22.907-24.437-55.49-39.658-91.63-39.658-69.334 0-125.551 56.217-125.551 125.513 0 9.828 1.109 19.427 3.251 28.606-104.326-5.24-196.835-55.223-258.75-131.174-10.823 18.51-16.98 40.078-16.98 63.101 0 43.559 22.181 81.993 55.835 104.479a125.556 125.556 0 0 1-56.867-15.756v1.568c0 60.806 43.291 111.554 100.693 123.104-10.517 2.83-21.607 4.398-33.08 4.398-8.107 0-15.947-.803-23.634-2.333 15.985 49.907 62.336 86.199 117.253 87.194-42.947 33.654-97.099 53.655-155.916 53.655-10.134 0-20.116-.612-29.944-1.721 55.567 35.681 121.536 56.485 192.438 56.485 230.948 0 357.188-191.291 357.188-357.188l-.421-16.253c24.666-17.593 46.005-39.697 62.794-64.861z"/></symbol><symbol id="icon-youtube" viewBox="0 0 90 90"><path d="M70.939 65.832H66l.023-2.869a2.329 2.329 0 0 1 2.326-2.318h.315a2.332 2.332 0 0 1 2.332 2.318l-.057 2.869zm-18.526-6.148c-1.253 0-2.278.842-2.278 1.873V75.51c0 1.029 1.025 1.869 2.278 1.869 1.258 0 2.284-.84 2.284-1.869V61.557c0-1.032-1.026-1.873-2.284-1.873zM82.5 51.879v26.544C82.5 84.79 76.979 90 70.23 90H19.771C13.02 90 7.5 84.79 7.5 78.423V51.879c0-6.367 5.52-11.578 12.271-11.578H70.23c6.749 0 12.27 5.211 12.27 11.578zM23.137 81.305l-.004-27.961 6.255.002v-4.143l-16.674-.025v4.073l5.205.015v28.039h5.218zm18.75-23.796h-5.215V72.44c0 2.16.131 3.24-.008 3.621-.424 1.158-2.33 2.388-3.073.125-.126-.396-.015-1.591-.017-3.643l-.021-15.034h-5.186l.016 14.798c.004 2.268-.051 3.959.018 4.729.127 1.357.082 2.939 1.341 3.843 2.346 1.69 6.843-.252 7.968-2.668l-.01 3.083 4.188.005-.001-23.79zM58.57 74.607l-.011-12.427c-.004-4.736-3.547-7.572-8.356-3.74l.021-9.239-5.209.008-.025 31.89 4.284-.062.39-1.986c5.473 5.021 8.914 1.58 8.906-4.444zm16.321-1.647l-3.91.021c-.002.155-.008.334-.01.529v2.182c0 1.168-.965 2.119-2.137 2.119h-.766c-1.174 0-2.139-.951-2.139-2.119v-5.739h8.954v-3.37c0-2.463-.063-4.925-.267-6.333-.641-4.454-6.893-5.161-10.051-2.881a5.887 5.887 0 0 0-2.188 2.945c-.444 1.281-.665 3.031-.665 5.254v7.41c.002 12.318 14.964 10.577 13.179-.018zM54.833 32.732a3.55 3.55 0 0 0 1.254 1.584c.56.394 1.276.592 2.134.592.752 0 1.418-.203 1.998-.622.578-.417 1.065-1.04 1.463-1.871l-.099 2.046h5.813V9.74H62.82v19.24a1.907 1.907 0 0 1-3.811 0V9.74h-4.776v16.674c0 2.124.039 3.54.102 4.258.065.713.229 1.397.498 2.06zM37.217 18.77c0-2.373.198-4.226.591-5.562.396-1.331 1.107-2.401 2.137-3.208 1.027-.811 2.342-1.217 3.941-1.217 1.345 0 2.497.264 3.459.781.967.52 1.713 1.195 2.23 2.028a8 8 0 0 1 1.076 2.574c.195.891.291 2.235.291 4.048v6.252c0 2.293-.092 3.98-.271 5.051a8.006 8.006 0 0 1-1.146 3.004c-.58.924-1.329 1.615-2.237 2.056-.918.445-1.968.663-3.154.663-1.325 0-2.441-.183-3.361-.565-.923-.38-1.636-.953-2.144-1.714-.513-.762-.874-1.69-1.092-2.772-.219-1.081-.323-2.707-.323-4.874l.003-6.545zm4.553 9.82c0 1.4 1.042 2.543 2.311 2.543 1.27 0 2.308-1.143 2.308-2.543V15.43c0-1.398-1.038-2.541-2.308-2.541-1.269 0-2.311 1.143-2.311 2.541v13.16zm-16.088 6.645h5.484l.006-18.96L37.652.033h-5.998l-3.445 12.064L24.715 0h-5.936l6.894 16.284.009 18.951z"/></symbol></svg>