<?xml version="1.0" encoding="UTF-8"?><!DOCTYPE svg PUBLIC "-//W3C//DTD SVG 1.1//EN" "http://www.w3.org/Graphics/SVG/1.1/DTD/svg11.dtd"><svg xmlns="http://www.w3.org/2000/svg" class="showtix-to-hide"><symbol id="icon-cursor" viewBox="0 0 297 297"><g><path d="M294.077 251.199l-59.104-59.106 42.166-24.357a9.93 9.93 0 0 0 4.938-9.316 9.926 9.926 0 0 0-6.225-8.51L87.82 74.905a9.93 9.93 0 0 0-12.905 12.903l74.994 188.053a9.933 9.933 0 0 0 17.827 1.287l24.353-42.166 59.102 59.107a9.926 9.926 0 0 0 14.045 0l28.841-28.844c3.879-3.879 3.879-10.167 0-14.046zm-35.863 21.823l-61.229-61.235a9.931 9.931 0 0 0-15.624 2.056l-20.584 35.642-58.849-147.564 147.549 58.857-35.645 20.588a9.93 9.93 0 0 0-2.056 15.624l61.232 61.235-14.794 14.797zM43.611 29.552c-3.88-3.876-10.166-3.876-14.048 0-3.879 3.88-3.879 10.168 0 14.048l22.069 22.069a9.908 9.908 0 0 0 7.024 2.909 9.91 9.91 0 0 0 7.023-2.909c3.878-3.879 3.878-10.168 0-14.047l-22.068-22.07zM51.089 98.215c0-5.485-4.448-9.931-9.933-9.931H9.946c-5.484 0-9.933 4.445-9.933 9.931 0 5.484 4.448 9.932 9.933 9.932h31.21c5.485-.001 9.933-4.448 9.933-9.932zM47.063 128.87l-22.071 22.071c-3.88 3.877-3.88 10.166 0 14.045a9.898 9.898 0 0 0 7.023 2.909c2.541 0 5.082-.97 7.021-2.909l22.072-22.07c3.879-3.878 3.879-10.168 0-14.046-3.877-3.878-10.165-3.878-14.045 0zM98.222 51.078c5.484 0 9.932-4.448 9.932-9.933V9.932c0-5.484-4.447-9.932-9.932-9.932s-9.931 4.447-9.931 9.932v31.214c0 5.484 4.445 9.932 9.931 9.932zM135.893 64.005a9.895 9.895 0 0 0 7.024-2.908l22.068-22.069c3.88-3.879 3.88-10.168 0-14.046-3.878-3.879-10.169-3.879-14.045 0l-22.069 22.069c-3.879 3.878-3.879 10.168 0 14.046a9.896 9.896 0 0 0 7.022 2.908z"/></g></symbol><symbol id="icon-exclamation" viewBox="0 0 401.999 401.998"><path d="M237.543 301.499h-73.091c-4.95 0-9.233 1.811-12.851 5.425-3.615 3.617-5.424 7.897-5.424 12.847v63.953c0 4.948 1.809 9.232 5.424 12.854 3.621 3.61 7.9 5.421 12.851 5.421h73.097c4.942 0 9.227-1.811 12.848-5.421 3.61-3.621 5.42-7.905 5.42-12.854v-63.953c0-4.949-1.813-9.229-5.427-12.847-3.617-3.617-7.902-5.425-12.847-5.425zM259.383 5.424C255.862 1.812 251.628 0 246.676 0h-91.359c-4.948 0-9.18 1.812-12.703 5.424-3.521 3.617-5.186 7.902-4.996 12.85l7.992 219.265c.19 4.948 2.139 9.236 5.852 12.847 3.711 3.621 8.041 5.431 12.991 5.431h73.097c4.942 0 9.271-1.81 12.991-5.431 3.71-3.61 5.653-7.898 5.852-12.847l7.987-219.265c.198-4.948-1.475-9.229-4.997-12.85z"/></symbol><symbol id="icon-locked-padlock" viewBox="0 0 486.733 486.733"><path d="M403.88 196.563h-9.484v-44.388c0-82.099-65.151-150.681-146.582-152.145-2.225-.04-6.671-.04-8.895 0C157.486 1.494 92.336 70.076 92.336 152.175v44.388h-9.485c-14.616 0-26.538 15.082-26.538 33.709v222.632c0 18.606 11.922 33.829 26.539 33.829H403.88c14.616 0 26.539-15.223 26.539-33.829V230.272c0-18.626-11.922-33.709-26.539-33.709zM273.442 341.362v67.271c0 7.703-6.449 14.222-14.158 14.222H227.45c-7.71 0-14.159-6.519-14.159-14.222v-67.271c-7.477-7.36-11.83-17.537-11.83-28.795 0-21.334 16.491-39.666 37.459-40.513 2.222-.09 6.673-.09 8.895 0 20.968.847 37.459 19.179 37.459 40.513-.002 11.258-4.355 21.435-11.832 28.795zm58.444-144.799H154.847v-44.388c0-48.905 39.744-89.342 88.519-89.342 48.775 0 88.521 40.437 88.521 89.342v44.388z"/></symbol><symbol id="icon-message" viewBox="0 0 512 512"><path d="M510.576 264.536l-58.431-157.94a22.747 22.747 0 0 0-11.913-12.863 22.754 22.754 0 0 0-17.519-.672L137.796 198.467a22.76 22.76 0 0 0-12.864 11.912 22.759 22.759 0 0 0-.672 17.519l58.431 157.94a22.752 22.752 0 0 0 11.913 12.864 22.83 22.83 0 0 0 9.559 2.107c2.682 0 5.37-.476 7.961-1.435l284.918-105.406h.001c11.843-4.383 17.915-17.586 13.533-29.432zM407.052 123.279l-88.377 126.344-149.327-38.405 237.704-87.939zM200.044 366.731l-50.683-137 117.382 30.192-66.699 106.808zm24.819 3.506l65.152-104.33 30.642 7.882c.951.241 1.913.367 2.852.367 3.688 0 7.216-1.787 9.392-4.891l18.133-25.944 117.369 36.818-243.54 90.098zm139.951-146.599l69.463-99.324 50.703 137.019-120.166-37.695zM133.44 388.976c-2.194-5.933-8.786-8.961-14.715-6.768l-43.162 15.968c-5.933 2.196-8.962 8.784-6.768 14.716 1.71 4.623 6.086 7.482 10.743 7.482 1.319 0 2.663-.23 3.973-.715l43.16-15.968c5.935-2.193 8.964-8.782 6.769-14.715zM75.023 282.646c-2.196-5.933-8.785-8.96-14.716-6.768l-26.643 9.857c-5.933 2.196-8.962 8.783-6.768 14.716 1.71 4.622 6.087 7.482 10.743 7.482 1.319 0 2.663-.23 3.973-.715l26.643-9.857c5.933-2.193 8.963-8.782 6.768-14.715zM41.995 369.408c-2.196-5.933-8.785-8.962-14.716-6.768l-19.797 7.324C1.549 372.16-1.48 378.748.714 384.68c1.71 4.622 6.086 7.482 10.743 7.482 1.319 0 2.663-.23 3.973-.715l19.797-7.324c5.934-2.194 8.963-8.782 6.768-14.715z"/></symbol><symbol id="icon-quote" viewBox="0 0 16 16"><path d="M7 7v7H0V6.9c0-4.8 4.5-5.4 4.5-5.4l.6 1.4s-2 .3-2.4 1.9C2.3 6 3.1 7 3.1 7H7zM16 7v7H9V6.9c0-4.8 4.5-5.4 4.5-5.4l.6 1.4s-2 .3-2.4 1.9c-.4 1.2.4 2.2.4 2.2H16z"/></symbol><symbol id="icon-shield" viewBox="0 0 300 300"><path d="M121.631 143.635l-13.639 11.998 32.726 36.476.064-.064.044.064 58.688-59.642-10.475-13.769-47.699 39.254z"/><path d="M149.997 0C67.158 0 .003 67.161.003 149.997S67.158 300 149.997 300s150-67.163 150-150.003S232.837 0 149.997 0zM150 232.886c-77.185 0-82.683-130.592-82.683-130.592l82.681-35.187H150l82.681 35.187S227.183 232.886 150 232.886z"/></symbol></svg>