<?xml version="1.0" encoding="UTF-8"?><!DOCTYPE svg PUBLIC "-//W3C//DTD SVG 1.1//EN" "http://www.w3.org/Graphics/SVG/1.1/DTD/svg11.dtd"><svg xmlns="http://www.w3.org/2000/svg" class="showtix-to-hide"><symbol id="icon-logo" viewBox="0 0 425.2 287.6"><style>.st0{fill:#e3e3f2}.st1{fill:#cacce7}.st2{fill:#fff}.st3{fill:#a3a5c1}</style><path class="st0" d="M116.7 154.7l25 20.3 1-1.4c7.2-8.9 19.3-11.2 27-5 7.6 6.2 8 18.5.7 27.4l-1.1 1.3 27 21.9 121.5-150-25-20.3-1 1.4c-7.2 8.9-19.3 11.2-27 5-7.6-6.2-8-18.5-.7-27.4l1.1-1.3-27-21.9-121.5 150z"/><path class="st1" d="M196.8 223.8L322.5 68.6l-30.2-24.5-3.1 4.1c-4.2 5.2-10.6 8-16.4 7.1-2.2-.4-4.2-1.2-5.9-2.6-6.2-5-6.3-15.2-.3-22.7l3.3-3.9L237.7 0 112.1 155.2l30.2 24.5 3.1-4.1c4.2-5.2 10.6-8 16.4-7.1 2.2.4 4.2 1.2 5.9 2.6 6.2 5 6.3 15.2.3 22.7l-3.3 3.9 32.1 26.1zM313.2 69.6L195.9 214.5 174 196.8c7.4-10.2 6.5-23.8-2.2-30.8-2.6-2.1-5.6-3.4-9-4-7.7-1.2-15.8 1.9-21.6 8.3l-19.9-16.1L238.7 9.3 260.6 27c-7.4 10.2-6.5 23.8 2.2 30.8 2.6 2.1 5.7 3.5 9 4 7.7 1.2 15.8-1.9 21.6-8.3l19.8 16.1z"/><path class="st0" d="M160 141.1l28.1-14.3 3.1 16.9 32.7-40.6-52.1 2.6 11.9 12.4-28.2 14.4 4.5 8.6z"/><path class="st1" d="M159.3 145.3c.9.1 1.8 0 2.6-.4l23.1-11.8 2.1 11.3c.3 1.6 1.5 2.9 3.1 3.3 1.6.4 3.3-.2 4.3-1.4l32.8-40.6c1-1.3 1.2-3.1.5-4.6-.8-1.5-2.3-2.4-4-2.3l-52.1 2.6c-1.7.1-3.1 1.1-3.7 2.7-.6 1.5-.3 3.3.9 4.5l7.9 8.3-23.1 11.8c-2.1 1.1-2.9 3.6-1.8 5.7l4.4 8.7c.5 1.2 1.7 2 3 2.2zm29.5-22.7c-.9-.1-1.8 0-2.6.4l-24.4 12.4-.6-1.1 24.4-12.4c1.2-.6 2-1.7 2.2-3.1.2-1.3-.2-2.7-1.1-3.6l-5.5-5.7 33.4-1.7-21 26.1-1.4-7.8c-.2-1.3-1.1-2.4-2.3-3-.3-.3-.7-.4-1.1-.5z"/><path class="st2" d="M160 141.1l28.1-14.3 3.1 16.9 32.7-40.6-52.1 2.6 11.9 12.4-28.2 14.4 4.5 8.6z"/><path class="st1" d="M159.5 142.4l27.8-14.2 3.2 17.7L226 102l-56.4 2.9 12.4 13-27.8 14.1 5.3 10.4zm29.3-17.1l-28.4 14.5-3.5-6.9 28.4-14.5-11.3-11.8 47.8-2.4-30.1 37.2-2.9-16.1zM226.8 153c.3 0 .6.1.8 0 2.1-.1 3.6-1.9 3.5-4l-2-28.9c-.1-2.1-1.9-3.6-4-3.5-2.1.1-3.6 1.9-3.5 4l2 28.9c.2 1.8 1.5 3.2 3.2 3.5zm29.1-17.7c1.2.2 2.5-.2 3.4-1.2 1.4-1.6 1.2-3.9-.4-5.3l-19.2-16.7c-1.6-1.4-3.9-1.2-5.3.4s-1.2 3.9.4 5.3l19.2 16.7c.6.4 1.2.7 1.9.8zM240.7 106c.3 0 .6.1.9 0l24.1-1.7c2.1-.1 3.6-1.9 3.5-4-.1-2.1-1.9-3.6-4-3.5L241 98.6c-2.1.1-3.6 1.9-3.5 4 .2 1.8 1.5 3.2 3.2 3.4zm-30.3-10.3c1.2.2 2.5-.2 3.4-1.2 1.4-1.6 1.2-3.9-.4-5.3l-19.3-16.8c-1.6-1.4-3.9-1.2-5.3.4s-1.2 3.9.4 5.3l19.3 16.8c.6.5 1.3.7 1.9.8zm25.1-2.1c1.2.2 2.5-.2 3.4-1.2l14.4-16.6c1.4-1.6 1.2-3.9-.4-5.3s-3.9-1.2-5.3.4l-14.4 16.6c-1.4 1.6-1.2 3.9.4 5.3.6.4 1.2.7 1.9.8zm-13.1-3.5c.3 0 .6.1.8 0 2.1-.1 3.6-1.9 3.5-4L224.5 55c-.1-2.1-1.9-3.6-4-3.5-2.1.1-3.6 1.9-3.5 4l2.2 31.1c.2 1.9 1.6 3.3 3.2 3.5z"/><path class="st2" d="M411.4 218.8h-37c-2.3 0-4.3 1.7-4.9 4.1-3.4-2.7-7.5-4.1-12.3-4.1-5.4 0-10 1.8-13.6 5.2-1 1-1.9 2-2.6 3.2-.5-.7-1-1.5-1.5-2.1-3.5-4.2-8.2-6.3-14.1-6.3-5.4 0-10 1.8-13.6 5.2-4.4 4.3-6.7 10.6-6.7 19v20.3c0 1.1 0 2.1.1 3.1-1.6-1.1-3.5-1.7-5.5-1.7-1.4 0-2.6.3-3.8.8v-41c0-3.1-2.3-5.6-5.1-5.6h-12.9c-.7 0-1.3.1-1.9.4-.6-.3-1.2-.4-1.9-.4h-12.9c-.3 0-.5 0-.8.1-.4-.1-.8-.2-1.2-.2h-12.9c-.8 0-1.5.2-2.1.5-.7-.3-1.4-.5-2.1-.5h-.5c-3.9.5-7.3 2-10 4.6-.2-.9-.5-1.8-1-2.5-1-1.3-2.4-2.1-3.9-2.1h-10.8c-1.1 0-2.1.4-2.9 1-.8-.7-1.8-1-2.9-1h-1.7c-.3-.3-.6-.6-1-.9-.2-.1-.4-.3-.6-.4l-5.6-3.1-.2-6.8c.1-3.1-1.4-5.1-3-6-.7-.4-1.5-.6-2.3-.6-2.3 0-3.7 1.6-4.2 2.1l-.1.1-4.4 5.1-6.2-1.9c-.7-.2-1.3-.3-1.9-.3-2.3 0-4.3 1.6-5.1 4-.4 1.3-.3 2.8.2 4.1l.3.7.3.6 1.8 3.3h-24.3c-.3 0-.5-.1-.8-.1h-12.9c-.7 0-1.3.1-1.9.4-.6-.3-1.2-.4-1.9-.4h-12.9c-.7 0-1.3.1-1.9.4-.6-.3-1.2-.4-1.9-.4H105c-2.3 0-4.3 1.8-4.9 4.1-3.4-2.7-7.5-4.1-12.3-4.1-5.4 0-10 1.8-13.6 5.2-.5.4-.9.9-1.3 1.4-3.2-5.8-8.3-6.7-11-6.7H59v-9c0-3.1-2.3-5.6-5.1-5.6h-13c-2.8 0-5.1 2.5-5.1 5.6V222c-3.1-2.2-6.9-3.4-11.1-3.4-9.5 0-14.1 4.7-16.3 8.6-2.1 3.6-3.1 8.4-3.1 14.6 0 4.3.7 8 2 10.9-1.4 1-2.3 2.8-2.3 4.7v8.8c0 7.3 1.8 12.8 5.3 16.4 3.1 3.2 7.5 4.8 13.3 4.8 5.2 0 9.4-1.2 12.6-3.4.8 2 2.6 3.4 4.7 3.4h12.9c.7 0 1.3-.1 1.9-.4.6.3 1.2.4 1.9.4h12.9c2.3 0 4.3-1.7 4.9-4.1 3.4 2.7 7.5 4.1 12.3 4.1 5.4 0 10-1.8 13.6-5.2.5-.4.9-.9 1.3-1.4 3.2 5.9 8.3 6.7 11 6.7h28.8c2.9 0 8.6-1 11.7-8.2v2.5c0 3.1 2.3 5.6 5.1 5.6h13.3c2.5 0 4.6-2 5-4.7.4 2.7 2.5 4.7 5 4.7h12.9c.3 0 .6 0 .8-.1.4.1.8.2 1.2.2h12.9c.8 0 1.6-.2 2.3-.6.7.4 1.5.6 2.3.6h12.9c2.8 0 5.1-2.5 5.1-5.6v-8.5c0-.9 0-1.7-.1-2.6h8.6V282c0 3.1 2.3 5.6 5.1 5.6h12.9c1.6 0 3-.8 3.9-2.1 2.5 1.6 5.1 2 6.8 2h20.8c1.4 0 2.6-.6 3.5-1.6 1.6 1.1 3.4 1.7 5.4 1.7 2.8 0 5.3-1.2 7.3-3.4 1.2-1.3 2-2.9 2.5-4.6.7.9 1.4 1.8 2.2 2.6 3.6 3.5 8.2 5.2 13.6 5.2 6.1 0 10.9-2.1 14.2-6.2l1.5-2.1c.8 1.1 1.6 2.2 2.6 3.1 3.6 3.5 8.2 5.2 13.6 5.2 4.8 0 8.9-1.4 12.3-4.1.6 2.4 2.6 4.1 4.9 4.1h12.9c.7 0 1.3-.1 1.9-.4.6.3 1.2.4 1.9.4h12.4c.7 0 1.3-.1 1.9-.4.6.3 1.2.4 1.9.4h12.9c2.8 0 5.1-2.5 5.1-5.6v-42.5c-.2-18.5-9.9-20.5-14-20.5z"/><path class="st3" d="M38.9 265.6c0 5.9-1.4 10.2-4.2 12.8-2.5 2.3-6.2 3.5-11.1 3.5-4.4 0-7.7-1.1-9.8-3.3-2.5-2.5-3.7-6.5-3.7-12.2v-8.8H22v10.3c0 2 .7 3.1 2.1 3.1 1.5 0 2.3-1.1 2.3-3.2v-6.4c0-2-.4-3.3-1.3-3.9-1-.5-2.3-1.1-3.8-1.6-3.7-.4-6.4-1.5-8-3.2-1.9-2.1-2.9-5.7-2.9-10.6 0-5 .8-8.9 2.3-11.6 2.2-4 6.2-5.9 12-5.9 3.5 0 6.4.9 8.8 2.8 3.2 2.5 4.8 6.3 4.8 11.4V250H26.4v-11.3c0-2.2-.7-3.3-2-3.3-1.4 0-2.1 1.1-2.1 3.3v11.2c.1 1.1 1.1 1.6 2.9 1.4 3.5 0 6.4.9 8.8 2.8 3.3 2.6 4.9 6.4 4.9 11.5zM70.5 281.9H57.6v-42c0-2.7-.7-4-2-4-1.2 0-1.8 1.4-1.8 4.1v41.9H40.9v-72.1h12.9v14.6h8c5.8 0 8.8 5 8.8 15v42.5h-.1zM102.9 263.3c0 6.6-1.6 11.6-4.9 14.7-2.7 2.6-6.1 3.9-10.3 3.9-4.2 0-7.6-1.3-10.3-3.9-3.3-3.2-4.9-8.1-4.9-14.7V243c0-6.6 1.6-11.6 4.9-14.7 2.7-2.6 6.1-3.9 10.3-3.9 4.2 0 7.6 1.3 10.3 3.9 3.3 3.2 4.9 8.1 4.9 14.7v20.3zM90 266.7v-28.1c0-2.5-.8-3.7-2.3-3.7-1.5 0-2.3 1.2-2.3 3.7v28.1c0 2.5.8 3.7 2.3 3.7 1.5 0 2.3-1.3 2.3-3.7zM151.1 267c0 10-2.9 15-8.8 15h-28.8c-5.8 0-8.8-5-8.8-15v-42.6h12.9v42.1c0 2.7.7 4 2 4 1.2 0 1.8-1.4 1.8-4.2v-42h12.9v42c0 2.8.6 4.2 1.8 4.2 1.4 0 2-1.3 2-4v-42.1H151V267h.1zM180.4 232.2h-7.9v49.7h-13.3v-49.7h-7.9v-7.7h29.1v7.7z"/><path class="st3" d="M205 223.2c-.2.1-.4.2-.7.3l-8.5 3.1-.7 5.6h.2v49.7h-12.9v-49.7h7.4l-2-3.1-9.6 2.1c-.4.1-.6.1-.7.1-.1-.1-.2-.2-.1-.3 0-.1.2-.2.4-.6l5.5-9.2-4.6-8.6-.3-.7c0-.2.3-.2.9 0l9 2.7 6.5-7.5c.3-.4.6-.5.7-.5.1.1.2.3.1.8l.4 10.5 8.3 4.6c.6.4.8.6.7.7zm-4.2-.5l-6.6-3.4-.1-8.4-5.1 6.1-6.9-2.3 3.6 6.6-4.7 7.4 7.7-2.1 4.3 7.2 1.1-8.9 6.7-2.2zm-3.9-.4l-4.3 1.4-.6 5.6-.1.1-2.6-4.7-4.9 1.4-.1-.2 3.1-4.5-2.2-4 .1-.1 4.1 1.7 3.2-3.9v5.3l4.3 1.9z"/><path class="st3" d="M227.8 282h-12.9v-13.1c0-2.5-.8-3.7-2.3-3.7-1.5 0-2.3 1.2-2.3 3.7V282h-12.9v-8.5c0-7.9 2.3-13.4 6.9-16.4l-5.9-32.7H210l3 21.9h.1l2.7-21.9h10.8l-6.2 32.4c4.9 2.9 7.3 8.4 7.3 16.6v8.6h.1zM242.2 257.6h4.2v-33.2h12.9V282h-12.9v-16.7h-16.6V243c0-6.1 1.3-10.7 3.8-13.9 2.1-2.7 5-4.2 8.5-4.7l.1 33.2zM290.8 281.9H270c-5.8 0-8.8-5-8.8-15v-42.5h12.9v42c0 2.7.7 4 2 4 1.2 0 1.8-1.4 1.8-4.1v-41.9h12.9v57.5zM294.5 276.1c0-1.6.5-3 1.5-4.1 1-1.1 2.2-1.7 3.7-1.7 1.4 0 2.7.6 3.7 1.7s1.5 2.5 1.5 4.1c0 1.6-.5 3-1.5 4.1-1 1.1-2.2 1.7-3.7 1.7-1.4 0-2.7-.6-3.7-1.7s-1.5-2.5-1.5-4.1zM340.1 260.1c0 8.2-1.4 14-4.3 17.5-2.4 2.9-5.9 4.3-10.5 4.3-4.2 0-7.6-1.3-10.3-3.9-3.3-3.2-4.9-8.1-4.9-14.7V243c0-6.6 1.6-11.6 4.9-14.7 2.7-2.6 6.1-3.9 10.3-3.9 4.4 0 7.9 1.5 10.4 4.5 2.6 3.2 3.9 7.7 3.9 13.6v10.7h-12.4V238c0-2.1-.7-3.2-2.1-3.2-1.4 0-2.1 1.1-2.1 3.2v29.1c0 2.9.8 4.3 2.3 4.3 1.5 0 2.3-1.5 2.3-4.6v-9.3H340v2.6h.1zM372.4 263.3c0 6.6-1.6 11.6-4.9 14.7-2.7 2.6-6.1 3.9-10.3 3.9-4.2 0-7.6-1.3-10.3-3.9-3.3-3.2-4.9-8.1-4.9-14.7V243c0-6.6 1.6-11.6 4.9-14.7 2.7-2.6 6.1-3.9 10.3-3.9 4.2 0 7.6 1.3 10.3 3.9 3.3 3.2 4.9 8.1 4.9 14.7v20.3zm-12.8 3.4v-28.1c0-2.5-.8-3.7-2.3-3.7-1.5 0-2.3 1.2-2.3 3.7v28.1c0 2.5.8 3.7 2.3 3.7 1.5 0 2.3-1.3 2.3-3.7zM420.1 281.9h-12.9v-42c0-2.7-.7-4-2-4-1.2 0-1.7 1.4-1.7 4.1v41.9H391v-42c0-2.7-.7-4-2-4-1.2 0-1.8 1.4-1.8 4.1v41.9h-12.9v-57.4h37c5.8 0 8.8 5 8.8 15v42.4z"/></symbol></svg>